<svg xmlns="http://www.w3.org/2000/svg" xmlns:xlink="http://www.w3.org/1999/xlink" viewBox="0 0 2640.75733 1226.57872"><defs><filter id="outer-glow-27" x="2047.9383" y="527.21269" width="576" height="301" filterUnits="userSpaceOnUse"><feOffset dx="0" dy="0"/><feGaussianBlur result="blur-3" stdDeviation="30"/><feFlood flood-color="#00ff7f" flood-opacity="1"/><feComposite in2="blur-3" operator="in"/><feComposite in="SourceGraphic"/></filter><filter id="outer-glow-157" x="1701.9383" y="441.21269" width="378" height="301" filterUnits="userSpaceOnUse"><feOffset dx="0" dy="0"/><feGaussianBlur result="blur-11" stdDeviation="30"/><feFlood flood-color="#00ff7f" flood-opacity="1"/><feComposite in2="blur-11" operator="in"/><feComposite in="SourceGraphic"/></filter></defs><g id="white_box_-_alert_logic"><path d="M2520.19046,735.81232h-368.99157c-7.64799,0-13.06676-7.46701-10.69533-14.73805l30.68505-94.08327c1.50978-4.62912,5.82622-7.76154,10.69533-7.76154h307.62147c4.8691,0,9.18555,3.13242,10.69533,7.76154l30.68505,94.08327c2.37143,7.27104-3.04734,14.73805-10.69533,14.73805Z" style="fill:#fff; filter:url(#outer-glow-27); stroke:#00ef83; stroke-miterlimit:10; stroke-width:3px;"/></g><g id="alert_logic"><path d="M2241.65504,687.68491l7.1084-19.69163h3.21397l7.0951,19.69163h-2.94133l-1.85302-5.16118h-7.80218l-1.86632,5.16118h-2.95463ZM2247.19636,679.88162h6.31932l-3.15855-9.05673-3.16077,9.05673Z"/><path d="M2263.94666,687.68491l.0133-19.69163h2.95463v17.13154h9.09885v2.56009h-12.06678Z"/><path d="M2281.0383,687.68491v-19.69163h12.72065l-.01552,2.53238h-9.7771v5.97908h8.72869v2.50578h-8.74198v6.10099l10.03644.0133v2.56009h-12.95117Z"/><path d="M2299.40889,687.68491v-19.69163h7.81769c1.46069,0,2.67313.22387,3.63511.67382.96197.44885,1.68013,1.08721,2.15225,1.91286.47212.82676.70707,1.80315.70707,2.92803,0,1.06282-.17732,1.94722-.5364,2.6554s-.82233,1.28559-1.38976,1.73-1.16368.79463-1.79095,1.04842l3.81243,8.74309h-3.06324l-3.4999-8.23883h-4.92956v8.23883h-2.91473ZM2302.32362,677.08991h4.11166c1.37203,0,2.43375-.29701,3.18737-.89215.75362-.59403,1.13043-1.44518,1.13043-2.55344,0-1.08942-.34356-1.91508-1.02847-2.47808s-1.61363-.8445-2.78396-.8445h-4.61703v6.76817Z"/><path d="M2323.67765,687.68491v-17.03623h-6.23731v-2.6554h15.13002v2.6554h-5.95138v17.03623h-2.94133Z"/><path d="M2344.86765,687.68491l.0133-19.69163h2.95463v17.13154h9.09663v2.56009h-12.06456Z"/><path d="M2369.59745,687.95754c-1.78874,0-3.33366-.39787-4.63698-1.19138-1.30332-.79463-2.30741-1.94279-3.01004-3.44559s-1.05507-3.31593-1.05507-5.44047c0-2.14338.35686-3.9698,1.06837-5.48147.71372-1.51167,1.72003-2.66981,3.02334-3.4733,1.30332-.80349,2.83937-1.20468,4.61038-1.20468,1.75992,0,3.28933.40119,4.58156,1.20468,1.29445.80349,2.29411,1.96163,2.99675,3.4733.70264,1.51167,1.05507,3.33809,1.05507,5.48147,0,2.12454-.35021,3.93544-1.04842,5.43382-.69821,1.49726-1.69564,2.64653-2.9901,3.44448-1.29224.79906-2.82386,1.19914-4.59486,1.19914ZM2369.59745,685.46506c1.14373,0,2.12122-.26266,2.93468-.79019.81125-.52643,1.43188-1.34765,1.85967-2.46478.42557-1.11602.63836-2.54679.63836-4.28898,0-1.78874-.215-3.25054-.64501-4.3854-.43222-1.13486-1.05507-1.97271-1.86632-2.51243-.81347-.54083-1.78652-.81125-2.92138-.81125s-2.11235.27263-2.93468.8179c-.82233.54416-1.45626,1.38422-1.89956,2.51908-.44552,1.13486-.66717,2.59223-.66717,4.3721,0,1.75217.22165,3.18404.66717,4.29563.44331,1.1127,1.07723,1.9317,1.89956,2.45813.82233.52753,1.79982.79019,2.93468.79019Z"/><path d="M2390.93818,687.95754c-1.75327,0-3.26495-.40008-4.53502-1.19914-1.27229-.79795-2.24978-1.94944-2.93468-3.45224-.68712-1.5017-1.02847-3.30595-1.02847-5.41276,0-2.12454.35243-3.94653,1.05507-5.46817.70264-1.52054,1.70451-2.68421,3.00339-3.49325,1.29667-.80792,2.82386-1.21133,4.57491-1.21133,1.04398,0,2.01261.17732,2.90808.53086.89326.35464,1.68456.83563,2.36947,1.44407.68491.60733,1.22796,1.29778,1.62693,2.06913.39897.77246.62728,1.58038.68047,2.42488h-3.10314c-.12856-.69931-.39897-1.34654-.81125-1.94057-.41227-.59514-.93759-1.07391-1.57373-1.43742-.63393-.3624-1.35208-.54416-2.15003-.54416-1.06393,0-2.00374.26266-2.81942.78908-.8179.52753-1.45626,1.34876-1.91286,2.46478-.45882,1.11713-.68934,2.55233-.68934,4.30339,0,1.37203.14407,2.53792.43001,3.50101.28593.96197.67826,1.73776,1.17698,2.32846.49872.5896,1.0861,1.01849,1.75771,1.28669s1.38976.40119,2.15225.40119c.75362,0,1.41636-.13078,1.98823-.39454.57186-.26266,1.05063-.604,1.43631-1.02071.38568-.41782.68491-.86999.89769-1.35541.215-.48542.3347-.95532.36129-1.40971l.10861-1.59368h-4.60151v-2.09684l7.63815.02771v10.18605h-2.11013v-2.88703c-.34578.53529-.77578,1.04398-1.29445,1.52497-.51645.48209-1.15259.87442-1.90621,1.17808s-1.65131.4566-2.6953.4566Z"/><path d="M2405.01756,687.68491v-19.69163h2.91473v19.69163h-2.91473Z"/><path d="M2421.72796,687.95754c-1.77987,0-3.30484-.41117-4.57713-1.23239-1.27007-.82233-2.24313-1.99266-2.91917-3.5143-.67826-1.52054-1.01517-3.34252-1.01517-5.46707,0-2.11568.3347-3.91993,1.00852-5.41387.67161-1.49283,1.64245-2.63434,2.91252-3.42454,1.27229-.79019,2.80169-1.18473,4.59043-1.18473,1.41636,0,2.67313.29037,3.77253.8711,1.09718.58184,1.98158,1.36206,2.64875,2.34287.66717.97971,1.06393,2.0658,1.19028,3.25497h-3.10314c-.13742-.74475-.39897-1.41858-.78465-2.02258s-.89548-1.08056-1.53162-1.42966c-.63614-.35021-1.38976-.52532-2.26086-.52532-1.11713,0-2.0658.26377-2.84602.79019s-1.37425,1.34876-1.77766,2.46478c-.40341,1.11713-.60511,2.55566-.60511,4.3178,0,2.65983.44996,4.60484,1.34765,5.83501.89991,1.23017,2.19215,1.84526,3.88114,1.84526.8711,0,1.62471-.1884,2.26086-.56521s1.14594-.87996,1.53162-1.51167c.38568-.6306.64723-1.31883.78465-2.06248h3.10314c-.10861.86223-.3347,1.6901-.68047,2.48473s-.82455,1.50502-1.43631,2.13119c-.61398.62617-1.37425,1.11935-2.28081,1.47732-.90878.35908-1.97936.53862-3.21397.53862Z"/></g><g id="white_box_-_data"><rect x="1793.93287" y="533.18663" width="194.3961" height="116.58286" rx="9.10089" ry="9.10089" style="fill:#fff; filter:url(#outer-glow-157); stroke:#00ef83; stroke-miterlimit:10; stroke-width:3px;"/></g><g id="data"><path d="M1853.92895,601.08074v-19.69163c.07315,0,.28815.00222.64723.00665s.7913.00443,1.3011,0c.50758-.00443,1.02847-.00443,1.55822,0,.53197.00443,1.0063.01108,1.42301.01995,2.40715.04544,4.36213.44996,5.86937,1.21244s2.61329,1.85634,3.31593,3.28157c.70486,1.42523,1.05728,3.16409,1.05728,5.21549,0,2.13452-.37681,3.9432-1.13043,5.42717-.75362,1.48507-1.90621,2.61107-3.45335,3.37799s-3.50655,1.15038-5.87601,1.15038h-4.71234ZM1856.89688,598.62926h1.77101c1.48951,0,2.78618-.24271,3.88779-.72813,1.10383-.48542,1.95941-1.27561,2.56674-2.36947.60955-1.09386.91321-2.55787.91321-4.39205,0-1.7976-.29037-3.22948-.8711-4.29674s-1.41414-1.83418-2.50024-2.30186c-1.08388-.46769-2.38946-.70153-3.91439-.70153h-1.85302v14.78978Z"/><path d="M1872.90021,601.08074l7.1084-19.69163h3.21397l7.0951,19.69163h-2.94133l-1.85302-5.16118h-7.80218l-1.86632,5.16118h-2.95463ZM1878.44153,593.27746h6.31932l-3.15855-9.05673-3.16077,9.05673Z"/><path d="M1899.53622,601.08074v-17.03623h-6.23731v-2.6554h15.13002v2.6554h-5.95138v17.03623h-2.94133Z"/><path d="M1911.41238,601.08074l7.1084-19.69163h3.21397l7.0951,19.69163h-2.94133l-1.85302-5.16118h-7.80218l-1.86632,5.16118h-2.95463ZM1916.9537,593.27746h6.31932l-3.15855-9.05673-3.16077,9.05673Z"/></g><g id="database_icon_-_right_1"><path d="M1857.29359,514.55951h-42.30566v30.77144c-.29883,3.34785,1.77474,6.76207,6.22142,9.32933,8.29437,4.78874,21.69354,4.81686,29.92785.06279,4.01936-2.32056,6.05945-5.35169,6.13611-8.40366h.02028v-31.7599Z" style="fill:#fff; stroke:#000; stroke-linejoin:round; stroke-width:2.5px;"/><path d="M1814.9762,524.10748c-.29883,3.34785,1.77474,6.76207,6.22142,9.32933,8.29437,4.78874,21.69354,4.81686,29.92785.06279,4.01936-2.32056,6.05945-5.35169,6.13611-8.40366" style="fill:none; stroke:#000; stroke-linejoin:round; stroke-width:2.5px;"/><path d="M1814.9762,535.56815c-.29883,3.34785,1.77474,6.76207,6.22142,9.32933,8.29437,4.78874,21.69354,4.81686,29.92785.06279,4.01936-2.32056,6.05945-5.35169,6.13611-8.40366" style="fill:none; stroke:#000; stroke-linejoin:round; stroke-width:2.5px;"/><path d="M1851.1372,523.09331c-8.23433,4.75407-21.63349,4.72596-29.92787-.0628-8.29438-4.78875-8.34306-12.52474-.10873-17.27881,8.23433-4.75407,21.63349-4.72596,29.92787.0628,8.29438,4.78875,8.34306,12.52474.10873,17.27881Z" style="fill:#fff; stroke:#000; stroke-linejoin:round; stroke-width:2.5px;"/></g></svg>