<svg xmlns="http://www.w3.org/2000/svg" xmlns:xlink="http://www.w3.org/1999/xlink" viewBox="0 0 2640.75733 1226.57872"><defs><filter id="outer-glow-19" x="1564.63065" y="840.21269" width="584" height="415" filterUnits="userSpaceOnUse"><feOffset dx="0" dy="0"/><feGaussianBlur result="blur-5" stdDeviation="30"/><feFlood flood-color="#00ef83" flood-opacity="1"/><feComposite in2="blur-5" operator="in"/><feComposite in="SourceGraphic"/></filter><filter id="outer-glow-23" x="1688.63065" y="1096.21269" width="169" height="45" filterUnits="userSpaceOnUse"><feOffset dx="0" dy="0"/><feGaussianBlur result="blur-6" stdDeviation="4"/><feFlood flood-color="#00ef83" flood-opacity="1"/><feComposite in2="blur-6" operator="in"/><feComposite in="SourceGraphic"/></filter><filter id="outer-glow-25" x="1689.63065" y="1050.21269" width="303" height="46" filterUnits="userSpaceOnUse"><feOffset dx="0" dy="0"/><feGaussianBlur result="blur-7" stdDeviation="4"/><feFlood flood-color="#00ef83" flood-opacity="1"/><feComposite in2="blur-7" operator="in"/><feComposite in="SourceGraphic"/></filter><filter id="outer-glow-27" x="1689.63065" y="959.21269" width="331" height="46" filterUnits="userSpaceOnUse"><feOffset dx="0" dy="0"/><feGaussianBlur result="blur-8" stdDeviation="4"/><feFlood flood-color="#00ef83" flood-opacity="1"/><feComposite in2="blur-8" operator="in"/><feComposite in="SourceGraphic"/></filter><filter id="drop-shadow-39" x="86.63065" y="138.21269" width="809" height="690" filterUnits="userSpaceOnUse"><feOffset dx="0" dy="0"/><feGaussianBlur result="blur-11" stdDeviation="3"/><feFlood flood-color="#000" flood-opacity=".06"/><feComposite in2="blur-11" operator="in"/><feComposite in="SourceGraphic"/></filter><filter id="outer-glow-53" x="1688.63065" y="1005.21269" width="265" height="46" filterUnits="userSpaceOnUse"><feOffset dx="0" dy="0"/><feGaussianBlur result="blur-14" stdDeviation="4"/><feFlood flood-color="#00ef83" flood-opacity="1"/><feComposite in2="blur-14" operator="in"/><feComposite in="SourceGraphic"/></filter></defs><g id="glow_grey_box"><rect x="1657.08213" y="931.96019" width="399.99589" height="231.39135" rx="9.10089" ry="9.10089" style="fill:#f7f6f3; filter:url(#outer-glow-19); stroke:#00ef83; stroke-miterlimit:10; stroke-width:3px;"/></g><g id="glow_analysis"><g style="filter:url(#outer-glow-23);"><path d="M1701.01736,1128.57996l7.1084-19.69163h3.21397l7.0951,19.69163h-2.94133l-1.85302-5.16118h-7.80218l-1.86632,5.16118h-2.95463ZM1706.55868,1120.77667h6.31932l-3.15855-9.05673-3.16077,9.05673Z" style="stroke:#000; stroke-width:.5px;"/><path d="M1723.30898,1128.57996v-19.69163h2.81942l10.02314,14.68006v-14.68006h2.92803v19.69163h-2.6155l-10.24036-14.9804v14.9804h-2.91473Z" style="stroke:#000; stroke-width:.5px;"/><path d="M1743.94042,1128.57996l7.1084-19.69163h3.21397l7.0951,19.69163h-2.94133l-1.8508-5.16118h-7.80439l-1.86632,5.16118h-2.95463ZM1749.48395,1120.77667h6.3171l-3.15855-9.05673-3.15855,9.05673Z" style="stroke:#000; stroke-width:.5px;"/><path d="M1766.23425,1128.57996l.0133-19.69163h2.95459v17.13154h9.09889v2.56009h-12.06678Z" style="stroke:#000; stroke-width:.5px;"/><path d="M1787.88751,1128.57996v-8.36185l-6.75598-11.32978h3.18737l5.03817,8.75639,4.97167-8.75639h3.18737l-6.71386,11.34308v8.34855h-2.91473Z" style="stroke:#000; stroke-width:.5px;"/><path d="M1808.53225,1128.85259c-.96197,0-1.88626-.11858-2.77066-.35464s-1.68899-.58738-2.41158-1.05507c-.72037-.46769-1.31662-1.05063-1.78209-1.74995-.46769-.69931-.76249-1.5161-.87996-2.45148h3.03664c.15516.70818.46104,1.30332.91986,1.7843s1.03512.8445,1.72889,1.08942c.69599.24493,1.46512.36794,2.30962.36794.78022,0,1.50281-.12302,2.16555-.36794s1.19692-.59957,1.60698-1.06282c.40784-.46215.61176-1.02958.61176-1.70229,0-.75251-.25268-1.34987-.75584-1.78985-.50315-.44109-1.25899-.79241-2.26751-1.05618l-3.94985-.98081c-.95311-.22609-1.79317-.55081-2.51798-.97306-.72702-.42225-1.29002-.98081-1.68899-1.67569-.39897-.69377-.59846-1.55379-.59846-2.58004,0-1.14373.31475-2.14006.94646-2.98899.62949-.84893,1.48729-1.50502,2.57339-1.96828,1.08388-.46325,2.31184-.69488,3.68387-.69488,1.5693,0,2.89257.2682,3.9698.80349,1.07502.5364,1.89291,1.24236,2.45148,2.11789.55856.87664.84228,1.83196.85115,2.86708h-2.97015c-.08201-.8445-.32805-1.51389-.74254-2.00928-.41227-.49429-.93537-.85115-1.56487-1.06837-.63171-.21833-1.3277-.32694-2.09019-.32694-1.34543,0-2.35395.29701-3.02999.89215-.67604.59403-1.01517,1.29999-1.01517,2.11678,0,.75362.24825,1.34876.74254,1.7843s1.22796.77246,2.1988,1.00741l3.81243.93981c1.19914.26377,2.1589.65609,2.88149,1.17808.72037.52199,1.24126,1.13486,1.55822,1.83861.31918.70375.47655,1.47288.47655,2.30851,0,1.11713-.31253,2.10903-.93981,2.97569-.62506.86666-1.49837,1.54824-2.61994,2.04253s-2.43153.74254-3.9299.74254Z" style="stroke:#000; stroke-width:.5px;"/><path d="M1821.44352,1128.57996v-19.69163h2.91252v19.69163h-2.91252Z" style="stroke:#000; stroke-width:.5px;"/><path d="M1837.56654,1128.85259c-.96419,0-1.88626-.11858-2.77288-.35464-.88439-.23606-1.68678-.58738-2.40937-1.05507s-1.31662-1.05063-1.7843-1.74995-.76027-1.5161-.87774-2.45148h3.03664c.15294.70818.46104,1.30332.91986,1.7843.4566.48099,1.03512.8445,1.72889,1.08942s1.46291.36794,2.30741.36794c.78022,0,1.50281-.12302,2.16555-.36794s1.19914-.59957,1.60698-1.06282c.40784-.46215.61398-1.02958.61398-1.70229,0-.75251-.25268-1.34987-.75584-1.78985-.50537-.44109-1.2612-.79241-2.26751-1.05618l-3.94985-.98081c-.95311-.22609-1.79317-.55081-2.52019-.97306-.7248-.42225-1.2878-.98081-1.68899-1.67569-.39897-.69377-.59846-1.55379-.59846-2.58004,0-1.14373.31475-2.14006.94646-2.98899s1.48951-1.50502,2.57339-1.96828c1.0861-.46325,2.31405-.69488,3.68387-.69488,1.57152,0,2.89479.2682,3.9698.80349,1.07723.5364,1.89291,1.24236,2.45148,2.11789.55856.87664.84228,1.83196.85115,2.86708h-2.96793c-.08201-.8445-.33026-1.51389-.74254-2.00928-.41449-.49429-.93537-.85115-1.56709-1.06837-.62949-.21833-1.3277-.32694-2.09019-.32694-1.34322,0-2.35395.29701-3.02999.89215-.67604.59403-1.01517,1.29999-1.01517,2.11678,0,.75362.24825,1.34876.74254,1.7843.4965.43555,1.22796.77246,2.20101,1.00741l3.81243.93981c1.19914.26377,2.1589.65609,2.87927,1.17808.72259.52199,1.24126,1.13486,1.56044,1.83861.31696.70375.47655,1.47288.47655,2.30851,0,1.11713-.31253,2.10903-.93981,2.97569s-1.50059,1.54824-2.62215,2.04253-2.42931.74254-3.92769.74254Z" style="stroke:#000; stroke-width:.5px;"/></g></g><g id="dataset_building"><path d="M1702.48692,1083.18547v-19.69163c.07315,0,.28815.00222.64723.00665s.7913.00443,1.3011,0c.50758-.00443,1.02847-.00443,1.55822,0,.53197.00443,1.0063.01108,1.42301.01995,2.40715.04544,4.36213.44996,5.86937,1.21244s2.61329,1.85634,3.31593,3.28157c.70486,1.42523,1.05728,3.16409,1.05728,5.21549,0,2.13452-.37685,3.9432-1.13043,5.42717-.75362,1.48507-1.90621,2.61107-3.45335,3.37799s-3.50655,1.15038-5.87601,1.15038h-4.71234ZM1705.45485,1080.73399h1.77101c1.48951,0,2.78618-.24271,3.88779-.72813,1.10383-.48542,1.95941-1.27561,2.56674-2.36947.60955-1.09386.91321-2.55787.91321-4.39205,0-1.7976-.29037-3.22948-.8711-4.29674s-1.41414-1.83418-2.50024-2.30186c-1.08388-.46769-2.38942-.70153-3.91439-.70153h-1.85302v14.78978Z"/><path d="M1721.45818,1083.18547l7.1084-19.69163h3.21397l7.0951,19.69163h-2.94133l-1.85302-5.16118h-7.80218l-1.86632,5.16118h-2.95463ZM1726.9995,1075.38219h6.31932l-3.15855-9.05673-3.16077,9.05673Z"/><path d="M1748.09419,1083.18547v-17.03623h-6.23731v-2.6554h15.13002v2.6554h-5.95138v17.03623h-2.94133Z"/><path d="M1759.97034,1083.18547l7.1084-19.69163h3.21397l7.0951,19.69163h-2.94133l-1.85302-5.16118h-7.80218l-1.86632,5.16118h-2.95463ZM1765.51166,1075.38219h6.31932l-3.15855-9.05673-3.16077,9.05673Z"/><path d="M1789.12655,1083.45811c-.96419,0-1.88626-.11858-2.77288-.35464-.88439-.23606-1.68678-.58738-2.40937-1.05507s-1.31662-1.05063-1.7843-1.74995-.76027-1.5161-.87774-2.45148h3.03664c.15294.70818.46104,1.30332.91986,1.7843.4566.48099,1.03512.8445,1.72889,1.08942s1.46291.36794,2.30741.36794c.78022,0,1.50281-.12302,2.16555-.36794s1.19914-.59957,1.60698-1.06282c.40784-.46215.61398-1.02958.61398-1.70229,0-.75251-.25268-1.34987-.75584-1.78985-.50537-.44109-1.2612-.79241-2.26751-1.05618l-3.94985-.98081c-.95311-.22609-1.79317-.55081-2.52019-.97306-.7248-.42225-1.2878-.98081-1.68899-1.67569-.39897-.69377-.59846-1.55379-.59846-2.58004,0-1.14373.31475-2.14006.94646-2.98899s1.48951-1.50502,2.57339-1.96828c1.0861-.46325,2.31405-.69488,3.68387-.69488,1.57152,0,2.89479.2682,3.9698.80349,1.07723.5364,1.89291,1.24236,2.45148,2.11789.55856.87664.84228,1.83196.85115,2.86708h-2.96793c-.08201-.8445-.33026-1.51389-.74254-2.00928-.41449-.49429-.93537-.85115-1.56709-1.06837-.62949-.21833-1.3277-.32694-2.09019-.32694-1.34322,0-2.35395.29701-3.02999.89215-.67604.59403-1.01517,1.29999-1.01517,2.11678,0,.75362.24825,1.34876.74254,1.7843.4965.43555,1.22796.77246,2.20101,1.00741l3.81243.93981c1.19914.26377,2.1589.65609,2.87927,1.17808.72259.52199,1.24126,1.13486,1.56044,1.83861.31696.70375.47655,1.47288.47655,2.30851,0,1.11713-.31253,2.10903-.93981,2.97569s-1.50059,1.54824-2.62215,2.04253-2.42931.74254-3.92769.74254Z"/><path d="M1802.0356,1083.18547v-19.69163h12.72065l-.01552,2.53238h-9.7771v5.97908h8.72869v2.50578h-8.74203v6.10099l10.03648.0133v2.56009h-12.95117Z"/><path d="M1824.7528,1083.18547v-17.03623h-6.23731v-2.6554h15.13002v2.6554h-5.95138v17.03623h-2.94133Z"/><path d="M1845.94058,1083.18547v-19.69163h6.54984c2.44261,0,4.28455.43998,5.52359,1.31994,1.23904.88107,1.85745,2.15668,1.85745,3.82683,0,1.01739-.26377,1.89624-.79573,2.63545-.53197.74032-1.45848,1.35984-2.78396,1.85856.78022.17289,1.43409.42003,1.95941.74254.52753.3225.94202.69266,1.24569,1.11048.30588.41782.5231.8711.65388,1.36095.13299.49096.19727.99965.19727,1.52608,0,1.78874-.62728,3.12087-1.88405,3.9964-1.25899.87664-3.17185,1.3144-5.74081,1.3144h-6.78257ZM1848.85532,1072.01861h4.15377c.48985,0,.97084-.04987,1.44296-.14962s.90434-.26598,1.29445-.49761.70264-.54194.93981-.93316c.23495-.39011.35243-.86666.35243-1.42966,0-1.07058-.40341-1.86521-1.21022-2.38277-.80903-.51756-1.85745-.77689-3.14747-.77689h-3.82573v6.1697ZM1848.85532,1080.816h3.88114c1.5161,0,2.67092-.26155,3.46665-.78354.79352-.52199,1.19028-1.30443,1.19028-2.34841,0-.75362-.19505-1.37092-.58516-1.85302-.39011-.48099-.91764-.83452-1.58038-1.06172s-1.40306-.34024-2.21874-.34024h-4.15377v6.38692Z"/><path d="M1873.04202,1083.45811c-1.77096,0-3.19618-.29037-4.27785-.8722-1.07945-.58073-1.86632-1.42966-2.36282-2.54679-.49429-1.11602-.74032-2.47808-.74032-4.08506v-12.46021h3.00783v12.82815c0,1.56154.38346,2.7219,1.15259,3.47884.76692.75916,1.83972,1.13708,3.22057,1.13708.91547,0,1.70899-.16513,2.37617-.4965s1.17698-.84006,1.53162-1.52497c.35464-.68602.53197-1.55046.53197-2.59445v-12.82815h2.95463v12.69184c0,1.53384-.2549,2.8438-.76249,3.9288-.5098,1.08499-1.30553,1.91397-2.38942,2.48584-1.0861.57186-2.50024.8578-4.24248.8578Z"/><path d="M1886.27917,1083.18547v-19.69163h2.91252v19.69163h-2.91252Z"/><path d="M1895.53761,1083.18547l.0133-19.69163h2.95463v17.13154h9.09885v2.56009h-12.06678Z"/><path d="M1912.62925,1083.18547v-19.69163c.07315,0,.28815.00222.64723.00665s.7913.00443,1.3011,0c.50758-.00443,1.02847-.00443,1.55822,0,.53197.00443,1.0063.01108,1.42301.01995,2.40715.04544,4.36213.44996,5.86937,1.21244s2.61329,1.85634,3.31593,3.28157c.70486,1.42523,1.05728,3.16409,1.05728,5.21549,0,2.13452-.37681,3.9432-1.13043,5.42717-.75362,1.48507-1.90621,2.61107-3.45335,3.37799s-3.50655,1.15038-5.87601,1.15038h-4.71234ZM1915.59718,1080.73399h1.77101c1.48951,0,2.78618-.24271,3.88779-.72813,1.10383-.48542,1.95941-1.27561,2.56674-2.36947.60955-1.09386.91321-2.55787.91321-4.39205,0-1.7976-.29037-3.22948-.8711-4.29674s-1.41414-1.83418-2.50024-2.30186c-1.08388-.46769-2.38942-.70153-3.91439-.70153h-1.85302v14.78978Z"/><path d="M1933.07007,1083.18547v-19.69163h2.91473v19.69163h-2.91473Z"/><path d="M1942.33072,1083.18547v-19.69163h2.81721l10.02314,14.68006v-14.68006h2.92803v19.69163h-2.61329l-10.24257-14.9804v14.9804h-2.91252Z"/><path d="M1971.86817,1083.45811c-1.75327,0-3.26495-.40008-4.53502-1.19914-1.27229-.79795-2.24978-1.94944-2.93473-3.45224-.68707-1.5017-1.02842-3.30595-1.02842-5.41276,0-2.12454.35243-3.94653,1.05507-5.46817.70264-1.52054,1.70451-2.68421,3.00339-3.49325,1.29667-.80792,2.82386-1.21133,4.57491-1.21133,1.04398,0,2.01261.17732,2.90808.53086.89326.35464,1.68456.83563,2.36947,1.44407.68491.60733,1.22796,1.29778,1.62693,2.06913.39897.77246.62728,1.58038.68047,2.42488h-3.10314c-.12856-.69931-.39897-1.34654-.81125-1.94057-.41227-.59514-.93759-1.07391-1.57373-1.43742-.63393-.3624-1.35208-.54416-2.15003-.54416-1.06393,0-2.00374.26266-2.81942.78908-.8179.52753-1.45626,1.34876-1.91286,2.46478-.45882,1.11713-.68934,2.55233-.68934,4.30339,0,1.37203.14407,2.53792.43001,3.50101.28593.96197.67826,1.73776,1.17698,2.32846.49872.5896,1.08605,1.01849,1.75771,1.28669.67161.2682,1.38976.40119,2.15225.40119.75362,0,1.41636-.13078,1.98823-.39454.57186-.26266,1.05063-.604,1.43631-1.02071.38568-.41782.68491-.86999.89769-1.35541.215-.48542.3347-.95532.36129-1.40971l.10861-1.59368h-4.60151v-2.09684l7.63815.02771v10.18605h-2.11013v-2.88703c-.34578.53529-.77578,1.04398-1.29445,1.52497-.51645.48209-1.15259.87442-1.90621,1.17808s-1.65131.4566-2.6953.4566Z"/></g><g id="glow_dataset_building_copy"><g style="filter:url(#outer-glow-25);"><path d="M1702.48692,1083.18547v-19.69163c.07315,0,.28815.00222.64723.00665s.7913.00443,1.3011,0c.50758-.00443,1.02847-.00443,1.55822,0,.53197.00443,1.0063.01108,1.42301.01995,2.40715.04544,4.36213.44996,5.86937,1.21244s2.61329,1.85634,3.31593,3.28157c.70486,1.42523,1.05728,3.16409,1.05728,5.21549,0,2.13452-.37685,3.9432-1.13043,5.42717-.75362,1.48507-1.90621,2.61107-3.45335,3.37799s-3.50655,1.15038-5.87601,1.15038h-4.71234ZM1705.45485,1080.73399h1.77101c1.48951,0,2.78618-.24271,3.88779-.72813,1.10383-.48542,1.95941-1.27561,2.56674-2.36947.60955-1.09386.91321-2.55787.91321-4.39205,0-1.7976-.29037-3.22948-.8711-4.29674s-1.41414-1.83418-2.50024-2.30186c-1.08388-.46769-2.38942-.70153-3.91439-.70153h-1.85302v14.78978Z" style="stroke:#000; stroke-width:.5px;"/><path d="M1721.45818,1083.18547l7.1084-19.69163h3.21397l7.0951,19.69163h-2.94133l-1.85302-5.16118h-7.80218l-1.86632,5.16118h-2.95463ZM1726.9995,1075.38219h6.31932l-3.15855-9.05673-3.16077,9.05673Z" style="stroke:#000; stroke-width:.5px;"/><path d="M1748.09419,1083.18547v-17.03623h-6.23731v-2.6554h15.13002v2.6554h-5.95138v17.03623h-2.94133Z" style="stroke:#000; stroke-width:.5px;"/><path d="M1759.97034,1083.18547l7.1084-19.69163h3.21397l7.0951,19.69163h-2.94133l-1.85302-5.16118h-7.80218l-1.86632,5.16118h-2.95463ZM1765.51166,1075.38219h6.31932l-3.15855-9.05673-3.16077,9.05673Z" style="stroke:#000; stroke-width:.5px;"/><path d="M1789.12655,1083.45811c-.96419,0-1.88626-.11858-2.77288-.35464-.88439-.23606-1.68678-.58738-2.40937-1.05507s-1.31662-1.05063-1.7843-1.74995-.76027-1.5161-.87774-2.45148h3.03664c.15294.70818.46104,1.30332.91986,1.7843.4566.48099,1.03512.8445,1.72889,1.08942s1.46291.36794,2.30741.36794c.78022,0,1.50281-.12302,2.16555-.36794s1.19914-.59957,1.60698-1.06282c.40784-.46215.61398-1.02958.61398-1.70229,0-.75251-.25268-1.34987-.75584-1.78985-.50537-.44109-1.2612-.79241-2.26751-1.05618l-3.94985-.98081c-.95311-.22609-1.79317-.55081-2.52019-.97306-.7248-.42225-1.2878-.98081-1.68899-1.67569-.39897-.69377-.59846-1.55379-.59846-2.58004,0-1.14373.31475-2.14006.94646-2.98899s1.48951-1.50502,2.57339-1.96828c1.0861-.46325,2.31405-.69488,3.68387-.69488,1.57152,0,2.89479.2682,3.9698.80349,1.07723.5364,1.89291,1.24236,2.45148,2.11789.55856.87664.84228,1.83196.85115,2.86708h-2.96793c-.08201-.8445-.33026-1.51389-.74254-2.00928-.41449-.49429-.93537-.85115-1.56709-1.06837-.62949-.21833-1.3277-.32694-2.09019-.32694-1.34322,0-2.35395.29701-3.02999.89215-.67604.59403-1.01517,1.29999-1.01517,2.11678,0,.75362.24825,1.34876.74254,1.7843.4965.43555,1.22796.77246,2.20101,1.00741l3.81243.93981c1.19914.26377,2.1589.65609,2.87927,1.17808.72259.52199,1.24126,1.13486,1.56044,1.83861.31696.70375.47655,1.47288.47655,2.30851,0,1.11713-.31253,2.10903-.93981,2.97569s-1.50059,1.54824-2.62215,2.04253-2.42931.74254-3.92769.74254Z" style="stroke:#000; stroke-width:.5px;"/><path d="M1802.0356,1083.18547v-19.69163h12.72065l-.01552,2.53238h-9.7771v5.97908h8.72869v2.50578h-8.74203v6.10099l10.03648.0133v2.56009h-12.95117Z" style="stroke:#000; stroke-width:.5px;"/><path d="M1824.7528,1083.18547v-17.03623h-6.23731v-2.6554h15.13002v2.6554h-5.95138v17.03623h-2.94133Z" style="stroke:#000; stroke-width:.5px;"/><path d="M1845.94058,1083.18547v-19.69163h6.54984c2.44261,0,4.28455.43998,5.52359,1.31994,1.23904.88107,1.85745,2.15668,1.85745,3.82683,0,1.01739-.26377,1.89624-.79573,2.63545-.53197.74032-1.45848,1.35984-2.78396,1.85856.78022.17289,1.43409.42003,1.95941.74254.52753.3225.94202.69266,1.24569,1.11048.30588.41782.5231.8711.65388,1.36095.13299.49096.19727.99965.19727,1.52608,0,1.78874-.62728,3.12087-1.88405,3.9964-1.25899.87664-3.17185,1.3144-5.74081,1.3144h-6.78257ZM1848.85532,1072.01861h4.15377c.48985,0,.97084-.04987,1.44296-.14962s.90434-.26598,1.29445-.49761.70264-.54194.93981-.93316c.23495-.39011.35243-.86666.35243-1.42966,0-1.07058-.40341-1.86521-1.21022-2.38277-.80903-.51756-1.85745-.77689-3.14747-.77689h-3.82573v6.1697ZM1848.85532,1080.816h3.88114c1.5161,0,2.67092-.26155,3.46665-.78354.79352-.52199,1.19028-1.30443,1.19028-2.34841,0-.75362-.19505-1.37092-.58516-1.85302-.39011-.48099-.91764-.83452-1.58038-1.06172s-1.40306-.34024-2.21874-.34024h-4.15377v6.38692Z" style="stroke:#000; stroke-width:.5px;"/><path d="M1873.04202,1083.45811c-1.77096,0-3.19618-.29037-4.27785-.8722-1.07945-.58073-1.86632-1.42966-2.36282-2.54679-.49429-1.11602-.74032-2.47808-.74032-4.08506v-12.46021h3.00783v12.82815c0,1.56154.38346,2.7219,1.15259,3.47884.76692.75916,1.83972,1.13708,3.22057,1.13708.91547,0,1.70899-.16513,2.37617-.4965s1.17698-.84006,1.53162-1.52497c.35464-.68602.53197-1.55046.53197-2.59445v-12.82815h2.95463v12.69184c0,1.53384-.2549,2.8438-.76249,3.9288-.5098,1.08499-1.30553,1.91397-2.38942,2.48584-1.0861.57186-2.50024.8578-4.24248.8578Z" style="stroke:#000; stroke-width:.5px;"/><path d="M1886.27917,1083.18547v-19.69163h2.91252v19.69163h-2.91252Z" style="stroke:#000; stroke-width:.5px;"/><path d="M1895.53761,1083.18547l.0133-19.69163h2.95463v17.13154h9.09885v2.56009h-12.06678Z" style="stroke:#000; stroke-width:.5px;"/><path d="M1912.62925,1083.18547v-19.69163c.07315,0,.28815.00222.64723.00665s.7913.00443,1.3011,0c.50758-.00443,1.02847-.00443,1.55822,0,.53197.00443,1.0063.01108,1.42301.01995,2.40715.04544,4.36213.44996,5.86937,1.21244s2.61329,1.85634,3.31593,3.28157c.70486,1.42523,1.05728,3.16409,1.05728,5.21549,0,2.13452-.37681,3.9432-1.13043,5.42717-.75362,1.48507-1.90621,2.61107-3.45335,3.37799s-3.50655,1.15038-5.87601,1.15038h-4.71234ZM1915.59718,1080.73399h1.77101c1.48951,0,2.78618-.24271,3.88779-.72813,1.10383-.48542,1.95941-1.27561,2.56674-2.36947.60955-1.09386.91321-2.55787.91321-4.39205,0-1.7976-.29037-3.22948-.8711-4.29674s-1.41414-1.83418-2.50024-2.30186c-1.08388-.46769-2.38942-.70153-3.91439-.70153h-1.85302v14.78978Z" style="stroke:#000; stroke-width:.5px;"/><path d="M1933.07007,1083.18547v-19.69163h2.91473v19.69163h-2.91473Z" style="stroke:#000; stroke-width:.5px;"/><path d="M1942.33072,1083.18547v-19.69163h2.81721l10.02314,14.68006v-14.68006h2.92803v19.69163h-2.61329l-10.24257-14.9804v14.9804h-2.91252Z" style="stroke:#000; stroke-width:.5px;"/><path d="M1971.86817,1083.45811c-1.75327,0-3.26495-.40008-4.53502-1.19914-1.27229-.79795-2.24978-1.94944-2.93473-3.45224-.68707-1.5017-1.02842-3.30595-1.02842-5.41276,0-2.12454.35243-3.94653,1.05507-5.46817.70264-1.52054,1.70451-2.68421,3.00339-3.49325,1.29667-.80792,2.82386-1.21133,4.57491-1.21133,1.04398,0,2.01261.17732,2.90808.53086.89326.35464,1.68456.83563,2.36947,1.44407.68491.60733,1.22796,1.29778,1.62693,2.06913.39897.77246.62728,1.58038.68047,2.42488h-3.10314c-.12856-.69931-.39897-1.34654-.81125-1.94057-.41227-.59514-.93759-1.07391-1.57373-1.43742-.63393-.3624-1.35208-.54416-2.15003-.54416-1.06393,0-2.00374.26266-2.81942.78908-.8179.52753-1.45626,1.34876-1.91286,2.46478-.45882,1.11713-.68934,2.55233-.68934,4.30339,0,1.37203.14407,2.53792.43001,3.50101.28593.96197.67826,1.73776,1.17698,2.32846.49872.5896,1.08605,1.01849,1.75771,1.28669.67161.2682,1.38976.40119,2.15225.40119.75362,0,1.41636-.13078,1.98823-.39454.57186-.26266,1.05063-.604,1.43631-1.02071.38568-.41782.68491-.86999.89769-1.35541.215-.48542.3347-.95532.36129-1.40971l.10861-1.59368h-4.60151v-2.09684l7.63815.02771v10.18605h-2.11013v-2.88703c-.34578.53529-.77578,1.04398-1.29445,1.52497-.51645.48209-1.15259.87442-1.90621,1.17808s-1.65131.4566-2.6953.4566Z" style="stroke:#000; stroke-width:.5px;"/></g></g><g id="configuration-2"><path d="M1709.93667,1038.06362c-1.77987,0-3.30484-.41117-4.57713-1.23239-1.27007-.82233-2.24313-1.99266-2.91917-3.5143-.67826-1.52054-1.01517-3.34252-1.01517-5.46707,0-2.11568.3347-3.91993,1.00852-5.41387.67161-1.49283,1.64245-2.63434,2.91252-3.42454,1.27229-.79019,2.80169-1.18473,4.59043-1.18473,1.41636,0,2.67313.29037,3.77253.8711,1.09718.58184,1.98158,1.36206,2.64875,2.34287.66717.97971,1.06393,2.0658,1.19028,3.25497h-3.10318c-.13738-.74475-.39893-1.41858-.78461-2.02258s-.89548-1.08056-1.53162-1.42966c-.63614-.35021-1.38976-.52532-2.26086-.52532-1.11713,0-2.0658.26377-2.84602.79019s-1.37425,1.34876-1.77766,2.46478c-.40341,1.11713-.60511,2.55566-.60511,4.3178,0,2.65983.44996,4.60484,1.34765,5.83501.89991,1.23017,2.19215,1.84526,3.88114,1.84526.8711,0,1.62471-.1884,2.26086-.56521s1.14594-.87996,1.53162-1.51167c.38568-.6306.64723-1.31883.78461-2.06248h3.10318c-.10861.86223-.3347,1.6901-.68047,2.48473s-.82455,1.50502-1.43631,2.13119c-.61398.62617-1.37425,1.11935-2.28081,1.47732-.90878.35908-1.97936.53862-3.21397.53862Z"/><path d="M1730.45949,1038.06362c-1.78874,0-3.33366-.39787-4.63698-1.19138-1.30332-.79463-2.30741-1.94279-3.01004-3.44559s-1.05507-3.31593-1.05507-5.44047c0-2.14338.35686-3.9698,1.06837-5.48147.71372-1.51167,1.72003-2.66981,3.02334-3.4733s2.83937-1.20468,4.61038-1.20468c1.75992,0,3.28933.40119,4.58156,1.20468,1.29445.80349,2.29411,1.96163,2.99675,3.4733s1.05507,3.33809,1.05507,5.48147c0,2.12454-.35021,3.93544-1.04842,5.43382-.69821,1.49726-1.69564,2.64653-2.9901,3.44448-1.29224.79906-2.82386,1.19914-4.59486,1.19914ZM1730.45949,1035.57113c1.14373,0,2.12122-.26266,2.93468-.79019.81125-.52643,1.43188-1.34765,1.85967-2.46478.42557-1.11602.63836-2.54679.63836-4.28898,0-1.78874-.215-3.25054-.64501-4.3854-.43222-1.13486-1.05507-1.97271-1.86632-2.51243-.81347-.54083-1.78652-.81125-2.92138-.81125s-2.1124.27263-2.93468.8179c-.82233.54416-1.45626,1.38422-1.89956,2.51908-.44552,1.13486-.66717,2.59223-.66717,4.3721,0,1.75217.22165,3.18404.66717,4.29563.44331,1.1127,1.07723,1.9317,1.89956,2.45813.82229.52753,1.79982.79019,2.93468.79019Z"/><path d="M1744.36377,1037.79099v-19.69163h2.81721l10.02314,14.68006v-14.68006h2.92803v19.69163h-2.61329l-10.24257-14.9804v14.9804h-2.91252Z"/><path d="M1766.46477,1037.79099v-19.69163h12.58323l-.0133,2.50578h-9.602v6.08658h8.54028v2.47919h-8.54028v8.62008h-2.96793Z"/><path d="M1784.14158,1037.79099v-19.69163h2.91473v19.69163h-2.91473Z"/><path d="M1800.83868,1038.06362c-1.75327,0-3.26499-.40008-4.53502-1.19914-1.27229-.79795-2.24978-1.94944-2.93468-3.45224-.68712-1.5017-1.02847-3.30595-1.02847-5.41276,0-2.12454.35243-3.94653,1.05507-5.46817.70264-1.52054,1.70451-2.68421,3.00339-3.49325,1.29667-.80792,2.82386-1.21133,4.57491-1.21133,1.04398,0,2.01261.17732,2.90808.53086.89326.35464,1.68456.83563,2.36947,1.44407.68486.60733,1.22796,1.29778,1.62693,2.06913.39897.77246.62728,1.58038.68047,2.42488h-3.10314c-.12856-.69931-.39897-1.34654-.81125-1.94057-.41227-.59514-.93759-1.07391-1.57373-1.43742-.63393-.3624-1.35208-.54416-2.15003-.54416-1.06393,0-2.00374.26266-2.81942.78908-.8179.52753-1.45626,1.34876-1.91286,2.46478-.45882,1.11713-.68934,2.55233-.68934,4.30339,0,1.37203.14407,2.53792.43001,3.50101.28593.96197.67826,1.73776,1.17698,2.32846.49872.5896,1.0861,1.01849,1.75771,1.28669s1.38976.40119,2.15225.40119c.75362,0,1.41636-.13078,1.98823-.39454.57186-.26266,1.05063-.604,1.43631-1.02071.38568-.41782.68491-.86999.89769-1.35541.215-.48542.3347-.95532.36129-1.40971l.10861-1.59368h-4.60151v-2.09684l7.63815.02771v10.18605h-2.11013v-2.88703c-.34578.53529-.77578,1.04398-1.29445,1.52497-.51645.48209-1.15259.87442-1.90621,1.17808s-1.65131.4566-2.6953.4566Z"/><path d="M1822.30132,1038.06362c-1.77101,0-3.19623-.29037-4.2779-.8722-1.07945-.58073-1.86632-1.42966-2.36282-2.54679-.49429-1.11602-.74032-2.47808-.74032-4.08506v-12.46021h3.00783v12.82815c0,1.56154.38346,2.7219,1.15259,3.47884.76692.75916,1.83972,1.13708,3.22061,1.13708.91543,0,1.70894-.16513,2.37612-.4965s1.17698-.84006,1.53162-1.52497c.35464-.68602.53197-1.55046.53197-2.59445v-12.82815h2.95463v12.69184c0,1.53384-.2549,2.8438-.76249,3.9288-.5098,1.08499-1.30553,1.91397-2.38942,2.48584-1.0861.57186-2.50024.8578-4.24243.8578Z"/><path d="M1835.5362,1037.79099v-19.69163h7.81769c1.46069,0,2.67313.22387,3.63511.67382.96197.44885,1.68013,1.08721,2.15225,1.91286.47212.82676.70707,1.80315.70707,2.92803,0,1.06282-.17732,1.94722-.5364,2.6554s-.82233,1.28559-1.38976,1.73-1.16368.79463-1.79095,1.04842l3.81243,8.74309h-3.06324l-3.4999-8.23883h-4.92956v8.23883h-2.91473ZM1838.45094,1027.19599h4.11166c1.37203,0,2.43375-.29701,3.18737-.89215.75362-.59403,1.13043-1.44518,1.13043-2.55344,0-1.08942-.34356-1.91508-1.02847-2.47808s-1.61363-.8445-2.78396-.8445h-4.61703v6.76817Z"/><path d="M1853.9888,1037.79099l7.1084-19.69163h3.21397l7.0951,19.69163h-2.94133l-1.8508-5.16118h-7.80439l-1.86632,5.16118h-2.95463ZM1859.53233,1029.9877h6.3171l-3.15855-9.05673-3.15855,9.05673Z"/><path d="M1880.62702,1037.79099v-17.03623h-6.23731v-2.6554h15.13002v2.6554h-5.95138v17.03623h-2.94133Z"/><path d="M1893.97274,1037.79099v-19.69163h2.91252v19.69163h-2.91252Z"/><path d="M1910.87154,1038.06362c-1.78874,0-3.33366-.39787-4.63698-1.19138-1.3011-.79463-2.30519-1.94279-3.00783-3.44559-.70486-1.50281-1.05728-3.31593-1.05728-5.44047,0-2.14338.35686-3.9698,1.07058-5.48147.71151-1.51167,1.72003-2.66981,3.02334-3.4733,1.3011-.80349,2.83937-1.20468,4.60816-1.20468,1.76214,0,3.28933.40119,4.58378,1.20468,1.29445.80349,2.29189,1.96163,2.99675,3.4733.70264,1.51167,1.05507,3.33809,1.05507,5.48147,0,2.12454-.35021,3.93544-1.04842,5.43382-.70042,1.49726-1.69564,2.64653-2.9901,3.44448-1.29445.79906-2.82607,1.19914-4.59708,1.19914ZM1910.87154,1035.57113c1.14373,0,2.12343-.26266,2.93468-.79019.81347-.52643,1.43188-1.34765,1.85967-2.46478.42779-1.11602.64058-2.54679.64058-4.28898,0-1.78874-.21722-3.25054-.64723-4.3854-.43222-1.13486-1.05285-1.97271-1.86632-2.51243-.81125-.54083-1.78652-.81125-2.92138-.81125s-2.11235.27263-2.93468.8179c-.82012.54416-1.45404,1.38422-1.89956,2.51908-.44331,1.13486-.66717,2.59223-.66717,4.3721,0,1.75217.22387,3.18404.66717,4.29563.44552,1.1127,1.07945,1.9317,1.89956,2.45813.82233.52753,1.79982.79019,2.93468.79019Z"/><path d="M1924.77804,1037.79099v-19.69163h2.81721l10.02314,14.68006v-14.68006h2.92803v19.69163h-2.61329l-10.24257-14.9804v14.9804h-2.91252Z"/></g><g id="fleet_management"><path d="M1702.48692,992.3965v-19.69163h12.58323l-.0133,2.50578h-9.602v6.08658h8.54028v2.47919h-8.54028v8.62008h-2.96793Z"/><path d="M1720.16372,992.3965l.0133-19.69163h2.95463v17.13154h9.09885v2.56009h-12.06678Z"/><path d="M1737.25537,992.3965v-19.69163h12.71844l-.0133,2.53238h-9.7771v5.97908h8.72869v2.50578h-8.7442v6.10099l10.03865.0133v2.56009h-12.95117Z"/><path d="M1755.62595,992.3965v-19.69163h12.72065l-.01552,2.53238h-9.7771v5.97908h8.72869v2.50578h-8.74198v6.10099l10.03644.0133v2.56009h-12.95117Z"/><path d="M1778.34092,992.3965v-17.03623h-6.23731v-2.6554h15.13002v2.6554h-5.95138v17.03623h-2.94133Z"/><path d="M1799.53093,992.3965v-19.69163h4.11388l5.54132,15.66088,5.62555-15.66088h4.08506v19.69163h-2.98345v-15.67418l-5.44601,15.67418h-2.54679l-5.42163-15.55227v15.55227h-2.96793Z"/><path d="M1823.77087,992.3965l7.1084-19.69163h3.21397l7.0951,19.69163h-2.94133l-1.8508-5.16118h-7.80439l-1.86632,5.16118h-2.95463ZM1829.31441,984.59322h6.3171l-3.15855-9.05673-3.15855,9.05673Z"/><path d="M1846.06471,992.3965v-19.69163h2.81721l10.02314,14.68006v-14.68006h2.92803v19.69163h-2.61329l-10.24257-14.9804v14.9804h-2.91252Z"/><path d="M1866.69615,992.3965l7.1084-19.69163h3.21397l7.0951,19.69163h-2.94133l-1.8508-5.16118h-7.80439l-1.86632,5.16118h-2.95463ZM1872.23968,984.59322h6.3171l-3.15855-9.05673-3.15855,9.05673Z"/><path d="M1896.42422,992.66913c-1.75106,0-3.26273-.40008-4.53502-1.19914-1.27007-.79795-2.24978-1.94944-2.93468-3.45224-.68491-1.5017-1.02847-3.30595-1.02847-5.41276,0-2.12454.35243-3.94653,1.05728-5.46817.70264-1.52054,1.70229-2.68421,3.00118-3.49325,1.29889-.80792,2.82386-1.21133,4.57713-1.21133,1.04398,0,2.01261.17732,2.90587.53086.89548.35464,1.68456.83563,2.36947,1.44407.68712.60733,1.22796,1.29778,1.62915,2.06913.39897.77246.62506,1.58038.68047,2.42488h-3.10536c-.12634-.69931-.39676-1.34654-.81125-1.94057-.41227-.59514-.93759-1.07391-1.57152-1.43742-.63614-.3624-1.3543-.54416-2.15225-.54416-1.06172,0-2.00152.26266-2.81942.78908-.81568.52753-1.45404,1.34876-1.91286,2.46478-.45882,1.11713-.68712,2.55233-.68712,4.30339,0,1.37203.14186,2.53792.42779,3.50101.28593.96197.67826,1.73776,1.17919,2.32846.49872.5896,1.08388,1.01849,1.75549,1.28669s1.38976.40119,2.15225.40119c.75362,0,1.41636-.13078,1.98823-.39454.57186-.26266,1.05063-.604,1.43631-1.02071.38568-.41782.68712-.86999.89991-1.35541s.33248-.95532.36129-1.40971l.10861-1.59368h-4.60373v-2.09684l7.64037.02771v10.18605h-2.11013v-2.88703c-.34578.53529-.778,1.04398-1.29445,1.52497-.51867.48209-1.15259.87442-1.90621,1.17808s-1.65353.4566-2.69751.4566Z"/><path d="M1910.50582,992.3965v-19.69163h12.72065l-.01552,2.53238h-9.7771v5.97908h8.72869v2.50578h-8.74198v6.10099l10.03644.0133v2.56009h-12.95117Z"/><path d="M1928.8764,992.3965v-19.69163h4.11388l5.54132,15.66088,5.62555-15.66088h4.08506v19.69163h-2.98345v-15.67418l-5.44601,15.67418h-2.54679l-5.42163-15.55227v15.55227h-2.96793Z"/><path d="M1954.58812,992.3965v-19.69163h12.72065l-.01552,2.53238h-9.7771v5.97908h8.72869v2.50578h-8.74198v6.10099l10.03644.0133v2.56009h-12.95117Z"/><path d="M1972.9587,992.3965v-19.69163h2.81942l10.02314,14.68006v-14.68006h2.92803v19.69163h-2.6155l-10.24036-14.9804v14.9804h-2.91473Z"/><path d="M1999.40631,992.3965v-17.03623h-6.23731v-2.6554h15.13002v2.6554h-5.95138v17.03623h-2.94133Z"/></g><g id="pink_glow_fleet_management"><g style="filter:url(#outer-glow-27);"><path d="M1702.48692,992.3965v-19.69163h12.58323l-.0133,2.50578h-9.602v6.08658h8.54028v2.47919h-8.54028v8.62008h-2.96793Z" style="stroke:#000; stroke-width:.5px;"/><path d="M1720.16372,992.3965l.0133-19.69163h2.95463v17.13154h9.09885v2.56009h-12.06678Z" style="stroke:#000; stroke-width:.5px;"/><path d="M1737.25537,992.3965v-19.69163h12.71844l-.0133,2.53238h-9.7771v5.97908h8.72869v2.50578h-8.7442v6.10099l10.03865.0133v2.56009h-12.95117Z" style="stroke:#000; stroke-width:.5px;"/><path d="M1755.62595,992.3965v-19.69163h12.72065l-.01552,2.53238h-9.7771v5.97908h8.72869v2.50578h-8.74198v6.10099l10.03644.0133v2.56009h-12.95117Z" style="stroke:#000; stroke-width:.5px;"/><path d="M1778.34092,992.3965v-17.03623h-6.23731v-2.6554h15.13002v2.6554h-5.95138v17.03623h-2.94133Z" style="stroke:#000; stroke-width:.5px;"/><path d="M1799.53093,992.3965v-19.69163h4.11388l5.54132,15.66088,5.62555-15.66088h4.08506v19.69163h-2.98345v-15.67418l-5.44601,15.67418h-2.54679l-5.42163-15.55227v15.55227h-2.96793Z" style="stroke:#000; stroke-width:.5px;"/><path d="M1823.77087,992.3965l7.1084-19.69163h3.21397l7.0951,19.69163h-2.94133l-1.8508-5.16118h-7.80439l-1.86632,5.16118h-2.95463ZM1829.31441,984.59322h6.3171l-3.15855-9.05673-3.15855,9.05673Z" style="stroke:#000; stroke-width:.5px;"/><path d="M1846.06471,992.3965v-19.69163h2.81721l10.02314,14.68006v-14.68006h2.92803v19.69163h-2.61329l-10.24257-14.9804v14.9804h-2.91252Z" style="stroke:#000; stroke-width:.5px;"/><path d="M1866.69615,992.3965l7.1084-19.69163h3.21397l7.0951,19.69163h-2.94133l-1.8508-5.16118h-7.80439l-1.86632,5.16118h-2.95463ZM1872.23968,984.59322h6.3171l-3.15855-9.05673-3.15855,9.05673Z" style="stroke:#000; stroke-width:.5px;"/><path d="M1896.42422,992.66913c-1.75106,0-3.26273-.40008-4.53502-1.19914-1.27007-.79795-2.24978-1.94944-2.93468-3.45224-.68491-1.5017-1.02847-3.30595-1.02847-5.41276,0-2.12454.35243-3.94653,1.05728-5.46817.70264-1.52054,1.70229-2.68421,3.00118-3.49325,1.29889-.80792,2.82386-1.21133,4.57713-1.21133,1.04398,0,2.01261.17732,2.90587.53086.89548.35464,1.68456.83563,2.36947,1.44407.68712.60733,1.22796,1.29778,1.62915,2.06913.39897.77246.62506,1.58038.68047,2.42488h-3.10536c-.12634-.69931-.39676-1.34654-.81125-1.94057-.41227-.59514-.93759-1.07391-1.57152-1.43742-.63614-.3624-1.3543-.54416-2.15225-.54416-1.06172,0-2.00152.26266-2.81942.78908-.81568.52753-1.45404,1.34876-1.91286,2.46478-.45882,1.11713-.68712,2.55233-.68712,4.30339,0,1.37203.14186,2.53792.42779,3.50101.28593.96197.67826,1.73776,1.17919,2.32846.49872.5896,1.08388,1.01849,1.75549,1.28669s1.38976.40119,2.15225.40119c.75362,0,1.41636-.13078,1.98823-.39454.57186-.26266,1.05063-.604,1.43631-1.02071.38568-.41782.68712-.86999.89991-1.35541s.33248-.95532.36129-1.40971l.10861-1.59368h-4.60373v-2.09684l7.64037.02771v10.18605h-2.11013v-2.88703c-.34578.53529-.778,1.04398-1.29445,1.52497-.51867.48209-1.15259.87442-1.90621,1.17808s-1.65353.4566-2.69751.4566Z" style="stroke:#000; stroke-width:.5px;"/><path d="M1910.50582,992.3965v-19.69163h12.72065l-.01552,2.53238h-9.7771v5.97908h8.72869v2.50578h-8.74198v6.10099l10.03644.0133v2.56009h-12.95117Z" style="stroke:#000; stroke-width:.5px;"/><path d="M1928.8764,992.3965v-19.69163h4.11388l5.54132,15.66088,5.62555-15.66088h4.08506v19.69163h-2.98345v-15.67418l-5.44601,15.67418h-2.54679l-5.42163-15.55227v15.55227h-2.96793Z" style="stroke:#000; stroke-width:.5px;"/><path d="M1954.58812,992.3965v-19.69163h12.72065l-.01552,2.53238h-9.7771v5.97908h8.72869v2.50578h-8.74198v6.10099l10.03644.0133v2.56009h-12.95117Z" style="stroke:#000; stroke-width:.5px;"/><path d="M1972.9587,992.3965v-19.69163h2.81942l10.02314,14.68006v-14.68006h2.92803v19.69163h-2.6155l-10.24036-14.9804v14.9804h-2.91473Z" style="stroke:#000; stroke-width:.5px;"/><path d="M1999.40631,992.3965v-17.03623h-6.23731v-2.6554h15.13002v2.6554h-5.95138v17.03623h-2.94133Z" style="stroke:#000; stroke-width:.5px;"/></g></g><g id="configuration__x28_orange_glow_x29_"><g style="filter:url(#outer-glow-53);"><path d="M1709.93667,1038.06362c-1.77987,0-3.30484-.41006-4.57713-1.23239-1.27007-.82233-2.24313-1.99266-2.91917-3.5132-.67826-1.52054-1.01517-3.34252-1.01517-5.46817,0-2.11457.3347-3.91882,1.00852-5.41276.67161-1.49394,1.64245-2.63545,2.91252-3.42454,1.27229-.7913,2.80169-1.18584,4.59043-1.18584,1.41636,0,2.67313.29037,3.77253.8711,1.09718.58295,1.98158,1.36316,2.64875,2.34287s1.06393,2.0658,1.19028,3.25608h-3.10318c-.13738-.74475-.39893-1.41858-.78461-2.02369-.38568-.6029-.89548-1.07945-1.53162-1.42966s-1.38976-.52532-2.26086-.52532c-1.11713,0-2.0658.26377-2.84602.7913-.78022.52532-1.37425,1.34765-1.77766,2.46478s-.60511,2.55566-.60511,4.3178c0,2.65983.44996,4.60373,1.34765,5.8339.89991,1.23017,2.19215,1.84637,3.88114,1.84637.8711,0,1.62471-.1884,2.26086-.56521s1.14594-.87996,1.53162-1.51167.64723-1.31883.78461-2.06359h3.10318c-.10861.86223-.3347,1.69121-.68047,2.48473-.34578.79573-.82455,1.50502-1.43631,2.1323-.61398.62506-1.37425,1.11935-2.28081,1.47621-.90878.35908-1.97936.53862-3.21397.53862Z" style="stroke:#000; stroke-width:.5px;"/><path d="M1730.45949,1038.06362c-1.78874,0-3.33366-.39676-4.63698-1.19028-1.30332-.79573-2.30741-1.94389-3.01004-3.4467s-1.05507-3.31593-1.05507-5.43936c0-2.14338.35686-3.9698,1.06837-5.48147.71372-1.51167,1.72003-2.67092,3.02334-3.4733,1.30332-.8046,2.83937-1.20579,4.61038-1.20579,1.75992,0,3.28933.40119,4.58156,1.20579,1.29445.80238,2.29411,1.96163,2.99675,3.4733s1.05507,3.33809,1.05507,5.48147c0,2.12343-.35021,3.93434-1.04842,5.43271s-1.69564,2.64653-2.9901,3.44448c-1.29224.80017-2.82386,1.19914-4.59486,1.19914ZM1730.45949,1035.57224c1.14373,0,2.12122-.26377,2.93468-.7913.81125-.52532,1.43188-1.34765,1.85967-2.46478.42557-1.11491.63836-2.54679.63836-4.28898,0-1.78874-.215-3.24943-.64501-4.38429-.43222-1.13486-1.05507-1.97271-1.86632-2.51354-.81347-.54083-1.78652-.81125-2.92138-.81125s-2.1124.27263-2.93468.8179c-.82233.54527-1.45626,1.38533-1.89956,2.52019-.44552,1.13486-.66717,2.59112-.66717,4.37099,0,1.75327.22165,3.18515.66717,4.29563.44331,1.1127,1.07723,1.93281,1.89956,2.45813.82229.52753,1.79982.7913,2.93468.7913Z" style="stroke:#000; stroke-width:.5px;"/><path d="M1744.36377,1037.79099v-19.69163h2.81721l10.02314,14.68006v-14.68006h2.92803v19.69163h-2.61329l-10.24257-14.97929v14.97929h-2.91252Z" style="stroke:#000; stroke-width:.5px;"/><path d="M1766.46477,1037.79099v-19.69163h12.58323l-.0133,2.50689h-9.602v6.08658h8.54028v2.47808h-8.54028v8.62008h-2.96793Z" style="stroke:#000; stroke-width:.5px;"/><path d="M1784.14158,1037.79099v-19.69163h2.91473v19.69163h-2.91473Z" style="stroke:#000; stroke-width:.5px;"/><path d="M1800.83868,1038.06362c-1.75327,0-3.26499-.39897-4.53502-1.19914-1.27229-.79795-2.24978-1.94833-2.93468-3.45113-.68712-1.50281-1.02847-3.30706-1.02847-5.41276,0-2.12565.35243-3.94764,1.05507-5.46817s1.70451-2.68421,3.00339-3.49325c1.29667-.80903,2.82386-1.21244,4.57491-1.21244,1.04398,0,2.01261.17732,2.90808.53197.89326.35464,1.68456.83563,2.36947,1.44296.68486.60733,1.22796,1.29889,1.62693,2.07024s.62728,1.58038.68047,2.42488h-3.10314c-.12856-.70042-.39897-1.34765-.81125-1.94168-.41227-.59403-.93759-1.0728-1.57373-1.43631-.63393-.36351-1.35208-.54527-2.15003-.54527-1.06393,0-2.00374.26377-2.81942.78908-.8179.52753-1.45626,1.34987-1.91286,2.46478-.45882,1.11713-.68934,2.55344-.68934,4.3045,0,1.37203.14407,2.53792.43001,3.4999s.67826,1.73776,1.17698,2.32957c.49872.5896,1.0861,1.01739,1.75771,1.28559s1.38976.40119,2.15225.40119c.75362,0,1.41636-.13078,1.98823-.39454.57186-.26155,1.05063-.6029,1.43631-1.0196.38568-.41892.68491-.8711.89769-1.35651.215-.48542.3347-.95532.36129-1.40971l.10861-1.59368h-4.60151v-2.09684l7.63815.02881v10.18494h-2.11013v-2.88592c-.34578.53418-.77578,1.04398-1.29445,1.52497-.51645.48099-1.15259.87331-1.90621,1.17698s-1.65131.4566-2.6953.4566Z" style="stroke:#000; stroke-width:.5px;"/><path d="M1822.30132,1038.06362c-1.77101,0-3.19623-.29037-4.2779-.8711-1.07945-.58073-1.86632-1.42966-2.36282-2.54679-.49429-1.11713-.74032-2.47808-.74032-4.08506v-12.46132h3.00783v12.82926c0,1.56044.38346,2.7219,1.15259,3.47773.76692.76027,1.83972,1.13708,3.22061,1.13708.91543,0,1.70894-.16402,2.37612-.4965.66717-.33026,1.17698-.84006,1.53162-1.52497s.53197-1.54935.53197-2.59334v-12.82926h2.95463v12.69184c0,1.53384-.2549,2.8438-.76249,3.9299-.5098,1.08388-1.30553,1.91286-2.38942,2.48473-1.0861.57186-2.50024.8578-4.24243.8578Z" style="stroke:#000; stroke-width:.5px;"/><path d="M1835.5362,1037.79099v-19.69163h7.81769c1.46069,0,2.67313.22387,3.63511.67382s1.68013,1.08832,2.15225,1.91286c.47212.82676.70707,1.80425.70707,2.92803,0,1.06393-.17732,1.94833-.5364,2.6554-.35908.70929-.82233,1.28559-1.38976,1.73111-.56743.44331-1.16368.79352-1.79095,1.04842l3.81243,8.74198h-3.06324l-3.4999-8.23883h-4.92956v8.23883h-2.91473ZM1838.45094,1027.19599h4.11166c1.37203,0,2.43375-.29701,3.18737-.89104s1.13043-1.44518,1.13043-2.55344c0-1.09053-.34356-1.91508-1.02847-2.47808s-1.61363-.8445-2.78396-.8445h-4.61703v6.76706Z" style="stroke:#000; stroke-width:.5px;"/><path d="M1853.9888,1037.79099l7.1084-19.69163h3.21397l7.0951,19.69163h-2.94133l-1.8508-5.16008h-7.80439l-1.86632,5.16008h-2.95463ZM1859.53233,1029.98881h6.3171l-3.15855-9.05673-3.15855,9.05673Z" style="stroke:#000; stroke-width:.5px;"/><path d="M1880.62702,1037.79099v-17.03623h-6.23731v-2.6554h15.13002v2.6554h-5.95138v17.03623h-2.94133Z" style="stroke:#000; stroke-width:.5px;"/><path d="M1893.97274,1037.79099v-19.69163h2.91252v19.69163h-2.91252Z" style="stroke:#000; stroke-width:.5px;"/><path d="M1910.87154,1038.06362c-1.78874,0-3.33366-.39676-4.63698-1.19028-1.3011-.79573-2.30519-1.94389-3.00783-3.4467-.70486-1.50281-1.05728-3.31593-1.05728-5.43936,0-2.14338.35686-3.9698,1.07058-5.48147.71151-1.51167,1.72003-2.67092,3.02334-3.4733,1.3011-.8046,2.83937-1.20579,4.60816-1.20579,1.76214,0,3.28933.40119,4.58378,1.20579,1.29445.80238,2.29189,1.96163,2.99675,3.4733.70264,1.51167,1.05507,3.33809,1.05507,5.48147,0,2.12343-.35021,3.93434-1.04842,5.43271-.70042,1.49837-1.69564,2.64653-2.9901,3.44448-1.29445.80017-2.82607,1.19914-4.59708,1.19914ZM1910.87154,1035.57224c1.14373,0,2.12343-.26377,2.93468-.7913.81347-.52532,1.43188-1.34765,1.85967-2.46478.42779-1.11491.64058-2.54679.64058-4.28898,0-1.78874-.21722-3.24943-.64723-4.38429-.43222-1.13486-1.05285-1.97271-1.86632-2.51354-.81125-.54083-1.78652-.81125-2.92138-.81125s-2.11235.27263-2.93468.8179c-.82012.54527-1.45404,1.38533-1.89956,2.52019-.44331,1.13486-.66717,2.59112-.66717,4.37099,0,1.75327.22387,3.18515.66717,4.29563.44552,1.1127,1.07945,1.93281,1.89956,2.45813.82233.52753,1.79982.7913,2.93468.7913Z" style="stroke:#000; stroke-width:.5px;"/><path d="M1924.77804,1037.79099v-19.69163h2.81721l10.02314,14.68006v-14.68006h2.92803v19.69163h-2.61329l-10.24257-14.97929v14.97929h-2.91252Z" style="stroke:#000; stroke-width:.5px;"/></g></g></svg>