<svg xmlns="http://www.w3.org/2000/svg" xmlns:xlink="http://www.w3.org/1999/xlink" viewBox="0 0 2640.75733 1226.57872"><defs><filter id="drop-shadow-75" x="1059.63065" y="329.21269" width="510" height="227" filterUnits="userSpaceOnUse"><feOffset dx="0" dy="0"/><feGaussianBlur result="blur-5" stdDeviation="7"/><feFlood flood-color="#000" flood-opacity=".15"/><feComposite in2="blur-5" operator="in"/><feComposite in="SourceGraphic"/></filter><filter id="outer-glow-83" x="990.30206" y="260.21269" width="648" height="365" filterUnits="userSpaceOnUse"><feOffset dx="0" dy="0"/><feGaussianBlur result="blur-6" stdDeviation="30"/><feFlood flood-color="#00ff7f" flood-opacity="1"/><feComposite in2="blur-6" operator="in"/><feComposite in="SourceGraphic"/></filter></defs><g id="dropshadow_-_application"><rect x="1082.73112" y="352.45864" width="463.82326" height="181.19611" rx="9.02925" ry="9.02925" style="fill:#fff; filter:url(#drop-shadow-75); stroke:#000; stroke-miterlimit:10; stroke-width:2.5px;"/></g><g id="white_box_-_application_copy"><rect x="1082.73112" y="352.45864" width="463.82326" height="181.19611" rx="9.02925" ry="9.02925" style="fill:#fff; filter:url(#outer-glow-83); stroke:#00ef83; stroke-miterlimit:10; stroke-width:3px;"/></g><g id="application"><path d="M1179.98597,417.55004l10.66261-29.53856h4.82095l10.64377,29.53856h-4.41311l-2.77731-7.74233h-11.70548l-2.79837,7.74233h-4.43306ZM1188.30017,405.84456h9.47898l-4.74115-13.58399-4.73783,13.58399Z" style="fill:#252525;"/><path d="M1211.38198,417.55004v-29.53856h10.23371c2.11235,0,4.00083.36129,5.66988,1.08277,1.66683.72259,2.98123,1.7843,3.9432,3.18737.95976,1.40195,1.43853,3.1253,1.43853,5.16783,0,1.96052-.43887,3.63289-1.31662,5.01489s-2.10348,2.44151-3.67722,3.17628c-1.57373.73589-3.3935,1.10272-5.46374,1.10272h-6.37473v10.80668h-4.453ZM1215.81503,403.14815h6.27056c1.87962,0,3.41345-.54083,4.59708-1.62361,1.18584-1.08277,1.77766-2.52241,1.77766-4.32001,0-1.82531-.61398-3.22394-1.83972-4.1981-1.22574-.97306-2.79061-1.46069-4.69682-1.46069h-6.10875v11.60241Z" style="fill:#252525;"/><path d="M1237.57025,417.55004v-29.53856h10.23371c2.11235,0,4.00083.36129,5.66988,1.08277,1.66683.72259,2.98123,1.7843,3.9432,3.18737.95976,1.40195,1.43853,3.1253,1.43853,5.16783,0,1.96052-.43887,3.63289-1.31662,5.01489s-2.10348,2.44151-3.67722,3.17628c-1.57373.73589-3.3935,1.10272-5.46374,1.10272h-6.37473v10.80668h-4.453ZM1242.0033,403.14815h6.27056c1.87962,0,3.41345-.54083,4.59708-1.62361,1.18584-1.08277,1.77766-2.52241,1.77766-4.32001,0-1.82531-.61398-3.22394-1.83972-4.1981-1.22574-.97306-2.79061-1.46069-4.69682-1.46069h-6.10875v11.60241Z" style="fill:#252525;"/><path d="M1263.75852,417.55004l.01995-29.53856h4.43306v25.69842h13.64494v3.84013h-18.09795Z" style="fill:#252525;"/><path d="M1287.35124,417.55004v-29.53856h4.37321v29.53856h-4.37321Z" style="fill:#252525;"/><path d="M1310.3721,417.95899c-2.6687,0-4.95616-.61619-6.86237-1.84858s-3.36691-2.9901-4.38208-5.2709-1.52275-5.01489-1.52275-8.20115c0-3.17296.50537-5.88045,1.51167-8.12025,1.00852-2.2398,2.46478-3.95318,4.37321-5.13791,1.90621-1.18473,4.20032-1.77655,6.88232-1.77655,2.12565,0,4.01191.43555,5.65879,1.30664,1.6491.8722,2.97236,2.04364,3.97423,3.5143.99965,1.47067,1.5959,3.0976,1.78652,4.8819h-4.65692c-.20392-1.11713-.59625-2.12787-1.17476-3.03332s-1.34543-1.62028-2.29854-2.1456c-.95311-.52421-2.08354-.78576-3.39129-.78576-1.67348,0-3.09649.39454-4.26903,1.18473-1.17033.79019-2.05915,2.02258-2.66427,3.69717-.60733,1.67459-.91099,3.83348-.91099,6.47559,0,3.99086.67604,6.90781,2.02369,8.75307s3.28933,2.76844,5.8206,2.76844c1.30775,0,2.43818-.28261,3.39129-.84782s1.72003-1.32105,2.29854-2.26751.97084-1.97825,1.17476-3.09538h4.65692c-.16402,1.29445-.50315,2.53682-1.02182,3.7282-.51645,1.19138-1.23461,2.25753-2.15446,3.19734s-2.05915,1.67791-3.42232,2.21653c-1.36095.53751-2.96793.80682-4.82095.80682Z" style="fill:#252525;"/><path d="M1325.44892,417.55004l10.66371-29.53856h4.82095l10.64155,29.53856h-4.41089l-2.77953-7.74233h-11.70548l-2.79726,7.74233h-4.43306ZM1333.76311,405.84456h9.47787l-4.73894-13.58399-4.73894,13.58399Z" style="fill:#252525;"/><path d="M1363.36262,417.55004v-25.55435h-9.35596v-3.98421h22.69503v3.98421h-8.92817v25.55435h-4.41089Z" style="fill:#252525;"/><path d="M1381.33645,417.55004v-29.53856h4.37321v29.53856h-4.37321Z" style="fill:#252525;"/><path d="M1404.64323,417.95899c-2.682,0-5.00049-.59625-6.95546-1.78763-1.95276-1.19138-3.45778-2.91473-4.51285-5.16783-1.05728-2.25421-1.58482-4.975-1.58482-8.16125,0-3.21397.53418-5.9547,1.60477-8.22221,1.06837-2.26751,2.58004-4.00416,4.53502-5.20884,1.95276-1.20579,4.25795-1.80758,6.91335-1.80758,2.6421,0,4.93399.60179,6.87567,1.80758,1.93946,1.20468,3.43783,2.94133,4.4929,5.20884,1.05507,2.26751,1.5826,5.00824,1.5826,8.22221,0,3.18626-.5231,5.90372-1.57152,8.15017-1.04842,2.24756-2.54457,3.9698-4.48404,5.16894-1.94168,1.19803-4.238,1.7976-6.89562,1.7976ZM1404.64323,414.22081c1.71781,0,3.18515-.39565,4.40424-1.18473,1.21687-.79019,2.14782-2.02258,2.78618-3.69828.64058-1.67459.96197-3.81908.96197-6.43458,0-2.682-.32361-4.87525-.97084-6.57755s-1.58038-2.95796-2.79947-3.76921c-1.21909-.80903-2.67978-1.21466-4.38208-1.21466s-3.16963.40784-4.40202,1.22574c-1.23239.81679-2.18106,2.07689-2.84824,3.77918s-1.00187,3.88779-1.00187,6.55649c0,2.6288.3347,4.77662,1.00187,6.44566.66717,1.66794,1.61585,2.897,2.84824,3.68719,1.23239.78908,2.69973,1.18473,4.40202,1.18473Z" style="fill:#252525;"/><path d="M1423.45934,417.55004v-29.53856h4.22692l15.03471,22.0212v-22.0212h4.39316v29.53856h-3.92325l-15.36054-22.47005v22.47005h-4.37099Z" style="fill:#252525;"/></g><g id="mobile_x2C__web_app_x2C__voice_x2C__screen"><path d="M1184.36472,461.73763v-19.69163h4.11277l5.54243,15.66088,5.62333-15.66088h4.08506v19.69163h-2.98123v-15.67418l-5.44822,15.67418h-2.54679l-5.41941-15.55227v15.55227h-2.96793Z" style="fill:#1a1a1a;"/><path d="M1217.71459,462.01026c-1.78874,0-3.33366-.39787-4.63698-1.19138-1.3011-.79463-2.30519-1.94279-3.00783-3.44559-.70486-1.50281-1.05728-3.31593-1.05728-5.44047,0-2.14338.35686-3.9698,1.07058-5.48147.71151-1.51167,1.72003-2.66981,3.02334-3.4733,1.3011-.80349,2.83937-1.20468,4.60816-1.20468,1.76214,0,3.28933.40119,4.58378,1.20468s2.29189,1.96163,2.99675,3.4733c.70264,1.51167,1.05507,3.33809,1.05507,5.48147,0,2.12454-.35021,3.93544-1.04842,5.43382-.70042,1.49726-1.69564,2.64653-2.9901,3.44448-1.29445.79906-2.82607,1.19914-4.59708,1.19914ZM1217.71459,459.51777c1.14373,0,2.12343-.26266,2.93468-.79019.81347-.52643,1.43188-1.34765,1.85967-2.46478.42779-1.11602.64058-2.54679.64058-4.28898,0-1.78874-.21722-3.25054-.64723-4.3854-.43222-1.13486-1.05285-1.97271-1.86632-2.51243-.81125-.54083-1.78652-.81125-2.92138-.81125s-2.11235.27263-2.93468.8179c-.82012.54416-1.45404,1.38422-1.89956,2.51908-.44331,1.13486-.66717,2.59223-.66717,4.3721,0,1.75217.22387,3.18404.66717,4.29563.44552,1.1127,1.07945,1.9317,1.89956,2.45813.82233.52753,1.79982.79019,2.93468.79019Z" style="fill:#1a1a1a;"/><path d="M1231.61887,461.73763v-19.69163h6.54984c2.44261,0,4.28455.43998,5.52359,1.31994,1.23904.88107,1.85745,2.15668,1.85745,3.82683,0,1.01739-.26377,1.89624-.79573,2.63545-.53197.74032-1.45848,1.35984-2.78396,1.85856.78022.17289,1.43409.42003,1.95941.74254.52753.3225.94202.69266,1.24569,1.11048.30588.41782.5231.8711.65388,1.36095.13299.49096.19727.99965.19727,1.52608,0,1.78874-.62728,3.12087-1.88405,3.9964-1.25899.87664-3.17185,1.3144-5.74081,1.3144h-6.78257ZM1234.53361,450.57076h4.15377c.48985,0,.97084-.04987,1.44296-.14962s.90434-.26598,1.29445-.49761.70264-.54194.93981-.93316c.23495-.39011.35243-.86666.35243-1.42966,0-1.07058-.40341-1.86521-1.21022-2.38277-.80903-.51756-1.85745-.77689-3.14747-.77689h-3.82573v6.1697ZM1234.53361,459.36816h3.88114c1.5161,0,2.67092-.26155,3.46665-.78354.79352-.52199,1.19028-1.30443,1.19028-2.34841,0-.75362-.19505-1.37092-.58516-1.85302-.39011-.48099-.91764-.83452-1.58038-1.06172s-1.40306-.34024-2.21874-.34024h-4.15377v6.38692Z" style="fill:#1a1a1a;"/><path d="M1251.33932,461.73763v-19.69163h2.91252v19.69163h-2.91252Z" style="fill:#1a1a1a;"/><path d="M1260.59997,461.73763l.0133-19.69163h2.95463v17.13154h9.09663v2.56009h-12.06456Z" style="fill:#1a1a1a;"/><path d="M1277.6894,461.73763v-19.69163h12.72065l-.01552,2.53238h-9.7771v5.97908h8.72869v2.50578h-8.74198v6.10099l10.03644.0133v2.56009h-12.95117Z" style="fill:#1a1a1a;"/><path d="M1294.78104,465.26523l1.53827-3.46-1.23904-.0809v-3.24167h3.37799v2.83272l-2.42488,3.94985h-1.25234Z" style="fill:#1a1a1a;"/><path d="M1315.19526,461.73763l-5.70534-19.69163h2.91252l4.16707,14.9527,4.22249-14.9527h2.23426l4.22027,14.9527,4.22249-14.9527h2.90143l-5.76076,19.69163h-2.56009l-4.15377-14.61246-4.20919,14.61246h-2.49138Z" style="fill:#1a1a1a;"/><path d="M1338.82345,461.73763v-19.69163h12.71844l-.0133,2.53238h-9.7771v5.97908h8.72869v2.50578h-8.7442v6.10099l10.03865.0133v2.56009h-12.95117Z" style="fill:#1a1a1a;"/><path d="M1357.19403,461.73763v-19.69163h6.54984c2.44261,0,4.28233.43998,5.52137,1.31994,1.23904.88107,1.85967,2.15668,1.85967,3.82683,0,1.01739-.26598,1.89624-.79795,2.63545-.52975.74032-1.45848,1.35984-2.78396,1.85856.78022.17289,1.43409.42003,1.96163.74254.52532.3225.94202.69266,1.24569,1.11048s.52088.8711.65388,1.36095c.13078.49096.19727.99965.19727,1.52608,0,1.78874-.62949,3.12087-1.88626,3.9964-1.25677.87664-3.17185,1.3144-5.74081,1.3144h-6.78036ZM1360.10655,450.57076h4.15377c.49207,0,.97306-.04987,1.44518-.14962s.90213-.26598,1.29224-.49761.70486-.54194.93981-.93316c.23717-.39011.35464-.86666.35464-1.42966,0-1.07058-.40341-1.86521-1.21244-2.38277-.80682-.51756-1.85745-.77689-3.14525-.77689h-3.82794v6.1697ZM1360.10655,459.36816h3.88114c1.5161,0,2.67313-.26155,3.46665-.78354s1.19249-1.30443,1.19249-2.34841c0-.75362-.19505-1.37092-.58516-1.85302-.39233-.48099-.91764-.83452-1.58038-1.06172s-1.40306-.34024-2.22096-.34024h-4.15377v6.38692Z" style="fill:#1a1a1a;"/><path d="M1383.28699,461.73763l7.1084-19.69163h3.21397l7.0951,19.69163h-2.94133l-1.85302-5.16118h-7.80218l-1.86632,5.16118h-2.95463ZM1388.82831,453.93434h6.31932l-3.15855-9.05673-3.16077,9.05673Z" style="fill:#1a1a1a;"/><path d="M1405.57861,461.73763v-19.69163h6.82247c1.4075,0,2.66648.24049,3.77918.72148s1.98823,1.18917,2.6288,2.12454.95976,2.08354.95976,3.44559c0,1.30664-.29258,2.42156-.87774,3.34252-.58516.92208-1.40306,1.62804-2.45148,2.11789s-2.26307.73589-3.64397.73589h-4.24908v7.20371h-2.96793ZM1408.53324,452.13674h4.18259c1.25234,0,2.27416-.36129,3.06324-1.08277s1.18363-1.68234,1.18363-2.88038c0-1.21687-.40784-2.14892-1.22352-2.79837-.8179-.64944-1.86188-.97416-3.13417-.97416h-4.07176v7.73568Z" style="fill:#1a1a1a;"/><path d="M1424.39915,461.73763v-19.69163h6.82247c1.4075,0,2.66648.24049,3.77918.72148s1.98823,1.18917,2.6288,2.12454.95976,2.08354.95976,3.44559c0,1.30664-.29258,2.42156-.87774,3.34252-.58516.92208-1.40306,1.62804-2.45148,2.11789s-2.26307.73589-3.64397.73589h-4.24908v7.20371h-2.96793ZM1427.35378,452.13674h4.18259c1.25234,0,2.27416-.36129,3.06324-1.08277s1.18363-1.68234,1.18363-2.88038c0-1.21687-.40784-2.14892-1.22352-2.79837-.8179-.64944-1.86188-.97416-3.13417-.97416h-4.07176v7.73568Z" style="fill:#1a1a1a;"/><path d="M1441.93853,465.26523l1.53827-3.46-1.23904-.0809v-3.24167h3.37799v2.83272l-2.42488,3.94985h-1.25234Z" style="fill:#1a1a1a;"/><path d="M1210.79016,498.05321l-6.95768-19.69163h2.84602l5.82725,16.35465,5.81617-16.35465h2.85932l-6.9599,19.69163h-3.43118Z" style="fill:#1a1a1a;"/><path d="M1233.27462,498.32585c-1.78874,0-3.33366-.39787-4.63698-1.19138-1.30332-.79463-2.30741-1.94279-3.01004-3.44559s-1.05507-3.31593-1.05507-5.44047c0-2.14338.35686-3.9698,1.06837-5.48147.71372-1.51167,1.72003-2.66981,3.02334-3.4733s2.83937-1.20468,4.61038-1.20468c1.75992,0,3.28933.40119,4.58156,1.20468,1.29445.80349,2.29411,1.96163,2.99675,3.4733s1.05507,3.33809,1.05507,5.48147c0,2.12454-.35021,3.93544-1.04842,5.43382-.69821,1.49726-1.69564,2.64653-2.9901,3.44448-1.29224.79906-2.82386,1.19914-4.59486,1.19914ZM1233.27462,495.83336c1.14373,0,2.12122-.26266,2.93468-.79019.81125-.52643,1.43188-1.34765,1.85967-2.46478.42557-1.11602.63836-2.54679.63836-4.28898,0-1.78874-.215-3.25054-.64501-4.3854-.43222-1.13486-1.05507-1.97271-1.86632-2.51243-.81347-.54083-1.78652-.81125-2.92138-.81125s-2.11235.27263-2.93468.8179c-.82233.54416-1.45626,1.38422-1.8996,2.51908-.44549,1.13486-.66714,2.59223-.66714,4.3721,0,1.75217.22165,3.18404.66714,4.29563.44334,1.1127,1.07726,1.9317,1.8996,2.45813.82233.52753,1.79982.79019,2.93468.79019Z" style="fill:#1a1a1a;"/><path d="M1247.1789,498.05321v-19.69163h2.91473v19.69163h-2.91473Z" style="fill:#1a1a1a;"/><path d="M1263.88708,498.32585c-1.77766,0-3.30484-.41117-4.57491-1.23239-1.27229-.82233-2.24534-1.99266-2.92138-3.5143-.67604-1.52054-1.01517-3.34252-1.01517-5.46707,0-2.11568.33691-3.91993,1.00852-5.41387.67161-1.49283,1.64245-2.63434,2.91473-3.42454,1.27007-.79019,2.79947-1.18473,4.58821-1.18473,1.41636,0,2.67535.29037,3.77253.8711,1.0994.58184,1.98158,1.36206,2.64875,2.34287.66717.97971,1.06393,2.0658,1.19249,3.25497h-3.10536c-.13521-.74475-.39676-1.41858-.78243-2.02258s-.89769-1.08056-1.53162-1.42966c-.63614-.35021-1.38976-.52532-2.26086-.52532-1.11713,0-2.0658.26377-2.84602.79019-.78243.52643-1.37425,1.34876-1.77766,2.46478-.40562,1.11713-.60733,2.55566-.60733,4.3178,0,2.65983.44996,4.60484,1.34987,5.83501.89769,1.23017,2.19215,1.84526,3.88114,1.84526.8711,0,1.62471-.1884,2.26086-.56521.63393-.37681,1.14594-.87996,1.53162-1.51167.38568-.6306.64723-1.31883.78243-2.06248h3.10536c-.10861.86223-.33691,1.6901-.68047,2.48473-.34578.79463-.82455,1.50502-1.43853,2.13119-.61176.62617-1.37203,1.11935-2.28081,1.47732-.90656.35908-1.97936.53862-3.21397.53862Z" style="fill:#1a1a1a;"/><path d="M1276.77176,498.05321v-19.69163h12.71844l-.0133,2.53238h-9.7771v5.97908h8.72869v2.50578h-8.7442v6.10099l10.03862.0133v2.56009h-12.95114Z" style="fill:#1a1a1a;"/><path d="M1293.86118,501.58082l1.53827-3.46-1.23904-.0809v-3.24167h3.37799v2.83272l-2.42491,3.94985h-1.2523Z" style="fill:#1a1a1a;"/><path d="M1317.89721,498.32585c-.96197,0-1.88626-.11858-2.77066-.35464s-1.68899-.58738-2.41158-1.05507c-.72037-.46769-1.31662-1.05063-1.78209-1.74995-.46769-.69931-.76249-1.5161-.87996-2.45148h3.03664c.15516.70818.46104,1.30332.91986,1.7843s1.03512.8445,1.72889,1.08942c.69599.24493,1.46512.36794,2.30962.36794.78022,0,1.50281-.12302,2.16555-.36794s1.19692-.59957,1.60698-1.06282c.40784-.46215.61176-1.02958.61176-1.70229,0-.75251-.25268-1.34987-.75584-1.78985-.50315-.44109-1.25899-.79241-2.26751-1.05618l-3.94985-.98081c-.95311-.22609-1.79317-.55081-2.51798-.97306-.72702-.42225-1.29002-.98081-1.68899-1.67569-.39897-.69377-.59846-1.55379-.59846-2.58004,0-1.14373.31475-2.14006.94646-2.98899.62949-.84893,1.48729-1.50502,2.57339-1.96828,1.08385-.46325,2.31184-.69488,3.68387-.69488,1.5693,0,2.89257.2682,3.9698.80349,1.07502.5364,1.89291,1.24236,2.45148,2.11789.55856.87664.84228,1.83196.85115,2.86708h-2.97015c-.08201-.8445-.32805-1.51389-.74254-2.00928-.41227-.49429-.93537-.85115-1.56487-1.06837-.63171-.21833-1.3277-.32694-2.09019-.32694-1.34543,0-2.35395.29701-3.02999.89215-.67604.59403-1.01517,1.29999-1.01517,2.11678,0,.75362.24825,1.34876.74254,1.7843s1.22796.77246,2.1988,1.00741l3.81243.93981c1.19914.26377,2.1589.65609,2.88149,1.17808.72037.52199,1.24126,1.13486,1.55822,1.83861.31918.70375.47655,1.47288.47655,2.30851,0,1.11713-.31253,2.10903-.93981,2.97569-.62506.86666-1.49837,1.54824-2.61994,2.04253s-2.43153.74254-3.9299.74254Z" style="fill:#1a1a1a;"/><path d="M1338.25602,498.32585c-1.77766,0-3.30484-.41117-4.57491-1.23239-1.27229-.82233-2.24534-1.99266-2.92138-3.5143-.67604-1.52054-1.01517-3.34252-1.01517-5.46707,0-2.11568.33691-3.91993,1.00852-5.41387.67161-1.49283,1.64245-2.63434,2.91473-3.42454,1.27007-.79019,2.79947-1.18473,4.58821-1.18473,1.41636,0,2.67535.29037,3.77253.8711,1.0994.58184,1.98158,1.36206,2.64875,2.34287.66717.97971,1.06393,2.0658,1.19249,3.25497h-3.10536c-.13521-.74475-.39676-1.41858-.78243-2.02258s-.89769-1.08056-1.53162-1.42966c-.63614-.35021-1.38976-.52532-2.26086-.52532-1.11713,0-2.0658.26377-2.84602.79019-.78243.52643-1.37425,1.34876-1.77766,2.46478-.40562,1.11713-.60733,2.55566-.60733,4.3178,0,2.65983.44996,4.60484,1.34987,5.83501.89769,1.23017,2.19215,1.84526,3.88114,1.84526.8711,0,1.62471-.1884,2.26086-.56521.63393-.37681,1.14594-.87996,1.53162-1.51167.38568-.6306.64723-1.31883.78243-2.06248h3.10536c-.10861.86223-.33691,1.6901-.68047,2.48473-.34578.79463-.82455,1.50502-1.43853,2.13119-.61176.62617-1.37203,1.11935-2.28081,1.47732-.90656.35908-1.97936.53862-3.21397.53862Z" style="fill:#1a1a1a;"/><path d="M1351.14069,498.05321v-19.69163h7.81548c1.46291,0,2.67313.22387,3.63732.67382.96197.44885,1.67791,1.08721,2.15003,1.91286.47212.82676.70929,1.80315.70929,2.92803,0,1.06282-.17954,1.94722-.53862,2.6554s-.82012,1.28559-1.38755,1.73-1.16589.79463-1.79095,1.04842l3.81243,8.74309h-3.06324l-3.4999-8.23883h-4.93177v8.23883h-2.91252ZM1354.05321,487.45821h4.11388c1.36981,0,2.43375-.29701,3.18737-.89215.75362-.59403,1.13043-1.44518,1.13043-2.55344,0-1.08942-.34356-1.91508-1.02847-2.47808-.68712-.563-1.61363-.8445-2.78618-.8445h-4.61703v6.76817Z" style="fill:#1a1a1a;"/><path d="M1371.06284,498.05321v-19.69163h12.72065l-.01552,2.53238h-9.7771v5.97908h8.72869v2.50578h-8.74198v6.10099l10.03644.0133v2.56009h-12.95117Z" style="fill:#1a1a1a;"/><path d="M1389.43342,498.05321v-19.69163h12.72065l-.01552,2.53238h-9.7771v5.97908h8.72869v2.50578h-8.74198v6.10099l10.03644.0133v2.56009h-12.95117Z" style="fill:#1a1a1a;"/><path d="M1407.80622,498.05321v-19.69163h2.81721l10.02314,14.68006v-14.68006h2.92803v19.69163h-2.61329l-10.24257-14.9804v14.9804h-2.91252Z" style="fill:#1a1a1a;"/></g></svg>