<svg xmlns="http://www.w3.org/2000/svg" xmlns:xlink="http://www.w3.org/1999/xlink" viewBox="0 0 2640.75733 1226.57872"><defs><filter id="outer-glow-97" x="990.9383" y="560.21269" width="648" height="358" filterUnits="userSpaceOnUse"><feOffset dx="0" dy="0"/><feGaussianBlur result="blur-7" stdDeviation="30"/><feFlood flood-color="#00ff7f" flood-opacity="1"/><feComposite in2="blur-7" operator="in"/><feComposite in="SourceGraphic"/></filter><filter id="outer-glow-149" x="544.9383" y="329.21269" width="200" height="76" filterUnits="userSpaceOnUse"><feOffset dx="0" dy="0"/><feGaussianBlur result="blur-11" stdDeviation="3"/><feFlood flood-color="#00ff7f" flood-opacity="1"/><feComposite in2="blur-11" operator="in"/><feComposite in="SourceGraphic"/></filter></defs><g id="white_box_-_intelligent_data_sync_copy"><rect x="1082.73117" y="652.53041" width="463.82323" height="173.56522" rx="8.24127" ry="8.24127" style="fill:#fff; filter:url(#outer-glow-97); stroke:#00ef83; stroke-miterlimit:10; stroke-width:3px;"/></g><g id="intelligent_data_sync"><path d="M1186.70648,726.831v-29.53856h4.3721v29.53856h-4.3721Z" style="fill:#252525;"/><path d="M1198.55271,726.831v-29.53856h4.22913l15.03471,22.0212v-22.0212h4.39094v29.53856h-3.92104l-15.36054-22.47005v22.47005h-4.37321Z" style="fill:#252525;"/><path d="M1236.18049,726.831v-25.55435h-9.35596v-3.98421h22.69503v3.98421h-8.92596v25.55435h-4.41311Z" style="fill:#252525;"/><path d="M1254.15653,726.831v-29.53856h19.07987l-.02217,3.80024h-14.66676v8.96696h13.09525v3.75923h-13.11519v9.15093l15.05466.02106v3.84013h-19.42565Z" style="fill:#252525;"/><path d="M1279.67097,726.831l.01995-29.53856h4.43306v25.69842h13.64494v3.84013h-18.09795Z" style="fill:#252525;"/><path d="M1303.26369,726.831l.01995-29.53856h4.43306v25.69842h13.64716v3.84013h-18.10016Z" style="fill:#252525;"/><path d="M1326.85863,726.831v-29.53856h4.37099v29.53856h-4.37099Z" style="fill:#252525;"/><path d="M1349.85954,727.23995c-2.6288,0-4.89631-.59957-6.80252-1.7976-1.90621-1.19914-3.37356-2.92471-4.40202-5.17892-1.02847-2.2531-1.5427-4.96059-1.5427-8.12025,0-3.18626.52753-5.92035,1.5826-8.20115,1.05507-2.28081,2.55787-4.02743,4.50398-5.23987,1.94833-1.21133,4.23578-1.81755,6.86459-1.81755,1.56487,0,3.01891.26488,4.35991.79684,1.34322.53086,2.52684,1.25234,3.55531,2.16444,1.02847.91321,1.84193,1.94833,2.4404,3.10536.60068,1.15814.93981,2.36947,1.02182,3.63621h-4.65692c-.19062-1.04842-.59625-2.01926-1.21466-2.91141-.62063-.89104-1.4075-1.61031-2.3606-2.15446-.95311-.54527-2.02812-.8179-3.22726-.8179-1.59368,0-3.00339.39565-4.22913,1.18584-1.22574.78908-2.18106,2.02147-2.8704,3.69717-.68712,1.67459-1.03069,3.82683-1.03069,6.45453,0,2.05694.215,3.80689.64276,5.24985.43004,1.44407,1.01964,2.60885,1.76882,3.49325.74697.8855,1.62693,1.5294,2.63323,1.9306,1.00852.4023,2.08354.6029,3.22948.6029,1.12821,0,2.12343-.19727,2.98123-.59292.8578-.39454,1.57595-.90545,2.15443-1.53162.57855-.62617,1.0285-1.30443,1.3499-2.03256.31918-.72813.49872-1.43299.54083-2.11457l.16402-2.38942h-6.90448v-3.14636l11.45945.04101v15.27963h-3.16742v-4.33109c-.51645.8046-1.16368,1.56709-1.93946,2.28856s-1.73111,1.31108-2.86154,1.76657c-1.13043.4566-2.47808.68491-4.04295.68491Z" style="fill:#252525;"/><path d="M1368.93719,726.831v-29.53856h19.07987l-.01995,3.80024h-14.66676v8.96696h13.09303v3.75923h-13.11298v9.15093l15.05466.02106v3.84013h-19.42786Z" style="fill:#252525;"/><path d="M1394.45164,726.831v-29.53856h4.22692l15.03471,22.0212v-22.0212h4.39316v29.53856h-3.92325l-15.36054-22.47005v22.47005h-4.37099Z" style="fill:#252525;"/><path d="M1432.07941,726.831v-25.55435h-9.35596v-3.98421h22.69503v3.98421h-8.92817v25.55435h-4.41089Z" style="fill:#252525;"/><path d="M1201.44528,781.30439v-29.53856c.10861,0,.43222.00332.97084.01108.5364.00665,1.18806.00665,1.95054,0,.76249-.00776,1.54049-.00776,2.33844,0,.79573.00665,1.50724.01662,2.13452.02992,3.60851.06871,6.54319.67382,8.80405,1.81866,2.26086,1.14373,3.91882,2.78507,4.97389,4.92291s1.5826,4.74559,1.5826,7.82323c0,3.20067-.56521,5.9137-1.69564,8.1402-1.13043,2.2265-2.85489,3.9155-5.17781,5.06587-2.3207,1.15149-5.25982,1.72668-8.81291,1.72668h-7.06851ZM1205.89829,777.62717h2.6554c2.23426,0,4.17815-.36351,5.83168-1.09275,1.65575-.72813,2.93912-1.91286,3.85011-3.5542.91321-1.64134,1.36981-3.83681,1.36981-6.58752,0-2.69641-.43666-4.84533-1.30775-6.44566-.8711-1.59922-2.12122-2.75071-3.74815-3.45224-1.62693-.70042-3.58634-1.05174-5.8738-1.05174h-2.77731v22.18412Z" style="fill:#252525;"/><path d="M1227.85743,781.30439l10.66371-29.53856h4.82095l10.64155,29.53856h-4.41089l-2.77953-7.74233h-11.70548l-2.79726,7.74233h-4.43306ZM1236.17162,769.5989h9.47787l-4.73894-13.58399-4.73894,13.58399Z" style="fill:#252525;"/><path d="M1265.77113,781.30439v-25.55435h-9.35596v-3.98421h22.69503v3.98421h-8.92817v25.55435h-4.41089Z" style="fill:#252525;"/><path d="M1281.53951,781.30439l10.66371-29.53856h4.82095l10.64155,29.53856h-4.41089l-2.77953-7.74233h-11.70548l-2.79726,7.74233h-4.43306ZM1289.8537,769.5989h9.47787l-4.73894-13.58399-4.73894,13.58399Z" style="fill:#252525;"/><path d="M1332.9563,781.71334c-1.44518,0-2.83051-.17732-4.15821-.53197-1.3277-.35354-2.53349-.88107-3.61516-1.5826s-1.97493-1.57595-2.67535-2.62548c-.70264-1.04842-1.14151-2.27416-1.31883-3.67611h4.55496c.23274,1.06172.69156,1.95387,1.37868,2.67535.68934.72259,1.55379,1.26675,2.59555,1.63469s2.19658.55081,3.46222.55081c1.17033,0,2.25421-.18286,3.24721-.55081.99522-.36794,1.7976-.8988,2.41158-1.59368.61176-.69488.91986-1.54492.91986-2.55344,0-1.13043-.37903-2.02591-1.13486-2.68643s-1.88848-1.18806-3.40015-1.5826l-5.92478-1.47067c-1.42966-.34024-2.69086-.82787-3.77918-1.46069-1.09053-.63393-1.93281-1.47067-2.53349-2.51243-.59846-1.04177-.89769-2.33179-.89769-3.87117,0-1.71559.47212-3.21064,1.41858-4.48404s2.23426-2.25753,3.86119-2.95131c1.62693-.69488,3.46887-1.04177,5.5258-1.04177,2.35617,0,4.33996.40119,5.95359,1.20468,1.61585.80349,2.83937,1.86299,3.67722,3.17628.83785,1.3144,1.26342,2.74739,1.27672,4.30006h-4.453c-.12191-1.26675-.49429-2.27083-1.1127-3.01337-.62063-.74143-1.40306-1.27672-2.34952-1.60255-.94646-.32694-1.99044-.49096-3.13639-.49096-2.01482,0-3.52871.44663-4.54388,1.33767-1.01517.89215-1.52275,1.95165-1.52275,3.17739,0,1.13043.37238,2.02147,1.11491,2.67535.74032.65388,1.83972,1.15814,3.29819,1.51167l5.71864,1.40971c1.7976.39565,3.23835.98414,4.32223,1.76657,1.08167.78354,1.86188,1.7034,2.33844,2.75847s.71372,2.20988.71372,3.46222c0,1.67459-.4699,3.16298-1.4075,4.46298-.93981,1.3011-2.25199,2.32181-3.93434,3.06435-1.68013.74254-3.64619,1.11381-5.89153,1.11381Z" style="fill:#252525;"/><path d="M1357.12088,781.30439v-12.54222l-10.13175-16.99633h4.78105l7.55614,13.13514,7.4564-13.13514h4.78105l-10.0719,17.01628v12.52227h-4.37099Z" style="fill:#252525;"/><path d="M1375.7508,781.30439v-29.53856h4.22692l15.03471,22.0212v-22.0212h4.39316v29.53856h-3.92325l-15.36054-22.47005v22.47005h-4.37099Z" style="fill:#252525;"/><path d="M1418.03328,781.71334c-2.6687,0-4.95616-.61619-6.86237-1.84858s-3.36691-2.9901-4.38208-5.2709-1.52275-5.01489-1.52275-8.20115c0-3.17296.50537-5.88045,1.51167-8.12025,1.00852-2.2398,2.46478-3.95318,4.37321-5.13791,1.90621-1.18473,4.20032-1.77655,6.88232-1.77655,2.12565,0,4.01191.43555,5.65879,1.30664,1.6491.8722,2.97236,2.04364,3.97423,3.5143.99965,1.47067,1.5959,3.0976,1.78652,4.8819h-4.65692c-.20392-1.11713-.59625-2.12787-1.17476-3.03332s-1.34543-1.62028-2.29854-2.1456c-.95311-.52421-2.08354-.78576-3.39129-.78576-1.67348,0-3.09649.39454-4.26903,1.18473-1.17033.79019-2.05915,2.02258-2.66427,3.69717-.60733,1.67459-.91099,3.83348-.91099,6.47559,0,3.99086.67604,6.90781,2.02369,8.75307s3.28933,2.76844,5.8206,2.76844c1.30775,0,2.43818-.28261,3.39129-.84782s1.72003-1.32105,2.29854-2.26751.97084-1.97825,1.17476-3.09538h4.65692c-.16402,1.29445-.50315,2.53682-1.02182,3.7282-.51645,1.19138-1.23461,2.25753-2.15446,3.19734s-2.05915,1.67791-3.42232,2.21653c-1.36095.53751-2.96793.80682-4.82095.80682Z" style="fill:#252525;"/></g><g id="local_data_storage"><g style="filter:url(#outer-glow-149);"><path d="M555.78076,358.78546l.0133-19.69163h2.95463v17.13154h9.09774v2.56009h-12.06567Z"/><path d="M580.51056,359.05809c-1.78874,0-3.33366-.39787-4.63698-1.19138-1.30221-.79463-2.3063-1.94279-3.00894-3.44559-.70375-1.50281-1.05618-3.31593-1.05618-5.44047,0-2.14338.35686-3.9698,1.06947-5.48147s1.72003-2.66981,3.02334-3.4733c1.30221-.80349,2.83937-1.20468,4.60927-1.20468,1.76103,0,3.28933.40119,4.58267,1.20468,1.29445.80349,2.293,1.96163,2.99675,3.4733.70264,1.51167,1.05507,3.33809,1.05507,5.48147,0,2.12454-.35021,3.93544-1.04842,5.43382-.69931,1.49726-1.69564,2.64653-2.9901,3.44448-1.29334.79906-2.82496,1.19914-4.59597,1.19914ZM580.51056,356.56561c1.14373,0,2.12233-.26266,2.93468-.79019.81236-.52643,1.43188-1.34765,1.85967-2.46478.42668-1.11602.63947-2.54679.63947-4.28898,0-1.78874-.21611-3.25054-.64612-4.3854-.43222-1.13486-1.05396-1.97271-1.86632-2.51243-.81236-.54083-1.78652-.81125-2.92138-.81125s-2.11235.27263-2.93468.8179c-.82122.54416-1.45515,1.38422-1.89956,2.51908s-.66717,2.59223-.66717,4.3721c0,1.75217.22276,3.18404.66717,4.29563.44441,1.1127,1.07834,1.9317,1.89956,2.45813.82233.52753,1.79982.79019,2.93468.79019Z"/><path d="M601.86459,359.05809c-1.77876,0-3.30484-.41117-4.57602-1.23239-1.27118-.82233-2.24423-1.99266-2.92028-3.5143-.67715-1.52054-1.01517-3.34252-1.01517-5.46707,0-2.11568.3358-3.91993,1.00852-5.41387.67161-1.49283,1.64245-2.63434,2.91363-3.42454s2.80058-1.18473,4.58932-1.18473c1.41636,0,2.67424.29037,3.77253.8711,1.09829.58184,1.98158,1.36206,2.64875,2.34287.66717.97971,1.06393,2.0658,1.19138,3.25497h-3.10425c-.13632-.74475-.39787-1.41858-.78354-2.02258s-.89659-1.08056-1.53162-1.42966c-.63614-.35021-1.38976-.52532-2.26086-.52532-1.11713,0-2.0658.26377-2.84602.79019-.78133.52643-1.37425,1.34876-1.77767,2.46478-.4045,1.11713-.6062,2.55566-.6062,4.3178,0,2.65983.44996,4.60484,1.34876,5.83501s2.19215,1.84526,3.88114,1.84526c.8711,0,1.62471-.1884,2.26086-.56521.63504-.37681,1.14594-.87996,1.53162-1.51167.38568-.6306.64723-1.31883.78354-2.06248h3.10425c-.10861.86223-.3358,1.6901-.68047,2.48473-.34578.79463-.82455,1.50502-1.43742,2.13119s-1.37314,1.11935-2.28081,1.47732c-.90767.35908-1.97936.53862-3.21397.53862Z"/><path d="M613.27749,358.78546l7.1084-19.69163h3.21397l7.0951,19.69163h-2.94133l-1.85191-5.16118h-7.80329l-1.86632,5.16118h-2.95463ZM618.81992,350.98217h6.31821l-3.15855-9.05673-3.15966,9.05673Z"/><path d="M635.57022,358.78546l.0133-19.69163h2.95463v17.13154h9.09774v2.56009h-12.06567Z"/><path d="M660.50504,358.78546v-19.69163c.07204,0,.28815.00222.64612.00665.35908.00443.79241.00443,1.3011,0s1.02847-.00443,1.55933,0,1.0052.01108,1.42301.01995c2.40604.04544,4.36213.44996,5.86937,1.21244s2.61218,1.85634,3.31593,3.28157,1.05618,3.16409,1.05618,5.21549c0,2.13452-.37681,3.9432-1.13043,5.42717-.75362,1.48507-1.90511,2.61107-3.45224,3.37799-1.54824.76692-3.50765,1.15038-5.87712,1.15038h-4.71123ZM663.47297,356.33398h1.77101c1.4884,0,2.78507-.24271,3.88779-.72813s1.95941-1.27561,2.56674-2.36947c.60844-1.09386.91321-2.55787.91321-4.39205,0-1.7976-.29147-3.22948-.8722-4.29674s-1.41414-1.83418-2.49913-2.30186-2.38942-.70153-3.91439-.70153h-1.85302v14.78978Z"/><path d="M679.47519,358.78546l7.1084-19.69163h3.21397l7.0951,19.69163h-2.94133l-1.85191-5.16118h-7.80329l-1.86632,5.16118h-2.95463ZM685.01762,350.98217h6.31821l-3.15855-9.05673-3.15966,9.05673Z"/><path d="M706.11231,358.78546v-17.03623h-6.23731v-2.6554h15.13002v2.6554h-5.95138v17.03623h-2.94133Z"/><path d="M717.98736,358.78546l7.1084-19.69163h3.21397l7.0951,19.69163h-2.94133l-1.85191-5.16118h-7.80329l-1.86632,5.16118h-2.95463ZM723.52979,350.98217h6.31821l-3.15855-9.05673-3.15966,9.05673Z"/><path d="M562.64424,395.37368c-.96308,0-1.88626-.11858-2.77177-.35464-.88439-.23606-1.68789-.58738-2.41047-1.05507-.72148-.46769-1.31662-1.05063-1.7832-1.74995-.46769-.69931-.76138-1.5161-.87885-2.45148h3.03664c.15405.70818.46104,1.30332.91986,1.7843.45771.48099,1.03512.8445,1.72889,1.08942.69488.24493,1.46402.36794,2.30851.36794.78022,0,1.50281-.12302,2.16555-.36794s1.19803-.59957,1.60698-1.06282c.40784-.46215.61287-1.02958.61287-1.70229,0-.75251-.25268-1.34987-.75584-1.78985-.50426-.44109-1.2601-.79241-2.26751-1.05618l-3.94985-.98081c-.95311-.22609-1.79317-.55081-2.51908-.97306s-1.28891-.98081-1.68899-1.67569c-.39897-.69377-.59846-1.55379-.59846-2.58004,0-1.14373.31475-2.14006.94646-2.98899.6306-.84893,1.4884-1.50502,2.57339-1.96828s2.31295-.69488,3.68387-.69488c1.57041,0,2.89368.2682,3.9698.80349,1.07612.5364,1.89291,1.24236,2.45148,2.11789.55856.87664.84228,1.83196.85115,2.86708h-2.96904c-.08201-.8445-.32915-1.51389-.74254-2.00928-.41338-.49429-.93537-.85115-1.56598-1.06837-.6306-.21833-1.3277-.32694-2.09019-.32694-1.34432,0-2.35395.29701-3.02999.89215-.67604.59403-1.01517,1.29999-1.01517,2.11678,0,.75362.24825,1.34876.74254,1.7843.49539.43555,1.22796.77246,2.1999,1.00741l3.81243.93981c1.19914.26377,2.1589.65609,2.88038,1.17808s1.24126,1.13486,1.55933,1.83861.47655,1.47288.47655,2.30851c0,1.11713-.31253,2.10903-.93981,2.97569-.62617.86666-1.49948,1.54824-2.62104,2.04253s-2.43042.74254-3.9288.74254Z"/><path d="M579.8988,395.10105v-17.03623h-6.23731v-2.6554h15.13002v2.6554h-5.95138v17.03623h-2.94133Z"/><path d="M600.88377,395.37368c-1.78874,0-3.33366-.39787-4.63698-1.19138-1.30221-.79463-2.3063-1.94279-3.00894-3.44559-.70375-1.50281-1.05618-3.31593-1.05618-5.44047,0-2.14338.35686-3.9698,1.06947-5.48147s1.72003-2.66981,3.02334-3.4733c1.30221-.80349,2.83937-1.20468,4.60927-1.20468,1.76103,0,3.28933.40119,4.58267,1.20468,1.29445.80349,2.293,1.96163,2.99675,3.4733.70264,1.51167,1.05507,3.33809,1.05507,5.48147,0,2.12454-.35021,3.93544-1.04842,5.43382-.69931,1.49726-1.69564,2.64653-2.9901,3.44448-1.29334.79906-2.82496,1.19914-4.59597,1.19914ZM600.88377,392.8812c1.14373,0,2.12233-.26266,2.93468-.79019.81236-.52643,1.43188-1.34765,1.85967-2.46478.42668-1.11602.63947-2.54679.63947-4.28898,0-1.78874-.21611-3.25054-.64612-4.3854-.43222-1.13486-1.05396-1.97271-1.86632-2.51243-.81236-.54083-1.78652-.81125-2.92138-.81125s-2.11235.27263-2.93468.8179c-.82122.54416-1.45515,1.38422-1.89956,2.51908s-.66717,2.59223-.66717,4.3721c0,1.75217.22276,3.18404.66717,4.29563.44441,1.1127,1.07834,1.9317,1.89956,2.45813.82233.52753,1.79982.79019,2.93468.79019Z"/><path d="M614.78805,395.10105v-19.69163h7.81658c1.4618,0,2.67313.22387,3.63621.67382.96197.44885,1.67902,1.08721,2.15114,1.91286.47212.82676.70818,1.80315.70818,2.92803,0,1.06282-.17843,1.94722-.53751,2.6554s-.82122,1.28559-1.38865,1.73-1.16479.79463-1.79095,1.04842l3.81243,8.74309h-3.06324l-3.4999-8.23883h-4.93067v8.23883h-2.91363ZM617.70168,384.50605h4.11277c1.37092,0,2.43375-.29701,3.18737-.89215.75362-.59403,1.13043-1.44518,1.13043-2.55344,0-1.08942-.34356-1.91508-1.02847-2.47808-.68602-.563-1.61363-.8445-2.78507-.8445h-4.61703v6.76817Z"/><path d="M633.24064,395.10105l7.1084-19.69163h3.21397l7.0951,19.69163h-2.94133l-1.85191-5.16118h-7.80329l-1.86632,5.16118h-2.95463ZM638.78307,387.29776h6.31821l-3.15855-9.05673-3.15966,9.05673Z"/><path d="M662.96982,395.37368c-1.75217,0-3.26384-.40008-4.53502-1.19914-1.27118-.79795-2.24978-1.94944-2.93468-3.45224-.68602-1.5017-1.02847-3.30595-1.02847-5.41276,0-2.12454.35243-3.94653,1.05618-5.46817.70264-1.52054,1.7034-2.68421,3.00229-3.49325,1.29778-.80792,2.82386-1.21133,4.57602-1.21133,1.04398,0,2.01261.17732,2.90698.53086.89437.35464,1.68456.83563,2.36947,1.44407.68602.60733,1.22796,1.29778,1.62804,2.06913.39897.77246.62617,1.58038.68047,2.42488h-3.10425c-.12745-.69931-.39787-1.34654-.81125-1.94057-.41227-.59514-.93759-1.07391-1.57263-1.43742-.63504-.3624-1.35319-.54416-2.15114-.54416-1.06282,0-2.00263.26266-2.81942.78908-.81679.52753-1.45515,1.34876-1.91286,2.46478-.45882,1.11713-.68823,2.55233-.68823,4.30339,0,1.37203.14297,2.53792.4289,3.50101.28593.96197.67826,1.73776,1.17808,2.32846.49872.5896,1.08499,1.01849,1.7566,1.28669s1.38976.40119,2.15225.40119c.75362,0,1.41636-.13078,1.98823-.39454.57186-.26266,1.05063-.604,1.43631-1.02071.38568-.41782.68602-.86999.8988-1.35541.21389-.48542.33359-.95532.36129-1.40971l.10861-1.59368h-4.60262v-2.09684l7.63926.02771v10.18605h-2.11013v-2.88703c-.34578.53529-.77689,1.04398-1.29445,1.52497-.51756.48209-1.15259.87442-1.90621,1.17808s-1.65242.4566-2.69641.4566Z"/><path d="M677.05031,395.10105v-19.69163h12.71954l-.01441,2.53238h-9.7771v5.97908h8.72869v2.50578h-8.74309v6.10099l10.03755.0133v2.56009h-12.95117Z"/></g></g></svg>