<svg xmlns="http://www.w3.org/2000/svg" xmlns:xlink="http://www.w3.org/1999/xlink" viewBox="0 0 2640.75733 1226.57872"><defs><filter id="outer-glow-29" x="2043.30206" y="82.21269" width="584" height="389" filterUnits="userSpaceOnUse"><feOffset dx="0" dy="0"/><feGaussianBlur result="blur-3" stdDeviation="30"/><feFlood flood-color="#00ff7f" flood-opacity="1"/><feComposite in2="blur-3" operator="in"/><feComposite in="SourceGraphic"/></filter></defs><g id="white_box_configuration"><rect x="2135.69678" y="173.98581" width="399.99579" height="205.62096" rx="9.10089" ry="9.10089" style="fill:#fff; filter:url(#outer-glow-29); stroke:#00ef83; stroke-miterlimit:10; stroke-width:3px;"/></g><g id="ai_models"><path d="M2188.09709,336.17244l7.1084-19.69163h3.21397l7.0951,19.69163h-2.94133l-1.85302-5.16118h-7.80218l-1.86632,5.16118h-2.95463ZM2193.6384,328.36916h6.31932l-3.15855-9.05673-3.16077,9.05673Z"/><path d="M2210.3887,336.17244v-19.69163h2.91473v19.69163h-2.91473Z"/><path d="M2227.49365,336.17244v-19.69163h4.11388l5.54132,15.66088,5.62555-15.66088h4.08506v19.69163h-2.98345v-15.67418l-5.44601,15.67418h-2.54679l-5.42163-15.55227v15.55227h-2.96793Z"/><path d="M2260.84352,336.44508c-1.78874,0-3.33366-.39787-4.63698-1.19138-1.3011-.79463-2.30519-1.94279-3.00783-3.44559-.70486-1.50281-1.05728-3.31593-1.05728-5.44047,0-2.14338.35686-3.9698,1.07058-5.48147.71151-1.51167,1.72003-2.66981,3.02334-3.4733,1.3011-.80349,2.83937-1.20468,4.60816-1.20468,1.76214,0,3.28933.40119,4.58378,1.20468s2.29189,1.96163,2.99675,3.4733c.70264,1.51167,1.05507,3.33809,1.05507,5.48147,0,2.12454-.35021,3.93544-1.04842,5.43382-.70042,1.49726-1.69564,2.64653-2.9901,3.44448-1.29445.79906-2.82607,1.19914-4.59708,1.19914ZM2260.84352,333.95259c1.14373,0,2.12343-.26266,2.93468-.79019.81347-.52643,1.43188-1.34765,1.85967-2.46478.42779-1.11602.64058-2.54679.64058-4.28898,0-1.78874-.21722-3.25054-.64723-4.3854-.43222-1.13486-1.05285-1.97271-1.86632-2.51243-.81125-.54083-1.78652-.81125-2.92138-.81125s-2.11235.27263-2.93468.8179c-.82012.54416-1.45404,1.38422-1.89956,2.51908-.44331,1.13486-.66717,2.59223-.66717,4.3721,0,1.75217.22387,3.18404.66717,4.29563.44552,1.1127,1.07945,1.9317,1.89956,2.45813.82233.52753,1.79982.79019,2.93468.79019Z"/><path d="M2274.75002,336.17244v-19.69163c.07093,0,.28815.00222.64501.00665.35908.00443.79352.00443,1.3011,0,.5098-.00443,1.02847-.00443,1.56044,0,.52975.00443,1.00409.01108,1.42301.01995,2.40493.04544,4.36213.44996,5.86937,1.21244s2.61107,1.85634,3.31593,3.28157c.70264,1.42523,1.05507,3.16409,1.05507,5.21549,0,2.13452-.37681,3.9432-1.13043,5.42717-.75362,1.48507-1.904,2.61107-3.45113,3.37799-1.54935.76692-3.50876,1.15038-5.87823,1.15038h-4.71012ZM2277.71795,333.72096h1.77101c1.48729,0,2.78396-.24271,3.88779-.72813,1.10161-.48542,1.95941-1.27561,2.56674-2.36947s.91321-2.55787.91321-4.39205c0-1.7976-.29258-3.22948-.87331-4.29674s-1.41414-1.83418-2.49803-2.30186c-1.0861-.46769-2.38942-.70153-3.91439-.70153h-1.85302v14.78978Z"/><path d="M2295.19083,336.17244v-19.69163h12.71844l-.0133,2.53238h-9.7771v5.97908h8.72869v2.50578h-8.7442v6.10099l10.03865.0133v2.56009h-12.95117Z"/><path d="M2313.56141,336.17244l.0133-19.69163h2.95463v17.13154h9.09663v2.56009h-12.06456Z"/><path d="M2337.51543,336.44508c-.96197,0-1.88626-.11858-2.77066-.35464s-1.68899-.58738-2.41158-1.05507c-.72037-.46769-1.31662-1.05063-1.78209-1.74995-.46769-.69931-.76249-1.5161-.87996-2.45148h3.03664c.15516.70818.46104,1.30332.91986,1.7843s1.03512.8445,1.72889,1.08942c.69599.24493,1.46512.36794,2.30962.36794.78022,0,1.50281-.12302,2.16555-.36794s1.19692-.59957,1.60698-1.06282c.40784-.46215.61176-1.02958.61176-1.70229,0-.75251-.25268-1.34987-.75584-1.78985-.50315-.44109-1.25899-.79241-2.26751-1.05618l-3.94985-.98081c-.95311-.22609-1.79317-.55081-2.51798-.97306-.72702-.42225-1.29002-.98081-1.68899-1.67569-.39897-.69377-.59846-1.55379-.59846-2.58004,0-1.14373.31475-2.14006.94646-2.98899.62949-.84893,1.48729-1.50502,2.57339-1.96828,1.08388-.46325,2.31184-.69488,3.68387-.69488,1.5693,0,2.89257.2682,3.9698.80349,1.07502.5364,1.89291,1.24236,2.45148,2.11789.55856.87664.84228,1.83196.85115,2.86708h-2.97015c-.08201-.8445-.32805-1.51389-.74254-2.00928-.41227-.49429-.93537-.85115-1.56487-1.06837-.63171-.21833-1.3277-.32694-2.09019-.32694-1.34543,0-2.35395.29701-3.02999.89215-.67604.59403-1.01517,1.29999-1.01517,2.11678,0,.75362.24825,1.34876.74254,1.7843s1.22796.77246,2.1988,1.00741l3.81243.93981c1.19914.26377,2.1589.65609,2.88149,1.17808.72037.52199,1.24126,1.13486,1.55822,1.83861.31918.70375.47655,1.47288.47655,2.30851,0,1.11713-.31253,2.10903-.93981,2.97569-.62506.86666-1.49837,1.54824-2.61994,2.04253s-2.43153.74254-3.9299.74254Z"/><path d="M2188.09709,336.17244l7.1084-19.69163h3.21397l7.0951,19.69163h-2.94133l-1.85302-5.16118h-7.80218l-1.86632,5.16118h-2.95463ZM2193.6384,328.36916h6.31932l-3.15855-9.05673-3.16077,9.05673Z"/><path d="M2210.3887,336.17244v-19.69163h2.91473v19.69163h-2.91473Z"/><path d="M2227.49365,336.17244v-19.69163h4.11388l5.54132,15.66088,5.62555-15.66088h4.08506v19.69163h-2.98345v-15.67418l-5.44601,15.67418h-2.54679l-5.42163-15.55227v15.55227h-2.96793Z"/><path d="M2260.84352,336.44508c-1.78874,0-3.33366-.39787-4.63698-1.19138-1.3011-.79463-2.30519-1.94279-3.00783-3.44559-.70486-1.50281-1.05728-3.31593-1.05728-5.44047,0-2.14338.35686-3.9698,1.07058-5.48147.71151-1.51167,1.72003-2.66981,3.02334-3.4733,1.3011-.80349,2.83937-1.20468,4.60816-1.20468,1.76214,0,3.28933.40119,4.58378,1.20468s2.29189,1.96163,2.99675,3.4733c.70264,1.51167,1.05507,3.33809,1.05507,5.48147,0,2.12454-.35021,3.93544-1.04842,5.43382-.70042,1.49726-1.69564,2.64653-2.9901,3.44448-1.29445.79906-2.82607,1.19914-4.59708,1.19914ZM2260.84352,333.95259c1.14373,0,2.12343-.26266,2.93468-.79019.81347-.52643,1.43188-1.34765,1.85967-2.46478.42779-1.11602.64058-2.54679.64058-4.28898,0-1.78874-.21722-3.25054-.64723-4.3854-.43222-1.13486-1.05285-1.97271-1.86632-2.51243-.81125-.54083-1.78652-.81125-2.92138-.81125s-2.11235.27263-2.93468.8179c-.82012.54416-1.45404,1.38422-1.89956,2.51908-.44331,1.13486-.66717,2.59223-.66717,4.3721,0,1.75217.22387,3.18404.66717,4.29563.44552,1.1127,1.07945,1.9317,1.89956,2.45813.82233.52753,1.79982.79019,2.93468.79019Z"/><path d="M2274.75002,336.17244v-19.69163c.07093,0,.28815.00222.64501.00665.35908.00443.79352.00443,1.3011,0,.5098-.00443,1.02847-.00443,1.56044,0,.52975.00443,1.00409.01108,1.42301.01995,2.40493.04544,4.36213.44996,5.86937,1.21244s2.61107,1.85634,3.31593,3.28157c.70264,1.42523,1.05507,3.16409,1.05507,5.21549,0,2.13452-.37681,3.9432-1.13043,5.42717-.75362,1.48507-1.904,2.61107-3.45113,3.37799-1.54935.76692-3.50876,1.15038-5.87823,1.15038h-4.71012ZM2277.71795,333.72096h1.77101c1.48729,0,2.78396-.24271,3.88779-.72813,1.10161-.48542,1.95941-1.27561,2.56674-2.36947s.91321-2.55787.91321-4.39205c0-1.7976-.29258-3.22948-.87331-4.29674s-1.41414-1.83418-2.49803-2.30186c-1.0861-.46769-2.38942-.70153-3.91439-.70153h-1.85302v14.78978Z"/><path d="M2295.19083,336.17244v-19.69163h12.71844l-.0133,2.53238h-9.7771v5.97908h8.72869v2.50578h-8.7442v6.10099l10.03865.0133v2.56009h-12.95117Z"/><path d="M2313.56141,336.17244l.0133-19.69163h2.95463v17.13154h9.09663v2.56009h-12.06456Z"/><path d="M2337.51543,336.44508c-.96197,0-1.88626-.11858-2.77066-.35464s-1.68899-.58738-2.41158-1.05507c-.72037-.46769-1.31662-1.05063-1.78209-1.74995-.46769-.69931-.76249-1.5161-.87996-2.45148h3.03664c.15516.70818.46104,1.30332.91986,1.7843s1.03512.8445,1.72889,1.08942c.69599.24493,1.46512.36794,2.30962.36794.78022,0,1.50281-.12302,2.16555-.36794s1.19692-.59957,1.60698-1.06282c.40784-.46215.61176-1.02958.61176-1.70229,0-.75251-.25268-1.34987-.75584-1.78985-.50315-.44109-1.25899-.79241-2.26751-1.05618l-3.94985-.98081c-.95311-.22609-1.79317-.55081-2.51798-.97306-.72702-.42225-1.29002-.98081-1.68899-1.67569-.39897-.69377-.59846-1.55379-.59846-2.58004,0-1.14373.31475-2.14006.94646-2.98899.62949-.84893,1.48729-1.50502,2.57339-1.96828,1.08388-.46325,2.31184-.69488,3.68387-.69488,1.5693,0,2.89257.2682,3.9698.80349,1.07502.5364,1.89291,1.24236,2.45148,2.11789.55856.87664.84228,1.83196.85115,2.86708h-2.97015c-.08201-.8445-.32805-1.51389-.74254-2.00928-.41227-.49429-.93537-.85115-1.56487-1.06837-.63171-.21833-1.3277-.32694-2.09019-.32694-1.34543,0-2.35395.29701-3.02999.89215-.67604.59403-1.01517,1.29999-1.01517,2.11678,0,.75362.24825,1.34876.74254,1.7843s1.22796.77246,2.1988,1.00741l3.81243.93981c1.19914.26377,2.1589.65609,2.88149,1.17808.72037.52199,1.24126,1.13486,1.55822,1.83861.31918.70375.47655,1.47288.47655,2.30851,0,1.11713-.31253,2.10903-.93981,2.97569-.62506.86666-1.49837,1.54824-2.61994,2.04253s-2.43153.74254-3.9299.74254Z"/></g><g id="code"><path d="M2197.01639,288.78087c-1.77987,0-3.30484-.41117-4.57713-1.23239-1.27007-.82233-2.24313-1.99266-2.91917-3.5143-.67826-1.52054-1.01517-3.34252-1.01517-5.46707,0-2.11568.3347-3.91993,1.00852-5.41387.67161-1.49283,1.64245-2.63434,2.91252-3.42454,1.27229-.79019,2.80169-1.18473,4.59043-1.18473,1.41636,0,2.67313.29037,3.77253.8711,1.09718.58184,1.98158,1.36206,2.64875,2.34287.66717.97971,1.06393,2.0658,1.19028,3.25497h-3.10314c-.13742-.74475-.39897-1.41858-.78465-2.02258s-.89548-1.08056-1.53162-1.42966c-.63614-.35021-1.38976-.52532-2.26086-.52532-1.11713,0-2.0658.26377-2.84602.79019s-1.37425,1.34876-1.77766,2.46478c-.40341,1.11713-.60511,2.55566-.60511,4.3178,0,2.65983.44996,4.60484,1.34765,5.83501.89991,1.23017,2.19215,1.84526,3.88114,1.84526.8711,0,1.62471-.1884,2.26086-.56521s1.14594-.87996,1.53162-1.51167c.38568-.6306.64723-1.31883.78465-2.06248h3.10314c-.10861.86223-.3347,1.6901-.68047,2.48473s-.82455,1.50502-1.43631,2.13119c-.61398.62617-1.37425,1.11935-2.28081,1.47732-.90878.35908-1.97936.53862-3.21397.53862Z"/><path d="M2217.53922,288.78087c-1.78874,0-3.33366-.39787-4.63698-1.19138-1.30332-.79463-2.30741-1.94279-3.01004-3.44559s-1.05507-3.31593-1.05507-5.44047c0-2.14338.35686-3.9698,1.06837-5.48147.71372-1.51167,1.72003-2.66981,3.02334-3.4733s2.83937-1.20468,4.61038-1.20468c1.75992,0,3.28933.40119,4.58156,1.20468,1.29445.80349,2.29411,1.96163,2.99675,3.4733s1.05507,3.33809,1.05507,5.48147c0,2.12454-.35021,3.93544-1.04842,5.43382-.69821,1.49726-1.69564,2.64653-2.9901,3.44448-1.29224.79906-2.82386,1.19914-4.59486,1.19914ZM2217.53922,286.28838c1.14373,0,2.12122-.26266,2.93468-.79019.81125-.52643,1.43188-1.34765,1.85967-2.46478.42557-1.11602.63836-2.54679.63836-4.28898,0-1.78874-.215-3.25054-.64501-4.3854-.43222-1.13486-1.05507-1.97271-1.86632-2.51243-.81347-.54083-1.78652-.81125-2.92138-.81125s-2.11235.27263-2.93468.8179c-.82233.54416-1.45626,1.38422-1.89956,2.51908-.44552,1.13486-.66717,2.59223-.66717,4.3721,0,1.75217.22165,3.18404.66717,4.29563.44331,1.1127,1.07723,1.9317,1.89956,2.45813.82233.52753,1.79982.79019,2.93468.79019Z"/><path d="M2231.4435,288.50823v-19.69163c.07093,0,.28815.00222.64501.00665.35908.00443.79352.00443,1.3011,0,.5098-.00443,1.02847-.00443,1.56044,0,.52975.00443,1.00409.01108,1.42301.01995,2.40493.04544,4.36213.44996,5.86937,1.21244s2.61107,1.85634,3.31593,3.28157c.70264,1.42523,1.05507,3.16409,1.05507,5.21549,0,2.13452-.37681,3.9432-1.13043,5.42717-.75362,1.48507-1.904,2.61107-3.45113,3.37799-1.54935.76692-3.50876,1.15038-5.87823,1.15038h-4.71012ZM2234.41143,286.05676h1.77101c1.48729,0,2.78396-.24271,3.88779-.72813,1.10161-.48542,1.95941-1.27561,2.56674-2.36947s.91321-2.55787.91321-4.39205c0-1.7976-.29258-3.22948-.87331-4.29674s-1.41414-1.83418-2.49803-2.30186c-1.0861-.46769-2.38942-.70153-3.91439-.70153h-1.85302v14.78978Z"/><path d="M2251.88432,288.50823v-19.69163h12.71844l-.0133,2.53238h-9.7771v5.97908h8.72869v2.50578h-8.7442v6.10099l10.03865.0133v2.56009h-12.95117Z"/></g><g id="configuration"><path d="M2197.01639,241.11666c-1.77987,0-3.30484-.41117-4.57713-1.23239-1.27007-.82233-2.24313-1.99266-2.91917-3.5143-.67826-1.52054-1.01517-3.34252-1.01517-5.46707,0-2.11568.3347-3.91993,1.00852-5.41387.67161-1.49283,1.64245-2.63434,2.91252-3.42454,1.27229-.79019,2.80169-1.18473,4.59043-1.18473,1.41636,0,2.67313.29037,3.77253.8711,1.09718.58184,1.98158,1.36206,2.64875,2.34287.66717.97971,1.06393,2.0658,1.19028,3.25497h-3.10314c-.13742-.74475-.39897-1.41858-.78465-2.02258s-.89548-1.08056-1.53162-1.42966c-.63614-.35021-1.38976-.52532-2.26086-.52532-1.11713,0-2.0658.26377-2.84602.79019s-1.37425,1.34876-1.77766,2.46478c-.40341,1.11713-.60511,2.55566-.60511,4.3178,0,2.65983.44996,4.60484,1.34765,5.83501.89991,1.23017,2.19215,1.84526,3.88114,1.84526.8711,0,1.62471-.1884,2.26086-.56521s1.14594-.87996,1.53162-1.51167c.38568-.6306.64723-1.31883.78465-2.06248h3.10314c-.10861.86223-.3347,1.6901-.68047,2.48473s-.82455,1.50502-1.43631,2.13119c-.61398.62617-1.37425,1.11935-2.28081,1.47732-.90878.35908-1.97936.53862-3.21397.53862Z"/><path d="M2217.53922,241.11666c-1.78874,0-3.33366-.39787-4.63698-1.19138-1.30332-.79463-2.30741-1.94279-3.01004-3.44559s-1.05507-3.31593-1.05507-5.44047c0-2.14338.35686-3.9698,1.06837-5.48147.71372-1.51167,1.72003-2.66981,3.02334-3.4733s2.83937-1.20468,4.61038-1.20468c1.75992,0,3.28933.40119,4.58156,1.20468,1.29445.80349,2.29411,1.96163,2.99675,3.4733s1.05507,3.33809,1.05507,5.48147c0,2.12454-.35021,3.93544-1.04842,5.43382-.69821,1.49726-1.69564,2.64653-2.9901,3.44448-1.29224.79906-2.82386,1.19914-4.59486,1.19914ZM2217.53922,238.62417c1.14373,0,2.12122-.26266,2.93468-.79019.81125-.52643,1.43188-1.34765,1.85967-2.46478.42557-1.11602.63836-2.54679.63836-4.28898,0-1.78874-.215-3.25054-.64501-4.3854-.43222-1.13486-1.05507-1.97271-1.86632-2.51243-.81347-.54083-1.78652-.81125-2.92138-.81125s-2.11235.27263-2.93468.8179c-.82233.54416-1.45626,1.38422-1.89956,2.51908-.44552,1.13486-.66717,2.59223-.66717,4.3721,0,1.75217.22165,3.18404.66717,4.29563.44331,1.1127,1.07723,1.9317,1.89956,2.45813.82233.52753,1.79982.79019,2.93468.79019Z"/><path d="M2231.4435,240.84402v-19.69163h2.81721l10.02314,14.68006v-14.68006h2.92803v19.69163h-2.61329l-10.24257-14.9804v14.9804h-2.91252Z"/><path d="M2253.5445,240.84402v-19.69163h12.58323l-.0133,2.50578h-9.602v6.08658h8.54028v2.47919h-8.54028v8.62008h-2.96793Z"/><path d="M2271.2213,240.84402v-19.69163h2.91473v19.69163h-2.91473Z"/><path d="M2287.91841,241.11666c-1.75327,0-3.26495-.40008-4.53502-1.19914-1.27229-.79795-2.24978-1.94944-2.93468-3.45224-.68712-1.5017-1.02847-3.30595-1.02847-5.41276,0-2.12454.35243-3.94653,1.05507-5.46817.70264-1.52054,1.70451-2.68421,3.00339-3.49325,1.29667-.80792,2.82386-1.21133,4.57491-1.21133,1.04398,0,2.01261.17732,2.90808.53086.89326.35464,1.68456.83563,2.36947,1.44407.68491.60733,1.22796,1.29778,1.62693,2.06913.39897.77246.62728,1.58038.68047,2.42488h-3.10314c-.12856-.69931-.39897-1.34654-.81125-1.94057-.41227-.59514-.93759-1.07391-1.57373-1.43742-.63393-.3624-1.35208-.54416-2.15003-.54416-1.06393,0-2.00374.26266-2.81942.78908-.8179.52753-1.45626,1.34876-1.91286,2.46478-.45882,1.11713-.68934,2.55233-.68934,4.30339,0,1.37203.14407,2.53792.43001,3.50101.28593.96197.67826,1.73776,1.17698,2.32846.49872.5896,1.0861,1.01849,1.75771,1.28669s1.38976.40119,2.15225.40119c.75362,0,1.41636-.13078,1.98823-.39454.57186-.26266,1.05063-.604,1.43631-1.02071.38568-.41782.68491-.86999.89769-1.35541.215-.48542.3347-.95532.36129-1.40971l.10861-1.59368h-4.60151v-2.09684l7.63815.02771v10.18605h-2.11013v-2.88703c-.34578.53529-.77578,1.04398-1.29445,1.52497-.51645.48209-1.15259.87442-1.90621,1.17808s-1.65131.4566-2.6953.4566Z"/><path d="M2309.38104,241.11666c-1.77101,0-3.19623-.29037-4.2779-.8722-1.07945-.58073-1.86632-1.42966-2.36282-2.54679-.49429-1.11602-.74032-2.47808-.74032-4.08506v-12.46021h3.00783v12.82815c0,1.56154.38346,2.7219,1.15259,3.47884.76692.75916,1.83972,1.13708,3.22061,1.13708.91543,0,1.70894-.16513,2.37612-.4965s1.17698-.84006,1.53162-1.52497c.35464-.68602.53197-1.55046.53197-2.59445v-12.82815h2.95463v12.69184c0,1.53384-.2549,2.8438-.76249,3.9288-.5098,1.08499-1.30553,1.91397-2.38942,2.48584-1.0861.57186-2.50024.8578-4.24243.8578Z"/><path d="M2322.61593,240.84402v-19.69163h7.81769c1.46069,0,2.67313.22387,3.63511.67382.96197.44885,1.68013,1.08721,2.15225,1.91286.47212.82676.70707,1.80315.70707,2.92803,0,1.06282-.17732,1.94722-.5364,2.6554s-.82233,1.28559-1.38976,1.73-1.16368.79463-1.79095,1.04842l3.81243,8.74309h-3.06324l-3.4999-8.23883h-4.92956v8.23883h-2.91473ZM2325.53066,230.24902h4.11166c1.37203,0,2.43375-.29701,3.18737-.89215.75362-.59403,1.13043-1.44518,1.13043-2.55344,0-1.08942-.34356-1.91508-1.02847-2.47808s-1.61363-.8445-2.78396-.8445h-4.61703v6.76817Z"/><path d="M2341.06852,240.84402l7.1084-19.69163h3.21397l7.0951,19.69163h-2.94133l-1.8508-5.16118h-7.80439l-1.86632,5.16118h-2.95463ZM2346.61206,233.04074h6.3171l-3.15855-9.05673-3.15855,9.05673Z"/><path d="M2367.70675,240.84402v-17.03623h-6.23731v-2.6554h15.13002v2.6554h-5.95138v17.03623h-2.94133Z"/><path d="M2381.05246,240.84402v-19.69163h2.91252v19.69163h-2.91252Z"/><path d="M2397.95127,241.11666c-1.78874,0-3.33366-.39787-4.63698-1.19138-1.3011-.79463-2.30519-1.94279-3.00783-3.44559-.70486-1.50281-1.05728-3.31593-1.05728-5.44047,0-2.14338.35686-3.9698,1.07058-5.48147.71151-1.51167,1.72003-2.66981,3.02334-3.4733,1.3011-.80349,2.83937-1.20468,4.60816-1.20468,1.76214,0,3.28933.40119,4.58378,1.20468s2.29189,1.96163,2.99675,3.4733c.70264,1.51167,1.05507,3.33809,1.05507,5.48147,0,2.12454-.35021,3.93544-1.04842,5.43382-.70042,1.49726-1.69564,2.64653-2.9901,3.44448-1.29445.79906-2.82607,1.19914-4.59708,1.19914ZM2397.95127,238.62417c1.14373,0,2.12343-.26266,2.93468-.79019.81347-.52643,1.43188-1.34765,1.85967-2.46478.42779-1.11602.64058-2.54679.64058-4.28898,0-1.78874-.21722-3.25054-.64723-4.3854-.43222-1.13486-1.05285-1.97271-1.86632-2.51243-.81125-.54083-1.78652-.81125-2.92138-.81125s-2.11235.27263-2.93468.8179c-.82012.54416-1.45404,1.38422-1.89956,2.51908-.44331,1.13486-.66717,2.59223-.66717,4.3721,0,1.75217.22387,3.18404.66717,4.29563.44552,1.1127,1.07945,1.9317,1.89956,2.45813.82233.52753,1.79982.79019,2.93468.79019Z"/><path d="M2411.85776,240.84402v-19.69163h2.81721l10.02314,14.68006v-14.68006h2.92803v19.69163h-2.61329l-10.24257-14.9804v14.9804h-2.91252Z"/></g><g id="database_icon_-_right_2"><path d="M2205.06805,155.44235h-42.30566v30.77144c-.29883,3.34785,1.77474,6.76207,6.22142,9.32933,8.29437,4.78874,21.69354,4.81686,29.92785.06279,4.01936-2.32056,6.05945-5.35169,6.13611-8.40366h.02028v-31.7599Z" style="fill:#fff; stroke:#000; stroke-linejoin:round; stroke-width:2.5px;"/><path d="M2162.75066,164.99032c-.29883,3.34785,1.77474,6.76207,6.22142,9.32933,8.29437,4.78874,21.69354,4.81686,29.92785.06279,4.01936-2.32056,6.05945-5.35169,6.13611-8.40366" style="fill:none; stroke:#000; stroke-linejoin:round; stroke-width:2.5px;"/><path d="M2162.75066,176.45099c-.29883,3.34785,1.77474,6.76207,6.22142,9.32933,8.29437,4.78874,21.69354,4.81686,29.92785.06279,4.01936-2.32056,6.05945-5.35169,6.13611-8.40366" style="fill:none; stroke:#000; stroke-linejoin:round; stroke-width:2.5px;"/><path d="M2198.91167,163.97615c-8.23433,4.75407-21.63349,4.72596-29.92787-.0628-8.29438-4.78875-8.34306-12.52474-.10873-17.27881,8.23433-4.75407,21.63349-4.72596,29.92787.0628,8.29438,4.78875,8.34306,12.52474.10873,17.27881Z" style="fill:#fff; stroke:#000; stroke-linejoin:round; stroke-width:2.5px;"/></g></svg>