<svg xmlns="http://www.w3.org/2000/svg" xmlns:xlink="http://www.w3.org/1999/xlink" viewBox="0 0 2640.75733 1226.57872"><defs><filter id="outer-glow-25" x="2047.9383" y="347.21269" width="576" height="300" filterUnits="userSpaceOnUse"><feOffset dx="0" dy="0"/><feGaussianBlur result="blur-3" stdDeviation="30"/><feFlood flood-color="#00ff7f" flood-opacity="1"/><feComposite in2="blur-3" operator="in"/><feComposite in="SourceGraphic"/></filter><filter id="outer-glow-31" x="2178.9383" y="306.21269" width="176" height="40" filterUnits="userSpaceOnUse"><feOffset dx="0" dy="0"/><feGaussianBlur result="blur-4" stdDeviation="3"/><feFlood flood-color="#00ff7f" flood-opacity="1"/><feComposite in2="blur-4" operator="in"/><feComposite in="SourceGraphic"/></filter><filter id="outer-glow-65" x="1689.63065" y="1050.21269" width="303" height="46" filterUnits="userSpaceOnUse"><feOffset dx="0" dy="0"/><feGaussianBlur result="blur-7" stdDeviation="4"/><feFlood flood-color="#00ef83" flood-opacity="1"/><feComposite in2="blur-7" operator="in"/><feComposite in="SourceGraphic"/></filter><filter id="outer-glow-151" x="544.9383" y="437.21269" width="232" height="112" filterUnits="userSpaceOnUse"><feOffset dx="0" dy="0"/><feGaussianBlur result="blur-13" stdDeviation="3"/><feFlood flood-color="#00ff7f" flood-opacity="1"/><feComposite in2="blur-13" operator="in"/><feComposite in="SourceGraphic"/></filter></defs><g id="white_box_-_ai_model_building"><path d="M2520.19046,555.38382h-368.99157c-7.64799,0-13.06676-7.46701-10.69533-14.73805l30.68505-94.08327c1.50978-4.62912,5.82622-7.76154,10.69533-7.76154h307.62147c4.8691,0,9.18555,3.13242,10.69533,7.76154l30.68505,94.08327c2.37143,7.27104-3.04734,14.73805-10.69533,14.73805Z" style="fill:#fff; filter:url(#outer-glow-25); stroke:#00ef83; stroke-miterlimit:10; stroke-width:3px;"/></g><g id="ai_model_building"><path d="M2192.92912,507.83364l7.1084-19.69163h3.21397l7.0951,19.69163h-2.94133l-1.85302-5.16118h-7.80218l-1.86632,5.16118h-2.95463ZM2198.47043,500.03036h6.31932l-3.15855-9.05673-3.16077,9.05673Z"/><path d="M2215.22073,507.83364v-19.69163h2.91473v19.69163h-2.91473Z"/><path d="M2232.32568,507.83364v-19.69163h4.11388l5.54132,15.66088,5.62555-15.66088h4.08506v19.69163h-2.98345v-15.67418l-5.44601,15.67418h-2.54679l-5.42163-15.55227v15.55227h-2.96793Z"/><path d="M2265.67555,508.10628c-1.78874,0-3.33366-.39787-4.63698-1.19138-1.3011-.79463-2.30519-1.94279-3.00783-3.44559-.70486-1.50281-1.05728-3.31593-1.05728-5.44047,0-2.14338.35686-3.9698,1.07058-5.48147.71151-1.51167,1.72003-2.66981,3.02334-3.4733,1.3011-.80349,2.83937-1.20468,4.60816-1.20468,1.76214,0,3.28933.40119,4.58378,1.20468s2.29189,1.96163,2.99675,3.4733c.70264,1.51167,1.05507,3.33809,1.05507,5.48147,0,2.12454-.35021,3.93544-1.04842,5.43382-.70042,1.49726-1.69564,2.64653-2.9901,3.44448-1.29445.79906-2.82607,1.19914-4.59708,1.19914ZM2265.67555,505.61379c1.14373,0,2.12343-.26266,2.93468-.79019.81347-.52643,1.43188-1.34765,1.85967-2.46478.42779-1.11602.64058-2.54679.64058-4.28898,0-1.78874-.21722-3.25054-.64723-4.3854-.43222-1.13486-1.05285-1.97271-1.86632-2.51243-.81125-.54083-1.78652-.81125-2.92138-.81125s-2.11235.27263-2.93468.8179c-.82012.54416-1.45404,1.38422-1.89956,2.51908-.44331,1.13486-.66717,2.59223-.66717,4.3721,0,1.75217.22387,3.18404.66717,4.29563.44552,1.1127,1.07945,1.9317,1.89956,2.45813.82233.52753,1.79982.79019,2.93468.79019Z"/><path d="M2279.58205,507.83364v-19.69163c.07093,0,.28815.00222.64501.00665.35908.00443.79352.00443,1.3011,0,.5098-.00443,1.02847-.00443,1.56044,0,.52975.00443,1.00409.01108,1.42301.01995,2.40493.04544,4.36213.44996,5.86937,1.21244s2.61107,1.85634,3.31593,3.28157c.70264,1.42523,1.05507,3.16409,1.05507,5.21549,0,2.13452-.37681,3.9432-1.13043,5.42717-.75362,1.48507-1.904,2.61107-3.45113,3.37799-1.54935.76692-3.50876,1.15038-5.87823,1.15038h-4.71012ZM2282.54998,505.38216h1.77101c1.48729,0,2.78396-.24271,3.88779-.72813,1.10161-.48542,1.95941-1.27561,2.56674-2.36947s.91321-2.55787.91321-4.39205c0-1.7976-.29258-3.22948-.87331-4.29674-.58073-1.06726-1.41414-1.83418-2.49803-2.30186-1.0861-.46769-2.38942-.70153-3.91439-.70153h-1.85302v14.78978Z"/><path d="M2300.02286,507.83364v-19.69163h12.71844l-.0133,2.53238h-9.7771v5.97908h8.72869v2.50578h-8.7442v6.10099l10.03865.0133v2.56009h-12.95117Z"/><path d="M2318.39344,507.83364l.0133-19.69163h2.95463v17.13154h9.09663v2.56009h-12.06456Z"/><path d="M2343.32716,507.83364v-19.69163h6.54984c2.44261,0,4.28455.43998,5.52359,1.31994,1.23904.88107,1.85745,2.15668,1.85745,3.82683,0,1.01739-.26377,1.89624-.79573,2.63545-.53197.74032-1.45848,1.35984-2.78396,1.85856.78022.17289,1.43409.42003,1.95941.74254.52753.3225.94202.69266,1.24569,1.11048.30588.41782.5231.8711.65388,1.36095.13299.49096.19727.99965.19727,1.52608,0,1.78874-.62728,3.12087-1.88405,3.9964-1.25899.87664-3.17185,1.3144-5.74081,1.3144h-6.78257ZM2346.2419,496.66678h4.15377c.48985,0,.97084-.04987,1.44296-.14962s.90434-.26598,1.29445-.49761.70264-.54194.93981-.93316c.23495-.39011.35243-.86666.35243-1.42966,0-1.07058-.40341-1.86521-1.21022-2.38277-.80903-.51756-1.85745-.77689-3.14747-.77689h-3.82573v6.1697ZM2346.2419,505.46417h3.88114c1.5161,0,2.67092-.26155,3.46665-.78354.79352-.52199,1.19028-1.30443,1.19028-2.34841,0-.75362-.19505-1.37092-.58516-1.85302-.39011-.48099-.91764-.83452-1.58038-1.06172s-1.40306-.34024-2.21874-.34024h-4.15377v6.38692Z"/><path d="M2370.42865,508.10628c-1.77101,0-3.19623-.29037-4.2779-.8722-1.07945-.58073-1.86632-1.42966-2.36282-2.54679-.49429-1.11602-.74032-2.47808-.74032-4.08506v-12.46021h3.00783v12.82815c0,1.56154.38346,2.7219,1.15259,3.47884.76692.75916,1.83972,1.13708,3.22061,1.13708.91543,0,1.70894-.16513,2.37612-.4965s1.17698-.84006,1.53162-1.52497c.35464-.68602.53197-1.55046.53197-2.59445v-12.82815h2.95463v12.69184c0,1.53384-.2549,2.8438-.76249,3.9288-.5098,1.08499-1.30553,1.91397-2.38942,2.48584-1.0861.57186-2.50024.8578-4.24243.8578Z"/><path d="M2383.66575,507.83364v-19.69163h2.91252v19.69163h-2.91252Z"/><path d="M2392.92419,507.83364l.0133-19.69163h2.95463v17.13154h9.09885v2.56009h-12.06678Z"/><path d="M2410.01583,507.83364v-19.69163c.07315,0,.28815.00222.64723.00665s.7913.00443,1.3011,0c.50758-.00443,1.02847-.00443,1.55822,0,.53197.00443,1.0063.01108,1.42301.01995,2.40715.04544,4.36213.44996,5.86937,1.21244s2.61329,1.85634,3.31593,3.28157c.70486,1.42523,1.05728,3.16409,1.05728,5.21549,0,2.13452-.37681,3.9432-1.13043,5.42717-.75362,1.48507-1.90621,2.61107-3.45335,3.37799s-3.50655,1.15038-5.87601,1.15038h-4.71234ZM2412.98376,505.38216h1.77101c1.48951,0,2.78618-.24271,3.88779-.72813,1.10383-.48542,1.95941-1.27561,2.56674-2.36947.60955-1.09386.91321-2.55787.91321-4.39205,0-1.7976-.29037-3.22948-.8711-4.29674-.58073-1.06726-1.41414-1.83418-2.50024-2.30186-1.08388-.46769-2.38942-.70153-3.91439-.70153h-1.85302v14.78978Z"/><path d="M2430.45665,507.83364v-19.69163h2.91473v19.69163h-2.91473Z"/><path d="M2439.7173,507.83364v-19.69163h2.81942l10.02314,14.68006v-14.68006h2.92803v19.69163h-2.6155l-10.24036-14.9804v14.9804h-2.91473Z"/><path d="M2469.25475,508.10628c-1.75106,0-3.26273-.40008-4.53502-1.19914-1.27007-.79795-2.24978-1.94944-2.93468-3.45224-.68491-1.5017-1.02847-3.30595-1.02847-5.41276,0-2.12454.35243-3.94653,1.05728-5.46817.70264-1.52054,1.70229-2.68421,3.00118-3.49325,1.29889-.80792,2.82386-1.21133,4.57713-1.21133,1.04398,0,2.01261.17732,2.90587.53086.89548.35464,1.68456.83563,2.36947,1.44407.68712.60733,1.22796,1.29778,1.62915,2.06913.39897.77246.62506,1.58038.68047,2.42488h-3.10536c-.12634-.69931-.39676-1.34654-.81125-1.94057-.41227-.59514-.93759-1.07391-1.57152-1.43742-.63614-.3624-1.3543-.54416-2.15225-.54416-1.06172,0-2.00152.26266-2.81942.78908-.81568.52753-1.45404,1.34876-1.91286,2.46478-.45882,1.11713-.68712,2.55233-.68712,4.30339,0,1.37203.14186,2.53792.42779,3.50101.28593.96197.67826,1.73776,1.17919,2.32846.49872.5896,1.08388,1.01849,1.75549,1.28669s1.38976.40119,2.15225.40119c.75362,0,1.41636-.13078,1.98823-.39454.57186-.26266,1.05063-.604,1.43631-1.02071.38568-.41782.68712-.86999.89991-1.35541s.33248-.95532.36129-1.40971l.10861-1.59368h-4.60373v-2.09684l7.64037.02771v10.18605h-2.11013v-2.88703c-.34578.53529-.778,1.04398-1.29445,1.52497-.51867.48209-1.15259.87442-1.90621,1.17808s-1.65353.4566-2.69751.4566Z"/></g><g id="ai_models"><path d="M2188.09709,336.17244l7.1084-19.69163h3.21397l7.0951,19.69163h-2.94133l-1.85302-5.16118h-7.80218l-1.86632,5.16118h-2.95463ZM2193.6384,328.36916h6.31932l-3.15855-9.05673-3.16077,9.05673Z"/><path d="M2210.3887,336.17244v-19.69163h2.91473v19.69163h-2.91473Z"/><path d="M2227.49365,336.17244v-19.69163h4.11388l5.54132,15.66088,5.62555-15.66088h4.08506v19.69163h-2.98345v-15.67418l-5.44601,15.67418h-2.54679l-5.42163-15.55227v15.55227h-2.96793Z"/><path d="M2260.84352,336.44508c-1.78874,0-3.33366-.39787-4.63698-1.19138-1.3011-.79463-2.30519-1.94279-3.00783-3.44559-.70486-1.50281-1.05728-3.31593-1.05728-5.44047,0-2.14338.35686-3.9698,1.07058-5.48147.71151-1.51167,1.72003-2.66981,3.02334-3.4733,1.3011-.80349,2.83937-1.20468,4.60816-1.20468,1.76214,0,3.28933.40119,4.58378,1.20468s2.29189,1.96163,2.99675,3.4733c.70264,1.51167,1.05507,3.33809,1.05507,5.48147,0,2.12454-.35021,3.93544-1.04842,5.43382-.70042,1.49726-1.69564,2.64653-2.9901,3.44448-1.29445.79906-2.82607,1.19914-4.59708,1.19914ZM2260.84352,333.95259c1.14373,0,2.12343-.26266,2.93468-.79019.81347-.52643,1.43188-1.34765,1.85967-2.46478.42779-1.11602.64058-2.54679.64058-4.28898,0-1.78874-.21722-3.25054-.64723-4.3854-.43222-1.13486-1.05285-1.97271-1.86632-2.51243-.81125-.54083-1.78652-.81125-2.92138-.81125s-2.11235.27263-2.93468.8179c-.82012.54416-1.45404,1.38422-1.89956,2.51908-.44331,1.13486-.66717,2.59223-.66717,4.3721,0,1.75217.22387,3.18404.66717,4.29563.44552,1.1127,1.07945,1.9317,1.89956,2.45813.82233.52753,1.79982.79019,2.93468.79019Z"/><path d="M2274.75002,336.17244v-19.69163c.07093,0,.28815.00222.64501.00665.35908.00443.79352.00443,1.3011,0,.5098-.00443,1.02847-.00443,1.56044,0,.52975.00443,1.00409.01108,1.42301.01995,2.40493.04544,4.36213.44996,5.86937,1.21244s2.61107,1.85634,3.31593,3.28157c.70264,1.42523,1.05507,3.16409,1.05507,5.21549,0,2.13452-.37681,3.9432-1.13043,5.42717-.75362,1.48507-1.904,2.61107-3.45113,3.37799-1.54935.76692-3.50876,1.15038-5.87823,1.15038h-4.71012ZM2277.71795,333.72096h1.77101c1.48729,0,2.78396-.24271,3.88779-.72813,1.10161-.48542,1.95941-1.27561,2.56674-2.36947s.91321-2.55787.91321-4.39205c0-1.7976-.29258-3.22948-.87331-4.29674s-1.41414-1.83418-2.49803-2.30186c-1.0861-.46769-2.38942-.70153-3.91439-.70153h-1.85302v14.78978Z"/><path d="M2295.19083,336.17244v-19.69163h12.71844l-.0133,2.53238h-9.7771v5.97908h8.72869v2.50578h-8.7442v6.10099l10.03865.0133v2.56009h-12.95117Z"/><path d="M2313.56141,336.17244l.0133-19.69163h2.95463v17.13154h9.09663v2.56009h-12.06456Z"/><path d="M2337.51543,336.44508c-.96197,0-1.88626-.11858-2.77066-.35464s-1.68899-.58738-2.41158-1.05507c-.72037-.46769-1.31662-1.05063-1.78209-1.74995-.46769-.69931-.76249-1.5161-.87996-2.45148h3.03664c.15516.70818.46104,1.30332.91986,1.7843s1.03512.8445,1.72889,1.08942c.69599.24493,1.46512.36794,2.30962.36794.78022,0,1.50281-.12302,2.16555-.36794s1.19692-.59957,1.60698-1.06282c.40784-.46215.61176-1.02958.61176-1.70229,0-.75251-.25268-1.34987-.75584-1.78985-.50315-.44109-1.25899-.79241-2.26751-1.05618l-3.94985-.98081c-.95311-.22609-1.79317-.55081-2.51798-.97306-.72702-.42225-1.29002-.98081-1.68899-1.67569-.39897-.69377-.59846-1.55379-.59846-2.58004,0-1.14373.31475-2.14006.94646-2.98899.62949-.84893,1.48729-1.50502,2.57339-1.96828,1.08388-.46325,2.31184-.69488,3.68387-.69488,1.5693,0,2.89257.2682,3.9698.80349,1.07502.5364,1.89291,1.24236,2.45148,2.11789.55856.87664.84228,1.83196.85115,2.86708h-2.97015c-.08201-.8445-.32805-1.51389-.74254-2.00928-.41227-.49429-.93537-.85115-1.56487-1.06837-.63171-.21833-1.3277-.32694-2.09019-.32694-1.34543,0-2.35395.29701-3.02999.89215-.67604.59403-1.01517,1.29999-1.01517,2.11678,0,.75362.24825,1.34876.74254,1.7843s1.22796.77246,2.1988,1.00741l3.81243.93981c1.19914.26377,2.1589.65609,2.88149,1.17808.72037.52199,1.24126,1.13486,1.55822,1.83861.31918.70375.47655,1.47288.47655,2.30851,0,1.11713-.31253,2.10903-.93981,2.97569-.62506.86666-1.49837,1.54824-2.61994,2.04253s-2.43153.74254-3.9299.74254Z"/><g style="filter:url(#outer-glow-31);"><path d="M2188.09709,336.17244l7.1084-19.69163h3.21397l7.0951,19.69163h-2.94133l-1.85302-5.16118h-7.80218l-1.86632,5.16118h-2.95463ZM2193.6384,328.36916h6.31932l-3.15855-9.05673-3.16077,9.05673Z"/><path d="M2210.3887,336.17244v-19.69163h2.91473v19.69163h-2.91473Z"/><path d="M2227.49365,336.17244v-19.69163h4.11388l5.54132,15.66088,5.62555-15.66088h4.08506v19.69163h-2.98345v-15.67418l-5.44601,15.67418h-2.54679l-5.42163-15.55227v15.55227h-2.96793Z"/><path d="M2260.84352,336.44508c-1.78874,0-3.33366-.39787-4.63698-1.19138-1.3011-.79463-2.30519-1.94279-3.00783-3.44559-.70486-1.50281-1.05728-3.31593-1.05728-5.44047,0-2.14338.35686-3.9698,1.07058-5.48147.71151-1.51167,1.72003-2.66981,3.02334-3.4733,1.3011-.80349,2.83937-1.20468,4.60816-1.20468,1.76214,0,3.28933.40119,4.58378,1.20468s2.29189,1.96163,2.99675,3.4733c.70264,1.51167,1.05507,3.33809,1.05507,5.48147,0,2.12454-.35021,3.93544-1.04842,5.43382-.70042,1.49726-1.69564,2.64653-2.9901,3.44448-1.29445.79906-2.82607,1.19914-4.59708,1.19914ZM2260.84352,333.95259c1.14373,0,2.12343-.26266,2.93468-.79019.81347-.52643,1.43188-1.34765,1.85967-2.46478.42779-1.11602.64058-2.54679.64058-4.28898,0-1.78874-.21722-3.25054-.64723-4.3854-.43222-1.13486-1.05285-1.97271-1.86632-2.51243-.81125-.54083-1.78652-.81125-2.92138-.81125s-2.11235.27263-2.93468.8179c-.82012.54416-1.45404,1.38422-1.89956,2.51908-.44331,1.13486-.66717,2.59223-.66717,4.3721,0,1.75217.22387,3.18404.66717,4.29563.44552,1.1127,1.07945,1.9317,1.89956,2.45813.82233.52753,1.79982.79019,2.93468.79019Z"/><path d="M2274.75002,336.17244v-19.69163c.07093,0,.28815.00222.64501.00665.35908.00443.79352.00443,1.3011,0,.5098-.00443,1.02847-.00443,1.56044,0,.52975.00443,1.00409.01108,1.42301.01995,2.40493.04544,4.36213.44996,5.86937,1.21244s2.61107,1.85634,3.31593,3.28157c.70264,1.42523,1.05507,3.16409,1.05507,5.21549,0,2.13452-.37681,3.9432-1.13043,5.42717-.75362,1.48507-1.904,2.61107-3.45113,3.37799-1.54935.76692-3.50876,1.15038-5.87823,1.15038h-4.71012ZM2277.71795,333.72096h1.77101c1.48729,0,2.78396-.24271,3.88779-.72813,1.10161-.48542,1.95941-1.27561,2.56674-2.36947s.91321-2.55787.91321-4.39205c0-1.7976-.29258-3.22948-.87331-4.29674s-1.41414-1.83418-2.49803-2.30186c-1.0861-.46769-2.38942-.70153-3.91439-.70153h-1.85302v14.78978Z"/><path d="M2295.19083,336.17244v-19.69163h12.71844l-.0133,2.53238h-9.7771v5.97908h8.72869v2.50578h-8.7442v6.10099l10.03865.0133v2.56009h-12.95117Z"/><path d="M2313.56141,336.17244l.0133-19.69163h2.95463v17.13154h9.09663v2.56009h-12.06456Z"/><path d="M2337.51543,336.44508c-.96197,0-1.88626-.11858-2.77066-.35464s-1.68899-.58738-2.41158-1.05507c-.72037-.46769-1.31662-1.05063-1.78209-1.74995-.46769-.69931-.76249-1.5161-.87996-2.45148h3.03664c.15516.70818.46104,1.30332.91986,1.7843s1.03512.8445,1.72889,1.08942c.69599.24493,1.46512.36794,2.30962.36794.78022,0,1.50281-.12302,2.16555-.36794s1.19692-.59957,1.60698-1.06282c.40784-.46215.61176-1.02958.61176-1.70229,0-.75251-.25268-1.34987-.75584-1.78985-.50315-.44109-1.25899-.79241-2.26751-1.05618l-3.94985-.98081c-.95311-.22609-1.79317-.55081-2.51798-.97306-.72702-.42225-1.29002-.98081-1.68899-1.67569-.39897-.69377-.59846-1.55379-.59846-2.58004,0-1.14373.31475-2.14006.94646-2.98899.62949-.84893,1.48729-1.50502,2.57339-1.96828,1.08388-.46325,2.31184-.69488,3.68387-.69488,1.5693,0,2.89257.2682,3.9698.80349,1.07502.5364,1.89291,1.24236,2.45148,2.11789.55856.87664.84228,1.83196.85115,2.86708h-2.97015c-.08201-.8445-.32805-1.51389-.74254-2.00928-.41227-.49429-.93537-.85115-1.56487-1.06837-.63171-.21833-1.3277-.32694-2.09019-.32694-1.34543,0-2.35395.29701-3.02999.89215-.67604.59403-1.01517,1.29999-1.01517,2.11678,0,.75362.24825,1.34876.74254,1.7843s1.22796.77246,2.1988,1.00741l3.81243.93981c1.19914.26377,2.1589.65609,2.88149,1.17808.72037.52199,1.24126,1.13486,1.55822,1.83861.31918.70375.47655,1.47288.47655,2.30851,0,1.11713-.31253,2.10903-.93981,2.97569-.62506.86666-1.49837,1.54824-2.61994,2.04253s-2.43153.74254-3.9299.74254Z"/></g></g><g id="dataset_building"><path d="M1702.48692,1083.18547v-19.69163c.07315,0,.28815.00222.64723.00665s.7913.00443,1.3011,0c.50758-.00443,1.02847-.00443,1.55822,0,.53197.00443,1.0063.01108,1.42301.01995,2.40715.04544,4.36213.44996,5.86937,1.21244s2.61329,1.85634,3.31593,3.28157c.70486,1.42523,1.05728,3.16409,1.05728,5.21549,0,2.13452-.37685,3.9432-1.13043,5.42717-.75362,1.48507-1.90621,2.61107-3.45335,3.37799s-3.50655,1.15038-5.87601,1.15038h-4.71234ZM1705.45485,1080.73399h1.77101c1.48951,0,2.78618-.24271,3.88779-.72813,1.10383-.48542,1.95941-1.27561,2.56674-2.36947.60955-1.09386.91321-2.55787.91321-4.39205,0-1.7976-.29037-3.22948-.8711-4.29674s-1.41414-1.83418-2.50024-2.30186c-1.08388-.46769-2.38942-.70153-3.91439-.70153h-1.85302v14.78978Z"/><path d="M1721.45818,1083.18547l7.1084-19.69163h3.21397l7.0951,19.69163h-2.94133l-1.85302-5.16118h-7.80218l-1.86632,5.16118h-2.95463ZM1726.9995,1075.38219h6.31932l-3.15855-9.05673-3.16077,9.05673Z"/><path d="M1748.09419,1083.18547v-17.03623h-6.23731v-2.6554h15.13002v2.6554h-5.95138v17.03623h-2.94133Z"/><path d="M1759.97034,1083.18547l7.1084-19.69163h3.21397l7.0951,19.69163h-2.94133l-1.85302-5.16118h-7.80218l-1.86632,5.16118h-2.95463ZM1765.51166,1075.38219h6.31932l-3.15855-9.05673-3.16077,9.05673Z"/><path d="M1789.12655,1083.45811c-.96419,0-1.88626-.11858-2.77288-.35464-.88439-.23606-1.68678-.58738-2.40937-1.05507s-1.31662-1.05063-1.7843-1.74995-.76027-1.5161-.87774-2.45148h3.03664c.15294.70818.46104,1.30332.91986,1.7843.4566.48099,1.03512.8445,1.72889,1.08942s1.46291.36794,2.30741.36794c.78022,0,1.50281-.12302,2.16555-.36794s1.19914-.59957,1.60698-1.06282c.40784-.46215.61398-1.02958.61398-1.70229,0-.75251-.25268-1.34987-.75584-1.78985-.50537-.44109-1.2612-.79241-2.26751-1.05618l-3.94985-.98081c-.95311-.22609-1.79317-.55081-2.52019-.97306-.7248-.42225-1.2878-.98081-1.68899-1.67569-.39897-.69377-.59846-1.55379-.59846-2.58004,0-1.14373.31475-2.14006.94646-2.98899s1.48951-1.50502,2.57339-1.96828c1.0861-.46325,2.31405-.69488,3.68387-.69488,1.57152,0,2.89479.2682,3.9698.80349,1.07723.5364,1.89291,1.24236,2.45148,2.11789.55856.87664.84228,1.83196.85115,2.86708h-2.96793c-.08201-.8445-.33026-1.51389-.74254-2.00928-.41449-.49429-.93537-.85115-1.56709-1.06837-.62949-.21833-1.3277-.32694-2.09019-.32694-1.34322,0-2.35395.29701-3.02999.89215-.67604.59403-1.01517,1.29999-1.01517,2.11678,0,.75362.24825,1.34876.74254,1.7843.4965.43555,1.22796.77246,2.20101,1.00741l3.81243.93981c1.19914.26377,2.1589.65609,2.87927,1.17808.72259.52199,1.24126,1.13486,1.56044,1.83861.31696.70375.47655,1.47288.47655,2.30851,0,1.11713-.31253,2.10903-.93981,2.97569s-1.50059,1.54824-2.62215,2.04253-2.42931.74254-3.92769.74254Z"/><path d="M1802.0356,1083.18547v-19.69163h12.72065l-.01552,2.53238h-9.7771v5.97908h8.72869v2.50578h-8.74203v6.10099l10.03648.0133v2.56009h-12.95117Z"/><path d="M1824.7528,1083.18547v-17.03623h-6.23731v-2.6554h15.13002v2.6554h-5.95138v17.03623h-2.94133Z"/><path d="M1845.94058,1083.18547v-19.69163h6.54984c2.44261,0,4.28455.43998,5.52359,1.31994,1.23904.88107,1.85745,2.15668,1.85745,3.82683,0,1.01739-.26377,1.89624-.79573,2.63545-.53197.74032-1.45848,1.35984-2.78396,1.85856.78022.17289,1.43409.42003,1.95941.74254.52753.3225.94202.69266,1.24569,1.11048.30588.41782.5231.8711.65388,1.36095.13299.49096.19727.99965.19727,1.52608,0,1.78874-.62728,3.12087-1.88405,3.9964-1.25899.87664-3.17185,1.3144-5.74081,1.3144h-6.78257ZM1848.85532,1072.01861h4.15377c.48985,0,.97084-.04987,1.44296-.14962s.90434-.26598,1.29445-.49761.70264-.54194.93981-.93316c.23495-.39011.35243-.86666.35243-1.42966,0-1.07058-.40341-1.86521-1.21022-2.38277-.80903-.51756-1.85745-.77689-3.14747-.77689h-3.82573v6.1697ZM1848.85532,1080.816h3.88114c1.5161,0,2.67092-.26155,3.46665-.78354.79352-.52199,1.19028-1.30443,1.19028-2.34841,0-.75362-.19505-1.37092-.58516-1.85302-.39011-.48099-.91764-.83452-1.58038-1.06172s-1.40306-.34024-2.21874-.34024h-4.15377v6.38692Z"/><path d="M1873.04202,1083.45811c-1.77096,0-3.19618-.29037-4.27785-.8722-1.07945-.58073-1.86632-1.42966-2.36282-2.54679-.49429-1.11602-.74032-2.47808-.74032-4.08506v-12.46021h3.00783v12.82815c0,1.56154.38346,2.7219,1.15259,3.47884.76692.75916,1.83972,1.13708,3.22057,1.13708.91547,0,1.70899-.16513,2.37617-.4965s1.17698-.84006,1.53162-1.52497c.35464-.68602.53197-1.55046.53197-2.59445v-12.82815h2.95463v12.69184c0,1.53384-.2549,2.8438-.76249,3.9288-.5098,1.08499-1.30553,1.91397-2.38942,2.48584-1.0861.57186-2.50024.8578-4.24248.8578Z"/><path d="M1886.27917,1083.18547v-19.69163h2.91252v19.69163h-2.91252Z"/><path d="M1895.53761,1083.18547l.0133-19.69163h2.95463v17.13154h9.09885v2.56009h-12.06678Z"/><path d="M1912.62925,1083.18547v-19.69163c.07315,0,.28815.00222.64723.00665s.7913.00443,1.3011,0c.50758-.00443,1.02847-.00443,1.55822,0,.53197.00443,1.0063.01108,1.42301.01995,2.40715.04544,4.36213.44996,5.86937,1.21244s2.61329,1.85634,3.31593,3.28157c.70486,1.42523,1.05728,3.16409,1.05728,5.21549,0,2.13452-.37681,3.9432-1.13043,5.42717-.75362,1.48507-1.90621,2.61107-3.45335,3.37799s-3.50655,1.15038-5.87601,1.15038h-4.71234ZM1915.59718,1080.73399h1.77101c1.48951,0,2.78618-.24271,3.88779-.72813,1.10383-.48542,1.95941-1.27561,2.56674-2.36947.60955-1.09386.91321-2.55787.91321-4.39205,0-1.7976-.29037-3.22948-.8711-4.29674s-1.41414-1.83418-2.50024-2.30186c-1.08388-.46769-2.38942-.70153-3.91439-.70153h-1.85302v14.78978Z"/><path d="M1933.07007,1083.18547v-19.69163h2.91473v19.69163h-2.91473Z"/><path d="M1942.33072,1083.18547v-19.69163h2.81721l10.02314,14.68006v-14.68006h2.92803v19.69163h-2.61329l-10.24257-14.9804v14.9804h-2.91252Z"/><path d="M1971.86817,1083.45811c-1.75327,0-3.26495-.40008-4.53502-1.19914-1.27229-.79795-2.24978-1.94944-2.93473-3.45224-.68707-1.5017-1.02842-3.30595-1.02842-5.41276,0-2.12454.35243-3.94653,1.05507-5.46817.70264-1.52054,1.70451-2.68421,3.00339-3.49325,1.29667-.80792,2.82386-1.21133,4.57491-1.21133,1.04398,0,2.01261.17732,2.90808.53086.89326.35464,1.68456.83563,2.36947,1.44407.68491.60733,1.22796,1.29778,1.62693,2.06913.39897.77246.62728,1.58038.68047,2.42488h-3.10314c-.12856-.69931-.39897-1.34654-.81125-1.94057-.41227-.59514-.93759-1.07391-1.57373-1.43742-.63393-.3624-1.35208-.54416-2.15003-.54416-1.06393,0-2.00374.26266-2.81942.78908-.8179.52753-1.45626,1.34876-1.91286,2.46478-.45882,1.11713-.68934,2.55233-.68934,4.30339,0,1.37203.14407,2.53792.43001,3.50101.28593.96197.67826,1.73776,1.17698,2.32846.49872.5896,1.08605,1.01849,1.75771,1.28669.67161.2682,1.38976.40119,2.15225.40119.75362,0,1.41636-.13078,1.98823-.39454.57186-.26266,1.05063-.604,1.43631-1.02071.38568-.41782.68491-.86999.89769-1.35541.215-.48542.3347-.95532.36129-1.40971l.10861-1.59368h-4.60151v-2.09684l7.63815.02771v10.18605h-2.11013v-2.88703c-.34578.53529-.77578,1.04398-1.29445,1.52497-.51645.48209-1.15259.87442-1.90621,1.17808s-1.65131.4566-2.6953.4566Z"/></g><g id="glow_dataset_building_copy"><g style="filter:url(#outer-glow-65);"><path d="M1702.48692,1083.18547v-19.69163c.07315,0,.28815.00222.64723.00665s.7913.00443,1.3011,0c.50758-.00443,1.02847-.00443,1.55822,0,.53197.00443,1.0063.01108,1.42301.01995,2.40715.04544,4.36213.44996,5.86937,1.21244s2.61329,1.85634,3.31593,3.28157c.70486,1.42523,1.05728,3.16409,1.05728,5.21549,0,2.13452-.37685,3.9432-1.13043,5.42717-.75362,1.48507-1.90621,2.61107-3.45335,3.37799s-3.50655,1.15038-5.87601,1.15038h-4.71234ZM1705.45485,1080.73399h1.77101c1.48951,0,2.78618-.24271,3.88779-.72813,1.10383-.48542,1.95941-1.27561,2.56674-2.36947.60955-1.09386.91321-2.55787.91321-4.39205,0-1.7976-.29037-3.22948-.8711-4.29674s-1.41414-1.83418-2.50024-2.30186c-1.08388-.46769-2.38942-.70153-3.91439-.70153h-1.85302v14.78978Z" style="stroke:#000; stroke-width:.5px;"/><path d="M1721.45818,1083.18547l7.1084-19.69163h3.21397l7.0951,19.69163h-2.94133l-1.85302-5.16118h-7.80218l-1.86632,5.16118h-2.95463ZM1726.9995,1075.38219h6.31932l-3.15855-9.05673-3.16077,9.05673Z" style="stroke:#000; stroke-width:.5px;"/><path d="M1748.09419,1083.18547v-17.03623h-6.23731v-2.6554h15.13002v2.6554h-5.95138v17.03623h-2.94133Z" style="stroke:#000; stroke-width:.5px;"/><path d="M1759.97034,1083.18547l7.1084-19.69163h3.21397l7.0951,19.69163h-2.94133l-1.85302-5.16118h-7.80218l-1.86632,5.16118h-2.95463ZM1765.51166,1075.38219h6.31932l-3.15855-9.05673-3.16077,9.05673Z" style="stroke:#000; stroke-width:.5px;"/><path d="M1789.12655,1083.45811c-.96419,0-1.88626-.11858-2.77288-.35464-.88439-.23606-1.68678-.58738-2.40937-1.05507s-1.31662-1.05063-1.7843-1.74995-.76027-1.5161-.87774-2.45148h3.03664c.15294.70818.46104,1.30332.91986,1.7843.4566.48099,1.03512.8445,1.72889,1.08942s1.46291.36794,2.30741.36794c.78022,0,1.50281-.12302,2.16555-.36794s1.19914-.59957,1.60698-1.06282c.40784-.46215.61398-1.02958.61398-1.70229,0-.75251-.25268-1.34987-.75584-1.78985-.50537-.44109-1.2612-.79241-2.26751-1.05618l-3.94985-.98081c-.95311-.22609-1.79317-.55081-2.52019-.97306-.7248-.42225-1.2878-.98081-1.68899-1.67569-.39897-.69377-.59846-1.55379-.59846-2.58004,0-1.14373.31475-2.14006.94646-2.98899s1.48951-1.50502,2.57339-1.96828c1.0861-.46325,2.31405-.69488,3.68387-.69488,1.57152,0,2.89479.2682,3.9698.80349,1.07723.5364,1.89291,1.24236,2.45148,2.11789.55856.87664.84228,1.83196.85115,2.86708h-2.96793c-.08201-.8445-.33026-1.51389-.74254-2.00928-.41449-.49429-.93537-.85115-1.56709-1.06837-.62949-.21833-1.3277-.32694-2.09019-.32694-1.34322,0-2.35395.29701-3.02999.89215-.67604.59403-1.01517,1.29999-1.01517,2.11678,0,.75362.24825,1.34876.74254,1.7843.4965.43555,1.22796.77246,2.20101,1.00741l3.81243.93981c1.19914.26377,2.1589.65609,2.87927,1.17808.72259.52199,1.24126,1.13486,1.56044,1.83861.31696.70375.47655,1.47288.47655,2.30851,0,1.11713-.31253,2.10903-.93981,2.97569s-1.50059,1.54824-2.62215,2.04253-2.42931.74254-3.92769.74254Z" style="stroke:#000; stroke-width:.5px;"/><path d="M1802.0356,1083.18547v-19.69163h12.72065l-.01552,2.53238h-9.7771v5.97908h8.72869v2.50578h-8.74203v6.10099l10.03648.0133v2.56009h-12.95117Z" style="stroke:#000; stroke-width:.5px;"/><path d="M1824.7528,1083.18547v-17.03623h-6.23731v-2.6554h15.13002v2.6554h-5.95138v17.03623h-2.94133Z" style="stroke:#000; stroke-width:.5px;"/><path d="M1845.94058,1083.18547v-19.69163h6.54984c2.44261,0,4.28455.43998,5.52359,1.31994,1.23904.88107,1.85745,2.15668,1.85745,3.82683,0,1.01739-.26377,1.89624-.79573,2.63545-.53197.74032-1.45848,1.35984-2.78396,1.85856.78022.17289,1.43409.42003,1.95941.74254.52753.3225.94202.69266,1.24569,1.11048.30588.41782.5231.8711.65388,1.36095.13299.49096.19727.99965.19727,1.52608,0,1.78874-.62728,3.12087-1.88405,3.9964-1.25899.87664-3.17185,1.3144-5.74081,1.3144h-6.78257ZM1848.85532,1072.01861h4.15377c.48985,0,.97084-.04987,1.44296-.14962s.90434-.26598,1.29445-.49761.70264-.54194.93981-.93316c.23495-.39011.35243-.86666.35243-1.42966,0-1.07058-.40341-1.86521-1.21022-2.38277-.80903-.51756-1.85745-.77689-3.14747-.77689h-3.82573v6.1697ZM1848.85532,1080.816h3.88114c1.5161,0,2.67092-.26155,3.46665-.78354.79352-.52199,1.19028-1.30443,1.19028-2.34841,0-.75362-.19505-1.37092-.58516-1.85302-.39011-.48099-.91764-.83452-1.58038-1.06172s-1.40306-.34024-2.21874-.34024h-4.15377v6.38692Z" style="stroke:#000; stroke-width:.5px;"/><path d="M1873.04202,1083.45811c-1.77096,0-3.19618-.29037-4.27785-.8722-1.07945-.58073-1.86632-1.42966-2.36282-2.54679-.49429-1.11602-.74032-2.47808-.74032-4.08506v-12.46021h3.00783v12.82815c0,1.56154.38346,2.7219,1.15259,3.47884.76692.75916,1.83972,1.13708,3.22057,1.13708.91547,0,1.70899-.16513,2.37617-.4965s1.17698-.84006,1.53162-1.52497c.35464-.68602.53197-1.55046.53197-2.59445v-12.82815h2.95463v12.69184c0,1.53384-.2549,2.8438-.76249,3.9288-.5098,1.08499-1.30553,1.91397-2.38942,2.48584-1.0861.57186-2.50024.8578-4.24248.8578Z" style="stroke:#000; stroke-width:.5px;"/><path d="M1886.27917,1083.18547v-19.69163h2.91252v19.69163h-2.91252Z" style="stroke:#000; stroke-width:.5px;"/><path d="M1895.53761,1083.18547l.0133-19.69163h2.95463v17.13154h9.09885v2.56009h-12.06678Z" style="stroke:#000; stroke-width:.5px;"/><path d="M1912.62925,1083.18547v-19.69163c.07315,0,.28815.00222.64723.00665s.7913.00443,1.3011,0c.50758-.00443,1.02847-.00443,1.55822,0,.53197.00443,1.0063.01108,1.42301.01995,2.40715.04544,4.36213.44996,5.86937,1.21244s2.61329,1.85634,3.31593,3.28157c.70486,1.42523,1.05728,3.16409,1.05728,5.21549,0,2.13452-.37681,3.9432-1.13043,5.42717-.75362,1.48507-1.90621,2.61107-3.45335,3.37799s-3.50655,1.15038-5.87601,1.15038h-4.71234ZM1915.59718,1080.73399h1.77101c1.48951,0,2.78618-.24271,3.88779-.72813,1.10383-.48542,1.95941-1.27561,2.56674-2.36947.60955-1.09386.91321-2.55787.91321-4.39205,0-1.7976-.29037-3.22948-.8711-4.29674s-1.41414-1.83418-2.50024-2.30186c-1.08388-.46769-2.38942-.70153-3.91439-.70153h-1.85302v14.78978Z" style="stroke:#000; stroke-width:.5px;"/><path d="M1933.07007,1083.18547v-19.69163h2.91473v19.69163h-2.91473Z" style="stroke:#000; stroke-width:.5px;"/><path d="M1942.33072,1083.18547v-19.69163h2.81721l10.02314,14.68006v-14.68006h2.92803v19.69163h-2.61329l-10.24257-14.9804v14.9804h-2.91252Z" style="stroke:#000; stroke-width:.5px;"/><path d="M1971.86817,1083.45811c-1.75327,0-3.26495-.40008-4.53502-1.19914-1.27229-.79795-2.24978-1.94944-2.93473-3.45224-.68707-1.5017-1.02842-3.30595-1.02842-5.41276,0-2.12454.35243-3.94653,1.05507-5.46817.70264-1.52054,1.70451-2.68421,3.00339-3.49325,1.29667-.80792,2.82386-1.21133,4.57491-1.21133,1.04398,0,2.01261.17732,2.90808.53086.89326.35464,1.68456.83563,2.36947,1.44407.68491.60733,1.22796,1.29778,1.62693,2.06913.39897.77246.62728,1.58038.68047,2.42488h-3.10314c-.12856-.69931-.39897-1.34654-.81125-1.94057-.41227-.59514-.93759-1.07391-1.57373-1.43742-.63393-.3624-1.35208-.54416-2.15003-.54416-1.06393,0-2.00374.26266-2.81942.78908-.8179.52753-1.45626,1.34876-1.91286,2.46478-.45882,1.11713-.68934,2.55233-.68934,4.30339,0,1.37203.14407,2.53792.43001,3.50101.28593.96197.67826,1.73776,1.17698,2.32846.49872.5896,1.08605,1.01849,1.75771,1.28669.67161.2682,1.38976.40119,2.15225.40119.75362,0,1.41636-.13078,1.98823-.39454.57186-.26266,1.05063-.604,1.43631-1.02071.38568-.41782.68491-.86999.89769-1.35541.215-.48542.3347-.95532.36129-1.40971l.10861-1.59368h-4.60151v-2.09684l7.63815.02771v10.18605h-2.11013v-2.88703c-.34578.53529-.77578,1.04398-1.29445,1.52497-.51645.48209-1.15259.87442-1.90621,1.17808s-1.65131.4566-2.6953.4566Z" style="stroke:#000; stroke-width:.5px;"/></g></g><g id="ai_inference_on_local_gpu_and_cpu"><g style="filter:url(#outer-glow-151);"><path d="M554.30899,466.87443l7.1084-19.69163h3.21397l7.0951,19.69163h-2.94133l-1.85191-5.16118h-7.80329l-1.86632,5.16118h-2.95463ZM559.85142,459.07114h6.31821l-3.15855-9.05673-3.15966,9.05673Z"/><path d="M576.60171,466.87443v-19.69163h2.91363v19.69163h-2.91363Z"/><path d="M593.70666,466.87443v-19.69163h2.91363v19.69163h-2.91363Z"/><path d="M602.9662,466.87443v-19.69163h2.81831l10.02314,14.68006v-14.68006h2.92802v19.69163h-2.61438l-10.24147-14.9804v14.9804h-2.91363Z"/><path d="M625.06831,466.87443v-19.69163h12.58323l-.0133,2.50578h-9.602v6.08658h8.53917v2.47919h-8.53917v8.62008h-2.96793Z"/><path d="M642.74512,466.87443v-19.69163h12.71954l-.01441,2.53238h-9.7771v5.97908h8.72869v2.50578h-8.74309v6.10099l10.03755.0133v2.56009h-12.95117Z"/><path d="M661.1168,466.87443v-19.69163h7.81658c1.4618,0,2.67313.22387,3.63621.67382.96197.44885,1.67902,1.08721,2.15114,1.91286.47212.82676.70818,1.80315.70818,2.92803,0,1.06282-.17843,1.94722-.53751,2.6554s-.82122,1.28559-1.38865,1.73-1.16479.79463-1.79095,1.04842l3.81243,8.74309h-3.06324l-3.4999-8.23883h-4.93067v8.23883h-2.91363ZM664.03043,456.27943h4.11277c1.37092,0,2.43375-.29701,3.18737-.89215.75362-.59403,1.13043-1.44518,1.13043-2.55344,0-1.08942-.34356-1.91508-1.02847-2.47808-.68602-.563-1.61363-.8445-2.78507-.8445h-4.61703v6.76817Z"/><path d="M681.04006,466.87443v-19.69163h12.71954l-.01441,2.53238h-9.7771v5.97908h8.72869v2.50578h-8.74309v6.10099l10.03755.0133v2.56009h-12.95117Z"/><path d="M699.41064,466.87443v-19.69163h2.81831l10.02314,14.68006v-14.68006h2.92803v19.69163h-2.61439l-10.24147-14.9804v14.9804h-2.91363Z"/><path d="M728.96139,467.14706c-1.77876,0-3.30484-.41117-4.57602-1.23239-1.27118-.82233-2.24423-1.99266-2.92028-3.5143-.67715-1.52054-1.01517-3.34252-1.01517-5.46707,0-2.11568.3358-3.91993,1.00852-5.41387.67161-1.49283,1.64245-2.63434,2.91363-3.42454s2.80058-1.18473,4.58932-1.18473c1.41636,0,2.67424.29037,3.77253.8711,1.09829.58184,1.98158,1.36206,2.64875,2.34287.66717.97971,1.06393,2.0658,1.19138,3.25497h-3.10425c-.13632-.74475-.39787-1.41858-.78354-2.02258s-.89659-1.08056-1.53162-1.42966c-.63614-.35021-1.38976-.52532-2.26086-.52532-1.11713,0-2.0658.26377-2.84602.79019-.78133.52643-1.37425,1.34876-1.77766,2.46478-.40452,1.11713-.60622,2.55566-.60622,4.3178,0,2.65983.44996,4.60484,1.34876,5.83501s2.19215,1.84526,3.88114,1.84526c.8711,0,1.62471-.1884,2.26086-.56521.63504-.37681,1.14594-.87996,1.53162-1.51167.38568-.6306.64723-1.31883.78354-2.06248h3.10425c-.10861.86223-.3358,1.6901-.68047,2.48473-.34578.79463-.82455,1.50502-1.43742,2.13119s-1.37314,1.11935-2.28081,1.47732c-.90767.35908-1.97936.53862-3.21397.53862Z"/><path d="M741.84496,466.87443v-19.69163h12.71954l-.01441,2.53238h-9.7771v5.97908h8.72869v2.50578h-8.74309v6.10099l10.03755.0133v2.56009h-12.95117Z"/><path d="M563.41892,503.46265c-1.78874,0-3.33366-.39787-4.63698-1.19138-1.30221-.79463-2.3063-1.94279-3.00894-3.44559-.70375-1.50281-1.05618-3.31593-1.05618-5.44047,0-2.14338.35686-3.9698,1.06947-5.48147s1.72003-2.66981,3.02334-3.4733c1.30221-.80349,2.83937-1.20468,4.60927-1.20468,1.76103,0,3.28933.40119,4.58267,1.20468,1.29445.80349,2.293,1.96163,2.99675,3.4733.70264,1.51167,1.05507,3.33809,1.05507,5.48147,0,2.12454-.35021,3.93544-1.04842,5.43382-.69931,1.49726-1.69564,2.64653-2.9901,3.44448-1.29334.79906-2.82496,1.19914-4.59597,1.19914ZM563.41892,500.97016c1.14373,0,2.12233-.26266,2.93468-.79019.81236-.52643,1.43188-1.34765,1.85967-2.46478.42668-1.11602.63947-2.54679.63947-4.28898,0-1.78874-.21611-3.25054-.64612-4.3854-.43222-1.13486-1.05396-1.97271-1.86632-2.51243-.81236-.54083-1.78652-.81125-2.92138-.81125s-2.11235.27263-2.93468.8179c-.82122.54416-1.45515,1.38422-1.89956,2.51908s-.66717,2.59223-.66717,4.3721c0,1.75217.22276,3.18404.66717,4.29563.44441,1.1127,1.07834,1.9317,1.89956,2.45813.82233.52753,1.79982.79019,2.93468.79019Z"/><path d="M577.3243,503.19002v-19.69163h2.81831l10.02314,14.68006v-14.68006h2.92803v19.69163h-2.61439l-10.24147-14.9804v14.9804h-2.91363Z"/><path d="M607.26959,503.19002l.0133-19.69163h2.95463v17.13154h9.09774v2.56009h-12.06567Z"/><path d="M632.0005,503.46265c-1.78874,0-3.33366-.39787-4.63698-1.19138-1.30221-.79463-2.3063-1.94279-3.00894-3.44559-.70375-1.50281-1.05618-3.31593-1.05618-5.44047,0-2.14338.35686-3.9698,1.06947-5.48147s1.72003-2.66981,3.02334-3.4733c1.30221-.80349,2.83937-1.20468,4.60927-1.20468,1.76103,0,3.28933.40119,4.58267,1.20468,1.29445.80349,2.293,1.96163,2.99675,3.4733.70264,1.51167,1.05507,3.33809,1.05507,5.48147,0,2.12454-.35021,3.93544-1.04842,5.43382-.69931,1.49726-1.69564,2.64653-2.9901,3.44448-1.29334.79906-2.82496,1.19914-4.59597,1.19914ZM632.0005,500.97016c1.14373,0,2.12233-.26266,2.93468-.79019.81236-.52643,1.43188-1.34765,1.85967-2.46478.42668-1.11602.63947-2.54679.63947-4.28898,0-1.78874-.21611-3.25054-.64612-4.3854-.43222-1.13486-1.05396-1.97271-1.86632-2.51243-.81236-.54083-1.78652-.81125-2.92138-.81125s-2.11235.27263-2.93468.8179c-.82122.54416-1.45515,1.38422-1.89956,2.51908s-.66717,2.59223-.66717,4.3721c0,1.75217.22276,3.18404.66717,4.29563.44441,1.1127,1.07834,1.9317,1.89956,2.45813.82233.52753,1.79982.79019,2.93468.79019Z"/><path d="M653.35342,503.46265c-1.77876,0-3.30484-.41117-4.57602-1.23239-1.27118-.82233-2.24423-1.99266-2.92028-3.5143-.67715-1.52054-1.01517-3.34252-1.01517-5.46707,0-2.11568.3358-3.91993,1.00852-5.41387.67161-1.49283,1.64245-2.63434,2.91363-3.42454s2.80058-1.18473,4.58932-1.18473c1.41636,0,2.67424.29037,3.77253.8711,1.09829.58184,1.98158,1.36206,2.64875,2.34287.66716.97971,1.06393,2.0658,1.19138,3.25497h-3.10425c-.13632-.74475-.39787-1.41858-.78354-2.02258s-.89659-1.08056-1.53162-1.42966c-.63614-.35021-1.38976-.52532-2.26086-.52532-1.11713,0-2.0658.26377-2.84602.79019-.78133.52643-1.37425,1.34876-1.77766,2.46478-.40452,1.11713-.60622,2.55566-.60622,4.3178,0,2.65983.44996,4.60484,1.34876,5.83501s2.19215,1.84526,3.88114,1.84526c.8711,0,1.62471-.1884,2.26086-.56521.63504-.37681,1.14594-.87996,1.53162-1.51167.38568-.6306.64723-1.31883.78354-2.06248h3.10425c-.10861.86223-.3358,1.6901-.68047,2.48473-.34578.79463-.82455,1.50502-1.43742,2.13119s-1.37314,1.11935-2.28081,1.47732c-.90767.35908-1.97936.53862-3.21397.53862Z"/><path d="M664.76632,503.19002l7.1084-19.69163h3.21397l7.0951,19.69163h-2.94133l-1.85191-5.16118h-7.80329l-1.86632,5.16118h-2.95463ZM670.30874,495.38673h6.31821l-3.15855-9.05673-3.15966,9.05673Z"/><path d="M687.05904,503.19002l.0133-19.69163h2.95463v17.13154h9.09774v2.56009h-12.06567Z"/><path d="M719.42921,503.46265c-1.75217,0-3.26384-.40008-4.53502-1.19914-1.27118-.79795-2.24978-1.94944-2.93468-3.45224-.68602-1.5017-1.02847-3.30595-1.02847-5.41276,0-2.12454.35243-3.94653,1.05618-5.46817.70264-1.52054,1.7034-2.68421,3.00229-3.49325,1.29778-.80792,2.82386-1.21133,4.57602-1.21133,1.04398,0,2.01261.17732,2.90698.53086.89437.35464,1.68456.83563,2.36947,1.44407.68602.60733,1.22796,1.29778,1.62804,2.06913.39897.77246.62617,1.58038.68047,2.42488h-3.10425c-.12745-.69931-.39787-1.34654-.81125-1.94057-.41227-.59514-.93759-1.07391-1.57263-1.43742-.63504-.3624-1.35319-.54416-2.15114-.54416-1.06282,0-2.00263.26266-2.81942.78908-.81679.52753-1.45515,1.34876-1.91286,2.46478-.45882,1.11713-.68823,2.55233-.68823,4.30339,0,1.37203.14297,2.53792.4289,3.50101.28593.96197.67826,1.73776,1.17808,2.32846.49872.5896,1.08499,1.01849,1.7566,1.28669s1.38976.40119,2.15225.40119c.75362,0,1.41636-.13078,1.98823-.39454.57186-.26266,1.05063-.604,1.43631-1.02071.38568-.41782.68602-.86999.8988-1.35541.21389-.48542.33359-.95532.36129-1.40971l.10861-1.59368h-4.60262v-2.09684l7.63926.02771v10.18605h-2.11013v-2.88703c-.34578.53529-.77689,1.04398-1.29445,1.52497-.51756.48209-1.15259.87442-1.90621,1.17808s-1.65242.4566-2.69641.4566Z"/><path d="M733.51081,503.19002v-19.69163h6.82247c1.4075,0,2.66648.24049,3.77918.72148,1.11159.48099,1.98823,1.18917,2.62769,2.12454.64058.93537.96086,2.08354.96086,3.44559,0,1.30664-.29258,2.42156-.87885,3.34252-.58516.92208-1.40195,1.62804-2.45148,2.11789-1.04842.48985-2.26307.73589-3.64286.73589h-4.24908v7.20371h-2.96793ZM736.46544,493.58913h4.18148c1.25234,0,2.27416-.36129,3.06324-1.08277.79019-.72148,1.18473-1.68234,1.18473-2.88038,0-1.21687-.40784-2.14892-1.22463-2.79837-.8179-.64944-1.86188-.97416-3.13306-.97416h-4.07176v7.73568Z"/><path d="M759.71239,503.46265c-1.77101,0-3.19623-.29037-4.27679-.8722-1.08056-.58073-1.86742-1.42966-2.36282-2.54679-.49429-1.11602-.74143-2.47808-.74143-4.08506v-12.46021h3.00894v12.82815c0,1.56154.38346,2.7219,1.15149,3.47884.76692.75916,1.83972,1.13708,3.22061,1.13708.91653,0,1.70894-.16513,2.37612-.4965s1.17808-.84006,1.53162-1.52497c.35464-.68602.53197-1.55046.53197-2.59445v-12.82815h2.95463v12.69184c0,1.53384-.25379,2.8438-.76249,3.9288s-1.30553,1.91397-2.38942,2.48584c-1.08499.57186-2.49913.8578-4.24243.8578Z"/><path d="M554.30899,539.50561l7.1084-19.69163h3.21397l7.0951,19.69163h-2.94133l-1.85191-5.16118h-7.80329l-1.86632,5.16118h-2.95463ZM559.85142,531.70232h6.31821l-3.15855-9.05673-3.15966,9.05673Z"/><path d="M576.60171,539.50561v-19.69163h2.81831l10.02314,14.68006v-14.68006h2.92803v19.69163h-2.61439l-10.24147-14.9804v14.9804h-2.91363Z"/><path d="M598.70382,539.50561v-19.69163c.07204,0,.28815.00222.64612.00665.35908.00443.79241.00443,1.3011,0s1.02847-.00443,1.55933,0,1.0052.01108,1.42301.01995c2.40604.04544,4.36213.44996,5.86937,1.21244s2.61218,1.85634,3.31593,3.28157,1.05618,3.16409,1.05618,5.21549c0,2.13452-.37681,3.9432-1.13043,5.42717-.75362,1.48507-1.90511,2.61107-3.45224,3.37799-1.54824.76692-3.50765,1.15038-5.87714,1.15038h-4.71121ZM601.67175,537.05413h1.77101c1.4884,0,2.78507-.24271,3.88779-.72813s1.95941-1.27561,2.56674-2.36947c.60844-1.09386.91321-2.55787.91321-4.39205,0-1.7976-.29147-3.22948-.8722-4.29674s-1.41414-1.83418-2.49913-2.30186-2.38942-.70153-3.91439-.70153h-1.85302v14.78978Z"/><path d="M634.43757,539.77824c-1.77876,0-3.30484-.41117-4.57602-1.23239-1.27118-.82233-2.24423-1.99266-2.92028-3.5143-.67715-1.52054-1.01517-3.34252-1.01517-5.46707,0-2.11568.3358-3.91993,1.00852-5.41387.67161-1.49283,1.64245-2.63434,2.91363-3.42454s2.80058-1.18473,4.58932-1.18473c1.41636,0,2.67424.29037,3.77253.8711,1.09829.58184,1.98158,1.36206,2.64875,2.34287.66717.97971,1.06393,2.0658,1.19138,3.25497h-3.10425c-.13632-.74475-.39787-1.41858-.78354-2.02258s-.89659-1.08056-1.53162-1.42966c-.63614-.35021-1.38976-.52532-2.26086-.52532-1.11713,0-2.0658.26377-2.84602.79019-.78133.52643-1.37425,1.34876-1.77766,2.46478-.40452,1.11713-.60622,2.55566-.60622,4.3178,0,2.65983.44996,4.60484,1.34876,5.83501s2.19215,1.84526,3.88114,1.84526c.8711,0,1.62471-.1884,2.26086-.56521.63504-.37681,1.14594-.87996,1.53162-1.51167.38568-.6306.64723-1.31883.78354-2.06248h3.10425c-.10861.86223-.3358,1.6901-.68047,2.48473-.34578.79463-.82455,1.50502-1.43742,2.13119s-1.37314,1.11935-2.28081,1.47732c-.90767.35908-1.97936.53862-3.21397.53862Z"/><path d="M647.32114,539.50561v-19.69163h6.82247c1.4075,0,2.66648.24049,3.77918.72148,1.11159.48099,1.98823,1.18917,2.62769,2.12454.64058.93537.96086,2.08354.96086,3.44559,0,1.30664-.29258,2.42156-.87885,3.34252-.58516.92208-1.40195,1.62804-2.45148,2.11789-1.04842.48985-2.26307.73589-3.64286.73589h-4.24908v7.20371h-2.96793ZM650.27577,529.90472h4.18148c1.25234,0,2.27416-.36129,3.06324-1.08277.79019-.72148,1.18473-1.68234,1.18473-2.88038,0-1.21687-.40784-2.14892-1.22463-2.79837-.8179-.64944-1.8619-.97416-3.13306-.97416h-4.07176v7.73568Z"/><path d="M673.5216,539.77824c-1.77101,0-3.19623-.29037-4.27679-.8722-1.08056-.58073-1.86742-1.42966-2.36282-2.54679-.49429-1.11602-.74143-2.47808-.74143-4.08506v-12.46021h3.00894v12.82815c0,1.56154.38346,2.7219,1.15149,3.47884.76692.75916,1.83972,1.13708,3.22061,1.13708.91653,0,1.70894-.16513,2.37612-.4965s1.17808-.84006,1.53162-1.52497c.35464-.68602.53197-1.55046.53197-2.59445v-12.82815h2.95463v12.69184c0,1.53384-.25379,2.8438-.76249,3.9288s-1.30553,1.91397-2.38942,2.48584c-1.08499.57186-2.49913.8578-4.24243.8578Z"/></g></g></svg>