<svg xmlns="http://www.w3.org/2000/svg" xmlns:xlink="http://www.w3.org/1999/xlink" viewBox="0 0 2640.75733 1226.57872"><defs><filter id="drop-shadow-116" x="72.63065" y="125.21269" width="809" height="690" filterUnits="userSpaceOnUse"><feOffset dx="0" dy="0"/><feGaussianBlur result="blur-8" stdDeviation="3"/><feFlood flood-color="#000" flood-opacity=".06"/><feComposite in2="blur-8" operator="in"/><feComposite in="SourceGraphic"/></filter><filter id="drop-shadow-128" x="58.63065" y="111.21269" width="809" height="690" filterUnits="userSpaceOnUse"><feOffset dx="0" dy="0"/><feGaussianBlur result="blur-9" stdDeviation="3"/><feFlood flood-color="#000" flood-opacity=".06"/><feComposite in2="blur-9" operator="in"/><feComposite in="SourceGraphic"/></filter><filter id="outer-glow-137" x="353.30206" y="130.21269" width="552" height="711" filterUnits="userSpaceOnUse"><feOffset dx="0" dy="0"/><feGaussianBlur result="blur-10" stdDeviation="30"/><feFlood flood-color="#00ff7f" flood-opacity="1"/><feComposite in2="blur-10" operator="in"/><feComposite in="SourceGraphic"/></filter><filter id="outer-glow-139" x="17.58541" y="540.75544" width="453" height="262" filterUnits="userSpaceOnUse"><feOffset dx="0" dy="0"/><feGaussianBlur result="blur-11" stdDeviation="30"/><feFlood flood-color="#00ff7f" flood-opacity="1"/><feComposite in2="blur-11" operator="in"/><feComposite in="SourceGraphic"/></filter><filter id="outer-glow-140" x="17.58541" y="153.75544" width="453" height="262" filterUnits="userSpaceOnUse"><feOffset dx="0" dy="0"/><feGaussianBlur result="blur-12" stdDeviation="30"/><feFlood flood-color="#00ff7f" flood-opacity="1"/><feComposite in2="blur-12" operator="in"/><feComposite in="SourceGraphic"/></filter><filter id="outer-glow-141" x="17.58541" y="250.75544" width="453" height="261" filterUnits="userSpaceOnUse"><feOffset dx="0" dy="0"/><feGaussianBlur result="blur-13" stdDeviation="30"/><feFlood flood-color="#00ff7f" flood-opacity="1"/><feComposite in2="blur-13" operator="in"/><feComposite in="SourceGraphic"/></filter><filter id="outer-glow-142" x="17.58541" y="347.75544" width="453" height="261" filterUnits="userSpaceOnUse"><feOffset dx="0" dy="0"/><feGaussianBlur result="blur-14" stdDeviation="30"/><feFlood flood-color="#00ff7f" flood-opacity="1"/><feComposite in2="blur-14" operator="in"/><feComposite in="SourceGraphic"/></filter><filter id="outer-glow-143" x="17.58541" y="444.75544" width="453" height="261" filterUnits="userSpaceOnUse"><feOffset dx="0" dy="0"/><feGaussianBlur result="blur-15" stdDeviation="30"/><feFlood flood-color="#00ff7f" flood-opacity="1"/><feComposite in2="blur-15" operator="in"/><feComposite in="SourceGraphic"/></filter><filter id="outer-glow-153" x="545.30206" y="579.21269" width="155" height="72" filterUnits="userSpaceOnUse"><feOffset dx="0" dy="0"/><feGaussianBlur result="blur-16" stdDeviation="3"/><feFlood flood-color="#00ff7f" flood-opacity="1"/><feComposite in2="blur-16" operator="in"/><feComposite in="SourceGraphic"/></filter></defs><g id="dropshadow_large_left"><rect x="28.21175" y="38.74867" width="902.63362" height="825.19996" rx="19.67752" ry="19.67752" style="fill:#fff; filter:url(#drop-shadow-18); stroke:#000; stroke-miterlimit:10; stroke-width:2.5px;"/></g><g id="white_box_large_left_copy"><rect x="28.21175" y="38.74867" width="902.63362" height="825.19996" rx="19.67752" ry="19.67752" style="fill:#fff; stroke:#000; stroke-miterlimit:10; stroke-width:2.5px;"/></g><g id="black_pill_left"><rect x="216.53948" y="4.72758" width="525.97818" height="68.04357" rx="34.02174" ry="34.02174"/></g><g id="your_physical_world"><path d="M265.56083,51.52154v-11.14913l-9.00797-15.10674h4.24908l6.7183,11.67556,6.62963-11.67556h4.24687l-8.95034,15.12558v11.13029h-3.88557Z" style="fill:#fff;"/><path d="M293.21423,51.88505c-2.38498,0-4.44635-.52975-6.1819-1.58925-1.73776-1.0595-3.07654-2.59001-4.01413-4.59375s-1.4075-4.42197-1.4075-7.25359c0-2.8571.47655-5.29307,1.42523-7.309.95089-2.01593,2.29411-3.55864,4.03186-4.63033s3.78583-1.60698,6.14643-1.60698c2.34952,0,4.38429.53529,6.11097,1.60698,1.72446,1.07169,3.05659,2.61439,3.99418,4.63033s1.4075,4.4519,1.4075,7.309c0,2.83161-.46547,5.24652-1.39863,7.24472-.93316,1.99709-2.26086,3.52871-3.98532,4.59375s-3.7681,1.59812-6.1287,1.59812ZM293.21423,48.56136c1.52497,0,2.83051-.35021,3.91217-1.05285,1.08388-.70153,1.91065-1.7976,2.48029-3.286.56743-1.48951.85336-3.39572.85336-5.71975,0-2.38498-.28815-4.33331-.86223-5.8472-.5763-1.51278-1.40528-2.62991-2.48916-3.35028s-2.38055-1.08056-3.89444-1.08056-2.81721.36351-3.91217,1.08942c-1.09718.72702-1.94168,1.84637-2.53349,3.35915-.59403,1.51389-.88883,3.45667-.88883,5.82947,0,2.33622.2948,4.24576.88883,5.72862.59181,1.48286,1.43631,2.57561,2.53349,3.27714,1.09496.70264,2.39828,1.05285,3.91217,1.05285Z" style="fill:#fff;"/><path d="M320.68587,51.88505c-2.3606,0-4.26017-.38789-5.70091-1.16257s-2.49138-1.90621-3.14969-3.39572c-.66053-1.4884-.99079-3.30484-.99079-5.44712v-16.61398h4.01413v17.10384c0,2.08243.5098,3.62956,1.53384,4.6403,1.02182,1.01074,2.4537,1.5161,4.29341,1.5161,1.22352,0,2.28081-.22165,3.16963-.66274.88883-.4422,1.57152-1.12045,2.04364-2.03366.47212-.91432.70707-2.06691.70707-3.46v-17.10384h3.94099v16.92319c0,2.04585-.33913,3.79137-1.01739,5.23765-.67826,1.44739-1.73997,2.55122-3.18737,3.31371-1.44518.76359-3.33144,1.14484-5.65658,1.14484Z" style="fill:#fff;"/><path d="M337.4273,51.52154v-26.25588h10.42433c1.94833,0,3.56418.29923,4.84755.8988,1.28337.59846,2.23869,1.44961,2.86819,2.55122s.94424,2.40272.94424,3.90331c0,1.41636-.23938,2.59666-.71594,3.5409-.47877.94424-1.09718,1.71338-1.85302,2.3063s-1.55157,1.0595-2.3872,1.39752l5.08471,11.65783h-4.08728l-4.66579-10.98511h-6.57422v10.98511h-3.88557ZM341.31288,37.3945h5.48369c1.82864,0,3.245-.39565,4.24908-1.18917,1.0063-.79241,1.50724-1.92727,1.50724-3.40459,0-1.45293-.4566-2.55344-1.36981-3.30484-.91543-.75029-2.15225-1.126-3.71268-1.126h-6.15751v9.02459Z" style="fill:#fff;"/><path d="M372.63463,51.52154v-26.25588h9.09885c1.87518,0,3.55531.32029,5.03817.96197s2.65097,1.58593,3.50433,2.83272,1.27894,2.77842,1.27894,4.59375c0,1.7433-.39011,3.22948-1.17033,4.45744-.78022,1.22906-1.87075,2.16998-3.26716,2.82386-1.39863.65388-3.01891.98081-4.85863.98081h-5.66544v9.60532h-3.95872ZM376.57561,38.71998h5.57457c1.67126,0,3.03221-.48099,4.08506-1.44296,1.05285-.96308,1.58038-2.24313,1.58038-3.84013,0-1.6225-.54527-2.86597-1.63358-3.73152-1.09053-.86555-2.48251-1.29889-4.17815-1.29889h-5.42828v10.3135Z" style="fill:#fff;"/><path d="M396.82138,51.52154v-26.25588h3.88557v11.00284h13.43659v-11.00284h3.88557v26.25588h-3.88557v-11.87505h-13.43659v11.87505h-3.88557Z" style="fill:#fff;"/><path d="M431.66519,51.52154v-11.14913l-9.00575-15.10674h4.24908l6.7183,11.67556,6.62742-11.67556h4.24908l-8.95256,15.12558v11.13029h-3.88557Z" style="fill:#fff;"/><path d="M458.28569,51.88505c-1.28337,0-2.51576-.15737-3.69495-.47212-1.18141-.31475-2.25199-.78354-3.21397-1.4075-.96419-.62284-1.75549-1.40085-2.38055-2.3329-.62284-.93205-1.01295-2.02147-1.17033-3.26938h4.0496c.20614.94424.61398,1.73776,1.22574,2.37944s1.37868,1.126,2.30519,1.45183c.92651.32694,1.95276.49096,3.07876.49096,1.03955,0,2.00374-.16402,2.88592-.49096.88439-.32583,1.59812-.79795,2.14338-1.41525.54527-.61841.8179-1.37425.8179-2.26972,0-1.0052-.33691-1.80093-1.00852-2.38831s-1.68013-1.05618-3.02334-1.4075l-5.26647-1.30664c-1.27007-.30256-2.38942-.73589-3.35804-1.29889s-1.72003-1.30664-2.25199-2.23315-.79795-2.07245-.79795-3.44116c0-1.52497.41892-2.85378,1.2612-3.98532.84006-1.13154,1.98379-2.00707,3.43118-2.62437s3.08319-.9254,4.91183-.9254c2.09462,0,3.85897.35686,5.29307,1.07058,1.43409.71483,2.52462,1.65575,3.26938,2.82386.74254,1.16811,1.12156,2.44261,1.13486,3.8224h-3.95872c-.10861-1.126-.43887-2.01815-.99079-2.67867-.5497-.65942-1.24569-1.13486-2.08797-1.42523-.84006-.29037-1.77101-.43555-2.78618-.43555-1.79317,0-3.1386.39676-4.04073,1.18917-.90213.79352-1.35208,1.73443-1.35208,2.82386,0,1.0052.32805,1.7976.98857,2.37833s1.63801,1.02958,2.93247,1.34432l5.08471,1.25234c1.59812.35132,2.87705.87442,3.84124,1.57041.96197.6971,1.65353,1.51389,2.0791,2.45148.42336.9387.63393,1.96384.63393,3.07765,0,1.48951-.41671,2.81167-1.25234,3.96758s-2.00152,2.0647-3.49546,2.72411c-1.49616.65942-3.24056.98968-5.23765.98968Z" style="fill:#fff;"/><path d="M474.59046,51.52154v-26.25588h3.88557v26.25588h-3.88557Z" style="fill:#fff;"/><path d="M495.96001,51.88505c-2.37168,0-4.40646-.54748-6.09988-1.64356-1.69564-1.09496-2.99453-2.65762-3.89444-4.68463-.90213-2.02812-1.3543-4.45744-1.3543-7.29016,0-2.82053.44774-5.22657,1.34542-7.21812.89549-1.99155,2.18994-3.5132,3.88559-4.56716,1.69343-1.05285,3.73263-1.57928,6.11762-1.57928,1.88848,0,3.56639.38789,5.03152,1.16257,1.46291.77468,2.6421,1.81534,3.53093,3.12309.88883,1.30664,1.41858,2.75404,1.58925,4.33885h-4.14047c-.18176-.9919-.52975-1.8907-1.04398-2.69641-.51423-.8046-1.19471-1.43963-2.04364-1.90621-.84671-.46547-1.8508-.69931-3.01448-.69931-1.48729,0-2.75293.35132-3.7947,1.05396-1.03955.70153-1.83085,1.7976-2.36947,3.286-.53862,1.48951-.80682,3.40791-.80682,5.75632,0,3.54644.59846,6.13978,1.7976,7.78001,1.19692,1.64134,2.9236,2.46035,5.17338,2.46035,1.16368,0,2.16776-.25047,3.01448-.75362.84893-.50204,1.5294-1.17365,2.04364-2.01482s.86223-1.75881,1.04398-2.75071h4.14047c-.14629,1.14927-.44774,2.25421-.90878,3.31371-.45882,1.0595-1.09718,2.00596-1.91508,2.84159s-1.83085,1.49172-3.04108,1.97049c-1.21022.47766-2.63988.71705-4.28676.71705Z" style="fill:#fff;"/><path d="M510.26991,51.52154l9.47787-26.25588h4.28455l9.46014,26.25588h-3.92104l-2.46921-6.88232h-10.40438l-2.48916,6.88232h-3.93877ZM517.65981,41.11715h8.42502l-4.21362-12.07453-4.2114,12.07453Z" style="fill:#fff;"/><path d="M539.08477,51.52154l.01995-26.25588h3.93877v22.84243h12.12884v3.41345h-16.08756Z" style="fill:#fff;"/><path d="M574.83736,51.52154l-7.60712-26.25588h3.88557l5.55683,19.93656,5.62776-19.93656h2.97901l5.62776,19.93656,5.62998-19.93656h3.86562l-7.68027,26.25588h-3.41345l-5.53689-19.48328-5.61225,19.48328h-3.32257Z" style="fill:#fff;"/><path d="M615.61925,51.88505c-2.38498,0-4.44635-.52975-6.1819-1.58925-1.73776-1.0595-3.07654-2.59001-4.01413-4.59375s-1.4075-4.42197-1.4075-7.25359c0-2.8571.47655-5.29307,1.42523-7.309.95089-2.01593,2.29411-3.55864,4.03186-4.63033s3.78583-1.60698,6.14643-1.60698c2.34952,0,4.38429.53529,6.11097,1.60698,1.72446,1.07169,3.05659,2.61439,3.99418,4.63033s1.4075,4.4519,1.4075,7.309c0,2.83161-.46547,5.24652-1.39863,7.24472-.93316,1.99709-2.26086,3.52871-3.98532,4.59375s-3.7681,1.59812-6.1287,1.59812ZM615.61925,48.56136c1.52497,0,2.83051-.35021,3.91217-1.05285,1.08388-.70153,1.91065-1.7976,2.48029-3.286.56743-1.48951.85336-3.39572.85336-5.71975,0-2.38498-.28815-4.33331-.86223-5.8472-.5763-1.51278-1.40528-2.62991-2.48916-3.35028s-2.38055-1.08056-3.89444-1.08056-2.81721.36351-3.91217,1.08942c-1.09718.72702-1.94168,1.84637-2.53349,3.35915-.59403,1.51389-.88883,3.45667-.88883,5.82947,0,2.33622.2948,4.24576.88883,5.72862.59181,1.48286,1.43631,2.57561,2.53349,3.27714,1.09496.70264,2.39828,1.05285,3.91217,1.05285Z" style="fill:#fff;"/><path d="M633.25173,51.52154v-26.25588h10.42211c1.94833,0,3.56418.29923,4.84755.8988,1.28337.59846,2.24091,1.44961,2.8704,2.55122s.94424,2.40272.94424,3.90331c0,1.41636-.23938,2.59666-.71815,3.5409s-1.09496,1.71338-1.8508,2.3063c-.75805.59292-1.55379,1.0595-2.38942,1.39752l5.08471,11.65783h-4.08506l-4.66801-10.98511h-6.572v10.98511h-3.88557ZM637.1373,37.3945h5.48369c1.82864,0,3.245-.39565,4.24908-1.18917,1.00409-.79241,1.50724-1.92727,1.50724-3.40459,0-1.45293-.4566-2.55344-1.37203-3.30484-.91321-.75029-2.15003-1.126-3.71268-1.126h-6.1553v9.02459Z" style="fill:#fff;"/><path d="M658.90803,51.52154l.01773-26.25588h3.94099v22.84243h12.12884v3.41345h-16.08756Z" style="fill:#fff;"/><path d="M680.78738,51.52154v-26.25588c.09753,0,.38568.00332.86445.00887.47655.00665,1.05507.00665,1.73332,0,.67826-.00554,1.36981-.00554,2.0791,0,.70707.00665,1.341.01552,1.89735.02771,3.20732.05985,5.81617.59846,7.82656,1.61585,2.00817,1.01628,3.48216,2.47586,4.41976,4.37543.93981,1.90067,1.4075,4.21916,1.4075,6.95436,0,2.84491-.50094,5.2565-1.50724,7.23585-1.00409,1.97936-2.53792,3.48106-4.60151,4.50398-2.0658,1.02293-4.67687,1.53384-7.83543,1.53384h-6.28386ZM684.7461,48.25327h2.3606c1.98601,0,3.71268-.32361,5.18446-.97195,1.47177-.64723,2.61107-1.70008,3.42232-3.15855.81125-1.45958,1.21687-3.41124,1.21687-5.85607,0-2.39717-.38789-4.30671-1.16146-5.72862-.77578-1.42301-1.88626-2.44594-3.33144-3.06878-1.44739-.62395-3.18737-.93537-5.22214-.93537h-2.46921v19.71934Z" style="fill:#fff;"/></g><g id="grey_box_1"><rect x="97.34086" y="149.31986" width="787.46927" height="668.48124" rx="6.35188" ry="6.35188" style="fill:#f7f6f3; filter:url(#drop-shadow-104); stroke:#000; stroke-miterlimit:10; stroke-width:2.5px;"/></g><g id="grey_box_2"><rect x="83.57298" y="135.55197" width="787.46927" height="668.48124" rx="6.35188" ry="6.35188" style="fill:#f7f6f3; filter:url(#drop-shadow-116); stroke:#000; stroke-miterlimit:10; stroke-width:2.5px;"/></g><g id="grey_box_3"><rect x="69.80509" y="121.78409" width="787.46927" height="668.48124" rx="6.35188" ry="6.35188" style="fill:#f7f6f3; filter:url(#drop-shadow-128); stroke:#000; stroke-miterlimit:10; stroke-width:2.5px;"/></g><g id="white_box_-_computer"><rect x="445.43379" y="222.57207" width="368.0157" height="526.86078" rx="9.10089" ry="9.10089" style="fill:#fff; filter:url(#outer-glow-137); stroke:#00ef83; stroke-miterlimit:10; stroke-width:3px;"/></g><g id="Layer_133"><rect x="109.75068" y="633.15466" width="268.59099" height="77.36512" rx="6.99394" ry="6.99394" style="fill:#fff; filter:url(#outer-glow-139); stroke:#00ef83; stroke-miterlimit:10; stroke-width:3px;"/><rect x="109.75068" y="245.9402" width="268.59099" height="77.36512" rx="6.99394" ry="6.99394" style="fill:#fff; filter:url(#outer-glow-140); stroke:#00ef83; stroke-miterlimit:10; stroke-width:3px;"/><rect x="109.75068" y="342.74381" width="268.59099" height="77.36512" rx="6.99394" ry="6.99394" style="fill:#fff; filter:url(#outer-glow-141); stroke:#00ef83; stroke-miterlimit:10; stroke-width:3px;"/><rect x="109.75068" y="439.54743" width="268.59099" height="77.36512" rx="6.99394" ry="6.99394" style="fill:#fff; filter:url(#outer-glow-142); stroke:#00ef83; stroke-miterlimit:10; stroke-width:3px;"/><rect x="109.75068" y="536.35105" width="268.59099" height="77.36512" rx="6.99394" ry="6.99394" style="fill:#fff; filter:url(#outer-glow-143); stroke:#00ef83; stroke-miterlimit:10; stroke-width:3px;"/></g><g id="computer"><path d="M493.65371,291.65238c-2.6687,0-4.95726-.61619-6.86348-1.84858s-3.36691-2.9901-4.38097-5.2709c-1.01517-2.28081-1.52275-5.01489-1.52275-8.20115,0-3.17296.50426-5.88045,1.51167-8.12025,1.00852-2.2398,2.46478-3.95318,4.3721-5.13791,1.90621-1.18473,4.20032-1.77655,6.88343-1.77655,2.12454,0,4.01081.43555,5.65879,1.30664,1.64799.8722,2.97236,2.04364,3.97313,3.5143s1.59701,3.0976,1.78763,4.8819h-4.65803c-.20392-1.11713-.59514-2.12787-1.17365-3.03332-.57962-.90545-1.34543-1.62028-2.29854-2.1456-.95311-.52421-2.08354-.78576-3.39129-.78576-1.67459,0-3.0976.39454-4.26903,1.18473s-2.06026,2.02258-2.66537,3.69717c-.60622,1.67459-.90988,3.83348-.90988,6.47559,0,3.99086.67493,6.90781,2.02258,8.75307,1.34876,1.84526,3.28933,2.76844,5.82171,2.76844,1.30775,0,2.43818-.28261,3.39129-.84782s1.71892-1.32105,2.29854-2.26751c.57851-.94646.96973-1.97825,1.17365-3.09538h4.65803c-.16402,1.29445-.50426,2.53682-1.02182,3.7282s-1.23571,2.25753-2.15446,3.19734c-.91986.93981-2.06026,1.67791-3.42232,2.21653-1.36206.53751-2.96904.80682-4.82095.80682Z" style="fill:#252525;"/><path d="M522.39432,291.65238c-2.68311,0-5.00159-.59625-6.95546-1.78763s-3.45889-2.91473-4.51396-5.16783c-1.05618-2.25421-1.58371-4.975-1.58371-8.16125,0-3.21397.53418-5.9547,1.60366-8.22221,1.06947-2.26751,2.58115-4.00416,4.53502-5.20884,1.95387-1.20579,4.25906-1.80758,6.91446-1.80758,2.6421,0,4.93399.60179,6.87456,1.80758,1.94057,1.20468,3.43783,2.94133,4.49401,5.20884,1.05507,2.26751,1.5826,5.00824,1.5826,8.22221,0,3.18626-.52421,5.90372-1.57263,8.15017-1.04842,2.24756-2.54347,3.9698-4.48404,5.16894-1.94057,1.19803-4.238,1.7976-6.89451,1.7976ZM522.39432,287.91421c1.7167,0,3.18404-.39565,4.40313-1.18473,1.21798-.79019,2.14782-2.02258,2.78728-3.69828.64058-1.67459.96086-3.81908.96086-6.43458,0-2.682-.32361-4.87525-.97084-6.57755s-1.57928-2.95796-2.79837-3.76921c-1.21909-.80903-2.67978-1.21466-4.38208-1.21466s-3.16963.40784-4.40202,1.22574c-1.23239.81679-2.18217,2.07689-2.84935,3.77918s-1.00076,3.88779-1.00076,6.55649c0,2.6288.33359,4.77662,1.00076,6.44566.66717,1.66794,1.61696,2.897,2.84935,3.68719,1.23239.78908,2.69973,1.18473,4.40202,1.18473Z" style="fill:#252525;"/><path d="M541.2082,291.24343v-29.53856h6.1697l8.31309,23.49187,8.43721-23.49187h6.12759v29.53856h-4.47295v-23.51182l-8.17123,23.51182h-3.82019l-8.13022-23.32784v23.32784h-4.453Z" style="fill:#252525;"/><path d="M577.73325,291.24343v-29.53856h10.23371c2.11124,0,4.00083.36129,5.66877,1.08277,1.66794.72259,2.98234,1.7843,3.9432,3.18737.95976,1.40195,1.43963,3.1253,1.43963,5.16783,0,1.96052-.43887,3.63289-1.31773,5.01489-.87774,1.382-2.10348,2.44151-3.67611,3.17628-1.57373.73589-3.39461,1.10272-5.46485,1.10272h-6.37363v10.80668h-4.453ZM582.16631,276.84154h6.27056c1.87962,0,3.41234-.54083,4.59708-1.62361s1.77655-2.52241,1.77655-4.32001c0-1.82531-.61287-3.22394-1.83861-4.1981-1.22574-.97306-2.79172-1.46069-4.69793-1.46069h-6.10764v11.60241Z" style="fill:#252525;"/><path d="M614.99197,291.65238c-2.6554,0-4.79324-.43555-6.41352-1.30775-1.62139-.8711-2.8028-2.14449-3.54423-3.82019-.74254-1.67459-1.11381-3.71712-1.11381-6.12759v-18.69198h4.51507v19.24278c0,2.34287.57519,4.08284,1.72557,5.21992s2.76069,1.70562,4.83092,1.70562c1.37536,0,2.56341-.24825,3.56528-.74586,1.00076-.4965,1.76657-1.25899,2.29743-2.28746s.79684-2.32625.79684-3.89222v-19.24278h4.43306v19.03886c0,2.30186-.38124,4.26571-1.14373,5.89375-.76359,1.62693-1.9583,2.86929-3.58523,3.72709-1.62804.8589-3.74926,1.2878-6.36365,1.2878Z" style="fill:#252525;"/><path d="M639.32169,291.24343v-25.55435h-9.35596v-3.98421h22.69503v3.98421h-8.92706v25.55435h-4.412Z" style="fill:#252525;"/><path d="M657.29662,291.24343v-29.53856h19.07987l-.02106,3.80024h-14.66676v8.96696h13.09414v3.75923h-13.11409v9.15093l15.05466.02106v3.84013h-19.42676Z" style="fill:#252525;"/><path d="M682.80996,291.24343v-29.53856h11.72543c2.19215,0,4.01081.33691,5.45377,1.01184,1.44407.67382,2.52019,1.63026,3.22837,2.86929.70707,1.24015,1.06172,2.70416,1.06172,4.39205,0,1.59368-.26931,2.92138-.80682,3.98421-.53862,1.06172-1.23239,1.92616-2.08354,2.59334-.85115.66828-1.74662,1.19249-2.68643,1.57373l5.71975,13.11409h-4.59597l-5.24985-12.35825h-7.39434v12.35825h-4.3721ZM687.18206,275.35093h6.1686c2.05583,0,3.64951-.44552,4.77994-1.33767s1.69564-2.16887,1.69564-3.83016c0-1.63469-.51423-2.87373-1.5427-3.71823s-2.42045-1.26675-4.17705-1.26675h-6.92443v10.1528Z" style="fill:#252525;"/></g><g id="device"><path d="M116.93822,187.82912v-29.53856c.10861,0,.43222.00332.97084.01108.5364.00665,1.18806.00665,1.95054,0,.76249-.00776,1.54049-.00776,2.33844,0,.79573.00665,1.50724.01662,2.13452.02992,3.60851.06871,6.54319.67382,8.80405,1.81866,2.26086,1.14373,3.91882,2.78507,4.97389,4.92291s1.5826,4.74559,1.5826,7.82323c0,3.20067-.56521,5.9137-1.69564,8.1402s-2.85489,3.9155-5.17781,5.06587c-2.3207,1.15149-5.25982,1.72668-8.81291,1.72668h-7.06851ZM121.39122,184.1519h2.6554c2.23426,0,4.17815-.36351,5.83168-1.09275,1.65575-.72813,2.93912-1.91286,3.85011-3.5542.91321-1.64134,1.36981-3.83681,1.36981-6.58752,0-2.69641-.43666-4.84533-1.30775-6.44566-.8711-1.59922-2.12122-2.75071-3.74815-3.45224-1.62693-.70042-3.58634-1.05174-5.8738-1.05174h-2.77731v22.18412Z" style="fill:#252525;"/><path d="M145.55581,187.82912v-29.53856h19.07987l-.01995,3.80024h-14.66676v8.96696h13.09303v3.75923h-13.11298v9.15093l15.05466.02106v3.84013h-19.42786Z" style="fill:#252525;"/><path d="M178.66851,187.82912l-10.43763-29.53856h4.26903l8.74198,24.53364,8.72425-24.53364h4.28898l-10.43763,29.53856h-5.14899Z" style="fill:#252525;"/><path d="M198.89211,187.82912v-29.53856h4.37099v29.53856h-4.37099Z" style="fill:#252525;"/><path d="M221.91297,188.23807c-2.6687,0-4.95616-.61619-6.86237-1.84858s-3.36691-2.9901-4.38208-5.2709-1.52275-5.01489-1.52275-8.20115c0-3.17296.50537-5.88045,1.51167-8.12025,1.00852-2.2398,2.46478-3.95318,4.37321-5.13791,1.90621-1.18473,4.20032-1.77655,6.88232-1.77655,2.12565,0,4.01191.43555,5.65879,1.30664,1.6491.8722,2.97236,2.04364,3.97423,3.5143.99965,1.47067,1.5959,3.0976,1.78652,4.8819h-4.65692c-.20392-1.11713-.59625-2.12787-1.17476-3.03332s-1.34543-1.62028-2.29854-2.1456c-.95311-.52421-2.08354-.78576-3.39129-.78576-1.67348,0-3.09649.39454-4.26903,1.18473-1.17033.79019-2.05915,2.02258-2.66427,3.69717-.60733,1.67459-.91099,3.83348-.91099,6.47559,0,3.99086.67604,6.90781,2.02369,8.75307s3.28933,2.76844,5.8206,2.76844c1.30775,0,2.43818-.28261,3.39129-.84782s1.72003-1.32105,2.29854-2.26751.97084-1.97825,1.17476-3.09538h4.65692c-.16402,1.29445-.50315,2.53682-1.02182,3.7282-.51645,1.19138-1.23461,2.25753-2.15446,3.19734s-2.05915,1.67791-3.42232,2.21653c-1.36095.53751-2.96793.80682-4.82095.80682Z" style="fill:#252525;"/><path d="M239.19523,187.82912v-29.53856h19.07987l-.02217,3.80024h-14.66676v8.96696h13.09525v3.75923h-13.11519v9.15093l15.05466.02106v3.84013h-19.42565Z" style="fill:#252525;"/></g><g id="local_data_storage"><path d="M555.78076,358.78546l.0133-19.69163h2.95463v17.13154h9.09774v2.56009h-12.06567Z"/><path d="M580.51056,359.05809c-1.78874,0-3.33366-.39787-4.63698-1.19138-1.30221-.79463-2.3063-1.94279-3.00894-3.44559-.70375-1.50281-1.05618-3.31593-1.05618-5.44047,0-2.14338.35686-3.9698,1.06947-5.48147s1.72003-2.66981,3.02334-3.4733c1.30221-.80349,2.83937-1.20468,4.60927-1.20468,1.76103,0,3.28933.40119,4.58267,1.20468,1.29445.80349,2.293,1.96163,2.99675,3.4733.70264,1.51167,1.05507,3.33809,1.05507,5.48147,0,2.12454-.35021,3.93544-1.04842,5.43382-.69931,1.49726-1.69564,2.64653-2.9901,3.44448-1.29334.79906-2.82496,1.19914-4.59597,1.19914ZM580.51056,356.56561c1.14373,0,2.12233-.26266,2.93468-.79019.81236-.52643,1.43188-1.34765,1.85967-2.46478.42668-1.11602.63947-2.54679.63947-4.28898,0-1.78874-.21611-3.25054-.64612-4.3854-.43222-1.13486-1.05396-1.97271-1.86632-2.51243-.81236-.54083-1.78652-.81125-2.92138-.81125s-2.11235.27263-2.93468.8179c-.82122.54416-1.45515,1.38422-1.89956,2.51908s-.66717,2.59223-.66717,4.3721c0,1.75217.22276,3.18404.66717,4.29563.44441,1.1127,1.07834,1.9317,1.89956,2.45813.82233.52753,1.79982.79019,2.93468.79019Z"/><path d="M601.86459,359.05809c-1.77876,0-3.30484-.41117-4.57602-1.23239-1.27118-.82233-2.24423-1.99266-2.92028-3.5143-.67715-1.52054-1.01517-3.34252-1.01517-5.46707,0-2.11568.3358-3.91993,1.00852-5.41387.67161-1.49283,1.64245-2.63434,2.91363-3.42454s2.80058-1.18473,4.58932-1.18473c1.41636,0,2.67424.29037,3.77253.8711,1.09829.58184,1.98158,1.36206,2.64875,2.34287.66717.97971,1.06393,2.0658,1.19138,3.25497h-3.10425c-.13632-.74475-.39787-1.41858-.78354-2.02258s-.89659-1.08056-1.53162-1.42966c-.63614-.35021-1.38976-.52532-2.26086-.52532-1.11713,0-2.0658.26377-2.84602.79019-.78133.52643-1.37425,1.34876-1.77767,2.46478-.4045,1.11713-.6062,2.55566-.6062,4.3178,0,2.65983.44996,4.60484,1.34876,5.83501s2.19215,1.84526,3.88114,1.84526c.8711,0,1.62471-.1884,2.26086-.56521.63504-.37681,1.14594-.87996,1.53162-1.51167.38568-.6306.64723-1.31883.78354-2.06248h3.10425c-.10861.86223-.3358,1.6901-.68047,2.48473-.34578.79463-.82455,1.50502-1.43742,2.13119s-1.37314,1.11935-2.28081,1.47732c-.90767.35908-1.97936.53862-3.21397.53862Z"/><path d="M613.27749,358.78546l7.1084-19.69163h3.21397l7.0951,19.69163h-2.94133l-1.85191-5.16118h-7.80329l-1.86632,5.16118h-2.95463ZM618.81992,350.98217h6.31821l-3.15855-9.05673-3.15966,9.05673Z"/><path d="M635.57022,358.78546l.0133-19.69163h2.95463v17.13154h9.09774v2.56009h-12.06567Z"/><path d="M660.50504,358.78546v-19.69163c.07204,0,.28815.00222.64612.00665.35908.00443.79241.00443,1.3011,0s1.02847-.00443,1.55933,0,1.0052.01108,1.42301.01995c2.40604.04544,4.36213.44996,5.86937,1.21244s2.61218,1.85634,3.31593,3.28157,1.05618,3.16409,1.05618,5.21549c0,2.13452-.37681,3.9432-1.13043,5.42717-.75362,1.48507-1.90511,2.61107-3.45224,3.37799-1.54824.76692-3.50765,1.15038-5.87712,1.15038h-4.71123ZM663.47297,356.33398h1.77101c1.4884,0,2.78507-.24271,3.88779-.72813s1.95941-1.27561,2.56674-2.36947c.60844-1.09386.91321-2.55787.91321-4.39205,0-1.7976-.29147-3.22948-.8722-4.29674s-1.41414-1.83418-2.49913-2.30186-2.38942-.70153-3.91439-.70153h-1.85302v14.78978Z"/><path d="M679.47519,358.78546l7.1084-19.69163h3.21397l7.0951,19.69163h-2.94133l-1.85191-5.16118h-7.80329l-1.86632,5.16118h-2.95463ZM685.01762,350.98217h6.31821l-3.15855-9.05673-3.15966,9.05673Z"/><path d="M706.11231,358.78546v-17.03623h-6.23731v-2.6554h15.13002v2.6554h-5.95138v17.03623h-2.94133Z"/><path d="M717.98736,358.78546l7.1084-19.69163h3.21397l7.0951,19.69163h-2.94133l-1.85191-5.16118h-7.80329l-1.86632,5.16118h-2.95463ZM723.52979,350.98217h6.31821l-3.15855-9.05673-3.15966,9.05673Z"/><path d="M562.64424,395.37368c-.96308,0-1.88626-.11858-2.77177-.35464-.88439-.23606-1.68789-.58738-2.41047-1.05507-.72148-.46769-1.31662-1.05063-1.7832-1.74995-.46769-.69931-.76138-1.5161-.87885-2.45148h3.03664c.15405.70818.46104,1.30332.91986,1.7843.45771.48099,1.03512.8445,1.72889,1.08942.69488.24493,1.46402.36794,2.30851.36794.78022,0,1.50281-.12302,2.16555-.36794s1.19803-.59957,1.60698-1.06282c.40784-.46215.61287-1.02958.61287-1.70229,0-.75251-.25268-1.34987-.75584-1.78985-.50426-.44109-1.2601-.79241-2.26751-1.05618l-3.94985-.98081c-.95311-.22609-1.79317-.55081-2.51908-.97306s-1.28891-.98081-1.68899-1.67569c-.39897-.69377-.59846-1.55379-.59846-2.58004,0-1.14373.31475-2.14006.94646-2.98899.6306-.84893,1.4884-1.50502,2.57339-1.96828s2.31295-.69488,3.68387-.69488c1.57041,0,2.89368.2682,3.9698.80349,1.07612.5364,1.89291,1.24236,2.45148,2.11789.55856.87664.84228,1.83196.85115,2.86708h-2.96904c-.08201-.8445-.32915-1.51389-.74254-2.00928-.41338-.49429-.93537-.85115-1.56598-1.06837-.6306-.21833-1.3277-.32694-2.09019-.32694-1.34432,0-2.35395.29701-3.02999.89215-.67604.59403-1.01517,1.29999-1.01517,2.11678,0,.75362.24825,1.34876.74254,1.7843.49539.43555,1.22796.77246,2.1999,1.00741l3.81243.93981c1.19914.26377,2.1589.65609,2.88038,1.17808s1.24126,1.13486,1.55933,1.83861.47655,1.47288.47655,2.30851c0,1.11713-.31253,2.10903-.93981,2.97569-.62617.86666-1.49948,1.54824-2.62104,2.04253s-2.43042.74254-3.9288.74254Z"/><path d="M579.8988,395.10105v-17.03623h-6.23731v-2.6554h15.13002v2.6554h-5.95138v17.03623h-2.94133Z"/><path d="M600.88377,395.37368c-1.78874,0-3.33366-.39787-4.63698-1.19138-1.30221-.79463-2.3063-1.94279-3.00894-3.44559-.70375-1.50281-1.05618-3.31593-1.05618-5.44047,0-2.14338.35686-3.9698,1.06947-5.48147s1.72003-2.66981,3.02334-3.4733c1.30221-.80349,2.83937-1.20468,4.60927-1.20468,1.76103,0,3.28933.40119,4.58267,1.20468,1.29445.80349,2.293,1.96163,2.99675,3.4733.70264,1.51167,1.05507,3.33809,1.05507,5.48147,0,2.12454-.35021,3.93544-1.04842,5.43382-.69931,1.49726-1.69564,2.64653-2.9901,3.44448-1.29334.79906-2.82496,1.19914-4.59597,1.19914ZM600.88377,392.8812c1.14373,0,2.12233-.26266,2.93468-.79019.81236-.52643,1.43188-1.34765,1.85967-2.46478.42668-1.11602.63947-2.54679.63947-4.28898,0-1.78874-.21611-3.25054-.64612-4.3854-.43222-1.13486-1.05396-1.97271-1.86632-2.51243-.81236-.54083-1.78652-.81125-2.92138-.81125s-2.11235.27263-2.93468.8179c-.82122.54416-1.45515,1.38422-1.89956,2.51908s-.66717,2.59223-.66717,4.3721c0,1.75217.22276,3.18404.66717,4.29563.44441,1.1127,1.07834,1.9317,1.89956,2.45813.82233.52753,1.79982.79019,2.93468.79019Z"/><path d="M614.78805,395.10105v-19.69163h7.81658c1.4618,0,2.67313.22387,3.63621.67382.96197.44885,1.67902,1.08721,2.15114,1.91286.47212.82676.70818,1.80315.70818,2.92803,0,1.06282-.17843,1.94722-.53751,2.6554s-.82122,1.28559-1.38865,1.73-1.16479.79463-1.79095,1.04842l3.81243,8.74309h-3.06324l-3.4999-8.23883h-4.93067v8.23883h-2.91363ZM617.70168,384.50605h4.11277c1.37092,0,2.43375-.29701,3.18737-.89215.75362-.59403,1.13043-1.44518,1.13043-2.55344,0-1.08942-.34356-1.91508-1.02847-2.47808-.68602-.563-1.61363-.8445-2.78507-.8445h-4.61703v6.76817Z"/><path d="M633.24064,395.10105l7.1084-19.69163h3.21397l7.0951,19.69163h-2.94133l-1.85191-5.16118h-7.80329l-1.86632,5.16118h-2.95463ZM638.78307,387.29776h6.31821l-3.15855-9.05673-3.15966,9.05673Z"/><path d="M662.96982,395.37368c-1.75217,0-3.26384-.40008-4.53502-1.19914-1.27118-.79795-2.24978-1.94944-2.93468-3.45224-.68602-1.5017-1.02847-3.30595-1.02847-5.41276,0-2.12454.35243-3.94653,1.05618-5.46817.70264-1.52054,1.7034-2.68421,3.00229-3.49325,1.29778-.80792,2.82386-1.21133,4.57602-1.21133,1.04398,0,2.01261.17732,2.90698.53086.89437.35464,1.68456.83563,2.36947,1.44407.68602.60733,1.22796,1.29778,1.62804,2.06913.39897.77246.62617,1.58038.68047,2.42488h-3.10425c-.12745-.69931-.39787-1.34654-.81125-1.94057-.41227-.59514-.93759-1.07391-1.57263-1.43742-.63504-.3624-1.35319-.54416-2.15114-.54416-1.06282,0-2.00263.26266-2.81942.78908-.81679.52753-1.45515,1.34876-1.91286,2.46478-.45882,1.11713-.68823,2.55233-.68823,4.30339,0,1.37203.14297,2.53792.4289,3.50101.28593.96197.67826,1.73776,1.17808,2.32846.49872.5896,1.08499,1.01849,1.7566,1.28669s1.38976.40119,2.15225.40119c.75362,0,1.41636-.13078,1.98823-.39454.57186-.26266,1.05063-.604,1.43631-1.02071.38568-.41782.68602-.86999.8988-1.35541.21389-.48542.33359-.95532.36129-1.40971l.10861-1.59368h-4.60262v-2.09684l7.63926.02771v10.18605h-2.11013v-2.88703c-.34578.53529-.77689,1.04398-1.29445,1.52497-.51756.48209-1.15259.87442-1.90621,1.17808s-1.65242.4566-2.69641.4566Z"/><path d="M677.05031,395.10105v-19.69163h12.71954l-.01441,2.53238h-9.7771v5.97908h8.72869v2.50578h-8.74309v6.10099l10.03755.0133v2.56009h-12.95117Z"/></g><g id="ai_inference_on_local_gpu_and_cpu"><path d="M554.30899,466.87443l7.1084-19.69163h3.21397l7.0951,19.69163h-2.94133l-1.85191-5.16118h-7.80329l-1.86632,5.16118h-2.95463ZM559.85142,459.07114h6.31821l-3.15855-9.05673-3.15966,9.05673Z"/><path d="M576.60171,466.87443v-19.69163h2.91363v19.69163h-2.91363Z"/><path d="M593.70666,466.87443v-19.69163h2.91363v19.69163h-2.91363Z"/><path d="M602.9662,466.87443v-19.69163h2.81831l10.02314,14.68006v-14.68006h2.92802v19.69163h-2.61438l-10.24147-14.9804v14.9804h-2.91363Z"/><path d="M625.06831,466.87443v-19.69163h12.58323l-.0133,2.50578h-9.602v6.08658h8.53917v2.47919h-8.53917v8.62008h-2.96793Z"/><path d="M642.74512,466.87443v-19.69163h12.71954l-.01441,2.53238h-9.7771v5.97908h8.72869v2.50578h-8.74309v6.10099l10.03755.0133v2.56009h-12.95117Z"/><path d="M661.1168,466.87443v-19.69163h7.81658c1.4618,0,2.67313.22387,3.63621.67382.96197.44885,1.67902,1.08721,2.15114,1.91286.47212.82676.70818,1.80315.70818,2.92803,0,1.06282-.17843,1.94722-.53751,2.6554s-.82122,1.28559-1.38865,1.73-1.16479.79463-1.79095,1.04842l3.81243,8.74309h-3.06324l-3.4999-8.23883h-4.93067v8.23883h-2.91363ZM664.03043,456.27943h4.11277c1.37092,0,2.43375-.29701,3.18737-.89215.75362-.59403,1.13043-1.44518,1.13043-2.55344,0-1.08942-.34356-1.91508-1.02847-2.47808-.68602-.563-1.61363-.8445-2.78507-.8445h-4.61703v6.76817Z"/><path d="M681.04006,466.87443v-19.69163h12.71954l-.01441,2.53238h-9.7771v5.97908h8.72869v2.50578h-8.74309v6.10099l10.03755.0133v2.56009h-12.95117Z"/><path d="M699.41064,466.87443v-19.69163h2.81831l10.02314,14.68006v-14.68006h2.92803v19.69163h-2.61439l-10.24147-14.9804v14.9804h-2.91363Z"/><path d="M728.96139,467.14706c-1.77876,0-3.30484-.41117-4.57602-1.23239-1.27118-.82233-2.24423-1.99266-2.92028-3.5143-.67715-1.52054-1.01517-3.34252-1.01517-5.46707,0-2.11568.3358-3.91993,1.00852-5.41387.67161-1.49283,1.64245-2.63434,2.91363-3.42454s2.80058-1.18473,4.58932-1.18473c1.41636,0,2.67424.29037,3.77253.8711,1.09829.58184,1.98158,1.36206,2.64875,2.34287.66717.97971,1.06393,2.0658,1.19138,3.25497h-3.10425c-.13632-.74475-.39787-1.41858-.78354-2.02258s-.89659-1.08056-1.53162-1.42966c-.63614-.35021-1.38976-.52532-2.26086-.52532-1.11713,0-2.0658.26377-2.84602.79019-.78133.52643-1.37425,1.34876-1.77766,2.46478-.40452,1.11713-.60622,2.55566-.60622,4.3178,0,2.65983.44996,4.60484,1.34876,5.83501s2.19215,1.84526,3.88114,1.84526c.8711,0,1.62471-.1884,2.26086-.56521.63504-.37681,1.14594-.87996,1.53162-1.51167.38568-.6306.64723-1.31883.78354-2.06248h3.10425c-.10861.86223-.3358,1.6901-.68047,2.48473-.34578.79463-.82455,1.50502-1.43742,2.13119s-1.37314,1.11935-2.28081,1.47732c-.90767.35908-1.97936.53862-3.21397.53862Z"/><path d="M741.84496,466.87443v-19.69163h12.71954l-.01441,2.53238h-9.7771v5.97908h8.72869v2.50578h-8.74309v6.10099l10.03755.0133v2.56009h-12.95117Z"/><path d="M563.41892,503.46265c-1.78874,0-3.33366-.39787-4.63698-1.19138-1.30221-.79463-2.3063-1.94279-3.00894-3.44559-.70375-1.50281-1.05618-3.31593-1.05618-5.44047,0-2.14338.35686-3.9698,1.06947-5.48147s1.72003-2.66981,3.02334-3.4733c1.30221-.80349,2.83937-1.20468,4.60927-1.20468,1.76103,0,3.28933.40119,4.58267,1.20468,1.29445.80349,2.293,1.96163,2.99675,3.4733.70264,1.51167,1.05507,3.33809,1.05507,5.48147,0,2.12454-.35021,3.93544-1.04842,5.43382-.69931,1.49726-1.69564,2.64653-2.9901,3.44448-1.29334.79906-2.82496,1.19914-4.59597,1.19914ZM563.41892,500.97016c1.14373,0,2.12233-.26266,2.93468-.79019.81236-.52643,1.43188-1.34765,1.85967-2.46478.42668-1.11602.63947-2.54679.63947-4.28898,0-1.78874-.21611-3.25054-.64612-4.3854-.43222-1.13486-1.05396-1.97271-1.86632-2.51243-.81236-.54083-1.78652-.81125-2.92138-.81125s-2.11235.27263-2.93468.8179c-.82122.54416-1.45515,1.38422-1.89956,2.51908s-.66717,2.59223-.66717,4.3721c0,1.75217.22276,3.18404.66717,4.29563.44441,1.1127,1.07834,1.9317,1.89956,2.45813.82233.52753,1.79982.79019,2.93468.79019Z"/><path d="M577.3243,503.19002v-19.69163h2.81831l10.02314,14.68006v-14.68006h2.92803v19.69163h-2.61439l-10.24147-14.9804v14.9804h-2.91363Z"/><path d="M607.26959,503.19002l.0133-19.69163h2.95463v17.13154h9.09774v2.56009h-12.06567Z"/><path d="M632.0005,503.46265c-1.78874,0-3.33366-.39787-4.63698-1.19138-1.30221-.79463-2.3063-1.94279-3.00894-3.44559-.70375-1.50281-1.05618-3.31593-1.05618-5.44047,0-2.14338.35686-3.9698,1.06947-5.48147s1.72003-2.66981,3.02334-3.4733c1.30221-.80349,2.83937-1.20468,4.60927-1.20468,1.76103,0,3.28933.40119,4.58267,1.20468,1.29445.80349,2.293,1.96163,2.99675,3.4733.70264,1.51167,1.05507,3.33809,1.05507,5.48147,0,2.12454-.35021,3.93544-1.04842,5.43382-.69931,1.49726-1.69564,2.64653-2.9901,3.44448-1.29334.79906-2.82496,1.19914-4.59597,1.19914ZM632.0005,500.97016c1.14373,0,2.12233-.26266,2.93468-.79019.81236-.52643,1.43188-1.34765,1.85967-2.46478.42668-1.11602.63947-2.54679.63947-4.28898,0-1.78874-.21611-3.25054-.64612-4.3854-.43222-1.13486-1.05396-1.97271-1.86632-2.51243-.81236-.54083-1.78652-.81125-2.92138-.81125s-2.11235.27263-2.93468.8179c-.82122.54416-1.45515,1.38422-1.89956,2.51908s-.66717,2.59223-.66717,4.3721c0,1.75217.22276,3.18404.66717,4.29563.44441,1.1127,1.07834,1.9317,1.89956,2.45813.82233.52753,1.79982.79019,2.93468.79019Z"/><path d="M653.35342,503.46265c-1.77876,0-3.30484-.41117-4.57602-1.23239-1.27118-.82233-2.24423-1.99266-2.92028-3.5143-.67715-1.52054-1.01517-3.34252-1.01517-5.46707,0-2.11568.3358-3.91993,1.00852-5.41387.67161-1.49283,1.64245-2.63434,2.91363-3.42454s2.80058-1.18473,4.58932-1.18473c1.41636,0,2.67424.29037,3.77253.8711,1.09829.58184,1.98158,1.36206,2.64875,2.34287.66716.97971,1.06393,2.0658,1.19138,3.25497h-3.10425c-.13632-.74475-.39787-1.41858-.78354-2.02258s-.89659-1.08056-1.53162-1.42966c-.63614-.35021-1.38976-.52532-2.26086-.52532-1.11713,0-2.0658.26377-2.84602.79019-.78133.52643-1.37425,1.34876-1.77766,2.46478-.40452,1.11713-.60622,2.55566-.60622,4.3178,0,2.65983.44996,4.60484,1.34876,5.83501s2.19215,1.84526,3.88114,1.84526c.8711,0,1.62471-.1884,2.26086-.56521.63504-.37681,1.14594-.87996,1.53162-1.51167.38568-.6306.64723-1.31883.78354-2.06248h3.10425c-.10861.86223-.3358,1.6901-.68047,2.48473-.34578.79463-.82455,1.50502-1.43742,2.13119s-1.37314,1.11935-2.28081,1.47732c-.90767.35908-1.97936.53862-3.21397.53862Z"/><path d="M664.76632,503.19002l7.1084-19.69163h3.21397l7.0951,19.69163h-2.94133l-1.85191-5.16118h-7.80329l-1.86632,5.16118h-2.95463ZM670.30874,495.38673h6.31821l-3.15855-9.05673-3.15966,9.05673Z"/><path d="M687.05904,503.19002l.0133-19.69163h2.95463v17.13154h9.09774v2.56009h-12.06567Z"/><path d="M719.42921,503.46265c-1.75217,0-3.26384-.40008-4.53502-1.19914-1.27118-.79795-2.24978-1.94944-2.93468-3.45224-.68602-1.5017-1.02847-3.30595-1.02847-5.41276,0-2.12454.35243-3.94653,1.05618-5.46817.70264-1.52054,1.7034-2.68421,3.00229-3.49325,1.29778-.80792,2.82386-1.21133,4.57602-1.21133,1.04398,0,2.01261.17732,2.90698.53086.89437.35464,1.68456.83563,2.36947,1.44407.68602.60733,1.22796,1.29778,1.62804,2.06913.39897.77246.62617,1.58038.68047,2.42488h-3.10425c-.12745-.69931-.39787-1.34654-.81125-1.94057-.41227-.59514-.93759-1.07391-1.57263-1.43742-.63504-.3624-1.35319-.54416-2.15114-.54416-1.06282,0-2.00263.26266-2.81942.78908-.81679.52753-1.45515,1.34876-1.91286,2.46478-.45882,1.11713-.68823,2.55233-.68823,4.30339,0,1.37203.14297,2.53792.4289,3.50101.28593.96197.67826,1.73776,1.17808,2.32846.49872.5896,1.08499,1.01849,1.7566,1.28669s1.38976.40119,2.15225.40119c.75362,0,1.41636-.13078,1.98823-.39454.57186-.26266,1.05063-.604,1.43631-1.02071.38568-.41782.68602-.86999.8988-1.35541.21389-.48542.33359-.95532.36129-1.40971l.10861-1.59368h-4.60262v-2.09684l7.63926.02771v10.18605h-2.11013v-2.88703c-.34578.53529-.77689,1.04398-1.29445,1.52497-.51756.48209-1.15259.87442-1.90621,1.17808s-1.65242.4566-2.69641.4566Z"/><path d="M733.51081,503.19002v-19.69163h6.82247c1.4075,0,2.66648.24049,3.77918.72148,1.11159.48099,1.98823,1.18917,2.62769,2.12454.64058.93537.96086,2.08354.96086,3.44559,0,1.30664-.29258,2.42156-.87885,3.34252-.58516.92208-1.40195,1.62804-2.45148,2.11789-1.04842.48985-2.26307.73589-3.64286.73589h-4.24908v7.20371h-2.96793ZM736.46544,493.58913h4.18148c1.25234,0,2.27416-.36129,3.06324-1.08277.79019-.72148,1.18473-1.68234,1.18473-2.88038,0-1.21687-.40784-2.14892-1.22463-2.79837-.8179-.64944-1.86188-.97416-3.13306-.97416h-4.07176v7.73568Z"/><path d="M759.71239,503.46265c-1.77101,0-3.19623-.29037-4.27679-.8722-1.08056-.58073-1.86742-1.42966-2.36282-2.54679-.49429-1.11602-.74143-2.47808-.74143-4.08506v-12.46021h3.00894v12.82815c0,1.56154.38346,2.7219,1.15149,3.47884.76692.75916,1.83972,1.13708,3.22061,1.13708.91653,0,1.70894-.16513,2.37612-.4965s1.17808-.84006,1.53162-1.52497c.35464-.68602.53197-1.55046.53197-2.59445v-12.82815h2.95463v12.69184c0,1.53384-.25379,2.8438-.76249,3.9288s-1.30553,1.91397-2.38942,2.48584c-1.08499.57186-2.49913.8578-4.24243.8578Z"/><path d="M554.30899,539.50561l7.1084-19.69163h3.21397l7.0951,19.69163h-2.94133l-1.85191-5.16118h-7.80329l-1.86632,5.16118h-2.95463ZM559.85142,531.70232h6.31821l-3.15855-9.05673-3.15966,9.05673Z"/><path d="M576.60171,539.50561v-19.69163h2.81831l10.02314,14.68006v-14.68006h2.92803v19.69163h-2.61439l-10.24147-14.9804v14.9804h-2.91363Z"/><path d="M598.70382,539.50561v-19.69163c.07204,0,.28815.00222.64612.00665.35908.00443.79241.00443,1.3011,0s1.02847-.00443,1.55933,0,1.0052.01108,1.42301.01995c2.40604.04544,4.36213.44996,5.86937,1.21244s2.61218,1.85634,3.31593,3.28157,1.05618,3.16409,1.05618,5.21549c0,2.13452-.37681,3.9432-1.13043,5.42717-.75362,1.48507-1.90511,2.61107-3.45224,3.37799-1.54824.76692-3.50765,1.15038-5.87714,1.15038h-4.71121ZM601.67175,537.05413h1.77101c1.4884,0,2.78507-.24271,3.88779-.72813s1.95941-1.27561,2.56674-2.36947c.60844-1.09386.91321-2.55787.91321-4.39205,0-1.7976-.29147-3.22948-.8722-4.29674s-1.41414-1.83418-2.49913-2.30186-2.38942-.70153-3.91439-.70153h-1.85302v14.78978Z"/><path d="M634.43757,539.77824c-1.77876,0-3.30484-.41117-4.57602-1.23239-1.27118-.82233-2.24423-1.99266-2.92028-3.5143-.67715-1.52054-1.01517-3.34252-1.01517-5.46707,0-2.11568.3358-3.91993,1.00852-5.41387.67161-1.49283,1.64245-2.63434,2.91363-3.42454s2.80058-1.18473,4.58932-1.18473c1.41636,0,2.67424.29037,3.77253.8711,1.09829.58184,1.98158,1.36206,2.64875,2.34287.66717.97971,1.06393,2.0658,1.19138,3.25497h-3.10425c-.13632-.74475-.39787-1.41858-.78354-2.02258s-.89659-1.08056-1.53162-1.42966c-.63614-.35021-1.38976-.52532-2.26086-.52532-1.11713,0-2.0658.26377-2.84602.79019-.78133.52643-1.37425,1.34876-1.77766,2.46478-.40452,1.11713-.60622,2.55566-.60622,4.3178,0,2.65983.44996,4.60484,1.34876,5.83501s2.19215,1.84526,3.88114,1.84526c.8711,0,1.62471-.1884,2.26086-.56521.63504-.37681,1.14594-.87996,1.53162-1.51167.38568-.6306.64723-1.31883.78354-2.06248h3.10425c-.10861.86223-.3358,1.6901-.68047,2.48473-.34578.79463-.82455,1.50502-1.43742,2.13119s-1.37314,1.11935-2.28081,1.47732c-.90767.35908-1.97936.53862-3.21397.53862Z"/><path d="M647.32114,539.50561v-19.69163h6.82247c1.4075,0,2.66648.24049,3.77918.72148,1.11159.48099,1.98823,1.18917,2.62769,2.12454.64058.93537.96086,2.08354.96086,3.44559,0,1.30664-.29258,2.42156-.87885,3.34252-.58516.92208-1.40195,1.62804-2.45148,2.11789-1.04842.48985-2.26307.73589-3.64286.73589h-4.24908v7.20371h-2.96793ZM650.27577,529.90472h4.18148c1.25234,0,2.27416-.36129,3.06324-1.08277.79019-.72148,1.18473-1.68234,1.18473-2.88038,0-1.21687-.40784-2.14892-1.22463-2.79837-.8179-.64944-1.8619-.97416-3.13306-.97416h-4.07176v7.73568Z"/><path d="M673.5216,539.77824c-1.77101,0-3.19623-.29037-4.27679-.8722-1.08056-.58073-1.86742-1.42966-2.36282-2.54679-.49429-1.11602-.74143-2.47808-.74143-4.08506v-12.46021h3.00894v12.82815c0,1.56154.38346,2.7219,1.15149,3.47884.76692.75916,1.83972,1.13708,3.22061,1.13708.91653,0,1.70894-.16513,2.37612-.4965s1.17808-.84006,1.53162-1.52497c.35464-.68602.53197-1.55046.53197-2.59445v-12.82815h2.95463v12.69184c0,1.53384-.25379,2.8438-.76249,3.9288s-1.30553,1.91397-2.38942,2.48584c-1.08499.57186-2.49913.8578-4.24243.8578Z"/></g><g id="control_system"><g style="filter:url(#outer-glow-153);"><path d="M563.2283,608.99153c-1.77876,0-3.30484-.41117-4.57602-1.23239-1.27118-.82233-2.24423-1.99266-2.92028-3.5143-.67715-1.52054-1.01517-3.34252-1.01517-5.46707,0-2.11568.3358-3.91993,1.00852-5.41387.67161-1.49283,1.64245-2.63434,2.91363-3.42454s2.80058-1.18473,4.58932-1.18473c1.41636,0,2.67424.29037,3.77253.8711,1.09829.58184,1.98158,1.36206,2.64875,2.34287.66717.97971,1.06393,2.0658,1.19138,3.25497h-3.10425c-.13632-.74475-.39787-1.41858-.78354-2.02258s-.89659-1.08056-1.53162-1.42966c-.63614-.35021-1.38976-.52532-2.26086-.52532-1.11713,0-2.0658.26377-2.84602.79019-.78133.52643-1.37425,1.34876-1.77766,2.46478-.40452,1.11713-.60622,2.55566-.60622,4.3178,0,2.65983.44996,4.60484,1.34876,5.83501s2.19215,1.84526,3.88114,1.84526c.8711,0,1.62471-.1884,2.26086-.56521.63504-.37681,1.14594-.87996,1.53162-1.51167.38568-.6306.64723-1.31883.78354-2.06248h3.10425c-.10861.86223-.3358,1.6901-.68047,2.48473-.34578.79463-.82455,1.50502-1.43742,2.13119s-1.37314,1.11935-2.28081,1.47732c-.90767.35908-1.97936.53862-3.21397.53862Z"/><path d="M583.75112,608.99153c-1.78874,0-3.33366-.39787-4.63698-1.19138-1.30221-.79463-2.3063-1.94279-3.00894-3.44559-.70375-1.50281-1.05618-3.31593-1.05618-5.44047,0-2.14338.35686-3.9698,1.06947-5.48147s1.72003-2.66981,3.02334-3.4733c1.30221-.80349,2.83937-1.20468,4.60927-1.20468,1.76103,0,3.28933.40119,4.58267,1.20468,1.29445.80349,2.293,1.96163,2.99675,3.4733.70264,1.51167,1.05507,3.33809,1.05507,5.48147,0,2.12454-.35021,3.93544-1.04842,5.43382-.69931,1.49726-1.69564,2.64653-2.9901,3.44448-1.29334.79906-2.82496,1.19914-4.59597,1.19914ZM583.75112,606.49904c1.14373,0,2.12233-.26266,2.93468-.79019.81236-.52643,1.43188-1.34765,1.85967-2.46478.42668-1.11602.63947-2.54679.63947-4.28898,0-1.78874-.21611-3.25054-.64612-4.3854-.43222-1.13486-1.05396-1.97271-1.86632-2.51243-.81236-.54083-1.78652-.81125-2.92138-.81125s-2.11235.27263-2.93468.8179c-.82122.54416-1.45515,1.38422-1.89956,2.51908s-.66717,2.59223-.66717,4.3721c0,1.75217.22276,3.18404.66717,4.29563.44441,1.1127,1.07834,1.9317,1.89956,2.45813.82233.52753,1.79982.79019,2.93468.79019Z"/><path d="M597.6554,608.7189v-19.69163h2.81831l10.02314,14.68006v-14.68006h2.92803v19.69163h-2.61439l-10.24147-14.9804v14.9804h-2.91363Z"/><path d="M624.1019,608.7189v-17.03623h-6.23731v-2.6554h15.13002v2.6554h-5.95138v17.03623h-2.94133Z"/><path d="M637.44761,608.7189v-19.69163h7.81658c1.4618,0,2.67313.22387,3.63621.67382.96197.44885,1.67902,1.08721,2.15114,1.91286.47212.82676.70818,1.80315.70818,2.92803,0,1.06282-.17843,1.94722-.53751,2.6554s-.82122,1.28559-1.38865,1.73-1.16479.79463-1.79095,1.04842l3.81243,8.74309h-3.06324l-3.4999-8.23883h-4.93067v8.23883h-2.91363ZM640.36124,598.12389h4.11277c1.37092,0,2.43375-.29701,3.18737-.89215.75362-.59403,1.13043-1.44518,1.13043-2.55344,0-1.08942-.34356-1.91508-1.02847-2.47808-.68602-.563-1.61363-.8445-2.78507-.8445h-4.61703v6.76817Z"/><path d="M665.01014,608.99153c-1.78874,0-3.33366-.39787-4.63698-1.19138-1.30221-.79463-2.3063-1.94279-3.00894-3.44559-.70375-1.50281-1.05618-3.31593-1.05618-5.44047,0-2.14338.35686-3.9698,1.06947-5.48147s1.72003-2.66981,3.02334-3.4733c1.30221-.80349,2.83937-1.20468,4.60927-1.20468,1.76103,0,3.28933.40119,4.58267,1.20468,1.29445.80349,2.293,1.96163,2.99675,3.4733.70264,1.51167,1.05507,3.33809,1.05507,5.48147,0,2.12454-.35021,3.93544-1.04842,5.43382-.69931,1.49726-1.69564,2.64653-2.9901,3.44448-1.29334.79906-2.82496,1.19914-4.59597,1.19914ZM665.01014,606.49904c1.14373,0,2.12233-.26266,2.93468-.79019.81236-.52643,1.43188-1.34765,1.85965-2.46478.4267-1.11602.63949-2.54679.63949-4.28898,0-1.78874-.21611-3.25054-.64612-4.3854-.43222-1.13486-1.05396-1.97271-1.86632-2.51243-.81236-.54083-1.78652-.81125-2.92138-.81125s-2.11235.27263-2.93468.8179c-.82122.54416-1.45515,1.38422-1.89956,2.51908s-.66717,2.59223-.66717,4.3721c0,1.75217.22276,3.18404.66717,4.29563.44441,1.1127,1.07834,1.9317,1.89956,2.45813.82233.52753,1.79982.79019,2.93468.79019Z"/><path d="M678.91552,608.7189l.0133-19.69163h2.95463v17.13154h9.09774v2.56009h-12.06567Z"/><path d="M562.64313,641.67534c-.96308,0-1.88626-.11858-2.77177-.35464-.88439-.23606-1.68789-.58738-2.41047-1.05507-.72148-.46769-1.31662-1.05063-1.7832-1.74995-.46769-.69931-.76138-1.5161-.87885-2.45148h3.03664c.15405.70818.46104,1.30332.91986,1.7843.45771.48099,1.03512.8445,1.72889,1.08942.69488.24493,1.46402.36794,2.30851.36794.78022,0,1.50281-.12302,2.16555-.36794s1.19803-.59957,1.60698-1.06282c.40784-.46215.61287-1.02958.61287-1.70229,0-.75251-.25268-1.34987-.75584-1.78985-.50426-.44109-1.2601-.79241-2.26751-1.05618l-3.94985-.98081c-.95311-.22609-1.79317-.55081-2.51908-.97306s-1.28891-.98081-1.68899-1.67569c-.39897-.69377-.59846-1.55379-.59846-2.58004,0-1.14373.31475-2.14006.94646-2.98899.6306-.84893,1.4884-1.50502,2.57339-1.96828s2.31295-.69488,3.68387-.69488c1.57041,0,2.89368.2682,3.9698.80349,1.07612.5364,1.89291,1.24236,2.45148,2.11789.55856.87664.84228,1.83196.85115,2.86708h-2.96904c-.08201-.8445-.32915-1.51389-.74254-2.00928-.41338-.49429-.93537-.85115-1.56598-1.06837-.6306-.21833-1.3277-.32694-2.09019-.32694-1.34432,0-2.35395.29701-3.02999.89215-.67604.59403-1.01517,1.29999-1.01517,2.11678,0,.75362.24825,1.34876.74254,1.7843.49539.43555,1.22796.77246,2.1999,1.00741l3.81243.93981c1.19914.26377,2.1589.65609,2.88038,1.17808s1.24126,1.13486,1.55933,1.83861.47655,1.47288.47655,2.30851c0,1.11713-.31253,2.10903-.93981,2.97569-.62617.86666-1.49948,1.54824-2.62104,2.04253s-2.43042.74254-3.9288.74254Z"/><path d="M580.11491,641.4027v-8.36185l-6.75487-11.32978h3.18737l5.03817,8.75639,4.97056-8.75639h3.18737l-6.71386,11.34308v8.34855h-2.91473Z"/><path d="M600.76076,641.67534c-.96308,0-1.88626-.11858-2.77177-.35464-.88439-.23606-1.68789-.58738-2.41047-1.05507-.72148-.46769-1.31662-1.05063-1.7832-1.74995-.46769-.69931-.76138-1.5161-.87885-2.45148h3.03664c.15405.70818.46104,1.30332.91986,1.7843.45771.48099,1.03512.8445,1.72889,1.08942.69488.24493,1.46402.36794,2.30851.36794.78022,0,1.50281-.12302,2.16555-.36794s1.19803-.59957,1.60698-1.06282c.40784-.46215.61287-1.02958.61287-1.70229,0-.75251-.25268-1.34987-.75584-1.78985-.50426-.44109-1.2601-.79241-2.26751-1.05618l-3.94985-.98081c-.95311-.22609-1.79317-.55081-2.51908-.97306s-1.28891-.98081-1.68899-1.67569c-.39897-.69377-.59846-1.55379-.59846-2.58004,0-1.14373.31475-2.14006.94646-2.98899.6306-.84893,1.4884-1.50502,2.57339-1.96828s2.31295-.69488,3.68387-.69488c1.57041,0,2.89368.2682,3.9698.80349,1.07612.5364,1.89291,1.24236,2.45148,2.11789.55856.87664.84228,1.83196.85115,2.86708h-2.96904c-.08201-.8445-.32915-1.51389-.74254-2.00928-.41338-.49429-.93537-.85115-1.56598-1.06837-.6306-.21833-1.3277-.32694-2.09019-.32694-1.34432,0-2.35395.29701-3.02999.89215-.67604.59403-1.01517,1.29999-1.01517,2.11678,0,.75362.24825,1.34876.74254,1.7843.49539.43555,1.22796.77246,2.1999,1.00741l3.81243.93981c1.19914.26377,2.1589.65609,2.88038,1.17808s1.24126,1.13486,1.55933,1.83861.47655,1.47288.47655,2.30851c0,1.11713-.31253,2.10903-.93981,2.97569-.62617.86666-1.49948,1.54824-2.62104,2.04253s-2.43042.74254-3.9288.74254Z"/><path d="M618.01532,641.4027v-17.03623h-6.23731v-2.6554h15.13002v2.6554h-5.95138v17.03623h-2.94133Z"/><path d="M631.36103,641.4027v-19.69163h12.71954l-.01441,2.53238h-9.7771v5.97908h8.72869v2.50578h-8.74309v6.10099l10.03755.0133v2.56009h-12.95117Z"/><path d="M649.73161,641.4027v-19.69163h4.11277l5.54243,15.66088,5.62444-15.66088h4.08506v19.69163h-2.98234v-15.67418l-5.44712,15.67418h-2.54679l-5.42052-15.55227v15.55227h-2.96793Z"/></g></g><g id="white_box_-_any_actuator"><rect x="109.75068" y="633.15466" width="268.59099" height="77.36512" rx="6.99394" ry="6.99394" style="fill:#fff; stroke:#00ef83; stroke-miterlimit:10; stroke-width:3px;"/></g><g id="grey_arrow__x28_comp_to_actuator_x29_"><polygon points="393.07047 660.00471 393.07047 664.05901 382.68216 671.83736 393.07047 679.56307 393.07047 683.66974 377.22701 671.83736 393.07047 660.00471" style="fill:#da00ff;"/><line x1="444.20466" y1="671.83722" x2="379.94904" y2="671.83722" style="fill:none; stroke:#da00ff; stroke-miterlimit:10; stroke-width:3.5px;"/></g><g id="arrow__x28_comp_to_actuator_x29_"><polygon points="393.07047 660.00471 393.07047 664.05901 382.68216 671.83736 393.07047 679.56307 393.07047 683.66974 377.22701 671.83736 393.07047 660.00471" style="fill:#666;"/><line x1="444.20466" y1="671.83722" x2="379.94904" y2="671.83722" style="fill:none; stroke:#666; stroke-miterlimit:10; stroke-width:3.5px;"/></g><g id="grey_arrow__x28_comp_to_motors_x29_"><polygon points="393.07047 563.20109 393.07047 567.25539 382.68216 575.03374 393.07047 582.75945 393.07047 586.86612 377.22701 575.03374 393.07047 563.20109" style="fill:#666;"/><line x1="444.20466" y1="575.03361" x2="379.94904" y2="575.03361" style="fill:none; stroke:#666; stroke-miterlimit:10; stroke-width:3.5px;"/></g><g id="white_box_-_cameras"><rect x="109.75068" y="245.9402" width="268.59099" height="77.36512" rx="6.99394" ry="6.99394" style="fill:#fff; stroke:#00ef83; stroke-miterlimit:10; stroke-width:3px;"/></g><g id="white_box_-_any_sensor"><rect x="109.75068" y="342.74381" width="268.59099" height="77.36512" rx="6.99394" ry="6.99394" style="fill:#fff; stroke:#00ef83; stroke-miterlimit:10; stroke-width:3px;"/></g><g id="white_box_-_arms"><rect x="109.75068" y="439.54743" width="268.59099" height="77.36512" rx="6.99394" ry="6.99394" style="fill:#fff; stroke:#00ef83; stroke-miterlimit:10; stroke-width:3px;"/></g><g id="white_box_-_motors"><rect x="109.75068" y="536.35105" width="268.59099" height="77.36512" rx="6.99394" ry="6.99394" style="fill:#fff; stroke:#00ef83; stroke-miterlimit:10; stroke-width:3px;"/></g><g id="arrow__x28_comp_to_motors_x29_"><polygon points="393.07047 563.20109 393.07047 567.25539 382.68216 575.03374 393.07047 582.75945 393.07047 586.86612 377.22701 575.03374 393.07047 563.20109" style="fill:#da00ff;"/><line x1="444.20466" y1="575.03361" x2="379.94904" y2="575.03361" style="fill:none; stroke:#da00ff; stroke-miterlimit:10; stroke-width:3.5px;"/><polygon points="393.07047 660.00471 393.07047 664.05901 382.68216 671.83736 393.07047 679.56307 393.07047 683.66974 377.22701 671.83736 393.07047 660.00471" style="fill:#da00ff;"/><line x1="444.20466" y1="671.83722" x2="379.94904" y2="671.83722" style="fill:none; stroke:#da00ff; stroke-miterlimit:10; stroke-width:3.5px;"/></g><g id="grey_arrow__x28_sensor_to_comp_x29_"><polygon points="429.69785 369.59386 429.69785 373.64816 440.08616 381.42651 429.69785 389.15222 429.69785 393.25889 445.54131 381.42651 429.69785 369.59386" style="fill:#666;"/><line x1="443.0343" y1="381.42637" x2="379.36417" y2="381.42637" style="fill:none; stroke:#666; stroke-miterlimit:10; stroke-width:3.5px;"/></g><g id="arrow__x28_sensor_to_comp_x29_"><polygon points="429.69785 369.59386 429.69785 373.64816 440.08616 381.42651 429.69785 389.15222 429.69785 393.25889 445.54131 381.42651 429.69785 369.59386" style="fill:#da00ff;"/><line x1="443.0343" y1="381.42637" x2="379.36417" y2="381.42637" style="fill:none; stroke:#da00ff; stroke-miterlimit:10; stroke-width:3.5px;"/></g><g id="grey_arrow__x28_camera_to_comp_x29_"><polygon points="429.85806 272.79024 429.85806 276.84455 440.24637 284.6229 429.85806 292.3486 429.85806 296.45527 445.70152 284.6229 429.85806 272.79024" style="fill:#666;"/><line x1="443.0343" y1="284.62276" x2="379.36417" y2="284.62276" style="fill:none; stroke:#666; stroke-miterlimit:10; stroke-width:3.5px;"/></g><g id="arrow__x28_camera_to_comp_x29_"><polygon points="429.85806 272.79024 429.85806 276.84455 440.24637 284.6229 429.85806 292.3486 429.85806 296.45527 445.70152 284.6229 429.85806 272.79024" style="fill:#da00ff;"/><line x1="443.0343" y1="284.62276" x2="379.36417" y2="284.62276" style="fill:none; stroke:#da00ff; stroke-miterlimit:10; stroke-width:3.5px;"/></g><g id="database_icon_-_left"><path d="M523.92766,348.77105h-42.30566v30.77144c-.29883,3.34785,1.77474,6.76207,6.22142,9.32933,8.29437,4.78874,21.69354,4.81686,29.92785.06279,4.01936-2.32056,6.05945-5.35169,6.13611-8.40366h.02028v-31.7599Z" style="fill:#fff; stroke:#000; stroke-linejoin:round; stroke-width:2.5px;"/><path d="M481.61026,358.31902c-.29883,3.34785,1.77474,6.76207,6.22142,9.32933,8.29437,4.78874,21.69354,4.81686,29.92785.06279,4.01936-2.32056,6.05945-5.35169,6.13611-8.40366" style="fill:none; stroke:#000; stroke-linejoin:round; stroke-width:2.5px;"/><path d="M481.61026,369.77969c-.29883,3.34785,1.77474,6.76207,6.22142,9.32933,8.29437,4.78874,21.69354,4.81686,29.92785.06279,4.01936-2.32056,6.05945-5.35169,6.13611-8.40366" style="fill:none; stroke:#000; stroke-linejoin:round; stroke-width:2.5px;"/><path d="M517.77127,357.30485c-8.23433,4.75407-21.63349,4.72596-29.92787-.0628-8.29438-4.78875-8.34306-12.52474-.10873-17.27881,8.23433-4.75407,21.63349-4.72596,29.92787.0628,8.29438,4.78875,8.34306,12.52474.10873,17.27881Z" style="fill:#fff; stroke:#000; stroke-linejoin:round; stroke-width:2.5px;"/></g><g id="trapezoid_1"><polygon points="529.67105 474.58261 475.83864 474.58261 484.91754 445.10295 520.59215 445.10295 529.67105 474.58261" style="fill:#fff; stroke:#000; stroke-linejoin:round; stroke-width:2.5px;"/></g><g id="trapezoid_2"><polygon points="529.67105 616.85398 475.83864 616.85398 484.91754 587.37432 520.59215 587.37432 529.67105 616.85398" style="fill:#fff; stroke:#000; stroke-linejoin:round; stroke-width:2.5px;"/></g><g id="grey_arrow__x28_cloud_to_world_x29_"><polygon points="827.78881 272.7901 827.78881 276.84441 817.4005 284.62276 827.78881 292.34846 827.78881 296.45514 811.94535 284.62276 827.78881 272.7901" style="fill:#666;"/><line x1="2134.88201" y1="284.61391" x2="817.4005" y2="284.61391" style="fill:none; stroke:#666; stroke-miterlimit:10; stroke-width:3.5px;"/></g><g id="arrow__x28_cloud_to_world_x29_"><polygon points="827.78881 272.7901 827.78881 276.84441 817.4005 284.62276 827.78881 292.34846 827.78881 296.45514 811.94535 284.62276 827.78881 272.7901" style="fill:#da00ff;"/><line x1="2134.88201" y1="284.61391" x2="817.4005" y2="284.61391" style="fill:none; stroke:#da00ff; stroke-miterlimit:10; stroke-width:3.5px;"/></g><g id="grey_arrow__x28_app_to_comp_x29_"><polygon points="829.13075 389.38614 829.13075 393.44045 818.74228 401.21881 829.13073 408.94449 829.13073 413.05116 813.28705 401.21882 829.13075 389.38614" style="fill:#666;"/><line x1="1081.61007" y1="401.21881" x2="818.74228" y2="401.21881" style="fill:none; stroke:#666; stroke-miterlimit:10; stroke-width:3.5px;"/></g><g id="arrow__x28_app_to_comp_x29_"><polygon points="829.13075 389.38614 829.13075 393.44045 818.74228 401.21881 829.13073 408.94449 829.13073 413.05116 813.28705 401.21882 829.13075 389.38614" style="fill:#da00ff;"/><line x1="1081.61007" y1="401.21881" x2="818.74228" y2="401.21881" style="fill:none; stroke:#da00ff; stroke-miterlimit:10; stroke-width:3.5px;"/></g><g id="grey_arrow__x28_comp_to_app_x29_"><polygon points="1067.33654 473.18474 1067.33654 477.23904 1077.72501 485.01741 1067.33656 492.74309 1067.33656 496.84976 1083.18024 485.01742 1067.33654 473.18474" style="fill:#666;"/><line x1="1077.72501" y1="485.01741" x2="814.54433" y2="485.01741" style="fill:none; stroke:#666; stroke-miterlimit:10; stroke-width:3.5px;"/></g><g id="arrow__x28_comp_to_app_x29_"><polygon points="1067.33654 473.18474 1067.33654 477.23904 1077.72501 485.01741 1067.33656 492.74309 1067.33656 496.84976 1083.18024 485.01742 1067.33654 473.18474" style="fill:#da00ff;"/><line x1="1077.72501" y1="485.01741" x2="814.54433" y2="485.01741" style="fill:none; stroke:#da00ff; stroke-miterlimit:10; stroke-width:3.5px;"/></g><g id="grey_arrow__x28_comp_to_data_sync_x29_"><polygon points="1067.55016 729.31592 1067.55016 733.37022 1077.93863 741.14859 1067.55018 748.87427 1067.55018 752.98094 1083.39386 741.1486 1067.55016 729.31592" style="fill:#666;"/><path d="M814.65114,623.37074h174.2319c8.90682,0,16.12723,7.22041,16.12723,16.12723v85.52338c0,8.90682,7.22041,16.12723,16.12723,16.12723h56.80112" style="fill:none; stroke:#666; stroke-miterlimit:10; stroke-width:3.5px;"/></g><g id="arrow__x28_comp_to_data_sync_x29_"><polygon points="1067.55016 729.31592 1067.55016 733.37022 1077.93863 741.14859 1067.55018 748.87427 1067.55018 752.98094 1083.39386 741.1486 1067.55016 729.31592" style="fill:#da00ff;"/><path d="M814.65114,623.37074h174.2319c8.90682,0,16.12723,7.22041,16.12723,16.12723v85.52338c0,8.90682,7.22041,16.12723,16.12723,16.12723h56.80112" style="fill:none; stroke:#da00ff; stroke-miterlimit:10; stroke-width:3.5px;"/></g><g id="grey_arrow__x28_comp_to_arms_x29_"><polygon points="393.65534 466.39747 393.65534 470.45178 383.26703 478.23013 393.65534 485.95584 393.65534 490.06251 377.81187 478.23013 393.65534 466.39747" style="fill:#666;"/><line x1="444.20466" y1="478.22999" x2="382.28851" y2="478.22999" style="fill:none; stroke:#666; stroke-miterlimit:10; stroke-width:3.5px;"/></g><g id="arrow__x28_comp_to_arms_x29_"><polygon points="393.65534 466.39747 393.65534 470.45178 383.26703 478.23013 393.65534 485.95584 393.65534 490.06251 377.81187 478.23013 393.65534 466.39747" style="fill:#da00ff;"/><line x1="444.20466" y1="478.22999" x2="382.28851" y2="478.22999" style="fill:none; stroke:#da00ff; stroke-miterlimit:10; stroke-width:3.5px;"/></g><g id="cameras"><path d="M140.04441,294.30335c-1.77876,0-3.30484-.41117-4.57602-1.23239-1.27118-.82233-2.24423-1.99266-2.92028-3.5143-.67715-1.52054-1.01517-3.34252-1.01517-5.46707,0-2.11568.3358-3.91993,1.00852-5.41387.67161-1.49283,1.64245-2.63434,2.91363-3.42454s2.80058-1.18473,4.58932-1.18473c1.41636,0,2.67424.29037,3.77253.8711,1.09829.58184,1.98158,1.36206,2.64875,2.34287.66717.97971,1.06393,2.0658,1.19138,3.25497h-3.10425c-.13632-.74475-.39787-1.41858-.78354-2.02258s-.89659-1.08056-1.53162-1.42966c-.63614-.35021-1.38976-.52532-2.26086-.52532-1.11713,0-2.0658.26377-2.84602.79019-.78133.52643-1.37425,1.34876-1.77766,2.46478-.40452,1.11713-.60622,2.55566-.60622,4.3178,0,2.65983.44996,4.60484,1.34876,5.83501s2.19215,1.84526,3.88114,1.84526c.8711,0,1.62471-.1884,2.26086-.56521.63504-.37681,1.14594-.87996,1.53162-1.51167.38568-.6306.64723-1.31883.78354-2.06248h3.10425c-.10861.86223-.3358,1.6901-.68047,2.48473-.34578.79463-.82455,1.50502-1.43742,2.13119s-1.37314,1.11935-2.28081,1.47732c-.90767.35908-1.97936.53862-3.21397.53862Z"/><path d="M151.45731,294.03071l7.1084-19.69163h3.21397l7.0951,19.69163h-2.94133l-1.85191-5.16118h-7.80329l-1.86632,5.16118h-2.95463ZM156.99974,286.22743h6.31821l-3.15855-9.05673-3.15966,9.05673Z"/><path d="M173.75004,294.03071v-19.69163h4.11277l5.54243,15.66088,5.62444-15.66088h4.08506v19.69163h-2.98234v-15.67418l-5.44712,15.67418h-2.54679l-5.42052-15.55227v15.55227h-2.96793Z"/><path d="M199.46176,294.03071v-19.69163h12.71954l-.01441,2.53238h-9.7771v5.97908h8.72869v2.50578h-8.74309v6.10099l10.03755.0133v2.56009h-12.95117Z"/><path d="M217.83234,294.03071v-19.69163h7.81658c1.4618,0,2.67313.22387,3.63621.67382.96197.44885,1.67902,1.08721,2.15114,1.91286.47212.82676.70818,1.80315.70818,2.92803,0,1.06282-.17843,1.94722-.53751,2.6554s-.82122,1.28559-1.38865,1.73-1.16479.79463-1.79095,1.04842l3.81243,8.74309h-3.06324l-3.4999-8.23883h-4.93067v8.23883h-2.91363ZM220.74596,283.43571h4.11277c1.37092,0,2.43375-.29701,3.18737-.89215.75362-.59403,1.13043-1.44518,1.13043-2.55344,0-1.08942-.34356-1.91508-1.02847-2.47808-.68602-.563-1.61363-.8445-2.78507-.8445h-4.61703v6.76817Z"/><path d="M236.28493,294.03071l7.1084-19.69163h3.21397l7.0951,19.69163h-2.94133l-1.85191-5.16118h-7.80329l-1.86632,5.16118h-2.95463ZM241.82736,286.22743h6.31821l-3.15855-9.05673-3.15966,9.05673Z"/><path d="M265.44114,294.30335c-.96308,0-1.88626-.11858-2.77177-.35464-.88439-.23606-1.68789-.58738-2.41047-1.05507-.72148-.46769-1.31662-1.05063-1.7832-1.74995-.46769-.69931-.76138-1.5161-.87885-2.45148h3.03664c.15405.70818.46104,1.30332.91986,1.7843.45771.48099,1.03512.8445,1.72889,1.08942.69488.24493,1.46402.36794,2.30851.36794.78022,0,1.50281-.12302,2.16555-.36794s1.19803-.59957,1.60698-1.06282c.40784-.46215.61287-1.02958.61287-1.70229,0-.75251-.25268-1.34987-.75584-1.78985-.50426-.44109-1.2601-.79241-2.26751-1.05618l-3.94985-.98081c-.95311-.22609-1.79317-.55081-2.51908-.97306s-1.28891-.98081-1.68899-1.67569c-.39897-.69377-.59846-1.55379-.59846-2.58004,0-1.14373.31475-2.14006.94646-2.98899.6306-.84893,1.4884-1.50502,2.57339-1.96828s2.31295-.69488,3.68387-.69488c1.57041,0,2.89368.2682,3.9698.80349,1.07612.5364,1.89291,1.24236,2.45148,2.11789.55856.87664.84228,1.83196.85115,2.86708h-2.96904c-.08201-.8445-.32915-1.51389-.74254-2.00928-.41338-.49429-.93537-.85115-1.56598-1.06837-.6306-.21833-1.3277-.32694-2.09019-.32694-1.34432,0-2.35395.29701-3.02999.89215-.67604.59403-1.01517,1.29999-1.01517,2.11678,0,.75362.24825,1.34876.74254,1.7843.49539.43555,1.22796.77246,2.1999,1.00741l3.81243.93981c1.19914.26377,2.1589.65609,2.88038,1.17808s1.24126,1.13486,1.55933,1.83861.47655,1.47288.47655,2.30851c0,1.11713-.31253,2.10903-.93981,2.97569-.62617.86666-1.49948,1.54824-2.62104,2.04253s-2.43042.74254-3.9288.74254Z"/></g><g id="any_sensor"><path d="M131.1251,392.07105l7.1084-19.69163h3.21397l7.0951,19.69163h-2.94133l-1.85191-5.16118h-7.80329l-1.86632,5.16118h-2.95463ZM136.66753,384.26777h6.31821l-3.15855-9.05673-3.15966,9.05673Z"/><path d="M153.41783,392.07105v-19.69163h2.81831l10.02314,14.68006v-14.68006h2.92803v19.69163h-2.61439l-10.24147-14.9804v14.9804h-2.91363Z"/><path d="M180.08155,392.07105v-8.36185l-6.75487-11.32978h3.18737l5.03817,8.75639,4.97056-8.75639h3.18737l-6.71386,11.34308v8.34855h-2.91473Z"/><path d="M208.14944,392.34369c-.96308,0-1.88626-.11858-2.77177-.35464-.88439-.23606-1.68789-.58738-2.41047-1.05507-.72148-.46769-1.31662-1.05063-1.7832-1.74995-.46769-.69931-.76138-1.5161-.87885-2.45148h3.03664c.15405.70818.46104,1.30332.91986,1.7843.45771.48099,1.03512.8445,1.72889,1.08942.69488.24493,1.46402.36794,2.30851.36794.78022,0,1.50281-.12302,2.16555-.36794s1.19803-.59957,1.60698-1.06282c.40784-.46215.61287-1.02958.61287-1.70229,0-.75251-.25268-1.34987-.75584-1.78985-.50426-.44109-1.2601-.79241-2.26751-1.05618l-3.94985-.98081c-.95311-.22609-1.79317-.55081-2.51908-.97306s-1.28891-.98081-1.68899-1.67569c-.39897-.69377-.59846-1.55379-.59846-2.58004,0-1.14373.31475-2.14006.94646-2.98899.6306-.84893,1.4884-1.50502,2.57339-1.96828s2.31295-.69488,3.68387-.69488c1.57041,0,2.89368.2682,3.9698.80349,1.07612.5364,1.89291,1.24236,2.45148,2.11789.55856.87664.84228,1.83196.85115,2.86708h-2.96904c-.08201-.8445-.32915-1.51389-.74254-2.00928-.41338-.49429-.93537-.85115-1.56598-1.06837-.6306-.21833-1.3277-.32694-2.09019-.32694-1.34432,0-2.35395.29701-3.02999.89215-.67604.59403-1.01517,1.29999-1.01517,2.11678,0,.75362.24825,1.34876.74254,1.7843.49539.43555,1.22796.77246,2.1999,1.00741l3.81243.93981c1.19914.26377,2.1589.65609,2.88038,1.17808s1.24126,1.13486,1.55933,1.83861.47655,1.47288.47655,2.30851c0,1.11713-.31253,2.10903-.93981,2.97569-.62617.86666-1.49948,1.54824-2.62104,2.04253s-2.43042.74254-3.9288.74254Z"/><path d="M221.0596,392.07105v-19.69163h12.71954l-.01441,2.53238h-9.7771v5.97908h8.72869v2.50578h-8.74309v6.10099l10.03755.0133v2.56009h-12.95117Z"/><path d="M239.43129,392.07105v-19.69163h2.81831l10.02314,14.68006v-14.68006h2.92803v19.69163h-2.61439l-10.24147-14.9804v14.9804h-2.91363Z"/><path d="M268.39687,392.34369c-.96308,0-1.88626-.11858-2.77177-.35464-.88439-.23606-1.68789-.58738-2.41047-1.05507-.72148-.46769-1.31662-1.05063-1.7832-1.74995-.46769-.69931-.76138-1.5161-.87885-2.45148h3.03664c.15405.70818.46104,1.30332.91986,1.7843.45771.48099,1.03512.8445,1.72889,1.08942.69488.24493,1.46402.36794,2.30851.36794.78022,0,1.5028-.12302,2.16555-.36794.66274-.24493,1.19803-.59957,1.60697-1.06282.40785-.46215.61288-1.02958.61288-1.70229,0-.75251-.25268-1.34987-.75584-1.78985-.50426-.44109-1.2601-.79241-2.26751-1.05618l-3.94985-.98081c-.95311-.22609-1.79317-.55081-2.51908-.97306s-1.28891-.98081-1.68899-1.67569c-.39897-.69377-.59846-1.55379-.59846-2.58004,0-1.14373.31475-2.14006.94646-2.98899.6306-.84893,1.4884-1.50502,2.57339-1.96828s2.31295-.69488,3.68387-.69488c1.57041,0,2.89368.2682,3.9698.80349,1.07612.5364,1.89291,1.24236,2.45148,2.11789.55856.87664.84228,1.83196.85115,2.86708h-2.96904c-.08201-.8445-.32915-1.51389-.74254-2.00928-.41338-.49429-.93537-.85115-1.56598-1.06837-.6306-.21833-1.3277-.32694-2.09019-.32694-1.34432,0-2.35395.29701-3.02999.89215-.67604.59403-1.01517,1.29999-1.01517,2.11678,0,.75362.24825,1.34876.74254,1.7843.49539.43555,1.22796.77246,2.1999,1.00741l3.81243.93981c1.19914.26377,2.1589.65609,2.88038,1.17808s1.24126,1.13486,1.55933,1.83861.47655,1.47288.47655,2.30851c0,1.11713-.31253,2.10903-.93981,2.97569-.62617.86666-1.49948,1.54824-2.62104,2.04253s-2.43042.74254-3.9288.74254Z"/><path d="M288.9463,392.34369c-1.78874,0-3.33366-.39787-4.63698-1.19138-1.30221-.79463-2.3063-1.94279-3.00894-3.44559-.70375-1.50281-1.05618-3.31593-1.05618-5.44047,0-2.14338.35686-3.9698,1.06947-5.48147s1.72003-2.66981,3.02334-3.4733c1.30221-.80349,2.83937-1.20468,4.60927-1.20468,1.76103,0,3.28933.40119,4.58267,1.20468,1.29445.80349,2.293,1.96163,2.99675,3.4733.70264,1.51167,1.05507,3.33809,1.05507,5.48147,0,2.12454-.35021,3.93544-1.04842,5.43382-.69931,1.49726-1.69564,2.64653-2.9901,3.44448-1.29334.79906-2.82496,1.19914-4.59597,1.19914ZM288.9463,389.8512c1.14373,0,2.12233-.26266,2.93468-.79019.81236-.52643,1.43188-1.34765,1.85967-2.46478.42668-1.11602.63947-2.54679.63947-4.28898,0-1.78874-.21611-3.25054-.64612-4.3854-.43222-1.13486-1.05396-1.97271-1.86632-2.51243-.81236-.54083-1.78652-.81125-2.92138-.81125s-2.11235.27263-2.93468.8179c-.82122.54416-1.45515,1.38422-1.89956,2.51908-.44442,1.13486-.66717,2.59223-.66717,4.3721,0,1.75217.22275,3.18404.66717,4.29563.44441,1.1127,1.07834,1.9317,1.89956,2.45813.82233.52753,1.79982.79019,2.93468.79019Z"/><path d="M302.85058,392.07105v-19.69163h7.81658c1.4618,0,2.67313.22387,3.63621.67382.96197.44885,1.67902,1.08721,2.15114,1.91286.47212.82676.70818,1.80315.70818,2.92803,0,1.06282-.17843,1.94722-.53751,2.6554s-.82122,1.28559-1.38865,1.73-1.16479.79463-1.79095,1.04842l3.81243,8.74309h-3.06324l-3.4999-8.23883h-4.93067v8.23883h-2.91363ZM305.76421,381.47605h4.11277c1.37092,0,2.43375-.29701,3.18737-.89215.75362-.59403,1.13043-1.44518,1.13043-2.55344,0-1.08942-.34356-1.91508-1.02847-2.47808-.68602-.563-1.61363-.8445-2.78507-.8445h-4.61703v6.76817Z"/></g><g id="arms"><path d="M131.1251,488.60637l7.1084-19.69163h3.21397l7.0951,19.69163h-2.94133l-1.85191-5.16118h-7.80329l-1.86632,5.16118h-2.95463ZM136.66753,480.80309h6.31821l-3.15855-9.05673-3.15966,9.05673Z"/><path d="M153.41783,488.60637v-19.69163h7.81658c1.4618,0,2.67313.22387,3.63621.67382.96197.44885,1.67902,1.08721,2.15114,1.91286.47212.82676.70818,1.80315.70818,2.92803,0,1.06282-.17843,1.94722-.53751,2.6554s-.82122,1.28559-1.38865,1.73-1.16479.79463-1.79095,1.04842l3.81243,8.74309h-3.06324l-3.4999-8.23883h-4.93067v8.23883h-2.91363ZM156.33146,478.01137h4.11277c1.37092,0,2.43375-.29701,3.18737-.89215.75362-.59403,1.13043-1.44518,1.13043-2.55344,0-1.08942-.34356-1.91508-1.02847-2.47808-.68602-.563-1.61363-.8445-2.78507-.8445h-4.61703v6.76817Z"/><path d="M173.34109,488.60637v-19.69163h4.11277l5.54243,15.66088,5.62444-15.66088h4.08506v19.69163h-2.98234v-15.67418l-5.44712,15.67418h-2.54679l-5.42052-15.55227v15.55227h-2.96793Z"/><path d="M205.91629,488.87901c-.96308,0-1.88626-.11858-2.77177-.35464-.88439-.23606-1.68789-.58738-2.41047-1.05507-.72148-.46769-1.31662-1.05063-1.7832-1.74995-.46769-.69931-.76138-1.5161-.87885-2.45148h3.03664c.15405.70818.46104,1.30332.91986,1.7843.45771.48099,1.03512.8445,1.72889,1.08942.69488.24493,1.46402.36794,2.30851.36794.78022,0,1.50281-.12302,2.16555-.36794s1.19803-.59957,1.60698-1.06282c.40784-.46215.61287-1.02958.61287-1.70229,0-.75251-.25268-1.34987-.75584-1.78985-.50426-.44109-1.2601-.79241-2.26751-1.05618l-3.94985-.98081c-.95311-.22609-1.79317-.55081-2.51908-.97306s-1.28891-.98081-1.68899-1.67569c-.39897-.69377-.59846-1.55379-.59846-2.58004,0-1.14373.31475-2.14006.94646-2.98899.6306-.84893,1.48839-1.50502,2.57339-1.96828,1.08499-.46325,2.31295-.69488,3.68387-.69488,1.57041,0,2.89368.2682,3.9698.80349,1.07612.5364,1.89291,1.24236,2.45148,2.11789.55856.87664.84228,1.83196.85115,2.86708h-2.96904c-.08201-.8445-.32915-1.51389-.74254-2.00928-.41338-.49429-.93537-.85115-1.56598-1.06837-.6306-.21833-1.3277-.32694-2.09019-.32694-1.34432,0-2.35395.29701-3.02999.89215-.67604.59403-1.01517,1.29999-1.01517,2.11678,0,.75362.24825,1.34876.74254,1.7843.49539.43555,1.22796.77246,2.1999,1.00741l3.81243.93981c1.19914.26377,2.1589.65609,2.88038,1.17808s1.24126,1.13486,1.55933,1.83861.47655,1.47288.47655,2.30851c0,1.11713-.31253,2.10903-.93981,2.97569-.62617.86666-1.49948,1.54824-2.62104,2.04253s-2.43042.74254-3.9288.74254Z"/></g><g id="motors"><path d="M132.59577,585.1428v-19.69163h4.11277l5.54243,15.66088,5.62444-15.66088h4.08506v19.69163h-2.98234v-15.67418l-5.44712,15.67418h-2.54679l-5.42052-15.55227v15.55227h-2.96793Z"/><path d="M165.94675,585.41543c-1.78874,0-3.33366-.39787-4.63698-1.19138-1.30221-.79463-2.3063-1.94279-3.00894-3.44559-.70375-1.50281-1.05618-3.31593-1.05618-5.44047,0-2.14338.35686-3.9698,1.06947-5.48147s1.72003-2.66981,3.02334-3.4733c1.30221-.80349,2.83937-1.20468,4.60927-1.20468,1.76103,0,3.28933.40119,4.58267,1.20468,1.29445.80349,2.293,1.96163,2.99675,3.4733.70264,1.51167,1.05507,3.33809,1.05507,5.48147,0,2.12454-.35021,3.93544-1.04842,5.43382-.69931,1.49726-1.69564,2.64653-2.9901,3.44448-1.29334.79906-2.82496,1.19914-4.59597,1.19914ZM165.94675,582.92295c1.14373,0,2.12233-.26266,2.93468-.79019.81236-.52643,1.43188-1.34765,1.85967-2.46478.42668-1.11602.63947-2.54679.63947-4.28898,0-1.78874-.21611-3.25054-.64612-4.3854-.43222-1.13486-1.05396-1.97271-1.86632-2.51243-.81236-.54083-1.78652-.81125-2.92138-.81125s-2.11235.27263-2.93468.8179c-.82122.54416-1.45515,1.38422-1.89956,2.51908s-.66717,2.59223-.66717,4.3721c0,1.75217.22276,3.18404.66717,4.29563.44441,1.1127,1.07834,1.9317,1.89956,2.45813.82233.52753,1.79982.79019,2.93468.79019Z"/><path d="M184.19542,585.1428v-17.03623h-6.23731v-2.6554h15.13002v2.6554h-5.95138v17.03623h-2.94133Z"/><path d="M205.1804,585.41543c-1.78874,0-3.33366-.39787-4.63698-1.19138-1.30221-.79463-2.3063-1.94279-3.00894-3.44559-.70375-1.50281-1.05618-3.31593-1.05618-5.44047,0-2.14338.35686-3.9698,1.06947-5.48147s1.72003-2.66981,3.02334-3.4733c1.30221-.80349,2.83937-1.20468,4.60927-1.20468,1.76103,0,3.28933.40119,4.58267,1.20468,1.29445.80349,2.293,1.96163,2.99675,3.4733.70264,1.51167,1.05507,3.33809,1.05507,5.48147,0,2.12454-.35021,3.93544-1.04842,5.43382-.69931,1.49726-1.69564,2.64653-2.9901,3.44448-1.29335.79906-2.82496,1.19914-4.59597,1.19914ZM205.1804,582.92295c1.14373,0,2.12233-.26266,2.93468-.79019.81236-.52643,1.43188-1.34765,1.85967-2.46478.42668-1.11602.63947-2.54679.63947-4.28898,0-1.78874-.21611-3.25054-.64612-4.3854-.43222-1.13486-1.05396-1.97271-1.86632-2.51243-.81236-.54083-1.78652-.81125-2.92138-.81125s-2.11235.27263-2.93468.8179c-.82122.54416-1.45515,1.38422-1.89956,2.51908s-.66717,2.59223-.66717,4.3721c0,1.75217.22276,3.18404.66717,4.29563.44441,1.1127,1.07834,1.9317,1.89956,2.45813.82233.52753,1.79982.79019,2.93468.79019Z"/><path d="M219.08579,585.1428v-19.69163h7.81658c1.4618,0,2.67313.22387,3.63621.67382.96197.44885,1.67902,1.08721,2.15114,1.91286.47212.82676.70818,1.80315.70818,2.92803,0,1.06282-.17843,1.94722-.53751,2.6554s-.82122,1.28559-1.38865,1.73-1.16479.79463-1.79095,1.04842l3.81243,8.74309h-3.06324l-3.4999-8.23883h-4.93067v8.23883h-2.91363ZM221.99941,574.5478h4.11277c1.37092,0,2.43375-.29701,3.18737-.89215.75362-.59403,1.13043-1.44518,1.13043-2.55344,0-1.08942-.34356-1.91508-1.02847-2.47808-.68602-.563-1.61363-.8445-2.78507-.8445h-4.61703v6.76817Z"/><path d="M245.87252,585.41543c-.96308,0-1.88626-.11858-2.77177-.35464-.88439-.23606-1.68789-.58738-2.41047-1.05507-.72148-.46769-1.31662-1.05063-1.7832-1.74995-.46769-.69931-.76138-1.5161-.87885-2.45148h3.03664c.15405.70818.46104,1.30332.91986,1.7843.45771.48099,1.03512.8445,1.72889,1.08942.69488.24493,1.46402.36794,2.30851.36794.78022,0,1.50281-.12302,2.16555-.36794s1.19803-.59957,1.60698-1.06282c.40784-.46215.61287-1.02958.61287-1.70229,0-.75251-.25268-1.34987-.75584-1.78985-.50426-.44109-1.2601-.79241-2.26751-1.05618l-3.94985-.98081c-.95311-.22609-1.79317-.55081-2.51908-.97306s-1.28891-.98081-1.68899-1.67569c-.39897-.69377-.59846-1.55379-.59846-2.58004,0-1.14373.31475-2.14006.94646-2.98899.6306-.84893,1.4884-1.50502,2.57339-1.96828s2.31295-.69488,3.68387-.69488c1.57041,0,2.89368.2682,3.9698.80349,1.07612.5364,1.89291,1.24236,2.45148,2.11789.55856.87664.84228,1.83196.85115,2.86708h-2.96904c-.08201-.8445-.32915-1.51389-.74254-2.00928-.41338-.49429-.93537-.85115-1.56598-1.06837-.6306-.21833-1.3277-.32694-2.09019-.32694-1.34432,0-2.35395.29701-3.02999.89215-.67604.59403-1.01517,1.29999-1.01517,2.11678,0,.75362.24825,1.34876.74254,1.7843.49539.43555,1.22796.77246,2.1999,1.00741l3.81243.93981c1.19914.26377,2.1589.65609,2.88038,1.17808s1.24126,1.13486,1.55933,1.83861.47655,1.47288.47655,2.30851c0,1.11713-.31253,2.10903-.93981,2.97569-.62617.86666-1.49948,1.54824-2.62104,2.04253s-2.43042.74254-3.9288.74254Z"/></g><g id="any_actuator"><path d="M131.1251,681.78784l7.1084-19.69163h3.21397l7.0951,19.69163h-2.94133l-1.85191-5.16118h-7.80329l-1.86632,5.16118h-2.95463ZM136.66753,673.98455h6.31821l-3.15855-9.05673-3.15966,9.05673Z"/><path d="M153.41783,681.78784v-19.69163h2.81831l10.02314,14.68006v-14.68006h2.92803v19.69163h-2.61439l-10.24147-14.9804v14.9804h-2.91363Z"/><path d="M180.08155,681.78784v-8.36185l-6.75487-11.32978h3.18737l5.03817,8.75639,4.97056-8.75639h3.18737l-6.71386,11.34308v8.34855h-2.91473Z"/><path d="M199.81529,681.78784l7.1084-19.69163h3.21397l7.0951,19.69163h-2.94133l-1.85191-5.16118h-7.80329l-1.86632,5.16118h-2.95463ZM205.35772,673.98455h6.31821l-3.15855-9.05673-3.15966,9.05673Z"/><path d="M229.55666,682.06047c-1.77876,0-3.30484-.41117-4.57602-1.23239-1.27118-.82233-2.24423-1.99266-2.92028-3.5143-.67715-1.52054-1.01517-3.34252-1.01517-5.46707,0-2.11568.3358-3.91993,1.00852-5.41387.67161-1.49283,1.64245-2.63434,2.91363-3.42454s2.80058-1.18473,4.58932-1.18473c1.41636,0,2.67424.29037,3.77253.8711,1.09829.58184,1.98158,1.36206,2.64875,2.34287.66717.97971,1.06393,2.0658,1.19138,3.25497h-3.10425c-.13632-.74475-.39787-1.41858-.78354-2.02258s-.89659-1.08056-1.53162-1.42966c-.63614-.35021-1.38976-.52532-2.26086-.52532-1.11713,0-2.0658.26377-2.84602.79019-.78133.52643-1.37425,1.34876-1.77766,2.46478-.40452,1.11713-.60622,2.55566-.60622,4.3178,0,2.65983.44996,4.60484,1.34876,5.83501s2.19215,1.84526,3.88114,1.84526c.8711,0,1.62471-.1884,2.26086-.56521.63504-.37681,1.14594-.87996,1.53162-1.51167.38568-.6306.64723-1.31883.78354-2.06248h3.10425c-.10861.86223-.3358,1.6901-.68047,2.48473-.34578.79463-.82455,1.50502-1.43742,2.13119s-1.37314,1.11935-2.28081,1.47732c-.90767.35908-1.97936.53862-3.21397.53862Z"/><path d="M246.78462,681.78784v-17.03623h-6.2373v-2.6554h15.13002v2.6554h-5.95138v17.03623h-2.94134Z"/><path d="M267.51137,682.06047c-1.77101,0-3.19623-.29037-4.27679-.8722-1.08056-.58073-1.86742-1.42966-2.36282-2.54679-.49429-1.11602-.74143-2.47808-.74143-4.08506v-12.46021h3.00894v12.82815c0,1.56154.38346,2.7219,1.15149,3.47884.76692.75916,1.83972,1.13708,3.22061,1.13708.91653,0,1.70894-.16513,2.37612-.4965s1.17808-.84006,1.53162-1.52497c.35464-.68602.53197-1.55046.53197-2.59445v-12.82815h2.95463v12.69184c0,1.53384-.25379,2.8438-.76249,3.9288s-1.30553,1.91397-2.38942,2.48584c-1.08499.57186-2.49913.8578-4.24243.8578Z"/><path d="M279.2767,681.78784l7.1084-19.69163h3.21397l7.0951,19.69163h-2.94133l-1.85191-5.16118h-7.80329l-1.86632,5.16118h-2.95463ZM284.81913,673.98455h6.31821l-3.15855-9.05673-3.15966,9.05673Z"/><path d="M305.91493,681.78784v-17.03623h-6.23731v-2.6554h15.13002v2.6554h-5.95138v17.03623h-2.94133Z"/><path d="M326.8988,682.06047c-1.78874,0-3.33366-.39787-4.63698-1.19138-1.30221-.79463-2.3063-1.94279-3.00894-3.44559-.70375-1.50281-1.05618-3.31593-1.05618-5.44047,0-2.14338.35686-3.9698,1.06947-5.48147s1.72003-2.66981,3.02334-3.4733c1.30221-.80349,2.83937-1.20468,4.60927-1.20468,1.76103,0,3.28933.40119,4.58267,1.20468,1.29445.80349,2.293,1.96163,2.99675,3.4733.70264,1.51167,1.05507,3.33809,1.05507,5.48147,0,2.12454-.35021,3.93544-1.04842,5.43382-.69931,1.49726-1.69564,2.64653-2.9901,3.44448-1.29334.79906-2.82496,1.19914-4.59597,1.19914ZM326.8988,679.56799c1.14373,0,2.12233-.26266,2.93468-.79019.81236-.52643,1.43188-1.34765,1.85967-2.46478.42668-1.11602.63947-2.54679.63947-4.28898,0-1.78874-.21611-3.25054-.64612-4.3854-.43222-1.13486-1.05396-1.97271-1.86632-2.51243-.81236-.54083-1.78652-.81125-2.92138-.81125s-2.11235.27263-2.93468.8179c-.82122.54416-1.45515,1.38422-1.89956,2.51908s-.66717,2.59223-.66717,4.3721c0,1.75217.22276,3.18404.66717,4.29563.44441,1.1127,1.07834,1.9317,1.89956,2.45813.82233.52753,1.79982.79019,2.93468.79019Z"/><path d="M340.80418,681.78784v-19.69163h7.81658c1.4618,0,2.67313.22387,3.63621.67382.96197.44885,1.67902,1.08721,2.15114,1.91286.47211.82676.70818,1.80315.70818,2.92803,0,1.06282-.17843,1.94722-.53751,2.6554s-.82122,1.28559-1.38865,1.73-1.16479.79463-1.79095,1.04842l3.81243,8.74309h-3.06324l-3.4999-8.23883h-4.93067v8.23883h-2.91363ZM343.71781,671.19284h4.11277c1.37092,0,2.43375-.29701,3.18737-.89215.75362-.59403,1.13043-1.44518,1.13043-2.55344,0-1.08942-.34356-1.91508-1.02847-2.47808-.68602-.563-1.61363-.8445-2.78507-.8445h-4.61703v6.76817Z"/></g></svg>