<svg xmlns="http://www.w3.org/2000/svg" xmlns:xlink="http://www.w3.org/1999/xlink" viewBox="0 0 2640.75733 1226.57872"><defs><filter id="outer-glow-17" x="990.63065" y="869.21269" width="648" height="357" filterUnits="userSpaceOnUse"><feOffset dx="0" dy="0"/><feGaussianBlur result="blur-5" stdDeviation="30"/><feFlood flood-color="#00ef83" flood-opacity="1"/><feComposite in2="blur-5" operator="in"/><feComposite in="SourceGraphic"/></filter></defs><g id="white_box_-_team_copy"><rect x="1082.73117" y="960.87325" width="463.82323" height="173.56522" rx="8.24127" ry="8.24127" style="fill:#fff; filter:url(#drop-shadow-14); stroke:#000; stroke-miterlimit:10; stroke-width:2.5px;"/></g><g id="glow_-_white_box_-_team"><rect x="1082.73117" y="960.87325" width="463.82323" height="173.56522" rx="8.24127" ry="8.24127" style="fill:#fff; filter:url(#outer-glow-17); stroke:#00ef83; stroke-miterlimit:10; stroke-width:3px;"/></g><g id="team"><path d="M1267.03677,1059.77783v-25.55435h-9.35596v-3.98421h22.69503v3.98421h-8.92596v25.55435h-4.41311Z" style="fill:#252525;"/><path d="M1285.01281,1059.77783v-29.53856h19.07987l-.01995,3.80024h-14.66898v8.96696h13.09525v3.75923h-13.11298v9.15093l15.05466.02106v3.84013h-19.42786Z" style="fill:#252525;"/><path d="M1308.31959,1059.77783l10.66371-29.53856h4.82095l10.64377,29.53856h-4.41311l-2.77731-7.74233h-11.7077l-2.79726,7.74233h-4.43306ZM1316.63379,1048.07235h9.48009l-4.74115-13.58399-4.73894,13.58399Z" style="fill:#252525;"/><path d="M1339.71671,1059.77783v-29.53856h6.1686l8.3142,23.49187,8.43829-23.49187h6.12652v29.53856h-4.47295v-23.51182l-8.17012,23.51182h-3.82129l-8.13022-23.32784v23.32784h-4.453Z" style="fill:#252525;"/></g></svg>