<svg xmlns="http://www.w3.org/2000/svg" xmlns:xlink="http://www.w3.org/1999/xlink" viewBox="0 0 2640.75733 1226.57872"><defs><filter id="outer-glow-21" x="483.63065" y="840.21269" width="584" height="415" filterUnits="userSpaceOnUse"><feOffset dx="0" dy="0"/><feGaussianBlur result="blur-5" stdDeviation="30"/><feFlood flood-color="#00ef83" flood-opacity="1"/><feComposite in2="blur-5" operator="in"/><feComposite in="SourceGraphic"/></filter><filter id="outer-glow-49" x="606.63065" y="982.21269" width="312" height="128" filterUnits="userSpaceOnUse"><feOffset dx="0" dy="0"/><feGaussianBlur result="blur-11" stdDeviation="4"/><feFlood flood-color="#00ef83" flood-opacity="1"/><feComposite in2="blur-11" operator="in"/><feComposite in="SourceGraphic"/></filter><filter id="outer-glow-51" x="541.63065" y="576.21269" width="162" height="78" filterUnits="userSpaceOnUse"><feOffset dx="0" dy="0"/><feGaussianBlur result="blur-12" stdDeviation="4"/><feFlood flood-color="#00ef83" flood-opacity="1"/><feComposite in2="blur-12" operator="in"/><feComposite in="SourceGraphic"/></filter></defs><g id="orange_glow_box__x28_real_time_x29_"><rect x="575.53441" y="931.96019" width="399.99589" height="231.39135" rx="9.10089" ry="9.10089" style="fill:#f7f6f3; filter:url(#outer-glow-21); stroke:#00ef83; stroke-miterlimit:10; stroke-width:3px;"/></g><g id="glow_real_time_control_and_troubleshooting"><g style="filter:url(#outer-glow-49);"><path d="M620.96995,1015.09596v-19.69163h7.81658c1.4618,0,2.67313.22387,3.63621.67382.96197.44885,1.67902,1.08721,2.15114,1.91286.47212.82676.70818,1.80315.70818,2.92803,0,1.06282-.17843,1.94722-.53751,2.6554s-.82122,1.28559-1.38865,1.73-1.16479.79463-1.79095,1.04842l3.81243,8.74309h-3.06324l-3.4999-8.23883h-4.93067v8.23883h-2.91363ZM623.88357,1004.50096h4.11277c1.37092,0,2.43375-.29701,3.18737-.89215.75362-.59403,1.13043-1.44518,1.13043-2.55344,0-1.08942-.34356-1.91508-1.02847-2.47808-.68602-.563-1.61363-.8445-2.78507-.8445h-4.61703v6.76817Z" style="stroke:#000; stroke-width:.5px;"/><path d="M640.89321,1015.09596v-19.69163h12.71954l-.01441,2.53238h-9.7771v5.97908h8.72869v2.50578h-8.74309v6.10099l10.03755.0133v2.56009h-12.95117Z" style="stroke:#000; stroke-width:.5px;"/><path d="M657.79312,1015.09596l7.1084-19.69163h3.21397l7.0951,19.69163h-2.94133l-1.85191-5.16118h-7.80329l-1.86632,5.16118h-2.95463ZM663.33555,1007.29268h6.31821l-3.15855-9.05673-3.15966,9.05673Z" style="stroke:#000; stroke-width:.5px;"/><path d="M680.08696,1015.09596l.0133-19.69163h2.95463v17.13154h9.09774v2.56009h-12.06567Z" style="stroke:#000; stroke-width:.5px;"/><path d="M696.35959,1009.19889v-2.23315l7.05521-.0133v2.23315l-7.05521.0133Z" style="stroke:#000; stroke-width:.5px;"/><path d="M713.27392,1015.09596v-17.03623h-6.23731v-2.6554h15.13002v2.6554h-5.95138v17.03623h-2.94133Z" style="stroke:#000; stroke-width:.5px;"/><path d="M726.61963,1015.09596v-19.69163h2.91363v19.69163h-2.91363Z" style="stroke:#000; stroke-width:.5px;"/><path d="M735.88028,1015.09596v-19.69163h4.11277l5.54243,15.66088,5.62444-15.66088h4.08506v19.69163h-2.98234v-15.67418l-5.44712,15.67418h-2.54679l-5.42052-15.55227v15.55227h-2.96793Z" style="stroke:#000; stroke-width:.5px;"/><path d="M761.59089,1015.09596v-19.69163h12.71954l-.01441,2.53238h-9.7771v5.97908h8.72869v2.50578h-8.74309v6.10099l10.03755.0133v2.56009h-12.95117Z" style="stroke:#000; stroke-width:.5px;"/><path d="M628.41859,1056.22363c-1.77876,0-3.30484-.41117-4.57604-1.23239-1.27116-.82233-2.24422-1.99266-2.92026-3.5143-.67715-1.52054-1.01517-3.34252-1.01517-5.46707,0-2.11568.3358-3.91993,1.00852-5.41387.67161-1.49283,1.64245-2.63434,2.91363-3.42454s2.80058-1.18473,4.58932-1.18473c1.41636,0,2.67424.29037,3.77253.8711,1.09829.58184,1.98158,1.36206,2.64875,2.34287.66717.97971,1.06393,2.0658,1.19138,3.25497h-3.10425c-.13632-.74475-.39787-1.41858-.78354-2.02258s-.89659-1.08056-1.53162-1.42966c-.63614-.35021-1.38976-.52532-2.26086-.52532-1.11713,0-2.0658.26377-2.84602.79019-.78133.52643-1.37425,1.34876-1.77766,2.46478-.40452,1.11713-.60622,2.55566-.60622,4.3178,0,2.65983.44996,4.60484,1.34876,5.83501s2.19215,1.84526,3.88114,1.84526c.8711,0,1.62471-.1884,2.26086-.56521.63504-.37681,1.14594-.87996,1.53162-1.51167.38568-.6306.64723-1.31883.78354-2.06248h3.10425c-.10861.86223-.3358,1.6901-.68047,2.48473-.34578.79463-.82455,1.50502-1.43742,2.13119s-1.37314,1.11935-2.28081,1.47732c-.90767.35908-1.97936.53862-3.21397.53862Z" style="stroke:#000; stroke-width:.5px;"/><path d="M648.94142,1056.22363c-1.78874,0-3.33366-.39787-4.63698-1.19138-1.30221-.79463-2.3063-1.94279-3.00894-3.44559-.70375-1.50281-1.05618-3.31593-1.05618-5.44047,0-2.14338.35686-3.9698,1.06947-5.48147s1.72003-2.66981,3.02334-3.4733c1.30221-.80349,2.83937-1.20468,4.60927-1.20468,1.76103,0,3.28933.40119,4.58267,1.20468,1.29445.80349,2.293,1.96163,2.99675,3.4733.70264,1.51167,1.05507,3.33809,1.05507,5.48147,0,2.12454-.35021,3.93544-1.04842,5.43382-.69931,1.49726-1.69564,2.64653-2.9901,3.44448-1.29334.79906-2.82496,1.19914-4.59597,1.19914ZM648.94142,1053.73115c1.14373,0,2.12233-.26266,2.93468-.79019.81236-.52643,1.43188-1.34765,1.85967-2.46478.42668-1.11602.63947-2.54679.63947-4.28898,0-1.78874-.21611-3.25054-.64612-4.3854-.43222-1.13486-1.05396-1.97271-1.86632-2.51243-.81236-.54083-1.78652-.81125-2.92138-.81125s-2.11235.27263-2.93468.8179c-.82122.54416-1.45515,1.38422-1.89956,2.51908s-.66717,2.59223-.66717,4.3721c0,1.75217.22276,3.18404.66717,4.29563.44441,1.1127,1.07834,1.9317,1.89956,2.45813.82233.52753,1.79982.79019,2.93468.79019Z" style="stroke:#000; stroke-width:.5px;"/><path d="M662.8457,1055.951v-19.69163h2.81831l10.02314,14.68006v-14.68006h2.92803v19.69163h-2.61439l-10.24147-14.9804v14.9804h-2.91363Z" style="stroke:#000; stroke-width:.5px;"/><path d="M689.2922,1055.951v-17.03623h-6.23731v-2.6554h15.13002v2.6554h-5.95138v17.03623h-2.94133Z" style="stroke:#000; stroke-width:.5px;"/><path d="M702.63791,1055.951v-19.69163h7.81658c1.4618,0,2.67313.22387,3.63621.67382.96197.44885,1.67902,1.08721,2.15114,1.91286.47212.82676.70818,1.80315.70818,2.92803,0,1.06282-.17843,1.94722-.53751,2.6554s-.82122,1.28559-1.38865,1.73-1.16479.79463-1.79095,1.04842l3.81243,8.74309h-3.06324l-3.4999-8.23883h-4.93067v8.23883h-2.91363ZM705.55153,1045.356h4.11277c1.37092,0,2.43375-.29701,3.18737-.89215.75362-.59403,1.13043-1.44518,1.13043-2.55344,0-1.08942-.34356-1.91508-1.02847-2.47808-.68602-.563-1.61363-.8445-2.78507-.8445h-4.61703v6.76817Z" style="stroke:#000; stroke-width:.5px;"/><path d="M730.20043,1056.22363c-1.78874,0-3.33366-.39787-4.63698-1.19138-1.30221-.79463-2.3063-1.94279-3.00894-3.44559-.70375-1.50281-1.05618-3.31593-1.05618-5.44047,0-2.14338.35686-3.9698,1.06947-5.48147s1.72003-2.66981,3.02334-3.4733c1.30221-.80349,2.83937-1.20468,4.60927-1.20468,1.76103,0,3.28933.40119,4.58267,1.20468,1.29445.80349,2.293,1.96163,2.99675,3.4733.70264,1.51167,1.05507,3.33809,1.05507,5.48147,0,2.12454-.35021,3.93544-1.04842,5.43382-.69931,1.49726-1.69564,2.64653-2.9901,3.44448-1.29334.79906-2.82496,1.19914-4.59597,1.19914ZM730.20043,1053.73115c1.14373,0,2.12233-.26266,2.93468-.79019.81236-.52643,1.43188-1.34765,1.85967-2.46478.42668-1.11602.63947-2.54679.63947-4.28898,0-1.78874-.21611-3.25054-.64612-4.3854-.43222-1.13486-1.05396-1.97271-1.86632-2.51243-.81236-.54083-1.78652-.81125-2.92138-.81125s-2.11235.27263-2.93468.8179c-.82122.54416-1.45515,1.38422-1.89956,2.51908s-.66717,2.59223-.66717,4.3721c0,1.75217.22276,3.18404.66717,4.29563.44441,1.1127,1.07834,1.9317,1.89956,2.45813.82233.52753,1.79982.79019,2.93468.79019Z" style="stroke:#000; stroke-width:.5px;"/><path d="M744.10581,1055.951l.0133-19.69163h2.95463v17.13154h9.09774v2.56009h-12.06567Z" style="stroke:#000; stroke-width:.5px;"/><path d="M767.56998,1055.951l7.1084-19.69163h3.21397l7.0951,19.69163h-2.94133l-1.85191-5.16118h-7.80329l-1.86632,5.16118h-2.95463ZM773.1124,1048.14771h6.31821l-3.15855-9.05673-3.15966,9.05673Z" style="stroke:#000; stroke-width:.5px;"/><path d="M789.8627,1055.951v-19.69163h2.81831l10.02314,14.68006v-14.68006h2.92803v19.69163h-2.61439l-10.24147-14.9804v14.9804h-2.91363Z" style="stroke:#000; stroke-width:.5px;"/><path d="M811.96481,1055.951v-19.69163c.07204,0,.28815.00222.64612.00665.35908.00443.79241.00443,1.3011,0s1.02847-.00443,1.55933,0,1.0052.01108,1.42301.01995c2.40604.04544,4.36213.44996,5.86937,1.21244s2.61218,1.85634,3.31593,3.28157,1.05618,3.16409,1.05618,5.21549c0,2.13452-.37681,3.9432-1.13043,5.42717-.75362,1.48507-1.90511,2.61107-3.45224,3.37799-1.54824.76692-3.50765,1.15038-5.87712,1.15038h-4.71123ZM814.93274,1053.49952h1.77101c1.4884,0,2.78507-.24271,3.88779-.72813s1.95941-1.27561,2.56674-2.36947c.60844-1.09386.91321-2.55787.91321-4.39205,0-1.7976-.29147-3.22948-.8722-4.29674s-1.41414-1.83418-2.49913-2.30186-2.38942-.70153-3.91439-.70153h-1.85302v14.78978Z" style="stroke:#000; stroke-width:.5px;"/><path d="M625.31434,1096.80603v-17.03623h-6.23731v-2.6554h15.13002v2.6554h-5.95138v17.03623h-2.94133Z" style="stroke:#000; stroke-width:.5px;"/><path d="M638.66005,1096.80603v-19.69163h7.81658c1.4618,0,2.67313.22387,3.63621.67382.96197.44885,1.67902,1.08721,2.15114,1.91286.47212.82676.70818,1.80315.70818,2.92803,0,1.06282-.17843,1.94722-.53751,2.6554s-.82122,1.28559-1.38865,1.73-1.16479.79463-1.79095,1.04842l3.81243,8.74309h-3.06324l-3.4999-8.23883h-4.93067v8.23883h-2.91363ZM641.57368,1086.21103h4.11277c1.37092,0,2.43375-.29701,3.18737-.89215.75362-.59403,1.13043-1.44518,1.13043-2.55344,0-1.08942-.34358-1.91508-1.02847-2.47808-.68602-.563-1.61363-.8445-2.78507-.8445h-4.61703v6.76817Z" style="stroke:#000; stroke-width:.5px;"/><path d="M666.22258,1097.07867c-1.78874,0-3.33366-.39787-4.63698-1.19138-1.30221-.79463-2.3063-1.94279-3.00894-3.44559-.70375-1.50281-1.05618-3.31593-1.05618-5.44047,0-2.14338.35686-3.9698,1.06947-5.48147s1.72003-2.66981,3.02334-3.4733c1.30221-.80349,2.83937-1.20468,4.60927-1.20468,1.76103,0,3.28933.40119,4.58267,1.20468,1.29445.80349,2.293,1.96163,2.99675,3.4733.70264,1.51167,1.05507,3.33809,1.05507,5.48147,0,2.12454-.35021,3.93544-1.04842,5.43382-.69931,1.49726-1.69564,2.64653-2.9901,3.44448-1.29334.79906-2.82496,1.19914-4.59597,1.19914ZM666.22258,1094.58618c1.14373,0,2.12233-.26266,2.93468-.79019.81236-.52643,1.43188-1.34765,1.85967-2.46478.42668-1.11602.63947-2.54679.63947-4.28898,0-1.78874-.21611-3.25054-.64612-4.3854-.43222-1.13486-1.05396-1.97271-1.86632-2.51243-.81236-.54083-1.78652-.81125-2.92138-.81125s-2.11235.27263-2.93468.8179c-.82122.54416-1.45515,1.38422-1.89956,2.51908s-.66717,2.59223-.66717,4.3721c0,1.75217.22276,3.18404.66717,4.29563.44441,1.1127,1.07834,1.9317,1.89956,2.45813.82233.52753,1.79982.79019,2.93468.79019Z" style="stroke:#000; stroke-width:.5px;"/><path d="M687.50789,1097.07867c-1.77101,0-3.19623-.29037-4.27679-.8722-1.08056-.58073-1.86742-1.42966-2.36282-2.54679-.49429-1.11602-.74143-2.47808-.74143-4.08506v-12.46021h3.00894v12.82815c0,1.56154.38346,2.7219,1.15149,3.47884.76692.75916,1.83972,1.13708,3.22061,1.13708.91653,0,1.70894-.16513,2.37612-.4965s1.17808-.84006,1.53162-1.52497c.35464-.68602.53197-1.55046.53197-2.59445v-12.82815h2.95463v12.69184c0,1.53384-.25379,2.8438-.76249,3.9288s-1.30553,1.91397-2.38942,2.48584c-1.08499.57186-2.49913.8578-4.24243.8578Z" style="stroke:#000; stroke-width:.5px;"/><path d="M700.74499,1096.80603v-19.69163h6.54984c2.44261,0,4.28344.43998,5.52248,1.31994,1.23904.88107,1.85856,2.15668,1.85856,3.82683,0,1.01739-.26488,1.89624-.79684,2.63545-.53086.74032-1.45848,1.35984-2.78396,1.85856.78022.17289,1.43409.42003,1.96052.74254s.94202.69266,1.24569,1.11048c.30477.41782.52199.8711.65388,1.36095.13188.49096.19727.99965.19727,1.52608,0,1.78874-.62839,3.12087-1.88516,3.9964-1.25788.87664-3.17185,1.3144-5.74081,1.3144h-6.78147ZM703.65862,1085.63917h4.15377c.49096,0,.97195-.04987,1.44407-.14962s.90324-.26598,1.29334-.49761.70375-.54194.93981-.93316c.23606-.39011.35354-.86666.35354-1.42966,0-1.07058-.40341-1.86521-1.21133-2.38277s-1.85745-.77689-3.14636-.77689h-3.82683v6.1697ZM703.65862,1094.43657h3.88114c1.5161,0,2.67202-.26155,3.46665-.78354.79352-.52199,1.19138-1.30443,1.19138-2.34841,0-.75362-.19505-1.37092-.58516-1.85302-.39122-.48099-.91764-.83452-1.58038-1.06172s-1.40306-.34024-2.21985-.34024h-4.15377v6.38692Z" style="stroke:#000; stroke-width:.5px;"/><path d="M720.46433,1096.80603l.0133-19.69163h2.95463v17.13154h9.09774v2.56009h-12.06567Z" style="stroke:#000; stroke-width:.5px;"/><path d="M737.55487,1096.80603v-19.69163h12.71954l-.01441,2.53238h-9.7771v5.97908h8.72869v2.50578h-8.74309v6.10099l10.03755.0133v2.56009h-12.95117Z" style="stroke:#000; stroke-width:.5px;"/><path d="M762.79003,1097.07867c-.96308,0-1.88626-.11858-2.77177-.35464-.88439-.23606-1.68789-.58738-2.41047-1.05507-.72148-.46769-1.31662-1.05063-1.7832-1.74995-.46769-.69931-.76138-1.5161-.87885-2.45148h3.03664c.15405.70818.46104,1.30332.91986,1.7843.45771.48099,1.03512.8445,1.72889,1.08942.69488.24493,1.46402.36794,2.30851.36794.78022,0,1.50281-.12302,2.16555-.36794s1.19803-.59957,1.60698-1.06282c.40784-.46215.61287-1.02958.61287-1.70229,0-.75251-.25268-1.34987-.75584-1.78985-.50426-.44109-1.2601-.79241-2.26751-1.05618l-3.94985-.98081c-.95311-.22609-1.79317-.55081-2.51908-.97306s-1.28891-.98081-1.68899-1.67569c-.39897-.69377-.59846-1.55379-.59846-2.58004,0-1.14373.31475-2.14006.94646-2.98899.6306-.84893,1.4884-1.50502,2.57339-1.96828s2.31295-.69488,3.68387-.69488c1.57041,0,2.89368.2682,3.9698.80349,1.07612.5364,1.89291,1.24236,2.45148,2.11789.55856.87664.84228,1.83196.85115,2.86708h-2.96904c-.08201-.8445-.32915-1.51389-.74254-2.00928-.41338-.49429-.93537-.85115-1.56598-1.06837-.6306-.21833-1.3277-.32694-2.09019-.32694-1.34432,0-2.35395.29701-3.02999.89215-.67604.59403-1.01517,1.29999-1.01517,2.11678,0,.75362.24825,1.34876.74254,1.7843.49539.43555,1.22796.77246,2.1999,1.00741l3.81243.93981c1.19914.26377,2.1589.65609,2.88038,1.17808s1.24126,1.13486,1.55933,1.83861.47655,1.47288.47655,2.30851c0,1.11713-.31253,2.10903-.93981,2.97569-.62617.86666-1.49948,1.54824-2.62104,2.04253s-2.43042.74254-3.9288.74254Z" style="stroke:#000; stroke-width:.5px;"/><path d="M775.7002,1096.80603v-19.69163h2.91363v8.25213h10.07744v-8.25213h2.91473v19.69163h-2.91473v-8.90601h-10.07744v8.90601h-2.91363Z" style="stroke:#000; stroke-width:.5px;"/><path d="M805.59118,1097.07867c-1.78874,0-3.33366-.39787-4.63698-1.19138-1.30221-.79463-2.3063-1.94279-3.00894-3.44559-.70375-1.50281-1.05618-3.31593-1.05618-5.44047,0-2.14338.35686-3.9698,1.06947-5.48147s1.72003-2.66981,3.02334-3.4733c1.30221-.80349,2.83937-1.20468,4.60927-1.20468,1.76103,0,3.28933.40119,4.58267,1.20468,1.29445.80349,2.293,1.96163,2.99675,3.4733.70264,1.51167,1.05507,3.33809,1.05507,5.48147,0,2.12454-.35021,3.93544-1.04842,5.43382-.69931,1.49726-1.69564,2.64653-2.9901,3.44448-1.29334.79906-2.82496,1.19914-4.59597,1.19914ZM805.59118,1094.58618c1.14373,0,2.12233-.26266,2.93468-.79019.81236-.52643,1.43188-1.34765,1.85967-2.46478.42668-1.11602.63947-2.54679.63947-4.28898,0-1.78874-.21611-3.25054-.64612-4.3854-.43222-1.13486-1.05396-1.97271-1.86632-2.51243-.81236-.54083-1.78652-.81125-2.92138-.81125s-2.11235.27263-2.93468.8179c-.82122.54416-1.45515,1.38422-1.89956,2.51908s-.66717,2.59223-.66717,4.3721c0,1.75217.22276,3.18404.66717,4.29563.44441,1.1127,1.07834,1.9317,1.89956,2.45813.82233.52753,1.79982.79019,2.93468.79019Z" style="stroke:#000; stroke-width:.5px;"/><path d="M827.13583,1097.07867c-1.78874,0-3.33366-.39787-4.63698-1.19138-1.30221-.79463-2.3063-1.94279-3.00894-3.44559-.70375-1.50281-1.05618-3.31593-1.05618-5.44047,0-2.14338.35686-3.9698,1.06947-5.48147s1.72003-2.66981,3.02334-3.4733c1.30221-.80349,2.83937-1.20468,4.60927-1.20468,1.76103,0,3.28933.40119,4.58267,1.20468,1.29445.80349,2.293,1.96163,2.99675,3.4733.70264,1.51167,1.05507,3.33809,1.05507,5.48147,0,2.12454-.35021,3.93544-1.04842,5.43382-.69931,1.49726-1.69564,2.64653-2.9901,3.44448-1.29334.79906-2.82496,1.19914-4.59597,1.19914ZM827.13583,1094.58618c1.14373,0,2.12233-.26266,2.93468-.79019.81236-.52643,1.43188-1.34765,1.85967-2.46478.42668-1.11602.63947-2.54679.63947-4.28898,0-1.78874-.21611-3.25054-.64612-4.3854-.43222-1.13486-1.05396-1.97271-1.86632-2.51243-.81236-.54083-1.78652-.81125-2.92138-.81125s-2.11235.27263-2.93468.8179c-.82122.54416-1.45515,1.38422-1.89956,2.51908s-.66717,2.59223-.66717,4.3721c0,1.75217.22276,3.18404.66717,4.29563.44441,1.1127,1.07834,1.9317,1.89956,2.45813.82233.52753,1.79982.79019,2.93468.79019Z" style="stroke:#000; stroke-width:.5px;"/><path d="M845.38561,1096.80603v-17.03623h-6.23731v-2.6554h15.13002v2.6554h-5.95138v17.03623h-2.94133Z" style="stroke:#000; stroke-width:.5px;"/><path d="M858.73022,1096.80603v-19.69163h2.91363v19.69163h-2.91363Z" style="stroke:#000; stroke-width:.5px;"/><path d="M867.99087,1096.80603v-19.69163h2.81831l10.02314,14.68006v-14.68006h2.92803v19.69163h-2.61439l-10.24147-14.9804v14.9804h-2.91363Z" style="stroke:#000; stroke-width:.5px;"/><path d="M897.52831,1097.07867c-1.75217,0-3.26384-.40008-4.53502-1.19914-1.27118-.79795-2.24978-1.94944-2.93468-3.45224-.68602-1.5017-1.02847-3.30595-1.02847-5.41276,0-2.12454.35243-3.94653,1.05618-5.46817.70264-1.52054,1.7034-2.68421,3.00226-3.49325,1.2978-.80792,2.82388-1.21133,4.57604-1.21133,1.04398,0,2.01261.17732,2.90698.53086.89437.35464,1.68456.83563,2.36947,1.44407.68602.60733,1.22796,1.29778,1.62804,2.06913.39897.77246.62617,1.58038.68047,2.42488h-3.10425c-.12745-.69931-.39787-1.34654-.81125-1.94057-.41227-.59514-.93759-1.07391-1.57263-1.43742-.63504-.3624-1.35319-.54416-2.15114-.54416-1.06282,0-2.00263.26266-2.81945.78908-.81677.52753-1.45513,1.34876-1.91284,2.46478-.45882,1.11713-.68823,2.55233-.68823,4.30339,0,1.37203.14297,2.53792.4289,3.50101.28593.96197.67826,1.73776,1.17808,2.32846.49872.5896,1.08499,1.01849,1.7566,1.28669s1.38976.40119,2.15225.40119c.75362,0,1.41636-.13078,1.98823-.39454.57186-.26266,1.05063-.604,1.43631-1.02071.38568-.41782.68602-.86999.8988-1.35541.21389-.48542.33359-.95532.36129-1.40971l.10861-1.59368h-4.60262v-2.09684l7.63926.02771v10.18605h-2.11013v-2.88703c-.34578.53529-.77689,1.04398-1.29445,1.52497-.51756.48209-1.15259.87442-1.90621,1.17808s-1.65242.4566-2.69641.4566Z" style="stroke:#000; stroke-width:.5px;"/></g></g><g id="control_system_glow"><g style="filter:url(#outer-glow-51);"><path d="M563.2283,608.99153c-1.77876,0-3.30484-.41117-4.57602-1.23239-1.27118-.82233-2.24423-1.99266-2.92028-3.5143-.67715-1.52054-1.01517-3.34252-1.01517-5.46707,0-2.11568.3358-3.91993,1.00852-5.41387.67161-1.49283,1.64245-2.63434,2.91363-3.42454s2.80058-1.18473,4.58932-1.18473c1.41636,0,2.67424.29037,3.77253.8711,1.09829.58184,1.98158,1.36206,2.64875,2.34287.66717.97971,1.06393,2.0658,1.19138,3.25497h-3.10425c-.13632-.74475-.39787-1.41858-.78354-2.02258s-.89659-1.08056-1.53162-1.42966c-.63614-.35021-1.38976-.52532-2.26086-.52532-1.11713,0-2.0658.26377-2.84602.79019-.78133.52643-1.37425,1.34876-1.77766,2.46478-.40452,1.11713-.60622,2.55566-.60622,4.3178,0,2.65983.44996,4.60484,1.34876,5.83501s2.19215,1.84526,3.88114,1.84526c.8711,0,1.62471-.1884,2.26086-.56521.63504-.37681,1.14594-.87996,1.53162-1.51167.38568-.6306.64723-1.31883.78354-2.06248h3.10425c-.10861.86223-.3358,1.6901-.68047,2.48473-.34578.79463-.82455,1.50502-1.43742,2.13119s-1.37314,1.11935-2.28081,1.47732c-.90767.35908-1.97936.53862-3.21397.53862Z" style="stroke:#000; stroke-miterlimit:10; stroke-width:.5px;"/><path d="M583.75112,608.99153c-1.78874,0-3.33366-.39787-4.63698-1.19138-1.30221-.79463-2.3063-1.94279-3.00894-3.44559-.70375-1.50281-1.05618-3.31593-1.05618-5.44047,0-2.14338.35686-3.9698,1.06947-5.48147s1.72003-2.66981,3.02334-3.4733c1.30221-.80349,2.83937-1.20468,4.60927-1.20468,1.76103,0,3.28933.40119,4.58267,1.20468,1.29445.80349,2.293,1.96163,2.99675,3.4733.70264,1.51167,1.05507,3.33809,1.05507,5.48147,0,2.12454-.35021,3.93544-1.04842,5.43382-.69931,1.49726-1.69564,2.64653-2.9901,3.44448-1.29334.79906-2.82496,1.19914-4.59597,1.19914ZM583.75112,606.49904c1.14373,0,2.12233-.26266,2.93468-.79019.81236-.52643,1.43188-1.34765,1.85967-2.46478.42668-1.11602.63947-2.54679.63947-4.28898,0-1.78874-.21611-3.25054-.64612-4.3854-.43222-1.13486-1.05396-1.97271-1.86632-2.51243-.81236-.54083-1.78652-.81125-2.92138-.81125s-2.11235.27263-2.93468.8179c-.82122.54416-1.45515,1.38422-1.89956,2.51908s-.66717,2.59223-.66717,4.3721c0,1.75217.22276,3.18404.66717,4.29563.44441,1.1127,1.07834,1.9317,1.89956,2.45813.82233.52753,1.79982.79019,2.93468.79019Z" style="stroke:#000; stroke-miterlimit:10; stroke-width:.5px;"/><path d="M597.6554,608.7189v-19.69163h2.81831l10.02314,14.68006v-14.68006h2.92803v19.69163h-2.61439l-10.24147-14.9804v14.9804h-2.91363Z" style="stroke:#000; stroke-miterlimit:10; stroke-width:.5px;"/><path d="M624.1019,608.7189v-17.03623h-6.23731v-2.6554h15.13002v2.6554h-5.95138v17.03623h-2.94133Z" style="stroke:#000; stroke-miterlimit:10; stroke-width:.5px;"/><path d="M637.44761,608.7189v-19.69163h7.81658c1.4618,0,2.67313.22387,3.63621.67382.96197.44885,1.67902,1.08721,2.15114,1.91286.47212.82676.70818,1.80315.70818,2.92803,0,1.06282-.17843,1.94722-.53751,2.6554s-.82122,1.28559-1.38865,1.73-1.16479.79463-1.79095,1.04842l3.81243,8.74309h-3.06324l-3.4999-8.23883h-4.93067v8.23883h-2.91363ZM640.36124,598.12389h4.11277c1.37092,0,2.43375-.29701,3.18737-.89215.75362-.59403,1.13043-1.44518,1.13043-2.55344,0-1.08942-.34356-1.91508-1.02847-2.47808-.68602-.563-1.61363-.8445-2.78507-.8445h-4.61703v6.76817Z" style="stroke:#000; stroke-miterlimit:10; stroke-width:.5px;"/><path d="M665.01014,608.99153c-1.78874,0-3.33366-.39787-4.63698-1.19138-1.30221-.79463-2.3063-1.94279-3.00894-3.44559-.70375-1.50281-1.05618-3.31593-1.05618-5.44047,0-2.14338.35686-3.9698,1.06947-5.48147s1.72003-2.66981,3.02334-3.4733c1.30221-.80349,2.83937-1.20468,4.60927-1.20468,1.76103,0,3.28933.40119,4.58267,1.20468,1.29445.80349,2.293,1.96163,2.99675,3.4733.70264,1.51167,1.05507,3.33809,1.05507,5.48147,0,2.12454-.35021,3.93544-1.04842,5.43382-.69931,1.49726-1.69564,2.64653-2.9901,3.44448-1.29334.79906-2.82496,1.19914-4.59597,1.19914ZM665.01014,606.49904c1.14373,0,2.12233-.26266,2.93468-.79019.81236-.52643,1.43188-1.34765,1.85965-2.46478.4267-1.11602.63949-2.54679.63949-4.28898,0-1.78874-.21611-3.25054-.64612-4.3854-.43222-1.13486-1.05396-1.97271-1.86632-2.51243-.81236-.54083-1.78652-.81125-2.92138-.81125s-2.11235.27263-2.93468.8179c-.82122.54416-1.45515,1.38422-1.89956,2.51908s-.66717,2.59223-.66717,4.3721c0,1.75217.22276,3.18404.66717,4.29563.44441,1.1127,1.07834,1.9317,1.89956,2.45813.82233.52753,1.79982.79019,2.93468.79019Z" style="stroke:#000; stroke-miterlimit:10; stroke-width:.5px;"/><path d="M678.91552,608.7189l.0133-19.69163h2.95463v17.13154h9.09774v2.56009h-12.06567Z" style="stroke:#000; stroke-miterlimit:10; stroke-width:.5px;"/><path d="M562.64313,641.67534c-.96308,0-1.88626-.11858-2.77177-.35464-.88439-.23606-1.68789-.58738-2.41047-1.05507-.72148-.46769-1.31662-1.05063-1.7832-1.74995-.46769-.69931-.76138-1.5161-.87885-2.45148h3.03664c.15405.70818.46104,1.30332.91986,1.7843.45771.48099,1.03512.8445,1.72889,1.08942.69488.24493,1.46402.36794,2.30851.36794.78022,0,1.50281-.12302,2.16555-.36794s1.19803-.59957,1.60698-1.06282c.40784-.46215.61287-1.02958.61287-1.70229,0-.75251-.25268-1.34987-.75584-1.78985-.50426-.44109-1.2601-.79241-2.26751-1.05618l-3.94985-.98081c-.95311-.22609-1.79317-.55081-2.51908-.97306s-1.28891-.98081-1.68899-1.67569c-.39897-.69377-.59846-1.55379-.59846-2.58004,0-1.14373.31475-2.14006.94646-2.98899.6306-.84893,1.4884-1.50502,2.57339-1.96828s2.31295-.69488,3.68387-.69488c1.57041,0,2.89368.2682,3.9698.80349,1.07612.5364,1.89291,1.24236,2.45148,2.11789.55856.87664.84228,1.83196.85115,2.86708h-2.96904c-.08201-.8445-.32915-1.51389-.74254-2.00928-.41338-.49429-.93537-.85115-1.56598-1.06837-.6306-.21833-1.3277-.32694-2.09019-.32694-1.34432,0-2.35395.29701-3.02999.89215-.67604.59403-1.01517,1.29999-1.01517,2.11678,0,.75362.24825,1.34876.74254,1.7843.49539.43555,1.22796.77246,2.1999,1.00741l3.81243.93981c1.19914.26377,2.1589.65609,2.88038,1.17808s1.24126,1.13486,1.55933,1.83861.47655,1.47288.47655,2.30851c0,1.11713-.31253,2.10903-.93981,2.97569-.62617.86666-1.49948,1.54824-2.62104,2.04253s-2.43042.74254-3.9288.74254Z" style="stroke:#000; stroke-miterlimit:10; stroke-width:.5px;"/><path d="M580.11491,641.4027v-8.36185l-6.75487-11.32978h3.18737l5.03817,8.75639,4.97056-8.75639h3.18737l-6.71386,11.34308v8.34855h-2.91473Z" style="stroke:#000; stroke-miterlimit:10; stroke-width:.5px;"/><path d="M600.76076,641.67534c-.96308,0-1.88626-.11858-2.77177-.35464-.88439-.23606-1.68789-.58738-2.41047-1.05507-.72148-.46769-1.31662-1.05063-1.7832-1.74995-.46769-.69931-.76138-1.5161-.87885-2.45148h3.03664c.15405.70818.46104,1.30332.91986,1.7843.45771.48099,1.03512.8445,1.72889,1.08942.69488.24493,1.46402.36794,2.30851.36794.78022,0,1.50281-.12302,2.16555-.36794s1.19803-.59957,1.60698-1.06282c.40784-.46215.61287-1.02958.61287-1.70229,0-.75251-.25268-1.34987-.75584-1.78985-.50426-.44109-1.2601-.79241-2.26751-1.05618l-3.94985-.98081c-.95311-.22609-1.79317-.55081-2.51908-.97306s-1.28891-.98081-1.68899-1.67569c-.39897-.69377-.59846-1.55379-.59846-2.58004,0-1.14373.31475-2.14006.94646-2.98899.6306-.84893,1.4884-1.50502,2.57339-1.96828s2.31295-.69488,3.68387-.69488c1.57041,0,2.89368.2682,3.9698.80349,1.07612.5364,1.89291,1.24236,2.45148,2.11789.55856.87664.84228,1.83196.85115,2.86708h-2.96904c-.08201-.8445-.32915-1.51389-.74254-2.00928-.41338-.49429-.93537-.85115-1.56598-1.06837-.6306-.21833-1.3277-.32694-2.09019-.32694-1.34432,0-2.35395.29701-3.02999.89215-.67604.59403-1.01517,1.29999-1.01517,2.11678,0,.75362.24825,1.34876.74254,1.7843.49539.43555,1.22796.77246,2.1999,1.00741l3.81243.93981c1.19914.26377,2.1589.65609,2.88038,1.17808s1.24126,1.13486,1.55933,1.83861.47655,1.47288.47655,2.30851c0,1.11713-.31253,2.10903-.93981,2.97569-.62617.86666-1.49948,1.54824-2.62104,2.04253s-2.43042.74254-3.9288.74254Z" style="stroke:#000; stroke-miterlimit:10; stroke-width:.5px;"/><path d="M618.01532,641.4027v-17.03623h-6.23731v-2.6554h15.13002v2.6554h-5.95138v17.03623h-2.94133Z" style="stroke:#000; stroke-miterlimit:10; stroke-width:.5px;"/><path d="M631.36103,641.4027v-19.69163h12.71954l-.01441,2.53238h-9.7771v5.97908h8.72869v2.50578h-8.74309v6.10099l10.03755.0133v2.56009h-12.95117Z" style="stroke:#000; stroke-miterlimit:10; stroke-width:.5px;"/><path d="M649.73161,641.4027v-19.69163h4.11277l5.54243,15.66088,5.62444-15.66088h4.08506v19.69163h-2.98234v-15.67418l-5.44712,15.67418h-2.54679l-5.42052-15.55227v15.55227h-2.96793Z" style="stroke:#000; stroke-miterlimit:10; stroke-width:.5px;"/></g></g></svg>