<?xml version="1.0" encoding="UTF-8"?><svg id="Layer_1" xmlns="http://www.w3.org/2000/svg" viewBox="0 0 971.27138 219.10699"><rect x="838.25771" y="45.8433" width="120.61391" height="39.99103" style="fill:#fff; stroke:#000; stroke-miterlimit:10; stroke-width:1.25px;"/><rect x="838.25771" y="103.71729" width="120.61391" height="39.99103" style="fill:#fff; stroke:#000; stroke-miterlimit:10; stroke-width:1.25px;"/><rect x="838.25771" y="161.91341" width="120.61391" height="39.99103" style="fill:#fff; stroke:#000; stroke-miterlimit:10; stroke-width:1.25px;"/><rect x="21.60977" y="30.31771" width="303.09023" height="178.38102"/><rect x="14.24299" y="22.95094" width="303.09023" height="178.38102" style="fill:#fff; stroke:#000; stroke-miterlimit:10; stroke-width:1.25px;"/><rect x="33.4739" y="6.08521" width="178.3319" height="35.83626" style="fill:#fff; stroke:#000; stroke-miterlimit:10; stroke-width:1.25px;"/><path d="m53.93749,21.61396c0-.38037-.07568-.71582-.22656-1.00635-.15088-.29102-.35498-.53125-.6123-.72119-.25732-.19043-.55322-.33594-.88867-.43652s-.6875-.15088-1.05664-.15088c-.32471,0-.63184.04199-.92236.12598-.29102.08398-.55127.2041-.78027.36035-.229.15674-.41064.34961-.54492.57861-.13428.22949-.20117.49512-.20117.79688v.10059c0,.32471.06689.60107.20117.83057.13428.229.33252.4248.59521.58691s.58984.29639.98145.40234c.39111.10645.84961.19873,1.37549.27686,1.22949.19043,2.13525.55078,2.7168,1.08203s.87207,1.24365.87207,2.13818v.20117c0,.50342-.08643.96484-.25977,1.38379-.17334.41943-.43066.78027-.77148,1.08203-.34131.30176-.76318.53662-1.26611.70459-.50342.16748-1.08496.25146-1.74463.25146-.74902,0-1.41162-.10889-1.9873-.32715-.57617-.21777-1.05664-.52002-1.44287-.90576-.38574-.38574-.6792-.83838-.88037-1.3584s-.30176-1.0874-.30176-1.70264v-.50293h1.40869v.40234c0,1.02881.28223,1.80029.84717,2.31445.56445.51465,1.3501.77197,2.35645.77197.87207,0,1.52881-.19287,1.9707-.57861.44189-.38623.6626-.89746.6626-1.53516v-.10059c0-.61475-.22656-1.08447-.6792-1.40869-.45312-.32422-1.18848-.55908-2.20557-.70459-.59277-.07812-1.12695-.19824-1.60205-.36035s-.88037-.37451-1.21582-.6377c-.33545-.26221-.59277-.57861-.77148-.94727-.1792-.36914-.26855-.80518-.26855-1.30859v-.20117c0-.4585.09521-.87744.28516-1.25781.18994-.37988.45557-.70996.79688-.98975.34082-.2793.74902-.49463,1.22412-.64551.47559-.15088.99805-.22656,1.56836-.22656.65967,0,1.24951.09521,1.76953.28516.52002.19043.9585.44434,1.31689.76318.35742.31836.62891.69336.81348,1.12354.18408.43066.27637.88086.27637,1.3501v.70459h-1.40869v-.60352Z"/><path d="m57.91258,18.22578h2.68359l1.57666,11.13672h.20117l1.57666-11.13672h2.68359v11.74072h-1.30811v-11.13721h-.20117l-1.57666,11.13721h-2.54932l-1.57666-11.13721h-.20166v11.13721h-1.30811v-11.74072Z"/><path d="m75.89256,27.04804h-5.03174l-.85547,2.91846h-1.50977l3.55615-11.74072h2.6499l3.55566,11.74072h-1.50928l-.85547-2.91846Zm-2.6167-8.21875l-2.0293,6.91064h4.26025l-2.02979-6.91064h-.20117Z"/><path d="m88.15331,29.9665h-1.40918v-3.9248c0-.29053-.06689-.51416-.20117-.6709-.13428-.15625-.36865-.23486-.7041-.23486h-3.65674v4.83057h-1.40869v-11.74072h4.19287c.604,0,1.12939.08643,1.57666.25977.44727.17383.81934.40576,1.11572.69629.2959.29102.51953.62891.6709,1.01465.15088.38574.22607.79102.22607,1.21582v.50342c0,.43604-.12012.87207-.36035,1.30811-.24072.43604-.6123.77148-1.11572,1.00635v.20117c.33545.05615.59814.19043.78857.40283.18994.2124.28516.51416.28516.90576v4.22656Zm-5.97119-6.13867h2.6167c.79395,0,1.38379-.17041,1.76953-.51172.38574-.34082.57861-.84131.57861-1.50098v-.30225c0-.59229-.19287-1.07031-.57861-1.43359s-.97559-.54541-1.76953-.54541h-2.6167v4.29395Z"/><path d="m91.45702,18.22578h8.25195v1.30811h-3.42139v10.43262h-1.40918v-10.43262h-3.42139v-1.30811Z"/><path d="m113.4287,18.22578h2.68359l1.57666,11.13672h.20117l1.57666-11.13672h2.68359v11.74072h-1.30811v-11.13721h-.20117l-1.57666,11.13721h-2.54932l-1.57666-11.13721h-.20166v11.13721h-1.30811v-11.74072Z"/><path d="m131.40917,27.04804h-5.03174l-.85547,2.91846h-1.50977l3.55615-11.74072h2.6499l3.55566,11.74072h-1.50928l-.85547-2.91846Zm-2.6167-8.21875l-2.0293,6.91064h4.26025l-2.02979-6.91064h-.20117Z"/><path d="m140.06346,28.89326c.48047,0,.8916-.08105,1.23242-.24316.34131-.16211.62061-.38037.83887-.6543.21777-.27393.37988-.58691.48633-.93945.10596-.35205.15918-.72363.15918-1.11523v-.20117h1.40918v.20117c0,.59277-.08984,1.14893-.26855,1.66895s-.44189.97266-.78809,1.3584c-.34668.38574-.77734.68799-1.2915.90576-.51465.21826-1.10693.32715-1.77783.32715-1.29736,0-2.30908-.4082-3.03613-1.22461-.72705-.81592-1.09033-2.00684-1.09033-3.57227v-2.6167c0-1.52051.36328-2.7002,1.09033-3.53906.72705-.83838,1.73877-1.25781,3.03613-1.25781.6709,0,1.26318.10889,1.77783.32715.51416.21777.94482.52002,1.2915.90576.34619.38574.60938.83838.78809,1.3584s.26855,1.07617.26855,1.66895v.20117h-1.40918v-.20117c-.01123-.37988-.06982-.74902-.17578-1.10693-.10645-.35791-.26855-.67383-.48682-.94775-.21777-.27393-.49463-.4917-.83008-.6543-.33545-.16162-.74365-.24316-1.22412-.24316-.90576,0-1.58545.33008-2.03809.98975s-.6792,1.52637-.6792,2.59961v2.41553c0,1.15186.22656,2.0376.6792,2.6582s1.13232.93115,2.03809.93115Z"/><path d="m147.19188,18.22578h1.40869v5.19922h4.99805v-5.19922h1.40918v11.74072h-1.40918v-5.23291h-4.99805v5.23291h-1.40869v-11.74072Z"/><path d="m158.47899,18.22578h7.44727v1.30811h-3.01904v9.12451h3.01904v1.30811h-7.44727v-1.30811h3.01904v-9.12451h-3.01904v-1.30811Z"/><path d="m175.60399,29.3625h.20117v-11.13672h1.40918v11.74072h-2.81787l-3.38818-11.13721h-.20117v11.13721h-1.40869v-11.74072h2.81738l3.38818,11.13672Z"/><path d="m180.8535,18.22578h7.11133v1.30811h-5.70264v3.89111h5.60205v1.30859h-5.60205v3.9248h5.80371v1.30811h-7.2124v-11.74072Z"/><path d="m198.28026,21.61396c0-.38037-.07568-.71582-.22656-1.00635-.15088-.29102-.35498-.53125-.6123-.72119-.25732-.19043-.55322-.33594-.88867-.43652s-.6875-.15088-1.05664-.15088c-.32471,0-.63184.04199-.92236.12598-.29102.08398-.55127.2041-.78027.36035-.229.15674-.41064.34961-.54492.57861-.13428.22949-.20117.49512-.20117.79688v.10059c0,.32471.06689.60107.20117.83057.13428.229.33252.4248.59521.58691s.58984.29639.98145.40234c.39111.10645.84961.19873,1.37549.27686,1.22949.19043,2.13525.55078,2.7168,1.08203s.87207,1.24365.87207,2.13818v.20117c0,.50342-.08643.96484-.25977,1.38379-.17334.41943-.43066.78027-.77148,1.08203-.34131.30176-.76318.53662-1.26611.70459-.50342.16748-1.08496.25146-1.74463.25146-.74902,0-1.41162-.10889-1.9873-.32715-.57617-.21777-1.05664-.52002-1.44287-.90576-.38574-.38574-.6792-.83838-.88037-1.3584s-.30176-1.0874-.30176-1.70264v-.50293h1.40869v.40234c0,1.02881.28223,1.80029.84717,2.31445.56445.51465,1.3501.77197,2.35645.77197.87207,0,1.52881-.19287,1.9707-.57861.44189-.38623.6626-.89746.6626-1.53516v-.10059c0-.61475-.22656-1.08447-.6792-1.40869-.45312-.32422-1.18848-.55908-2.20557-.70459-.59277-.07812-1.12695-.19824-1.60205-.36035s-.88037-.37451-1.21582-.6377c-.33545-.26221-.59277-.57861-.77148-.94727-.1792-.36914-.26855-.80518-.26855-1.30859v-.20117c0-.4585.09521-.87744.28516-1.25781.18994-.37988.45557-.70996.79688-.98975.34082-.2793.74902-.49463,1.22412-.64551.47559-.15088.99805-.22656,1.56836-.22656.65967,0,1.24951.09521,1.76953.28516.52002.19043.9585.44434,1.31689.76318.35742.31836.62891.69336.81348,1.12354.18408.43066.27637.88086.27637,1.3501v.70459h-1.40869v-.60352Z"/><path d="m44.36473,74.30634h1.50977l3.06934,11.13672h.20117l3.06934-11.13672h1.50977l-3.3208,11.74121h-2.71729l-3.32129-11.74121Z"/><path d="m56.4243,74.30634h7.44727v1.30859h-3.01904v9.12402h3.01904v1.30859h-7.44727v-1.30859h3.01904v-9.12402h-3.01904v-1.30859Z"/><path d="m73.76708,83.12861h-5.03174l-.85547,2.91895h-1.50977l3.55615-11.74121h2.6499l3.55566,11.74121h-1.50928l-.85547-2.91895Zm-2.6167-8.21875l-2.0293,6.91113h4.26025l-2.02979-6.91113h-.20117Z"/><path d="m77.99364,74.30634h2.68359l1.57666,11.13672h.20117l1.57666-11.13672h2.68359v11.74121h-1.30811v-11.1377h-.20117l-1.57666,11.1377h-2.54932l-1.57666-11.1377h-.20166v11.1377h-1.30811v-11.74121Z"/><path d="m40.70848,98.69502c0-.38086-.07568-.71582-.22656-1.00684s-.35498-.53125-.6123-.7207c-.25732-.19043-.55322-.33594-.88867-.43652s-.6875-.15137-1.05664-.15137c-.32471,0-.63184.04199-.92236.12598-.29102.08398-.55127.2041-.78027.36035-.229.15723-.41064.34961-.54492.5791s-.20117.49512-.20117.79688v.10059c0,.32422.06689.60059.20117.83008s.33252.4248.59521.58691.58984.29688.98145.40234c.39111.10645.84961.19922,1.37549.27734,1.22949.19043,2.13525.55078,2.7168,1.08203s.87207,1.24316.87207,2.1377v.20117c0,.50391-.08643.96484-.25977,1.38379-.17334.41992-.43066.78027-.77148,1.08203-.34131.30176-.76318.53711-1.26611.70508-.50342.16699-1.08496.25098-1.74463.25098-.74902,0-1.41162-.1084-1.9873-.32715-.57617-.21777-1.05664-.51953-1.44287-.90527-.38574-.38574-.6792-.83887-.88037-1.3584-.20117-.52051-.30176-1.08789-.30176-1.70312v-.50293h1.40869v.40234c0,1.0293.28223,1.80078.84717,2.31445.56445.51465,1.3501.77246,2.35645.77246.87207,0,1.52881-.19336,1.9707-.5791s.6626-.89746.6626-1.53516v-.10059c0-.61426-.22656-1.08398-.6792-1.4082-.45312-.32422-1.18848-.55957-2.20557-.70508-.59277-.07812-1.12695-.19824-1.60205-.36035s-.88037-.37402-1.21582-.6377c-.33545-.26172-.59277-.57812-.77148-.94727-.1792-.36914-.26855-.80469-.26855-1.30859v-.20117c0-.45801.09521-.87695.28516-1.25781.18994-.37988.45557-.70996.79688-.98926.34082-.2793.74902-.49512,1.22412-.64551.47559-.15137.99805-.22656,1.56836-.22656.65967,0,1.24951.09473,1.76953.28516s.9585.44434,1.31689.7627c.35742.31836.62891.69336.81348,1.12402.18408.43066.27637.88086.27637,1.34961v.70508h-1.40869v-.60352Z"/><path d="m45.48876,95.30634h7.11133v1.30859h-5.70264v3.89062h5.60205v1.30859h-5.60205v3.9248h5.80371v1.30859h-7.2124v-11.74121Z"/><path d="m63.82079,107.04756h-1.40918v-3.9248c0-.29102-.06689-.51465-.20117-.6709s-.36865-.23535-.7041-.23535h-3.65674v4.83105h-1.40869v-11.74121h4.19287c.604,0,1.12939.08691,1.57666.25977.44727.17383.81934.40625,1.11572.69629.2959.29102.51953.62891.6709,1.01465.15088.38574.22607.79102.22607,1.21582v.50391c0,.43555-.12012.87207-.36035,1.30762-.24072.43652-.6123.77148-1.11572,1.00684v.20117c.33545.05566.59814.19043.78857.40234.18994.21289.28516.51465.28516.90625v4.22656Zm-5.97119-6.13867h2.6167c.79395,0,1.38379-.1709,1.76953-.51172s.57861-.8418.57861-1.50098v-.30273c0-.5918-.19287-1.07031-.57861-1.43359s-.97559-.54492-1.76953-.54492h-2.6167v4.29395Z"/><path d="m66.57128,95.30634h1.50977l3.06934,11.13672h.20117l3.06934-11.13672h1.50977l-3.3208,11.74121h-2.71729l-3.32129-11.74121Z"/><path d="m78.79833,95.30634h7.11133v1.30859h-5.70264v3.89062h5.60205v1.30859h-5.60205v3.9248h5.80371v1.30859h-7.2124v-11.74121Z"/><path d="m97.13085,107.04756h-1.40918v-3.9248c0-.29102-.06689-.51465-.20117-.6709s-.36865-.23535-.7041-.23535h-3.65674v4.83105h-1.40869v-11.74121h4.19287c.604,0,1.12939.08691,1.57666.25977.44727.17383.81934.40625,1.11572.69629.2959.29102.51953.62891.6709,1.01465.15088.38574.22607.79102.22607,1.21582v.50391c0,.43555-.12012.87207-.36035,1.30762-.24072.43652-.6123.77148-1.11572,1.00684v.20117c.33545.05566.59814.19043.78857.40234.18994.21289.28516.51465.28516.90625v4.22656Zm-5.97119-6.13867h2.6167c.79395,0,1.38379-.1709,1.76953-.51172s.57861-.8418.57861-1.50098v-.30273c0-.5918-.19287-1.07031-.57861-1.43359s-.97559-.54492-1.76953-.54492h-2.6167v4.29395Z"/><path d="m235.70311,74.30634h1.40918v10.43262h6.13867v1.30859h-7.54785v-11.74121Z"/><path d="m246.35399,78.86884c0-1.52051.36328-2.7002,1.09033-3.53906.72656-.83887,1.73828-1.25781,3.03564-1.25781,1.29688,0,2.30908.41895,3.03613,1.25781.72656.83887,1.08984,2.01855,1.08984,3.53906v2.61621c0,1.56543-.36328,2.75684-1.08984,3.57227-.72705.81641-1.73926,1.22461-3.03613,1.22461-1.29736,0-2.30908-.4082-3.03564-1.22461-.72705-.81543-1.09033-2.00684-1.09033-3.57227v-2.61621Zm4.12598,6.10547c.90576,0,1.58496-.31055,2.03809-.93164.45264-.62012.6792-1.50586.6792-2.6582v-2.41504c0-1.07324-.22656-1.94043-.6792-2.59961-.45312-.66016-1.13232-.99023-2.03809-.99023s-1.58496.33008-2.0376.99023c-.45312.65918-.67969,1.52637-.67969,2.59961v2.41504c0,1.15234.22656,2.03809.67969,2.6582.45264.62109,1.13184.93164,2.0376.93164Z"/><path d="m261.65038,84.97431c.48047,0,.8916-.08105,1.23242-.24316.34131-.16211.62061-.38086.83887-.6543.21777-.27441.37988-.58691.48633-.93945.10596-.35254.15918-.72363.15918-1.11523v-.20117h1.40918v.20117c0,.59277-.08984,1.14844-.26855,1.66895-.17871.51953-.44189.97266-.78809,1.3584-.34668.38574-.77734.6875-1.2915.90527-.51465.21875-1.10693.32715-1.77783.32715-1.29736,0-2.30908-.4082-3.03613-1.22461-.72705-.81543-1.09033-2.00684-1.09033-3.57227v-2.61621c0-1.52051.36328-2.7002,1.09033-3.53906s1.73877-1.25781,3.03613-1.25781c.6709,0,1.26318.1084,1.77783.32715.51416.21777.94482.51953,1.2915.90527.34619.38574.60938.83887.78809,1.3584.17871.52051.26855,1.07617.26855,1.66895v.20117h-1.40918v-.20117c-.01123-.37988-.06982-.74902-.17578-1.10645-.10645-.3584-.26855-.67383-.48682-.94824-.21777-.27344-.49463-.49121-.83008-.6543-.33545-.16113-.74365-.24316-1.22412-.24316-.90576,0-1.58545.33008-2.03809.99023-.45264.65918-.6792,1.52637-.6792,2.59961v2.41504c0,1.15234.22656,2.03809.6792,2.6582.45264.62109,1.13232.93164,2.03809.93164Z"/><path d="m275.20262,83.12861h-5.03174l-.85547,2.91895h-1.50977l3.55615-11.74121h2.6499l3.55566,11.74121h-1.50928l-.85547-2.91895Zm-2.6167-8.21875l-2.0293,6.91113h4.26025l-2.02979-6.91113h-.20117Z"/><path d="m280.1162,74.30634h1.40918v10.43262h6.13867v1.30859h-7.54785v-11.74121Z"/><path d="m241.02049,95.30634h3.85742c1.45361,0,2.51611.34668,3.18701,1.04004s1.00635,1.80078,1.00635,3.32129v3.01855c0,1.52148-.33545,2.62793-1.00635,3.32129s-1.7334,1.04004-3.18701,1.04004h-3.85742v-1.3252h1.00635v-9.10742h-1.00635v-1.30859Zm3.65625,10.43262c.51416,0,.9585-.0498,1.3335-.15039.37451-.10156.68457-.27148.93066-.51172s.42773-.5625.54541-.96484c.11719-.40234.17578-.91113.17578-1.52637v-2.81738c0-.61523-.05859-1.12402-.17578-1.52637-.11768-.40234-.29932-.72363-.54541-.96484-.24609-.24023-.55615-.41113-.93066-.51172-.375-.10059-.81934-.15039-1.3335-.15039h-1.24121v9.12402h1.24121Z"/><path d="m252.30809,95.30634h7.44727v1.30859h-3.01904v9.12402h3.01904v1.30859h-7.44727v-1.30859h3.01904v-9.12402h-3.01904v-1.30859Z"/><path d="m269.90233,98.69502c0-.38086-.07568-.71582-.22656-1.00684s-.35498-.53125-.6123-.7207c-.25732-.19043-.55322-.33594-.88867-.43652s-.6875-.15137-1.05664-.15137c-.32471,0-.63184.04199-.92236.12598-.29102.08398-.55127.2041-.78027.36035-.229.15723-.41064.34961-.54492.5791s-.20117.49512-.20117.79688v.10059c0,.32422.06689.60059.20117.83008s.33252.4248.59521.58691.58984.29688.98145.40234c.39111.10645.84961.19922,1.37549.27734,1.22949.19043,2.13525.55078,2.7168,1.08203s.87207,1.24316.87207,2.1377v.20117c0,.50391-.08643.96484-.25977,1.38379-.17334.41992-.43066.78027-.77148,1.08203-.34131.30176-.76318.53711-1.26611.70508-.50342.16699-1.08496.25098-1.74463.25098-.74902,0-1.41162-.1084-1.9873-.32715-.57617-.21777-1.05664-.51953-1.44287-.90527-.38574-.38574-.6792-.83887-.88037-1.3584-.20117-.52051-.30176-1.08789-.30176-1.70312v-.50293h1.40869v.40234c0,1.0293.28223,1.80078.84717,2.31445.56445.51465,1.3501.77246,2.35645.77246.87207,0,1.52881-.19336,1.9707-.5791s.6626-.89746.6626-1.53516v-.10059c0-.61426-.22656-1.08398-.6792-1.4082-.45312-.32422-1.18848-.55957-2.20557-.70508-.59277-.07812-1.12695-.19824-1.60205-.36035s-.88037-.37402-1.21582-.6377c-.33545-.26172-.59277-.57812-.77148-.94727-.1792-.36914-.26855-.80469-.26855-1.30859v-.20117c0-.45801.09521-.87695.28516-1.25781.18994-.37988.45557-.70996.79688-.98926.34082-.2793.74902-.49512,1.22412-.64551.47559-.15137.99805-.22656,1.56836-.22656.65967,0,1.24951.09473,1.76953.28516s.9585.44434,1.31689.7627c.35742.31836.62891.69336.81348,1.12402.18408.43066.27637.88086.27637,1.34961v.70508h-1.40869v-.60352Z"/><path d="m276.0078,107.04756h-1.40918v-11.74121h1.40918v5.19922h.38574l4.51172-5.19922h1.74414v.10059l-4.86377,5.66895v.20215l5.06494,5.66895v.10059h-1.77783l-4.6792-5.2334h-.38574v5.2334Z"/><path d="m854.60399,59.88545h1.50879l3.07031,11.13672h.20117l3.06934-11.13672h1.50879l-3.32031,11.74072h-2.71777l-3.32031-11.74072Z"/><path d="m866.66356,59.88545h7.44629v1.30811h-3.01855v9.12451h3.01855v1.30811h-7.44629v-1.30811h3.01855v-9.12451h-3.01855v-1.30811Z"/><path d="m884.00633,68.70771h-5.03223l-.85547,2.91846h-1.50879l3.55566-11.74072h2.64941l3.55664,11.74072h-1.50977l-.85547-2.91846Zm-2.61621-8.21875l-2.03027,6.91064h4.26074l-2.0293-6.91064h-.20117Z"/><path d="m888.23192,59.88545h2.68359l1.57715,11.13672h.20117l1.57617-11.13672h2.68359v11.74072h-1.30859v-11.13721h-.20117l-1.57617,11.13721h-2.5498l-1.57617-11.13721h-.20117v11.13721h-1.30859v-11.74072Z"/><path d="m917.3159,68.70771h-5.03223l-.85547,2.91846h-1.50879l3.55566-11.74072h2.64941l3.55664,11.74072h-1.50977l-.85547-2.91846Zm-2.61621-8.21875l-2.03027,6.91064h4.26074l-2.0293-6.91064h-.20117Z"/><path d="m923.60594,66.7956v4.83057h-1.40918v-11.74072h4.19336c.60352,0,1.12891.08643,1.57617.25977.44727.17383.81934.40576,1.11523.69629.29688.29102.52051.62891.6709,1.01465.15137.38574.22656.79102.22656,1.21582v.50342c0,.4248-.0752.83301-.22656,1.22412-.15039.3916-.37695.73535-.67871,1.03174s-.67676.53125-1.12402.70459-.96777.25977-1.55957.25977h-2.78418Zm0-1.30811h2.61621c1.56543,0,2.34766-.6709,2.34766-2.0127v-.30225c0-.59229-.19238-1.07031-.57812-1.43359s-.97559-.54541-1.76953-.54541h-2.61621v4.29395Z"/><path d="m934.70848,66.7956v4.83057h-1.40918v-11.74072h4.19336c.60352,0,1.12891.08643,1.57617.25977.44727.17383.81934.40576,1.11523.69629.29688.29102.52051.62891.6709,1.01465.15137.38574.22656.79102.22656,1.21582v.50342c0,.4248-.0752.83301-.22656,1.22412-.15039.3916-.37695.73535-.67871,1.03174s-.67676.53125-1.12402.70459-.96777.25977-1.55957.25977h-2.78418Zm0-1.30811h2.61621c1.56543,0,2.34766-.6709,2.34766-2.0127v-.30225c0-.59229-.19238-1.07031-.57812-1.43359s-.97559-.54541-1.76953-.54541h-2.61621v4.29395Z"/><path d="m849.05321,117.75996h1.50879l3.07031,11.13672h.20117l3.06934-11.13672h1.50879l-3.32031,11.74072h-2.71777l-3.32031-11.74072Z"/><path d="m861.11278,117.75996h7.44629v1.30811h-3.01855v9.12451h3.01855v1.30811h-7.44629v-1.30811h3.01855v-9.12451h-3.01855v-1.30811Z"/><path d="m878.45555,126.58222h-5.03223l-.85547,2.91846h-1.50879l3.55566-11.74072h2.64941l3.55664,11.74072h-1.50977l-.85547-2.91846Zm-2.61621-8.21875l-2.03027,6.91064h4.26074l-2.0293-6.91064h-.20117Z"/><path d="m882.68114,117.75996h2.68359l1.57715,11.13672h.20117l1.57617-11.13672h2.68359v11.74072h-1.30859v-11.13721h-.20117l-1.57617,11.13721h-2.5498l-1.57617-11.13721h-.20117v11.13721h-1.30859v-11.74072Z"/><path d="m912.0161,121.14814c0-.38037-.0752-.71582-.22559-1.00635-.15137-.29102-.35547-.53125-.6123-.72119-.25781-.19043-.55371-.33594-.88965-.43652-.33496-.10059-.6875-.15088-1.05664-.15088-.32422,0-.63184.04199-.92188.12598-.29102.08398-.55078.2041-.78027.36035-.22949.15674-.41113.34961-.54492.57861-.13379.22949-.20117.49512-.20117.79688v.10059c0,.32471.06738.60107.20117.83057.13379.229.33203.4248.5957.58691.2627.16211.58887.29639.98047.40234.3916.10645.84961.19873,1.37598.27686,1.22949.19043,2.13574.55078,2.7168,1.08203s.87207,1.24365.87207,2.13818v.20117c0,.50342-.08691.96484-.25977,1.38379-.17383.41943-.43066.78027-.77148,1.08203s-.7627.53662-1.2666.70459c-.50293.16748-1.08398.25146-1.74414.25146-.74902,0-1.41211-.10889-1.9873-.32715-.57617-.21777-1.05664-.52002-1.44238-.90576s-.67969-.83838-.88086-1.3584-.30176-1.0874-.30176-1.70264v-.50293h1.40918v.40234c0,1.02881.28223,1.80029.84668,2.31445.56445.51465,1.35059.77197,2.35645.77197.87207,0,1.5293-.19287,1.9707-.57861.44141-.38623.66309-.89746.66309-1.53516v-.10059c0-.61475-.22656-1.08447-.67969-1.40869s-1.18848-.55908-2.20605-.70459c-.59277-.07812-1.12598-.19824-1.60156-.36035s-.88086-.37451-1.21582-.6377c-.33594-.26221-.59277-.57861-.77148-.94727-.17871-.36914-.26855-.80518-.26855-1.30859v-.20117c0-.4585.09473-.87744.28516-1.25781.19043-.37988.45605-.70996.79688-.98975.34082-.2793.74902-.49463,1.22461-.64551.47461-.15088.99805-.22656,1.56836-.22656.65918,0,1.24902.09521,1.76953.28516.51953.19043.95801.44434,1.31641.76318.35742.31836.62891.69336.81348,1.12354.18457.43066.27637.88086.27637,1.3501v.70459h-1.40918v-.60352Z"/><path d="m916.44481,117.75996h3.85742c1.45312,0,2.51562.34668,3.18652,1.04004s1.00684,1.80029,1.00684,3.3208v3.01904c0,1.521-.33594,2.62793-1.00684,3.3208-.6709.69336-1.7334,1.04004-3.18652,1.04004h-3.85742v-1.3252h1.00586v-9.10742h-1.00586v-1.30811Zm3.65625,10.43262c.51367,0,.95898-.05029,1.33301-.15088.375-.10107.68555-.271.93164-.51172.24512-.24023.42773-.56201.54492-.96436.11719-.40283.17578-.91113.17578-1.52637v-2.81787c0-.61475-.05859-1.12354-.17578-1.52637-.11719-.40234-.2998-.72363-.54492-.96436-.24609-.24023-.55664-.41113-.93164-.51172-.37402-.10059-.81934-.15088-1.33301-.15088h-1.24121v9.12451h1.24121Z"/><path d="m929.22411,129.50068h-1.4082v-11.74072h1.4082v5.19922h.38574l4.51172-5.19922h1.74512v.10059l-4.86426,5.66895v.20166l5.06543,5.66895v.10059h-1.77832l-4.67969-5.23291h-.38574v5.23291Z"/><path d="m945.32567,121.14814c0-.38037-.0752-.71582-.22559-1.00635-.15137-.29102-.35547-.53125-.6123-.72119-.25781-.19043-.55371-.33594-.88965-.43652-.33496-.10059-.6875-.15088-1.05664-.15088-.32422,0-.63184.04199-.92188.12598-.29102.08398-.55078.2041-.78027.36035-.22949.15674-.41113.34961-.54492.57861-.13379.22949-.20117.49512-.20117.79688v.10059c0,.32471.06738.60107.20117.83057.13379.229.33203.4248.5957.58691.2627.16211.58887.29639.98047.40234.3916.10645.84961.19873,1.37598.27686,1.22949.19043,2.13574.55078,2.7168,1.08203s.87207,1.24365.87207,2.13818v.20117c0,.50342-.08691.96484-.25977,1.38379-.17383.41943-.43066.78027-.77148,1.08203s-.7627.53662-1.2666.70459c-.50293.16748-1.08398.25146-1.74414.25146-.74902,0-1.41211-.10889-1.9873-.32715-.57617-.21777-1.05664-.52002-1.44238-.90576s-.67969-.83838-.88086-1.3584-.30176-1.0874-.30176-1.70264v-.50293h1.40918v.40234c0,1.02881.28223,1.80029.84668,2.31445.56445.51465,1.35059.77197,2.35645.77197.87207,0,1.5293-.19287,1.9707-.57861.44141-.38623.66309-.89746.66309-1.53516v-.10059c0-.61475-.22656-1.08447-.67969-1.40869s-1.18848-.55908-2.20605-.70459c-.59277-.07812-1.12598-.19824-1.60156-.36035s-.88086-.37451-1.21582-.6377c-.33594-.26221-.59277-.57861-.77148-.94727-.17871-.36914-.26855-.80518-.26855-1.30859v-.20117c0-.4585.09473-.87744.28516-1.25781.19043-.37988.45605-.70996.79688-.98975.34082-.2793.74902-.49463,1.22461-.64551.47461-.15088.99805-.22656,1.56836-.22656.65918,0,1.24902.09521,1.76953.28516.51953.19043.95801.44434,1.31641.76318.35742.31836.62891.69336.81348,1.12354.18457.43066.27637.88086.27637,1.3501v.70459h-1.40918v-.60352Z"/><path d="m849.37059,175.95576h2.68359l1.57715,11.13672h.20117l1.57617-11.13672h2.68359v11.74121h-1.30859v-11.1377h-.20117l-1.57617,11.1377h-2.5498l-1.57617-11.1377h-.20117v11.1377h-1.30859v-11.74121Z"/><path d="m860.70946,180.51728c0-1.51953.3623-2.69971,1.08984-3.53857.72656-.83838,1.73828-1.25781,3.03613-1.25781,1.29688,0,2.30859.41943,3.03516,1.25781.72656.83887,1.09082,2.01904,1.09082,3.53857v2.61719c0,1.43164-.30469,2.55273-.91406,3.36328-.61035.81055-1.46289,1.27734-2.55859,1.40039v.7041c0,.33496.15137.50293.45312.50293h1.40918v1.20801h-1.87891c-.37988,0-.69043-.12402-.93066-.36914-.24023-.24609-.36035-.55957-.36035-.93945v-1.10645c-1.10742-.13477-1.96289-.60352-2.56641-1.40918s-.90527-1.92285-.90527-3.35449v-2.61719Zm4.12598,6.10547c.90527,0,1.58496-.31055,2.03711-.93066.45312-.62012.67969-1.50684.67969-2.6582v-2.41504c0-1.07422-.22656-1.94043-.67969-2.6001-.45215-.65967-1.13184-.98975-2.03711-.98975-.90625,0-1.58496.33008-2.03809.98975s-.67969,1.52588-.67969,2.6001v2.41504c0,1.15137.22656,2.03809.67969,2.6582s1.13184.93066,2.03809.93066Z"/><path d="m872.26512,175.95576h1.40918v10.43262h6.13867v1.30859h-7.54785v-11.74121Z"/><path d="m902.74071,182.46357h-1.62695v5.2334h-3.75781c-.55859,0-1.05664-.07812-1.49219-.23535-.43652-.15625-.7998-.37207-1.09082-.64551-.29004-.27344-.51074-.59766-.66211-.97266s-.22656-.78027-.22656-1.2168v-.20117c0-.63672.19043-1.17578.57031-1.61816.37988-.44141.84961-.74121,1.40918-.89746v-.20117c-.55957-.14453-1.0293-.43945-1.40918-.88086s-.57031-.98047-.57031-1.61816v-.20117c0-.43652.0752-.84131.22656-1.21631.15137-.37451.37207-.6958.66211-.96436.29102-.26855.6543-.48047,1.09082-.63721.43555-.15674.93359-.23486,1.49219-.23486h2.14746v1.30811h-2.04688c-.65918,0-1.19629.16504-1.60938.49463-.41406.33008-.62109.78027-.62109,1.35059v.10059c0,.60352.19531,1.0791.58691,1.42578s.92285.51953,1.59375.51953h2.29785v-1.77832h1.40918v1.77832h1.62695v1.30859Zm-3.03613,3.9248v-3.9248h-2.29785c-.6709,0-1.20215.17578-1.59375.52832-.3916.35156-.58691.83008-.58691,1.43359v.10156c0,.58105.20703,1.03711.62109,1.36621.41309.33008.9502.49512,1.60938.49512h2.24805Z"/><path d="m923.11864,179.34345c0-.37988-.0752-.71484-.22559-1.00586-.15137-.29102-.35547-.53125-.6123-.72119-.25781-.19043-.55371-.33594-.88965-.43652-.33496-.10059-.6875-.15088-1.05664-.15088-.32422,0-.63184.04199-.92188.12598-.29102.08398-.55078.2041-.78027.36035-.22949.15674-.41113.34961-.54492.57861-.13379.22998-.20117.49561-.20117.79639v.10156c0,.32422.06738.60059.20117.83008.13379.22852.33203.4248.5957.58691.2627.16211.58887.2959.98047.40234s.84961.19824,1.37598.27637c1.22949.19141,2.13574.55078,2.7168,1.08203s.87207,1.24414.87207,2.13867v.20117c0,.50391-.08691.96484-.25977,1.38379-.17383.41895-.43066.78027-.77148,1.08203s-.7627.53613-1.2666.7041c-.50293.16797-1.08398.25195-1.74414.25195-.74902,0-1.41211-.10938-1.9873-.32715-.57617-.21777-1.05664-.52051-1.44238-.90527-.38574-.38672-.67969-.83887-.88086-1.35938-.20117-.51953-.30176-1.08691-.30176-1.70215v-.50293h1.40918v.40234c0,1.0293.28223,1.80078.84668,2.31445.56445.51465,1.35059.77148,2.35645.77148.87207,0,1.5293-.19238,1.9707-.57812.44141-.38672.66309-.89746.66309-1.53516v-.10059c0-.61426-.22656-1.08496-.67969-1.40918s-1.18848-.55859-2.20605-.7041c-.59277-.07812-1.12598-.19824-1.60156-.36035s-.88086-.375-1.21582-.6377c-.33594-.2627-.59277-.5791-.77148-.94727-.17871-.36914-.26855-.80566-.26855-1.30859v-.20117c0-.45801.09473-.87744.28516-1.25781.19043-.37988.45605-.70996.79688-.98975.34082-.2793.74902-.49463,1.22461-.64551.47461-.15088.99805-.22656,1.56836-.22656.65918,0,1.24902.09521,1.76953.28516.51953.19043.95801.44434,1.31641.76318.35742.31836.62891.69336.81348,1.12354.18457.43115.27637.88037.27637,1.3501v.7041h-1.40918v-.60352Z"/><path d="m927.3286,180.51728c0-1.51953.3623-2.69971,1.08984-3.53857.72656-.83838,1.73828-1.25781,3.03613-1.25781,1.29688,0,2.30859.41943,3.03516,1.25781.72656.83887,1.09082,2.01904,1.09082,3.53857v2.61719c0,1.43164-.30469,2.55273-.91406,3.36328-.61035.81055-1.46289,1.27734-2.55859,1.40039v.7041c0,.33496.15137.50293.45312.50293h1.40918v1.20801h-1.87891c-.37988,0-.69043-.12402-.93066-.36914-.24023-.24609-.36035-.55957-.36035-.93945v-1.10645c-1.10742-.13477-1.96289-.60352-2.56641-1.40918s-.90527-1.92285-.90527-3.35449v-2.61719Zm4.12598,6.10547c.90527,0,1.58496-.31055,2.03711-.93066.45312-.62012.67969-1.50684.67969-2.6582v-2.41504c0-1.07422-.22656-1.94043-.67969-2.6001-.45215-.65967-1.13184-.98975-2.03711-.98975-.90625,0-1.58496.33008-2.03809.98975s-.67969,1.52588-.67969,2.6001v2.41504c0,1.15137.22656,2.03809.67969,2.6582s1.13184.93066,2.03809.93066Z"/><path d="m938.88426,175.95576h1.40918v10.43262h6.13867v1.30859h-7.54785v-11.74121Z"/><line x1="92.65885" y1="140.22715" x2="233.50472" y2="140.22715" style="fill:none; stroke:#000; stroke-miterlimit:10; stroke-width:1.25px;"/><polygon points="229.36287 145.33946 228.51021 144.42393 233.02498 140.22837 228.51021 136.03156 229.36287 135.11607 234.86034 140.22837 229.36287 145.33946"/><path d="m660.42225,25.53872c-2.7237,0-5.31787.54731-7.68765,1.5273-3.73508-7.88994-11.74615-13.36076-21.05546-13.36076-10.40603,0-19.21349,6.82229-22.20895,16.2359-.52702-.04646-1.05788-.0807-1.59705-.0807-9.92881-.00007-17.97716,8.04845-17.97652,17.97691.00064,9.92839,8.04995,17.97705,17.97906,17.97713.01927,0,.03794-.00282.05721-.00289h52.48956c11.12126-.00002,20.13679-9.01541,20.13674-20.13646-.00005-11.12105-9.01566-20.13644-20.13692-20.13644Z"/><path d="m655.03363,20.1665c-2.7237,0-5.31787.54731-7.68765,1.5273-3.73508-7.88994-11.74615-13.36076-21.05546-13.36076-10.40603,0-19.21349,6.82229-22.20895,16.2359-.52702-.04646-1.05788-.0807-1.59705-.0807-9.92881-.00007-17.97716,8.04845-17.97652,17.97691.00064,9.92839,8.04995,17.97705,17.97906,17.97713.01927,0,.03794-.00282.05721-.00289h52.48956c11.12126-.00002,20.13679-9.01541,20.13674-20.13646-.00005-11.12105-9.01566-20.13644-20.13692-20.13644Z" style="fill:#fff; stroke:#000; stroke-linejoin:round; stroke-width:1.25px;"/><path d="m432.92817,51.57799c1.15224,0,2.27414.1189,3.37252.30627,2.17173-8.67235,9.99468-15.10431,19.34079-15.10431,4.97155,0,9.5092,1.82963,13.00385,4.83767,3.44989-5.97114,9.88772-9.99962,17.27981-9.99962,11.02327,0,19.95977,8.93632,19.95977,19.95999,0,.2691-.02958.53061-.0402.79724,1.76287-.50937,3.61981-.79724,5.54653-.79724,11.02327,0,19.95977,8.93632,19.95977,19.9598,0,11.02367-8.9365,19.95999-19.95977,19.95999h-78.46307c-11.02403,0-19.95977-8.93632-19.95977-19.95999,0-11.02348,8.93574-19.9598,19.95977-19.9598Z"/><path d="m426.61119,43.31872c1.15224,0,2.27414.1189,3.37252.30627,2.17173-8.67235,9.99468-15.10431,19.34079-15.10431,4.97155,0,9.5092,1.82963,13.00385,4.83767,3.44989-5.97114,9.88772-9.99962,17.27981-9.99962,11.02327,0,19.95977,8.93632,19.95977,19.95999,0,.2691-.02958.53061-.0402.79724,1.76287-.50937,3.61981-.79724,5.54653-.79724,11.02327,0,19.95977,8.93632,19.95977,19.9598,0,11.02367-8.9365,19.95999-19.95977,19.95999h-78.46307c-11.02403,0-19.95977-8.93632-19.95977-19.95999s8.93574-19.9598,19.95977-19.9598Z" style="fill:#fff;"/><path d="m505.07448,83.80509h-78.46317c-11.31866,0-20.52708-9.20843-20.52708-20.52654s9.20842-20.52654,20.52708-20.52654c.94188,0,1.91311.07641,2.95467.23146,2.45964-8.87619,10.51078-15.03028,19.75852-15.03028,4.67343,0,9.21285,1.60912,12.85746,4.54607,3.73653-6.00569,10.35241-9.70788,17.42568-9.70788,11.31922,0,20.52764,9.20843,20.52764,20.52765v.04651c1.6357-.40754,3.29355-.61353,4.93921-.61353,11.31811,0,20.52653,9.20843,20.52653,20.52654s-9.20842,20.52654-20.52653,20.52654Zm-78.46317-39.91905c-10.69351,0-19.39306,8.699-19.39306,19.39251s8.69955,19.39251,19.39306,19.39251h78.46317c10.69351,0,19.3925-8.699,19.3925-19.39251s-8.699-19.39251-19.3925-19.39251c-1.79628,0-3.61028.26025-5.38994.77521l-.75639.21817.05205-1.11077c.00997-.1484.02104-.2979.02104-.44962,0-10.69351-8.7001-19.39362-19.39361-19.39362-6.89275,0-13.32591,3.72324-16.7889,9.71674l-.3422.59248-.51829-.4463c-3.52168-3.03108-8.00795-4.70111-12.63376-4.70111-8.9,0-16.62721,6.03448-18.79116,14.67479l-.12736.50943-.51773-.08749c-1.175-.20045-2.24701-.2979-3.27694-.2979Z"/><line x1="322.92299" y1="125.55753" x2="493.75481" y2="125.55753" style="fill:none; stroke:#000; stroke-miterlimit:10; stroke-width:1.25px;"/><polygon points="489.6129 130.66981 488.76024 129.75428 493.27507 125.55876 488.76024 121.36195 489.6129 120.44642 495.1104 125.55876 489.6129 130.66981"/><line x1="553.32671" y1="124.72199" x2="836.4077" y2="124.72199" style="fill:none; stroke:#000; stroke-miterlimit:10; stroke-width:1.25px;"/><polygon points="832.26586 129.8343 831.41319 128.91877 835.92797 124.72321 831.41319 120.52641 832.26586 119.61091 837.76335 124.72321 832.26586 129.8343"/><path d="m553.56786,120.39976h192.79254c11.58698,0,20.9801-9.39313,20.9801-20.9801v-11.71201c0-11.58698,9.39307-20.98007,20.9801-20.98007h48.0871" style="fill:none; stroke:#000; stroke-miterlimit:10; stroke-width:1.25px;"/><polygon points="832.26586 71.83988 831.41319 70.92436 835.92797 66.7288 831.41319 62.53202 832.26586 61.61649 837.76335 66.7288 832.26586 71.83988"/><path d="m553.56786,128.8776h192.79254c11.58698,0,20.9801,9.3931,20.9801,20.98007v11.71201c0,11.58698,9.39307,20.98007,20.9801,20.98007h48.0871" style="fill:none; stroke:#000; stroke-miterlimit:10; stroke-width:1.25px;"/><polygon points="832.26586 187.66206 831.41319 186.74653 835.92797 182.55097 831.41319 178.3542 832.26586 177.43867 837.76335 182.55097 832.26586 187.66206"/><path d="m573.79908,87.81329h-78.66685v57.21918c-.55568,6.22529,3.3001,12.574,11.56866,17.3478,15.42328,8.90461,40.33887,8.9569,55.65047.11676,7.47395-4.31505,11.26748-9.95141,11.41002-15.62653h.0377v-59.05721Z" style="fill:#fff; stroke:#000; stroke-linejoin:round; stroke-width:1.25px;"/><path d="m495.11042,105.56765c-.55568,6.22529,3.3001,12.574,11.56866,17.3478,15.42328,8.90461,40.33887,8.9569,55.65047.11676,7.47395-4.31505,11.26748-9.95141,11.41002-15.62653" style="fill:none; stroke:#000; stroke-linejoin:round; stroke-width:1.25px;"/><path d="m495.11042,126.87866c-.55568,6.22529,3.3001,12.574,11.56866,17.3478,15.42328,8.90461,40.33887,8.9569,55.65047.11676,7.47395-4.31505,11.26748-9.95141,11.41002-15.62653" style="fill:none; stroke:#000; stroke-linejoin:round; stroke-width:1.25px;"/><ellipse cx="534.42501" cy="87.55855" rx="22.71843" ry="39.35163" transform="translate(443.5049 621.42195) rotate(-89.63942)" style="fill:#fff; stroke:#000; stroke-linejoin:round; stroke-width:1.25px;"/><path d="m629.92155,169.73981c-1.06095,0-2.09396.10948-3.10531.282-1.99967-7.98523-9.20279-13.90759-17.80841-13.90759-4.57765,0-8.75578,1.68467-11.97355,4.45438-3.17656-5.49804-9.10431-9.20735-15.91072-9.20735-10.14989,0-18.37835,8.22829-18.37835,18.37856,0,.24778.02724.48857.03702.73407-1.6232-.46901-3.33301-.73407-5.10708-.73407-10.14989,0-18.37835,8.22829-18.37835,18.37838,0,10.15026,8.22845,18.37856,18.37835,18.37856h72.2464c10.15059,0,18.37835-8.22829,18.37835-18.37856,0-10.15009-8.22776-18.37838-18.37835-18.37838Z"/><path d="m625.40356,162.13492c-1.06095,0-2.09396.10948-3.10531.282-1.99967-7.98523-9.20279-13.90759-17.80841-13.90759-4.57765,0-8.75578,1.68467-11.97355,4.45438-3.17656-5.49804-9.10431-9.20735-15.91072-9.20735-10.14989,0-18.37835,8.22829-18.37835,18.37856,0,.24778.02724.48857.03702.73407-1.6232-.46901-3.33301-.73407-5.10708-.73407-10.14989,0-18.37835,8.22829-18.37835,18.37838,0,10.15026,8.22845,18.37856,18.37835,18.37856h72.2464c10.15059,0,18.37835-8.22829,18.37835-18.37856,0-10.15009-8.22776-18.37838-18.37835-18.37838Z" style="fill:#fff;"/><path d="m534.25676,180.51333c0-10.42138,8.47883-18.90021,18.9002-18.90021,1.51528,0,3.04178.18966,4.54788.56492v-.04283c0-10.42239,8.47883-18.90123,18.90122-18.90123,6.51285,0,12.60455,3.40887,16.04503,8.93873,3.35584-2.70426,7.53561-4.18588,11.83876-4.18588,8.51503,0,15.92828,5.6665,18.19304,13.83942.95903-.14276,1.85331-.21312,2.72057-.21312,10.42188,0,18.90071,8.47884,18.90071,18.90021,0,10.42138-8.47883,18.90021-18.90071,18.90021h-72.2465c-10.42137,0-18.9002-8.47884-18.9002-18.90021Zm88.1294-17.58174l-.47671.08056-.11727-.46906c-1.9925-7.95573-9.10748-13.5121-17.30233-13.5121-4.2593,0-8.39012,1.53771-11.63278,4.32864l-.47722.41094-.31509-.54554c-3.18861-5.51864-9.11207-8.94688-15.4587-8.94688-9.84626,0-17.85705,8.01079-17.85705,17.85706,0,.1397.0102.27736.01937.414l.04793,1.02276-.69646-.20088c-1.63866-.47416-3.30894-.71379-4.9629-.71379-9.84626,0-17.85603,8.00978-17.85603,17.85604s8.00977,17.85604,17.85603,17.85604h72.2465c9.84626,0,17.85654-8.00978,17.85654-17.85604,0-9.84626-8.01028-17.85604-17.85654-17.85604-.94832,0-1.9354.08973-3.0173.2743Z"/><circle cx="410.14747" cy="126.22442" r="10.40391" style="fill:#00ebec; stroke:#000; stroke-miterlimit:10;"/><path d="m414.02049,129.54414v2.00195h-7.81836v-2.19287c0-.58252.0874-1.08057.26221-1.49365s.42383-.7627.74707-1.04883c.32275-.28613.7124-.52148,1.16797-.70703.45508-.18555.96924-.3418,1.54102-.46875.42383-.09521.771-.2041,1.04102-.32568.27002-.12207.48486-.25977.64355-.41357.15869-.15332.26758-.32275.32568-.5083.05811-.18506.0874-.39453.0874-.62744,0-.44531-.16162-.81592-.48438-1.1123-.32324-.29688-.771-.44531-1.34277-.44531-.604,0-1.08594.18311-1.44629.54834-.36035.36572-.54004.87158-.54004,1.51758v.69922h-2.09766v-.89014c0-.51855.09277-1.01416.27832-1.48535.18506-.47119.44971-.88477.79443-1.23975.34375-.35449.76514-.63525,1.26318-.84229.49756-.20654,1.05908-.30957,1.68457-.30957.66699,0,1.24951.09814,1.74756.29395.49805.19629.91406.45264,1.24756.77051s.58252.68604.74658,1.10449c.16455.41846.24658.8501.24658,1.29492v.19092c0,.93213-.26221,1.70557-.78662,2.31982-.52441.61475-1.37988,1.05957-2.56641,1.33496-.49805.1167-.9082.23584-1.23145.35742-.32324.12207-.57471.25684-.75488.40527s-.30469.31006-.37305.48486c-.06934.1748-.10352.37305-.10352.5957v.19092h5.7207Z"/><circle cx="660.84325" cy="124.45225" r="10.40391" style="fill:#00ebec; stroke:#000; stroke-miterlimit:10;"/><path d="m659.75243,125.39863v-3.30518l2.76465-.7627v-.28613h-5.5293v-2.00244h7.24609v3.49609l-2.95605.85791v.28613h.38086c.39258,0,.7793.06104,1.16016.18262.38184.12207.71777.31006,1.00977.56445.29102.25391.52637.56934.70703.94531.17969.37598.26953.81836.26953,1.32666v.19092c0,.49805-.08203.95898-.24609,1.38232-.16406.42383-.4082.79199-.73047,1.10449-.32324.3125-.72363.55908-1.2002.73877-.47656.18018-1.02246.27051-1.63672.27051-.625,0-1.19141-.10107-1.7002-.30225s-.94043-.47656-1.29492-.82617c-.35547-.34961-.62793-.75195-.81836-1.20752s-.28613-.9375-.28613-1.44629v-.66748h2.09766v.57227c0,.5083.16406.94824.49219,1.31885.32812.37109.82129.55615,1.47852.55615.56055,0,.99316-.14307,1.29492-.4292.30176-.28564.45215-.66162.45215-1.12793,0-.49805-.16113-.86084-.48438-1.08838-.32324-.22803-.7334-.3418-1.23145-.3418h-1.23926Z"/><path d="m283.21079,170.66051h-48.31896v-54.22158h54.22158v48.31896c-2.30511,2.30511-3.5975,3.5975-5.90261,5.90261Z"/><circle cx="262.00261" cy="140.36022" r="8.07343" style="fill:#fff;"/><rect x="249.29443" y="154.01528" width="25.51604" height="14.85113" style="fill:#fff;"/><rect x="250.75213" y="165.82642" width="2.69114" height="1.69442"/><rect x="266.76195" y="155.70971" width="6.17966" height="10.66491"/><rect x="268.60588" y="165.77658" width="2.4918" height="1.19606"/><circle cx="262.00261" cy="140.36022" r="1.64459"/><path d="m205.80102,140.22714h-6.38488c-4.46678,0-8.08782-3.62104-8.08782-8.08782v-7.22597c0-4.59231-3.7228-8.31511-8.31511-8.31511h-22.99319s-22.99319,0-22.99319,0c-4.59231,0-8.31511,3.7228-8.31511,8.31511v7.22597c0,4.46678-3.62104,8.08782-8.08782,8.08782h-6.38488" style="fill:#fff; stroke:#000; stroke-miterlimit:10; stroke-width:1.25px;"/><path d="m205.80102,140.22714h-6.38488c-4.46678,0-8.08782,3.62104-8.08782,8.08782v7.22597c0,4.59231-3.7228,8.31511-8.31511,8.31511h-22.99319s-22.99319,0-22.99319,0c-4.59231,0-8.31511-3.7228-8.31511-8.31511v-7.22597c0-4.46678-3.62104-8.08782-8.08782-8.08782h-6.38488" style="fill:#fff; stroke:#000; stroke-miterlimit:10; stroke-width:1.25px;"/><path d="m146.2368,131.73701v-1.05566h1.03369v-5.58789h-1.03369v-1.05664h3.08008c1.02637,0,1.81299.26074,2.35938.78125s.81934,1.30566.81934,2.35449v1.44043c0,1.04883-.27295,1.83203-.81934,2.34863-.54639.51758-1.33301.77539-2.35938.77539h-3.08008Zm2.23291-1.07812h.85791c.66748,0,1.16211-.16797,1.48486-.50586.32275-.33691.48438-.83984.48438-1.50684v-1.51758c0-.6748-.16162-1.17773-.48438-1.50781-.32275-.3291-.81738-.49414-1.48486-.49414h-.85791v5.53223Z"/><path d="m156.1035,131.89131c-.38867,0-.73535-.06641-1.03955-.19824s-.54639-.32617-.72607-.58301-.26953-.56836-.26953-.93457c0-.37402.08984-.68359.26953-.92969s.42529-.43066.7373-.55566c.31152-.12402.66504-.18652,1.06104-.18652h1.65039v-.35254c0-.31543-.0957-.56836-.28613-.75879-.19092-.19043-.48389-.28613-.87988-.28613-.38867,0-.68604.0918-.89111.27539-.20557.18262-.34082.42188-.40723.71484l-1.05566-.34082c.08789-.29395.229-.55957.42334-.79785s.45264-.43066.77539-.57715.71143-.2207,1.16602-.2207c.7041,0,1.25781.17969,1.66113.53906s.60498.86914.60498,1.5293v2.2334c0,.21973.10254.33008.30811.33008h.46191v.94531h-.84717c-.25684,0-.46582-.06543-.62695-.19824-.16113-.13184-.2417-.31152-.2417-.53809v-.0332h-.16504c-.05908.10938-.14697.23828-.26416.38477s-.28955.27344-.51709.37988c-.22705.10547-.52783.15918-.90186.15918Zm.16504-.93457c.45459,0,.82129-.13086,1.1001-.39062.27832-.26074.41797-.61816.41797-1.07324v-.10938h-1.58398c-.30078,0-.54297.06445-.72607.19238-.18359.12793-.2749.31738-.2749.56641s.09521.44727.28564.59375c.19092.14746.45117.2207.78125.2207Z"/><path d="m162.97899,131.73701c-.33008,0-.59229-.09863-.78662-.29688s-.2915-.46191-.2915-.79199v-3.37695h-1.49609v-.95703h1.49609v-1.79297h1.13281v1.79297h1.61719v.95703h-1.61719v3.17871c0,.2207.10303.33008.30811.33008h1.1333v.95703h-1.49609Z"/><path d="m168.20409,131.89131c-.38867,0-.73535-.06641-1.03955-.19824s-.54639-.32617-.72607-.58301-.26953-.56836-.26953-.93457c0-.37402.08984-.68359.26953-.92969s.42529-.43066.7373-.55566c.31152-.12402.66504-.18652,1.06104-.18652h1.65039v-.35254c0-.31543-.0957-.56836-.28613-.75879-.19092-.19043-.48389-.28613-.87988-.28613-.38867,0-.68604.0918-.89111.27539-.20557.18262-.34082.42188-.40723.71484l-1.05566-.34082c.08789-.29395.229-.55957.42334-.79785s.45264-.43066.77539-.57715.71143-.2207,1.16602-.2207c.7041,0,1.25781.17969,1.66113.53906s.60498.86914.60498,1.5293v2.2334c0,.21973.10254.33008.30811.33008h.46191v.94531h-.84717c-.25684,0-.46582-.06543-.62695-.19824-.16113-.13184-.2417-.31152-.2417-.53809v-.0332h-.16504c-.05908.10938-.14697.23828-.26416.38477s-.28955.27344-.51709.37988c-.22705.10547-.52783.15918-.90186.15918Zm.16504-.93457c.45459,0,.82129-.13086,1.1001-.39062.27832-.26074.41797-.61816.41797-1.07324v-.10938h-1.58398c-.30078,0-.54297.06445-.72607.19238-.18359.12793-.2749.31738-.2749.56641s.09521.44727.28564.59375c.19092.14746.45117.2207.78125.2207Z"/><path d="m141.82079,143.73701l-.92432-5.42285h1.1333l.68164,4.66406h.17627l.9458-4.66406h1.83691l.93506,4.66406h.17627l.68213-4.66406h1.13281l-.92383,5.42285h-1.90332l-.93506-4.65234h-.17578l-.93506,4.65234h-1.90283Z"/><path d="m150.48827,143.73701v-5.42285h1.11084v.6377h.17627c.08789-.22656.229-.39355.42334-.5s.43457-.15918.7207-.15918h.64893v1.02246h-.69287c-.3667,0-.66748.10059-.90234.30273-.23438.20215-.35156.51172-.35156.92969v3.18945h-1.1333Z"/><path d="m155.86766,137.57685c-.22021,0-.40527-.07129-.55566-.21387-.15039-.14355-.22559-.32812-.22559-.55566s.0752-.41211.22559-.55566c.15039-.14258.33545-.21484.55566-.21484.22705,0,.41406.07227.56104.21484.14648.14355.21973.32812.21973.55566s-.07324.41211-.21973.55566c-.14697.14258-.33398.21387-.56104.21387Zm-.57227,6.16016v-5.42285h1.1333v5.42285h-1.1333Z"/><path d="m160.69628,143.73701c-.33008,0-.59229-.09863-.78662-.29688s-.2915-.46191-.2915-.79199v-3.37695h-1.49609v-.95703h1.49609v-1.79297h1.13281v1.79297h1.27637v.95703h-1.27637v3.17871c0,.2207.10303.33008.30811.33008h1.1333v.95703h-1.49609Zm3.56396,0c-.33008,0-.59424-.09863-.79199-.29688-.19824-.19824-.29688-.46191-.29688-.79199v-3.37695h-1.14404v-.95703h1.14404v-1.79297h1.13281v1.79297h1.62793v.95703h-1.62793v3.17871c0,.2207.10645.33008.31885.33008h1.12207v.95703h-1.48486Z"/><path d="m170.2993,143.89131c-.5498,0-1.03027-.11523-1.44092-.34668-.41064-.23047-.73145-.55664-.9624-.97852s-.34668-.91113-.34668-1.46875v-.13184c0-.56445.11377-1.05762.34131-1.47949.22705-.42188.54443-.74805.95117-.97949.40723-.23047.87842-.34668,1.41357-.34668.521,0,.97705.11621,1.36963.34668.39209.23145.69873.55176.91846.96289.22021.41016.33008.89062.33008,1.44043v.42969h-4.16895c.01465.47656.17383.85645.47852,1.13867.3042.28223.68359.42285,1.13867.42285.4248,0,.74609-.09473.9624-.28613.21631-.19043.38281-.41016.50049-.66016l.93506.48438c-.10303.20508-.25146.42188-.4458.64941s-.44922.41797-.76416.57129c-.31543.1543-.71924.23145-1.21045.23145Zm-1.58398-3.4209h3.00342c-.02979-.41113-.17627-.73145-.44043-.96289-.26367-.23047-.6084-.34668-1.03369-.34668s-.77197.11621-1.03955.34668c-.26758.23145-.43115.55176-.48975.96289Z"/><path d="m174.7871,143.73701v-5.42285h1.11084v.81445h.17627c.10254-.2207.28613-.42578.5498-.61621.26416-.19043.65625-.28613,1.17725-.28613.41064,0,.77539.0918,1.09424.27539.31934.18262.57031.44141.75391.77539.18311.33301.2749.73535.2749,1.2041v3.25586h-1.1333v-3.16797c0-.46875-.11719-.81543-.35205-1.03906-.23438-.22363-.55713-.33594-.96777-.33594-.46924,0-.84521.1543-1.12744.46191-.28223.30859-.42334.75586-.42334,1.34277v2.73828h-1.1333Z"/><path d="m143.71825,155.73701c-.33008,0-.59229-.09863-.78662-.29688s-.2915-.46191-.2915-.79199v-3.37695h-1.49609v-.95703h1.49609v-1.79297h1.13281v1.79297h1.61719v.95703h-1.61719v3.17871c0,.2207.10303.33008.30811.33008h1.1333v.95703h-1.49609Z"/><path d="m149.61424,155.89131c-.54297,0-1.0249-.1123-1.44629-.33594-.42188-.22363-.75391-.54395-.99561-.96191-.24219-.41797-.36328-.91309-.36328-1.48535v-.16504c0-.57227.12109-1.06445.36328-1.47949.2417-.41406.57373-.73535.99561-.96191.42139-.22754.90332-.3418,1.44629-.3418.54248,0,1.02686.11426,1.45215.3418.42529.22656.75879.54785,1.00098.96191.2417.41504.36279.90723.36279,1.47949v.16504c0,.57227-.12109,1.06738-.36279,1.48535-.24219.41797-.57568.73828-1.00098.96191s-.90967.33594-1.45215.33594Zm0-1.01172c.49854,0,.90381-.16016,1.21533-.47852.31201-.31934.46777-.76074.46777-1.32617v-.09863c0-.56445-.1543-1.00684-.46191-1.3252-.30811-.31934-.71533-.47852-1.22119-.47852-.49121,0-.89307.15918-1.20459.47852-.31152.31836-.46729.76074-.46729,1.3252v.09863c0,.56543.15576,1.00684.46729,1.32617.31152.31836.71338.47852,1.20459.47852Z"/><path d="m159.9868,155.89131c-.44727,0-.86182-.11035-1.24316-.33008s-.6875-.53711-.91846-.95117-.34668-.91504-.34668-1.50195v-.16504c0-.5791.11377-1.07812.34131-1.49609.22705-.41797.53174-.73633.91309-.95703.38086-.21973.79883-.33008,1.25391-.33008.35205,0,.64697.04395.88525.13281.23828.08789.43457.19922.58887.33496.15381.13574.271.27734.35156.42383h.17627v-3.01465h1.13281v7.7002h-1.11084v-.76953h-.17578c-.13965.23438-.35059.44727-.63281.6377s-.6875.28613-1.21533.28613Zm.31885-.99023c.49121,0,.89648-.15723,1.21533-.47266.31934-.31543.47852-.7666.47852-1.35352v-.09863c0-.5791-.15771-1.02637-.47266-1.3418-.31543-.31543-.72266-.47363-1.22119-.47363-.48389,0-.88525.1582-1.20459.47363-.31885.31543-.47852.7627-.47852,1.3418v.09863c0,.58691.15967,1.03809.47852,1.35352.31934.31543.7207.47266,1.20459.47266Z"/><path d="m165.916,149.57685c-.22021,0-.40527-.07129-.55566-.21387-.15039-.14355-.22559-.32812-.22559-.55566s.0752-.41211.22559-.55566c.15039-.14258.33545-.21484.55566-.21484.22705,0,.41406.07227.56104.21484.14648.14355.21973.32812.21973.55566s-.07324.41211-.21973.55566c-.14697.14258-.33398.21387-.56104.21387Zm-.57227,6.16016v-5.42285h1.1333v5.42285h-1.1333Z"/><path d="m170.93163,155.89131c-.68945,0-1.26172-.1543-1.71631-.46191-.45459-.30859-.7334-.77344-.83594-1.39746l1.05615-.25293c.05859.30078.15771.53906.29688.71484.13916.17676.31348.30078.52246.37402.20898.07422.43457.11035.67676.11035.35889,0,.63623-.06934.83057-.20898.19385-.13965.2915-.31934.2915-.53906s-.0918-.38086-.27539-.48438c-.18311-.10254-.45459-.18652-.81396-.25293l-.37402-.06543c-.3667-.06641-.7002-.16113-1.00098-.28613s-.53906-.29688-.71484-.5166c-.17578-.2207-.26416-.50293-.26416-.84766,0-.5127.19092-.91113.57227-1.19336s.88721-.42383,1.51807-.42383c.6084,0,1.10889.1377,1.50146.41309.39209.27441.64697.64746.76416,1.11621l-1.05566.29688c-.06592-.33008-.20557-.5625-.41797-.69824-.21289-.13574-.47705-.20312-.79199-.20312-.30811,0-.55029.05664-.72607.16992-.17627.11426-.26416.27344-.26416.47852,0,.21973.08643.38184.25879.48438.17188.10254.40479.17969.69824.23047l.38525.06641c.38818.06543.74414.15723,1.06689.27441.32275.11816.57764.28613.76465.50684.18652.21973.28027.5127.28027.87988,0,.54297-.20166.96387-.60498,1.26465s-.9458.45117-1.62793.45117Z"/><path d="m175.03417,155.73701v-7.7002h1.1333v4.38965h.17578l2.13379-2.1123h1.50732l-2.73926,2.62891,2.82715,2.79395h-1.49609l-2.23291-2.25488h-.17578v2.25488h-1.1333Z"/><path d="m39.15073,116.51029l-.00131,53.93923,53.93794.00131.00263-53.93923-53.93925-.00131Zm52.59146,52.59538l-51.24761-.00131.00131-51.2489,51.24892.00131-.00263,51.2489Z"/><path d="m87.2062,122.44398h-42.19928s0,22.42772,0,22.42772h42.19928v-22.42772Zm-1.34516,1.34516v12.90779h-3.77933c-.3376,0-.64105-.20099-.77373-.50969l-3.03844-7.10809c-.36125-.84073-1.20329-1.35305-2.09919-1.32415-.91298.03678-1.69196.62004-1.98359,1.48572l-2.29098,6.79019c-.17865.53071-.6555.57143-.79606.57143h-.00131c-.14187,0-.61741-.04072-.79738-.57275l-2.12284-6.29232c-.30476-.90378-1.11791-1.48704-2.07161-1.48704h-.00131c-.9537,0-1.76684.58457-2.07029,1.48704l-2.12284,6.29232c-.17997.53202-.6555.57275-.79738.57275h-.00131c-.14056,0-.61741-.04072-.79606-.57275l-2.29098-6.78887c-.29163-.86569-1.07061-1.44894-1.98359-1.48572-.91955-.0289-1.73794.48342-2.09919,1.32546l-3.03976,7.10677c-.13268.31002-.43481.50969-.77242.50969h-3.77933v-12.90779h39.50895Zm-39.50895,19.73739v-5.48443h3.77933c.8762,0,1.66569-.5202,2.00986-1.32677l3.03976-7.10546c.2115-.49524.67258-.50575.80789-.511.1353.00525.59114.06305.76322.57275l2.29098,6.78756c.30345.90378,1.11659,1.48835,2.07029,1.48835h.00131c.9537,0,1.76684-.58325,2.07161-1.48704l2.12284-6.29363c.17865-.53071.6555-.57143.79606-.57143h.00131c.14187,0,.61741.04072.79738.57275l2.12284,6.29232c.30476.90378,1.11791,1.48835,2.07161,1.48704h.00131c.9537,0,1.76684-.58457,2.07029-1.48704l2.29098-6.78887c.17209-.50969.62792-.56749.76322-.57275.13925.00788.5977.01576.80789.50969l3.03976,7.10809c.34549.80526,1.13367,1.32546,2.00986,1.32546h3.77933v5.48443h-39.50895Z"/><path d="m86.77278,151.08027c0-1.44352-1.17037-2.61381-2.61397-2.61381-1.44369,0-2.61397,1.17029-2.61397,2.61381,0,1.44369,1.17029,2.61414,2.61397,2.61414,1.44361,0,2.61397-1.17045,2.61397-2.61414Z"/><path d="m48.27295,154.55271c1.79747,0,3.25462-1.45715,3.25462-3.2547s-1.45715-3.2547-3.25462-3.2547-3.25462,1.45715-3.25462,3.2547,1.45715,3.2547,3.25462,3.2547Zm0-5.16423c1.05288,0,1.90945.85666,1.90945,1.90953s-.85657,1.90953-1.90945,1.90953-1.90945-.85666-1.90945-1.90953.85657-1.90953,1.90945-1.90953Z"/><path d="m60.88806,151.29801c.00008-1.79755-1.45707-3.2547-3.25454-3.2547s-3.25462,1.45715-3.25462,3.2547,1.45707,3.2547,3.25462,3.2547,3.25454-1.45715,3.25454-3.2547Zm-5.16399,0c0-1.05288.85657-1.90953,1.90945-1.90953.51002,0,.9895.19869,1.35017.55928.36059.36059.5592.84023.5592,1.35025,0,1.05288-.85657,1.90953-1.90937,1.90953-1.05288,0-1.90945-.85666-1.90945-1.90953Z"/><path d="m45.25126,164.61565h42.00223s0-6.64043,0-6.64043h-42.00223v6.64043Zm23.96994-1.34516h-11.29335v-3.9501h11.29335v3.9501Zm1.34516-3.9501h9.58036v3.9501h-9.58036v-3.9501Zm-13.98368,3.9501h-4.29295v-3.9501h4.29295v3.9501Zm29.32565,0h-4.41645v-3.9501h4.41645v3.9501Zm-39.3119-3.9501h4.34814v3.9501h-4.34814v-3.9501Z"/><circle cx="160.02001" cy="99.1152" r="10.40391" style="fill:#00ebec; stroke:#000; stroke-miterlimit:10;"/><path d="m159.29296,102.48017v-8.07275h-.28564l-1.04883,3.81396h-2.00244v-.19092l1.33496-4.67188h4.09961v9.12158h2.76514v2.00195h-8.00879v-2.00195h3.146Z"/></svg>