<?xml version="1.0" encoding="UTF-8"?><svg id="outlines" xmlns="http://www.w3.org/2000/svg" viewBox="0 0 180.09656 131.06659"><rect x=".11094" y="3.34453" width="176.65601" height="127.67622"/><rect x="3.15559" y=".29988" width="176.65601" height="127.67622" fill="#eaeaea"/><path d="m180.06176,128.22634H2.90551V.04958h177.15625v128.17676Zm-176.65625-.5h176.15625V.54958H3.40551v127.17676Z"/><polygon points="179.8116 19.10708 3.1556 19.25193 3.1556 7.16598 179.81161 7.19675 179.8116 19.10708"/><rect x="3.1556" y=".29988" width="176.65601" height="6.86609" fill="#fff"/><path d="m180.06176,7.41579H2.90551V.04958h177.15625v7.36621ZM3.40551,6.91579h176.15625V.54958H3.40551v6.36621Z"/><circle cx="6.58391" cy="3.73798" r="1.6133" fill="#ff737c"/><circle cx="11.62546" cy="3.73798" r="1.6133" fill="#ffd200"/><circle cx="16.66701" cy="3.73798" r="1.6133" fill="#00f376"/><path d="m11.16407,12.88291l-1.64479-2.21164h-1.6337s3.27848,4.38992,3.27848,4.38992l3.27854-4.38988h-1.62259s-1.65593,2.2116-1.65593,2.2116Z" fill="#fff"/><path d="m30.44599,10.67144h-1.28917s-.43344-.00001-.43344-.00001l-1.82264,2.22272-1.8115-2.22275h-.43343s-1.28918-.00001-1.28918-.00001h-.01111s-.00003,4.38991-.00003,4.38991h1.30029s.00002-2.78952.00002-2.78952l2.24492,2.78955,2.25608-2.78951-.00002,2.78953h1.3114s.00003-4.3899.00003-4.3899h-.02223Z" fill="#fff"/><path d="m16.10217,10.67132h-1.3114s-.00003,4.3899-.00003,4.3899h1.3114s.00003-4.3899.00003-4.3899Z" fill="#fff"/><path d="m16.45031,15.06123h1.62258s1.65594-2.2116,1.65594-2.2116l1.64479,2.21164h1.6337s-3.27848-4.38992-3.27848-4.38992l-3.27854,4.38988Z" fill="#fff"/><polygon points="51.00762 32.52237 51.00762 24.97882 28.64634 24.97883 28.64634 32.52237 3.1556 32.52237 3.15559 127.9761 179.8116 127.97609 179.81161 32.52237 51.00762 32.52237" fill="#fff"/><path d="m180.06176,128.22634H2.90551V32.27224h25.49072v-7.54297h22.86133v7.54297h128.8042v95.9541Zm-176.65625-.5h176.15625V32.77224H50.75757v-7.54297h-21.86133v7.54297H3.40551v94.9541Z"/><path d="m180.06176,128.22634H2.90551V.04958h177.15625v128.17676Zm-176.65625-.5h176.15625V.54958H3.40551v127.17676Z"/><rect x="14.37238" y="41.42195" width="31.57949" height="31.57949" fill="#fff"/><path d="m46.2019,73.25173H14.12231v-32.08008h32.07959v32.08008Zm-31.57959-.5h31.07959v-31.08008H14.62231v31.08008Z"/><rect x="52.08824" y="41.42195" width="31.57949" height="31.57949" fill="#fff"/><path d="m83.91772,73.25173h-32.07959v-32.08008h32.07959v32.08008Zm-31.57959-.5h31.07959v-31.08008h-31.07959v31.08008Z"/><rect x="89.8041" y="41.42195" width="31.57949" height="31.57949" fill="#fff"/><path d="m121.63354,73.25173h-32.07959v-32.08008h32.07959v32.08008Zm-31.57959-.5h31.07959v-31.08008h-31.07959v31.08008Z"/><rect x="14.37238" y="79.13781" width="31.57949" height="31.57949" fill="#fff"/><path d="m46.2019,110.96755H14.12231v-32.08008h32.07959v32.08008Zm-31.57959-.5h31.07959v-31.08008H14.62231v31.08008Z"/><rect x="52.08824" y="79.13781" width="31.57949" height="31.57949" fill="#fff"/><path d="m83.91772,110.96755h-32.07959v-32.08008h32.07959v32.08008Zm-31.57959-.5h31.07959v-31.08008h-31.07959v31.08008Z"/><rect x="89.8041" y="79.13781" width="31.57949" height="31.57949" fill="#fff"/><path d="m121.63354,110.96755h-32.07959v-32.08008h32.07959v32.08008Zm-31.57959-.5h31.07959v-31.08008h-31.07959v31.08008Z"/><polygon points="67.87798 47.07036 70.71084 51.4501 75.75161 52.79089 72.46163 56.8385 72.74415 62.04689 67.87798 60.16872 63.01182 62.04689 63.29433 56.8385 60.00436 52.79089 65.04513 51.4501 67.87798 47.07036" fill="#ffd200"/><path d="m73.01489,62.41872l-5.13672-1.98242-5.13672,1.98242.29785-5.49707-3.47314-4.27344,5.32129-1.41504,2.99072-4.62305,2.99023,4.62305,5.32129,1.41504-3.47314,4.27344.29834,5.49707Zm-12.57275-9.48535l3.10693,3.82227-.2666,4.91895,4.5957-1.77344,4.5957,1.77344-.26709-4.91895,3.10693-3.82227-4.76074-1.2666-2.6748-4.13672-2.67529,4.13672-4.76074,1.2666Z"/><polygon points="104.28062 85.05799 107.11347 89.43772 112.15424 90.77851 108.86427 94.82613 109.14679 100.03451 104.28062 98.15634 99.41445 100.03451 99.69697 94.82613 96.40699 90.77851 101.44777 89.43772 104.28062 85.05799" fill="#ffd200"/><path d="m99.1438,100.407l.29834-5.49805-3.47314-4.27344,5.32129-1.41504,2.99023-4.62207,2.99072,4.62207,5.3208,1.41504-3.47266,4.27344.29785,5.49805-5.13672-1.9834-5.13672,1.9834Zm5.13672-2.51855l4.5957,1.77441-.2666-4.91992,3.10693-3.82227-4.76074-1.2666-2.67529-4.13574-2.6748,4.13574-4.76074,1.2666,3.10693,3.82227-.26709,4.91992,4.5957-1.77441Z"/><path d="m39.42305,57.24698c.0001-1.4025-.94522-2.57273-2.22956-2.94202.64843-1.16907.49014-2.66549-.50198-3.65771-.99188-.99212-2.48835-1.15098-3.65776-.50342-.36746-1.28685-1.53909-2.23461-2.94385-2.23461-1.40265,0-2.57268.94498-2.94207,2.22884-1.16898-.64669-2.66452-.48755-3.65636.50429-.99241.99241-1.15127,2.48921-.50323,3.65857-1.28434.36852-2.22975,1.53827-2.22985,2.94077-.0001,1.4026.94517,2.57263,2.22942,2.94212-.64838,1.16888-.49,2.66529.50203,3.65752.99208.99222,2.48878,1.15098,3.65829.50323.36958,1.28329,1.53947,2.22788,2.94178,2.22788,1.40265,0,2.57268-.94488,2.94207-2.22874,1.16898.64669,2.66457.48755,3.65641-.50429.99063-.99068,1.1505-2.48382.5066-3.65213,1.28343-.36929,2.22797-1.53837,2.22807-2.94029Z" fill="#b400ff"/><path d="m30.09008,66.82204c-1.36621,0-2.5957-.86035-3.08691-2.12695-1.24414.55176-2.72461.28906-3.68994-.67676-.9668-.9668-1.22656-2.44629-.67627-3.68945-1.26709-.49121-2.12891-1.7207-2.12842-3.08691,0-1.36621.86182-2.5957,2.12842-3.08691-.5498-1.24316-.28955-2.72266.67773-3.68945.96631-.9668,2.44482-1.22754,3.68799-.67773.49121-1.26758,1.72119-2.12891,3.0874-2.12891,1.36914,0,2.6001.86426,3.08936,2.13379,1.24365-.54883,2.72217-.29004,3.68896.67773.9668.9668,1.22656,2.44629.67627,3.68945,1.2666.49121,2.12842,1.7207,2.12842,3.08691s-.86133,2.5957-2.12744,3.08594c.5459,1.24121.28418,2.71875-.68066,3.68359-.9668.96582-2.44531,1.22754-3.6875.67773-.49121,1.2666-1.72119,2.12793-3.0874,2.12793Zm-2.78857-2.84863l.08691.30176c.34717,1.20508,1.45801,2.04688,2.70166,2.04688s2.35449-.8418,2.70166-2.04785l.08691-.30078.27441.15137c1.09668.60645,2.47852.41699,3.3584-.46191.87842-.87891,1.06934-2.25781.46484-3.35449l-.15137-.27441.30078-.08691c1.20557-.34668,2.04736-1.45703,2.04736-2.7002,0-1.24414-.84229-2.35449-2.04834-2.70117l-.30225-.08691.15234-.27441c.60889-1.09863.41992-2.48047-.45996-3.36035-.88086-.87988-2.26318-1.06934-3.35986-.46094l-.2749.15234-.08643-.30273c-.3457-1.20898-1.45752-2.05371-2.70361-2.05371-1.24365,0-2.35498.84277-2.70215,2.04883l-.08691.30176-.27441-.15234c-1.09717-.6084-2.47803-.41895-3.3584.46191s-1.07031,2.26172-.46143,3.36035l.15234.27441-.30225.08691c-1.20605.34668-2.04834,1.45703-2.04834,2.70117-.00049,1.24414.8418,2.35449,2.04834,2.70117l.30225.08691-.15234.27441c-.60938,1.09863-.41992,2.48047.45996,3.36035.87939.87891,2.26172,1.06934,3.36035.46094l.27441-.15234Z"/><circle cx="30.09072" cy="57.24082" r="1.92072" fill="#ffd200"/><path d="m30.09057,59.41189c-1.19678,0-2.17041-.97363-2.17041-2.1709s.97363-2.1709,2.17041-2.1709c1.19727,0,2.1709.97363,2.1709,2.1709s-.97363,2.1709-2.1709,2.1709Zm0-3.8418c-.9209,0-1.67041.75-1.67041,1.6709s.74951,1.6709,1.67041,1.6709c.92139,0,1.6709-.75,1.6709-1.6709s-.74951-1.6709-1.6709-1.6709Z"/><rect x="98.36002" y="46.66026" width="16.588" height="16.588" fill="#00f376"/><path d="m115.19799,63.49782h-17.08789v-17.08789h17.08789v17.08789Zm-16.58789-.5h16.08789v-16.08789h-16.08789v16.08789Z"/><circle cx="27.04983" cy="92.89565" r="6.28598" fill="#ff737c"/><path d="m27.05005,99.43142c-3.604,0-6.53613-2.93164-6.53613-6.53613,0-3.60352,2.93213-6.53516,6.53613-6.53516s6.53564,2.93164,6.53564,6.53516c0,3.60449-2.93164,6.53613-6.53564,6.53613Zm0-12.57129c-3.32812,0-6.03613,2.70703-6.03613,6.03516s2.70801,6.03613,6.03613,6.03613,6.03564-2.70801,6.03564-6.03613-2.70752-6.03516-6.03564-6.03516Z"/><circle cx="36.3733" cy="101.66256" r="3.66682" fill="#ff737c"/><path d="m36.37329,105.57985c-2.15967,0-3.91699-1.75684-3.91699-3.91699s1.75732-3.91699,3.91699-3.91699,3.91699,1.75684,3.91699,3.91699-1.75732,3.91699-3.91699,3.91699Zm0-7.33398c-1.88428,0-3.41699,1.5332-3.41699,3.41699s1.53271,3.41699,3.41699,3.41699,3.41699-1.5332,3.41699-3.41699-1.53271-3.41699-3.41699-3.41699Z"/><path d="m81.03231,93.31647c.00005-1.20063-2.71615-2.17477-6.07399-2.18246,2.36975-2.37923,3.60243-4.98824,2.75338-5.83728-.84905-.84914-3.45897.38315-5.83906,2.75247-.00669-3.35923-.98067-6.07716-2.18198-6.07716-1.20083,0-2.17452,2.71562-2.18198,6.07293-2.37923-2.36874-4.9879-3.60046-5.837-2.75132-.84929.84924.3831,3.45901,2.7529,5.83863-3.35803.00674-6.07442.9799-6.07447,2.18073-.00005,1.20063,2.7161,2.17477,6.07399,2.18246-2.3699,2.37933-3.60262,4.98833-2.75358,5.83748.849.84905,3.45834-.38286,5.8382-2.7517.00765,3.35692.98125,6.07196,2.18193,6.07196,1.20083,0,2.17448-2.71562,2.18193-6.07293,2.37923,2.36865,4.988,3.60046,5.83709,2.75132.8488-.84885-.38185-3.45603-2.74886-5.83449,3.35668-.00731,6.07144-.98019,6.07148-2.18063Z" fill="#00ecea"/><path d="m69.69067,104.9031c-1.30322,0-2.30957-2.43066-2.42188-5.74414-2.42236,2.26562-4.85303,3.27344-5.7749,2.35059-.92236-.92188.08643-3.35254,2.35156-5.77441-3.31396-.1123-5.74561-1.11816-5.74512-2.42188,0-1.30371,2.43164-2.30859,5.74561-2.4209-2.26465-2.42188-3.27295-4.85352-2.35107-5.77539.92188-.92383,3.35205.08594,5.77393,2.34961.1123-3.31348,1.11865-5.74414,2.42188-5.74414,1.30469,0,2.31055,2.43262,2.42188,5.74805,2.42236-2.26367,4.85205-3.27441,5.77588-2.35059.92236.92188-.08643,3.35254-2.35156,5.77441,3.31396.1123,5.74561,1.11816,5.74561,2.42188s-2.43066,2.30859-5.74316,2.4209c2.26123,2.4209,3.26855,4.85059,2.34717,5.77148-.92334.92383-3.35303-.08691-5.77393-2.34961-.1123,3.3125-1.11865,5.74414-2.42188,5.74414Zm-1.93359-6.92285l.00146.59961c.00781,3.43164,1.0249,5.82324,1.93213,5.82324s1.92432-2.3916,1.93213-5.82422l.00146-.59961.4248.42383c2.43213,2.4209,4.84229,3.39355,5.48389,2.75195s-.33008-3.05078-2.74951-5.48145l-.42285-.42578.59961-.00098c3.43115-.00684,5.82227-1.02344,5.82227-1.93066s-2.39209-1.9248-5.82471-1.93262l-.6001-.00098.42334-.42578c2.42285-2.43164,3.396-4.8418,2.75391-5.4834-.64355-.64258-3.05371.33105-5.48584,2.75293l-.42529.42383-.00098-.59961c-.00684-3.43457-1.02393-5.82812-1.93213-5.82812-.90723,0-1.92432,2.3916-1.93213,5.82324l-.00146.59961-.4248-.42383c-2.43311-2.42188-4.84375-3.39258-5.48389-2.75098-.6416.64258.33105,3.05273,2.75342,5.48535l.42334.42578-.6001.00098c-3.43262.00684-5.82471,1.02344-5.82471,1.93066-.00049.9082,2.3916,1.9248,5.82422,1.93262l.6001.00098-.42334.42578c-2.42285,2.43164-3.396,4.8418-2.75391,5.4834.64062.64062,3.05127-.33008,5.48486-2.75195l.4248-.42383Z"/><circle cx="69.69121" cy="93.31262" r="1.7461" fill="#ffd200"/><path d="m69.69116,95.30837c-1.10059,0-1.99609-.89551-1.99609-1.99609s.89551-1.99609,1.99609-1.99609,1.99609.89551,1.99609,1.99609-.89551,1.99609-1.99609,1.99609Zm0-3.49219c-.82471,0-1.49609.6709-1.49609,1.49609s.67139,1.49609,1.49609,1.49609,1.49609-.6709,1.49609-1.49609-.67139-1.49609-1.49609-1.49609Z"/><rect x="14.37238" y="116.73909" width="31.57949" height="11.32302" fill="#fff"/><path d="m46.2019,128.31228H14.12231v-11.82324h32.07959v11.82324Zm-31.57959-.5h31.07959v-10.82324H14.62231v10.82324Z"/><rect x="52.08824" y="116.73909" width="31.57949" height="11.32302" fill="#fff"/><path d="m83.91772,128.31228h-32.07959v-11.82324h32.07959v11.82324Zm-31.57959-.5h31.07959v-10.82324h-31.07959v10.82324Z"/><rect x="89.8041" y="116.73909" width="31.57949" height="11.32302" fill="#fff"/><path d="m121.63354,128.31228h-32.07959v-11.82324h32.07959v11.82324Zm-31.57959-.5h31.07959v-10.82324h-31.07959v10.82324Z"/><rect x="132.68676" y="32.53103" width=".5" height="96.25098"/><rect x="140.02554" y="101.01808" width="26.28716" height="8.27012"/><path d="m166.81274,109.78786h-27.28711v-9.26953h27.28711v9.26953Zm-26.28711-1h25.28711v-7.26953h-25.28711v7.26953Z"/><rect x="140.02554" y="41.20741" width="32.6455" height="8.77085" fill="#fff"/><path d="m172.92114,50.22829h-33.14551v-9.27051h33.14551v9.27051Zm-32.64551-.5h32.14551v-8.27051h-32.14551v8.27051Z"/><polyline points="169.14316 44.65899 167.4958 46.32132 165.84512 44.67696" fill="#fff"/><polygon points="167.49682 46.67458 165.6687 44.85329 166.02124 44.49978 167.49487 45.96755 168.96557 44.48317 169.32104 44.83474 167.49682 46.67458"/><rect x="140.02554" y="58.82641" width="32.6455" height="8.77085" fill="#fff"/><path d="m172.92114,67.84743h-33.14551v-9.27148h33.14551v9.27148Zm-32.64551-.5h32.14551v-8.27148h-32.14551v8.27148Z"/><polyline points="169.14316 62.27798 167.4958 63.94032 165.84512 62.29596" fill="#fff"/><polygon points="167.49682 64.29372 165.6687 62.47243 166.02124 62.11892 167.49487 63.58669 168.96557 62.10232 169.32104 62.45388 167.49682 64.29372"/><rect x="139.84094" y="73.10644" width="19.49385" height="5.61187" rx="2.80593" ry="2.80593" fill="#eaeaea"/><rect x="139.84094" y="80.49047" width="29.90533" height="5.61187" rx="2.80593" ry="2.80593" fill="#eaeaea"/><rect x="160.81159" y="73.10644" width="13.80814" height="5.61187" rx="2.80593" ry="2.80593" fill="#eaeaea"/><path d="m42.98706,70.03786h-25.81006v-25.51465h25.81006v25.51465Zm-24.81006-1h23.81006v-23.51465h-23.81006v23.51465Z" fill="#b400ff"/><rect x="35.1969" y="64.85963" width="92.59577" height="16.8356" rx="8.41779" ry="8.41779"/><path d="m47.28589,73.47146v2.36426h-.68945v-5.74609h2.05225c.29541,0,.55273.04199.77148.12695s.40088.19824.5459.34082.25439.30762.32861.49707c.07373.18848.11084.38672.11084.59473v.24609c0,.20801-.03711.4082-.11084.59961-.07422.19141-.18457.35938-.33252.50488-.14795.14453-.33105.25977-.55029.34473-.21875.08496-.47314.12695-.76318.12695h-1.36279Zm0-.64062h1.28076c.76611,0,1.14941-.32812,1.14941-.98438v-.14844c0-.28906-.09473-.52344-.2832-.70117-.18896-.17773-.47754-.2666-.86621-.2666h-1.28076v2.10059Z" fill="#fff"/><path d="m52.56421,70.08962v3.80859c0,.46582.10791.81738.32422,1.05469.21582.23828.53467.35742.95605.35742s.74023-.11914.95654-.35742c.21631-.2373.32422-.58887.32422-1.05469v-3.80859h.68945v3.80859c0,.66797-.17529,1.17676-.52539,1.52734-.3501.34961-.83154.52539-1.44482.52539-.61279,0-1.09424-.17578-1.44434-.52539-.35059-.35059-.52539-.85938-.52539-1.52734v-3.80859h.68945Z" fill="#fff"/><path d="m61.0769,75.83571h-.68945v-1.9209c0-.14258-.03271-.25195-.09863-.32812-.06543-.07715-.18066-.11523-.34473-.11523h-1.78955v2.36426h-.68945v-5.74609h2.05225c.29541,0,.55273.04199.77148.12695s.40088.19824.5459.34082.25439.30762.32861.49707c.07373.18848.11084.38672.11084.59473v.24609c0,.21387-.05908.42676-.17676.64062-.11768.21289-.29932.37793-.5459.49219v.09863c.16455.02734.29297.09277.38574.19727.09326.10352.13965.25195.13965.44336v2.06836Zm-2.92236-3.00488h1.28076c.38867,0,.67725-.08301.86621-.25.18848-.16699.2832-.41211.2832-.73438v-.14844c0-.28906-.09473-.52344-.2832-.70117-.18896-.17773-.47754-.2666-.86621-.2666h-1.28076v2.10059Z" fill="#fff"/><path d="m63.58862,73.47146v2.36426h-.68945v-5.74609h2.05225c.29541,0,.55273.04199.77148.12695s.40088.19824.5459.34082.25439.30762.32861.49707c.07373.18848.11084.38672.11084.59473v.24609c0,.20801-.03711.4082-.11084.59961-.07422.19141-.18457.35938-.33252.50488-.14795.14453-.33105.25977-.55029.34473-.21875.08496-.47314.12695-.76318.12695h-1.36279Zm0-.64062h1.28076c.76611,0,1.14941-.32812,1.14941-.98438v-.14844c0-.28906-.09473-.52344-.2832-.70117-.18896-.17773-.47754-.2666-.86621-.2666h-1.28076v2.10059Z" fill="#fff"/><path d="m68.35034,70.08962h.68945v5.10547h3.00439v.64062h-3.69385v-5.74609Z" fill="#fff"/><path d="m73.84155,70.08962h3.48096v.64062h-2.79102v1.9043h2.7417v.63965h-2.7417v1.9209h2.83984v.64062h-3.52979v-5.74609Z" fill="#fff"/><path d="m84.7185,70.08962h3.52979v.64062h-2.84033v1.9043h2.79102v.63965h-2.79102v2.56152h-.68945v-5.74609Z" fill="#fff"/><path d="m90.08764,70.08962h.68945v5.10547h3.00439v.64062h-3.69385v-5.74609Z" fill="#fff"/><path d="m95.30005,72.32204c0-.74414.17773-1.32129.5332-1.73145.35596-.41113.85107-.61621,1.48584-.61621s1.13037.20508,1.48584.61621c.35596.41016.53369.9873.53369,1.73145v1.28125c0,.76562-.17773,1.34863-.53369,1.74805-.35547.39941-.85107.59961-1.48584.59961s-1.12988-.2002-1.48584-.59961c-.35547-.39941-.5332-.98242-.5332-1.74805v-1.28125Zm2.01904,2.98828c.44336,0,.77588-.15137.99756-.45508.22168-.30469.33252-.73828.33252-1.30176v-1.18164c0-.52539-.11084-.94922-.33252-1.27246s-.5542-.48438-.99756-.48438c-.44287,0-.77539.16113-.99707.48438s-.33252.74707-.33252,1.27246v1.18164c0,.56348.11084.99707.33252,1.30176.22168.30371.5542.45508.99707.45508Z" fill="#fff"/><path d="m104.59253,75.83571h-1.25586l-.53369-5.4502h-.09814l-.53369,5.4502h-1.25586l-.58301-5.74609h.62402l.5498,5.4502h.09863l.51709-5.4502h1.26416l.51709,5.4502h.09863l.5498-5.4502h.62402l-.58301,5.74609Z" fill="#fff"/><path d="m106.44751,70.08962h3.48096v.64062h-2.79102v1.9043h2.7417v.63965h-2.7417v1.9209h2.83984v.64062h-3.52979v-5.74609Z" fill="#fff"/><path d="m115.42016,75.83571h-.68945v-1.9209c0-.14258-.03271-.25195-.09863-.32812-.06543-.07715-.18066-.11523-.34473-.11523h-1.78955v2.36426h-.68945v-5.74609h2.05225c.29541,0,.55273.04199.77148.12695s.40088.19824.5459.34082.25439.30762.32861.49707c.07373.18848.11084.38672.11084.59473v.24609c0,.21387-.05908.42676-.17676.64062-.11768.21289-.29932.37793-.5459.49219v.09863c.16455.02734.29297.09277.38574.19727.09326.10352.13965.25195.13965.44336v2.06836Zm-2.92236-3.00488h1.28076c.38867,0,.67725-.08301.86621-.25.18848-.16699.2832-.41211.2832-.73438v-.14844c0-.28906-.09473-.52344-.2832-.70117-.18896-.17773-.47754-.2666-.86621-.2666h-1.28076v2.10059Z" fill="#fff"/></svg>