<?xml version="1.0" encoding="UTF-8"?><svg id="outlines" xmlns="http://www.w3.org/2000/svg" viewBox="0 0 180.09656 131.06659"><rect x=".02863" y="3.38145" width="176.65601" height="127.67622"/><rect x="3.07328" y=".3368" width="176.65601" height="127.67622" fill="#fff"/><path d="m179.97928,128.26326H2.82303l.00049-128.17676h177.15576v128.17676Zm-176.65625-.5h176.15625V.5865H3.32352l-.00049,127.17676Z"/><rect x="3.07329" y=".3368" width="176.65601" height="6.86609" fill="#fff"/><path d="m179.97928,7.45271H2.82352V.0865h177.15576v7.36621ZM3.32352,6.95271h176.15576V.5865H3.32352v6.36621Z"/><circle cx="6.5016" cy="3.7749" r="1.6133" fill="#ff737c"/><circle cx="11.54315" cy="3.7749" r="1.6133" fill="#ffd200"/><circle cx="16.5847" cy="3.7749" r="1.6133" fill="#00f376"/><path d="m179.97928,128.26326H2.82303l.00049-128.17676h177.15576v128.17676Zm-176.65625-.5h176.15625V.5865H3.32352l-.00049,127.17676Z"/><rect x="15.13755" y="76.18478" width="107.95456" height="33.08047"/><path d="m30.51542,88.73006h5.9043v.93652h-2.44824v7.46387h-1.00781v-7.46387h-2.44824v-.93652Z" fill="#fff"/><path d="m43.55936,97.13045h-1.00781v-2.80762c0-.20801-.04785-.36816-.14453-.48047-.0957-.1123-.26367-.16797-.50391-.16797h-2.61621v3.45605h-1.00781v-8.40039h3c.43262,0,.80859.0625,1.12793.18652.32031.12402.58594.29004.79785.49805s.37207.4502.48047.72559c.1084.27637.16211.56641.16211.87012v.36035c0,.31152-.08594.62402-.25781.93555-.17285.3125-.43848.55176-.79785.7207v.14355c.23926.04004.42773.13574.56348.28809s.2041.36816.2041.64746v3.02441Zm-4.27246-4.3916h1.87207c.56836,0,.99023-.12207,1.2666-.36621.27539-.24414.41406-.60254.41406-1.07422v-.21582c0-.42383-.13867-.76562-.41406-1.02637-.27637-.25977-.69824-.38965-1.2666-.38965h-1.87207v3.07227Z" fill="#fff"/><path d="m50.19608,95.04256h-3.60059l-.6123,2.08789h-1.0791l2.54395-8.40039h1.89551l2.54395,8.40039h-1.08008l-.61133-2.08789Zm-1.87207-5.87988l-1.45215,4.94336h3.04785l-1.45215-4.94336h-.14355Z" fill="#fff"/><path d="m53.1951,88.73006h5.32812v.93652h-2.16016v6.52832h2.16016v.93555h-5.32812v-.93555h2.16016v-6.52832h-2.16016v-.93652Z" fill="#fff"/><path d="m64.96756,96.69881h.14355v-7.96875h1.00781v8.40039h-2.01562l-2.42383-7.96777h-.14453v7.96777h-1.00781v-8.40039h2.0166l2.42383,7.96875Z" fill="#fff"/><path d="m75.13163,88.73006h1.91992l1.12793,7.96875h.14453l1.12793-7.96875h1.91992v8.40039h-.93652v-7.96777h-.14355l-1.12793,7.96777h-1.82422l-1.12793-7.96777h-.14453v7.96777h-.93555v-8.40039Z" fill="#fff"/><path d="m82.76346,91.9947c0-1.08789.25977-1.93262.78027-2.53223.51953-.59961,1.24316-.90039,2.17188-.90039.92773,0,1.65137.30078,2.17188.90039.51953.59961.78027,1.44434.78027,2.53223v1.87207c0,1.12012-.26074,1.97168-.78027,2.55566-.52051.58398-1.24414.87598-2.17188.87598-.92871,0-1.65234-.29199-2.17188-.87598-.52051-.58398-.78027-1.43555-.78027-2.55566v-1.87207Zm2.95215,4.36816c.64746,0,1.13379-.22266,1.45801-.66602.32422-.44434.48633-1.07812.48633-1.90234v-1.72852c0-.76758-.16211-1.3877-.48633-1.85938s-.81055-.70801-1.45801-.70801c-.64844,0-1.13379.23633-1.45801.70801s-.48633,1.0918-.48633,1.85938v1.72852c0,.82422.16211,1.45801.48633,1.90234.32422.44336.80957.66602,1.45801.66602Z" fill="#fff"/><path d="m90.38358,88.73006h2.75977c1.04004,0,1.7998.24805,2.28027.74414.47949.49609.71973,1.28809.71973,2.37598v2.16016c0,1.08789-.24023,1.87988-.71973,2.37598-.48047.49609-1.24023.74414-2.28027.74414h-2.75977v-.94824h.71973v-6.51562h-.71973v-.93652Zm2.61621,7.46484c.36719,0,.68555-.03613.95312-.1084.26855-.07227.49023-.19434.66602-.36621.17676-.17188.30664-.40137.39062-.68945s.12598-.65234.12598-1.09277v-2.01562c0-.43945-.04199-.80371-.12598-1.0918s-.21387-.51855-.39062-.69043c-.17578-.17188-.39746-.29395-.66602-.36621-.26758-.07129-.58594-.10742-.95312-.10742h-.88867v6.52832h.88867Z" fill="#fff"/><path d="m98.0994,88.73006h5.08789v.93652h-4.08008v2.78418h4.00781v.93555h-4.00781v2.80859h4.15234v.93555h-5.16016v-8.40039Z" fill="#fff"/><path d="m105.47928,88.73006h1.00781v7.46484h4.39258v.93555h-5.40039v-8.40039Z" fill="#fff"/><path d="m15.68924,20.23103h1.91992l1.12793,7.96875h.14453l1.12793-7.96875h1.91992v8.40039h-.93652v-7.96777h-.14355l-1.12793,7.96777h-1.82422l-1.12793-7.96777h-.14453v7.96777h-.93555v-8.40039Z"/><path d="m29.14139,25.72713c0,.49609-.08203.93457-.24609,1.31445s-.38184.7002-.6543.95996c-.27148.25977-.58984.45801-.95312.59375-.36426.13574-.74219.2041-1.13477.2041-.39941,0-.7793-.06836-1.13965-.2041s-.67578-.33398-.94824-.59375c-.27148-.25977-.49023-.58008-.65332-.95996-.16406-.37988-.24609-.81836-.24609-1.31445v-.14355c0-.48828.08203-.92188.24609-1.30176.16309-.37988.38379-.70215.65918-.9668.27637-.26367.59473-.46387.9541-.59961.36035-.13574.73633-.2041,1.12793-.2041.39258,0,.76855.06836,1.12793.2041.36035.13574.67871.33594.9541.59961.27637.26465.49609.58691.66016.9668s.24609.81348.24609,1.30176v.14355Zm-2.98828,2.18457c.28809,0,.55469-.0498.79883-.15039.24316-.09961.45703-.24609.6416-.4375.18359-.19238.32812-.42188.43164-.69043.10449-.26758.15625-.57031.15625-.90625v-.14355c0-.32031-.05176-.61426-.15625-.88184-.10352-.26855-.24805-.49805-.43164-.69043-.18457-.19141-.40039-.3418-.64844-.4502-.24805-.10742-.51172-.16211-.79199-.16211-.2793,0-.54395.05469-.79199.16211-.24805.1084-.46387.25879-.64746.4502-.18457.19238-.32812.42188-.43262.69043-.10352.26758-.15527.56152-.15527.88184v.14355c0,.33594.05176.63867.15527.90625.10449.26855.24805.49805.43262.69043.18359.19141.39746.33789.6416.4375.24414.10059.50977.15039.79785.15039Z"/><path d="m35.47733,27.71931h-.14453c-.0957.18457-.21777.34375-.36523.48047-.14844.13574-.30859.24805-.48047.33594s-.35352.15332-.5459.19727-.37598.06641-.55176.06641c-.40039,0-.77246-.06836-1.11621-.2041s-.64648-.33203-.90625-.58789-.46387-.57422-.61133-.9541c-.14844-.37988-.22266-.81348-.22266-1.30176v-.19238c0-.47949.07617-.91016.22852-1.29004.15137-.37988.35547-.69922.61133-.95996.25586-.25977.55664-.45801.90039-.59375s.70801-.2041,1.0918-.2041c.4082,0,.79004.08984,1.14648.27051.35547.17969.62988.45801.82129.83398h.14453v-3.38477h.93555v8.40039h-.93555v-.91211Zm-1.99219.19238c.28027,0,.54004-.05176.78027-.15625.24023-.10352.4502-.25195.62988-.44434.17969-.19141.32227-.42188.42578-.68945.10449-.26855.15625-.56641.15625-.89453v-.14355c0-.32031-.05176-.61426-.15625-.88184-.10352-.26855-.24609-.49805-.42578-.69043-.17969-.19141-.39258-.3418-.63574-.4502-.24414-.10742-.50293-.16211-.77441-.16211-.28027,0-.54199.05273-.78613.15625-.24414.10449-.45605.25195-.63574.44434-.17969.19141-.32031.41992-.41992.68359-.10059.26465-.15039.55664-.15039.87598v.19238c0,.33594.0498.63574.15039.89941.09961.26465.24023.49023.41992.67871.17969.1875.38965.33203.62988.43164.24023.10059.50391.15039.79199.15039Z"/><path d="m38.89725,25.94295c.02344.59277.20801,1.06836.55176,1.42871.34375.35938.82422.54004,1.44043.54004.2793,0,.52344-.03223.73145-.09668.20801-.06348.38574-.15137.53418-.26367.14746-.1123.26758-.24219.36035-.38965.0918-.14844.16504-.30664.22168-.47461l.8877.24023c-.16797.55176-.47754,1.00195-.92969,1.35059-.45215.34766-1.0625.52148-1.83008.52148-.42383,0-.81445-.07422-1.16992-.22168-.35645-.14844-.66211-.3584-.91797-.62988-.25586-.27246-.45605-.59668-.60059-.97266-.14355-.37598-.21582-.79199-.21582-1.24805v-.28809c0-.41504.07422-.80371.22266-1.16406.14746-.35938.35352-.66992.61719-.92969.26465-.25977.57422-.46387.93066-.6123.35547-.14746.74121-.22168,1.1582-.22168.4873,0,.90918.08984,1.26562.27051.35547.17969.64746.40137.87598.66602.22754.26367.39551.55176.50391.86328.1084.3125.16211.60059.16211.86426v.76758h-4.7998Zm1.99219-2.54395c-.26465,0-.51074.04199-.73828.12598-.22852.08398-.42871.20215-.60059.35449s-.31152.33008-.41992.53418c-.10742.2041-.17773.42578-.20996.66602h3.83984c-.01562-.25586-.07715-.48828-.18555-.69629s-.24805-.38379-.41992-.52832c-.17188-.14355-.36816-.25586-.58789-.33594-.2207-.0791-.44629-.12012-.67773-.12012Z"/><path d="m45.55741,27.76716h2.16016v-6.67188h-2.08789v-.86426h3.02344v7.53613h2.16016v.86426h-5.25586v-.86426Z"/><path d="m64.51737,28.19978h.14355v-7.96875h1.00781v8.40039h-2.01562l-2.42383-7.96777h-.14453v7.96777h-1.00781v-8.40039h2.0166l2.42383,7.96875Z"/><path d="m71.90897,27.62361h-.14355c-.19238.40039-.45898.69629-.79883.8877-.33984.19238-.69727.28809-1.07324.28809-.39258,0-.75684-.06641-1.09277-.19824s-.62988-.32812-.88184-.58789-.4502-.57812-.59375-.9541-.21582-.81152-.21582-1.30762v-.19238c0-.4873.07227-.91992.21582-1.2959s.3418-.69336.59375-.9541c.25195-.25977.5459-.45801.88184-.59375s.69238-.2041,1.06836-.2041c.4082,0,.77832.08984,1.11035.27051.33203.17969.59375.45801.78613.83398h.14355v-.93652h.93555v4.72852c0,.23926.1084.35938.32422.35938h.2998v.86426h-.63574c-.27148,0-.49414-.08789-.66602-.26367s-.25781-.40039-.25781-.67188v-.07227Zm-1.91992.28809c.28027,0,.53809-.05176.77344-.15625.23633-.10352.43848-.25195.60645-.44434.16797-.19141.2998-.42188.39648-.68945.0957-.26855.14355-.56641.14355-.89453v-.14355c0-.32031-.04785-.61426-.14355-.88184-.09668-.26855-.23047-.49805-.40234-.69043-.17188-.19141-.37598-.3418-.6123-.4502-.23633-.10742-.49023-.16211-.76172-.16211-.28027,0-.53613.05273-.76855.15625-.23145.10449-.43359.25-.60547.43848-.17188.1875-.30566.41602-.40234.68359-.0957.26855-.14355.5625-.14355.88184v.19238c0,.67969.17773,1.20996.53418,1.58984.35547.37988.81738.57031,1.38574.57031Z"/><path d="m80.65702,28.63142h-.93555v-4.27246c0-.2793-.06445-.50977-.19238-.68945s-.33203-.27051-.6123-.27051c-.26367,0-.47754.09863-.6416.29395-.16406.19629-.24609.49805-.24609.90625v4.03223h-.93555v-4.32031c0-.26367-.07227-.48145-.2168-.65332-.14355-.17188-.33594-.25879-.5752-.25879-.28809,0-.51074.10449-.66602.3125-.15625.20801-.23438.47949-.23438.81641v4.10352h-.93555v-5.95215h.93555v.64844h.14355c.10449-.28027.25684-.48633.45605-.61816.2002-.13184.43652-.19824.70801-.19824.28809,0,.52637.07617.71484.22852.1875.15137.31738.34766.38965.58789h.14355c.27246-.54395.7041-.81641,1.2959-.81641.44824,0,.79395.14258,1.03809.42578.24414.28418.36621.6543.36621,1.11035v4.58398Z"/><path d="m82.9617,25.94295c.02344.59277.20801,1.06836.55176,1.42871.34375.35938.82422.54004,1.44043.54004.2793,0,.52344-.03223.73145-.09668.20801-.06348.38574-.15137.53418-.26367.14746-.1123.26758-.24219.36035-.38965.0918-.14844.16504-.30664.22168-.47461l.8877.24023c-.16797.55176-.47754,1.00195-.92969,1.35059-.45215.34766-1.0625.52148-1.83008.52148-.42383,0-.81445-.07422-1.16992-.22168-.35645-.14844-.66211-.3584-.91797-.62988-.25586-.27246-.45605-.59668-.60059-.97266-.14355-.37598-.21582-.79199-.21582-1.24805v-.28809c0-.41504.07422-.80371.22266-1.16406.14746-.35938.35352-.66992.61719-.92969.26465-.25977.57422-.46387.93066-.6123.35547-.14746.74121-.22168,1.1582-.22168.4873,0,.90918.08984,1.26562.27051.35547.17969.64746.40137.87598.66602.22754.26367.39551.55176.50391.86328.1084.3125.16211.60059.16211.86426v.76758h-4.7998Zm1.99219-2.54395c-.26465,0-.51074.04199-.73828.12598-.22852.08398-.42871.20215-.60059.35449s-.31152.33008-.41992.53418c-.10742.2041-.17773.42578-.20996.66602h3.83984c-.01562-.25586-.07715-.48828-.18555-.69629s-.24805-.38379-.41992-.52832c-.17188-.14355-.36816-.25586-.58789-.33594-.2207-.0791-.44629-.12012-.67773-.12012Z"/><path d="m24.24588,46.09236v2.87988h-.83984v-7h2.5c.36035,0,.67383.05176.94043.15527s.48828.24121.66504.41504c.17578.17285.30957.375.39941.60449.08984.23047.13574.47168.13574.72559v.2998c0,.25293-.0459.49609-.13574.72949s-.22461.43848-.4043.61523c-.18066.17676-.4043.31641-.6709.41992s-.57617.15527-.92969.15527h-1.66016Zm0-.78027h1.56055c.93262,0,1.39941-.39941,1.39941-1.2002v-.17969c0-.35352-.11426-.63867-.34473-.85449-.22949-.2168-.58203-.3252-1.05469-.3252h-1.56055v2.55957Z"/><path d="m33.0867,44.01228h.7793v4.95996h-.7793v-.90039h-.12012c-.16016.32031-.37012.57422-.62988.76074-.26074.18652-.59082.2793-.99023.2793-.27344,0-.52539-.04492-.75488-.13477-.23047-.08984-.42676-.22461-.58984-.40527-.16406-.17969-.29004-.40332-.38086-.66992-.08984-.2666-.13477-.57617-.13477-.92969v-2.95996h.78027v2.86035c0,.51953.10645.89941.32031,1.13965.21289.24023.54004.36035.97949.36035.47363,0,.84473-.16211,1.11523-.48535.26953-.32324.40527-.75488.40527-1.29492v-2.58008Z"/><path d="m35.38553,44.01228h1.80078v.66016h.11914c.12695-.27344.30664-.47559.54004-.60547s.5-.19434.80078-.19434c.5,0,.90332.16309,1.20996.48926.30664.32715.46973.80371.48926,1.43066l-.81934.12012c0-.45996-.11035-.79199-.33008-.99512s-.49023-.30566-.81055-.30566c-.20605,0-.38477.04004-.53418.12012-.15039.08008-.27539.19043-.375.33008-.10059.14062-.17383.30371-.2207.49023s-.06934.38672-.06934.59961v2.10059h1.25977v.71973h-3.17969v-.71973h1.13965v-3.52051h-1.02051v-.71973Z"/><path d="m42.38651,50.97224h-.78027v-6.95996h.78027v.78027h.11914c.17383-.30078.41406-.52832.7207-.68555.30664-.15625.63965-.23438,1-.23438.30664,0,.59668.05664.87012.16992.27246.11328.51465.27637.72461.48926.20996.21387.37695.47754.5.79004.12305.31348.18457.66992.18457,1.07031v.2002c0,.40625-.05957.7666-.17969,1.08008s-.28516.57617-.49512.79004c-.20996.21289-.45508.375-.73438.48438-.28027.11035-.57715.16504-.89062.16504-.16016,0-.32324-.01855-.49023-.05469-.16602-.03711-.32422-.09277-.47461-.16992-.15039-.07617-.28809-.16992-.41504-.28027-.12695-.10938-.2334-.24121-.32031-.39453h-.11914v2.75977Zm1.65918-2.59961c.24023,0,.45996-.04199.66016-.125.2002-.08398.375-.20215.52539-.35547.14941-.15332.2666-.33984.34961-.55957.08301-.2207.125-.4668.125-.74023v-.2002c0-.2666-.04199-.50781-.125-.72461s-.2002-.40332-.34961-.56055c-.15039-.15625-.32715-.27832-.53027-.36523-.20312-.08594-.42188-.12988-.65527-.12988s-.44922.04492-.64941.13574c-.2002.08984-.375.21484-.52539.375-.14941.15918-.26855.35156-.35449.57422-.08691.22363-.12988.46875-.12988.73535v.12012c0,.27344.04297.52148.12988.74512.08594.22363.20508.41504.35449.5752.15039.15918.3252.2832.52539.36914.2002.08691.41602.13086.64941.13086Z"/><path d="m47.90604,48.25252h1.7998v-5.56055h-1.73926v-.71973h2.51953v6.28027h1.7998v.71973h-4.37988v-.71973Z"/><path d="m54.59647,46.73201c.01953.49414.17285.89062.45996,1.19043.28613.2998.68652.4502,1.2002.4502.2334,0,.43652-.02734.60938-.08008.17383-.05371.32227-.12695.44531-.2207.12305-.09277.22363-.20117.2998-.32422.07715-.12402.13867-.25586.18555-.39551l.73926.2002c-.13965.45996-.39844.83496-.77441,1.125-.37695.29004-.88477.43457-1.52539.43457-.35352,0-.67871-.06152-.97461-.18457-.29688-.12305-.55176-.29883-.76562-.52539-.21289-.22656-.37988-.49609-.5-.80957-.11914-.31348-.17969-.66016-.17969-1.04004v-.24023c0-.34668.06152-.66992.18555-.96973.12305-.2998.29492-.55859.51465-.77539.21973-.21582.47852-.38672.77441-.50977.29688-.12305.61914-.18457.96582-.18457.40625,0,.75781.07422,1.05469.22461s.54004.33496.72949.55469c.19043.2207.33008.45996.4209.7207.08984.25977.13477.5.13477.71973v.63965h-4Zm1.66016-2.12012c-.2207,0-.42578.03516-.61523.10547-.19043.07031-.35645.16797-.5.29492s-.25977.27539-.35059.44531c-.08984.16992-.14844.35449-.1748.55469h3.2002c-.01367-.21289-.06445-.40625-.15527-.58008-.08984-.17285-.20605-.32031-.34961-.44043-.14355-.11914-.30664-.21289-.49023-.2793s-.37109-.10059-.56445-.10059Z"/><path d="m66.34647,41.97224h4.2998v.78027h-3.45996v2.31934h3.39941v.78027h-3.39941v3.12012h-.83984v-7Z"/><path d="m72.38651,48.25252h1.7998v-5.56055h-1.74023v-.71973h2.52051v6.28027h1.7998v.71973h-4.37988v-.71973Z"/><path d="m83.18631,46.55232c0,.41309-.06836.77832-.20508,1.09473-.13672.31738-.31836.58398-.54492.7998-.22656.2168-.49219.38184-.79492.49512-.30371.11328-.61816.16992-.94531.16992-.33301,0-.64941-.05664-.9502-.16992-.2998-.11328-.56348-.27832-.79004-.49512-.22656-.21582-.4082-.48242-.54492-.7998-.13672-.31641-.20508-.68164-.20508-1.09473v-.12012c0-.40625.06836-.76855.20508-1.08496s.32031-.58496.55078-.80469c.22949-.2207.49414-.38672.79492-.5.2998-.11328.61328-.16992.93945-.16992.32715,0,.64062.05664.94043.16992s.56445.2793.79492.5c.22949.21973.41309.48828.5498.80469s.20508.67871.20508,1.08496v.12012Zm-2.49023,1.82031c.24023,0,.46191-.04199.66504-.125.20312-.08398.38184-.20508.53516-.36523s.27344-.35156.36035-.5752c.08594-.22363.12988-.47461.12988-.75488v-.12012c0-.2666-.04395-.51172-.12988-.73535-.08691-.22266-.20703-.41504-.36035-.57422-.15332-.16016-.33301-.28516-.54004-.375-.20703-.09082-.42676-.13574-.66016-.13574s-.45312.04492-.66016.13574c-.20605.08984-.38672.21484-.54004.375-.15332.15918-.27344.35156-.35938.57422-.08691.22363-.12988.46875-.12988.73535v.12012c0,.28027.04297.53125.12988.75488.08594.22363.20605.41504.35938.5752s.33203.28125.53516.36523c.20312.08301.4248.125.66504.125Z"/><path d="m88.91581,48.97224h-1.43945l-.60059-4.59961h-.12012l-.59961,4.59961h-1.44043l-.7793-4.95996h.7998l.66016,4.59961h.11914l.58008-4.59961h1.44043l.58008,4.59961h.12012l.66016-4.59961h.7998l-.78027,4.95996Z"/><path d="m91.3162,46.73201c.01953.49414.17285.89062.45996,1.19043.28613.2998.68652.4502,1.2002.4502.2334,0,.43652-.02734.60938-.08008.17383-.05371.32227-.12695.44531-.2207.12305-.09277.22363-.20117.2998-.32422.07715-.12402.13867-.25586.18555-.39551l.73926.2002c-.13965.45996-.39844.83496-.77441,1.125-.37695.29004-.88477.43457-1.52539.43457-.35352,0-.67871-.06152-.97461-.18457-.29688-.12305-.55176-.29883-.76562-.52539-.21289-.22656-.37988-.49609-.5-.80957-.11914-.31348-.17969-.66016-.17969-1.04004v-.24023c0-.34668.06152-.66992.18555-.96973.12305-.2998.29492-.55859.51465-.77539.21973-.21582.47852-.38672.77441-.50977.29688-.12305.61914-.18457.96582-.18457.40625,0,.75781.07422,1.05469.22461s.54004.33496.72949.55469c.19043.2207.33008.45996.4209.7207.08984.25977.13477.5.13477.71973v.63965h-4Zm1.66016-2.12012c-.2207,0-.42578.03516-.61523.10547-.19043.07031-.35645.16797-.5.29492s-.25977.27539-.35059.44531c-.08984.16992-.14844.35449-.1748.55469h3.2002c-.01367-.21289-.06445-.40625-.15527-.58008-.08984-.17285-.20605-.32031-.34961-.44043-.14355-.11914-.30664-.21289-.49023-.2793s-.37109-.10059-.56445-.10059Z"/><path d="m96.58573,44.01228h1.80078v.66016h.11914c.12695-.27344.30664-.47559.54004-.60547s.5-.19434.80078-.19434c.5,0,.90332.16309,1.20996.48926.30664.32715.46973.80371.48926,1.43066l-.81934.12012c0-.45996-.11035-.79199-.33008-.99512s-.49023-.30566-.81055-.30566c-.20605,0-.38477.04004-.53418.12012-.15039.08008-.27539.19043-.375.33008-.10059.14062-.17383.30371-.2207.49023s-.06934.38672-.06934.59961v2.10059h1.25977v.71973h-3.17969v-.71973h1.13965v-3.52051h-1.02051v-.71973Z"/><path d="m134.13456,57.47029H15.35135v-23.3457h118.7832v23.3457Zm-118.0332-.75h117.2832v-21.8457H16.10135v21.8457Z"/></svg>