<?xml version="1.0" encoding="UTF-8"?><svg id="Layer_1" xmlns="http://www.w3.org/2000/svg" viewBox="0 0 25 25"><path d="m23.75,0H1.25C.56,0,0,.56,0,1.25v22.5c0,.69.56,1.25,1.25,1.25h22.5c.69,0,1.25-.56,1.25-1.25V1.25C25,.56,24.44,0,23.75,0Zm-2.29,13.19v-.92h-1.21v-2.84c-.01-.77.41-2.18.58-2.71h3.55v9.71h-2.27v-2.58l-.65-.65Zm-10.68-6.23c-.31-.39-.82-1.05-.74-1.82.05-.53.24-.99.45-1.33l.79,1.88,2.56-1.04-.78-1.98c.75.18,1.42,1.03,1.55,1.65.18.87-.1,1.74-.8,2.54-.83.95-.99,1.59-.99,2.44,0,0,.28,9.23.36,11.88.01.38-.07.67-.25.86-.21.22-.53.26-.76.26s-.55-.05-.76-.26c-.18-.19-.26-.47-.25-.86.08-2.65.36-11.88.36-11.88.02-.94-.2-1.65-.73-2.33Zm-7.08,14.44v-1.06h.83v-.62h-.83v-1.48h1.85v-.62h-1.85v-1.48h.83v-.62h-.83v-1.48h1.85v-.62h-1.85v-1.48h.83v-.62h-.83v-1.48h1.85v-.62h-1.85v-1.48h.83v-.62h-.83v-1.48h1.85v-.62h-1.85v-1h2.83v17.39h-2.83ZM5.41,3.39V.62h6.74v1.46h0s0,0,0,0h0s0,0,0,0l.88,2.22-1.42.58-.94-2.25-.33.34c-.38.4-.83,1.16-.92,2.1-.04.36.02.7.13,1.01h-2.38v-2.7h-1.75Zm14.21,8.88h-.61v-2.83c.01-.94-.49-2.64-.61-3.04l.52-2.06h.79l.56,2.06c-.14.41-.67,2.1-.65,3.04v2.84Zm-3,1.57v2.58h-2.97c-.1-3.4-.22-7.13-.22-7.13,0-.62.06-1.13.83-2.02.16-.18.3-.37.42-.56h3.16c.16.54.55,1.95.54,2.72v2.84h-1.11v.92l-.65.65Zm2.43-10.14h-.61l-.61,2.38h-2.82c.25-.62.33-1.26.2-1.89-.19-.92-1.23-2.18-2.44-2.18V.62h6.28v3.08Zm-11.89,3.01h2.68c.16.27.34.5.48.68.41.53.59,1.1.57,1.9,0,0-.11,3.74-.22,7.14h-3.51V6.71Zm5.27,16.19c.38-.05.7-.19.94-.43.3-.31.45-.75.43-1.31-.03-.86-.07-2.41-.13-4.11h2.95v3.17l.06.08c.38.54,1.42.77,2.38.81v3.27h-6.62v-1.47Zm6.93-2.42c-1.07,0-1.86-.24-2.12-.48v-5.9l.65-.65v-.56h2.94v.56l.65.65v5.9c-.26.25-1.05.48-2.12.48ZM24.38,1.25v4.84h-3.54l-.65-2.38h-.51V.62h4.07c.35,0,.63.28.63.63ZM1.25.62h3.54v2.77h-1.71v2.7H.62V1.25c0-.35.28-.63.63-.63Zm1.83,15.8H.62V6.71h2.46v9.71Zm-2.46,7.32v-6.7h2.46v4.98h1.71v2.34h.62v-2.34h1.75v-4.98h3.49c-.05,1.7-.1,3.25-.13,4.11-.02.56.13,1,.43,1.31.22.22.51.37.85.43v1.48H1.25c-.35,0-.63-.28-.63-.63Zm23.12.63h-4.07v-3.27c.95-.04,2-.27,2.38-.81l.06-.08v-3.17h2.27v6.7c0,.35-.28.63-.63.63Z"/></svg>