<?xml version="1.0" encoding="UTF-8"?>
<svg id="Layer_1" data-name="Layer 1" xmlns="http://www.w3.org/2000/svg" viewBox="0 0 40 40">
  <path d="m0,0v40s40,0,40,0V0S0,0,0,0Zm39,39H1s0-38,0-38h38s0,38,0,38Z"/>
  <path d="m35.64,4.4H4.34v16.63h31.29V4.4Zm-1,1v9.57h-2.8c-.25,0-.48-.15-.57-.38l-2.25-5.27c-.27-.62-.89-1-1.56-.98-.68.03-1.25.46-1.47,1.1l-1.7,5.04c-.13.39-.49.42-.59.42h0c-.11,0-.46-.03-.59-.42l-1.57-4.67c-.23-.67-.83-1.1-1.54-1.1h0c-.71,0-1.31.43-1.54,1.1l-1.57,4.67c-.13.39-.49.42-.59.42h0c-.1,0-.46-.03-.59-.42l-1.7-5.03c-.22-.64-.79-1.07-1.47-1.1-.68-.02-1.29.36-1.56.98l-2.25,5.27c-.1.23-.32.38-.57.38h-2.8V5.4h29.3ZM5.34,20.03v-4.07h2.8c.65,0,1.24-.39,1.49-.98l2.25-5.27c.16-.37.5-.38.6-.38.1,0,.44.05.57.42l1.7,5.03c.23.67.83,1.1,1.54,1.1h0c.71,0,1.31-.43,1.54-1.1l1.57-4.67c.13-.39.49-.42.59-.42h0c.11,0,.46.03.59.42l1.57,4.67c.23.67.83,1.1,1.54,1.1h0c.71,0,1.31-.43,1.54-1.1l1.7-5.03c.13-.38.47-.42.57-.42.1,0,.44.01.6.38l2.25,5.27c.26.6.84.98,1.49.98h2.8v4.07H5.34Z"/>
  <path d="m35.32,25.64c0-1.07-.87-1.94-1.94-1.94s-1.94.87-1.94,1.94.87,1.94,1.94,1.94,1.94-.87,1.94-1.94Z"/>
  <path d="m6.77,28.21c1.33,0,2.41-1.08,2.41-2.41s-1.08-2.41-2.41-2.41-2.41,1.08-2.41,2.41,1.08,2.41,2.41,2.41Zm0-3.83c.78,0,1.42.64,1.42,1.42s-.64,1.42-1.42,1.42-1.42-.64-1.42-1.42.64-1.42,1.42-1.42Z"/>
  <path d="m16.12,25.8c0-1.33-1.08-2.41-2.41-2.41s-2.41,1.08-2.41,2.41,1.08,2.41,2.41,2.41,2.41-1.08,2.41-2.41Zm-3.83,0c0-.78.64-1.42,1.42-1.42.38,0,.73.15,1,.41.27.27.41.62.41,1,0,.78-.64,1.42-1.42,1.42s-1.42-.64-1.42-1.42Z"/>
  <path d="m4.52,35.67h31.15v-4.92H4.52v4.92Zm17.78-1h-8.37v-2.93h8.37v2.93Zm1-2.93h7.1v2.93h-7.1v-2.93Zm-10.37,2.93h-3.18v-2.93h3.18v2.93Zm21.75,0h-3.28v-2.93h3.28v2.93Zm-29.15-2.93h3.22v2.93h-3.22v-2.93Z"/>
</svg>