<?xml version="1.0" encoding="UTF-8"?>
<svg id="Layer_1" data-name="Layer 1" xmlns="http://www.w3.org/2000/svg" viewBox="0 0 25 25">
  <path d="m0,0v25s25,0,25,0V0S0,0,0,0Zm24.37,24.38H.62s0-23.75,0-23.75h23.75s0,23.75,0,23.75Z"/>
  <path d="m4.45,12.05c0-4.72,3.57-8.55,7.96-8.55,2.74,0,5.16,1.5,6.59,3.77-1.22-1.22-2.91-1.98-4.78-1.98-3.73,0-6.77,3.04-6.77,6.77v9.53h.62v-9.53c0-3.39,2.76-6.14,6.14-6.14,1.9,0,3.6.87,4.73,2.22-.78-.55-1.73-.88-2.76-.88-2.65,0-4.8,2.15-4.8,4.8v9.53h.62v-9.53c0-2.3,1.87-4.18,4.18-4.18,1.37,0,2.58.66,3.34,1.68-.42-.24-.91-.39-1.43-.39-1.59,0-2.89,1.3-2.89,2.89v9.53h.62v-9.53c0-1.25,1.02-2.27,2.27-2.27s2.27,1.02,2.27,2.27v8.12s-.72-.98-.72-.98h-.75l1.78,2.38,1.78-2.38h-.73l-.73.98v-8.13c0-5.06-3.85-9.18-8.58-9.18S3.83,6.99,3.83,12.05v9.53s.62,0,.62,0v-9.53Z"/>
</svg>