<?xml version="1.0" encoding="UTF-8"?><svg id="outlines" xmlns="http://www.w3.org/2000/svg" viewBox="0 0 37 37"><path d="m22.40287,6.15684c-2.16992-2.16992-5.05469-3.36475-8.12305-3.36475s-5.95312,1.19482-8.12305,3.36475-3.36475,5.05469-3.36475,8.12305,1.19482,5.95312,3.36475,8.12305,5.05469,3.36475,8.12305,3.36475,5.95312-1.19482,8.12305-3.36475,3.36475-5.05469,3.36475-8.12305-1.19482-5.95312-3.36475-8.12305Zm2.5907,10.02216h-.00006v-.00006l.00006.00006Zm-18.12976,5.51691c-.67542-.67542-1.22821-1.42542-1.68048-2.21759l.10699-.15826,2.13922-3.16241c.18372.06097.37659.10205.58075.10205.46851,0,.89148-.17957,1.21771-.46637l3.5863,2.32727.37561.24377c-.05402.17389-.09149.3551-.09149.54675,0,1.02332.82959,1.85284,1.85284,1.85284,1.02332,0,1.85291-.82953,1.85291-1.85284,0-.52582-.22125-.99799-.57306-1.33521-.04688-.04498-.09888-.08411-.15033-.12402l2.47998-6.13275c.06726.00739.13281.02039.20203.02039.30579,0,.5899-.08118.84412-.21234l4.79211,5.14661.13843.14862c-.4007,1.93341-1.34406,3.77594-2.84161,5.2735-4.08887,4.08887-10.74316,4.08887-14.83203,0Zm-2.25006-2.26813l.00018.00012-.00031.00006.00012-.00018Zm15.72656-8.9809c.17126-.28076.27533-.6073.27533-.96021,0-1.02332-.82959-1.85284-1.85284-1.85284-1.02332,0-1.85291.82953-1.85291,1.85284,0,.59589.28625,1.12024.72339,1.45917l-2.48035,6.13275c-.06714-.00739-.13257-.02032-.20166-.02032-.46857,0-.89154.17963-1.21783.46649l-3.96179-2.57104c.05408-.17395.09149-.35516.09149-.54688,0-1.02332-.82953-1.85284-1.85284-1.85284s-1.85284.82953-1.85284,1.85284c0,.45581.1709.8678.44391,1.19049l-1.93286,2.8573c-1.65973-3.83423-.9339-8.46155,2.19531-11.59076,2.04443-2.04443,4.73047-3.06689,7.41602-3.06689s5.37158,1.02246,7.41602,3.06689c2.26642,2.26642,3.27124,5.32013,3.02545,8.2887l-4.38098-4.70569Z" style="fill:#010101;"/><path d="m35.69144,29.09825l-7.10889-7.1084-1.69244,1.69244-1.13861-1.13831c1.73157-2.39325,2.67969-5.25281,2.67969-8.2641,0-3.77979-1.47217-7.3335-4.14502-10.00635C18.76859-1.24404,9.79105-1.24404,4.27347,4.27354,1.60062,6.94639.12845,10.5001.12845,14.27989s1.47217,7.3335,4.14502,10.00635c2.75928,2.75928,6.38232,4.13867,10.00635,4.13818,2.90485-.00037,5.80243-.90259,8.26172-2.67535l1.14105,1.14075-1.69281,1.69281,7.1084,7.1084c.76123.76123,1.77295,1.18018,2.84912,1.18018,1.07666,0,2.08838-.41895,2.84912-1.18018l.89502-.89453c1.57031-1.5708,1.57031-4.12744,0-5.69824Zm-5.88623,5.88574l-6.40137-6.40137.98584-.98584,3.20752-3.20752.98535-.98535,6.40186,6.40137c1.18066,1.18115,1.18066,3.10303,0,4.28418l-.89502.89453c-1.14355,1.14453-3.13867,1.14551-4.28418,0ZM4.9805,23.57921c-2.48389-2.48389-3.85205-5.78662-3.85205-9.29932s1.36816-6.81543,3.85205-9.29932c2.56396-2.56396,5.93164-3.8457,9.29932-3.8457s6.73535,1.28174,9.29932,3.8457c2.48389,2.48389,3.85205,5.78662,3.85205,9.29932s-1.36816,6.81543-3.85205,9.29932c-5.12793,5.12793-13.4707,5.12793-18.59863,0Zm20.35938-.03271l.84326.84277-1.79346,1.79346-.84326-.84277,1.79346-1.79346Z" style="fill:#010101;"/></svg>