<?xml version="1.0" encoding="UTF-8"?><svg id="Layer_1" xmlns="http://www.w3.org/2000/svg" viewBox="0 0 25 25"><path d="m17.88,3.52V1.36l-1.36.79V0L5.76,6.21v16.06l1.36-.79v2.15l1.36-.79v2.15l10.76-6.21V2.73l-1.36.79Zm.92,15.02l-9.87,5.7v-7.37h0v-.51h0v-1.65h0v-.51h0v-1.65h0v-.51h0v-1.65h0v-.51h0v-.67l7.14-4.12.22-.13.22-.13.92-.53.22-.13.22-.13.92-.53v15.03ZM6.2,6.47L16.07.77v1.64L7.12,7.58v13.39l-.92.53V6.47Zm1.36,14.76V7.83l8.5-4.91.22-.13.22-.13.92-.53v1.64l-.92.53-.22.13-.22.13-7.59,4.38v13.39l-.92.53v-1.64Z"/><polygon points="17.43 7.1 16.52 7.63 16.29 7.76 16.07 7.89 9.96 11.41 9.96 11.42 9.96 11.43 9.96 11.92 15.04 9 16.07 8.4 16.29 8.27 16.4 8.21 16.52 8.14 17.43 7.61 17.66 7.48 17.76 7.42 17.76 6.91 17.66 6.97 17.43 7.1"/><polygon points="17.43 9.26 16.52 9.79 16.29 9.92 16.07 10.05 9.96 13.57 9.96 13.58 9.96 13.59 9.96 14.08 15.04 11.16 16.07 10.56 16.29 10.43 16.4 10.37 16.52 10.3 17.43 9.77 17.66 9.64 17.76 9.58 17.76 9.07 17.66 9.13 17.43 9.26"/><polygon points="17.43 11.42 16.52 11.95 16.29 12.08 16.07 12.21 9.96 15.73 9.96 15.74 9.96 15.75 9.96 16.25 15.04 13.32 16.07 12.72 16.29 12.59 16.4 12.53 16.52 12.46 17.43 11.93 17.66 11.8 17.76 11.74 17.76 11.23 17.66 11.29 17.43 11.42"/><polygon points="17.43 13.58 16.52 14.11 16.29 14.24 16.07 14.37 9.96 17.89 9.96 17.9 9.96 18.41 16.07 14.88 16.29 14.75 16.4 14.69 16.52 14.62 17.43 14.09 17.66 13.97 17.76 13.9 17.76 13.39 17.66 13.45 17.43 13.58"/><polygon points="17.43 15.74 9.96 20.06 9.96 20.57 17.43 16.26 17.66 16.13 17.76 16.06 17.76 15.55 17.66 15.61 17.43 15.74"/></svg>