<?xml version="1.0" encoding="UTF-8"?>
<svg id="Layer_1" data-name="Layer 1" xmlns="http://www.w3.org/2000/svg" viewBox="0 0 40 40">
  <path d="m0,0v40h40S40,0,40,0H0Zm39,39H1V1h38v38.01Z"/>
  <path d="m11.28,21.59c-3.67,0-6.66,2.99-6.66,6.66s2.99,6.66,6.66,6.66,6.66-2.99,6.66-6.66-2.99-6.66-6.66-6.66Z"/>
  <path d="m34.65,5.22h-12.46v12.46h12.46V5.22Zm-1,11.46h-10.47V6.21h10.47v10.47Z"/>
  <path d="m36.06,27.8l-7.64-7.64-7.64,7.65,7.64,7.64,7.64-7.65Zm-7.64-6.23l6.23,6.23-6.23,6.24-6.23-6.23,6.23-6.24Z"/>
  <path d="m14.88,17.69l3.6-6.24-3.6-6.24h-7.21l-3.6,6.24,3.6,6.24h7.21Zm-6.63-11.49h6.05l3.03,5.24-3.03,5.25h-6.05l-3.03-5.25,3.03-5.24Z"/>
</svg>