<?xml version="1.0" encoding="UTF-8"?><svg id="Layer_2" xmlns="http://www.w3.org/2000/svg" viewBox="0 0 37 37"><path d="m33.65962,7.55345h-1.06561V2.04576H.50014v23.71527h18.88458v6.35284c0,1.56586,1.27423,2.84009,2.84058,2.84009h11.43433c1.56635,0,2.84052-1.27423,2.84052-2.84009V10.39348c0-1.56586-1.27417-2.84003-2.84052-2.84003Zm1.86755,24.56042c0,1.02954-.83759,1.86707-1.86755,1.86707h-11.43433c-1.03003,0-1.86755-.83752-1.86755-1.86707V10.39348c0-.37427.11316-.72162.30353-1.0141.12341-.18958.28143-.35272.46332-.48645.30951-.2276.68781-.36652,1.10071-.36652h11.43433c1.02997,0,1.86755.83759,1.86755,1.86707v21.7204ZM19.38472,10.39348v11.78687H4.20815v-12.80066l15.37207-.00031c-.12164.31598-.1955.65582-.1955,1.0141Zm12.23633-4.5589H1.4731v-2.8158h30.14795v2.8158ZM1.4731,6.80754h30.14795v.74591h-9.39575c-.79254,0-1.50854.32782-2.02429.85297l-16.96582.00031v14.74658h16.14954v1.63477H1.4731V6.80754Z"/><path d="m24.82228,11.21379l4.36676-.00006h1.8736c.2168,0,.41046-.08771.55841-.22369.16528-.15186.27258-.36511.27258-.6073v-.02209c0-.24219-.1073-.45544-.27258-.6073-.14795-.13599-.34161-.22369-.55841-.22369h-6.24036c-.45898,0-.83105.37207-.83105.83099v.02209c0,.45898.37207.83105.83105.83105Z"/><path d="m32.10744,12.88676h-10.72736v17.6731l13.12421-.00043V12.88676h-2.39685Zm1.42389,16.69965l-11.17828.00049v-15.72717h11.17828v15.72668Z"/><path d="m2.89858,5.1118c.34979,0,.63336-.28357.63336-.63336s-.28357-.6333-.63336-.6333-.6333.28351-.6333.6333.28351.63336.6333.63336Z"/><path d="m4.84395,5.1118c.34973,0,.6333-.28357.6333-.63336s-.28357-.6333-.6333-.6333c-.34979,0-.63336.28351-.63336.6333s.28357.63336.63336.63336Z"/><path d="m6.78926,5.1118c.34979,0,.63336-.28357.63336-.63336s-.28357-.6333-.63336-.6333-.63336.28351-.63336.6333.28357.63336.63336.63336Z"/></svg>