<?xml version="1.0" encoding="UTF-8"?>
<svg id="Layer_1" data-name="Layer 1" xmlns="http://www.w3.org/2000/svg" viewBox="0 0 40 40">
  <path d="m0,0v40s40,0,40,0V0S0,0,0,0Zm39,39H1s0-38.01,0-38.01h38s0,38.01,0,38.01Z"/>
  <path d="m5.9,33c-.62-.16-1.32,0-1.81.48-.73.73-.73,1.92,0,2.66.73.73,1.92.73,2.66,0,.24-.24.39-.53.47-.83h13.66c.08.3.24.59.47.83.73.73,1.92.73,2.66,0,.66-.66.72-1.69.19-2.42l9.63-12c.69.3,1.51.17,2.07-.39.73-.73.73-1.92,0-2.66-.56-.56-1.38-.69-2.07-.39l-9.61-11.98c.53-.73.47-1.76-.19-2.42-.73-.73-1.92-.73-2.66,0-.24.24-.39.53-.47.83H7.23c-.08-.3-.24-.59-.47-.83-.73-.73-1.92-.73-2.66,0-.73.73-.73,1.92,0,2.66.49.49,1.18.64,1.81.48l7.59,13.01-7.59,12.99Zm1.32-27.31h13.69c.08.3.23.58.46.81l-4.04,6.92L7.17,5.87c.02-.06.04-.12.05-.18Zm15.01,1.31c.4.11.83.08,1.22-.09l9.61,11.98c-.13.18-.23.39-.28.6h-5.63c-.08-.3-.24-.59-.47-.83-.68-.68-1.74-.72-2.48-.15l-6.06-4.51,4.1-7.02Zm-15.07,27.13l10.15-7.54,4.03,6.91c-.23.24-.38.52-.46.81H7.23c-.02-.06-.03-.12-.05-.18Zm15.04-1.13l-4.09-7.01,6.08-4.52c.74.57,1.8.53,2.48-.15.24-.24.39-.53.47-.83h5.63c.06.21.15.41.28.59l-9.63,12c-.39-.17-.82-.19-1.22-.09Zm1.39-13.68c-.17.44-.17.92,0,1.36l-5.98,4.44-2.98-5.11,2.99-5.13,5.97,4.44Zm-6.79,6.4l-9.73,7.23,6.98-11.95,2.75,4.72ZM7.08,7.05l9.75,7.24-2.76,4.73L7.08,7.05Z"/>
</svg>