<?xml version="1.0" encoding="UTF-8"?><svg id="Layer_1" xmlns="http://www.w3.org/2000/svg" viewBox="0 0 25 25"><path d="m24.98935.00061L.01065,0v24.97871l4.66682.00015c.03312.01194.06775.02114.10505.02114.03726,0,.07194-.0092.10505-.02114l20.10178.00046V.00061Zm-.62295,24.35576l-19.27242-.00046V7.57878c0-1.95583,1.59143-3.54727,3.54727-3.54727s3.54727,1.59143,3.54727,3.54727v9.82115c0,2.29955,1.87127,4.17022,4.17082,4.17022h.00122c1.11327,0,2.16024-.43375,2.94744-1.22095.78781-.78781,1.22156-1.83538,1.22156-2.94926v-9.39591l.7153.97564h.74705l-1.77386-2.38046-1.77401,2.38046h.73268l.7299-.98164v9.40192c0,.9478-.36927,1.83842-1.03906,2.50882-.66979.66979-1.5598,1.03845-2.507,1.03845h-.00122c-1.95644,0-3.54788-1.59143-3.54788-3.54727V7.57878c0-2.29955-1.87067-4.17022-4.17022-4.17022s-4.17022,1.87067-4.17022,4.17022v16.77713l-3.83745-.00015V.62295l23.73281.00061v23.73281Z"/><path d="m16.35912,18.58438c.64781,0,1.17297-.52516,1.17297-1.17289,0-.64781-.52516-1.17297-1.17297-1.17297-.64777,0-1.17293.52516-1.17293,1.17297s.52516,1.17289,1.17293,1.17289Z"/><path d="m8.64133,6.39448c-.64777,0-1.17293.52516-1.17293,1.17304,0,.64774.52516,1.17289,1.17293,1.17289.64781,0,1.17297-.52516,1.17297-1.17297s-.52516-1.17297-1.17297-1.17297Z"/></svg>