<?xml version="1.0" encoding="UTF-8"?><svg id="Layer_1" xmlns="http://www.w3.org/2000/svg" viewBox="0 0 25 25"><path d="m12.81,21.68s-.06.03-.09.05c.03-.01.06-.03.09-.05Z"/><path d="m12.95,21.59s.03-.01.04-.02h-.02s0,.02-.02.02Z"/><path d="m12.36,21.84s-.07.01-.1.02c.03,0,.07-.01.1-.02Z"/><path d="m12.61,21.77s-.08.03-.11.04c.04-.01.08-.02.11-.04Z"/><path d="m12.87,21.65s.06-.04.08-.06c-.04.03-.09.06-.14.08.02,0,.04-.02.05-.03Z"/><path d="m12.72,21.72s-.07.03-.11.05c.04-.01.08-.03.11-.05Z"/><path d="m10.6,21.44c.49.29.97.43,1.41.43.09,0,.17,0,.25-.02-.08.01-.16.02-.25.02-.44,0-.92-.14-1.42-.43Z"/><path d="m12.49,21.81s-.09.02-.13.03c.04,0,.09-.02.13-.03Z"/><path d="m11.09,21.29s-.02,0-.03-.01c0,0,.02,0,.03.01Z"/><path d="m11.37,21.4s-.01,0-.02,0c0,0,.01,0,.02,0Z"/><path d="m12.63,21.37s-.04.02-.06.03c.02,0,.04-.02.06-.03Z"/><path d="m12.17,21.5s-.02,0-.03,0c.01,0,.02,0,.03,0Z"/><path d="m12.41,21.46s-.03,0-.05.01c.02,0,.03,0,.05-.01Z"/><path d="m12.78,21.27h.02s.02-.03.03-.03c-.02.01-.03.02-.05.03Z"/><path d="m11.64,21.47s0,0-.01,0c0,0,0,0,.01,0Z"/><path d="m11.91,21.51s-.01,0-.02,0c0,0,.01,0,.02,0Z"/><polygon points="12.99 21.57 13.03 21.55 12.99 21.57 12.99 21.57"/><path d="m12.71,21.32h0s.03-.02.05-.03c0,0,.01,0,.02-.01l-.07.04Z"/><path d="m12.71,21.32s.03-.02.05-.03c-.02.01-.03.02-.05.03h0Z"/><path d="m13.05,21.37s-.07.06-.1.08l.39-.22s.02-.02.03-.04l-.32.18Z"/><path d="m12.83,21.52l.06.11.08-.05c.14-.1.27-.21.37-.35l-.39.22s-.08.05-.12.07Z"/><path d="m12.76,21.29s.03-.01.04-.02h0s0,0,0,0h-.02s-.01.02-.02.03Z"/><g><path d="m21.96,7.91c-.79-.46-1.54-.55-2.14-.27h0s-.05.03-.05.03c-.02.01-.05.02-.07.03h0s0,0,0,0l-.28.16-1.57.89h0s0,0,0,0c-.02.01-.05.02-.08.04,0,0,0,0-.01,0-.05.03-.09.06-.13.09l-.19-.11c0-1.92-1.37-4.26-3.04-5.22-.38-.22-.75-.35-1.1-.4-.04,0-.08-.02-.12-.02-.02,0-.05,0-.07,0-.31-.02-.59.03-.85.15h0s-.05.03-.05.03c-.02.01-.05.02-.07.03h0s0,0,0,0l-.26.15-1.59.91h0l-.03.02-.07.04-.11.07h0s-7.18,4.15-7.18,4.15c0,0,0,0,0,0h0s0,0,0,0h-.01s-.04.03-.04.03l-.11.06-.18.1h0s-1.51.85-1.51.85h0s0,0-.01,0c-.02.01-.05.02-.07.03,0,0,0,0-.01,0-.07.04-.13.08-.19.13-.04.04-.09.07-.13.11-.03.03-.07.06-.1.1-.03.04-.06.08-.09.12-.03.04-.06.08-.08.12-.03.04-.05.09-.07.13-.02.05-.05.09-.07.14-.02.05-.04.09-.05.14-.02.06-.04.12-.05.18-.01.05-.03.09-.04.14-.02.07-.03.15-.04.22,0,.04-.01.08-.02.12-.01.12-.02.25-.02.38,0,1.92,1.36,4.26,3.03,5.23.49.29.97.43,1.41.43.09,0,.17,0,.25-.02.03,0,.07-.01.1-.02.04,0,.09-.02.13-.03.04-.01.08-.02.12-.04.04-.01.07-.03.11-.04.03-.01.07-.03.1-.05.02,0,.03-.02.05-.02.03-.02.05-.04.08-.06.01-.01.03-.02.05-.03l1.8-1.01c.14-.08.25-.18.36-.29-.01.11-.02.23-.02.35,0,1.92,1.36,4.26,3.03,5.23.5.29.98.43,1.42.43.08,0,.17,0,.25-.02.03,0,.07-.01.1-.02.04,0,.09-.02.13-.03.04-.01.08-.02.11-.04.04-.01.08-.03.11-.05.03-.01.06-.03.09-.05.05-.03.09-.05.14-.08,0,0,0,0,.02-.01l-.08.05-.06-.11s.08-.04.12-.07l.39-.22c-.11.14-.23.26-.37.35h.02s0-.01,0-.02l.04-.02,1.76-.98c.3-.17.53-.43.7-.77l.27.16,7.16-4.14,1.12-.63c.62-.35.95-1.08.95-2.05,0-1.92-1.36-4.27-3.04-5.24Zm-6.81,11.75s-.04.08-.06.12c-.02.03-.03.05-.05.07-.02.04-.05.07-.08.1-.02.02-.04.04-.06.07-.03.03-.06.06-.09.09-.02.02-.05.04-.07.06-.02.01-.04.03-.06.04,0,0,0,0,0,0l-1.1.62s0-.01,0-.02c.14-.33.22-.73.22-1.19,0-.27-.03-.55-.08-.84-.01-.08-.03-.16-.05-.23-.02-.08-.04-.16-.06-.24-.43-1.57-1.54-3.16-2.84-3.91-.4-.23-.79-.36-1.15-.41,0,0-.01,0-.02,0l.69-.39.21-.12.18-.1h.01s.07-.04.11-.05c.02,0,.04-.01.06-.02.01,0,.02,0,.04,0,.03,0,.06-.02.1-.03.02,0,.05,0,.07-.01.05,0,.09-.01.14-.01.02,0,.04,0,.07,0,.03,0,.05,0,.08,0,.06,0,.13,0,.19.02.03,0,.06.01.1.02.06.01.12.03.19.04.03,0,.07.02.1.03.07.02.14.05.2.08.03.01.06.02.09.04.1.05.2.1.3.15.62.36,1.19.92,1.66,1.58.08.11.15.22.23.34.06.1.13.21.19.31.48.86.78,1.82.78,2.69,0,.1,0,.2-.01.29,0,.03,0,.06-.01.09,0,.06-.01.13-.03.19,0,.03-.01.06-.02.1,0,.03-.01.06-.02.08,0,.02-.01.05-.02.07,0,.03-.02.06-.03.09,0,0,0,0,0,.01-.02.04-.03.09-.05.13,0,.01-.01.03-.02.04,0,.01-.01.03-.02.04Zm-10.03-2.72s-.04.02-.06.03c-.02.01-.04.02-.06.03-.05.02-.1.04-.15.05-.02,0-.04.01-.06.02-.06.01-.12.02-.18.03-.02,0-.03,0-.05,0-.07,0-.14,0-.21,0-.01,0-.02,0-.03,0-.08,0-.16-.02-.24-.03,0,0-.02,0-.02,0-.08-.02-.16-.04-.25-.07,0,0-.02,0-.03,0-.08-.03-.17-.06-.25-.1-.01,0-.02,0-.03-.01-.09-.04-.19-.09-.29-.15-1.57-.91-2.85-3.11-2.85-4.92,0-.11,0-.22.02-.33,0-.03,0-.06.01-.09,0-.07.02-.14.03-.21,0-.03.02-.07.02-.1.02-.06.03-.12.05-.18.01-.03.02-.06.03-.09.02-.06.05-.11.07-.16.01-.03.03-.05.04-.07.03-.05.06-.1.1-.15.01-.02.03-.04.04-.05.1-.12.21-.22.34-.29,0,0,.01,0,.02,0,0,0,.01,0,.02,0,.06-.03.13-.06.2-.08.14-.05.28-.07.44-.07.28,0,.6.08.92.22.06.03.12.06.18.09.04.02.09.04.13.07.02,0,.03.02.05.03,1.12.67,2.09,2,2.54,3.36.03.08.05.17.08.25.02.08.05.16.06.24.08.35.13.7.13,1.03,0,.71-.2,1.27-.57,1.59-.02.01-.03.03-.05.04-.02.01-.03.02-.05.03l-.08.04h0s0,0,0,0c0,0-.02.01-.03.02Zm13.05-7.93c.14-.05.29-.07.44-.07.37,0,.79.13,1.23.38.74.43,1.41,1.14,1.92,1.97l-3.8-2.19h0c.06-.03.13-.06.2-.09Zm-7.73-4.26c.19-.1.4-.15.63-.15.37,0,.78.12,1.21.37.73.42,1.4,1.13,1.9,1.94l-3.75-2.16Zm-.95.54l.31-.18.27-.16.05.03h0s1.24.72,1.24.72l2.02,1.16,1.14.66.52.3,2.02,1.17h0s.17.1.17.1l.1.06h0s.07.04.07.04l.09.05.16.09h0s1.25.72,1.25.72l2.07,1.19,1.01.58.11.07.32.19.14.08-.17.1-.11.06-.59.34-.32.19-2,1.16-.32.19-.49.28-.16.09-.15.09-2.51,1.45-.9-.52c-.55-.95-1.31-1.79-2.15-2.27-.69-.4-1.36-.52-1.91-.35-.04.01-.07.02-.11.03-.03.01-.07.03-.1.05,0,0,0,0-.01,0h0s-.05.03-.05.03c0,0,0,0-.01,0l-3.18-1.84c-.35-.62-.79-1.19-1.28-1.65-.08-.08-.17-.15-.26-.22-.1-.08-.2-.16-.3-.23-.11-.08-.23-.16-.35-.23-.41-.24-.81-.38-1.19-.42l5.53-3.19h.01Zm5.3,1.97c-.56-1.09-1.4-2.06-2.33-2.6-.4-.23-.79-.36-1.16-.41,0,0-.02,0-.03,0l.74-.42.36-.2s.07-.04.11-.05c.02,0,.04-.01.05-.02.05-.01.09-.03.14-.04.02,0,.04,0,.06-.01.05,0,.1-.01.16-.02.02,0,.03,0,.05,0,.03,0,.07,0,.1,0,.06,0,.12,0,.18.01.04,0,.07.01.11.02.06.01.12.03.18.04.04.01.07.02.11.03.07.02.13.05.2.08.03.01.06.02.09.04.1.05.2.1.3.15,1.51.87,2.75,2.94,2.85,4.7l-2.27-1.31Zm-7.46,8.36s-.06.06-.09.09c-.02.02-.05.04-.07.06-.02.01-.04.03-.06.04,0,0,0,0,0,0l-1.1.62s0-.01,0-.02c.14-.33.22-.73.22-1.19,0-.26-.03-.52-.07-.79-.01-.08-.03-.16-.05-.23-.02-.08-.04-.16-.06-.24-.42-1.59-1.54-3.2-2.85-3.96-.04-.03-.09-.04-.13-.07-.06-.03-.12-.07-.18-.09-.06-.03-.12-.05-.18-.07-.23-.09-.45-.15-.66-.18,0,0-.01,0-.02,0l.68-.39h0s.17-.1.17-.1h0s.18-.1.18-.1l.04-.03s.05-.02.07-.03c.01,0,.02-.01.04-.02.02,0,.03-.01.05-.02,0,0,0,0,0,0,.05-.01.09-.03.14-.04.02,0,.04,0,.06-.01.05,0,.1-.01.15-.02.01,0,.02,0,.04,0,0,0,.01,0,.02,0,.03,0,.06,0,.09,0,.06,0,.12,0,.18.02.03,0,.07.01.1.02.06.01.12.03.18.04.03,0,.07.02.1.03,0,0,0,0,0,0,.07.02.13.05.2.08.03.01.06.02.09.04.1.05.2.1.3.15,0,0,.02.01.02.01.12.07.24.15.36.24.49.36.94.84,1.32,1.39.08.11.15.22.22.33.06.1.12.21.18.31.46.85.75,1.78.75,2.63,0,.1,0,.2-.01.29,0,.03,0,.06-.01.09,0,.06-.01.13-.03.19,0,.03-.01.06-.02.1,0,.04-.02.08-.03.12,0,.01,0,.03,0,.04,0,.03-.02.06-.03.09,0,.01-.01.03-.02.04-.01.03-.02.06-.04.1-.01.02-.02.05-.03.07,0,0,0,0,0,.01-.02.04-.04.08-.06.12-.02.03-.03.05-.05.07-.02.04-.05.07-.08.1-.02.02-.04.04-.06.07Zm8.61.78l2.56-1.48.16-.09.16-.09.53-.3.33-.19,1.8-1.04.33-.19.63-.36.31-.18h.02s0,.05,0,.05v2.98h0s-.78.45-.78.45l-.62.36-.29.17h0s-5.11,2.95-5.11,2.95v-3.04Zm8.13-1.67s-.05.04-.07.06c-.02.01-.04.03-.06.04,0,0,0,0,0,0l-.83.47h0v-3.25l-.12-.07-.62-.36c-.56-1.1-1.4-2.08-2.34-2.62-.4-.23-.79-.37-1.15-.41,0,0-.01,0-.02,0l.69-.39.4-.23s.07-.04.11-.05c.02,0,.04-.01.05-.02.05-.02.09-.03.14-.04.02,0,.04,0,.06-.01.05,0,.1-.01.16-.02.02,0,.03,0,.05,0,.03,0,.07,0,.1,0,.06,0,.11,0,.17.01.04,0,.07.01.11.02.06.01.12.03.18.04.04.01.07.02.11.03.06.02.13.05.2.07.03.01.06.03.1.04.1.05.2.1.3.15,1.58.91,2.86,3.12,2.86,4.93,0,.1,0,.2-.01.3,0,.03,0,.06-.01.09,0,.06-.01.13-.02.18,0,.03-.01.06-.02.1-.01.05-.02.11-.04.16,0,.03-.02.06-.03.09-.02.05-.03.09-.05.14-.01.03-.03.06-.04.08-.02.04-.04.08-.06.12-.02.03-.03.05-.05.07-.02.04-.05.07-.08.1-.02.02-.04.04-.06.07-.03.03-.06.06-.09.09Zm-11.38,6.61s-.04.02-.06.03c-.02.01-.04.02-.06.03-.05.02-.1.04-.16.06-.02,0-.03,0-.05.01-.06.02-.13.03-.19.03-.01,0-.02,0-.03,0-.07,0-.15,0-.23,0,0,0-.01,0-.02,0-.08,0-.16-.02-.25-.03,0,0,0,0-.01,0-.08-.02-.17-.04-.26-.07,0,0-.01,0-.02,0-.08-.03-.17-.06-.26-.1,0,0-.02,0-.03-.01-.09-.04-.19-.09-.29-.15-1.57-.91-2.85-3.11-2.85-4.92,0-.11,0-.22.02-.33,0-.03,0-.06.01-.09,0-.07.02-.14.03-.21,0-.03.02-.06.02-.1,0,0,0,0,0-.01.01-.06.03-.11.05-.17,0,0,0,0,0,0,0-.03.02-.05.03-.08.01-.03.02-.06.04-.09.01-.03.03-.05.04-.07.01-.02.02-.05.04-.07.03-.05.07-.1.1-.15.01-.02.02-.03.04-.05.1-.12.21-.22.34-.3,0,0,.01,0,.02,0,0,0,.01,0,.02,0,.06-.03.13-.06.2-.09.14-.04.28-.07.44-.07.37,0,.79.13,1.23.38,1.13.65,2.11,1.98,2.57,3.34.03.08.06.17.08.25.02.08.05.16.07.25.09.36.14.73.14,1.07,0,.71-.2,1.26-.57,1.59-.02.01-.03.03-.05.04,0,0-.02.01-.03.02,0,0,0,0,0,0h0s-.03.02-.04.02c-.02.01-.03.02-.05.03,0,0-.02.01-.03.02Zm.26.11s.07-.05.1-.08l.32-.18s-.02.02-.03.04l-.39.22Z"/><path d="m9.61,6.64s.03.03.06.05c.18.1.46.1.64,0,.04-.02.07-.05.09-.08.03-.04.04-.09.04-.13,0-.06-.05-.12-.12-.16-.18-.1-.46-.1-.64,0-.03.02-.04.03-.06.05,0,0,0,0,0,0-.09.08-.09.19,0,.27,0,0,0,0,0,0Z"/><path d="m7.85,7.74c.18.1.46.1.64,0,.18-.1.18-.27,0-.37-.18-.1-.46-.1-.64,0-.18.1-.18.27,0,.37Z"/><path d="m6.03,8.79c.18.1.46.1.64,0,.18-.1.18-.27,0-.37s-.46-.1-.64,0c-.18.1-.18.27,0,.37Z"/><path d="m11.3,7.64c.18.1.46.1.64,0,.18-.1.18-.27,0-.37s-.46-.1-.64,0c-.18.1-.18.27,0,.37Z"/><path d="m9.49,8.69c.08.05.18.07.29.07,0,0,0,0,0,0,.06,0,.13,0,.19-.02.06-.01.11-.03.16-.06,0,0,0,0,0,0,0,0,0,0,0,0,.17-.1.17-.26,0-.36-.05-.03-.11-.05-.17-.06,0,0,0,0,0,0-.06-.01-.12-.01-.19-.01-.06,0-.12.02-.17.03,0,0,0,0,0,0-.03.01-.07.02-.09.04-.18.1-.18.27,0,.37Z"/><path d="m7.67,9.74c.17.1.42.1.6.01.01,0,.03,0,.04-.01.07-.04.1-.09.12-.14.02-.08,0-.17-.12-.23-.18-.1-.46-.1-.64,0-.04.03-.08.05-.1.09-.04.06-.04.12,0,.18.02.04.05.07.1.1Z"/><path d="m12.94,8.58c.18.1.46.1.64,0,.18-.1.18-.27,0-.37-.18-.1-.46-.1-.64,0-.18.1-.18.27,0,.37Z"/><path d="m11.12,9.63c.07.04.17.06.27.07.13,0,.27-.01.37-.07.01,0,.01-.01.02-.02.15-.1.15-.25-.02-.35-.09-.05-.22-.08-.34-.07-.11,0-.22.03-.3.07-.02.01-.03.03-.05.04-.12.1-.11.24.04.33Z"/><path d="m9.3,10.68c.18.1.46.1.64,0,.18-.1.18-.27,0-.37s-.46-.1-.64,0c-.18.1-.18.27,0,.37Z"/><path d="m14.58,9.53c.15.09.37.09.54.04.03-.01.07-.02.1-.04.18-.1.18-.27,0-.37-.05-.03-.1-.05-.16-.06-.16-.03-.35-.02-.48.06-.18.1-.18.27,0,.37Z"/><path d="m12.76,10.58c.17.1.44.1.61,0,0,0,.02,0,.03,0,.07-.04.11-.09.12-.15.02-.07,0-.13-.08-.19-.01-.01-.02-.02-.04-.04-.18-.1-.46-.1-.64,0-.02.01-.03.03-.05.04-.02.01-.04.03-.05.04-.04.06-.05.12-.02.18.02.04.05.08.11.11Z"/><path d="m10.94,11.63c.18.1.46.1.64,0,.18-.1.18-.27,0-.37-.18-.1-.46-.1-.64,0-.18.1-.18.27,0,.37Z"/><path d="m16.22,10.48s.06.02.09.03c0,0,0,0,0,0,0,0,0,0,0,0,.03.01.06.02.09.02.06,0,.11.01.17,0,.09,0,.17-.02.24-.06,0,0,0,0,0,0,0,0,.02,0,.03-.01.15-.09.17-.22.06-.32-.01-.01-.02-.02-.04-.03,0,0,0,0,0,0,0,0-.01-.01-.02-.02-.03-.02-.06-.03-.1-.04,0,0,0,0,0,0-.17-.06-.39-.05-.54.04-.18.1-.18.27,0,.37Z"/><path d="m14.4,11.53s.04.02.06.02c0,0,0,0,0,0,0,0,0,0,0,0,.07.03.15.05.23.05.02,0,.03,0,.05,0,0,0,0,0,0,0,.09,0,.18-.02.25-.06.01,0,.03,0,.05-.02.08-.05.12-.1.13-.16,0,0,0,0,0,0,0,0,0-.01,0-.02,0-.01,0-.02-.01-.04,0-.04-.03-.07-.07-.1,0,0,0,0-.01-.01-.01,0-.02-.02-.03-.03-.05-.03-.11-.05-.18-.06-.16-.03-.34-.01-.46.06-.18.1-.18.27,0,.37Z"/><path d="m12.58,12.58c.18.1.46.1.64,0,.18-.1.18-.27,0-.37s-.46-.1-.64,0c-.18.1-.18.27,0,.37Z"/><path d="m17.86,11.42s.03,0,.04.01c.1.05.23.07.36.05.08,0,.16-.03.23-.06,0,0,0,0,.01,0,.07-.04.11-.1.12-.15.02-.08-.02-.16-.12-.22-.05-.03-.11-.05-.17-.06-.13-.03-.27-.01-.38.03-.03.01-.06.02-.08.03-.04.02-.07.05-.09.08-.05.06-.05.12-.02.18.02.04.05.08.11.12Z"/><path d="m16.04,12.47c.18.1.46.1.64,0s.18-.27,0-.37c-.18-.1-.46-.1-.64,0-.18.1-.18.27,0,.37Z"/><path d="m14.22,13.52c.18.1.46.1.64,0,.18-.1.18-.27,0-.37s-.46-.1-.64,0c-.18.1-.18.27,0,.37Z"/><path d="m19.5,12.37c.18.1.46.1.64,0,.18-.1.18-.27,0-.37s-.46-.1-.64,0c-.18.1-.18.27,0,.37Z"/><path d="m17.68,13.42s0,0,.01,0c.07.04.15.06.24.06.14.01.28,0,.39-.07.05-.03.09-.07.11-.11.05-.09.02-.19-.1-.26,0,0-.02,0-.03-.01-.17-.08-.42-.08-.59,0,0,0-.01,0-.02,0-.06.04-.09.08-.11.12-.04.09,0,.18.11.25Z"/><path d="m15.86,14.47c.18.1.46.1.64,0,.18-.1.18-.27,0-.37s-.46-.1-.64,0c-.18.1-.18.27,0,.37Z"/><path d="m12.37,17.78c-.03-.09-.06-.18-.1-.27-.34-.76-.9-1.45-1.53-1.83-.54-.32-1.06-.36-1.46-.14-.07.04-.12.08-.18.13-.05.04-.09.09-.13.13-.04.05-.07.1-.1.15-.14.24-.21.54-.21.89,0,1.2.83,2.66,1.87,3.27.32.18.62.28.91.28.2,0,.39-.05.55-.14.4-.23.62-.69.62-1.3,0-.3-.05-.61-.14-.92-.03-.09-.06-.17-.09-.26Zm-.56,2.17c-.28.16-.67.11-1.1-.13-.94-.55-1.7-1.88-1.69-2.96,0-.29.07-.53.17-.71.03-.05.06-.11.1-.15.04-.05.09-.09.15-.12,0,0,.01-.01.02-.02.11-.06.24-.09.38-.09.22,0,.46.08.72.23.44.26.84.69,1.14,1.18.06.1.11.2.17.3.05.09.09.19.13.28.16.4.26.81.26,1.19,0,.48-.16.84-.44.99Z"/><path d="m4.82,13.43c-.03-.09-.06-.18-.1-.26-.33-.78-.91-1.5-1.56-1.88-.03-.02-.05-.03-.08-.04-.06-.03-.12-.06-.18-.09-.06-.03-.12-.05-.18-.07-.38-.12-.73-.1-1.02.06-.4.23-.62.69-.62,1.3,0,1.2.83,2.66,1.87,3.27.32.18.62.28.91.28.2,0,.39-.05.55-.14.4-.23.62-.69.62-1.3,0-.28-.05-.58-.13-.87-.02-.09-.06-.17-.09-.26Zm-.58,2.12c-.28.16-.67.11-1.1-.14-.94-.55-1.7-1.88-1.69-2.96,0-.48.16-.84.44-.99.11-.06.24-.09.38-.09s.3.04.47.1c.06.02.12.05.18.08.03.01.05.03.08.04.03.02.07.05.1.07.42.27.8.69,1.08,1.17.06.1.11.2.15.3.04.09.09.18.12.28.15.38.24.78.24,1.14,0,.48-.16.84-.44,1Z"/></g></svg>