<?xml version="1.0" encoding="UTF-8"?><svg id="Layer_1" xmlns="http://www.w3.org/2000/svg" viewBox="0 0 25 25"><path d="m21.65,13l-.74-.43.9-.52s0,0,0,0v-6.91s0,0,0,0l-6.03-3.48-1.85,1.07L9.21,0,3.39,3.36s-.01.01-.02.02c0,0-.02,0-.02,0-.1.06-.16.17-.16.28v6.72s0,0,0,0l3.7,2.14-3.49,2.02s-.01.01-.02.02c0,0-.02,0-.02,0-.1.06-.16.17-.16.28v6.72l5.86,3.38c.05.03.11.04.16.04s.11-.01.16-.04l4.48-2.59,1.77,1.02c.05.03.11.04.16.04s.11-.01.16-.04l5.86-3.38s0,0,0,0v-6.72s0,0,0,0c0-.12-.06-.22-.16-.28Zm-12.11,11.1v-5.78l.22-.13.33-.19h0l.33-.19,2.88-1.66.56-.32.04-.02.29-.17.04-.02.29-.17.04-.02.03-.02v5.78l-.73.42-.33.19-.33.19-3.66,2.11ZM14.58,4.23v5.78l-3.53,2.04-.17.1-.15.09-.17.1-.15.09-.17.1-.69.4v-5.78l.22-.13.33-.19.33-.19.64-.37.04-.02.29-.16.04-.02.29-.17.04-.02,2.35-1.36.48-.28Zm5.35,8.15l-.33.19-3.49,2.01v-4.41h0v-1.37l3.3-1.91,1.74-1.01v5.78s-.9.52-.9.52l-.33.19Zm-3.82,4.38l2.18-1.26,2.86-1.65h0s0,5.78,0,5.78l-5.04,2.91v-5.78Z"/></svg>