<svg xmlns="http://www.w3.org/2000/svg" viewBox="0 0 760 470" width="760" height="470" font-family="Helvetica, Arial, sans-serif">
  <style>
    .title { font-size: 20px; font-weight: 700; fill: #1a2733; }
    .label { font-size: 15px; fill: #23517d; }
    .sub   { font-size: 12px; fill: #5b6b7a; }
    .axis  { font-size: 13px; font-style: italic; fill: #333; }
    .cap   { font-size: 13px; fill: #5b6b7a; }
    .cell  { fill: #cfe3f7; stroke: #23517d; stroke-width: 2; }
    .stage { fill: #eaf2fb; stroke: #23517d; stroke-width: 2; }
    .flow  { fill: none; stroke: #6b7a88; stroke-width: 2.5; }
  </style>

  <rect x="0" y="0" width="760" height="470" fill="#ffffff"/>

  <text x="30" y="38" class="title">The miniature palletizing cell (top-down)</text>

  <!-- Robot arm, top-down, articulated links reaching toward the cell -->
  <ellipse cx="150" cy="330" rx="42" ry="12" fill="#000000" opacity="0.07"/>
  <g stroke-linecap="round">
    <!-- upper arm -->
    <line x1="150" y1="320" x2="295" y2="278" stroke="#444b54" stroke-width="21"/>
    <line x1="150" y1="320" x2="295" y2="278" stroke="#c2cad4" stroke-width="15"/>
    <!-- forearm -->
    <line x1="295" y1="278" x2="420" y2="242" stroke="#444b54" stroke-width="18"/>
    <line x1="295" y1="278" x2="420" y2="242" stroke="#c2cad4" stroke-width="12"/>
    <!-- wrist stub -->
    <line x1="420" y1="242" x2="455" y2="232" stroke="#444b54" stroke-width="16"/>
    <line x1="420" y1="242" x2="455" y2="232" stroke="#c2cad4" stroke-width="10"/>
  </g>
  <!-- base -->
  <circle cx="150" cy="320" r="33" fill="#6b7480" stroke="#444b54" stroke-width="2"/>
  <circle cx="150" cy="320" r="16" fill="#aab2bd" stroke="#444b54" stroke-width="1.5"/>
  <circle cx="150" cy="320" r="4.5" fill="#7a828d"/>
  <!-- elbow + wrist joints -->
  <circle cx="295" cy="278" r="11" fill="#aab2bd" stroke="#444b54" stroke-width="1.5"/>
  <circle cx="295" cy="278" r="4" fill="#7a828d"/>
  <circle cx="420" cy="242" r="10" fill="#aab2bd" stroke="#444b54" stroke-width="1.5"/>
  <circle cx="420" cy="242" r="3.5" fill="#7a828d"/>
  <!-- two-finger gripper at the wrist -->
  <g transform="translate(455,232) rotate(-16)">
    <rect x="-7" y="-12" width="15" height="24" rx="3" fill="#b7bfca" stroke="#444b54" stroke-width="1.3"/>
    <rect x="8" y="-12" width="20" height="6" rx="2" fill="#9aa3af" stroke="#444b54" stroke-width="1.1"/>
    <rect x="8" y="6" width="20" height="6" rx="2" fill="#9aa3af" stroke="#444b54" stroke-width="1.1"/>
  </g>
  <text x="150" y="392" text-anchor="middle" class="label">arm base</text>
  <text x="150" y="410" text-anchor="middle" class="sub">world origin</text>

  <!-- Staging square with a single cube footprint -->
  <rect x="300" y="120" width="52" height="52" rx="3" class="stage"/>
  <rect x="312" y="132" width="28" height="28" rx="2" fill="#cfe3f7" stroke="#23517d" stroke-width="1.5"/>
  <text x="326" y="196" text-anchor="middle" class="label">staging spot</text>
  <text x="326" y="213" text-anchor="middle" class="sub">feed one cube here</text>

  <!-- Pick then place flow arrow, staging to pallet -->
  <path d="M 356 132 Q 440 78 508 120" class="flow" marker-end="url(#arrow)"/>
  <text x="432" y="80" text-anchor="middle" class="cap">pick, then place</text>

  <!-- Pallet: 2x2 grid at 30 mm pitch, origin cell highlighted -->
  <rect x="500" y="120" width="46" height="46" rx="2" class="cell"/>
  <rect x="562" y="120" width="46" height="46" rx="2" class="cell"/>
  <rect x="562" y="182" width="46" height="46" rx="2" class="cell"/>
  <rect x="500" y="182" width="46" height="46" rx="2" fill="#cfe3f7" stroke="#d1495b" stroke-width="2.6"/>
  <circle cx="523" cy="205" r="4.5" fill="#d1495b"/>
  <text x="523" y="176" text-anchor="middle" class="sub" fill="#d1495b">origin (cell 0)</text>
  <text x="577" y="255" text-anchor="middle" class="label">pallet grid</text>
  <text x="577" y="272" text-anchor="middle" class="sub">2 x 2, 30 mm pitch</text>

  <!-- x / y axes at the pallet origin, matching the printed mat -->
  <g stroke="#333" stroke-width="1.8" fill="none">
    <path d="M 498 236 h 46" marker-end="url(#axis)"/>
    <path d="M 498 236 v -44" marker-end="url(#axis)"/>
  </g>
  <text x="550" y="241" class="axis">x</text>
  <text x="486" y="196" class="axis">y</text>

  <!-- Two-layer inset: a small isometric stack with the label beside it -->
  <g transform="translate(232,352)">
    <!-- bottom cube -->
    <g transform="translate(0,26)">
      <polygon points="26,0 52,13 26,26 0,13" fill="#cfe3f7" stroke="#23517d" stroke-width="1.4"/>
      <polygon points="0,13 26,26 26,52 0,39" fill="#bcd6f0" stroke="#23517d" stroke-width="1.4"/>
      <polygon points="26,26 52,13 52,39 26,52" fill="#a9ccec" stroke="#23517d" stroke-width="1.4"/>
    </g>
    <!-- top cube, stacked directly above -->
    <g transform="translate(0,0)">
      <polygon points="26,0 52,13 26,26 0,13" fill="#cfe3f7" stroke="#23517d" stroke-width="1.4"/>
      <polygon points="0,13 26,26 26,52 0,39" fill="#bcd6f0" stroke="#23517d" stroke-width="1.4"/>
      <polygon points="26,26 52,13 52,39 26,52" fill="#a9ccec" stroke="#23517d" stroke-width="1.4"/>
    </g>
    <text x="66" y="36" class="sub">each cell holds two cubes,</text>
    <text x="66" y="53" class="sub">stacked into two layers of four</text>
  </g>

  <text x="30" y="452" class="cap">The arm picks a cube from the staging spot and stacks eight cubes, two layers of four, onto the pallet.</text>

  <defs>
    <marker id="arrow" viewBox="0 0 10 10" refX="8" refY="5" markerWidth="7" markerHeight="7" orient="auto-start-reverse">
      <path d="M 0 0 L 10 5 L 0 10 z" fill="#6b7a88"/>
    </marker>
    <marker id="axis" viewBox="0 0 10 10" refX="8" refY="5" markerWidth="6" markerHeight="6" orient="auto-start-reverse">
      <path d="M 0 0 L 10 5 L 0 10 z" fill="#333"/>
    </marker>
  </defs>
</svg>
