<?xml version="1.0" encoding="UTF-8"?><svg id="Layer_1" xmlns="http://www.w3.org/2000/svg" viewBox="0 0 350 350"><path d="m74.99,74.98v200.04s200.03,0,200.03,0V74.98s-200.03,0-200.03,0Zm195.04,195.05H79.97s0-190.07,0-190.07h190.06s0,190.07,0,190.07Z"/><path d="m142.47,256.1h65.05v-48.58h48.58v-65.05h-48.58v-48.58h-65.05v48.58h-48.57v65.05s48.57,0,48.57,0v48.58Zm-43.59-53.56v-55.07h48.58v-48.58h55.07v48.58h48.58v55.07h-48.58v48.58h-55.07v-48.58h-48.58Z"/><polygon points="175 115.59 181.17 123.89 181.33 124.09 187.2 124.09 175 107.73 162.8 124.09 168.77 124.09 175 115.59"/><polygon points="187.2 225.91 181.33 225.91 175 234.41 168.92 226.11 168.77 225.91 162.8 225.91 175 242.27 187.2 225.91"/><polygon points="124.09 187.2 124.09 181.23 115.59 175 123.89 168.82 124.09 168.67 124.09 162.81 107.73 175 124.09 187.2"/><polygon points="225.91 162.81 225.91 168.67 234.41 175 226.11 181.08 225.91 181.23 225.91 187.2 242.27 175 225.91 162.81"/><path d="m165.61,175c0,5.19,4.21,9.39,9.39,9.39s9.39-4.21,9.39-9.39-4.21-9.39-9.39-9.39-9.39,4.21-9.39,9.39Z"/></svg>