<?xml version="1.0" encoding="UTF-8"?><svg id="Layer_1" xmlns="http://www.w3.org/2000/svg" viewBox="0 0 350 350"><path d="m74.99,74.98v200.04s200.02,0,200.02,0V74.98s-200.02,0-200.02,0Zm195.03,195.05H79.97s0-190.06,0-190.06h190.05s0,190.06,0,190.06Z"/><path d="m127.03,205.86l47.97-27.7,47.97,27.7-7.45.8-2.56,4.3,19.9-2.3-7.73-18.1-2.51,4.21,2.92,6.81-48.04-27.74v-56.01l4.44,6.05h5.04l-11.97-16.07-11.98,16.07h4.95l4.53-6.1v56.05l-48.04,27.74,2.92-6.81-2.51-4.21-7.73,18.1,19.9,2.3-2.56-4.3-7.45-.8Zm100.14-.45h0,0s0,0,0,0Z"/><path d="m244.31,215.02v-80.04l-69.31-40.02-69.31,40.02v80.04l69.31,40.02,69.31-40.02Zm-133.63-77.15l64.32-37.14,64.32,37.14v74.27l-64.32,37.14-64.32-37.14v-74.27Z"/></svg>