<?xml version="1.0" encoding="UTF-8"?><svg id="Layer_1" xmlns="http://www.w3.org/2000/svg" viewBox="0 0 350 350"><path d="M74.06,70.76v200.04s200.03,0,200.03,0V70.77s-200.03,0-200.03,0Zm195.05,195.05H79.05s0-190.06,0-190.06h190.06s0,190.06,0,190.06Z"/><path d="M106.37,230.75c5.19,0,9.39-4.21,9.39-9.39,0-4.32-2.93-7.92-6.9-9.02V113.44c0-7.88,6.41-14.28,14.28-14.28,7.88,0,14.29,6.41,14.29,14.28v114.34c0,10.63,8.65,19.27,19.27,19.27,10.63,0,19.27-8.65,19.27-19.27V113.44c0-7.88,6.41-14.28,14.28-14.28,7.88,0,14.29,6.41,14.29,14.28v114.34c0,10.63,8.65,19.27,19.27,19.27,10.63,0,19.27-8.65,19.27-19.27V121.11s5.73,7.81,5.73,7.81h5.98s-14.21-19.06-14.21-19.06l-14.21,19.06h5.87s5.85-7.86,5.85-7.86v106.72c0,7.88-6.41,14.28-14.28,14.28-7.88,0-14.28-6.41-14.28-14.28V113.44c0-10.63-8.65-19.27-19.28-19.27-10.63,0-19.27,8.65-19.27,19.27v114.34c0,7.88-6.41,14.28-14.28,14.28-7.88,0-14.28-6.41-14.28-14.28V113.44c0-10.63-8.65-19.27-19.28-19.27-10.63,0-19.27,8.65-19.27,19.27v98.9c-3.97,1.1-6.9,4.7-6.9,9.02,0,5.19,4.21,9.39,9.39,9.39Z"/></svg>