<?xml version="1.0" encoding="UTF-8"?><svg id="Layer_1" xmlns="http://www.w3.org/2000/svg" viewBox="0 0 350 350"><path d="M173.04,71.02c-42.84,0-77.69,34.85-77.69,77.69,0,50.79,72.92,117.5,76.02,120.31l1.68,1.52,1.68-1.52c3.1-2.82,76.01-69.53,76.01-120.31,0-42.84-34.85-77.69-77.69-77.69Zm0,192.75c-11.04-10.42-72.71-70.6-72.71-115.06,0-40.09,32.62-72.7,72.71-72.7,40.09,0,72.7,32.61,72.7,72.7,0,44.45-61.66,104.64-72.7,115.06Z"/><path d="M173.04,99.12c-22.12,0-40.12,18-40.12,40.12,0,22.12,18,40.12,40.12,40.12,22.12,0,40.12-18,40.12-40.12,0-22.12-18-40.12-40.12-40.12Zm0,75.25c-19.38,0-35.14-15.76-35.14-35.13,0-19.38,15.76-35.14,35.14-35.14,19.37,0,35.13,15.76,35.13,35.14,0,19.37-15.76,35.13-35.13,35.13Z"/></svg>