<?xml version="1.0" encoding="UTF-8"?><svg id="Layer_1" xmlns="http://www.w3.org/2000/svg" viewBox="0 0 350 350"><path d="M74.33,73.4v200.04s200.03,0,200.03,0V73.4s-200.03,0-200.03,0Zm195.04,195.05H79.31s0-190.06,0-190.06h190.06s0,190.06,0,190.06Z"/><path d="M239.07,238.17c-3.67,3.67-3.67,9.62,0,13.28,3.67,3.67,9.62,3.67,13.28,0,3.67-3.67,3.67-9.62,0-13.28s-9.62-3.67-13.28,0Z"/><path d="M189.43,188.72c-18.62,18.62-27.56,44.21-24.67,70.36h5.02c-2.91-24.83,5.52-49.17,23.18-66.84,17.72-17.72,42.12-26.12,67.02-23.16v-5.02c-26.2-2.97-51.88,5.98-70.55,24.65Z"/><path d="M205.95,205c-14.16,14.16-20.69,34.3-17.69,54.08h5.01c-3.04-18.45,2.99-37.33,16.21-50.55,13.21-13.21,32.07-19.24,50.5-16.22v-5.01c-19.75-2.97-39.88,3.55-54.03,17.7Z"/><path d="M222.17,221.23c-9.91,9.91-13.82,24.29-10.49,37.85h5.09c-3.46-12.21-.04-25.36,8.92-34.32,8.95-8.95,22.1-12.37,34.28-8.93v-5.09c-13.53-3.31-27.91,.59-37.81,10.5Z"/><path d="M116.16,92.34c0-1.54-.2-3.07-.51-4.58h-5.08c.4,1.48,.6,3.02,.6,4.58,0,9.72-7.91,17.64-17.64,17.64-1.63,0-3.26-.23-4.83-.67v5.08c1.59,.35,3.21,.58,4.83,.58,12.48,0,22.62-10.15,22.62-22.62Z"/><path d="M161.73,185.97c-15.11,21.04-22.28,46.84-19.99,73.11h5c-2.83-30.93,8.11-61.23,30.06-83.18,21.96-21.95,52.26-32.91,83.18-30.06v-5c-26.13-2.27-51.81,4.8-72.79,19.75,14.96-20.99,22.04-46.68,19.75-72.83h-5c2.84,30.94-8.1,61.26-30.06,83.22-21.95,21.95-52.28,32.89-83.18,30.06v4.98c3.21,.28,6.41,.46,9.6,.46,22.89,0,44.96-7.25,63.42-20.51Z"/><path d="M159.03,158.22c18.64-18.64,27.59-44.27,24.66-70.46h-5.02c2.94,24.86-5.48,49.24-23.17,66.93-17.65,17.66-42,26.07-66.79,23.19v5.02c3.21,.35,6.41,.55,9.59,.55,22.72,0,44.41-8.91,60.73-25.23Z"/><path d="M142.82,141.82c14.15-14.15,20.69-34.28,17.7-54.05h-5.01c3.03,18.45-3.01,37.32-16.22,50.53-13.23,13.23-32.12,19.26-50.58,16.2v5.03c3.16,.48,6.32,.75,9.47,.75,16.6,0,32.73-6.55,44.64-18.46Z"/><path d="M126.42,125.56c9.89-9.89,13.81-24.25,10.5-37.79h-5.04s-.04,.01-.04,.01c3.42,12.19,0,25.32-8.94,34.25-8.92,8.93-22.02,12.35-34.19,8.96v5.08c3.11,.75,6.26,1.19,9.4,1.19,10.48,0,20.72-4.12,28.31-11.71Z"/></svg>