<?xml version="1.0" encoding="UTF-8"?><svg id="Layer_1" xmlns="http://www.w3.org/2000/svg" viewBox="0 0 350 350"><path d="M267.12,174.22v41.48s-92.55-44.91-92.55-44.91l92.31-44.79,.06,8.95,4.99-.04-.1-14.45-12.94-6.31-2.19,4.48,6.94,3.39-94.75,45.98-88.63-45.97,88.63-45.97,41.61,20.19c-.07,.44-.14,.89-.14,1.35,0,4.77,3.87,8.64,8.64,8.64,4.77,0,8.64-3.87,8.64-8.64s-3.87-8.64-8.64-8.65c-2.51,0-4.75,1.09-6.33,2.8l-43.25-20.99h-.58s-.61,0-.61,0h-.43s-95.74,0-95.74,0v200.03s96.17,0,96.17,0h1.19s102.68,0,102.68,0v-96.58h-4.99Zm-3.5,45.33l-94.74,45.97-88.63-45.97,88.63-45.97,94.74,45.97Zm-100.19-48.76l-86.37,44.8V125.98s86.37,44.8,86.37,44.8Zm-4.81-95.03l-81.56,42.31v-42.31s81.56,0,81.56,0Zm-81.56,190.05v-42.3s81.56,42.31,81.56,42.31H77.07Zm190.06,0h-87.41s87.41-42.42,87.41-42.42v42.42Z"/></svg>