<?xml version="1.0" encoding="UTF-8"?><svg id="Layer_1" xmlns="http://www.w3.org/2000/svg" viewBox="0 0 350 350"><path d="M173.84,98.41c-12.22,0-23.72,3.06-33.82,8.41,13.78,0,24.95,11.17,24.95,24.95,0,13.78-11.17,24.95-24.95,24.95-13.78,0-24.95-11.17-24.95-24.95,0-1.23,.19-2.41,.36-3.59-8.74,11.96-13.96,26.65-13.96,42.6,0,39.97,32.4,72.37,72.37,72.37,39.97,0,72.38-32.4,72.38-72.37,0-39.97-32.4-72.37-72.38-72.37Z"/><path d="M173.89,70.38c-55.36,0-100.4,45.04-100.4,100.4,0,55.36,45.04,100.4,100.4,100.4s100.4-45.04,100.4-100.4c0-55.36-45.04-100.4-100.4-100.4Zm0,195.81c-52.61,0-95.41-42.8-95.41-95.41,0-52.61,42.8-95.41,95.41-95.41,52.61,0,95.41,42.8,95.41,95.41,0,52.61-42.8,95.41-95.41,95.41Z"/></svg>