<?xml version="1.0" encoding="UTF-8"?><svg xmlns="http://www.w3.org/2000/svg" viewBox="0 0 398.3992 486.21078"><g style="fill:none; isolation:isolate;"><g id="outlines"><rect x="245.02677" y="414.41963" width="1" height="36.86084" style="fill:#ff888a;"/><polygon points="249.61677 417.73316 248.88435 418.41529 245.52793 414.80348 242.17048 418.41529 241.43806 417.73316 245.52793 413.33518 249.61677 417.73316" style="fill:#ff888a;"/><path d="m256.48234,485.88691c-2.50439,0-5.29102-.82617-8.14502-2.47461-9.80615-5.66113-17.78369-19.41309-17.78369-30.65527,0-6.47021,2.59082-10.99512,7.11084-12.42627l13.60986-7.97949c3.47656-1.97949,8.05713-1.52783,12.90088,1.26904,9.80615,5.66162,17.78369,19.41357,17.78369,30.65576,0,5.55713-1.91357,9.70557-5.38818,11.68213l-14.52979,8.19434c-1.57129,1.15723-3.46631,1.73438-5.55859,1.73438Zm-.43066-53.75c-1.56641,0-3.00879.3584-4.27734,1.08008l-13.65332,8.00488c-.0332.01953-.06836.03516-.10498.04639-4.10693,1.27295-6.4624,5.46045-6.4624,11.48877,0,10.92383,7.75342,24.28711,17.28369,29.79004,4.87891,2.81641,9.49463,3.09766,12.66162.7666l.00244-.00098c.00293-.00195.00586-.00391.00879-.00684.19922-.14648.39209-.30371.5791-.46973.02734-.02441.05713-.0459.08936-.06348l14.3335-7.98145c.0376-.02148.07715-.03711.11719-.04785,2.79736-1.91113,4.32959-5.59668,4.32959-10.46729,0-10.92383-7.75342-24.28711-17.28369-29.78955-2.70264-1.56055-5.29932-2.34961-7.62354-2.34961Zm-18.18359,8.65381h.00977-.00977Z" style="fill:#030303;"/><path d="m263.92534,434.05345c-4.84183-2.79545-9.22527-3.07651-12.39828-1.27111l-13.65897,8.00839c-4.14365,1.28397-6.81438,5.495-6.81439,11.9663-.00001,11.10078,7.85011,24.632,17.53377,30.22288,5.27014,3.04272,9.99362,3.10068,13.20777.7374l14.52834-8.19336c3.17296-1.8054,5.13552-5.69725,5.13552-11.24765.00001-11.10076-7.85011-24.632-17.53377-30.22285Zm-2.11801,49.65487c.21144-.15608.41628-.32252.61434-.4995l14.33338-7.9809-14.94772,8.4804Z" style="fill:#fff;"/><path d="m253.83439,479.62324c-1.84033,0-3.87158-.62012-5.96631-1.84668-7.0791-4.14648-12.79736-14.14697-12.74658-22.29248.02539-4.03516,1.43604-7.05225,3.97168-8.49512,2.55957-1.45752,5.91992-1.11719,9.46143.95605,7.07861,4.14648,12.79688,14.14697,12.74609,22.29248-.0249,4.03516-1.43555,7.05176-3.97119,8.49512-1.0459.59473-2.2251.89062-3.49512.89062Zm-11.24316-32.52393c-1.09961,0-2.1123.25195-3.00342.75879-2.2124,1.25879-3.44336,3.96924-3.46631,7.63184-.04883,7.82764,5.44775,17.43848,12.25244,21.42334,3.21777,1.88574,6.22314,2.22168,8.46094.9502,2.21191-1.25879,3.44287-3.96973,3.46582-7.63184l.5.00293-.5-.00293c.04883-7.82764-5.44727-17.43799-12.25195-21.42334-1.93701-1.13477-3.79639-1.70898-5.45752-1.70898Z" style="fill:#030303;"/><path d="m243.6674,454.57148c-.5,0-1.04248-.16162-1.5835-.47852l-5.65234-3.31006c-.23828-.13965-.31787-.4458-.17871-.68457.14014-.23828.44629-.31885.68408-.17871l5.65234,3.31006c.55127.32324,1.06689.42188,1.44922.27979.28613-.10596.49463-.34375.62012-.70703l1.83057-5.29248c.09082-.26123.37305-.39941.63623-.30908.26074.09033.39941.375.30908.63623l-1.83057,5.29248c-.2251.65039-.64648,1.10645-1.21875,1.31787-.22461.08301-.46582.12402-.71777.12402Z" style="fill:#030303;"/><path d="m239.70255,469.16181c-.0542,0-.10938-.00879-.16357-.02734-.26074-.09033-.39941-.375-.30908-.63623l1.69531-4.90137c.3457-.99951-.05518-2.61621-.97559-3.93164l-4.50635-6.43994c-.1582-.22607-.10303-.53809.12305-.69629.22607-.15771.53809-.10352.69629.12305l4.50635,6.43994c1.10986,1.58643,1.55225,3.52783,1.10156,4.83203l-1.69531,4.90137c-.07178.20654-.26562.33643-.47266.33643Z" style="fill:#030303;"/><path d="m254.1674,479.60957c-.15771,0-.31299-.07422-.41016-.21289l-4.29443-6.13672c-.88965-1.27246-2.07861-2.01611-2.90625-1.81396l-4.33936,1.08008c-.26709.06201-.53955-.09619-.60596-.36475-.06641-.26758.09668-.53906.36475-.60596l4.33936-1.08008c1.25195-.30859,2.80859.55664,3.9668,2.21143l4.29443,6.13574c.1582.22656.10303.53809-.12305.69629-.0874.06152-.18701.09082-.28613.09082Z" style="fill:#030303;"/><path d="m256.58537,479.05c-.22656,0-.43164-.1543-.48584-.38477l-1.62207-6.84375c-.45264-1.90771.13086-3.41016,1.45117-3.73877l4.55371-1.1333c.26514-.06641.53906.09619.60596.36475.06641.26807-.09668.53906-.36475.60596l-4.55371,1.1333c-.73438.18262-1.03027,1.22607-.71973,2.5376l1.62207,6.84375c.06396.26855-.10254.53809-.37109.60156-.03857.00977-.07764.01367-.11572.01367Z" style="fill:#030303;"/><path d="m259.809,464.39521c-.08594,0-.17285-.02197-.25244-.06836l-5.65186-3.31055c-1.38086-.80908-2.58643-2.52441-2.99902-4.26855l-1.75146-7.38965c-.06396-.26855.10254-.53809.37109-.60156.26807-.06348.53809.10254.60156.37109l1.75146,7.38965c.34863,1.47168,1.38965,2.9668,2.53174,3.63574l5.65234,3.31055c.23828.13965.31787.44629.17871.68457-.09326.15869-.26025.24707-.43213.24707Z" style="fill:#030303;"/><path d="m250.40812,469.71308c-.77295,0-1.61865-.25635-2.48535-.76367-2.84814-1.66846-5.14893-5.69287-5.12842-8.97119.01025-1.68945.61572-2.96143,1.70459-3.58105,1.09814-.62598,2.51953-.49219,4,.375,2.84912,1.66895,5.1499,5.69336,5.12939,8.97168-.01074,1.68945-.61621,2.96143-1.70508,3.58105-.45605.25928-.96729.38818-1.51514.38818Zm-4.39062-12.70312c-.37744,0-.72266.08496-1.02393.25635-.76514.43555-1.19141,1.40088-1.19922,2.71777-.01855,2.96045,2.06055,6.59473,4.63428,8.10205,1.1582.6792,2.22412.81104,3,.36963.76562-.43555,1.19141-1.40088,1.19971-2.71777l.5.00293-.5-.00293c.01855-2.95996-2.06055-6.59521-4.63477-8.10254-.7085-.41553-1.38232-.62549-1.97607-.62549Z" style="fill:#030303;"/><path d="m248.36808,454.4831c-.08203,0-.16797-.02393-.25049-.07227-.22656-.1333-.396-.43018-.39453-.69092.00098-.17383.07666-.31641.20703-.39062.13037-.07471.29199-.06689.44385.02295.22656.13232.396.4292.39453.68994v.00049c-.00146.17383-.07715.31592-.20703.39014-.05957.03369-.125.05029-.19336.05029Zm-.09619-.44385c-.00244.00439-.00391.0083-.00439.01074l.25098-.00928-.24658-.00146Z" style="fill:#030303;"/><path d="m256.10343,465.38105c-.08936,0-.18262-.02686-.27295-.07959-.25488-.14941-.44531-.4834-.44385-.77637.00146-.18945.08203-.34326.22168-.42285.14014-.0791.31445-.06934.47949.02637.25391.14893.44482.48242.44336.77588v.00098c-.00146.18848-.08203.34229-.22168.42139-.06299.03613-.1333.0542-.20605.0542Zm-.05713-.47852c-.00781.00781-.01514.01611-.01807.02441l.25293-.02344-.23486-.00098Zm-.13965-.28271c.02197.07422.06299.14502.11084.19629-.02051-.06934-.06201-.14209-.11084-.19629Z" style="fill:#030303;"/><path d="m243.34464,468.71504c-.08887,0-.18262-.02686-.27295-.07959-.25488-.1499-.44531-.48389-.44336-.77734.00146-.18896.08203-.34277.22217-.42188.13916-.0791.31445-.07031.47852.02686.25488.14844.44531.48242.44336.77637-.00098.18848-.08154.3418-.22119.42139-.06299.03613-.1333.0542-.20654.0542Zm-.19678-.76074c.02197.07373.06299.14453.11084.19531-.02002-.06885-.06152-.1416-.11084-.19531Z" style="fill:#030303;"/><path d="m253.5424,475.05976c-.08936,0-.18311-.02734-.27344-.08008-.25488-.15039-.44531-.48438-.44336-.77734.00146-.18848.08252-.34277.22217-.42188.14062-.07812.31494-.07031.47852.02637.25488.14941.44531.4834.44336.77734-.00098.18848-.08154.3418-.22119.42188-.06348.03516-.1333.05371-.20605.05371Zm-.19678-.76074c.02197.07324.0625.14355.11035.19434-.02051-.06836-.06152-.14062-.11035-.19434Z" style="fill:#030303;"/><path d="m239.99845,455.57636c-.08936,0-.18262-.02686-.27295-.07959-.25488-.14941-.44531-.4834-.44385-.77637.00146-.18945.08203-.34277.22119-.42236.13916-.0791.31494-.0708.47949.02588.25439.14893.44531.48242.44385.77588v.00098c-.00146.18848-.08203.34229-.22168.42139-.06299.03613-.1333.0542-.20605.0542Zm-.05713-.47852c-.00781.00781-.01514.01611-.01807.02441l.25293-.02344-.23486-.00098Zm-.13965-.28271c.02197.07422.06299.14502.11084.19629-.02051-.06934-.06201-.14209-.11084-.19629Z" style="fill:#030303;"/><path d="m256.46378,485.89765c-2.50049,0-5.2666-.83398-8.12646-2.48535-9.80615-5.66113-17.78369-19.41309-17.78369-30.65527,0-5.52734,1.89648-9.6665,5.34033-11.65479,3.47705-2.0083,8.07373-1.56592,12.94336,1.24512,9.80615,5.66162,17.78418,19.41357,17.78418,30.65576,0,5.52734-1.89648,9.66602-5.34033,11.6543-1.43506.8291-3.06055,1.24023-4.81738,1.24023Zm-15.75-45.03418c-1.5835,0-3.04102.36621-4.31982,1.10498-3.12158,1.80225-4.84033,5.6333-4.84033,10.78857,0,10.92383,7.75342,24.28711,17.28369,29.79004,4.54639,2.62402,8.78809,3.06836,11.94385,1.24414,3.12109-1.80176,4.84033-5.63281,4.84033-10.78809,0-10.92383-7.75342-24.2876-17.28418-29.78955-2.70361-1.56104-5.2998-2.3501-7.62354-2.3501Z" style="fill:#030303;"/><path d="m276.32414,476.02363c-.17383,0-.34277-.09082-.43506-.25293-.13672-.24023-.05273-.54492.1875-.68164,3.14844-1.79102,4.88232-5.63086,4.88232-10.81299,0-10.92383-7.75342-24.28711-17.28369-29.78955-4.52441-2.61279-8.75-3.06299-11.90088-1.26953-.23926.13525-.54492.05225-.68164-.1875s-.05273-.54492.1875-.68164c3.4707-1.97607,8.05127-1.52393,12.89502,1.27246,9.80615,5.66162,17.78369,19.41357,17.78369,30.65576,0,5.55713-1.91357,9.70557-5.38818,11.68213-.07812.04395-.1626.06543-.24658.06543Z" style="fill:#030303;"/><path d="m236.66691,441.75996c-.17432,0-.34326-.09082-.43555-.25342-.13623-.24023-.05176-.54541.18848-.68164l15.59814-8.84961c.23926-.13623.54492-.05225.68164.18848.13623.24023.05176.54541-.18848.68164l-15.59814,8.84961c-.07764.04395-.1626.06494-.24609.06494Z" style="fill:#030303;"/><path d="m261.15763,484.57734c-.17432,0-.34326-.09082-.43555-.25293-.13623-.24023-.05176-.5459.18848-.68164l15.59814-8.84961c.23926-.13965.54541-.05176.68164.1875.13623.24023.05176.5459-.18848.68164l-15.59814,8.84961c-.07764.04492-.1626.06543-.24609.06543Z" style="fill:#030303;"/><polygon points="248.26551 228.72354 .41598 371.81927 .41605 193.75779 248.26558 50.66205 248.26551 228.72354" style="fill:#030303;"/><polygon points="255.54071 232.92388 7.69119 376.01962 7.69126 197.95813 255.54079 54.8624 255.54071 232.92388" style="fill:#efefef;"/><path d="m7.69132,376.51972c-.08643,0-.17285-.02246-.25-.06689-.15479-.08936-.25-.25439-.25-.43311v-178.06152c0-.17871.09521-.34375.25-.43311L255.29093,54.42939c.1543-.08887.3457-.08887.5,0,.15479.08936.25.25439.25.43311v178.06152c0,.17871-.09521.34375-.25.43311L7.94132,376.45283c-.07715.04443-.16357.06689-.25.06689Zm.5-178.27295v176.90674l246.84961-142.51807V55.72871L8.19132,198.24677Zm247.34961,34.67725h.00977-.00977Z" style="fill:#030303;"/><path d="m72.48283,338.78681c-.27637,0-.5-.22363-.5-.5v-177.66699c0-.27637.22363-.5.5-.5s.5.22363.5.5v177.66699c0,.27637-.22363.5-.5.5Z" style="fill:#030303;"/><polygon points="72.4829 338.28698 7.69119 376.01962 7.69126 197.95813 72.48297 160.61977 72.4829 338.28698" style="fill:#e3e1e0; mix-blend-mode:multiply;"/><path d="m86.89542,186.89912c-.17285,0-.34082-.08936-.43359-.25-.13818-.23926-.05615-.54492.18311-.68311l139.20312-80.36914c.2373-.13916.54443-.05664.68311.18311.13818.23926.05615.54492-.18311.68311l-139.20312,80.36914c-.07861.04541-.16455.06689-.24951.06689Z" style="fill:#030303;"/><polygon points="108.1325 292.59096 87.00682 304.78786 87.00682 294.8415 108.1325 282.6446 108.1325 292.59096" style="fill:#fff;"/><path d="m87.00675,305.28779c-.08643,0-.17285-.02246-.25-.06689-.15479-.08936-.25-.25439-.25-.43311v-9.94629c0-.17871.09521-.34375.25-.43311l21.12598-12.19678c.1543-.08887.3457-.08887.5,0,.15479.08936.25.25439.25.43311v9.94629c0,.17871-.09521.34375-.25.43311l-21.12598,12.19678c-.07715.04443-.16357.06689-.25.06689Zm.5-10.15771v8.7915l20.12598-11.61914v-8.7915l-20.12598,11.61914Zm20.62598-2.53906h.00977-.00977Z" style="fill:#030303;"/><polygon points="135.21784 276.95326 114.09216 289.15016 114.09217 279.2038 135.21785 267.0069 135.21784 276.95326" style="fill:#fff;"/><path d="m114.0922,289.65009c-.08643,0-.17285-.02246-.25-.06689-.15479-.08936-.25-.25439-.25-.43311v-9.94629c0-.17871.09521-.34375.25-.43311l21.12549-12.19678c.1543-.08887.3457-.08887.5,0,.15479.08936.25.25439.25.43311v9.94629c0,.17871-.09521.34375-.25.43311l-21.12549,12.19678c-.07715.04443-.16357.06689-.25.06689Zm.5-10.15771v8.7915l20.12549-11.61914v-8.7915l-20.12549,11.61914Zm20.62549-2.53906h.00977-.00977Z" style="fill:#030303;"/><polygon points="255.54078 65.90529 7.69126 209.00102 7.69126 197.95813 255.54079 54.8624 255.54078 65.90529" style="fill:#fff;"/><path d="m7.69132,209.50117c-.08643,0-.17285-.02246-.25-.06689-.15479-.08936-.25-.25439-.25-.43311v-11.04297c0-.17871.09521-.34375.25-.43311L255.29093,54.42939c.1543-.08887.3457-.08887.5,0,.15479.08936.25.25439.25.43311v11.04297c0,.17871-.09521.34375-.25.43311L7.94132,209.43427c-.07715.04443-.16357.06689-.25.06689Zm.5-11.25439v9.88818L255.04093,65.61689v-9.88818L8.19132,198.24677ZM255.54093,65.90547h.00977-.00977Z" style="fill:#030303;"/><ellipse cx="12.50119" cy="200.71069" rx="3.1895" ry="1.84136" transform="translate(-167.00303 110.05037) rotate(-59.63946)" style="fill:#fff;"/><path d="m11.48332,204.11836c-.30176,0-.58496-.07275-.83838-.21924-.58496-.33789-.90723-1.00635-.90723-1.88184,0-1.61719,1.104-3.521,2.51367-4.33447.76953-.44287,1.51709-.5,2.10596-.16064.58496.33789.90723,1.00586.90723,1.88184,0,1.6167-1.104,3.52051-2.51318,4.33447-.43799.25244-.86914.37988-1.26807.37988Zm2.03467-5.81299c-.22314,0-.4873.08252-.7666.24365-1.0918.62988-2.01367,2.21826-2.01367,3.46826,0,.49609.14844.86621.40723,1.01562.26221.15186.66602.09326,1.10645-.16064,1.09131-.62988,2.01318-2.21826,2.01318-3.46826,0-.49609-.14844-.86621-.40723-1.01562-.09619-.05566-.21094-.08301-.33936-.08301Z" style="fill:#030303;"/><ellipse cx="19.57453" cy="196.62691" rx="3.1895" ry="1.84136" transform="translate(-159.9811 114.134) rotate(-59.63946)" style="fill:#fff;"/><path d="m18.55656,200.03486c-.30127,0-.58447-.07275-.83838-.21924-.58496-.33789-.90723-1.00586-.90723-1.88184,0-1.6167,1.104-3.52051,2.51367-4.33447.77002-.44482,1.51758-.5,2.10596-.16113.58496.33789.90723,1.00586.90723,1.88184,0,1.6167-1.104,3.52051-2.51318,4.33447-.43799.25293-.86914.38037-1.26807.38037Zm2.03467-5.81348c-.22314,0-.4873.08252-.7666.24414-1.09131.62988-2.01367,2.21826-2.01367,3.46826,0,.49609.14844.86621.40723,1.01562.26221.15234.66553.09277,1.10645-.16113,1.09131-.62988,2.01318-2.21826,2.01318-3.46826,0-.49609-.14844-.86621-.40723-1.01562-.0957-.05566-.21094-.08301-.33936-.08301Z" style="fill:#030303;"/><ellipse cx="26.64786" cy="192.54313" rx="3.1895" ry="1.84136" transform="translate(-152.95917 118.21763) rotate(-59.63946)" style="fill:#fff;"/><path d="m25.63029,195.95088c-.30176,0-.58496-.07275-.83887-.21924-.58496-.33789-.90723-1.00635-.90723-1.88184,0-1.6167,1.104-3.52051,2.51367-4.33447.76855-.44336,1.51709-.50049,2.10645-.16064.58496.33789.90723,1.00635.90723,1.88184,0,1.6167-1.104,3.52051-2.51367,4.33447-.4375.25244-.86865.37988-1.26758.37988Zm2.03418-5.81299c-.22314,0-.4873.08252-.7666.24365-1.09131.62988-2.01367,2.21826-2.01367,3.46826,0,.49609.14844.86621.40723,1.01562.26318.15137.66602.09326,1.10645-.16064,1.09131-.62988,2.01367-2.21826,2.01367-3.46826,0-.49609-.14844-.86621-.40723-1.01562-.09619-.05566-.21143-.08301-.33984-.08301Z" style="fill:#030303;"/><polyline points="251.44977 406.97622 211.73429 384.04646 211.73434 302.10392 282.68306 261.14177 322.39854 284.07153" style="fill:#fff;"/><path d="m251.44914,407.47627c-.08496,0-.1709-.02148-.24951-.06689l-39.71533-22.92969c-.15479-.08936-.25-.25439-.25-.43311v-81.94287c0-.17871.09521-.34375.25-.43311l70.94873-40.96191c.1543-.08887.3457-.08887.5,0l39.71533,22.92969c.23926.13818.32129.44385.18311.68311-.13818.23828-.4458.32031-.68311.18311l-39.46533-22.78564-70.44873,40.67334v81.36572l39.46533,22.78516c.23926.13818.32129.44385.18311.68311-.09277.16016-.26074.25-.43359.25Z" style="fill:#030303;"/><polygon points="322.39854 284.07153 251.44982 325.03369 211.73434 302.10392 282.68306 261.14177 322.39854 284.07153" style="fill:#030303;"/><polygon points="251.44982 325.03369 251.44977 406.97622 322.39849 366.01407 322.39854 284.07153 251.44982 325.03369" style="fill:#fff;"/><path d="m251.44962,407.47627c-.08643,0-.17285-.02246-.25-.06689-.15479-.08936-.25-.25439-.25-.43311v-81.94238c0-.17871.09521-.34375.25-.43311l70.94873-40.9624c.1543-.08887.3457-.08887.5,0,.15479.08936.25.25439.25.43311v81.94238c0,.17871-.09521.34375-.25.43311l-70.94873,40.9624c-.07715.04443-.16357.06689-.25.06689Zm.5-82.15381v80.7876l69.94873-40.38477v-80.7876l-69.94873,40.38477Z" style="fill:#030303;"/><path d="m251.44962,407.47627c-.08643,0-.17285-.02246-.25-.06689l-39.71533-22.92969c-.15479-.08936-.25-.25439-.25-.43311v-81.94287c0-.17871.09521-.34375.25-.43311l70.94873-40.96191c.1543-.08887.3457-.08887.5,0l39.71533,22.92969c.15479.08936.25.25439.25.43311v81.94238c0,.17871-.09521.34375-.25.43311l-70.94873,40.9624c-.07715.04443-.16357.06689-.25.06689Zm-39.21533-23.71826l39.21533,22.64111,70.44873-40.67383v-81.36523l-39.21533-22.64111-70.44873,40.67334v81.36572Z" style="fill:#030303;"/><path d="m246.8046,262.41572c-.08643,0-.17285-.02246-.25-.06689l-29.35986-16.95068c-.15479-.08936-.25-.25439-.25-.43311v-67.80371c0-.17871.09521-.34375.25-.43311l58.71973-33.90186c.1543-.08887.3457-.08887.5,0l29.35986,16.95117c.15479.08936.25.25439.25.43311v67.80322c0,.17871-.09521.34375-.25.43311l-58.71973,33.90186c-.07715.04443-.16357.06689-.25.06689Zm-28.85986-17.73926l28.85986,16.66211,58.21973-33.61328v-67.22607l-28.85986-16.6626-58.21973,33.61328v67.22656Z" style="fill:#030303;"/><path d="m251.44914,325.53388c-.08496,0-.1709-.02148-.24951-.06689l-39.71533-22.93018c-.23926-.13818-.32129-.44385-.18311-.68311.13818-.24023.44336-.32227.68311-.18311l39.71533,22.93018c.23926.13818.32129.44385.18311.68311-.09277.16064-.26074.25-.43359.25Z" style="fill:#030303;"/><rect x="268.44621" y="223.89424" width="1" height="74.1665" style="fill:#ff888a;"/><polygon points="264.85624 294.74726 265.58866 294.06513 268.94511 297.67695 272.30253 294.06513 273.03495 294.74726 268.94511 299.14524 264.85624 294.74726" style="fill:#ff888a;"/><rect x="291.3925" y="388.75605" width="1" height="33.30566" style="fill:#ff888a;"/><polygon points="295.98231 392.0695 295.24989 392.75163 291.89344 389.13981 288.53599 392.75163 287.8036 392.0695 291.89344 387.67152 295.98231 392.0695" style="fill:#ff888a;"/><rect x="359.00448" y="307.93599" width="1.00016" height="69.8701" transform="translate(-117.18277 482.77553) rotate(-59.99999)" style="fill:#ff888a;"/><polygon points="330.07465 330.60229 331.03162 330.30906 329.58192 325.59638 334.38856 324.49468 334.16401 323.51933 328.31031 324.86224 330.07465 330.60229" style="fill:#ff888a;"/><rect x="204.35018" y="411.41822" width="1.00016" height="51.72645" transform="translate(-276.27166 396.04564) rotate(-59.99993)" style="fill:#ff888a;"/><polygon points="226.42384 445.0146 225.46687 445.30781 226.91657 450.02049 222.10993 451.1222 222.33448 452.09754 228.18818 450.75465 226.42384 445.0146" style="fill:#ff888a;"/><path d="m235.50138,385.31611c-.08643,0-.17285-.02246-.25-.06689l-10.3501-5.97607c-.15479-.08936-.25-.25439-.25-.43311v-55.34619c0-.17871.09521-.34375.25-.43311.1543-.08887.3457-.08887.5,0l10.3501,5.97559c.15479.08936.25.25439.25.43311v55.34668c0,.17871-.09521.34375-.25.43311-.07715.04443-.16357.06689-.25.06689Zm-9.8501-6.76465l9.3501,5.39844v-54.19189l-9.3501-5.39795v54.19141Z" style="fill:#030303;"/><polygon points="185.77482 343.85176 185.55753 265.6872 186.55753 265.68427 186.76994 342.12324 204.64933 331.80976 205.14933 332.67597 185.77482 343.85176" style="fill:#ff888a;"/><polygon points="199.98538 330.35586 199.76046 331.33113 204.56617 332.43388 203.11511 337.14683 204.07194 337.44044 205.83805 331.70024 199.98538 330.35586" style="fill:#ff888a;"/><polygon points="313.81778 341.63284 261.1665 372.03103 261.16652 330.24589 313.8178 299.8477 313.81778 341.63284" style="fill:#ff888a;"/><path d="m261.16642,372.53095c-.08643,0-.17285-.02246-.25-.06689-.15479-.08936-.25-.25439-.25-.43311v-41.78516c0-.17871.09521-.34375.25-.43311l52.65137-30.39795c.1543-.08887.3457-.08887.5,0,.15479.08936.25.25439.25.43311v41.78516c0,.17871-.09521.34375-.25.43311l-52.65137,30.39795c-.07715.04443-.16357.06689-.25.06689Zm.5-41.99658v40.63037l51.65137-29.82031v-40.63037l-51.65137,29.82031Z" style="fill:#030303;"/><path d="m261.24308,357.41767l-.46191-.88672c.56592-.29443,1.34912-1.05859,1.69482-2.24219l2.88525-9.87842c.48779-1.66943,1.85547-3.04199,3.11377-3.12451.68262-.04053,1.22607.29736,1.50781.93604l2.88525,6.54688c.11182.25342.27441.35254.52734.3418.73096-.04834,1.82227-1.04834,2.21924-2.40723l2.88525-9.87891c.48779-1.66943,1.85547-3.04199,3.11426-3.12451.68164-.04053,1.22607.29736,1.50732.93604l2.88525,6.54688c.11182.25293.27441.35449.52734.3418.73096-.04785,1.82227-1.04834,2.21924-2.40723l2.88525-9.87842c.48779-1.66943,1.85547-3.04199,3.11426-3.12451.68066-.04102,1.22607.29736,1.50781.93604l2.88525,6.54688c.11182.25293.27441.35596.52734.3418.73096-.04834,1.82227-1.04834,2.21924-2.40723l2.88525-9.87842c.48779-1.66943,1.85547-3.04199,3.11377-3.12451.67969-.04199,1.22607.29736,1.50781.93604l2.88525,6.54688c.07568.17139.17578.27539.30615.31836.20508.06641.50635-.00146.82861-.1875l.5.86621c-.57617.33154-1.15967.4292-1.63916.27148-.40479-.13232-.71924-.43115-.91064-.86523l-2.88525-6.54688c-.1123-.25342-.28125-.35938-.52734-.3418-.73096.04834-1.82227,1.04834-2.21924,2.40723l-2.88525,9.87842c-.48779,1.66943-1.85547,3.04199-3.11377,3.12451-.67725.04492-1.22559-.29688-1.50781-.93604l-2.88525-6.54688c-.11182-.25342-.28125-.36084-.52734-.3418-.73145.04834-1.82275,1.04834-2.21973,2.40723l-2.88525,9.87842c-.48779,1.66992-1.85547,3.04248-3.11377,3.125-.68213.03906-1.22656-.29736-1.50781-.93652l-2.88525-6.54688c-.11133-.25293-.26465-.36426-.52734-.34131-.73096.04785-1.82227,1.04785-2.21924,2.40674l-2.88525,9.87891c-.48779,1.66943-1.85547,3.04199-3.11377,3.12451-.67529.0459-1.22607-.29688-1.50781-.93604l-2.88525-6.54688c-.11182-.25342-.28125-.35742-.52734-.3418-.73096.04834-1.82227,1.04834-2.21924,2.40723l-2.88525,9.87842c-.36279,1.24219-1.20312,2.3335-2.19287,2.84863Z" style="fill:#030303;"/><ellipse cx="264.74368" cy="383.07828" rx="3.48766" ry="2.0135" transform="translate(-199.61194 417.89274) rotate(-59.63948)" style="fill:#030303;"/><path d="m263.63078,386.75801c-.32178,0-.62354-.07764-.89355-.2334-.62451-.36084-.96875-1.07715-.96875-2.01758,0-1.75293,1.19678-3.81689,2.7251-4.69922.82471-.47656,1.62695-.53955,2.25684-.17578.62451.36084.96826,1.07715.96826,2.01709,0,1.75293-1.19678,3.81689-2.7251,4.69971-.47119.27197-.93457.40918-1.36279.40918Zm2.2251-6.35645c-.25293,0-.55029.09229-.8623.27246-1.20605.69629-2.2251,2.45166-2.2251,3.83301,0,.55957.1709.97949.46875,1.15137.30225.17627.76074.11084,1.25635-.17578,1.20605-.69629,2.2251-2.45215,2.2251-3.8335,0-.55957-.1709-.979-.46826-1.15088-.1123-.06494-.24561-.09668-.39453-.09668Z" style="fill:#030303;"/><ellipse cx="274.20541" cy="377.61556" rx="3.48766" ry="2.0135" transform="translate(-190.21896 423.35526) rotate(-59.63948)" style="fill:#030303;"/><path d="m273.09269,381.29511c-.32178,0-.62402-.07764-.89404-.2334-.62451-.36084-.96826-1.07715-.96826-2.01709,0-1.75293,1.19727-3.81738,2.7251-4.69922.8252-.47656,1.62646-.54053,2.25635-.17578.62451.36035.96875,1.07666.96875,2.01709,0,1.75293-1.19678,3.81689-2.7251,4.69922-.47119.27197-.93506.40918-1.36279.40918Zm2.2251-6.35596c-.25293,0-.55029.0918-.8623.27246-1.20605.6958-2.2251,2.45117-2.2251,3.83301,0,.55957.1709.979.46826,1.15088.30371.17529.76172.11133,1.25684-.17578,1.20605-.69629,2.2251-2.45166,2.2251-3.83301,0-.55957-.1709-.979-.46875-1.15137-.1123-.06445-.24561-.09619-.39404-.09619Z" style="fill:#030303;"/><path d="m305.8339,364.46699c-.51465,0-.99463-.12207-1.4209-.36816-1.00391-.57959-1.55664-1.75635-1.55664-3.31348,0-3.00342,2.13086-6.67773,4.75-8.18994,1.36914-.79053,2.68115-.90381,3.69336-.31982,1.00391.57959,1.55664,1.75635,1.55664,3.31348,0,3.00342-2.13086,6.67773-4.75,8.18994-.79248.45752-1.56543.68799-2.27246.68799Zm4.0415-11.55908c-.52979,0-1.13281.18604-1.76904.55371-2.34326,1.35303-4.25,4.63867-4.25,7.32373,0,1.18457.375,2.05371,1.05664,2.44727.68945.39746,1.646.28564,2.69336-.31982,2.34326-1.35303,4.25-4.63867,4.25-7.32373,0-1.18457-.375-2.05371-1.05664-2.44727-.27051-.15625-.58203-.23389-.92432-.23389Z" style="fill:#030303;"/><polygon points="372.91105 151.88301 371.91105 151.88301 371.91105 135.45429 265.09074 73.78144 265.59074 72.91523 372.91105 134.87715 372.91105 151.88301" style="fill:#ff888a;"/><polygon points="368.32124 148.5696 369.05366 147.88748 372.4101 151.4993 375.76753 147.88748 376.49995 148.56961 372.4101 152.96759 368.32124 148.5696" style="fill:#ff888a;"/><rect x="371.05412" y="202.95039" width="1" height="13.52246" style="fill:#ff888a;"/><polygon points="367.46418 213.15944 368.19657 212.47731 371.55302 216.08913 374.91047 212.47731 375.64289 213.15944 371.55302 217.55743 367.46418 213.15944" style="fill:#ff888a;"/><path d="m391.08946,360.49061l-30.59465,17.66381c-3.62058,2.09034-6.55563-.12852-6.55563-4.95595v-15.71835c0-4.82743,2.93507-10.43539,6.55564-12.52573l30.59465-17.66381c3.62058-2.09034,6.55563.12852,6.55563,4.95595v15.71835c0,4.82743-2.93507,10.43539-6.55564,12.52573Z" style="fill:#fff;"/><path d="m357.88859,379.31513c-.67188,0-1.30371-.1626-1.87061-.49023-1.55957-.8999-2.45361-2.95068-2.45361-5.62646v-15.71826c0-4.93896,3.0249-10.7041,6.74316-12.85059l30.59424-17.66357c1.69678-.98096,3.354-1.10352,4.66455-.3457,1.55957.8999,2.45361,2.95068,2.45361,5.62646v15.71826c0,4.93848-3.02539,10.70312-6.74316,12.8501l-30.59424,17.66406c-.96289.55615-1.91309.83594-2.79395.83594Zm35.80566-52.43311c-.75049,0-1.57275.24609-2.41748.7334l-30.59424,17.66357c-3.51123,2.02734-6.36816,7.50098-6.36816,12.20117v15.71826c0,2.40039.75781,4.21436,2.07861,4.97705,1.06885.61719,2.4585.49365,3.91455-.3457l30.59424-17.66406c3.51123-2.02734,6.36816-7.50049,6.36816-12.20068v-15.71826c0-2.40039-.75781-4.21436-2.07861-4.97705-.44873-.25928-.9541-.3877-1.49707-.3877Z" style="fill:#030303;"/><polygon points="371.88313 367.96181 370.18395 368.94283 370.18395 366.99499 371.88313 366.01397 371.88313 367.96181" style="fill:#030303;"/><polygon points="374.29807 366.56755 372.59888 367.54857 372.59889 365.60073 374.29807 364.61971 374.29807 366.56755" style="fill:#030303;"/><polygon points="376.713 365.17329 375.01382 366.15431 375.01382 364.20647 376.713 363.22544 376.713 365.17329" style="fill:#030303;"/><polygon points="379.12794 363.77902 377.42876 364.76005 377.42876 362.8122 379.12794 361.83118 379.12794 363.77902" style="fill:#030303;"/><polygon points="381.54287 362.38476 379.84369 363.36578 379.84369 361.41794 381.54287 360.43692 381.54287 362.38476" style="fill:#030303;"/><polygon points="383.95781 360.9905 382.25863 361.97152 382.25863 360.02368 383.95781 359.04266 383.95781 360.9905" style="fill:#030303;"/><polygon points="386.37275 359.59624 384.67356 360.57726 384.67356 358.62942 386.37275 357.6484 386.37275 359.59624" style="fill:#030303;"/><polygon points="388.78768 358.20198 387.0885 359.183 387.0885 357.23516 388.78768 356.25414 388.78768 358.20198" style="fill:#030303;"/><ellipse cx="393.10724" cy="354.60786" rx="2.79341" ry="1.61269" transform="translate(-111.5624 514.57222) rotate(-59.63945)" style="fill:#fff;"/><path d="m392.21671,357.404c-.23193,0-.44873-.05518-.64111-.1665-.45166-.26074-.70068-.78809-.70068-1.48535,0-1.35498.92578-2.95068,2.10742-3.6333.61279-.35449,1.20215-.40283,1.65674-.14062.45166.26074.70068.78809.70068,1.48535,0,1.35498-.92578,2.95068-2.10742,3.6333-.35352.2041-.69922.30713-1.01562.30713Zm1.77979-5.0918c-.22803,0-.48877.08057-.76416.23926-1.02441.5918-1.85742,2.02734-1.85742,3.20068,0,.51074.16016.88477.45068,1.05225.29541.1709.70605.12012,1.15674-.14014,1.02441-.5918,1.85742-2.02734,1.85742-3.20068,0-.51074-.16016-.88477-.45068-1.05225-.11475-.06641-.24707-.09912-.39258-.09912Z" style="fill:#030303;"/><ellipse cx="365.92032" cy="370.30422" rx="2.79341" ry="1.61269" transform="translate(-138.55175 498.87645) rotate(-59.63945)" style="fill:#fff;"/><path d="m365.0297,373.10029c-.23242,0-.44873-.05518-.64111-.1665-.45215-.26074-.70068-.78809-.70068-1.48486,0-1.35547.92578-2.95166,2.10742-3.6333.61328-.35449,1.20117-.40527,1.65674-.14111.45166.26074.70068.78809.70068,1.48535,0,1.35498-.92578,2.95068-2.10742,3.6333-.35352.2041-.69922.30713-1.01562.30713Zm1.78027-5.0918c-.22852,0-.48877.08057-.76465.23975-1.02441.59131-1.85742,2.02686-1.85742,3.20068,0,.51074.16016.88428.45068,1.05176.29492.17188.70508.12061,1.15674-.14014,1.02441-.5918,1.85742-2.02734,1.85742-3.20068,0-.51074-.16016-.88477-.45068-1.05225-.11475-.06641-.24707-.09912-.39209-.09912Z" style="fill:#030303;"/><ellipse cx="393.04008" cy="330.76871" rx="2.79341" ry="1.61269" transform="translate(-91.02572 502.72437) rotate(-59.63945)" style="fill:#fff;"/><path d="m392.14884,333.56513c-.23145,0-.44775-.05518-.64062-.1665-.45166-.26074-.70068-.78857-.70068-1.48535,0-1.35547.92578-2.95166,2.10742-3.6333.6123-.354,1.20068-.4043,1.65674-.14111.45166.26074.70068.78857.70068,1.48535,0,1.35498-.92578,2.95068-2.10742,3.6333-.35352.20459-.69922.30762-1.01611.30762Zm1.78027-5.09229c-.22803,0-.48828.08057-.76416.23975-1.02441.59131-1.85742,2.02686-1.85742,3.20068,0,.51074.16016.88477.45068,1.05225.29541.1709.70557.12061,1.15674-.14062,1.02441-.5918,1.85742-2.02734,1.85742-3.20068,0-.51074-.16016-.88477-.45068-1.05225-.11475-.06641-.24707-.09912-.39258-.09912Z" style="fill:#030303;"/><ellipse cx="365.85316" cy="346.46506" rx="2.79341" ry="1.61269" transform="translate(-118.01507 487.0286) rotate(-59.63945)" style="fill:#fff;"/><path d="m364.96232,349.26142c-.23193,0-.44824-.05518-.64062-.1665-.45166-.26074-.70068-.78809-.70068-1.48535,0-1.35498.92529-2.95117,2.10693-3.6333.61328-.35498,1.20166-.40527,1.65674-.14111.45215.26074.70068.78857.70068,1.48535,0,1.35596-.92578,2.95166-2.10742,3.6333-.35352.20459-.69922.30762-1.01562.30762Zm1.78027-5.09229c-.22852,0-.48877.08057-.76465.23975-1.02393.5918-1.85693,2.02734-1.85693,3.20068,0,.51074.16016.88477.45068,1.05225.29395.1709.70459.12109,1.15625-.14062,1.02441-.59131,1.85742-2.02686,1.85742-3.20068,0-.51074-.16016-.88477-.45068-1.05225-.11426-.06641-.24658-.09912-.39209-.09912Z" style="fill:#030303;"/><polygon points="362.64464 368.75844 353.93918 373.78453 353.93918 366.74005 362.64465 361.71395 362.64464 368.75844" style="fill:#fff;"/><path d="m353.56437,374.43379v-7.91016l9.45508-5.45898v7.91016l-9.45508,5.45898Zm.75-7.47754v6.17871l7.95508-4.59277v-6.17871l-7.95508,4.59277Z" style="fill:#030303;"/><polygon points="362.64465 359.07171 353.93918 364.09781 353.93918 357.05332 362.64465 352.02723 362.64465 359.07171" style="fill:#fff;"/><path d="m353.56437,364.74726v-7.91016l9.45508-5.45947v7.91016l-9.45508,5.45947Zm.75-7.47754v6.17871l7.95508-4.59326v-6.17871l-7.95508,4.59326Z" style="fill:#030303;"/><polygon points="394.18307 348.81303 391.77589 350.20281 391.7759 337.37952 394.18307 335.98974 394.18307 348.81303" style="fill:#030303;"/><path d="m357.88859,379.44062c-.69336,0-1.34619-.16846-1.93311-.50732-1.59912-.92334-2.51611-3.01367-2.51611-5.73486v-15.71826c0-4.979,3.05322-10.79248,6.80566-12.95898l30.59424-17.66357c1.73877-1.00244,3.43945-1.12549,4.78955-.3457,1.59912.92334,2.51611,3.01367,2.51611,5.73486v15.71826c0,4.97852-3.05322,10.7915-6.80566,12.9585l-30.59424,17.66406c-.98291.56738-1.9541.85303-2.85645.85303Zm35.80566-52.43359c-.729,0-1.53027.24023-2.35498.7168l-30.59424,17.66357c-3.47705,2.00732-6.30566,7.43213-6.30566,12.09277v15.71826c0,2.35449.73486,4.12891,2.01611,4.86865,1.02881.59424,2.37451.47168,3.78955-.3457l30.59424-17.66406c3.47705-2.00732,6.30566-7.43213,6.30566-12.09229v-15.71826c0-2.35449-.73486-4.12891-2.01611-4.86865-.4292-.24805-.91309-.37109-1.43457-.37109Z" style="fill:#030303;"/><path d="m198.39445,289.67402c-.96387,0-1.86768-.19531-2.68457-.58789-.05469-.00879-.10791-.02637-.15625-.0542l-26.9458-15.54541c-2.13184-1.28223-3.30176-3.86816-3.30176-7.28711,0-6.97412,4.94824-15.50439,11.03076-19.01611,2.97168-1.71582,5.67578-1.99512,8.03418-.83057l22.7124,13.09668c.06885.03027.17432.08105.27686.1377.04492.02441.08496.05518.11963.09131l3.48389,2.00879c.10498.05518.22314.12354.33887.1958l.1543.08887c.03564.02051.06836.04541.09766.07373,1.90967,1.3418,2.96045,3.84619,2.96045,7.06445,0,2.63867-.70068,5.56006-2.0293,8.47461l1.07666.62305c.46924.25146.73828.77686.73828,1.44482,0,1.1626-.79346,2.53076-1.80615,3.11572-.50244.28955-1.01074.354-1.43848.18213-.03662-.01074-.07227-.02588-.10596-.04541-.03174-.01562-.07568-.0415-.11914-.0708l-1.05225-.60791c-1.8584,2.55664-4.02783,4.59082-6.29492,5.8999-1.7793,1.02734-3.51465,1.54785-5.08936,1.54785Zm-2.46436-1.57959c.03809.0083.07568.02148.11182.04004,1.85645.94971,4.3208.6377,6.94189-.87451,2.25098-1.29932,4.40967-3.36768,6.24268-5.98096.14893-.21143.43408-.27588.65967-.14551l1.4707.85107-.00293.0083c.02002.00635.03955.01367.05859.02295.13379.06152.34766.02148.58203-.11377.70801-.40869,1.30615-1.43896,1.30615-2.24951,0-.28369-.07959-.49463-.2124-.56445-.00635-.00293-.01221-.00635-.01855-.01025l-1.48096-.85693c-.22559-.13037-.31299-.4126-.20068-.64795,1.3916-2.91943,2.12695-5.8457,2.12695-8.46289,0-2.9165-.9209-5.14893-2.59326-6.28613-.0127-.00879-.0249-.01807-.03711-.02783l-.09668-.05615c-.10986-.06787-.20752-.12451-.30811-.17773l-3.62012-2.08691c-.03516-.02051-.06738-.04443-.0957-.07129-.04736-.02393-.09521-.04639-.14307-.06885l-22.72119-13.10107c-2.04102-1.00586-4.36035-.74512-7.06299.81543-5.80664,3.35254-10.53076,11.49414-10.53076,18.1499,0,3.0542.99756,5.33594,2.80957,6.42529l26.81445,15.46973Z" style="fill:#030303;"/><path d="m213.24254,278.61707l-1.48066-.85694c1.35962-2.85327,2.17546-5.88896,2.17546-8.67828,0-3.20599-1.06522-5.51163-2.81165-6.69959l.00347-.00594-.1682-.09702c-.10598-.06631-.21403-.12879-.32459-.18717l-3.60386-2.07837.00967-.01668c-.09336-.05144-.18982-.09731-.28643-.14292l-22.6836-13.08161c-2.13376-1.05337-4.61631-.88558-7.56258.8155-5.95424,3.43765-10.78104,11.75761-10.78105,18.58318,0,3.35072,1.16315,5.7184,3.05195,6.85402l26.94551,15.54516.01092-.01871c1.93301.98758,4.54369.77358,7.4194-.88672,2.40041-1.3859,4.61004-3.57202,6.40164-6.12716l1.47077.85122c.02583.01701.05196.03251.07971.04616l.0152.00878.00148-.00266c.27632.12783.63944.09794,1.04182-.1344.85953-.49622,1.55624-1.6972,1.55624-2.68245,0-.50589-.18554-.85314-.48061-1.00743Z" style="fill:#fff;"/><path d="m198.39054,289.55537c-1.0918,0-2.10254-.25635-2.99561-.77148-2.13916-1.23535-3.31738-3.80127-3.31738-7.2251,0-6.93408,4.92041-15.41602,10.96875-18.90771,3.01514-1.74121,5.86621-2.0127,8.02588-.76562,2.13916,1.23486,3.31738,3.80078,3.31738,7.22461,0,6.93408-4.92041,15.41602-10.96826,18.90771-1.76904,1.02148-3.48145,1.5376-5.03076,1.5376Zm9.68408-27.69043c-1.41699,0-3.00146.48193-4.65332,1.43555-5.84131,3.37256-10.59375,11.56299-10.59375,18.2583,0,3.14453,1.04492,5.47998,2.94238,6.5752,1.91943,1.10889,4.50244.83643,7.27637-.76562,5.84131-3.37256,10.59326-11.56299,10.59326-18.2583,0-3.14453-1.04492-5.47949-2.94238-6.5752-.77588-.44775-1.66064-.66992-2.62256-.66992Z" style="fill:#030303;"/><path d="m191.63468,286.59931c-2.08545-1.25391-3.23389-3.80225-3.23389-7.17529,0-6.93408,4.92041-15.41602,10.96875-18.90771,2.9668-1.7124,5.78223-2.00342,7.93115-.81934l-.3623.65723c-1.9082-1.05225-4.46289-.76416-7.19385.81152-5.84131,3.37256-10.59375,11.56299-10.59375,18.2583,0,3.09961,1.01953,5.41943,2.87061,6.53271l-.38672.64258Z" style="fill:#030303;"/><path d="m200.36515,283.90888c-.67285,0-1.29688-.15869-1.84961-.47803-1.31641-.75977-2.04102-2.32617-2.04102-4.41016,0-4.15527,2.94824-9.2373,6.57178-11.32959,1.83496-1.06006,3.57861-1.21924,4.90576-.45312,1.31641.75977,2.04102,2.32617,2.04102,4.41064,0,4.15479-2.94824,9.23682-6.57178,11.3291-1.07129.61865-2.11133.93115-3.05615.93115Zm5.73438-16.39795c-.81152,0-1.72363.27881-2.67822.82959-3.41699,1.97266-6.19678,6.76367-6.19678,10.68018,0,1.80518.5918,3.14062,1.66602,3.76074,1.08643.62793,2.56299.46582,4.15576-.45312,3.41699-1.97266,6.19678-6.76367,6.19678-10.67969,0-1.80518-.5918-3.14111-1.66602-3.76123-.43555-.25146-.93408-.37646-1.47754-.37646Z" style="fill:#030303;"/><ellipse cx="203.23374" cy="275.33452" rx="2.61109" ry="1.50743" transform="translate(-137.06432 311.53234) rotate(-59.63948)" style="fill:#030303;"/><ellipse cx="203.28779" cy="285.06665" rx="1.42203" ry=".82095" transform="translate(-145.43371 316.40727) rotate(-59.64197)" style="fill:#030303;"/><ellipse cx="203.2878" cy="265.44309" rx="1.42203" ry=".82095" transform="translate(-128.50084 306.7015) rotate(-59.64197)" style="fill:#030303;"/><path d="m195.61613,288.92353l-26.9458-15.54541c-2.09082-1.25732-3.23926-3.80566-3.23926-7.17871,0-6.93408,4.92041-15.41602,10.96826-18.90771,2.93408-1.69385,5.59814-1.9707,7.9165-.82715l27.07812,15.61523-.375.64941-27.05664-15.60352c-2.08789-1.02979-4.44678-.76709-7.18799.81543-5.84131,3.37256-10.59326,11.56299-10.59326,18.2583,0,3.09961,1.01904,5.41992,2.87012,6.53271l26.93994,15.54199-.375.64941Z" style="fill:#030303;"/><path d="m211.20114,282.47224l-9.0016-5.20972-.00019-.00002c-.27798-.1612-.44966-.5047-.44966-.99329,0-.98329.69536-2.18187,1.55311-2.67711.42888-.24762.81715-.27252,1.0982-.11261l-.06381-.03301,9.0016,5.20972" style="fill:#fff;"/><path d="m211.0131,282.79707l-9.00146-5.20996c-.41064-.23779-.63672-.70605-.63672-1.31787,0-1.12012.76416-2.43848,1.74023-3.00195.48535-.2793.95752-.33838,1.3501-.17334.01562.00586.03076.01221.0459.02002v.00049c.02539.01221.05078.02539.07568.03955.01465.0083.02881.01758.04199.02783l8.89795,5.1499-.37598.64941-8.97559-5.19531c-.1709-.07129-.4165-.02441-.68506.13086-.74023.42725-1.36523,1.50488-1.36523,2.35254,0,.32812.0957.57227.26221.66895l9.00195,5.20947-.37598.64941Z" style="fill:#030303;"/><ellipse cx="212.24441" cy="280.55125" rx="2.19291" ry="1.26601" transform="translate(-137.10931 321.8873) rotate(-59.63948)" style="fill:#fff;"/><path d="m211.54484,282.92549c-.21289,0-.4126-.05176-.59229-.15527-.41211-.23779-.63916-.70703-.63916-1.32031,0-1.12207.76611-2.44287,1.74365-3.00732.53809-.31152,1.06348-.3501,1.47949-.11035.41211.23779.63916.70703.63916,1.32031,0,1.12207-.76611,2.44287-1.74365,3.00732-.30566.17676-.60742.26562-.88721.26562Zm1.39844-3.99707c-.14795,0-.32422.05566-.51123.16357-.7417.42822-1.36865,1.5083-1.36865,2.35791,0,.32959.09619.57373.26416.6709.1709.09912.43799.05762.72949-.11035.7417-.42822,1.36865-1.5083,1.36865-2.35791,0-.32959-.09619-.57373-.26416-.6709-.06152-.03564-.13574-.05322-.21826-.05322Z" style="fill:#030303;"/><path d="m304.87833,457.94599c-2.50391,0-5.29102-.82666-8.14502-2.47412-9.80615-5.66162-17.78369-19.41406-17.78369-30.65625,0-6.47021,2.59082-10.99512,7.11084-12.42627l13.60938-7.97949c3.47949-1.97949,8.05957-1.52637,12.90137,1.26904,9.80615,5.66162,17.78369,19.41406,17.78369,30.65625,0,5.55615-1.91357,9.70459-5.38818,11.68213l-14.52979,8.19434c-1.57129,1.15723-3.46631,1.73438-5.55859,1.73438Zm-.43066-53.75c-1.56641,0-3.00879.35791-4.27783,1.07959l-13.65283,8.00488c-.0332.01953-.06836.03516-.10498.04639-4.10693,1.27295-6.4624,5.46045-6.4624,11.48877,0,10.92383,7.75342,24.28809,17.28369,29.79004,4.87646,2.81445,9.4873,3.09521,12.65527.77246.00586-.00488.01172-.00928.01807-.01367.19873-.14648.3916-.30322.57764-.46973.02783-.0249.05811-.04639.09033-.06445l14.33301-7.98047c.03809-.021.07764-.03662.11768-.04736,2.79736-1.91211,4.32959-5.59766,4.32959-10.46729,0-10.92383-7.75342-24.2876-17.28369-29.79004-2.70215-1.56006-5.29932-2.34912-7.62354-2.34912Zm-18.18359,8.65332h.00977-.00977Z" style="fill:#030303;"/><path d="m312.32126,406.11213c-4.84183-2.79545-9.22527-3.07651-12.39828-1.27111l-13.65897,8.00839c-4.14365,1.28397-6.81438,5.495-6.81439,11.9663-.00001,11.10078,7.85011,24.632,17.53377,30.22288,5.27014,3.04272,9.99362,3.10068,13.20777.7374l14.52834-8.19336c3.17296-1.8054,5.13552-5.69725,5.13552-11.24765.00001-11.10076-7.85011-24.632-17.53377-30.22285Zm-2.11801,49.65487c.21144-.15608.41628-.32252.61434-.4995l14.33338-7.9809-14.94772,8.4804Z" style="fill:#fff;"/><path d="m302.23039,451.68183c-1.84033,0-3.87158-.62012-5.9668-1.84668-7.07861-4.14648-12.79688-14.14648-12.74609-22.29199.0249-4.03564,1.43555-7.05225,3.97119-8.49561,2.56104-1.45654,5.92041-1.11719,9.46191.95654,7.07861,4.14648,12.79688,14.14648,12.74609,22.29199l-.5-.00293.5.00293c-.0249,4.03516-1.43555,7.05225-3.97119,8.49512-1.04541.59521-2.22461.89062-3.49512.89062Zm-11.24365-32.52344c-1.09961,0-2.1123.25146-3.00342.7583-2.21191,1.25879-3.44287,3.96973-3.46582,7.63232-.04883,7.82715,5.44727,17.4375,12.25195,21.42285,3.21826,1.88525,6.22266,2.22314,8.46143.9502,2.2124-1.25879,3.44287-3.96924,3.46582-7.63184.04883-7.82715-5.44727-17.4375-12.25195-21.42285-1.93701-1.13477-3.79688-1.70898-5.45801-1.70898Z" style="fill:#030303;"/><path d="m292.06339,426.63008c-.5,0-1.04248-.16162-1.5835-.47852l-5.65234-3.31006c-.23828-.13965-.31787-.4458-.17871-.68457.13965-.23828.4458-.31787.68408-.17871l5.65234,3.31006c.55127.32275,1.06641.42139,1.44922.27979.28613-.10596.49463-.34375.62012-.70703l1.83008-5.29199c.09033-.26074.37354-.39844.63623-.30908.26074.09033.39941.375.30908.63623l-1.83008,5.29199c-.2251.65039-.64648,1.10645-1.21875,1.31787-.22461.08301-.46582.12402-.71777.12402Z" style="fill:#030303;"/><path d="m288.09855,441.22041c-.0542,0-.10938-.00879-.16357-.02734-.26074-.09033-.39941-.375-.30908-.63623l1.69482-4.90137c.34619-.99951-.05469-2.61621-.9751-3.93164l-4.50635-6.43994c-.1582-.22607-.10303-.53809.12305-.69629.22656-.1582.5376-.10352.69629.12305l4.50635,6.43994c1.10986,1.58643,1.55225,3.52832,1.10107,4.83203l-1.69482,4.90137c-.07178.20654-.26562.33643-.47266.33643Z" style="fill:#030303;"/><path d="m302.56339,451.66865c-.15771,0-.31299-.07422-.41016-.21338l-4.29443-6.13672c-.89014-1.27246-2.08154-2.01514-2.90625-1.81396l-4.33936,1.08008c-.2666.06396-.53955-.09668-.60596-.36475-.06641-.26758.09668-.53906.36475-.60596l4.33936-1.08008c1.24902-.30859,2.80908.55664,3.9668,2.21143l4.29443,6.13672c.1582.22607.10303.53809-.12305.69629-.0874.06104-.18701.09033-.28613.09033Z" style="fill:#030303;"/><path d="m304.98136,451.10908c-.22656,0-.43164-.15479-.48584-.38477l-1.62207-6.84424c-.45264-1.90771.13086-3.41016,1.45117-3.73877l4.55371-1.1333c.26514-.06494.53906.09668.60596.36475.06641.26807-.09668.53906-.36475.60596l-4.55371,1.1333c-.73438.18262-1.03027,1.22607-.71973,2.5376l1.62207,6.84424c.06396.26855-.10254.53809-.37109.60156-.03857.00928-.07764.01367-.11572.01367Z" style="fill:#030303;"/><path d="m308.205,436.45381c-.08594,0-.17285-.02197-.25195-.06836l-5.65234-3.31006c-1.38086-.80957-2.58643-2.5249-2.99951-4.26904l-1.75098-7.38965c-.06396-.26855.10254-.53809.37109-.60156.26562-.06641.53809.10205.60156.37109l1.75098,7.38965c.34912,1.47168,1.39014,2.96729,2.53223,3.63672l5.65186,3.30957c.23828.13965.31836.4458.1792.68408-.09326.15918-.26025.24756-.43213.24756Z" style="fill:#030303;"/><path d="m298.80412,441.77168c-.77246,0-1.61865-.25635-2.48535-.76367-2.84863-1.66846-5.14941-5.69287-5.12891-8.97119.01074-1.68945.61621-2.96143,1.70508-3.58105,1.09717-.62598,2.51953-.49219,4,.375,2.84912,1.66895,5.1499,5.69385,5.12939,8.97168-.01074,1.68994-.61621,2.96143-1.70508,3.58105-.45557.25928-.96729.38818-1.51514.38818Zm-4.39062-12.70312c-.37744,0-.72266.08496-1.02393.25635-.76562.43555-1.19141,1.40088-1.19971,2.71777-.01855,2.95996,2.06055,6.59473,4.63477,8.10205,1.15918.6792,2.22412.81055,3,.36963.76562-.43555,1.19141-1.40088,1.19971-2.71777.01855-2.95996-2.06055-6.59473-4.63477-8.10254-.7085-.41553-1.38232-.62549-1.97607-.62549Z" style="fill:#030303;"/><path d="m296.76359,426.54218c-.08203,0-.16797-.02441-.25049-.07324-.22705-.13281-.39648-.43018-.39404-.69043.00098-.17334.07617-.31543.20654-.39014.13037-.07422.29199-.06641.44385.02197.22705.1333.39648.43018.39453.69092h0c-.00098.17383-.07666.31641-.20703.39062-.05957.03369-.125.05029-.19336.05029Z" style="fill:#030303;"/><path d="m304.49894,437.43965c-.08887,0-.18262-.02686-.27295-.07959-.25439-.14941-.44482-.4834-.44336-.77637.00146-.18945.08203-.34326.22168-.42285.14062-.0791.31396-.06934.47949.02637.25439.14893.44482.48291.44287.77686-.00098.18848-.08154.3418-.22119.42139-.06299.03613-.1333.0542-.20654.0542Zm-.19629-.76123c.02197.07373.06299.14502.11035.1958-.02002-.06885-.06152-.1416-.11035-.1958Z" style="fill:#030303;"/><path d="m291.74064,440.77363c-.08887,0-.18262-.02686-.27295-.07959-.25488-.14941-.44531-.4834-.44336-.77686.00098-.18799.08154-.3418.22119-.42139.14062-.08057.31494-.0708.47949.02539.25488.14893.44531.48291.44336.77686-.00098.18848-.08154.3418-.22119.42139-.06299.03613-.1333.0542-.20654.0542Zm-.19678-.76123c.02197.07422.06299.14502.11133.19629-.02051-.06934-.06201-.14209-.11133-.19629Z" style="fill:#030303;"/><path d="m301.93839,447.11787c-.08936,0-.18311-.02686-.27344-.08008-.25488-.14844-.44531-.48242-.44336-.77637.00098-.18799.08154-.3418.22119-.42139.13916-.08008.31396-.07178.47949.02539.25488.14941.44531.4834.44336.77734-.00098.18848-.08154.34229-.22119.42139-.06299.03613-.1333.05371-.20605.05371Zm-.19727-.76074c.02197.07373.06299.14502.11084.1958-.02002-.06885-.06152-.14209-.11084-.1958Z" style="fill:#030303;"/><path d="m288.39445,427.63496c-.08936,0-.18262-.02686-.27344-.07959-.25391-.14893-.44482-.48242-.44336-.77588.00146-.18945.08203-.34326.22168-.42236.14014-.08008.31543-.07031.479.02539.25439.14893.44531.48242.44385.77588v.00098c-.00146.18848-.08203.34229-.22168.42188-.06299.03564-.1333.05371-.20605.05371Zm-.05713-.47852c-.00781.00781-.01514.01611-.01807.02441l.25293-.02344-.23486-.00098Zm-.14014-.28271c.02197.07422.06348.14551.11133.19678-.02051-.06934-.06201-.14307-.11133-.19678Z" style="fill:#030303;"/><path d="m304.85978,457.95674c-2.50098,0-5.26611-.8335-8.12646-2.48486-9.80615-5.66162-17.78369-19.41406-17.78369-30.65625,0-5.52734,1.89648-9.6665,5.34033-11.65479,3.47656-2.00732,8.07422-1.56641,12.94336,1.24512,9.80615,5.66162,17.78369,19.41406,17.78369,30.65625,0,5.52734-1.89648,9.6665-5.34033,11.65479-1.43457.82812-3.06055,1.23975-4.81689,1.23975Zm-15.75-45.03467c-1.5835,0-3.04102.36621-4.31982,1.10498-3.12158,1.80225-4.84033,5.6333-4.84033,10.78857,0,10.92383,7.75342,24.2876,17.28369,29.79004,4.5459,2.625,8.78809,3.06836,11.94336,1.24512,3.12158-1.80225,4.84033-5.6333,4.84033-10.78857,0-10.92383-7.75342-24.2876-17.28369-29.79004-2.70361-1.56104-5.2998-2.3501-7.62354-2.3501Z" style="fill:#030303;"/><path d="m324.72013,448.08271c-.17383,0-.34277-.09082-.43506-.25293-.13672-.23975-.05273-.54492.1875-.68164,3.14844-1.79199,4.88232-5.63184,4.88232-10.81299,0-10.92383-7.75342-24.2876-17.28369-29.79004-4.52393-2.6123-8.75-3.06299-11.90137-1.26953-.23975.13525-.54492.05225-.68164-.1875s-.05273-.54492.1875-.68164c3.47168-1.97607,8.05127-1.52393,12.89551,1.27246,9.80615,5.66162,17.78369,19.41406,17.78369,30.65625,0,5.55615-1.91357,9.70459-5.38818,11.68213-.07764.04443-.1626.06543-.24658.06543Z" style="fill:#030303;"/><path d="m285.06291,413.81855c-.17432,0-.34326-.09082-.43555-.25342-.13623-.24023-.05176-.54541.18848-.68164l15.59814-8.84961c.23926-.13525.54541-.05176.68164.18848s.05176.54541-.18848.68164l-15.59814,8.84961c-.07764.04395-.1626.06494-.24609.06494Z" style="fill:#030303;"/><path d="m309.55314,456.63593c-.17432,0-.34326-.09082-.43555-.25342-.13623-.24023-.05176-.54541.18848-.68164l15.59814-8.84912c.23975-.13525.54492-.05225.68164.18848.13623.24023.05176.54541-.18848.68164l-15.59814,8.84912c-.07764.04395-.1626.06494-.24609.06494Z" style="fill:#030303;"/><path d="m178.41303,402.58331v9.03423s-19.53346-9.76075-19.53346-9.76075l19.52626-9.33566.00249,1.94958,1.07274-.00209-.00419-3.13022-2.79971-1.39959-.4798.9596,1.52229.76134-20.05327,9.58761-19.05058-9.73613,19.36539-10.03598,8.19294,4.0948c-.01748.1024-.03156.20611-.03156.31349.00007,1.02665.83232,1.85896,1.8589,1.8591,1.02652.00013,1.8587-.83218,1.85864-1.85883-.00007-1.02665-.83232-1.85896-1.8589-1.85896-.53238-.00013-1.00923.22654-1.34806.58534l-8.55037-4.27263h-.12578s-.12951,0-.12951,0l-21.37612-.00106v11.07731s0,.20598,0,.20598v20.60011s0,.53323,0,.53323v10.59777s20.73525.00054,20.73525.00054h.26085s22.0183.00054,22.0183.00054v-10.52889s0-.66942,0-.66942v-9.57034s-1.07274,0-1.07274,0Zm-.68461,9.89142l-20.37999,9.74475-19.05058-9.73744,19.36487-10.03493,20.0657,10.02762Zm-40.1843-31.06551l18.23326.00093-18.23326,9.44789v-9.44881Zm0,10.75884l18.94267,9.68139-18.94268,9.81468v-19.49607Zm-.00001,30.11007v-8.97674s17.56365,8.97727,17.56365,8.97727l-17.56365-.00053Zm40.86892.00107l-18.70219-.00053,18.70219-8.94268v8.94322Z" style="fill:#030303;"/><path d="m178.83519,36.18057l-38.70406-.00107c-1.1885,0-2.15543.96693-2.15544,2.15491l-.00002,38.70457c0,1.18798.96693,2.15491,2.15491,2.15491l38.70458.00107c1.18798,0,2.15491-.96693,2.15491-2.15491l.00002-38.70457c0-1.18798-.96693-2.15491-2.15491-2.15491Zm-3.94212,22.69936v-1.58711s-2.0821,0-2.0821,0v-4.89019c-.02069-1.31683.70995-3.75315,1.00157-4.67124h6.10482s0,16.71129,0,16.71129h-3.90388v-4.44182s-1.1204-1.12093-1.1204-1.12093Zm-18.36964-10.7138c-.52956-.6757-1.41635-1.80711-1.27964-3.12603.09376-.90827.41747-1.70549.77522-2.29319l1.3514,3.23498,4.40568-1.79244-1.34459-3.40993c1.28855.31114,2.43986,1.7652,2.65985,2.83795.30485,1.48864-.17233,3.00032-1.38021,4.37372-1.43469,1.63216-1.7034,2.72899-1.69659,4.19563,0,0,.48084,15.87845.62384,20.4376.02043.65999-.12571,1.15655-.43475,1.47607-.36456.37609-.91036.45466-1.30426.45466s-.9397-.07857-1.30426-.45466c-.30904-.31952-.45518-.81608-.43475-1.47607.14352-4.55915.62385-20.4376.62385-20.44283.0309-1.62273-.34152-2.84004-1.26078-4.01545Zm-12.1752,24.84588v-1.82911h1.42421s0-1.07274,0-1.07274h-1.42421v-2.54043h3.17946s0-1.07274,0-1.07274h-3.17946v-2.54043h1.42421s0-1.07274,0-1.07274h-1.42421v-2.54043h3.17946s0-1.07274,0-1.07274h-3.17946v-2.54043h1.42421s0-1.07274,0-1.07274h-1.42421v-2.53938h3.17946s0-1.07274,0-1.07274h-3.17946v-2.54043h1.42421s0-1.07274,0-1.07274h-1.42421v-2.54043h3.17946s0-1.07274,0-1.07274h-3.17946v-1.72749h4.87291s-.00001,29.92046-.00001,29.92046h-4.87291Zm2.94115-30.9932v-4.76631s11.58854.00027,11.58854.00027v2.5073s-.00105.00013-.00105.00013l.00105.00262v.00576s.00223,0,.00223,0l1.50893,3.82793-2.43829.99207-1.61801-3.87297-.56675.59294c-.65842.69037-1.42212,2.00405-1.58973,3.6205-.06462.62594.03791,1.20435.22045,1.72959h-4.10285v-4.63982s-3.00451,0-3.00451,0Zm24.44885,15.274h-1.05807v-4.87343c.02515-1.62483-.8365-4.54239-1.04969-5.23904l.90303-3.55031h.6757s.68356,0,.68356,0l.97007,3.55031c-.23414.71341-1.14974,3.61526-1.1246,5.23066v4.88181Zm-5.16885,2.70804v4.44182h-5.10894c-.17835-5.8477-.37314-12.27367-.37314-12.27367-.00471-1.07379.09481-1.95168,1.42945-3.46965.27493-.31258.50835-.63773.71931-.96798h5.4392c.27427.92582.95279,3.35599.93216,4.67963v4.88181h-1.91816s0,1.58816,0,1.58816l-1.11988,1.11988Zm4.18569-17.44356h-1.05546s-1.04334,4.10135-1.04334,4.10135h-4.85562c.4375-1.06358.56341-2.17351.34145-3.25699-.32384-1.58004-2.12217-3.75053-4.19144-3.7546v-2.39429s10.80441.00027,10.80441.00027v5.30425Zm-20.46118,5.17408h4.61042c.27846.46212.58515.85406.82714,1.16284.71341.91246,1.00674,1.88987.98003,3.26117,0,0-.19466,6.43435-.37288,12.28728h-6.04471s0-16.71129,0-16.71129Zm9.0701,27.85879c.6537-.08171,1.20775-.32868,1.61016-.74379.51856-.53532.76632-1.29378.73646-2.25548-.04622-1.47764-.128-4.14613-.21744-7.07548h5.0762v5.44961s.0969.13933.0969.13933c.65148.93027,2.4504,1.31801,4.08878,1.3865v5.6311s-11.39107-.00027-11.39107-.00027v-2.53152Zm11.92744-4.15791c-1.84482,0-3.19622-.41171-3.64931-.83389v-10.15332s1.11989-1.11988,1.11989-1.11988v-.9596h5.05833v.95856s1.12041,1.12093,1.12041,1.12093v10.15332c-.45309.42218-1.80502.83389-3.64931.83389Zm8.62594-33.09677v8.32317s-6.08518,0-6.08518,0l-1.12021-4.10135h-.88417v-5.30425s7.00739.00027,7.00739.00027c.59661,0,1.08217.48504,1.08217,1.08217Zm-39.78622-1.08324l6.0855.00027v4.76631h-2.94114s0,4.63981,0,4.63981h-4.22706v-8.32422c0-.59713.48557-1.08217,1.0827-1.08217Zm3.14436,27.19042h-4.22706s0-16.71129,0-16.71129h4.22706s0,16.71129,0,16.71129Zm-4.22707,12.59632v-11.52358s4.22707,0,4.22707,0v8.56935s2.94113,0,2.94113,0v4.02278s1.07274,0,1.07274,0v-4.02278h3.00451s0-8.56935,0-8.56935h6.01197c-.08931,2.92961-.17102,5.59785-.21718,7.07548-.03038.9617.21738,1.72016.73646,2.25548.37321.38552.87337.63327,1.46611.73201v2.54331s-18.16065-.00053-18.16065-.00053c-.59661,0-1.08217-.48504-1.08217-1.08217Zm39.78675,1.08324l-7.00739-.00027v-5.6311c1.63832-.06849,3.43685-.45623,4.08878-1.38649l.0969-.13828v-5.45065h3.90388s0,11.52463,0,11.52463c0,.59713-.48556,1.08217-1.08217,1.08217Z" style="fill:#030303;"/><path d="m196.03015.21943l-.00002,43.01439,43.0144.00107.00002-43.01439-43.0144-.00107Zm41.94164,41.94272l-40.86892-.00107.00002-40.86891,40.86892.00107-.00002,40.86891Z" style="fill:#030303;"/><path d="m208.15714,23.43736c-3.95049,0-7.16453,3.21403-7.16453,7.16452,0,3.94945,3.21403,7.16348,7.16452,7.16348,3.94945,0,7.16348-3.21403,7.16348-7.16347,0-3.95049-3.21403-7.16453-7.16348-7.16453Z" style="fill:#030303;"/><path d="m233.29218,5.83039h-13.39983s0,13.39982,0,13.39982h13.39983s0-13.39982,0-13.39982Zm-1.07275,12.32709h-11.25435s0-11.25436,0-11.25436h11.25435s0,11.25436,0,11.25436Z" style="fill:#030303;"/><path d="m234.80805,30.11163l-8.21631-8.21527-8.21632,8.2226,8.21631,8.21527,8.21632-8.2226Zm-8.21631-6.69835l6.69939,6.69835-6.6994,6.70567-6.69939-6.69835,6.6994-6.70567Z" style="fill:#030303;"/><path d="m212.03221,19.24278l3.87507-6.71301-3.87506-6.71197h-7.75118s-3.87507,6.71196-3.87507,6.71196l3.87506,6.71301h7.75118Zm-7.131-12.35224h6.51083s3.25698,5.63923,3.25698,5.63923l-3.25699,5.64027h-6.51083s-3.25698-5.64028-3.25698-5.64028l3.25699-5.63922Z" style="fill:#030303;"/><path d="m77.85452,22.73736l-.00107,43.01439,43.0144.00002.00107-43.01439-43.0144-.00002Zm41.94059,41.94167l-40.86892-.00002.00106-40.86891,40.86892.00002-.00106,40.86891Z" style="fill:#030303;"/><path d="m113.27971,58.16821c-.78884.78884-.78884,2.0677,0,2.85654.78878.78884,2.0677.78884,2.85654,0,.78884-.78884.78884-2.0677,0-2.85654s-2.06776-.78884-2.85654,0Z" style="fill:#030303;"/><path d="m102.60534,47.53377c-4.0032,4.00313-5.92706,9.50721-5.30524,15.13046h1.07896c-.62528-5.33935,1.18641-10.57262,4.98474-14.372,3.81123-3.81011,9.05669-5.61774,14.41241-4.98054v-1.07955c-5.6349-.63773-11.15627,1.28697-15.17087,5.30162Z" style="fill:#030303;"/><path d="m106.15774,51.03589c-3.04472,3.04484-4.44889,7.37509-3.80469,11.62834h1.07759c-.65475-3.96804.64401-8.02722,3.48556-10.86988,2.84037-2.8403,6.89608-4.13801,10.86-3.48771v-1.07693c-4.2467-.63904-8.57649.76317-11.61846,3.80618Z" style="fill:#030303;"/><path d="m109.64625,54.52544c-2.13206,2.13003-2.97178,5.22332-2.25548,8.13879h1.09513c-.74438-2.62528-.00903-5.45353,1.91881-7.38033,1.92464-1.92365,4.75132-2.65906,7.37149-1.92103v-1.09422c-2.91003-.71211-6.00064.12754-8.12996,2.25678Z" style="fill:#030303;"/><path d="m86.85051,26.80912c0-.33209-.04354-.66077-.1098-.98396h-1.09232c.08538.31847.12938.64977.12938.98396,0,2.09101-1.7013,3.79231-3.79231,3.7923-.35023,0-.70032-.04898-1.03922-.14457v1.09317c.34224.0749.68938.12414,1.03922.12414,2.6829,0,4.86505-2.18214,4.86505-4.86504Z" style="fill:#030303;"/><path d="m96.64784,46.94397c-3.24919,4.52405-4.79087,10.07161-4.29857,15.72026h1.07556c-.6076-6.65146,1.74386-13.16648,6.46408-17.88669,4.7214-4.72021,11.23858-7.07704,17.88729-6.4642v-1.07536c-5.61945-.48818-11.14049,1.03135-15.6527,4.24748,3.21705-4.51384,4.73941-10.03782,4.2475-15.66028h-1.07556c.61022,6.65408-1.74151,13.17224-6.46356,17.89429-4.72074,4.72074-11.24205,7.07233-17.88565,6.4642v1.07143c.68997.05998,1.37805.09821,2.06377.09821,4.92201,0,9.66691-1.55908,13.63784-4.40933Z" style="fill:#030303;"/><path d="m96.06728,40.9758c4.00818-4.00811,5.93203-9.52057,5.30361-15.15063h-1.07883c.63216,5.34616-1.17888,10.58781-4.98324,14.39217-3.79571,3.79676-9.03207,5.60648-14.36258,4.98604v1.0785c.68984.07595,1.37805.11838,2.06167.11838,4.886,0,9.54991-1.915,13.05937-5.42446Z" style="fill:#030303;"/><path d="m92.58192,37.44853c3.04262-3.04249,4.44804-7.37169,3.8056-11.62336h-1.07719c.65213,3.96699-.6469,8.02486-3.48687,10.8649-2.84417,2.84423-6.90643,4.14194-10.87722,3.48378v1.08191c.67924.10293,1.35952.16212,2.03653.16212,3.56917,0,7.03882-1.40902,9.59915-3.96934Z" style="fill:#030303;"/><path d="m89.0557,33.95165c2.12722-2.1261,2.96955-5.21442,2.25797-8.12648h-1.08413s-.0089.00236-.0089.00236c.73646,2.62214-.00105,5.44437-1.92339,7.36566-1.91743,1.91946-4.73613,2.65592-7.351,1.92705v1.09291c.66968.16185,1.34688.25692,2.02082.25692,2.25338,0,4.45649-.88522,6.08864-2.51842Z" style="fill:#030303;"/><rect x="157.36857" y="201.60713" width="1" height="172.30615" style="fill:#ff888a;"/><polygon points="153.77856 370.59962 154.51096 369.91749 157.86741 373.52931 161.22485 369.91749 161.95725 370.59962 157.86741 374.9976 153.77856 370.59962" style="fill:#ff888a;"/><rect x="98.86125" y="247.32441" width="1" height="96.48828" style="fill:#ff888a;"/><polygon points="95.27122 340.49919 96.00364 339.81706 99.36009 343.42889 102.71752 339.81706 103.44993 340.4992 99.36009 344.8972 95.27122 340.49919" style="fill:#ff888a;"/><rect x="217.03703" y="47.19794" width="1" height="91.63135" style="fill:#ff888a;"/><polygon points="221.64158 50.51269 220.90891 51.19457 217.55372 47.58159 214.19505 51.19226 213.46285 50.50988 217.55421 46.11329 221.64158 50.51269" style="fill:#ff888a;"/><rect x="158.98258" y="83.633" width="1" height="144.09229" style="fill:#ff888a;"/><polygon points="163.58767 86.94751 162.8551 87.62948 159.49944 84.01693 156.14123 87.62801 155.40896 86.94572 159.49976 82.54862 163.58767 86.94751" style="fill:#ff888a;"/><rect x="98.861" y="70.00459" width="1" height="174.17578" style="fill:#ff888a;"/><polygon points="103.46613 73.31896 102.73359 74.00096 99.3778 70.38852 96.01971 73.99973 95.28742 73.31747 99.37806 68.92023 103.46613 73.31896" style="fill:#ff888a;"/><polygon points="242.05415 195.59829 87.0761 285.07497 87.07601 201.433 242.05406 111.95632 242.05415 195.59829" style="fill:#fff;"/><path d="m87.07609,285.5749c-.08643,0-.17285-.02246-.25-.06689-.15479-.08936-.25-.25439-.25-.43311v-83.64209c0-.17871.09521-.34375.25-.43311l154.97803-89.47656c.1543-.08887.3457-.08887.5,0,.15479.08936.25.25439.25.43311v83.64209c0,.17871-.09521.34375-.25.43311l-154.97803,89.47656c-.07715.04443-.16357.06689-.25.06689Zm.5-83.85352v82.4873l153.97803-88.89893v-82.4873l-153.97803,88.89893Zm154.47803-6.12305h.00977-.00977Z" style="fill:#030303;"/><rect x="91.07478" y="168.07763" width="151.74286" height=".74991" transform="translate(-61.86411 106.05749) rotate(-30.00401)" style="fill:#030303;"/><rect x="109.88665" y="195.95995" width="62.7241" height=".74991" transform="translate(-79.25068 96.94367) rotate(-30.00401)" style="fill:#030303;"/><rect x="109.88652" y="206.48071" width="62.72435" height=".74991" transform="translate(-84.51169 98.35356) rotate(-30.00401)" style="fill:#030303;"/><rect x="109.88665" y="217.00146" width="62.7241" height=".74991" transform="translate(-89.7727 99.76344) rotate(-30.00401)" style="fill:#030303;"/><rect x="110.96559" y="231.54931" width="46.61602" height=".74991" transform="translate(-97.98224 98.22502) rotate(-30.00401)" style="fill:#030303;"/><path d="m95.9672,214.47627c-.18066,0-.35059-.04297-.50049-.12988-.34229-.19727-.53857-.59766-.53857-1.09814v-2.01465c0-.20752-.05176-.36768-.14209-.43945-.06104-.04834-.1499-.05908-.26465-.03369l-1.26367.29053-.33838-.64062,1.26367-1.16846c.43848-.40576.74512-1.04834.74512-1.5625v-2.01514c0-.89844.61328-1.95605,1.39648-2.4082l.72705-.41992.375.64941-.72705.41992c-.55371.31982-1.02148,1.125-1.02148,1.75879v2.01514c0,.71826-.39648,1.56738-.98633,2.11328l-.23535.21777c.29932-.04443.58008.02393.79688.19727.27393.21777.4248.58252.4248,1.02588v2.01465c0,.22168.06104.38965.16357.44873.104.06006.28467.0293.48291-.08545l.72705-.41992.375.64941-.72705.41992c-.24756.14307-.49902.21533-.73242.21533Z" style="fill:#030303;"/><path d="m94.05265,274.23408l-.375-.64941.72656-.41992c.55371-.31934,1.02148-1.125,1.02148-1.75879v-2.01514c0-.71875.39648-1.56787.98682-2.11328l.23535-.21777c-.2998.04297-.58008-.02393-.79736-.19727-.27393-.21826-.4248-.58203-.4248-1.02539v-2.01514c0-.22217-.06104-.38965-.16357-.44873-.10498-.06201-.28613-.0293-.48291.08545l-.72656.41992-.375-.64941.72656-.41992c.43896-.25293.8877-.28564,1.2334-.08545.3418.19727.53809.59766.53809,1.09814v2.01514c0,.20703.05176.3667.14209.43848.06104.04883.15234.05957.26514.03369l1.26318-.29004.33887.64062-1.26318,1.16846c-.43945.40576-.74609,1.04834-.74609,1.5625v2.01514c0,.89893-.61328,1.95654-1.39648,2.4082l-.72656.41992Z" style="fill:#030303;"/><ellipse cx="158.31372" cy="217.63464" rx="1.29325" ry=".74662" transform="translate(-109.49288 244.23715) rotate(-59.63963)" style="fill:#030303;"/><ellipse cx="163.0861" cy="214.8793" rx="1.29325" ry=".74662" transform="translate(-104.75516 246.99238) rotate(-59.63963)" style="fill:#030303;"/><ellipse cx="167.85848" cy="212.12397" rx="1.29325" ry=".74662" transform="translate(-100.01744 249.74761) rotate(-59.63963)" style="fill:#030303;"/><path d="m297.88029,204.95869c-1.51074,0-3.19092-.49609-4.9082-1.48779-5.83252-3.36768-10.57764-11.54785-10.57764-18.23535,0-3.89697,1.56982-6.62939,4.30957-7.50879l7.99707-4.68848c2.1167-1.20605,4.88672-.93896,7.80566.74707h0c5.83301,3.36719,10.57812,11.54785,10.57812,18.23535,0,3.3501-1.16406,5.85742-3.27783,7.06006l-8.55908,4.82715c-.9502.70068-2.09912,1.05078-3.36768,1.05078Zm-.26074-31.66406c-.88721,0-1.70264.20215-2.41797.60938l-8.04053,4.71387c-.0332.01953-.06836.03516-.10498.04639-2.32715.72119-3.66162,3.11621-3.66162,6.57129,0,6.36914,4.521,14.16113,10.07764,17.36914,2.79736,1.61523,5.43164,1.78613,7.22754.46924.00439-.00293.00879-.00635.0127-.00928.11182-.08252.22021-.1709.3252-.26465.02734-.0249.05762-.04639.09033-.06445l8.44287-4.70117c.02588-.01465.05322-.02637.08057-.03564,1.57227-1.09229,2.43359-3.19531,2.43359-5.97803,0-6.36914-4.521-14.16113-10.07812-17.36914h0c-1.56006-.90088-3.05469-1.35693-4.38721-1.35693Z" style="fill:#030303;"/><path d="m302.2569,174.21827c-2.85202-1.64663-5.43404-1.81218-7.30307-.74873l-8.04566,4.71725c-2.44077.75631-4.01393,3.23677-4.01394,7.04861,0,6.53879,4.62402,14.5092,10.32806,17.80244,3.10432,1.79228,5.88663,1.82642,7.77989.43436l8.55775-4.82621c1.86899-1.06345,3.02502-3.3559,3.02502-6.6253,0-6.53878-4.62402-14.5092-10.32806-17.80243Zm-1.24759,29.24863c.12454-.09194.24521-.18998.36187-.29423l8.44292-4.70106-8.80478,4.99528Z" style="fill:#fff;"/><path d="m297.86173,204.83711c-1.48682,0-3.12988-.49463-4.82715-1.47461-5.79785-3.34766-10.51514-11.479-10.51514-18.12695,0-3.28613,1.13135-5.74902,3.18604-6.93506,2.07373-1.19727,4.81055-.93701,7.7041.7334,5.79834,3.34766,10.51562,11.47998,10.51562,18.12744,0,3.28564-1.13135,5.74854-3.18604,6.93457-.85791.49561-1.8291.74121-2.87744.74121Zm-9.27686-26.52686c-.91895,0-1.76367.21191-2.50439.63965-1.81299,1.04688-2.81104,3.27881-2.81104,6.28564,0,6.40918,4.54883,14.24951,10.14014,17.47754,2.65088,1.52979,5.12158,1.79102,6.95459.7334,1.81299-1.04639,2.81104-3.27881,2.81104-6.28516,0-6.40869-4.54883-14.24951-10.14062-17.47803-1.58008-.91211-3.09521-1.37305-4.44971-1.37305Z" style="fill:#030303;"/><path d="m309.56046,199.02119c-.13037,0-.25732-.06787-.32666-.18945-.10205-.18018-.03906-.40918.14062-.51172,1.82861-1.04004,2.83545-3.27734,2.83545-6.29932,0-6.40918-4.54883-14.24951-10.14062-17.47754-2.63867-1.52393-5.1001-1.78955-6.92969-.74805-.18164.10352-.40967.03955-.51123-.14014-.10254-.18018-.04004-.40918.14014-.51123,2.0708-1.17969,4.79639-.91357,7.67578.75,5.79834,3.34717,10.51562,11.479,10.51562,18.12695,0,3.30322-1.1416,5.77197-3.21436,6.95166-.05859.0332-.12256.04883-.18506.04883Z" style="fill:#030303;"/><path d="m286.20109,178.83808c-.13086,0-.25781-.06836-.32666-.18994-.10205-.18018-.03906-.40918.14111-.51123l9.1875-5.2124c.18115-.10254.40869-.03857.51123.14111.10205.18018.03906.40918-.14111.51123l-9.1875,5.2124c-.05859.0332-.12207.04883-.18457.04883Z" style="fill:#030303;"/><path d="m300.62687,204.05927c-.13086,0-.25781-.06836-.32666-.18994-.10205-.18018-.03906-.40918.14111-.51123l9.1875-5.21289c.18018-.10352.40918-.03906.51123.14111s.03906.40918-.14111.51123l-9.1875,5.21289c-.05859.0332-.12207.04883-.18457.04883Z" style="fill:#030303;"/><polyline points="246.80448 261.91582 217.44465 244.9649 217.4447 177.16132 276.16439 143.25957 305.52421 160.21049" style="fill:#fff;"/><path d="m246.80412,262.29072c-.06348,0-.12793-.01611-.18701-.05029l-29.35986-16.95068c-.11621-.06689-.1875-.19092-.1875-.32471v-67.80371c0-.13379.07129-.25781.1875-.32471l58.71973-33.90186c.11621-.06738.25879-.06738.375,0l29.35986,16.95117c.1792.10352.24072.33301.13721.51221-.10352.17822-.33252.2417-.51221.13721l-29.17236-16.84277-58.34473,33.68506v67.37109l29.17236,16.84229c.1792.10352.24072.33301.13721.51221-.06934.12012-.19531.1875-.3252.1875Z" style="fill:#030303;"/><path d="m246.80412,194.48701c-.06348,0-.12793-.01611-.18701-.05029l-29.35986-16.95068c-.1792-.10352-.24072-.33301-.13721-.51221.10303-.17822.33154-.24219.51221-.13721l29.35986,16.95068c.1792.10352.24072.33301.13721.51221-.06934.12012-.19531.1875-.3252.1875Z" style="fill:#030303;"/><polygon points="246.80452 194.11224 246.80448 261.91582 305.52417 228.01407 305.52421 160.21049 246.80452 194.11224" style="fill:#fff;"/><path d="m246.8046,262.41572c-.08643,0-.17285-.02246-.25-.06689-.15479-.08936-.25-.25439-.25-.43311v-67.80371c0-.17871.09521-.34375.25-.43311l58.71973-33.90137c.1543-.08887.3457-.08887.5,0,.15479.08936.25.25439.25.43311v67.80322c0,.17871-.09521.34375-.25.43311l-58.71973,33.90186c-.07715.04443-.16357.06689-.25.06689Zm.5-68.01514v66.64893l57.71973-33.32422v-66.64844l-57.71973,33.32373Z" style="fill:#030303;"/><polygon points="305.52421 160.21049 246.80452 194.11224 217.4447 177.16132 276.16439 143.25957 305.52421 160.21049" style="fill:#030303;"/><path d="m226.63126,235.71113c-1.51025,0-3.19043-.49609-4.90771-1.4873-5.83301-3.36768-10.57812-11.54834-10.57812-18.23584,0-3.89697,1.56982-6.62939,4.31006-7.5083l7.99658-4.68848c2.11719-1.20459,4.88818-.9375,7.80615.74658h0c5.83301,3.36768,10.57812,11.54834,10.57812,18.23535,0,3.3501-1.16406,5.85693-3.27783,7.06006l-8.55957,4.82715c-.9502.70068-2.09863,1.05078-3.36768,1.05078Zm-.26025-31.66357c-.8877,0-1.70312.20215-2.41895.60938l-8.03955,4.71387c-.0332.01953-.06836.03516-.10498.04639-2.32715.7207-3.66211,3.11572-3.66211,6.5708,0,6.36914,4.521,14.16113,10.07812,17.36963,2.80029,1.6167,5.4375,1.78516,7.2334.46436l.00098-.00049.00586-.00439c.1123-.08301.2207-.17139.32617-.26465.02734-.02441.05713-.0459.08936-.06396l8.44287-4.70117c.02539-.01416.05225-.02588.0791-.03516,1.57324-1.09229,2.43506-3.1958,2.43506-5.979,0-6.36865-4.52148-14.16016-10.07812-17.36914h0c-1.55957-.90039-3.05469-1.35645-4.38721-1.35645Z" style="fill:#030303;"/><path d="m231.00823,204.9709c-2.85202-1.64663-5.43404-1.81218-7.30307-.74873l-8.04566,4.71725c-2.44077.75631-4.01393,3.23677-4.01394,7.04861,0,6.53879,4.62402,14.5092,10.32806,17.80244,3.10432,1.79228,5.88663,1.82642,7.77989.43436l8.55775-4.82621c1.86899-1.06345,3.02502-3.3559,3.02502-6.6253,0-6.53878-4.62402-14.5092-10.32806-17.80243Zm-1.24759,29.24863c.12454-.09194.24521-.18998.36187-.29423l8.44292-4.70106-8.80478,4.99528Z" style="fill:#fff;"/><ellipse cx="221.97365" cy="221.95097" rx="8.40204" ry="14.55353" transform="translate(-81.74167 142.63175) rotate(-30.36046)" style="fill:#030303;"/><path d="m238.31193,229.77363c-.13037,0-.25732-.06787-.32617-.18945-.10254-.18018-.03955-.40918.14014-.51123,1.82861-1.04102,2.83545-3.27783,2.83545-6.2998,0-6.40869-4.54883-14.24902-10.14062-17.47754-2.6377-1.52295-5.09961-1.78955-6.93018-.74707-.18213.10254-.40918.03857-.51172-.14062-.10205-.18018-.03906-.40918.14062-.51172,2.07129-1.17871,4.79834-.91211,7.67627.75,5.79834,3.34766,10.51562,11.47949,10.51562,18.12695,0,3.30322-1.1416,5.77148-3.21436,6.95117-.05859.03369-.12256.04932-.18506.04932Z" style="fill:#030303;"/><path d="m214.95207,209.59101c-.13086,0-.25781-.06836-.32666-.18994-.10205-.18018-.03906-.40918.14111-.51123l9.18799-5.21289c.18115-.10352.40869-.03906.51123.14111.10205.18018.03906.40918-.14111.51123l-9.18799,5.21289c-.05859.0332-.12207.04883-.18457.04883Z" style="fill:#030303;"/><path d="m229.37785,234.81172c-.13086,0-.25781-.06836-.32666-.18994-.10205-.18018-.03906-.40918.14111-.51123l9.18799-5.2124c.18018-.10352.40918-.03906.51123.14111s.03906.40918-.14111.51123l-9.18799,5.2124c-.05859.0332-.12207.04883-.18457.04883Z" style="fill:#030303;"/><path d="m263.28703,240.53291c-.31885,0-.62109-.07861-.89502-.23682-.71143-.41064-1.11963-1.30957-1.11963-2.4668,0-2.04248,1.21436-4.34326,2.76465-5.23828l30.07129-17.36182c.7666-.44189,1.52783-.48877,2.146-.13232.71143.41064,1.11914,1.30957,1.11914,2.4668,0,2.04248-1.21484,4.34326-2.76514,5.23828l-30.07129,17.36133c-.42578.24609-.85059.36963-1.25.36963Zm32.06836-24.67334c-.26904,0-.53857.11572-.74707.23584l-30.07129,17.36182c-1.22754.7085-2.26465,2.71094-2.26465,4.37207,0,.77832.23145,1.37695.61963,1.60059.37793.21875.83057.04883,1.14502-.13281l30.07129-17.36133h0c1.22803-.7085,2.26514-2.71094,2.26514-4.37207,0-.77832-.23145-1.37695-.61914-1.60107-.12744-.07324-.26318-.10303-.39893-.10303Z" style="fill:#030303;"/><rect x="326.53859" y="173.84904" width=".9998" height="81.93952" transform="translate(-22.79835 390.07711) rotate(-59.90891)" style="fill:#ff888a;"/><polygon points="292.40644 199.47761 293.36387 199.1859 291.92164 194.47093 296.73002 193.37686 296.50706 192.40115 290.65122 193.73476 292.40644 199.47761" style="fill:#ff888a;"/><rect x="295.01466" y="193.09708" width="1.00029" height="75.90047" transform="translate(-52.57588 370.84979) rotate(-59.90167)" style="fill:#ff888a;"/><polygon points="263.49732 217.21572 264.45478 216.92414 263.01316 212.20899 267.82169 211.11553 267.59882 210.13978 261.74284 211.47266 263.49732 217.21572" style="fill:#ff888a;"/><path d="m351.36957,247.86541l.00624-.01097-8.89438-5.12424c-2.28912-1.31273-5.45678-1.11423-8.95661.9064-6.9819,4.03095-12.64174,13.78684-12.64175,21.79042,0,3.96418,1.38851,6.75493,3.63839,8.07236h-.0063s8.77126,5.04544,8.77126,5.04544c.14082.089.28502.17193.43277.24892l.10759.0619.00286-.00496c2.25927,1.11815,5.29276.8523,8.63052-1.07472,6.98092-4.0304,12.64013-13.78498,12.64015-21.78747,0-4.01749-1.42696-6.82857-3.73074-8.12309Z" style="fill:#fff;"/><path d="m336.7841,280.01142c-1.1167,0-2.16309-.2251-3.10791-.6792-.03418-.01025-.06738-.0249-.09961-.04346l-.10742-.06201c-.14111-.07275-.29785-.16309-.45068-.26025l-8.75293-5.03369c-.01855-.01074-.03613-.02246-.05273-.03516-2.47021-1.479-3.82959-4.48389-3.82959-8.4707,0-8.1499,5.7832-18.11914,12.8916-22.22363,3.54688-2.04688,6.90479-2.37012,9.45508-.90674l8.89551,5.125c.03223.01855.0625.04053.08936.06543,2.50684,1.46631,3.88574,4.47949,3.88574,8.50146,0,8.14893-5.78271,18.11719-12.89014,22.2207-2.07178,1.1958-4.09375,1.80225-5.92627,1.80225Zm-2.77393-1.62695c.01367.00537.02734.01123.04102.01807,2.19482,1.08691,5.09326.71143,8.15918-1.05957,6.83203-3.94434,12.39014-13.52393,12.39014-21.35449,0-3.69775-1.23438-6.42773-3.47607-7.68701-.03418-.01953-.06592-.04248-.09424-.06885l-8.79834-5.06934c-2.22705-1.27686-5.23193-.95605-8.45703.90625-6.83252,3.94482-12.3916,13.52588-12.3916,21.35742,0,3.64697,1.2041,6.36035,3.39062,7.64062.01562.00928.03027.01855.04395.0293l8.71826,5.01416c.14697.09326.27832.16895.41309.23877l.06104.03467Z" style="fill:#030303;"/><path d="m351.37581,247.85445l-8.89435-5.12425c-2.28908-1.31273-5.45677-1.11423-8.95663.9064-6.98185,4.03096-12.64171,13.78685-12.64173,21.79041,0,3.96418,1.38848,6.75494,3.63839,8.07236h-.00631s9.31166,5.35628,9.31166,5.35628" style="fill:#fff;"/><path d="m333.64005,279.18086l-9.31201-5.35645c-.01562-.00928-.03076-.01953-.04443-.03027-2.43506-1.4541-3.77539-4.42285-3.77539-8.36719,0-8.10986,5.75488-18.03076,12.8291-22.11523,3.50586-2.02441,6.81934-2.34619,9.33057-.90674l8.89502,5.125-.37402.64941-8.89453-5.12451c-2.26807-1.2998-5.31641-.97949-8.58203.90625-6.86719,3.96484-12.4541,13.59473-12.4541,21.46582,0,3.69336,1.22607,6.44482,3.45264,7.74854.01318.00781.02637.0166.03809.02588l9.26514,5.3291-.37402.65039Z" style="fill:#030303;"/><path d="m337.99503,270.84931c-.65283,0-1.25928-.15479-1.79785-.46533-1.2749-.73584-1.97705-2.2417-1.97754-4.24023-.00049-3.91943,2.77881-8.71436,6.1958-10.68799,1.7583-1.01514,3.43408-1.16504,4.72021-.42334,1.2749.73584,1.97705,2.2417,1.97754,4.24072.00049,3.91895-2.77881,8.71387-6.1958,10.68799-1.02197.59033-2.01611.88818-2.92236.88818Zm5.33984-15.28076c-.729,0-1.55322.25293-2.41943.75342-3.14111,1.81445-5.69629,6.22021-5.6958,9.82178,0,1.62598.5249,2.82422,1.47754,3.37402.96289.55664,2.28467.40527,3.72021-.42285,3.14111-1.81445,5.69629-6.2207,5.6958-9.82178,0-1.62646-.5249-2.82471-1.47754-3.37451-.38232-.2207-.8208-.33008-1.30078-.33008Z" style="fill:#030303;"/><path d="m342.46026,248.79646c-6.98091,4.03041-12.64,13.78498-12.64002,21.78746-.00002,8.00246,5.65904,11.22244,12.63995,7.19206,6.98091-4.03041,12.6401-13.78498,12.64012-21.78746.00002-8.00248-5.65914-11.22247-12.64005-7.19206Zm-.00032,26.67222c-5.86875,3.38829-10.62625.68126-10.62613-6.04629.00002-6.72755,4.7576-14.92806,10.62635-18.31632,5.8687-3.38827,10.6262-.68126,10.62613,6.04629-.00007,6.72755-4.7576,14.92806-10.62635,18.31632Z" style="fill:#fff;"/><path d="m336.78214,280.01924c-1.29053,0-2.48584-.30273-3.54248-.9126-2.52734-1.45947-3.91943-4.48633-3.91943-8.52295,0-8.14844,5.7832-18.11621,12.89014-22.22021h0c3.55518-2.05225,6.91895-2.37109,9.4707-.89795,2.52734,1.45947,3.91943,4.48633,3.91943,8.52295,0,8.14893-5.78271,18.11719-12.89014,22.2207-2.0835,1.20264-4.10156,1.81006-5.92822,1.81006Zm11.354-32.46533c-1.65088,0-3.49805.56299-5.42578,1.67578h0c-6.83203,3.94434-12.39014,13.52344-12.39014,21.354,0,3.66455,1.21436,6.38379,3.41943,7.65674,2.22998,1.28809,5.23779.96875,8.4707-.89746,6.83203-3.94434,12.39014-13.52393,12.39014-21.35449,0-3.66455-1.21436-6.38379-3.41943-7.65674-.90039-.51953-1.92773-.77783-3.04492-.77783Zm-10.45068,29.88037c-1.09814,0-2.11621-.25781-3.0166-.77783-2.15039-1.2417-3.33496-3.81055-3.33496-7.23389,0-6.87646,4.87939-15.28711,10.87646-18.74951,3.01318-1.74023,5.87109-2.00879,8.04102-.75439,2.15039,1.2417,3.33496,3.81055,3.33496,7.23389,0,6.87549-4.87988,15.28613-10.87646,18.74902h0c-1.76416,1.01855-3.47412,1.53271-5.02441,1.53271Zm9.5459-27.29297c-1.37354,0-2.91309.46973-4.521,1.39795-5.72168,3.30273-10.37646,11.3252-10.37646,17.8833,0,3.05078,1.00684,5.3125,2.83496,6.36768,1.84766,1.06592,4.34912.7998,7.04102-.75488h0c5.72168-3.30322,10.37646-11.3252,10.37646-17.88281,0-3.05078-1.00684-5.3125-2.83496-6.36768-.74414-.43018-1.59473-.64355-2.52002-.64355Z" style="fill:#030303;"/><path d="m340.58634,257.69026c-.74128.42823-1.43864,1.04384-2.05102,1.76977.83565-.48258,1.51302-.09707,1.51315.86115.00014.9583-.67715,2.12649-1.5128,2.60923-.83565.48274-1.51323.09724-1.51337-.86106-.00001-.08551.01149-.17409.02191-.2623-.52982,1.13795-.84625,2.34271-.84609,3.4518.0004,2.77972,1.96571,3.89802,4.38966,2.49774,2.42395-1.40028,4.38869-4.7889,4.38829-7.56862-.0004-2.77976-1.96578-3.89798-4.38974-2.4977Z" style="fill:#030303;"/><path d="m386.06792,227.46376l.00624-.01097-8.89438-5.12424c-2.28912-1.31273-5.45678-1.11423-8.95661.9064-6.9819,4.03095-12.64174,13.78684-12.64175,21.79042,0,3.96418,1.38851,6.75493,3.63839,8.07236h-.0063s8.77126,5.04544,8.77126,5.04544c.14082.089.28502.17193.43277.24892l.10759.0619.00286-.00496c2.25927,1.11815,5.29276.8523,8.63052-1.07472,6.98092-4.0304,12.64013-13.78498,12.64015-21.78747,0-4.01749-1.42696-6.82857-3.73074-8.12309Z" style="fill:#fff;"/><path d="m371.48283,259.60957c-1.1167.00049-2.1626-.22461-3.10791-.6792-.0332-.01025-.06592-.02441-.09717-.04199l-.10791-.06152c-.14355-.0752-.30029-.16455-.45215-.26074l-8.75391-5.03467c-.01855-.01074-.03613-.02246-.05273-.03516-2.47021-1.47949-3.82959-4.48438-3.82959-8.4707,0-8.15039,5.7832-18.11963,12.8916-22.22363,3.5459-2.04688,6.90332-2.37061,9.45508-.90723l8.89551,5.125c.03223.01855.0625.04053.08936.06543,2.50684,1.4668,3.88574,4.47998,3.88574,8.50146,0,8.14893-5.78271,18.11719-12.89014,22.2207-2.07178,1.1958-4.09326,1.80225-5.92578,1.80225Zm-2.77588-1.62744c.01465.00537.02881.01172.04297.01855,2.19482,1.0874,5.09326.71094,8.15869-1.05957,6.83203-3.94434,12.39014-13.52393,12.39014-21.35449,0-3.69727-1.23438-6.42725-3.47607-7.68701-.03418-.01953-.06592-.04248-.09424-.06885l-8.79834-5.06934c-2.22852-1.27637-5.23242-.95508-8.45703.90674-6.83252,3.94434-12.3916,13.52539-12.3916,21.35742,0,3.64648,1.2041,6.36035,3.39062,7.64062.01562.00928.03027.01855.04395.0293l8.71826,5.01416c.14697.09277.2793.16895.41504.23975l.05762.03271Z" style="fill:#030303;"/><path d="m386.07416,227.4528l-8.89435-5.12425c-2.28908-1.31273-5.45677-1.11423-8.95663.9064-6.98185,4.03096-12.64171,13.78685-12.64173,21.79041,0,3.96418,1.38848,6.75494,3.63839,8.07236h-.00631s9.31166,5.35628,9.31166,5.35628" style="fill:#fff;"/><path d="m368.3383,258.779l-9.31201-5.35596c-.01562-.00928-.03076-.01953-.04492-.03027-2.43457-1.45459-3.7749-4.42334-3.7749-8.36719,0-8.11035,5.75488-18.03125,12.8291-22.11523,3.50635-2.02441,6.8208-2.34717,9.33057-.90723l8.89502,5.125-.37402.64941-8.89453-5.12451c-2.26855-1.29932-5.31543-.97852-8.58203.90674-6.86719,3.96436-12.4541,13.59424-12.4541,21.46582,0,3.69287,1.22607,6.44482,3.45264,7.74854.01318.00781.02588.0166.03809.02588l9.26514,5.32861-.37402.65039Z" style="fill:#030303;"/><path d="m372.69279,250.44746c-.65234,0-1.2583-.1543-1.79688-.46484-1.2749-.73584-1.97705-2.2417-1.97754-4.24072-.00098-3.91895,2.77832-8.71338,6.19531-10.68799,1.75781-1.01416,3.43555-1.16357,4.72021-.42285,1.2749.73584,1.97705,2.2417,1.97754,4.24023.00049,3.91992-2.77881,8.71436-6.1958,10.68799-1.02197.59033-2.0166.88818-2.92285.88818Zm5.34033-15.28076c-.729,0-1.55371.25342-2.41943.75342-3.14111,1.81494-5.69629,6.2207-5.69531,9.82178,0,1.62646.5249,2.8252,1.47754,3.37451.96387.55518,2.28418.40576,3.71973-.42334,3.14111-1.81396,5.69629-6.22021,5.6958-9.82178,0-1.62598-.5249-2.82422-1.47705-3.37402-.38281-.2207-.82129-.33057-1.30127-.33057Z" style="fill:#030303;"/><path d="m377.15861,228.3948c-6.98091,4.03041-12.64,13.78498-12.64002,21.78746-.00002,8.00246,5.65904,11.22244,12.63995,7.19206,6.98091-4.03041,12.6401-13.78498,12.64012-21.78746.00002-8.00248-5.65914-11.22247-12.64005-7.19206Zm-.00032,26.67222c-5.86875,3.38829-10.62625.68126-10.62613-6.04629.00002-6.72755,4.7576-14.92806,10.62635-18.31632,5.8687-3.38827,10.6262-.68126,10.62613,6.04629-.00007,6.72755-4.7576,14.92806-10.62635,18.31632Z" style="fill:#fff;"/><path d="m371.4799,259.61738c-1.29053,0-2.48535-.30273-3.54199-.9126-2.52734-1.45947-3.91943-4.48584-3.91943-8.52246,0-8.14893,5.78271-18.11719,12.89014-22.2207,3.55566-2.05225,6.91846-2.37061,9.4707-.89746,2.52734,1.45947,3.91943,4.48633,3.91943,8.52295,0,8.14893-5.78271,18.1167-12.89014,22.22021-2.0835,1.20264-4.10156,1.81006-5.92871,1.81006Zm11.354-32.46484c-1.65039,0-3.49805.5625-5.42529,1.67529-6.83203,3.94434-12.39014,13.52393-12.39014,21.35449,0,3.66406,1.21436,6.3833,3.41943,7.65625,2.23145,1.28906,5.23926.96826,8.4707-.89746,6.83203-3.94434,12.39014-13.52344,12.39014-21.354,0-3.66455-1.21436-6.38379-3.41943-7.65674-.90039-.52002-1.92773-.77783-3.04541-.77783Zm-10.44971,29.88037c-1.09863,0-2.1167-.2583-3.01709-.77832-2.15039-1.2417-3.33496-3.81055-3.33496-7.23389,0-6.87598,4.87939-15.28711,10.87646-18.74951,3.01367-1.73975,5.87061-2.00781,8.04102-.75439,2.15039,1.2417,3.33496,3.81055,3.33496,7.23389,0,6.87598-4.87988,15.28662-10.87646,18.74951h0c-1.76367,1.01807-3.47412,1.53271-5.02393,1.53271Zm9.54541-27.29346c-1.37354,0-2.91309.46973-4.521,1.39795-5.72168,3.30322-10.37646,11.32568-10.37646,17.8833,0,3.05078,1.00684,5.3125,2.83496,6.36768,1.84814,1.06885,4.34912.80029,7.04102-.75439h0c5.72168-3.30273,10.37646-11.3252,10.37646-17.8833,0-3.05078-1.00684-5.3125-2.83496-6.36768-.74414-.43018-1.59473-.64355-2.52002-.64355Z" style="fill:#030303;"/><path d="m375.28469,237.28861c-.74128.42823-1.43864,1.04384-2.05102,1.76977.83565-.48258,1.51302-.09707,1.51315.86115.00014.9583-.67715,2.12649-1.5128,2.60923-.83565.48274-1.51323.09724-1.51337-.86106-.00001-.08551.01149-.17409.02191-.2623-.52982,1.13795-.84625,2.34271-.84609,3.4518.0004,2.77972,1.96571,3.89802,4.38966,2.49774s4.38869-4.7889,4.38829-7.56862c-.0004-2.77976-1.96578-3.89798-4.38974-2.4977Z" style="fill:#030303;"/><path d="m349.87656,155.69846v43.0155l43.0155.00105v-43.0155l-43.0155-.00105Zm41.94273,41.94378l-40.86996-.00105v-40.86996l40.86996.00105v40.86996Z" style="fill:#030303;"/><polygon points="387.70422 194.01326 387.70422 161.24354 365.50085 161.24354 365.50085 171.80884 354.9345 171.80884 354.9345 194.01326 387.70422 194.01326" style="fill:#030303;"/><path d="m120.86908,348.71088l-43.0155-.00105v43.0155l8.03666.00026c.05703.02056.11668.0364.18091.0364.06417,0,.12388-.01585.18091-.0364l34.61701.00079v-43.0155Zm-1.07277,41.94273l-33.18877-.00079v-28.89168c0-3.36812,2.74059-6.1087,6.1087-6.1087s6.1087,2.74059,6.1087,6.1087v16.91286c0,3.96002,3.2225,7.18147,7.18252,7.18147h.0021c1.91715,0,3.72012-.74696,5.07575-2.10258,1.35667-1.35667,2.10363-3.16069,2.10363-5.07889v-16.18057l1.23181,1.68013h1.28648l-3.05474-4.09936-3.05501,4.09936h1.26173l1.25695-1.69047v16.19092c0,1.6322-.63591,3.16592-1.78934,4.32041-1.15344,1.15344-2.68611,1.7883-4.31726,1.7883h-.0021c-3.36916,0-6.10975-2.74059-6.10975-6.1087v-16.91286c0-3.96002-3.22145-7.18147-7.18147-7.18147s-7.18147,3.22145-7.18147,7.18147v28.89168l-6.60842-.00026v-40.86996l40.86996.00105v40.86996Z" style="fill:#030303;"/><path d="m106.00707,380.71374c1.11559,0,2.01995-.90436,2.01995-2.01982,0-1.11559-.90436-2.01995-2.01995-2.01995-1.11552,0-2.01989.90436-2.01989,2.01995s.90436,2.01982,2.01989,2.01982Z" style="fill:#030303;"/><path d="m92.71637,359.72168c-1.11552,0-2.01989.90436-2.01989,2.02008,0,1.11546.90436,2.01982,2.01989,2.01982,1.11559,0,2.01995-.90436,2.01995-2.01995s-.90436-2.01995-2.01995-2.01995Z" style="fill:#030303;"/></g></g></svg>