<?xml version="1.0" encoding="UTF-8"?><svg id="Layer_1" xmlns="http://www.w3.org/2000/svg" viewBox="0 0 350 350"><polygon points="152.70272 203.03884 141.48816 194.69977 152.70333 186.47702 152.70363 180.49462 133.63991 194.69977 152.70241 208.90675 152.70272 203.03884"/><polygon points="208.51184 194.69977 197.29728 203.03884 197.29759 208.90675 216.36009 194.69977 197.29637 180.49462 197.29667 186.47702 208.51184 194.69977"/><path d="m74.98969,74.97995l-.00731,200.03523,200.03036.00487.00487-200.03523-200.02792-.00487Zm195.03447,195.05152l-190.0532-.00487.00579-147.4554h190.05107l-.00365,147.46027Zm.00396-152.44885H79.97675l.00152-37.61409,190.05076.00487-.00091,37.60921Z"/><path d="m250.03452,143.49985H99.96548v104.57992h150.06905v-104.57992Zm-4.98858,99.59134H104.95406v-94.60276h140.09189v94.60276Z"/><path d="m100.22641,107.86914c5.31559,0,9.62488-4.30898,9.62488-9.62457,0-5.3162-4.30929-9.62518-9.62488-9.62518s-9.62457,4.30898-9.62457,9.62518c0,5.31559,4.30898,9.62457,9.62457,9.62457Zm0-14.26118c2.5564,0,4.6363,2.0802,4.6363,4.6366s-2.07989,4.63599-4.6363,4.63599-4.63599-2.07959-4.63599-4.63599,2.07959-4.6366,4.63599-4.6366Z"/><path d="m127.8265,107.86914c5.31559,0,9.62457-4.30898,9.62457-9.62457,0-5.3162-4.30898-9.62518-9.62457-9.62518s-9.62488,4.30898-9.62488,9.62518c0,5.31559,4.30929,9.62457,9.62488,9.62457Zm0-14.26118c2.5564,0,4.63599,2.0802,4.63599,4.6366s-2.07959,4.63599-4.63599,4.63599-4.6363-2.07959-4.6363-4.63599,2.07989-4.6366,4.6363-4.6366Z"/><path d="m155.42628,107.86914c5.31559,0,9.62488-4.30898,9.62488-9.62457,0-5.3162-4.30929-9.62518-9.62488-9.62518s-9.62457,4.30898-9.62457,9.62518c0,5.31559,4.30898,9.62457,9.62457,9.62457Zm0-14.26118c2.5564,0,4.6363,2.0802,4.6363,4.6366s-2.07989,4.63599-4.6363,4.63599-4.63599-2.07959-4.63599-4.63599,2.07959-4.6366,4.63599-4.6366Z"/><rect x="147.30666" y="191.99851" width="58.07584" height="4.99087" transform="translate(-71.38086 281.42733) rotate(-67.13922)"/></svg>