<?xml version="1.0" encoding="UTF-8"?><svg id="outlines" xmlns="http://www.w3.org/2000/svg" viewBox="0 0 682.56599 820.12378"><polygon points="430.66701 565.8665 7.25251 810.32506 7.25244 373.61329 430.66694 129.15473 430.66701 565.8665"/><path d="m7.25269,811.82549c-.25879,0-.51807-.06738-.75-.20117-.46387-.26758-.75-.7627-.75-1.29883l-.00049-436.71191c0-.53613.28564-1.03125.75-1.29883L429.91675,127.85576c.46484-.26855,1.03516-.26855,1.5,0,.46387.26758.75.76318.75,1.29883v436.71191c0,.53613-.28613,1.03125-.75,1.29883L8.00269,811.62431c-.23193.13379-.49121.20117-.75.20117Zm1.49951-437.3457l.00049,433.24805,420.41406-242.72754V131.75273L8.7522,374.47978Z"/><polygon points="438.60906 571.84075 18.11901 814.61076 18.11901 380.91534 438.60906 138.14533 438.60906 571.84075" style="fill:#fff;"/><path d="m439.44393,572.31547L17.28438,816.04937v-435.6092s422.15955-243.7339,422.15955-243.7339v435.6092ZM18.95386,813.17171l418.8206-241.80616V139.58393S18.95386,381.39009,18.95386,381.39009v431.78162Z"/><ellipse cx="35.50653" cy="388.212" rx="8.44389" ry="4.87483" transform="translate(-317.41325 222.63149) rotate(-59.63946)" style="fill:#ff888a;"/><path d="m35.50638,396.03807c-3.76447,2.17342-6.82708.43082-6.82708-3.88455,0-4.31491,3.06261-9.5939,6.82708-11.76732s6.82708-.43082,6.82708,3.88408-3.06261,9.59437-6.82708,11.76779Zm0-13.73808c-2.84374,1.64183-5.15761,5.62977-5.15761,8.88966s2.31387,4.57646,5.15761,2.93463,5.15761-5.63023,5.15761-8.89012c0-3.25989-2.31387-4.576-5.15761-2.93417Z"/><ellipse cx="57.69983" cy="375.39871" rx="8.44389" ry="4.87483" transform="translate(-295.38122 235.44431) rotate(-59.63946)" style="fill:#fddb00;"/><path d="m57.6999,383.22464c-3.76447,2.17342-6.82708.43082-6.82708-3.88455s3.06261-9.5939,6.82708-11.76732,6.82708-.43082,6.82708,3.88408c0,4.31537-3.06261,9.59437-6.82708,11.76779Zm0-13.73808c-2.84374,1.64183-5.15761,5.62977-5.15761,8.88966s2.31387,4.57646,5.15761,2.93463c2.84374-1.64183,5.15761-5.63023,5.15761-8.89012,0-3.25989-2.31387-4.576-5.15761-2.93417Z"/><ellipse cx="79.89314" cy="362.58542" rx="8.44389" ry="4.87483" transform="translate(-273.34919 248.25712) rotate(-59.63946)" style="fill:#00f287;"/><path d="m79.89302,370.41144c-3.76447,2.17342-6.82708.43082-6.82708-3.88455,0-4.31491,3.06261-9.5939,6.82708-11.76732,3.76447-2.17342,6.82708-.43082,6.82708,3.88408,0,4.31537-3.06261,9.59437-6.82708,11.76779Zm0-13.73808c-2.84374,1.64183-5.15761,5.62977-5.15761,8.88966s2.31387,4.57646,5.15761,2.93463,5.15761-5.63023,5.15761-8.89012-2.31387-4.576-5.15761-2.93417Z"/><polygon points="438.63202 174.14397 18.60455 416.64692 18.60455 414.73313 438.63202 172.23018 438.63202 174.14397"/><path d="m47.57299,521.42617c-.07214.04165-.14429.06181-.20868.05601l-8.90945-.75262c-.12921-.01044-.20868-.12248-.20868-.29349v-11.33042c0-.17101.07948-.37482.20868-.53445.1288-.16033.28857-.25258.41737-.24097l8.90945.75262c.12921.01044.20868.12248.20868.29349v11.33042c0,.17101-.07948.37482-.20868.53445-.0644.08017-.13654.14331-.20868.18496Zm-8.49208-1.74864l8.07471.68229v-10.22495s-8.07471-.68229-8.07471-.68229v10.22495Z" style="fill:#959799;"/><path d="m71.60962,506.04412v-16.45224s3.30349-1.90727,3.30349-1.90727v2.35486c.41655-.96191.9831-1.91416,1.70045-2.8591.71695-.94377,1.63076-1.73675,2.74102-2.37776.50867-.29368,1.02467-.49067,1.54761-.59168.52253-.09984,1.00837-.08318,1.45753.04998.44835.13362.80702.41433,1.07562.84237.45324-1.03542,1.05687-2.0203,1.81132-2.95488.75404-.93341,1.60304-1.67309,2.5466-2.21786.51845-.29933,1.0528-.51252,1.60345-.6398.55024-.12612,1.05687-.1009,1.51948.07775s.83759.56956,1.12453,1.17203c.28653.60457.43,1.48424.43,2.64018v10.81927s-3.37278,1.94728-3.37278,1.94728v-10.35764c0-.81672-.12472-1.3867-.37457-1.70968-.24985-.32205-.57144-.46812-.96476-.43727s-.81191.1744-1.25578.43067c-.39821.22991-.81232.55964-1.24233.98825-.43041.42885-.79602.93616-1.09641,1.52356-.3008.58764-.4512,1.23141-.4512,1.93133v10.73984s-3.37278,1.94728-3.37278,1.94728v-10.97906c0-.57189-.12961-.97458-.38884-1.20711-.25882-.23277-.5853-.33303-.97821-.30242-.39373.03108-.79357.16381-1.20075.3989-.41655.2405-.83963.58568-1.27004,1.03603-.43041.44941-.78909.96673-1.07562,1.55174-.28694.58431-.43041,1.20072-.43041,1.84737v10.73984s-3.38664,1.95528-3.38664,1.95528Z"/><path d="m101.53426,489.08578c-1.3699.79091-2.56332,1.14259-3.58106,1.05643-1.01815-.08499-1.80683-.59775-2.36645-1.53712-.56002-.93914-.84004-2.29411-.84004-4.06586s.27308-3.38158.81925-4.99115c.54576-1.60933,1.32547-3.06686,2.33873-4.37327,1.01285-1.30618,2.22746-2.36814,3.64342-3.18564,1.36909-.79044,2.55842-1.13229,3.56679-1.02577,1.00837.10745,1.78808.64408,2.33873,1.60919.55065.96604.82577,2.35094.82577,4.15353,0,1.66522-.26126,3.28318-.7842,4.85223-.52253,1.56975-1.28594,3.00478-2.28982,4.30579-1.00429,1.30124-2.22787,2.36838-3.67114,3.20165Zm.01386-2.95157c.77727-.44876,1.41759-1.06234,1.92218-1.84239.50419-.77888.8812-1.6647,1.13105-2.65745s.37498-2.0303.37498-3.11241c0-1.00736-.11127-1.87104-.33341-2.59222-.22173-.72048-.5853-1.1918-1.08948-1.4156-.50419-.22287-1.17263-.09392-2.00533.38684-.78664.45417-1.43674,1.06499-1.9503,1.8334-.51356.76934-.89506,1.64654-1.14491,2.63461-.24985.98714-.37498,2.0331-.37498,3.13577,0,.99708.11127,1.85889.33341,2.58381.22173.72609.58733,1.20464,1.09641,1.4359.50867.23149,1.18893.10133,2.04038-.39026Z"/><path d="m116.53754,480.24795c-1.13798.65701-2.01919.99103-2.64402,1.00135-.62442.01102-1.05728-.23247-1.29776-.73s-.36071-1.1869-.36071-2.06717v-9.5783s-2.33181,1.34627-2.33181,1.34627v-2.73706s2.42881-1.40227,2.42881-1.40227l.84697-5.37346,2.42881-1.40227v4.86858s3.20608-1.85103,3.20608-1.85103v2.75294s-3.20608,1.85103-3.20608,1.85103l.01386,9.42732c0,.48779.0485.81769.14592.98946.09701.172.25433.22975.47158.17348s.50663-.18878.86775-.39727l1.77667-1.02576v2.45017c-.19442.19728-.47891.44097-.85389.73129-.37457.29008-.87224.61479-1.49218.97271Z"/><path d="m121.39557,457.96792v-3.65938s3.35893-1.93928,3.35893-1.93928v3.65938s-3.35893,1.93928-3.35893,1.93928Zm.0697,19.29203v-16.45224s3.2338-1.86703,3.2338-1.86703v16.45224s-3.2338,1.86703-3.2338,1.86703Z"/><path d="m134.01243,470.3345c-1.3699.79091-2.56332,1.14259-3.58106,1.05643-1.01815-.08499-1.80683-.59775-2.36645-1.53712-.56002-.93914-.84004-2.29411-.84004-4.06586,0-1.71849.27308-3.38158.81925-4.99115.54576-1.60933,1.32547-3.06686,2.33873-4.37327,1.01285-1.30618,2.22746-2.36814,3.64342-3.18564,1.36909-.79044,2.55842-1.13229,3.56679-1.02577,1.00837.10745,1.78808.64408,2.33873,1.60919.55065.96604.82577,2.35094.82577,4.15353,0,1.66522-.26126,3.28318-.7842,4.85223-.52253,1.56975-1.28594,3.00478-2.28982,4.30579-1.00429,1.30124-2.22787,2.36838-3.67114,3.20165Zm.01386-2.95157c.77727-.44876,1.41759-1.06234,1.92218-1.84239.50419-.77888.8812-1.6647,1.13105-2.65745s.37498-2.0303.37498-3.11241c0-1.00736-.11127-1.87104-.33341-2.59222-.22173-.72048-.5853-1.1918-1.08948-1.4156-.50419-.22287-1.17263-.09392-2.00533.38684-.78664.45417-1.43674,1.06499-1.9503,1.8334-.51356.76934-.89506,1.64654-1.14491,2.63461-.24985.98714-.37498,2.0331-.37498,3.13577,0,.99708.11127,1.85889.33341,2.58381.22173.72609.58733,1.20464,1.09641,1.4359.50867.23149,1.18893.10133,2.04038-.39026Z"/><path d="m143.24183,464.68725v-16.45224s3.31735-1.91527,3.31735-1.91527v2.35486c.22213-.5525.52497-1.1329.90933-1.74168.38354-.60924.85797-1.19807,1.42248-1.76788.5641-.56958,1.22602-1.07416,1.98495-1.51232.88813-.51276,1.7139-.79048,2.47731-.83409.76341-.04267,1.37887.23089,1.84596.81999.46709.59003.70105,1.56324.70105,2.92102v10.81927s-3.38664,1.95528-3.38664,1.95528v-10.35764c0-1.08211-.25923-1.73609-.77727-1.96217-.51845-.22584-1.17059-.11192-1.95723.34225-.53638.30968-1.04546.70732-1.52641,1.19152-.48136.48537-.87224,1.02315-1.17304,1.61639-.3008.59231-.4512,1.20151-.4512,1.8276v10.73984s-3.38664,1.95528-3.38664,1.95528Z"/><path d="m158.70406,449.01421v-2.89592s7.32842-4.24695,7.32842-4.24695v2.89592s-7.32842,4.24695-7.32842,4.24695Z"/><path d="m174.3876,447.02389c-1.89691,1.09518-3.38664,1.20677-4.46919.33663-1.08255-.87107-1.62423-2.68518-1.62423-5.44279,0-1.71849.21969-3.3386.65948-4.85965.43938-1.52081,1.08948-2.87734,1.9499-4.06935.86082-1.19131,1.92014-2.15053,3.17877-2.8772.59182-.34169,1.13105-.57078,1.6169-.68682s.91829-.15078,1.29776-.10541c.37906.04654.70105.15219.96476.31859.26371.16547.46954.36528.61749.59758v-9.59418s3.4005-1.96328,3.4005-1.96328v23.64391s-2.49851,1.44251-2.49851,1.44251l-.37457-3.15717c-.12024.4619-.28939.97072-.50663,1.526-.21765.55552-.50908,1.12372-.87427,1.70555-.36561.583-.82129,1.14792-1.36745,1.69687-.54576.54778-1.20279,1.04486-1.97068,1.4882Zm.69412-3.24901c1.21176-.69961,2.09785-1.66535,2.65788-2.89511.55962-1.23046.83963-2.89569.83963-4.99544-.00937-1.19351-.13654-2.12745-.38191-2.80251-.24496-.6753-.61749-1.07603-1.1172-1.20056-.4997-.12547-1.15184.04453-1.95683.50929-1.01815.58783-1.85289,1.49869-2.50544,2.73515-.65214,1.23529-.97862,2.82455-.97862,4.76544,0,1.93061.3008,3.21752.9024,3.86259.60119.64437,1.44775.65181,2.54008.02116Z"/><path d="m191.5568,437.11125c-1.37887.79609-2.59348,1.16-3.64342,1.09244-1.05035-.0664-1.86919-.55707-2.45693-1.46899s-.8812-2.23297-.8812-3.96267.26575-3.3381.79806-4.95555c.5319-1.61628,1.30469-3.0941,2.31795-4.43229s2.23684-2.42121,3.67114-3.2493c1.41555-.81727,2.60448-1.15888,3.5672-1.026.96231.13405,1.69312.67555,2.19282,1.62242s.74955,2.24823.74955,3.90318v1.17743s-9.92393,5.72958-9.92393,5.72958c-.00937.93895.12024,1.69112.38843,2.25769.2686.56633.6664.90108,1.19382,1.00494s1.17956-.06801,1.95683-.51676c.79602-.45958,1.48729-1.06333,2.07503-1.81103s.97862-1.59666,1.17304-2.54619l3.08136-1.77902c-.1667,1.24097-.56206,2.44014-1.18689,3.59612-.62442,1.15668-1.38335,2.19945-2.27637,3.12807-.89302.92956-1.82518,1.67519-2.79646,2.23596Zm-3.62263-7.96428l6.74557-3.89455c0-.79617-.12268-1.44394-.36805-1.94426-.24496-.49962-.61301-.79641-1.10334-.88991s-1.11027.07566-1.85982.50841c-.74059.42758-1.36501.99554-1.87368,1.70225-.50908.70788-.89302,1.46314-1.15225,2.26506s-.38843,1.55214-.38843,2.25299Z"/><path d="m206.26866,428.44167c-1.13798.65701-2.01919.99103-2.64402,1.00135-.62442.01102-1.05728-.23247-1.29776-.73s-.36071-1.1869-.36071-2.06717v-9.5783s-2.33181,1.34627-2.33181,1.34627v-2.73706s2.42881-1.40227,2.42881-1.40227l.84697-5.37346,2.42881-1.40227v4.86858s3.20608-1.85103,3.20608-1.85103v2.75294s-3.20608,1.85103-3.20608,1.85103l.01386,9.42732c0,.48779.0485.81769.14592.98946.09701.172.25433.22975.47158.17348s.50663-.18878.86775-.39727l1.77667-1.02576v2.45017c-.19442.19728-.47891.44097-.85389.73129-.37457.29008-.87224.61479-1.49218.97271Z"/><path d="m217.48342,422.14251c-1.37887.79609-2.59348,1.16-3.64342,1.09244-1.05035-.0664-1.86919-.55707-2.45693-1.46899s-.8812-2.23297-.8812-3.96267.26575-3.3381.79806-4.95555c.5319-1.61628,1.30469-3.0941,2.31795-4.43229s2.23684-2.42121,3.67114-3.2493c1.41555-.81727,2.60448-1.15888,3.5672-1.026.96231.13405,1.69312.67555,2.19282,1.62242s.74955,2.24823.74955,3.90318v1.17743s-9.92393,5.72958-9.92393,5.72958c-.00937.93895.12024,1.69112.38843,2.25769.2686.56633.6664.90108,1.19382,1.00494s1.17956-.06801,1.95683-.51676c.79602-.45958,1.48729-1.06333,2.07503-1.81103s.97862-1.59666,1.17304-2.54619l3.08136-1.77902c-.1667,1.24097-.56206,2.44014-1.18689,3.59612-.62442,1.15668-1.38335,2.19945-2.27637,3.12807-.89302.92956-1.82518,1.67519-2.79646,2.23596Zm-3.62263-7.96428l6.74557-3.89455c0-.79617-.12268-1.44394-.36805-1.94426-.24496-.49962-.61301-.79641-1.10334-.88991s-1.11027.07566-1.85982.50841c-.74059.42758-1.36501.99554-1.87368,1.70225-.50908.70788-.89302,1.46314-1.15225,2.26506s-.38843,1.55214-.38843,2.25299Z"/><path d="m232.45939,413.49613c-1.31406.75867-2.48261,1.1016-3.50484,1.02831-1.02264-.07212-1.82518-.57408-2.40802-1.50564-.58285-.93063-.87468-2.29186-.87468-4.08511s.27553-3.36524.82618-4.97179c.55024-1.60631,1.3324-3.06525,2.34566-4.37727,1.01326-1.31109,2.21809-2.3702,3.61571-3.17712,1.11923-.64619,2.10478-.96102,2.95623-.94332.85104.01794,1.53375.3293,2.04731.93455s.82088,1.45668.92278,2.55378l-2.87308,1.65877c-.07418-.46646-.23599-.85335-.48584-1.15951s-.5853-.4788-1.00592-.51723c-.42145-.03795-.93256.11697-1.53375.46407-1.08296.62525-1.95723,1.58603-2.62323,2.88258-.6664,1.29679-.9994,2.88981-.9994,4.77744,0,1.73998.3167,2.94108.95049,3.60401s1.54312.65282,2.72757-.03102c.59182-.34169,1.09845-.78557,1.51989-1.33073.42063-.54562.75648-1.11611,1.00633-1.71078.24944-.59536.40677-1.13941.47158-1.63285l2.80379-1.61877c-.08315,1.16189-.38395,2.32703-.90199,3.49611-.51845,1.16932-1.2032,2.24588-2.05424,3.23063-.85145.98498-1.82762,1.79528-2.92851,2.43088Z"/><path d="m246.75469,405.06705c-1.13798.65701-2.01919.99103-2.64402,1.00135-.62442.01102-1.05728-.23247-1.29776-.73s-.36071-1.1869-.36071-2.06717v-9.5783s-2.33181,1.34627-2.33181,1.34627v-2.73706s2.42881-1.40227,2.42881-1.40227l.84697-5.37346,2.42881-1.40227v4.86858s3.20608-1.85103,3.20608-1.85103v2.75294s-3.20608,1.85103-3.20608,1.85103l.01386,9.42732c0,.48779.0485.81769.14592.98946.09701.172.25433.22975.47158.17348s.50663-.18878.86775-.39727l1.77667-1.02576v2.45017c-.19442.19728-.47891.44097-.85389.73129-.37457.29008-.87224.61479-1.49218.97271Z"/><path d="m257.65072,398.95191c-1.3699.79091-2.56332,1.14259-3.58106,1.05643-1.01815-.08499-1.80683-.59775-2.36645-1.53712-.56002-.93914-.84004-2.29411-.84004-4.06586,0-1.71849.27308-3.38158.81925-4.99115.54576-1.60933,1.32547-3.06686,2.33873-4.37327,1.01285-1.30618,2.22746-2.36814,3.64342-3.18564,1.36909-.79044,2.55842-1.13229,3.56679-1.02577,1.00837.10745,1.78808.64408,2.33873,1.60919.55065.96604.82577,2.35094.82577,4.15353,0,1.66522-.26126,3.28318-.7842,4.85223-.52253,1.56975-1.28594,3.00478-2.28982,4.30579-1.00429,1.30124-2.22787,2.36838-3.67114,3.20165Zm.01386-2.95157c.77727-.44876,1.41759-1.06234,1.92218-1.84239.50419-.77888.8812-1.6647,1.13105-2.65745s.37498-2.0303.37498-3.11241-.11127-1.87104-.33341-2.59222c-.22173-.72048-.5853-1.1918-1.08948-1.4156-.50419-.22287-1.17263-.09392-2.00533.38684-.78664.45417-1.43674,1.06499-1.9503,1.8334-.51356.76934-.89506,1.64654-1.14491,2.63461-.24985.98714-.37498,2.0331-.37498,3.13577,0,.99708.11127,1.85889.33341,2.58381.22173.72609.58733,1.20464,1.09641,1.4359.50867.23149,1.18893.10133,2.04038-.39026Z"/><path d="m266.88012,393.30466v-16.45224s3.24806-1.87527,3.24806-1.87527v3.56406c.2311-.95015.56206-1.83834.99247-2.66528.43-.82576.93664-1.56121,1.51948-2.20609.58326-.64418,1.21665-1.16312,1.9018-1.5587.1663-.09601.32811-.17915.48584-.24873.15692-.06911.27268-.09949.34686-.08906v3.70703c-.1019.0065-.23395.04537-.39577.11729s-.30284.14307-.42308.21249c-.69412.33721-1.30713.7229-1.83903,1.15708-.53231.43442-.98106.90843-1.34626,1.42205-.36601.51315-.64113,1.05419-.82618,1.62265-.18504.56753-.27757,1.16013-.27757,1.77501v9.56241s-3.38664,1.95528-3.38664,1.95528Z"/><path d="m290.8226,379.80012c-.80498.46476-1.48973.73768-2.05424.8197s-1.02956.03748-1.39476-.13387c-.36561-.17018-.65255-.4082-.86082-.7122-.20787-.30423-.36764-.60447-.47851-.90116l-.31955,3.55792-2.23439,1.29003v-23.64391s2.9978-1.73078,2.9978-1.73078v9.6895c.12961-.36078.32159-.77905.57592-1.25483.25474-.47601.57388-.9677.95783-1.47626.38395-.50762.83025-.99891,1.33933-1.47318s1.08255-.89507,1.72124-1.26382c1.78564-1.03094,3.20363-1.12821,4.25399-.29275,1.05035.8364,1.57532,2.63399,1.57532,5.3916,0,1.73998-.22662,3.38466-.67986,4.93496-.45364,1.55054-1.13146,2.94456-2.03345,4.18113-.9024,1.2368-2.02449,2.24347-3.36585,3.01791Zm-.58285-2.2258c1.09152-.63019,1.9821-1.63216,2.67173-3.0059.68923-1.37351,1.03405-3.14343,1.03405-5.30673,0-1.86707-.32159-3.10833-.96476-3.72286-.64317-.61546-1.57084-.57327-2.7826.12634-.8702.50241-1.57777,1.13146-2.12394,1.88692-.54576.75523-.94601,1.63577-1.20034,2.64138-.25474,1.00679-.38639,2.13314-.39577,3.37952,0,2.196.29632,3.6023.88854,4.22008.59182.61895,1.54965.54533,2.87308-.21876Z" style="fill:#959799;"/><path d="m301.20425,378.73839c-.87917.50759-1.65643.80776-2.33181.90053v-2.196s1.45753-.80973,1.45753-.80973c.55513-.2878,1.01326-.58968,1.37398-.90447.36071-.31385.64521-.62482.85349-.93009.20828-.30621.36561-.59608.47199-.86869.10638-.27448.18749-.51754.24292-.72897l.44427-1.64138-5.59373-12.74519,2.97049-1.71502,4.02492,9.8327,4.01147-14.47252,2.9008-1.67478-5.98216,20.82929c-.40759,1.38004-.85389,2.5236-1.33933,3.42996-.48584.9066-1.02019,1.64963-1.60345,2.23027-.58285.5804-1.21665,1.06874-1.90139,1.46408Z" style="fill:#959799;"/><path d="m323.59219,360.56193l-5.24646-13.4232,2.74836-1.58677,3.63649,10.04108.19442-.11225,3.63608-14.2399,2.74836-1.58677-5.21875,19.46528-2.49851,1.44251Z" style="fill:#959799;"/><path d="m333.32171,335.31049v-3.35754s2.98395-1.72278,2.98395-1.72278v3.35754s-2.98395,1.72278-2.98395,1.72278Zm.06929,19.5941v-16.45224s2.85922-1.65077,2.85922-1.65077v16.45224s-2.85922,1.65077-2.85922,1.65077Z" style="fill:#959799;"/><path d="m343.84194,349.18939c-.92522.53418-1.74651.81678-2.46346.84945-.71735.03197-1.27942-.19486-1.68619-.68142-.40759-.48609-.61097-1.23865-.61097-2.25722,0-1.82408.56206-3.51198,1.6866-5.06299,1.12413-1.54984,2.92607-3.06771,5.40583-4.55266l2.35952-1.4417v-1.19332c0-.94381-.24496-1.54529-.73529-1.80325-.49073-.25773-1.24925-.08425-2.27637.51903-.75893.43817-1.43878,1.03253-2.04038,1.78262s-.99492,1.64065-1.17956,2.66957l-2.5678,1.48252c.05543-1.1244.33055-2.20369.82577-3.23718.49481-1.03325,1.17752-1.99277,2.04731-2.87621.86938-.88414,1.88754-1.6626,3.05323-2.33561,1.31406-.75867,2.39213-1.17738,3.2342-1.25519.84167-.07757,1.46894.15739,1.88061.70467s.6179,1.38323.6179,2.5074v11.5033s-2.52622,1.45852-2.52622,1.45852l-.22213-2.89475c-.53679,1.57238-1.21706,2.83699-2.04038,3.79546-.82373.95777-1.74407,1.73115-2.76222,2.31898Zm.93011-2.90775c.45324-.26168.9024-.61445,1.34626-1.05574.44427-.44246.84656-.9289,1.20768-1.46165.36071-.53158.6501-1.06217.86735-1.59035s.33096-1.00781.33993-1.43723v-2.70528s-1.95683,1.16155-1.95683,1.16155c-.98106.57763-1.81621,1.17661-2.50544,1.79694s-1.21665,1.26965-1.58225,1.94797c-.36561.67738-.5482,1.40329-.5482,2.17797,0,.88027.26575,1.41367.79806,1.59974.5319.18631,1.20972.04167,2.03345-.43392Z" style="fill:#959799;"/><path d="m354.61283,342.65216v-16.45224s2.88653-1.66654,2.88653-1.66654v2.37074c.40759-.95673.96272-1.9052,1.66622-2.84681.70268-.94114,1.60997-1.73316,2.72024-2.37417.51764-.29886,1.04261-.50103,1.57492-.60745.53231-.10548,1.02223-.08837,1.47139.04945.44916.13876.80295.4251,1.06217.85854.45324-1.04663,1.05891-2.03736,1.81784-2.97453.75893-.93624,1.60997-1.67709,2.55394-2.22209.50867-.29368,1.03609-.50567,1.58225-.63504.54617-.1303,1.05239-.10953,1.5203.06046.46709.17046.84615.55901,1.13798,1.1652.29102.60666.43693,1.5036.43693,2.69131v10.7875s-2.98435,1.72302-2.98435,1.72302v-10.42212c0-.90083-.13124-1.53058-.39536-1.88737-.2633-.35727-.60567-.5175-1.02712-.4807-.42145.03587-.86735.19052-1.33933.46302-.42552.24567-.86979.59749-1.33199,1.05497-.46302.45796-.85675,1.00393-1.18037,1.63651-.32362.63165-.48584,1.32991-.48584,2.0943v10.86693s-2.96968,1.71455-2.96968,1.71455v-11.15381c0-.6046-.14184-1.03199-.42389-1.28219-.28205-.25113-.63339-.35852-1.05484-.32172-.42063.0354-.83963.17452-1.25618.41501-.4622.26685-.92522.63977-1.38743,1.11875-.46302.47945-.84941,1.03427-1.15918,1.66353-.30977.63019-.46546,1.30039-.46546,2.01152v10.86693s-2.96968,1.71455-2.96968,1.71455Z" style="fill:#959799;"/><path d="m47.57299,521.42617c-.07214.04165-.14429.06181-.20868.05601-.12921-.01044-.20868-.12248-.20868-.29349l-.00041-11.33019c0-.17101.07948-.37482.20868-.53445l8.90985-11.0406c.1288-.16033.28857-.25258.41737-.24097.12921.01044.20868.12248.20868.29349v11.33042c0,.17101-.07948.37482-.20868.53445l-8.90945,11.04036c-.0644.08017-.13654.14331-.20868.18496Zm.41696-11.773l.00041,10.22471,8.07471-10.00616v-10.22495s-8.07512,10.00639-8.07512,10.00639Z" style="fill:#959799;"/><path d="m47.57258,510.09598c-.07214.04165-.14429.06181-.20868.05601l-8.90904-.75286c-.12921-.01044-.20868-.12248-.20868-.29349s.07948-.37482.20868-.53445l8.90945-11.04036c.1288-.16033.28857-.25258.41737-.24097l8.90945.75262c.12921.01044.20868.12248.20868.29349s-.07948.37482-.20868.53445l-8.90985,11.0406c-.0644.08017-.13654.14331-.20868.18496Zm-8.0743-1.71324l8.0743.68252,8.07512-10.00639-8.07471-.68229-8.07471,10.00616Z" style="fill:#959799;"/><polygon points="52.12574 504.24704 43.21629 503.49348 43.63366 502.42457 52.54311 503.17813 52.12574 504.24704" style="fill:#959799;"/><path d="m38.08029,570.80247l3.28352-12.32253,1.48443-.85704,3.27741,8.53458-1.3589.78456-.85553-2.23938-3.60429,2.08094-.86164,3.23079-1.36501.78809Zm2.56005-5.61026l2.91873-1.68513-1.45957-3.95207-1.45916,5.6372Z" style="fill:#959799;"/><path d="m47.71035,565.24256v-10.42679s3.15146-1.8195,3.15146-1.8195c.6501-.37534,1.23214-.58429,1.7457-.62568.51356-.04233.91829.09965,1.2142.42315.2955.32466.44345.84758.44345,1.56899,0,.69244-.13532,1.36022-.40596,2.00426-.27023.64381-.64766,1.2355-1.13228,1.77508-.48421.53934-1.04505.99303-1.68252,1.36108l-1.96253,1.13307v3.8145s-1.37153.79185-1.37153.79185Zm1.36501-5.87159l1.93115-1.11495c.57877-.33416,1.05076-.79822,1.41555-1.39103s.54739-1.20658.54739-1.84109c0-.64385-.18871-1.02923-.56614-1.15521-.37743-.12504-.86001-.01837-1.44693.3205l-1.88101,1.086v4.09577Z" style="fill:#959799;"/><path d="m55.73696,560.60839v-10.42679s1.34626-.77726,1.34626-.77726v10.42679s-1.34626.77726-1.34626.77726Z" style="fill:#959799;"/><path d="m64.50579,555.61766c-.6122.35345-1.12616.53619-1.54109.54773-.41533.01085-.72754-.12475-.93745-.40725-.2095-.28274-.31425-.68856-.31425-1.21747,0-.46163.0807-.92312.24211-1.38356.1614-.46137.40473-.942.72958-1.44166.32485-.5006.73284-1.04079,1.22358-1.62221-.23069-.15089-.43-.30588-.59752-.46614-.16793-.16096-.29672-.34825-.38721-.56327-.09008-.21432-.13491-.47531-.13491-.78369,0-.43733.10271-.89098.30814-1.36.20542-.46996.49073-.91316.85553-1.33029s.78827-.76535,1.27045-1.04374c.46546-.26874.89343-.42331,1.28349-.46349s.70227.03935.93704.23741c.23477.19899.35256.5244.35256.97575,0,.19717-.03464.42463-.10393.68423-.06929.25867-.18341.5535-.34278.88567-.15937.3331-.37539.70359-.64806,1.11332-.27268.41067-.6122.85993-1.01897,1.34989l1.837,1.40547c.07092-.17551.1614-.42305.27023-.74006.10923-.31818.20991-.6772.30202-1.07613s.15081-.81315.17608-1.24077l1.34626-.77726c-.07133.51683-.1826,1.02494-.33341,1.52317-.15121.49754-.32403.98512-.51886,1.46017-.19523.47529-.38925.93773-.58203,1.38545l1.60426,1.2296-1.56024.90081-.85553-.62369c-.46954.6944-.94764,1.27414-1.4343,1.74013-.48625.46576-.96231.83313-1.42778,1.10186Zm.30814-1.39645c.32281-.18637.65418-.45899.9941-.81878.33952-.35955.63747-.75304.89302-1.17906l-2.11986-1.60286c-.40677.49463-.74425,1.00439-1.01285,1.52952-.26819.52489-.38762,1.01435-.35827,1.46838.01671.30807.10149.53199.25474.67152.15285.13976.34808.20273.58489.18842s.49155-.09971.76423-.25714Zm.28327-5.38442c.39821-.49903.70553-.92036.92155-1.26375.21561-.34315.36357-.63509.44345-.87652.07948-.24026.11942-.45956.11942-.65673,0-.30277-.06399-.51065-.19197-.62459-.12798-.113-.29142-.15507-.49073-.1241-.1989.03073-.40555.11079-.61953.23901-.36887.21764-.65295.50407-.85226.8593-.19931.35616-.29876.69673-.29876,1.02379,0,.2168.04076.40819.12268.57489s.17934.30762.29265.42162c.1129.11517.2201.20653.32077.27269l.23273.15438Z" style="fill:#959799;"/><path d="m74.15501,549.97473v-7.45612s1.30835-.75538,1.30835-.75538v1.07464c.18464-.43366.43612-.86387.75485-1.29085.31873-.42605.72958-.78473,1.23295-1.07535.23477-.13554.4728-.22718.71409-.27585.24088-.0475.46302-.04025.66681.02244.20298.06316.36357.19285.48095.38953.20542-.47463.48014-.92386.82414-1.34861.3436-.42452.72958-.7595,1.15755-1.00659.23029-.13296.46954-.22904.71695-.28778s.47688-.05012.68882.02749c.21154.07691.38354.25327.51601.52722.13206.27512.19809.6818.19809,1.22005v4.88914s-1.35237.78079-1.35237.78079v-4.7228c0-.4093-.05992-.69429-.17934-.85616-.11983-.16163-.27471-.23387-.46546-.21812-.19116.01692-.39332.08691-.6073.21046-.19279.11131-.39414.27054-.60364.4784-.20991.20716-.38802.45484-.53475.7414s-.2201.60272-.2201.94847v4.92558s-1.34626.77726-1.34626.77726v-5.05454c0-.27473-.06399-.4686-.19197-.5816-.12798-.11394-.28735-.1621-.4781-.14635-.19075.01668-.38028.07938-.56899.18834-.20991.12119-.41941.2898-.62931.50724-.2095.2172-.38476.46884-.52497.75351-.14062.28583-.21072.58983-.21072.91129v4.92558s-1.34626.77726-1.34626.77726Z" style="fill:#959799;"/><path d="m87.7676,542.2594c-.60812.3511-1.1388.50797-1.59163.46851-.45283-.03852-.80539-.27137-1.05687-.699-.25148-.4267-.37743-1.04643-.37743-1.85848s.11942-1.53793.35868-2.26198c.23885-.72474.58366-1.37891,1.03486-1.96461.45079-.58452.99696-1.06152,1.6385-1.43191.6122-.35345,1.14287-.50659,1.59163-.45823.44835.04952.79643.29336,1.04424.73153.24741.43933.3709,1.07169.3709,1.89869,0,.75505-.11535,1.48699-.34604,2.19768-.23069.70976-.56899,1.35549-1.01571,1.93766-.44672.58311-.99696,1.06245-1.65114,1.44014Zm.00611-1.19311c.37335-.21555.68352-.50677.93093-.87295s.43408-.78887.56002-1.26808c.12554-.47804.18871-.98455.18871-1.51813,0-.49527-.05584-.91344-.1667-1.25593-.11127-.34225-.28939-.56274-.53475-.66124s-.57144-.03079-.97821.20406c-.37335.21555-.68678.50585-.9403.87088-.25393.36527-.44345.78494-.5694,1.25947-.12594.4736-.18871.98455-.18871,1.53308,0,.48499.05665.89989.16996,1.24283s.29428.56552.54413.66704c.24944.10081.57755.0338.98432-.20105Z" style="fill:#959799;"/><path d="m94.60487,538.3119c-.85145.49158-1.52356.54509-2.01593.15841-.49318-.38621-.73936-1.21125-.73936-2.47559,0-.77374.09945-1.50584.29876-2.19561.19931-.68883.494-1.30565.88406-1.84763.38965-.54269.87631-.98158,1.45916-1.31809.28939-.16708.54943-.27703.78012-.32799.23069-.05189.43163-.06231.60364-.03173s.3167.08628.43408.16803c.11739.08081.20542.17015.26452.26498v-4.39106s1.35849-.78432,1.35849-.78432v10.71554s-1.01285.58477-1.01285.58477l-.15081-1.44172c-.04606.19012-.11657.40838-.21072.65524-.09456.24709-.2254.50485-.39332.77562-.16752.26959-.37824.53329-.63217.79016-.25352.25664-.56288.49038-.92767.70099Zm.258-1.30957c.60364-.34851,1.03975-.81803,1.30835-1.40764.26819-.5903.4027-1.38283.4027-2.37803-.00448-.55996-.06399-1.00125-.17934-1.32433s-.29591-.51319-.54128-.57057c-.24496-.05855-.56695.02737-.96557.25751-.49889.28803-.90688.72917-1.22317,1.32295-.3167.59401-.47525,1.34996-.47525,2.26854s.14388,1.513.43123,1.82742c.28694.31559.70105.31666,1.24233.00415Z" style="fill:#959799;"/><path d="m102.53693,533.73233c-.61627.3558-1.15959.51717-1.62913.48269-.46995-.03331-.83555-.25863-1.09763-.67454-.26249-.41568-.39332-1.01576-.39332-1.79978,0-.77374.11942-1.52672.35868-2.25824.23885-.73128.58489-1.39644,1.03772-1.99429s.99818-1.08091,1.63565-1.44895c.62483-.36075,1.15306-.51247,1.58511-.45447.43204.05893.75893.301.98147.72852.22213.42682.33341,1.01764.33341,1.77176v.51209s-4.57965,2.64406-4.57965,2.64406c-.00408.44996.05869.81368.18871,1.09184s.32403.44555.58203.50031c.258.05569.57959-.02812.96557-.25097.39006-.2252.72632-.52026,1.00959-.88566.28287-.36516.46628-.77102.55024-1.21851l1.25211-.7229c-.07581.55305-.25393,1.08855-.53475,1.60672-.28124.51747-.61872.98051-1.01285,1.38841s-.80539.73505-1.23295.98191Zm-1.76771-3.49289l3.29616-1.90304c0-.38967-.05869-.70902-.17608-.95896-.11739-.24901-.29672-.39778-.53761-.44653-.24129-.04852-.54413.03288-.90933.24373-.37294.21532-.68352.49836-.93093.84772s-.43286.72088-.55676,1.11481c-.1235.39276-.18545.76026-.18545,1.10228Z" style="fill:#959799;"/><path d="m108.60712,530.18472c-.38598.22285-.69494.34328-.92767.36271-.23273.01849-.41003-.03426-.53149-.15851-.12187-.12401-.20257-.29888-.24251-.52346-.03954-.22481-.05951-.46932-.05951-.73378v-8.74662s1.3271-.7662,1.3271-.7662v8.58869c0,.34575.05992.57562.17934.68889.11942.11421.30284.11204.55065-.00767l.33952-.18107v.98026c-.10475.09879-.21276.19292-.32403.28053-.11127.08854-.2148.16046-.3114.21623Z" style="fill:#959799;"/><path d="m113.66446,529.48609v-9.77827s1.34626-.77726,1.34626-.77726l.01223,1.23298c.07989-.20965.1826-.43062.30854-.665.12554-.23321.27553-.46932.44957-.70623.17404-.23785.37335-.46225.59752-.67298.22458-.21189.4728-.39539.74548-.55282.51152-.29533.96354-.4208,1.35563-.37525.3921.04462.6982.28373.91829.71734.2201.43267.33055,1.0791.33055,1.93974s-.11046,1.65517-.33055,2.36816c-.2201.71392-.53353,1.33875-.9403,1.87357-.40677.53575-.88895.96365-1.44693,1.2858-.26819.15484-.50948.25117-.72306.28757-.21398.03757-.4027.03252-.56614-.01516-.16385-.04744-.30324-.12021-.41859-.21995-.11535-.09881-.21072-.20914-.28613-.32914v3.60611s-1.35237.78079-1.35237.78079Zm3.06342-5.12154c.49889-.28803.90892-.74717,1.22969-1.37717s.48136-1.4161.48136-2.35897c0-.81672-.14795-1.37702-.44345-1.68019-.29591-.302-.71817-.29556-1.2676.02165-.56614.32686-.9941.82065-1.28349,1.48019-.28898.66024-.43367,1.37922-.43367,2.15763,0,.50087.06358.92205.19157,1.26307.12798.34288.31996.56472.57551.66667.25596.10266.57266.04503.95009-.17288Z" style="fill:#959799;"/><path d="m123.01206,521.911c-.41941.24214-.79194.37126-1.11679.38593-.32485.01374-.57959-.08869-.76423-.30915s-.27675-.56163-.27675-1.02325c0-.82607.25474-1.59083.76423-2.29428.50948-.70251,1.32629-1.38996,2.45001-2.06303l1.06951-.65393v-.54106c0-.42705-.11127-.70015-.33341-.81673s-.56614-.03852-1.0316.23489c-.344.19861-.65214.46809-.92482.80774-.27268.34059-.45079.74338-.53435,1.21027l-1.16407.67208c.02527-.50986.14999-.99864.37457-1.46751.22417-.46864.53353-.90236.92767-1.30372.39414-.40043.85553-.75279,1.38376-1.05776.59548-.3438,1.08418-.53344,1.46568-.56868.38191-.03547.666.07057.85267.31883.18627.24849.2796.62726.2796,1.13655v5.2134s-1.1445.66078-1.1445.66078l-.10067-1.31181c-.24333.71238-.55147,1.28556-.92482,1.71978s-.79072.78452-1.2517,1.05067Zm.42145-1.31702c.20542-.1186.40881-.27808.61016-.47936.20135-.19942.38354-.42048.54698-.66155.16385-.24131.29469-.48131.39332-.72142.09864-.23917.14999-.45665.15407-.65057v-1.22602s-.88691.52607-.88691.52607c-.44468.26141-.82292.53305-1.13554.81446-.31221.28118-.55147.57537-.71695.88303-.16589.30697-.24863.63601-.24863.98644,0,.39902.12065.64054.36194.7255.24088.08426.5482.01897.92155-.19659Z" style="fill:#959799;"/><path d="m128.11995,509.92006v-1.52225s1.35237-.78079,1.35237-.78079v1.52225s-1.35237.78079-1.35237.78079Zm.03138,8.87988v-7.45612s1.29572-.74808,1.29572-.74808v7.45612s-1.29572.74808-1.29572.74808Z" style="fill:#959799;"/><path d="m131.25877,517.00586v-7.45612s1.28961-.74455,1.28961-.74455v1.52879c.10883-.42821.26086-.82249.45609-1.18284.19483-.36012.42226-.67925.6823-.95648s.53475-.49937.82414-.66645c.08804-.05083.172-.0937.25148-.12744.07989-.03397.14266-.04966.18871-.04821v1.4858c-.05462.00256-.12472.02435-.21072.06372-.086.04031-.16018.07566-.22336.10746-.28531.14136-.54494.30715-.77971.50063-.23518.19372-.43734.40669-.6073.63938-.16956.23246-.29958.4832-.39006.75131-.09008.2688-.13491.54886-.13491.84229v4.48545s-1.34626.77726-1.34626.77726Z" style="fill:#959799;"/><path d="m138.63121,512.89329c-.45324.26168-.87754.42535-1.27412.49078-.39617.0652-.72754-.00046-.9937-.19816-.26656-.19653-.43327-.54976-.50011-1.0597l1.20157-.69372c.05421.25278.15814.42733.3114.52387.15285.09678.33748.12661.5535.09067.21602-.03501.44753-.12475.69494-.26759.41085-.2372.74344-.51426.99696-.83164.25393-.31668.38069-.65338.38069-1.00941s-.06807-.41953-.2042-.49512c-.13654-.07442-.35134-.06348-.6448.034l-1.29613.39509c-.53679.16507-.96639.18416-1.2892.05562-.32322-.12831-.48666-.47501-.49073-1.03988,0-.43733.09538-.88207.28613-1.33421.19075-.45121.47606-.88413.85553-1.29758s.84819-.78126,1.40577-1.10317c.73406-.42381,1.32425-.57766,1.77097-.46085.44631.11798.67619.52819.68882,1.23202l-1.16366.67184c-.04198-.31684-.1773-.50691-.40596-.56926s-.52946.01319-.90281.22875c-.38558.22261-.70227.4933-.94968.81182s-.37131.65825-.37131,1.01895c0,.24483.0913.38555.2739.42217.18219.03685.45161-.00282.80825-.11715l1.23295-.35862c.31873-.08777.58081-.11293.78624-.07547.20542.03839.36683.11621.48421.23627s.20053.26642.24863.4405.07214.34989.07214.52837c0,.47097-.10353.9335-.31099,1.38688-.20787.45455-.50255.88167-.88406,1.28228s-.83881.75435-1.37112,1.06168Z" style="fill:#959799;"/><polygon points="420.04772 437.68469 36.89335 658.89895 36.89335 586.0102 420.04772 364.79595 420.04772 437.68469" style="fill:#f7f7f8;"/><path d="m55.34282,597.41756c0,.27847-.086.56641-.258.86289s-.37946.51438-.62279.65486-.45079.16215-.62279.06428-.2576-.28674-.2576-.56521v-1.41385c0-.32613.09008-.6482.27023-.9634.18056-.31544.41329-.55633.6982-.72082l.64195-.37063v.77935l-.59141.34145c-.22662.13084-.33952.33993-.33952.62868v.3607c.05828-.06262.12961-.11875.21358-.16723.23477-.13554.43816-.15392.61016-.05605s.258.28557.258.56498Zm2.28982-1.32203c0,.27847-.086.56641-.258.86289s-.37946.51438-.62279.65486-.45079.16215-.62279.06428-.2576-.28674-.2576-.56521v-1.41385c0-.32613.08967-.64796.27023-.9634.18015-.3152.41289-.5561.6982-.72082l.64154-.37039v.77935l-.591.34121c-.22662.13084-.33993.34017-.33993.62892v.3607c.05869-.06285.13002-.11899.21398-.16746.23477-.13554.43816-.15392.61016-.05605s.258.28557.258.56498Z"/><path d="m66.47688,598.7482l-.98147.56665v-5.13397c0-.33641-.06725-.57418-.20135-.71356-.1341-.13844-.34808-.1233-.64154.04613-.27675.15978-.50133.40719-.67293.74174-.172.33479-.258.74795-.258,1.23761v4.84615s-.98147.56665-.98147.56665v-5.1919c0-.31772-.0754-.53584-.22621-.65528-.15121-.11921-.35216-.10693-.60404.0385-.30202.17437-.53475.43396-.6982.77783-.16344.3448-.24537.71916-.24537,1.12285v4.93212s-.98106.56642-.98106.56642v-7.15335s.98106-.56642.98106-.56642v.77841s.15121-.0873.15121-.0873c.10883-.39924.26819-.73888.4781-1.018.2095-.27981.45691-.50208.74222-.66681.30202-.17437.55147-.22681.74833-.15825.19727.06926.33341.22615.40922.4702l.15081-.08707c.2849-.81768.73773-1.40619,1.3589-1.76482.46954-.27109.83229-.30952,1.08826-.11622.25556.19353.38354.56445.38354,1.11205v5.50962Z"/><path d="m73.9879,590.92147c0,.59619-.086,1.17195-.258,1.72821s-.40066,1.07328-.68556,1.54988c-.28531.47684-.61872.90762-1.00022,1.29141s-.77808.69406-1.18893.93126c-.41941.24214-.81762.39075-1.19505.44513s-.70879.0074-.9941-.13999c-.2849-.14762-.51356-.40061-.68556-.75826s-.258-.8341-.258-1.43029v-.17288c0-.58685.086-1.15793.258-1.71419.172-.55533.4027-1.07632.69208-1.56018.28939-.4848.62279-.91745,1.00022-1.29889s.77156-.69029,1.18241-.9275.80539-.38369,1.18282-.43807.71083-.00671,1.00022.14393c.28939.14971.51967.40456.69168.76127.172.35765.258.82943.258,1.41628v.17288Zm-3.13271,4.43359c.30202-.17437.58081-.39514.83678-.66347.25556-.26716.48014-.5725.67293-.91462s.344-.70603.45324-1.09148c.10883-.38429.16344-.77933.16344-1.18302v-.17288c0-.385-.05462-.7067-.16344-.96532-.10923-.25933-.26045-.44862-.45324-.56813s-.41941-.16902-.67904-.14901c-.26045.02048-.5372.11578-.83066.28521s-.57021.39369-.83025.67372-.48666.59122-.67945.93334-.344.70603-.45283,1.09125c-.10923.38452-.16344.76905-.16344,1.15405v.17288c0,.40369.05421.7359.16344.99429.10883.25956.26004.44886.45283.56837s.41737.16553.67333.13736c.25556-.027.53435-.12815.83637-.30253Z"/><path d="m80.55494,589.52409l-.15081.08707c-.10067.27959-.22866.54598-.38354.798-.1557.25342-.32322.4847-.50337.69525-.18056.20984-.37131.3994-.57266.56798-.20094.16928-.39414.30698-.57877.41358-.41941.24214-.80947.38605-1.16977.43054-.36071.04473-.67741-.00792-.95009-.15886-.27268-.15001-.48625-.4089-.64154-.7762-.15529-.36636-.23273-.84309-.23273-1.42993v-.23081c0-.57657.07948-1.13921.23925-1.68842.15896-.54873.37294-1.05634.64154-1.52446.26819-.46695.58285-.88691.94356-1.2587.36031-.37156.74222-.67335,1.14491-.90585.42756-.24685.82822-.36977,1.20157-.36946.37294.00148.66029.16918.86164.50522l.15081-.08707v-4.0668s.98147-.56665.98147-.56665v10.09506s-.98147.56665-.98147.56665v-1.09613Zm-2.08848,1.4366c.29346-.16943.56614-.38947.81803-.66012.25148-.26948.47158-.57503.66029-.9148s.33748-.70133.44672-1.08678c.10883-.38522.16344-.77466.16344-1.169v-.17288c0-.385-.05462-.7067-.16344-.96532-.10923-.25933-.258-.45004-.44672-.5719s-.41085-.17396-.66681-.15607-.52619.10943-.81151.27415c-.29346.16943-.56818.39065-.82373.66341-.25596.27207-.4781.5788-.66681.91857s-.33585.69852-.4406,1.07578c-.10475.3782-.15692.75968-.15692,1.14374v.23081c0,.40369.05217.73427.15692.99058.10475.25724.25189.44422.4406.56047.18871.11719.40881.16393.66029.13834.25189-.02488.52864-.12486.83025-.299Z"/><path d="m84.06508,585.36319c.02527.69654.21806,1.15713.57877,1.38153.36031.22464.86368.15081,1.5097-.22217.29346-.16943.54902-.35529.76749-.55805.21806-.20346.40433-.41659.55962-.64081s.28083-.45276.37743-.68701c.0966-.23332.17404-.46773.23273-.70346l.93093-.24966c-.17608.76513-.50092,1.49374-.97495,2.18606-.47402.69138-1.11312,1.26969-1.91851,1.73468-.44468.25673-.85349.40399-1.22643.44176-.37335.03707-.69412-.03004-.96272-.20203-.2686-.17105-.4781-.43977-.62891-.80499-.15121-.36404-.22662-.82045-.22662-1.36898v-.34575c0-.49994.07744-1.01095.23273-1.53327s.37131-1.01989.64806-1.49178c.27675-.47283.6016-.90521.97495-1.29925.37335-.3931.77808-.71555,1.2142-.96734.51152-.29533.95375-.44225,1.3271-.44194.37335.00124.67945.09084.9187.27043.23885.17889.41492.42392.52823.73322s.16996.62328.16996.94007v.92325s-5.03248,2.9055-5.03248,2.9055Zm2.08848-4.26336c-.27675.15978-.53475.3592-.77401.59826-.23885.23882-.44875.50205-.62891.78828-.18056.2874-.32688.58588-.44019.89613s-.18667.61987-.2201.92791l4.02574-2.32426c-.01671-.29779-.08193-.53955-.19483-.72387-.11331-.18502-.26045-.31126-.4406-.38106-.18056-.06863-.38598-.08459-.61627-.04789-.23069.03788-.46791.12624-.71083.26649Z"/><path d="m90.97205,583.56771l2.26455-1.30744v-8.01867s-2.18874,1.26367-2.18874,1.26367v-1.03819s3.17021-1.83032,3.17021-1.83032v9.05686s2.26455-1.30744,2.26455-1.30744v1.03819s-5.51058,3.18153-5.51058,3.18153v-1.03819Z"/><path d="m99.32595,570.4951c0-.27847.08559-.56618.2576-.86266s.37946-.51531.62279-.6558.45079-.16121.62279-.06334.258.2865.258.56498v1.41292c0,.32706-.09008.6482-.27064.96457-.18015.3152-.41289.55516-.6982.71989l-.64154.37039v-.77841l.59141-.34145c.22621-.1306.33952-.34086.33952-.62868v-.3607c-.06725.0678-.13817.12276-.21358.16629-.23518.13578-.43856.15509-.61057.05722s-.2576-.28674-.2576-.56521Zm2.28982-1.32203c0-.27847.08559-.56618.2576-.86266s.37946-.51531.62279-.6558.45079-.16121.62279-.06334.258.2865.258.56498v1.41292c0,.32706-.09008.6482-.27064.96457-.18056.31544-.41329.5554-.6982.71989l-.64154.37039v-.77841l.59141-.34145c.22621-.1306.33952-.34086.33952-.62868v-.3607c-.06725.0678-.13817.12276-.21398.16653-.23477.13554-.43816.15485-.61016.05698s-.2576-.28674-.2576-.56521Z"/><path d="m115.71911,563.97221c0-.27847.08559-.56618.2576-.86266.172-.29554.37946-.51438.62279-.65486s.45079-.16121.62279-.06428c.172.09787.258.2865.258.56498,0,.27941-.086.56641-.258.86289s-.37946.51531-.62279.6558-.45079.16121-.62279.06334-.2576-.28581-.2576-.56521Zm0,5.53859c0-.27941.08559-.56618.2576-.86266s.37946-.51531.62279-.6558.45079-.16121.62279-.06334.258.28557.258.56498-.086.56641-.258.86289c-.172.29554-.37946.51438-.62279.65486s-.45079.16121-.62279.06428c-.172-.09787-.2576-.28674-.2576-.56521Z"/><path d="m131.58362,553.39992c0,.27847-.086.56641-.258.86289s-.37946.51438-.62279.65486-.45079.16215-.62279.06428-.2576-.28674-.2576-.56521v-1.41385c0-.32613.09008-.6482.27023-.9634.18056-.31544.41329-.55633.6982-.72082l.64195-.37063v.77935l-.59141.34145c-.22662.13084-.33952.33993-.33952.62868v.3607c.05828-.06262.12961-.11875.21358-.16723.23477-.13554.43816-.15392.61016-.05605s.258.28557.258.56498Zm2.28982-1.32203c0,.27847-.086.56641-.258.86289s-.37946.51438-.62279.65486-.45079.16215-.62279.06428-.2576-.28674-.2576-.56521v-1.41385c0-.32613.08967-.64796.27023-.9634.18015-.3152.41289-.5561.6982-.72082l.64154-.37039v.77935l-.591.34121c-.22662.13084-.33993.34017-.33993.62892v.3607c.05869-.06285.13002-.11899.21398-.16746.23477-.13554.43816-.15392.61016-.05605s.258.28557.258.56498Z"/><path d="m140.42785,556.05259l-1.93726,1.11848-2.17652-5.89674,1.15714-.66807,1.9124,5.52966.15121-.0873,1.91199-7.73768,1.15755-.66831-2.17652,8.40996Z"/><path d="m144.4915,552.66825l2.18915-1.26391v-5.07696s-1.96294,1.1333-1.96294,1.1333v-1.03819s2.944-1.69972,2.944-1.69972v6.11516s2.03834-1.17684,2.03834-1.17684v1.03819s-5.20856,3.00716-5.20856,3.00716v-1.03819Zm1.78645-9.28089c0-.27847.086-.56641.258-.86289.17159-.29624.37946-.51531.62279-.6558.24292-.14025.45079-.16121.62279-.06334.17159.0981.2576.28674.2576.56521s-.086.56641-.2576.86266c-.172.29648-.37987.51461-.62279.65486-.24333.14049-.4512.16238-.62279.06428-.172-.09787-.258-.2865-.258-.56498Z"/><path d="m156.49412,545.56565l-.15121.0873c-.20135.59656-.48014,1.11356-.83678,1.55028-.35623.43648-.73162.76815-1.12576.99571-.41126.23744-.79276.37827-1.14491.42273-.35216.04539-.6607-.01196-.92482-.17252-.26412-.15962-.47158-.42204-.62279-.78702-.15081-.36428-.22621-.84498-.22621-1.44117v-.23081c0-.58591.0754-1.14901.22621-1.68836.15121-.53865.35868-1.04063.62279-1.50616.26412-.4646.57266-.88103.92482-1.24788s.72551-.6637,1.11964-.89126c.42797-.24709.81558-.36248,1.16366-.34758.34808.01583.62279.19083.82414.52687l.15121-.0873v-1.1251l.98106-.56642v5.6825c0,.28782.11331.36724.33993.2364l.31425-.18143v1.03819l-.66681.38498c-.28531.16472-.51804.1935-.6982.08538-.18056-.10694-.27023-.3243-.27023-.65136v-.08597Zm-2.01307,1.508c.29346-.16943.5641-.38829.81151-.65635.247-.26689.45894-.56774.63543-.90045.17608-.33247.31425-.68791.41492-1.06843s.15121-.7676.15121-1.16194v-.17288c0-.385-.05054-.70905-.15121-.97238-.10067-.26427-.24129-.45968-.42145-.58649-.18056-.12657-.39414-.18361-.64154-.17066s-.51397.10237-.79887.26686c-.29387.16967-.56206.38712-.80539.65282-.24333.26477-.45487.56258-.63502.89273-.18056.33039-.32118.68537-.42145,1.06565-.10067.38052-.15121.76292-.15121,1.14699v.23081c0,.81766.18667,1.34626.56002,1.58766.37294.24164.85716.19009,1.45305-.15395Z"/><path d="m165.58983,541.52531l-.98147.56665v-5.13397c0-.33641-.06725-.57418-.20135-.71356-.1341-.13844-.34808-.1233-.64154.04613-.27675.15978-.50133.40719-.67293.74174-.172.33479-.258.74795-.258,1.23761v4.84615s-.98147.56665-.98147.56665v-5.1919c0-.31772-.0754-.53584-.22621-.65528-.15121-.11921-.35216-.10693-.60404.0385-.30202.17437-.53475.43396-.6982.77783-.16344.3448-.24537.71916-.24537,1.12285v4.93212s-.98106.56642-.98106.56642v-7.15335s.98106-.56642.98106-.56642v.77841s.15121-.0873.15121-.0873c.10883-.39924.26819-.73888.4781-1.018.2095-.27981.45691-.50208.74222-.66681.30202-.17437.55147-.22681.74833-.15825.19727.06926.33341.22615.40922.4702l.15081-.08707c.2849-.81768.73773-1.40619,1.3589-1.76482.46954-.27109.83229-.30952,1.08826-.11622.25556.19353.38354.56445.38354,1.11205v5.50962Z"/><path d="m169.08734,533.16006c0-.27847.08559-.56618.2576-.86266.172-.29554.37946-.51438.62279-.65486s.45079-.16121.62279-.06428c.172.09787.258.2865.258.56498,0,.27941-.086.56641-.258.86289s-.37946.51531-.62279.6558-.45079.16121-.62279.06334-.2576-.28581-.2576-.56521Zm0,5.53859c0-.27941.08559-.56618.2576-.86266s.37946-.51531.62279-.6558.45079-.16121.62279-.06334.258.28557.258.56498c0,.27847-.086.56641-.258.86289-.172.29554-.37946.51438-.62279.65486s-.45079.16121-.62279.06428c-.172-.09787-.2576-.28674-.2576-.56521Z"/><path d="m178.54825,534.04377l-1.93726,1.11848-2.17652-5.89674,1.15714-.66807,1.9124,5.52966.15121-.0873,1.91199-7.73768,1.15755-.66831-2.17652,8.40996Z"/><path d="m182.61189,530.65943l2.18915-1.26391v-5.07696s-1.96294,1.1333-1.96294,1.1333v-1.03819s2.944-1.69972,2.944-1.69972v6.11516s2.03834-1.17684,2.03834-1.17684v1.03819s-5.20856,3.00716-5.20856,3.00716v-1.03819Zm1.78645-9.28089c0-.27847.086-.56641.258-.86289.17159-.29624.37946-.51531.62279-.6558.24292-.14025.45079-.16121.62279-.06334.17159.0981.2576.28674.2576.56521,0,.27847-.086.56641-.2576.86266-.172.29648-.37987.51461-.62279.65486-.24333.14049-.4512.16238-.62279.06428-.172-.09787-.258-.2865-.258-.56498Z"/><path d="m191.38072,521.32716c0,.34669.12757.53749.38354.57193.25596.03537.72347-.11493,1.40291-.44927.72958-.35394,1.28512-.47471,1.66703-.36347.3815.11148.57225.48447.57225,1.11897v.08597c0,.34669-.06073.69199-.18219,1.03592-.12187.34416-.28939.67449-.50337.9896-.21398.31604-.47402.61289-.78012.89054s-.6395.5206-1.00022.72886c-.48625.28074-.90362.44695-1.2517.49933-.34808.05145-.63747.02135-.86816-.09029s-.40473-.29056-.52212-.5349-.18464-.52043-.20135-.8285l.93093-.79725c.04198.52429.22662.85689.55391.99967.32688.14301.763.05755,1.30835-.25731.46098-.26615.83229-.58425,1.11312-.9529.28124-.36889.42185-.74069.42185-1.11635s-.13858-.6115-.41533-.62553c-.27675-.01309-.72551.13573-1.34626.44553-.72143.35951-1.27493.48658-1.66051.38213-.38598-.10422-.57877-.46855-.57877-1.09371v-.08691c0-.33641.06277-.66794.18871-.99576.12594-.32689.2955-.63878.50948-.9352.21398-.29735.45487-.56632.72347-.80737.26819-.24175.54902-.44687.84289-.61653.41085-.2372.77156-.38098,1.08174-.43017.31058-.04942.57062-.03135.78012.05421.2095.0865.37131.23043.48462.43414.1129.20488.18627.43165.2201.68124l-.93093.79632c-.04239-.43622-.20379-.70374-.48462-.80138s-.64766-.01575-1.10089.24593c-.17608.10166-.34563.22104-.50948.35956-.16344.13735-.30814.28537-.43408.44499-.12554.15938-.22621.32497-.30161.4984-.07581.17366-.11331.34669-.11331.51957Z"/><path d="m197.86013,521.85585l2.18915-1.26391v-5.07696s-1.96294,1.1333-1.96294,1.1333v-1.03819s2.944-1.69972,2.944-1.69972v6.11516s2.03834-1.17684,2.03834-1.17684v1.03819s-5.20856,3.00716-5.20856,3.00716v-1.03819Zm1.78645-9.28089c0-.27847.086-.56641.258-.86289.17159-.29624.37946-.51531.62279-.6558.24292-.14025.45079-.16121.62279-.06334.17159.0981.2576.28674.2576.56521,0,.27847-.086.56641-.2576.86266-.172.29648-.37987.51461-.62279.65486-.24333.14049-.4512.16238-.62279.06428-.172-.09787-.258-.2865-.258-.56498Z"/><path d="m211.22084,511.69c0,.59619-.086,1.17195-.258,1.72821s-.40066,1.07328-.68556,1.54988c-.28531.47684-.61872.90762-1.00022,1.29141s-.77808.69406-1.18893.93126c-.41941.24214-.81762.39075-1.19505.44513s-.70879.0074-.9941-.13999c-.2849-.14762-.51356-.40061-.68556-.75826s-.258-.8341-.258-1.43029v-.17288c0-.58685.086-1.15793.258-1.71419.172-.55533.4027-1.07632.69208-1.56018.28939-.4848.62279-.91745,1.00022-1.29889s.77156-.69029,1.18241-.9275.80539-.38369,1.18282-.43807.71083-.00671,1.00022.14393c.28939.14971.51967.40456.69168.76127.172.35765.258.82943.258,1.41628v.17288Zm-3.13271,4.43359c.30202-.17437.58081-.39514.83678-.66347.25556-.26716.48014-.5725.67293-.91462s.344-.70603.45324-1.09148c.10883-.38429.16344-.77933.16344-1.18302v-.17288c0-.385-.05462-.7067-.16344-.96532-.10923-.25933-.26045-.44862-.45324-.56813s-.41941-.16902-.67904-.14901c-.26045.02048-.5372.11578-.83066.28521s-.57021.39369-.83025.67372-.48666.59122-.67945.93334-.344.70603-.45283,1.09125c-.10923.38452-.16344.76905-.16344,1.15405v.17288c0,.40369.05421.7359.16344.99429.10883.25956.26004.44886.45283.56837s.41737.16553.67333.13736c.25556-.027.53435-.12815.83637-.30253Z"/><path d="m213.93863,513.61112l-.98147.56665v-7.15335s.98147-.56665.98147-.56665v1.21107s.15081-.08707.15081-.08707c.38598-1.16479,1.05687-2.0231,2.01307-2.57516.72143-.41652,1.29572-.49111,1.72369-.2233.42756.26711.64154.91543.64154,1.94428v4.26865s-.98106.56642-.98106.56642v-4.03784c0-.75038-.14714-1.22798-.4406-1.43327s-.69168-.16321-1.19505.12741c-.59589.34404-1.06299.84733-1.40291,1.50989-.33952.66232-.50948,1.38281-.50948,2.16122v3.72105Z"/><path d="m222.45598,502.34766c0-.27847.08559-.56618.2576-.86266.172-.29554.37946-.51438.62279-.65486s.45079-.16121.62279-.06428c.172.09787.258.2865.258.56498,0,.27941-.086.56641-.258.86289s-.37946.51531-.62279.6558-.45079.16121-.62279.06334-.2576-.28581-.2576-.56521Zm0,5.53859c0-.27941.08559-.56618.2576-.86266s.37946-.51531.62279-.6558.45079-.16121.62279-.06334.258.28557.258.56498-.086.56641-.258.86289c-.172.29554-.37946.51438-.62279.65486s-.45079.16121-.62279.06428c-.172-.09787-.2576-.28674-.2576-.56521Z"/><path d="m234.20631,501.90958l-.98147.56665v-5.13397c0-.33641-.06725-.57418-.20135-.71356-.1341-.13844-.34808-.1233-.64154.04613-.27675.15978-.50133.40719-.67293.74174-.172.33479-.258.74795-.258,1.23761v4.84615s-.98147.56665-.98147.56665v-5.1919c0-.31772-.0754-.53584-.22621-.65528-.15121-.11921-.35216-.10693-.60404.0385-.30202.17437-.53475.43396-.6982.77783-.16344.3448-.24537.71916-.24537,1.12285v4.93212s-.98106.56642-.98106.56642v-7.15335s.98106-.56642.98106-.56642v.77841s.15121-.0873.15121-.0873c.10883-.39924.26819-.73888.4781-1.018.2095-.27981.45691-.50208.74222-.66681.30202-.17437.55147-.22681.74833-.15825.19727.06926.33341.22615.40922.4702l.15081-.08707c.2849-.81768.73773-1.40619,1.3589-1.76482.46954-.27109.83229-.30952,1.08826-.11622.25556.19353.38354.56445.38354,1.11205v5.50962Z"/><path d="m241.71732,494.08285c0,.59619-.086,1.17195-.258,1.72821s-.40066,1.07328-.68556,1.54988c-.28531.47684-.61872.90762-1.00022,1.29141s-.77808.69406-1.18893.93126c-.41941.24214-.81762.39075-1.19505.44513s-.70879.0074-.9941-.13999c-.2849-.14762-.51356-.40061-.68556-.75826s-.258-.8341-.258-1.43029v-.17288c0-.58685.086-1.15793.258-1.71419.172-.55533.4027-1.07632.69208-1.56018.28939-.4848.62279-.91745,1.00022-1.29889s.77156-.69029,1.18241-.9275.80539-.38369,1.18282-.43807.71083-.00671,1.00022.14393c.28939.14971.51967.40456.69168.76127.172.35765.258.82943.258,1.41628v.17288Zm-3.13271,4.43359c.30202-.17437.58081-.39514.83678-.66347.25556-.26716.48014-.5725.67293-.91462s.344-.70603.45324-1.09148c.10883-.38429.16344-.77933.16344-1.18302v-.17288c0-.385-.05462-.7067-.16344-.96532-.10923-.25933-.26045-.44862-.45324-.56813s-.41941-.16902-.67904-.14901c-.26045.02048-.5372.11578-.83066.28521s-.57021.39369-.83025.67372-.48666.59122-.67945.93334-.344.70603-.45283,1.09125c-.10923.38452-.16344.76905-.16344,1.15405v.17288c0,.40369.05421.7359.16344.99429.10883.25956.26004.44886.45283.56837s.41737.16553.67333.13736c.25556-.027.53435-.12815.83637-.30253Z"/><path d="m243.23966,489.54082l1.96253-1.13307v-2.9417s.98147-.56665.98147-.56665v2.9417s2.41536-1.39451,2.41536-1.39451v1.03819s-2.41536,1.39451-2.41536,1.39451v4.64431c0,.28782.1129.36747.33952.23664l1.77382-1.02411v1.03819s-2.12597,1.22743-2.12597,1.22743c-.28531.16472-.51804.1935-.6982.08538-.18056-.10694-.27064-.32406-.27064-.65113v-4.99006s-1.96253,1.13307-1.96253,1.13307v-1.03819Z"/><path d="m251.22837,491.04369l2.18915-1.26391v-5.07696s-1.96294,1.1333-1.96294,1.1333v-1.03819s2.944-1.69972,2.944-1.69972v6.11516s2.03834-1.17684,2.03834-1.17684v1.03819s-5.20856,3.00716-5.20856,3.00716v-1.03819Zm1.78645-9.28089c0-.27847.086-.56641.258-.86289.17159-.29624.37946-.51531.62279-.6558.24292-.14025.45079-.16121.62279-.06334.17159.0981.2576.28674.2576.56521s-.086.56641-.2576.86266c-.172.29648-.37987.51461-.62279.65486-.24333.14049-.4512.16238-.62279.06428-.172-.09787-.258-.2865-.258-.56498Z"/><path d="m264.58948,480.87761c0,.59619-.086,1.17195-.258,1.72821s-.40066,1.07328-.68556,1.54988c-.28531.47684-.61872.90762-1.00022,1.29141s-.77808.69406-1.18893.93126c-.41941.24214-.81762.39075-1.19505.44513s-.70879.0074-.9941-.13999c-.2849-.14762-.51356-.40061-.68556-.75826s-.258-.8341-.258-1.43029v-.17288c0-.58685.086-1.15793.258-1.71419.172-.55533.4027-1.07632.69208-1.56018.28939-.4848.62279-.91745,1.00022-1.29889s.77156-.69029,1.18241-.9275.80539-.38369,1.18282-.43807.71083-.00671,1.00022.14393c.28939.14971.51967.40456.69168.76127.172.35765.258.82943.258,1.41628v.17288Zm-3.13271,4.43359c.30202-.17437.58081-.39514.83678-.66347.25556-.26716.48014-.5725.67293-.91462s.344-.70603.45324-1.09148c.10883-.38429.16344-.77933.16344-1.18302v-.17288c0-.385-.05462-.7067-.16344-.96532-.10923-.25933-.26045-.44862-.45324-.56813s-.41941-.16902-.67904-.14901c-.26045.02048-.5372.11578-.83066.28521s-.57021.39369-.83025.67372-.48666.59122-.67945.93334-.344.70603-.45283,1.09125c-.10923.38452-.16344.76905-.16344,1.15405v.17288c0,.40369.05421.7359.16344.99429.10883.25956.26004.44886.45283.56837s.41737.16553.67333.13736c.25556-.027.53435-.12815.83637-.30253Z"/><path d="m267.30686,482.79897l-.98147.56665v-7.15335s.98147-.56665.98147-.56665v1.21107s.15081-.08707.15081-.08707c.38598-1.16479,1.05687-2.0231,2.01307-2.57516.72143-.41652,1.29572-.49111,1.72369-.2233.42756.26711.64154.91543.64154,1.94428v4.26865s-.98106.56642-.98106.56642v-4.03784c0-.75038-.14714-1.22798-.4406-1.43327s-.69168-.16321-1.19505.12741c-.59589.34404-1.06299.84733-1.40291,1.50989-.33952.66232-.50948,1.38281-.50948,2.16122v3.72105Z"/><path d="m273.77364,474.79672l5.86273-3.38485v1.03819s-5.86273,3.38485-5.86273,3.38485v-1.03819Z"/><path d="m286.40476,470.67666l-.15081.08707c-.10067.27959-.22866.54598-.38354.798-.1557.25342-.32322.4847-.50337.69525-.18056.20984-.37131.3994-.57266.56798-.20094.16928-.39414.30698-.57877.41358-.41941.24214-.80947.38605-1.16977.43054-.36071.04473-.67741-.00792-.95009-.15886-.27268-.15001-.48625-.4089-.64154-.7762-.15529-.36636-.23273-.84309-.23273-1.42993v-.23081c0-.57657.07948-1.13921.23925-1.68842.15896-.54873.37294-1.05634.64154-1.52446.26819-.46695.58285-.88691.94356-1.2587.36031-.37156.74222-.67335,1.14491-.90585.42756-.24685.82822-.36977,1.20157-.36946.37294.00148.66029.16918.86164.50522l.15081-.08707v-4.0668s.98147-.56665.98147-.56665v10.09506s-.98147.56665-.98147.56665v-1.09613Zm-2.08848,1.4366c.29346-.16943.56614-.38947.81803-.66012.25148-.26948.47158-.57503.66029-.9148s.33748-.70133.44672-1.08678c.10883-.38522.16344-.77466.16344-1.169v-.17288c0-.385-.05462-.7067-.16344-.96532-.10923-.25933-.258-.45004-.44672-.5719s-.41085-.17396-.66681-.15607-.52619.10943-.81151.27415c-.29346.16943-.56818.39065-.82373.66341-.25596.27207-.4781.5788-.66681.91857s-.33585.69852-.4406,1.07578c-.10475.3782-.15692.75968-.15692,1.14374v.23081c0,.40369.05217.73427.15692.99058.10475.25724.25189.44422.4406.56047.18871.11719.40881.16393.66029.13834.25189-.02488.52864-.12486.83025-.299Z"/><path d="m289.9149,466.51575c.02527.69654.21806,1.15713.57877,1.38153.36031.22464.86368.15081,1.5097-.22217.29346-.16943.54902-.35529.76749-.55805.21806-.20346.40433-.41659.55962-.64081s.28083-.45276.37743-.68701c.0966-.23332.17404-.46773.23273-.70346l.93093-.24966c-.17608.76513-.50092,1.49374-.97495,2.18606-.47402.69138-1.11312,1.26969-1.91851,1.73468-.44468.25673-.85349.40399-1.22643.44176-.37335.03707-.69412-.03004-.96272-.20203-.2686-.17105-.4781-.43977-.62891-.80499-.15121-.36404-.22662-.82045-.22662-1.36898v-.34575c0-.49994.07744-1.01095.23273-1.53327s.37131-1.01989.64806-1.49178c.27675-.47283.6016-.90521.97495-1.29925.37335-.3931.77808-.71555,1.2142-.96734.51152-.29533.95375-.44225,1.3271-.44194.37335.00124.67945.09084.9187.27043.23885.17889.41492.42392.52823.73322s.16996.62328.16996.94007v.92325s-5.03248,2.9055-5.03248,2.9055Zm2.08848-4.26336c-.27675.15978-.53475.3592-.77401.59826-.23885.23882-.44875.50205-.62891.78828-.18056.2874-.32688.58588-.44019.89613s-.18667.61987-.2201.92791l4.02574-2.32426c-.01671-.29779-.08193-.53955-.19483-.72387-.11331-.18502-.26045-.31126-.4406-.38106-.18056-.06863-.38598-.08459-.61627-.04789-.23069.03788-.46791.12624-.71083.26649Z"/><path d="m296.6083,458.72842l1.96253-1.13307v-2.9417s.98147-.56665.98147-.56665v2.9417s2.41536-1.39451,2.41536-1.39451v1.03819s-2.41536,1.39451-2.41536,1.39451v4.64431c0,.28782.1129.36747.33952.23664l1.77382-1.02411v1.03819s-2.12597,1.22743-2.12597,1.22743c-.28531.16472-.51804.1935-.6982.08538-.18056-.10694-.27064-.32406-.27064-.65113v-4.99006s-1.96253,1.13307-1.96253,1.13307v-1.03819Z"/><path d="m305.16314,457.71218c.02527.69654.21806,1.15713.57877,1.38153.36031.22464.86368.15081,1.5097-.22217.29346-.16943.54902-.35529.76749-.55805.21806-.20346.40433-.41659.55962-.64081s.28083-.45276.37743-.68701c.0966-.23332.17404-.46773.23273-.70346l.93093-.24966c-.17608.76513-.50092,1.49374-.97495,2.18606-.47402.69138-1.11312,1.26969-1.91851,1.73468-.44468.25673-.85349.40399-1.22643.44176-.37335.03707-.69412-.03004-.96272-.20203-.2686-.17105-.4781-.43977-.62891-.80499-.15121-.36404-.22662-.82045-.22662-1.36898v-.34575c0-.49994.07744-1.01095.23273-1.53327s.37131-1.01989.64806-1.49178c.27675-.47283.6016-.90521.97495-1.29925.37335-.3931.77808-.71555,1.2142-.96734.51152-.29533.95375-.44225,1.3271-.44194.37335.00124.67945.09084.9187.27043.23885.17889.41492.42392.52823.73322s.16996.62328.16996.94007v.92325s-5.03248,2.9055-5.03248,2.9055Zm2.08848-4.26336c-.27675.15978-.53475.3592-.77401.59826-.23885.23882-.44875.50205-.62891.78828-.18056.2874-.32688.58588-.44019.89613s-.18667.61987-.2201.92791l4.02574-2.32426c-.01671-.29779-.08193-.53955-.19483-.72387-.11331-.18502-.26045-.31126-.4406-.38106-.18056-.06863-.38598-.08459-.61627-.04789-.23069.03788-.46791.12624-.71083.26649Z"/><path d="m317.90758,451.04662c-.06725.43317-.1826.86515-.34604,1.29592s-.37131.8414-.62279,1.23143c-.25148.39096-.54535.75032-.8808,1.07855s-.70879.61107-1.11964.84827c-.43612.25179-.849.40887-1.23906.47054s-.73203.02081-1.02549-.12187c-.29387-.14245-.5266-.39028-.6982-.74349-.172-.35298-.258-.82195-.258-1.4088v-.17288c0-.5775.086-1.14578.258-1.70672.17159-.5607.40433-1.08474.6982-1.57119.29346-.48715.63543-.92941,1.02549-1.32749s.80295-.72336,1.23906-.97516c.39414-.22755.75893-.37089,1.09478-.43023.33504-.05887.63094-.04002.88691.05797.25556.09728.46546.26671.62891.50876.16344.24298.27471.54411.33341.90364l-.98147.82643c-.02486-.23515-.086-.44281-.18219-.62276-.0966-.17971-.22662-.31117-.39006-.39528-.16344-.08319-.36275-.11015-.59752-.0802-.23518.03019-.50785.13435-.81803.31343-.30161.17414-.58489.40216-.849.68454s-.49685.5999-.6982.95164-.35868.72384-.47199,1.11633-.16956.78005-.16956,1.16506v.17288c0,.40369.05625.73472.16956.99076.11331.25697.27064.43807.47199.54235.20135.10522.43571.14092.70431.10545.2686-.03453.55799-.1418.86816-.32088s.58081-.39047.81151-.63392c.23069-.24439.42756-.50196.59141-.77411.16344-.27285.29346-.55163.39006-.83821.09619-.28635.1614-.56416.19483-.83389l.98147-.30687Z"/><path d="m319.48046,445.52318l1.96253-1.13307v-2.9417s.98147-.56665.98147-.56665v2.9417s2.41536-1.39451,2.41536-1.39451v1.03819s-2.41536,1.39451-2.41536,1.39451v4.64431c0,.28782.1129.36747.33952.23664l1.77382-1.02411v1.03819s-2.12597,1.22743-2.12597,1.22743c-.28531.16472-.51804.1935-.6982.08538-.18056-.10694-.27064-.32406-.27064-.65113v-4.99006s-1.96253,1.13307-1.96253,1.13307v-1.03819Z"/><path d="m333.20595,441.26188c0,.59619-.086,1.17195-.258,1.72821s-.40066,1.07328-.68556,1.54988c-.28531.47684-.61872.90762-1.00022,1.29141s-.77808.69406-1.18893.93126c-.41941.24214-.81762.39075-1.19505.44513s-.70879.0074-.9941-.13999c-.2849-.14762-.51356-.40061-.68556-.75826s-.258-.8341-.258-1.43029v-.17288c0-.58685.086-1.15793.258-1.71419.172-.55533.4027-1.07632.69208-1.56018.28939-.4848.62279-.91745,1.00022-1.29889s.77156-.69029,1.18241-.9275.80539-.38369,1.18282-.43807.71083-.00671,1.00022.14393c.28939.14971.51967.40456.69168.76127.172.35765.258.82943.258,1.41628v.17288Zm-3.13271,4.43359c.30202-.17437.58081-.39514.83678-.66347.25556-.26716.48014-.5725.67293-.91462s.344-.70603.45324-1.09148c.10883-.38429.16344-.77933.16344-1.18302v-.17288c0-.385-.05462-.7067-.16344-.96532-.10923-.25933-.26045-.44862-.45324-.56813s-.41941-.16902-.67904-.14901c-.26045.02048-.5372.11578-.83066.28521s-.57021.39369-.83025.67372-.48666.59122-.67945.93334-.344.70603-.45283,1.09125c-.10923.38452-.16344.76905-.16344,1.15405v.17288c0,.40369.05421.7359.16344.99429.10883.25956.26004.44886.45283.56837s.41737.16553.67333.13736c.25556-.027.53435-.12815.83637-.30253Z"/><path d="m334.58971,436.79985l2.26455-1.30744v.95222s.15121-.0873.15121-.0873c.15896-.48612.38558-.90758.67904-1.26484s.62931-.64461,1.00674-.86252c.62891-.3631,1.13635-.42059,1.52234-.17246.38558.24836.591.81753.61627,1.70657l-1.0316.76847c0-.66347-.13817-1.06121-.41533-1.19462-.27675-.13364-.61627-.08433-1.01897.14817-.26004.15013-.48421.3375-.67293.56139-.18871.22483-.34604.47359-.47199.74908-.12554.27432-.21806.56323-.27675.86624s-.08804.60871-.08804.91615v3.02861s1.58511-.91516,1.58511-.91516v1.03819s-4.00047,2.30967-4.00047,2.30967v-1.03819s1.4343-.82809,1.4343-.82809v-5.07696s-1.28349.74102-1.28349.74102v-1.03819Z"/><path d="m343.29618,429.63884c0-.27847.08559-.56618.2576-.86266s.37946-.51531.62279-.6558.45079-.16121.62279-.06334.258.2865.258.56498v1.41292c0,.32706-.09008.6482-.27064.96457-.18015.3152-.41289.55516-.6982.71989l-.64154.37039v-.77841l.59141-.34145c.22621-.1306.33952-.34086.33952-.62868v-.3607c-.06725.0678-.13817.12276-.21358.16629-.23518.13578-.43856.15509-.61057.05722s-.2576-.28674-.2576-.56521Zm2.28982-1.32203c0-.27847.08559-.56618.2576-.86266s.37946-.51531.62279-.6558.45079-.16121.62279-.06334.258.2865.258.56498v1.41292c0,.32706-.09008.6482-.27064.96457-.18056.31544-.41329.5554-.6982.71989l-.64154.37039v-.77841l.59141-.34145c.22621-.1306.33952-.34086.33952-.62868v-.3607c-.06725.0678-.13817.12276-.21398.16653-.23477.13554-.43816.15485-.61016.05698s-.2576-.28674-.2576-.56521Z"/><path d="m55.34282,618.24311c0,.27847-.086.56641-.258.86289s-.37946.51438-.62279.65486-.45079.16215-.62279.06428-.2576-.28674-.2576-.56521v-1.41385c0-.32613.09008-.6482.27023-.9634.18056-.31544.41329-.55633.6982-.72082l.64195-.37063v.77935l-.59141.34145c-.22662.13084-.33952.33993-.33952.62868v.3607c.05828-.06262.12961-.11875.21358-.16723.23477-.13554.43816-.15392.61016-.05605s.258.28557.258.56498Zm2.28982-1.32203c0,.27847-.086.56641-.258.86289s-.37946.51438-.62279.65486-.45079.16215-.62279.06428-.2576-.28674-.2576-.56521v-1.41385c0-.32613.08967-.64796.27023-.9634.18015-.3152.41289-.5561.6982-.72082l.64154-.37039v.77935l-.591.34121c-.22662.13084-.33993.34017-.33993.62892v.3607c.05869-.06285.13002-.11899.21398-.16746.23477-.13554.43816-.15392.61016-.05605s.258.28557.258.56498Z"/><path d="m65.00508,619.21242l-.15121.0873c-.20135.59656-.48014,1.11356-.83678,1.55028-.35623.43648-.73162.76815-1.12576.99571-.41126.23744-.79276.37827-1.14491.42273-.35216.04539-.6607-.01196-.92482-.17252-.26412-.15962-.47158-.42204-.62279-.78702-.15081-.36428-.22621-.84498-.22621-1.44117v-.23081c0-.58591.0754-1.14901.22621-1.68836.15121-.53865.35868-1.04063.62279-1.50616.26412-.4646.57266-.88103.92482-1.24788s.72551-.6637,1.11964-.89126c.42797-.24709.81558-.36248,1.16366-.34758.34808.01583.62279.19083.82414.52687l.15121-.0873v-1.1251l.98106-.56642v5.6825c0,.28782.11331.36724.33993.2364l.31425-.18143v1.03819l-.66681.38498c-.28531.16472-.51804.1935-.6982.08538-.18056-.10694-.27023-.3243-.27023-.65136v-.08597Zm-2.01307,1.508c.29346-.16943.5641-.38829.81151-.65635.247-.26689.45894-.56774.63543-.90045.17608-.33247.31425-.68791.41492-1.06843s.15121-.7676.15121-1.16194v-.17288c0-.385-.05054-.70905-.15121-.97238-.10067-.26427-.24129-.45968-.42145-.58649-.18056-.12657-.39414-.18361-.64154-.17066s-.51397.10237-.79887.26686c-.29387.16967-.56206.38712-.80539.65282-.24333.26477-.45487.56258-.63502.89273-.18056.33039-.32118.68537-.42145,1.06565-.10067.38052-.15121.76292-.15121,1.14699v.23081c0,.81766.18667,1.34626.56002,1.58766.37294.24164.85716.19009,1.45305-.15395Z"/><path d="m68.85474,621.08559l-.98106.56642v-10.03805s.98106-.56642.98106-.56642v1.1251s.15121-.0873.15121-.0873c.21806-.55856.52008-1.06279.90566-1.51061.38598-.44899.80539-.80421,1.25822-1.06565.38558-.22261.75037-.35193,1.09437-.387s.64806.02486.91218.18074c.26412.15495.47402.41316.62931.77578.15488.36286.23273.83187.23273,1.40844v.28875c0,.58685-.07581,1.14925-.22662,1.6886-.15081.53842-.35868,1.03876-.62279,1.49869s-.57225.87145-.92482,1.23292c-.35216.36218-.72551.65716-1.11964.88471-.20135.11625-.40677.20868-.61627.27637-.20991.06886-.40881.10146-.59752.10015s-.36316-.03609-.52212-.10224c-.15977-.06661-.29387-.17889-.4027-.33753l-.15121.0873v3.98083Zm2.08848-4.9558c.30202-.17437.57877-.39396.83066-.65994.25148-.2648.47158-.56289.66029-.89331.18871-.32949.33544-.68426.44019-1.06153.10516-.37843.15733-.76365.15733-1.158v-.28875c0-.38407-.05217-.7025-.15733-.95484-.10475-.25163-.25148-.43605-.44019-.55323s-.41085-.16462-.66681-.14112c-.25596.02256-.53068.11856-.82414.28799s-.56614.39134-.81762.66642-.47158.58251-.6607.92251c-.18871.33977-.33748.70226-.44631,1.08748-.10923.38452-.16385.76928-.16385,1.15429v.17288c0,.39435.05462.72071.16385.98004.10883.25956.2576.44934.44631.5712.18912.12162.40922.17304.6607.15213.25148-.01997.52416-.11479.81762-.28422Z"/><path d="m75.87502,613.10953l2.18915-1.26391v-5.07696s-1.96294,1.1333-1.96294,1.1333v-1.03819s2.944-1.69972,2.944-1.69972v6.11516s2.03834-1.17684,2.03834-1.17684v1.03819s-5.20856,3.00716-5.20856,3.00716v-1.03819Zm1.78645-9.28089c0-.27847.086-.56641.258-.86289.17159-.29624.37946-.51531.62279-.6558.24292-.14025.45079-.16121.62279-.06334.17159.0981.2576.28674.2576.56521s-.086.56641-.2576.86266c-.172.29648-.37987.51461-.62279.65486-.24333.14049-.4512.16238-.62279.06428-.172-.09787-.258-.2865-.258-.56498Z"/><path d="m84.07771,600.12423c0-.27847.08559-.56618.2576-.86266s.37946-.51531.62279-.6558.45079-.16121.62279-.06334.258.2865.258.56498v1.41292c0,.32706-.09008.6482-.27064.96457-.18015.3152-.41289.55516-.6982.71989l-.64154.37039v-.77841l.59141-.34145c.22621-.1306.33952-.34086.33952-.62868v-.3607c-.06725.0678-.13817.12276-.21358.16629-.23518.13578-.43856.15509-.61057.05722s-.2576-.28674-.2576-.56521Zm2.28982-1.32203c0-.27847.08559-.56618.2576-.86266s.37946-.51531.62279-.6558.45079-.16121.62279-.06334.258.2865.258.56498v1.41292c0,.32706-.09008.6482-.27064.96457-.18056.31544-.41329.5554-.6982.71989l-.64154.37039v-.77841l.59141-.34145c.22621-.1306.33952-.34086.33952-.62868v-.3607c-.06725.0678-.13817.12276-.21398.16653-.23477.13554-.43816.15485-.61016.05698s-.2576-.28674-.2576-.56521Z"/><path d="m100.47087,593.60134c0-.27847.08559-.56618.2576-.86266.172-.29554.37946-.51438.62279-.65486s.45079-.16121.62279-.06428c.172.09787.258.2865.258.56498,0,.27941-.086.56641-.258.86289s-.37946.51531-.62279.6558-.45079.16121-.62279.06334-.2576-.28581-.2576-.56521Zm0,5.53859c0-.27941.08559-.56618.2576-.86266s.37946-.51531.62279-.6558.45079-.16121.62279-.06334.258.28557.258.56498-.086.56641-.258.86289c-.172.29554-.37946.51438-.62279.65486s-.45079.16121-.62279.06428c-.172-.09787-.2576-.28674-.2576-.56521Z"/><path d="m116.33538,583.02905c0,.27847-.086.56641-.258.86289s-.37946.51438-.62279.65486-.45079.16215-.62279.06428-.2576-.28674-.2576-.56521v-1.41385c0-.32613.09008-.6482.27023-.9634.18056-.31544.41329-.55633.6982-.72082l.64195-.37063v.77935l-.59141.34145c-.22662.13084-.33952.33993-.33952.62868v.3607c.05828-.06262.12961-.11875.21358-.16723.23477-.13554.43816-.15392.61016-.05605s.258.28557.258.56498Zm2.28982-1.32203c0,.27847-.086.56641-.258.86289s-.37946.51438-.62279.65486-.45079.16215-.62279.06428-.2576-.28674-.2576-.56521v-1.41385c0-.32613.08967-.64796.27023-.9634.18015-.3152.41289-.5561.6982-.72082l.64154-.37039v.77935l-.591.34121c-.22662.13084-.33993.34017-.33993.62892v.3607c.05869-.06285.13002-.11899.21398-.16746.23477-.13554.43816-.15392.61016-.05605s.258.28557.258.56498Z"/><path d="m121.11597,580.87451l2.26455-1.30744v.95222s.15121-.0873.15121-.0873c.15896-.48612.38558-.90758.67904-1.26484s.62931-.64461,1.00674-.86252c.62891-.3631,1.13635-.42059,1.52234-.17246.38558.24836.591.81753.61627,1.70657l-1.0316.76847c0-.66347-.13817-1.06121-.41533-1.19462-.27675-.13364-.61627-.08433-1.01897.14817-.26004.15013-.48421.3375-.67293.56139-.18871.22483-.34604.47359-.47199.74908-.12554.27432-.21806.56323-.27675.86624s-.08804.60871-.08804.91615v3.02861s1.58511-.91516,1.58511-.91516v1.03819s-4.00047,2.30967-4.00047,2.30967v-1.03819s1.4343-.82809,1.4343-.82809v-5.07696s-1.28349.74102-1.28349.74102v-1.03819Z"/><path d="m133.92358,579.53725l-.15081.08707c-.10067.27959-.22866.54598-.38354.798-.1557.25342-.32322.4847-.50337.69525-.18056.20984-.37131.3994-.57266.56798-.20094.16928-.39414.30698-.57877.41358-.41941.24214-.80947.38605-1.16977.43054-.36071.04473-.67741-.00792-.95009-.15886-.27268-.15001-.48625-.4089-.64154-.7762-.15529-.36636-.23273-.84309-.23273-1.42993v-.23081c0-.57657.07948-1.13921.23925-1.68842.15896-.54873.37294-1.05634.64154-1.52446.26819-.46695.58285-.88691.94356-1.2587.36031-.37156.74222-.67335,1.14491-.90585.42756-.24685.82822-.36977,1.20157-.36946.37294.00148.66029.16918.86164.50522l.15081-.08707v-4.0668s.98147-.56665.98147-.56665v10.09506s-.98147.56665-.98147.56665v-1.09613Zm-2.08848,1.4366c.29346-.16943.56614-.38947.81803-.66012.25148-.26948.47158-.57503.66029-.9148s.33748-.70133.44672-1.08678c.10883-.38522.16344-.77466.16344-1.169v-.17288c0-.385-.05462-.7067-.16344-.96532-.10923-.25933-.258-.45004-.44672-.5719s-.41085-.17396-.66681-.15607-.52619.10943-.81151.27415c-.29346.16943-.56818.39065-.82373.66341-.25596.27207-.4781.5788-.66681.91857s-.33585.69852-.4406,1.07578c-.10475.3782-.15692.75968-.15692,1.14374v.23081c0,.40369.05217.73427.15692.99058.10475.25724.25189.44422.4406.56047.18871.11719.40881.16393.66029.13834.25189-.02488.52864-.12486.83025-.299Z"/><path d="m138.32674,573.90854l.21398-.12354,2.37786-4.34353,1.20768-.69725v.08691l-2.59144,4.76961v.25978s2.89346,1.77578,2.89346,1.77578v.08691l-1.20768.69725-2.65461-1.61184-.23925.13813v3.14448s-.98106.56642-.98106.56642v-10.09506s.98106-.56642.98106-.56642v5.91238Z"/><path d="m146.21518,567.19085c0-.27847.08559-.56618.2576-.86266.172-.29554.37946-.51438.62279-.65486s.45079-.16121.62279-.06428c.172.09787.258.2865.258.56498s-.086.56641-.258.86289-.37946.51531-.62279.6558-.45079.16121-.62279.06334-.2576-.28581-.2576-.56521Zm0,5.53859c0-.27941.08559-.56618.2576-.86266s.37946-.51531.62279-.6558.45079-.16121.62279-.06334.258.28557.258.56498-.086.56641-.258.86289c-.172.29554-.37946.51438-.62279.65486s-.45079.16121-.62279.06428c-.172-.09787-.2576-.28674-.2576-.56521Z"/><path d="m153.26073,564.16129c0,.34669.12757.53749.38354.57193.25596.03537.72347-.11493,1.40291-.44927.72958-.35394,1.28512-.47471,1.66703-.36347.3815.11148.57225.48447.57225,1.11897v.08597c0,.34669-.06073.69199-.18219,1.03592-.12187.34416-.28939.67449-.50337.9896-.21398.31604-.47402.61289-.78012.89054s-.6395.5206-1.00022.72886c-.48625.28074-.90362.44695-1.2517.49933-.34808.05145-.63747.02135-.86816-.09029s-.40473-.29056-.52212-.5349-.18464-.52043-.20135-.8285l.93093-.79725c.04198.52429.22662.85689.55391.99967.32688.14301.763.05755,1.30835-.25731.46098-.26615.83229-.58425,1.11312-.9529.28124-.36889.42185-.74069.42185-1.11635,0-.40369-.13858-.6115-.41533-.62553-.27675-.01309-.72551.13573-1.34626.44553-.72143.35951-1.27493.48658-1.66051.38213-.38598-.10422-.57877-.46855-.57877-1.09371v-.08691c0-.33641.06277-.66794.18871-.99576.12594-.32689.2955-.63878.50948-.9352.21398-.29735.45487-.56632.72347-.80737.26819-.24175.54902-.44687.84289-.61653.41085-.2372.77156-.38098,1.08174-.43017.31058-.04942.57062-.03135.78012.05421.2095.0865.37131.23043.48462.43414.1129.20488.18627.43165.2201.68124l-.93093.79632c-.04239-.43622-.20379-.70374-.48462-.80138s-.64766-.01575-1.10089.24593c-.17608.10166-.34563.22104-.50948.35956-.16344.13735-.30814.28537-.43408.44499-.12554.15938-.22621.32497-.30161.4984-.07581.17366-.11331.34669-.11331.51957Z"/><path d="m160.30588,562.1711c.02527.69654.21806,1.15713.57877,1.38153.36031.22464.86368.15081,1.5097-.22217.29346-.16943.54902-.35529.76749-.55805.21806-.20346.40433-.41659.55962-.64081s.28083-.45276.37743-.68701c.0966-.23332.17404-.46773.23273-.70346l.93093-.24966c-.17608.76513-.50092,1.49374-.97495,2.18606-.47402.69138-1.11312,1.26969-1.91851,1.73468-.44468.25673-.85349.40399-1.22643.44176-.37335.03707-.69412-.03004-.96272-.20203-.2686-.17105-.4781-.43977-.62891-.80499-.15121-.36404-.22662-.82045-.22662-1.36898v-.34575c0-.49994.07744-1.01095.23273-1.53327s.37131-1.01989.64806-1.49178c.27675-.47283.6016-.90521.97495-1.29925.37335-.3931.77808-.71555,1.2142-.96734.51152-.29533.95375-.44225,1.3271-.44194.37335.00124.67945.09084.9187.27043.23885.17889.41492.42392.52823.73322s.16996.62328.16996.94007v.92325s-5.03248,2.9055-5.03248,2.9055Zm2.08848-4.26336c-.27675.15978-.53475.3592-.77401.59826-.23885.23882-.44875.50205-.62891.78828-.18056.2874-.32688.58588-.44019.89613s-.18667.61987-.2201.92791l4.02574-2.32426c-.01671-.29779-.08193-.53955-.19483-.72387-.11331-.18502-.26045-.31126-.4406-.38106-.18056-.06863-.38598-.08459-.61627-.04789-.23069.03788-.46791.12624-.71083.26649Z"/><path d="m166.86028,554.46402l2.26455-1.30744v.95222s.15121-.0873.15121-.0873c.15896-.48612.38558-.90758.67904-1.26484s.62931-.64461,1.00674-.86252c.62891-.3631,1.13635-.42059,1.52234-.17246.38558.24836.591.81753.61627,1.70657l-1.0316.76847c0-.66347-.13817-1.06121-.41533-1.19462-.27675-.13364-.61627-.08433-1.01897.14817-.26004.15013-.48421.3375-.67293.56139-.18871.22483-.34604.47359-.47199.74908-.12554.27432-.21806.56323-.27675.86624s-.08804.60871-.08804.91615v3.02861s1.58511-.91516,1.58511-.91516v1.03819s-4.00047,2.30967-4.00047,2.30967v-1.03819s1.4343-.82809,1.4343-.82809v-5.07696s-1.28349.74102-1.28349.74102v-1.03819Z"/><path d="m178.54825,554.86932l-1.93726,1.11848-2.17652-5.89674,1.15714-.66807,1.9124,5.52966.15121-.0873,1.91199-7.73768,1.15755-.66831-2.17652,8.40996Z"/><path d="m182.61189,551.48498l2.18915-1.26391v-5.07696s-1.96294,1.1333-1.96294,1.1333v-1.03819s2.944-1.69972,2.944-1.69972v6.11516s2.03834-1.17684,2.03834-1.17684v1.03819s-5.20856,3.00716-5.20856,3.00716v-1.03819Zm1.78645-9.28089c0-.27847.086-.56641.258-.86289.17159-.29624.37946-.51531.62279-.6558.24292-.14025.45079-.16121.62279-.06334.17159.0981.2576.28674.2576.56521s-.086.56641-.2576.86266c-.172.29648-.37987.51461-.62279.65486-.24333.14049-.4512.16238-.62279.06428-.172-.09787-.258-.2865-.258-.56498Z"/><path d="m195.92247,542.3003c-.06725.43317-.1826.86515-.34604,1.29592s-.37131.8414-.62279,1.23143c-.25148.39096-.54535.75032-.8808,1.07855s-.70879.61107-1.11964.84827c-.43612.25179-.849.40887-1.23906.47054s-.73203.02081-1.02549-.12187c-.29387-.14245-.5266-.39028-.6982-.74349-.172-.35298-.258-.82195-.258-1.4088v-.17288c0-.5775.086-1.14578.258-1.70672.17159-.5607.40433-1.08474.6982-1.57119.29346-.48715.63543-.92941,1.02549-1.32749s.80295-.72336,1.23906-.97516c.39414-.22755.75893-.37089,1.09478-.43023.33504-.05887.63094-.04002.88691.05797.25556.09728.46546.26671.62891.50876.16344.24298.27471.54411.33341.90364l-.98147.82643c-.02486-.23515-.086-.44281-.18219-.62276-.0966-.17971-.22662-.31117-.39006-.39528-.16344-.08319-.36275-.11015-.59752-.0802-.23518.03019-.50785.13435-.81803.31343-.30161.17414-.58489.40216-.849.68454s-.49685.5999-.6982.95164-.35868.72384-.47199,1.11633-.16956.78005-.16956,1.16506v.17288c0,.40369.05625.73472.16956.99076.11331.25697.27064.43807.47199.54235.20135.10522.43571.14092.70431.10545.2686-.03453.55799-.1418.86816-.32088s.58081-.39047.81151-.63392c.23069-.24439.42756-.50196.59141-.77411.16344-.27285.29346-.55163.39006-.83821.09619-.28635.1614-.56416.19483-.83389l.98147-.30687Z"/><path d="m198.42627,540.16228c.02527.69654.21806,1.15713.57877,1.38153.36031.22464.86368.15081,1.5097-.22217.29346-.16943.54902-.35529.76749-.55805.21806-.20346.40433-.41659.55962-.64081s.28083-.45276.37743-.68701c.0966-.23332.17404-.46773.23273-.70346l.93093-.24966c-.17608.76513-.50092,1.49374-.97495,2.18606-.47402.69138-1.11312,1.26969-1.91851,1.73468-.44468.25673-.85349.40399-1.22643.44176-.37335.03707-.69412-.03004-.96272-.20203-.2686-.17105-.4781-.43977-.62891-.80499-.15121-.36404-.22662-.82045-.22662-1.36898v-.34575c0-.49994.07744-1.01095.23273-1.53327s.37131-1.01989.64806-1.49178c.27675-.47283.6016-.90521.97495-1.29925.37335-.3931.77808-.71555,1.2142-.96734.51152-.29533.95375-.44225,1.3271-.44194.37335.00124.67945.09084.9187.27043.23885.17889.41492.42392.52823.73322s.16996.62328.16996.94007v.92325s-5.03248,2.9055-5.03248,2.9055Zm2.08848-4.26336c-.27675.15978-.53475.3592-.77401.59826-.23885.23882-.44875.50205-.62891.78828-.18056.2874-.32688.58588-.44019.89613s-.18667.61987-.2201.92791l4.02574-2.32426c-.01671-.29779-.08193-.53955-.19483-.72387-.11331-.18502-.26045-.31126-.4406-.38106-.18056-.06863-.38598-.08459-.61627-.04789-.23069.03788-.46791.12624-.71083.26649Z"/><path d="m207.20774,531.97679c0-.27847.08559-.56618.2576-.86266.172-.29554.37946-.51438.62279-.65486s.45079-.16121.62279-.06428c.172.09787.258.2865.258.56498s-.086.56641-.258.86289-.37946.51531-.62279.6558-.45079.16121-.62279.06334-.2576-.28581-.2576-.56521Zm0,5.53859c0-.27941.08559-.56618.2576-.86266s.37946-.51531.62279-.6558.45079-.16121.62279-.06334.258.28557.258.56498-.086.56641-.258.86289c-.172.29554-.37946.51438-.62279.65486s-.45079.16121-.62279.06428c-.172-.09787-.2576-.28674-.2576-.56521Z"/><path d="m216.66865,532.8605l-1.93726,1.11848-2.17652-5.89674,1.15714-.66807,1.9124,5.52966.15121-.0873,1.91199-7.73768,1.15755-.66831-2.17652,8.40996Z"/><path d="m220.73229,529.47616l2.18915-1.26391v-5.07696s-1.96294,1.1333-1.96294,1.1333v-1.03819s2.944-1.69972,2.944-1.69972v6.11516s2.03834-1.17684,2.03834-1.17684v1.03819s-5.20856,3.00716-5.20856,3.00716v-1.03819Zm1.78645-9.28089c0-.27847.086-.56641.258-.86289.17159-.29624.37946-.51531.62279-.6558.24292-.14025.45079-.16121.62279-.06334.17159.0981.2576.28674.2576.56521,0,.27847-.086.56641-.2576.86266-.172.29648-.37987.51461-.62279.65486-.24333.14049-.4512.16238-.62279.06428-.172-.09787-.258-.2865-.258-.56498Z"/><path d="m229.50112,520.14389c0,.34669.12757.53749.38354.57193.25596.03537.72347-.11493,1.40291-.44927.72958-.35394,1.28512-.47471,1.66703-.36347.3815.11148.57225.48447.57225,1.11897v.08597c0,.34669-.06073.69199-.18219,1.03592-.12187.34416-.28939.67449-.50337.9896-.21398.31604-.47402.61289-.78012.89054s-.6395.5206-1.00022.72886c-.48625.28074-.90362.44695-1.2517.49933-.34808.05145-.63747.02135-.86816-.09029s-.40473-.29056-.52212-.5349-.18464-.52043-.20135-.8285l.93093-.79725c.04198.52429.22662.85689.55391.99967.32688.14301.763.05755,1.30835-.25731.46098-.26615.83229-.58425,1.11312-.9529.28124-.36889.42185-.74069.42185-1.11635,0-.40369-.13858-.6115-.41533-.62553-.27675-.01309-.72551.13573-1.34626.44553-.72143.35951-1.27493.48658-1.66051.38213-.38598-.10422-.57877-.46855-.57877-1.09371v-.08691c0-.33641.06277-.66794.18871-.99576.12594-.32689.2955-.63878.50948-.9352.21398-.29735.45487-.56632.72347-.80737.26819-.24175.54902-.44687.84289-.61653.41085-.2372.77156-.38098,1.08174-.43017.31058-.04942.57062-.03135.78012.05421.2095.0865.37131.23043.48462.43414.1129.20488.18627.43165.2201.68124l-.93093.79632c-.04239-.43622-.20379-.70374-.48462-.80138s-.64766-.01575-1.10089.24593c-.17608.10166-.34563.22104-.50948.35956-.16344.13735-.30814.28537-.43408.44499-.12554.15938-.22621.32497-.30161.4984-.07581.17366-.11331.34669-.11331.51957Z"/><path d="m235.98053,520.67258l2.18915-1.26391v-5.07696s-1.96294,1.1333-1.96294,1.1333v-1.03819s2.944-1.69972,2.944-1.69972v6.11516s2.03834-1.17684,2.03834-1.17684v1.03819s-5.20856,3.00716-5.20856,3.00716v-1.03819Zm1.78645-9.28089c0-.27847.086-.56641.258-.86289.17159-.29624.37946-.51531.62279-.6558.24292-.14025.45079-.16121.62279-.06334.17159.0981.2576.28674.2576.56521s-.086.56641-.2576.86266c-.172.29648-.37987.51461-.62279.65486-.24333.14049-.4512.16238-.62279.06428-.172-.09787-.258-.2865-.258-.56498Z"/><path d="m249.34124,510.50674c0,.59619-.086,1.17195-.258,1.72821s-.40066,1.07328-.68556,1.54988c-.28531.47684-.61872.90762-1.00022,1.29141s-.77808.69406-1.18893.93126c-.41941.24214-.81762.39075-1.19505.44513s-.70879.0074-.9941-.13999c-.2849-.14762-.51356-.40061-.68556-.75826s-.258-.8341-.258-1.43029v-.17288c0-.58685.086-1.15793.258-1.71419.172-.55533.4027-1.07632.69208-1.56018.28939-.4848.62279-.91745,1.00022-1.29889s.77156-.69029,1.18241-.9275.80539-.38369,1.18282-.43807.71083-.00671,1.00022.14393c.28939.14971.51967.40456.69168.76127.172.35765.258.82943.258,1.41628v.17288Zm-3.13271,4.43359c.30202-.17437.58081-.39514.83678-.66347.25556-.26716.48014-.5725.67293-.91462s.344-.70603.45324-1.09148c.10883-.38429.16344-.77933.16344-1.18302v-.17288c0-.385-.05462-.7067-.16344-.96532-.10923-.25933-.26045-.44862-.45324-.56813s-.41941-.16902-.67904-.14901c-.26045.02048-.5372.11578-.83066.28521s-.57021.39369-.83025.67372-.48666.59122-.67945.93334-.344.70603-.45283,1.09125c-.10923.38452-.16344.76905-.16344,1.15405v.17288c0,.40369.05421.7359.16344.99429.10883.25956.26004.44886.45283.56837s.41737.16553.67333.13736c.25556-.027.53435-.12815.83637-.30253Z"/><path d="m252.05862,512.42809l-.98147.56665v-7.15335s.98147-.56665.98147-.56665v1.21107s.15081-.08707.15081-.08707c.38598-1.16479,1.05687-2.0231,2.01307-2.57516.72143-.41652,1.29572-.49111,1.72369-.2233.42756.26711.64154.91543.64154,1.94428v4.26865s-.98106.56642-.98106.56642v-4.03784c0-.75038-.14714-1.22798-.4406-1.43327s-.69168-.16321-1.19505.12741c-.59589.34404-1.06299.84733-1.40291,1.50989-.33952.66232-.50948,1.38281-.50948,2.16122v3.72105Z"/><path d="m259.43146,498.8837c0-.27847.08559-.56618.2576-.86266s.37946-.51531.62279-.6558.45079-.16121.62279-.06334.258.2865.258.56498v1.41292c0,.32706-.09008.6482-.27064.96457-.18015.3152-.41289.55516-.6982.71989l-.64154.37039v-.77841l.59141-.34145c.22621-.1306.33952-.34086.33952-.62868v-.3607c-.06725.0678-.13817.12276-.21358.16629-.23518.13578-.43856.15509-.61057.05722s-.2576-.28674-.2576-.56521Zm2.28982-1.32203c0-.27847.08559-.56618.2576-.86266s.37946-.51531.62279-.6558.45079-.16121.62279-.06334.258.2865.258.56498v1.41292c0,.32706-.09008.6482-.27064.96457-.18056.31544-.41329.5554-.6982.71989l-.64154.37039v-.77841l.59141-.34145c.22621-.1306.33952-.34086.33952-.62868v-.3607c-.06725.0678-.13817.12276-.21398.16653-.23477.13554-.43816.15485-.61016.05698s-.2576-.28674-.2576-.56521Z"/><polygon points="605.17301 593.13811 532.90475 551.41397 604.64985 509.99188 676.91811 551.71602 605.17301 593.13811"/><path d="m605.17261,594.13799c-.17285,0-.3457-.04492-.5-.13379l-72.26758-41.72363c-.30957-.17871-.5-.50879-.5-.86621s.19043-.6875.5-.86621l71.74512-41.42285c.30859-.17773.69141-.17773,1,0l72.26758,41.72461c.30957.17871.5.50879.5.86621s-.19043.6875-.5.86621l-71.74512,41.42188c-.1543.08887-.32715.13379-.5.13379Zm-70.26758-42.72363l70.26758,40.56934,69.74512-40.26758-70.26758-40.57031-69.74512,40.26855Z"/><polygon points="605.17301 675.9823 532.90475 634.25816 532.90475 551.41397 605.17301 593.13811 605.17301 675.9823"/><path d="m605.17261,676.98271c-.17285,0-.3457-.04492-.5-.13379l-72.26758-41.72461c-.30957-.17871-.5-.50879-.5-.86621v-82.84375c0-.35742.19043-.6875.5-.86621.30859-.17773.69141-.17773,1,0l72.26758,41.72363c.30957.17871.5.50879.5.86621v82.84473c0,.35742-.19043.6875-.5.86621-.1543.08887-.32715.13379-.5.13379Zm-71.26758-43.30176l70.26758,40.56934v-80.53516l-70.26758-40.56836v80.53418Z"/><polygon points="677.44128 634.25816 605.17301 675.9823 605.17301 593.13811 677.44128 551.41397 677.44128 634.25816" style="fill:#ededed;"/><path d="m605.17261,676.98271c-.17285,0-.3457-.04492-.5-.13379-.30957-.17871-.5-.50879-.5-.86621v-82.84473c0-.35742.19043-.6875.5-.86621l72.26855-41.72363c.30859-.17773.69141-.17773,1,0,.30957.17871.5.50879.5.86621v82.84375c0,.35742-.19043.6875-.5.86621l-72.26855,41.72461c-.1543.08887-.32715.13379-.5.13379Zm1-83.26758v80.53516l70.26855-40.56934v-80.53418l-70.26855,40.56836Z"/><polygon points="532.90475 634.86225 460.63649 593.13811 532.38159 551.71602 604.64985 593.44016 532.90475 634.86225"/><path d="m532.90503,635.86259c-.17285,0-.3457-.04492-.5-.13379l-72.26855-41.72461c-.30957-.17871-.5-.50879-.5-.86621s.19043-.6875.5-.86621l71.74512-41.42188c.30859-.17773.69141-.17773,1,0l72.26855,41.72363c.30957.17871.5.50879.5.86621s-.19043.6875-.5.86621l-71.74512,41.42285c-.1543.08887-.32715.13379-.5.13379Zm-70.26855-42.72461l70.26855,40.57031,69.74512-40.26855-70.26855-40.56934-69.74512,40.26758Z"/><polygon points="532.90475 717.70644 460.63649 675.9823 460.63649 593.13811 532.90475 634.86225 532.90475 717.70644"/><path d="m532.90503,718.70634c-.17285,0-.3457-.04492-.5-.13379l-72.26855-41.72363c-.30957-.17871-.5-.50879-.5-.86621v-82.84473c0-.35742.19043-.6875.5-.86621.30859-.17773.69141-.17773,1,0l72.26855,41.72461c.30957.17871.5.50879.5.86621v82.84375c0,.35742-.19043.6875-.5.86621-.1543.08887-.32715.13379-.5.13379Zm-71.26855-43.30078l70.26855,40.56836v-80.53418l-70.26855-40.56934v80.53516Z"/><polygon points="605.17301 675.9823 532.90475 717.70644 532.90475 634.86225 605.17301 593.13811 605.17301 675.9823" style="fill:#ededed;"/><path d="m532.90503,718.70634c-.17285,0-.3457-.04492-.5-.13379-.30957-.17871-.5-.50879-.5-.86621v-82.84375c0-.35742.19043-.6875.5-.86621l72.26758-41.72461c.30859-.17773.69141-.17773,1,0,.30957.17871.5.50879.5.86621v82.84473c0,.35742-.19043.6875-.5.86621l-72.26758,41.72363c-.1543.08887-.32715.13379-.5.13379Zm1-83.2666v80.53418l70.26758-40.56836v-80.53516l-70.26758,40.56934Z"/><polygon points="460.63649 676.58639 388.36823 634.86225 460.11333 593.44016 532.38159 635.1643 460.63649 676.58639"/><path d="m460.63648,677.58623c-.17285,0-.3457-.04492-.5-.13379l-72.26855-41.72363c-.30957-.17871-.5-.50879-.5-.86621s.19043-.6875.5-.86621l71.74512-41.42285c.30859-.17773.69141-.17773,1,0l72.26855,41.72461c.30957.17871.5.50879.5.86621s-.19043.6875-.5.86621l-71.74512,41.42188c-.1543.08887-.32715.13379-.5.13379Zm-70.26855-42.72363l70.26855,40.56934,69.74512-40.26758-70.26855-40.57031-69.74512,40.26855Z"/><polygon points="460.63649 759.43058 388.36823 717.70644 388.36823 634.86225 460.63649 676.58639 460.63649 759.43058"/><path d="m460.63648,760.43095c-.17285,0-.3457-.04492-.5-.13379l-72.26855-41.72461c-.30957-.17871-.5-.50879-.5-.86621v-82.84375c0-.35742.19043-.6875.5-.86621.30859-.17773.69141-.17773,1,0l72.26855,41.72363c.30957.17871.5.50879.5.86621v82.84473c0,.35742-.19043.6875-.5.86621-.1543.08887-.32715.13379-.5.13379Zm-71.26855-43.30176l70.26855,40.56934v-80.53516l-70.26855-40.56836v80.53418Z"/><polygon points="532.90475 717.70644 460.63649 759.43058 460.63649 676.58639 532.90475 634.86225 532.90475 717.70644" style="fill:#ededed;"/><path d="m460.63648,760.43095c-.17285,0-.3457-.04492-.5-.13379-.30957-.17871-.5-.50879-.5-.86621v-82.84473c0-.35742.19043-.6875.5-.86621l72.26855-41.72363c.30859-.17773.69141-.17773,1,0,.30957.17871.5.50879.5.86621v82.84375c0,.35742-.19043.6875-.5.86621l-72.26855,41.72461c-.1543.08887-.32715.13379-.5.13379Zm1-83.26758v80.53516l70.26855-40.56934v-80.53418l-70.26855,40.56836Z"/><polygon points="605.17301 510.29393 532.90475 468.56979 604.64985 427.14769 676.91811 468.87183 605.17301 510.29393"/><path d="m605.17261,511.29424c-.17285,0-.3457-.04492-.5-.13379l-72.26758-41.72461c-.30957-.17871-.5-.50879-.5-.86621s.19043-.6875.5-.86621l71.74512-41.42188c.30859-.17773.69141-.17773,1,0l72.26758,41.72363c.30957.17871.5.50879.5.86621s-.19043.6875-.5.86621l-71.74512,41.42285c-.1543.08887-.32715.13379-.5.13379Zm-70.26758-42.72461l70.26758,40.57031,69.74512-40.26855-70.26758-40.56934-69.74512,40.26758Z"/><polygon points="605.17301 593.13811 532.90475 551.41397 532.90475 468.56979 605.17301 510.29393 605.17301 593.13811"/><path d="m605.17261,594.13799c-.17285,0-.3457-.04492-.5-.13379l-72.26758-41.72363c-.30957-.17871-.5-.50879-.5-.86621v-82.84473c0-.35742.19043-.6875.5-.86621.30859-.17773.69141-.17773,1,0l72.26758,41.72461c.30957.17871.5.50879.5.86621v82.84375c0,.35742-.19043.6875-.5.86621-.1543.08887-.32715.13379-.5.13379Zm-71.26758-43.30078l70.26758,40.56836v-80.53418l-70.26758-40.56934v80.53516Z"/><polygon points="677.44128 551.41397 605.17301 593.13811 605.17301 510.29393 677.44128 468.56979 677.44128 551.41397" style="fill:#ededed;"/><path d="m605.17261,594.13799c-.17285,0-.3457-.04492-.5-.13379-.30957-.17871-.5-.50879-.5-.86621v-82.84375c0-.35742.19043-.6875.5-.86621l72.26855-41.72461c.30859-.17773.69141-.17773,1,0,.30957.17871.5.50879.5.86621v82.84473c0,.35742-.19043.6875-.5.86621l-72.26855,41.72363c-.1543.08887-.32715.13379-.5.13379Zm1-83.2666v80.53418l70.26855-40.56836v-80.53516l-70.26855,40.56934Z"/><polygon points="532.90475 552.01807 460.63649 510.29393 532.38159 468.87183 604.64985 510.59597 532.90475 552.01807"/><path d="m532.90503,553.01787c-.17285,0-.3457-.04492-.5-.13379l-72.26855-41.72363c-.30957-.17871-.5-.50879-.5-.86621s.19043-.6875.5-.86621l71.74512-41.42285c.30859-.17773.69141-.17773,1,0l72.26855,41.72461c.30957.17871.5.50879.5.86621s-.19043.6875-.5.86621l-71.74512,41.42188c-.1543.08887-.32715.13379-.5.13379Zm-70.26855-42.72363l70.26855,40.56934,69.74512-40.26758-70.26855-40.57031-69.74512,40.26855Z"/><polygon points="532.90475 634.86225 460.63649 593.13811 460.63649 510.29393 532.90475 552.01807 532.90475 634.86225"/><path d="m532.90503,635.86259c-.17285,0-.3457-.04492-.5-.13379l-72.26855-41.72461c-.30957-.17871-.5-.50879-.5-.86621v-82.84375c0-.35742.19043-.6875.5-.86621.30859-.17773.69141-.17773,1,0l72.26855,41.72363c.30957.17871.5.50879.5.86621v82.84473c0,.35742-.19043.6875-.5.86621-.1543.08887-.32715.13379-.5.13379Zm-71.26855-43.30176l70.26855,40.56934v-80.53516l-70.26855-40.56836v80.53418Z"/><polygon points="605.17301 593.13811 532.90475 634.86225 532.90475 552.01807 605.17301 510.29393 605.17301 593.13811" style="fill:#ededed;"/><path d="m532.90503,635.86259c-.17285,0-.3457-.04492-.5-.13379-.30957-.17871-.5-.50879-.5-.86621v-82.84473c0-.35742.19043-.6875.5-.86621l72.26758-41.72363c.30859-.17773.69141-.17773,1,0,.30957.17871.5.50879.5.86621v82.84375c0,.35742-.19043.6875-.5.86621l-72.26758,41.72461c-.1543.08887-.32715.13379-.5.13379Zm1-83.26758v80.53516l70.26758-40.56934v-80.53418l-70.26758,40.56836Z"/><polygon points="460.63649 593.74221 388.36823 552.01807 460.11333 510.59597 532.38159 552.32012 460.63649 593.74221"/><path d="m460.63648,594.74248c-.17285,0-.3457-.04492-.5-.13379l-72.26855-41.72461c-.30957-.17871-.5-.50879-.5-.86621s.19043-.6875.5-.86621l71.74512-41.42188c.30859-.17773.69141-.17773,1,0l72.26855,41.72461c.30957.17871.5.50879.5.86621s-.19043.6875-.5.86621l-71.74512,41.42188c-.1543.08887-.32715.13379-.5.13379Zm-70.26855-42.72461l70.26855,40.57031,69.74512-40.26758-70.26855-40.57031-69.74512,40.26758Z"/><polygon points="460.63649 676.58639 388.36823 634.86225 388.36823 552.01807 460.63649 593.74221 460.63649 676.58639"/><path d="m460.63648,677.58623c-.17285,0-.3457-.04492-.5-.13379l-72.26855-41.72363c-.30957-.17871-.5-.50879-.5-.86621v-82.84473c0-.35742.19043-.6875.5-.86621.30859-.17773.69141-.17773,1,0l72.26855,41.72461c.30957.17871.5.50879.5.86621v82.84375c0,.35742-.19043.6875-.5.86621-.1543.08887-.32715.13379-.5.13379Zm-71.26855-43.30078l70.26855,40.56836v-80.53418l-70.26855-40.56934v80.53516Z"/><polygon points="532.90475 634.86225 460.63649 676.58639 460.63649 593.74221 532.90475 552.01807 532.90475 634.86225" style="fill:#ededed;"/><path d="m460.63648,677.58623c-.17285,0-.3457-.04492-.5-.13379-.30957-.17871-.5-.50879-.5-.86621v-82.84375c0-.35742.19043-.6875.5-.86621l72.26855-41.72461c.30859-.17773.69141-.17773,1,0,.30957.17871.5.50879.5.86621v82.84473c0,.35742-.19043.6875-.5.86621l-72.26855,41.72363c-.1543.08887-.32715.13379-.5.13379Zm1-83.2666v80.53418l70.26855-40.56836v-80.53516l-70.26855,40.56934Z"/><polygon points="605.17301 427.44974 532.90475 385.7256 604.64985 344.30351 676.91811 386.02765 605.17301 427.44974"/><path d="m605.17261,428.44951c-.17285,0-.3457-.04492-.5-.13379l-72.26758-41.72363c-.30957-.17871-.5-.50879-.5-.86621s.19043-.6875.5-.86621l71.74512-41.42285c.30859-.17773.69141-.17773,1,0l72.26758,41.72461c.30957.17871.5.50879.5.86621s-.19043.6875-.5.86621l-71.74512,41.42188c-.1543.08887-.32715.13379-.5.13379Zm-70.26758-42.72363l70.26758,40.56934,69.74512-40.26758-70.26758-40.57031-69.74512,40.26855Z"/><polygon points="605.17301 510.29393 532.90475 468.56979 532.90475 385.7256 605.17301 427.44974 605.17301 510.29393"/><path d="m605.17261,511.29424c-.17285,0-.3457-.04492-.5-.13379l-72.26758-41.72461c-.30957-.17871-.5-.50879-.5-.86621v-82.84375c0-.35742.19043-.6875.5-.86621.30859-.17773.69141-.17773,1,0l72.26758,41.72363c.30957.17871.5.50879.5.86621v82.84473c0,.35742-.19043.6875-.5.86621-.1543.08887-.32715.13379-.5.13379Zm-71.26758-43.30176l70.26758,40.56934v-80.53516l-70.26758-40.56836v80.53418Z"/><polygon points="677.44128 468.56979 605.17301 510.29393 605.17301 427.44974 677.44128 385.7256 677.44128 468.56979" style="fill:#ededed;"/><path d="m605.17261,511.29424c-.17285,0-.3457-.04492-.5-.13379-.30957-.17871-.5-.50879-.5-.86621v-82.84473c0-.35742.19043-.6875.5-.86621l72.26855-41.72363c.30859-.17773.69141-.17773,1,0,.30957.17871.5.50879.5.86621v82.84375c0,.35742-.19043.6875-.5.86621l-72.26855,41.72461c-.1543.08887-.32715.13379-.5.13379Zm1-83.26758v80.53516l70.26855-40.56934v-80.53418l-70.26855,40.56836Z"/><polygon points="532.90475 419.62085 460.63649 377.89671 532.38159 336.47462 604.64985 378.19876 532.90475 419.62085"/><path d="m532.90503,420.62041c-.17285,0-.3457-.04492-.5-.13379l-72.26855-41.72363c-.30957-.17871-.5-.50879-.5-.86621s.19043-.6875.5-.86621l71.74512-41.42188c.30859-.17773.69141-.17773,1,0l72.26855,41.72363c.30957.17871.5.50879.5.86621s-.19043.6875-.5.86621l-71.74512,41.42188c-.1543.08887-.32715.13379-.5.13379Zm-70.26855-42.72363l70.26855,40.56934,69.74512-40.26758-70.26855-40.56934-69.74512,40.26758Z"/><polygon points="532.90475 502.46504 460.63649 460.7409 460.63649 377.89671 532.90475 419.62085 532.90475 502.46504"/><path d="m532.90503,503.46513c-.17285,0-.3457-.04492-.5-.13379l-72.26855-41.72461c-.30957-.17871-.5-.50879-.5-.86621v-82.84375c0-.35742.19043-.6875.5-.86621.30859-.17773.69141-.17773,1,0l72.26855,41.72363c.30957.17871.5.50879.5.86621v82.84473c0,.35742-.19043.6875-.5.86621-.1543.08887-.32715.13379-.5.13379Zm-71.26855-43.30176l70.26855,40.56934v-80.53516l-70.26855-40.56836v80.53418Z"/><polygon points="605.17301 460.7409 532.90475 502.46504 532.90475 419.62085 605.17301 377.89671 605.17301 460.7409" style="fill:#fddb00;"/><path d="m532.90503,503.46513c-.17285,0-.3457-.04492-.5-.13379-.30957-.17871-.5-.50879-.5-.86621v-82.84473c0-.35742.19043-.6875.5-.86621l72.26758-41.72363c.30859-.17773.69141-.17773,1,0,.30957.17871.5.50879.5.86621v82.84375c0,.35742-.19043.6875-.5.86621l-72.26758,41.72461c-.1543.08887-.32715.13379-.5.13379Zm1-83.26758v80.53516l70.26758-40.56934v-80.53418l-70.26758,40.56836Z"/><polygon points="558.96859 454.95836 548.01701 451.92533 558.95989 436.2595 558.95989 438.76418 550.81837 450.30797 559.02771 452.56606 558.96859 454.95836"/><path d="m559.33179,455.44756l-11.92578-3.30273,11.92871-17.07715v3.81543l-7.90234,11.20508,7.97754,2.19336-.07812,3.16602Zm-10.70312-3.74219l9.97656,2.76367.04102-1.61914-8.44238-2.32227,8.38086-11.88281v-1.19434l-9.95605,14.25488Z"/><polygon points="580.7778 442.367 591.72936 426.68799 580.78648 423.65773 580.78648 426.16246 588.928 428.30536 580.71868 440.04292 580.7778 442.367"/><path d="m580.43237,443.51689l-.0918-3.58789,7.97266-11.39844-7.90137-2.0791v-3.28711l11.92871,3.30371-11.9082,17.04883Zm.66406-3.35938l.02734,1.06055,9.99414-14.31055-9.95605-2.75684v1.72266l8.38184,2.20605-8.44727,12.07812Z"/><polygon points="560.33459 462.4993 577.82268 417.03948 580.0076 415.77801 562.51951 461.23783 560.33459 462.4993"/><path d="m559.60425,463.35478l17.91602-46.57422,3.21777-1.8584-17.91602,46.57422-3.21777,1.8584Zm18.52148-46.05664l-17.06055,44.3457,1.15137-.66504,17.06055-44.3457-1.15137.66504Z"/><polygon points="460.63649 510.89802 388.36823 469.17388 460.11333 427.75179 532.38159 469.47593 460.63649 510.89802"/><path d="m460.63648,511.89775c-.17285,0-.3457-.04492-.5-.13379l-72.26855-41.72363c-.30957-.17871-.5-.50879-.5-.86621s.19043-.6875.5-.86621l71.74512-41.42188c.30859-.17773.69141-.17773,1,0l72.26855,41.72363c.30957.17871.5.50879.5.86621s-.19043.6875-.5.86621l-71.74512,41.42188c-.1543.08887-.32715.13379-.5.13379Zm-70.26855-42.72363l70.26855,40.56934,69.74512-40.26758-70.26855-40.56934-69.74512,40.26758Z"/><polygon points="460.63649 593.74221 388.36823 552.01807 388.36823 469.17388 460.63649 510.89802 460.63649 593.74221"/><path d="m460.63648,594.74248c-.17285,0-.3457-.04492-.5-.13379l-72.26855-41.72461c-.30957-.17871-.5-.50879-.5-.86621v-82.84375c0-.35742.19043-.6875.5-.86621.30859-.17773.69141-.17773,1,0l72.26855,41.72363c.30957.17871.5.50879.5.86621v82.84473c0,.35742-.19043.6875-.5.86621-.1543.08887-.32715.13379-.5.13379Zm-71.26855-43.30176l70.26855,40.56934v-80.53516l-70.26855-40.56836v80.53418Z"/><polygon points="532.90475 552.01807 460.63649 593.74221 460.63649 510.89802 532.90475 469.17388 532.90475 552.01807" style="fill:#ededed;"/><path d="m460.63648,594.74248c-.17285,0-.3457-.04492-.5-.13379-.30957-.17871-.5-.50879-.5-.86621v-82.84473c0-.35742.19043-.6875.5-.86621l72.26855-41.72363c.30859-.17773.69141-.17773,1,0,.30957.17871.5.50879.5.86621v82.84375c0,.35742-.19043.6875-.5.86621l-72.26855,41.72461c-.1543.08887-.32715.13379-.5.13379Zm1-83.26758v80.53516l70.26855-40.56934v-80.53418l-70.26855,40.56836Z"/><path d="m202.24048,356.29228h-3v-166.40918c0-.53564.28564-1.03125.75-1.29883L519.51929,4.10429c.46484-.26855,1.03516-.26855,1.5,0,.46387.26758.75.7627.75,1.29883v296.14404h-3V8.00127L202.24048,190.74931v165.54297Z"/><polygon points="532.5387 291.60667 530.34143 289.56029 520.2721 300.39574 510.19983 289.56029 508.00256 291.60667 520.2721 304.80064 532.5387 291.60667"/></svg>