<?xml version="1.0" encoding="UTF-8"?><svg id="Layer_2" xmlns="http://www.w3.org/2000/svg" viewBox="0 0 1189.36699 424.55538"><path d="m66.74072,370.40332h-1v-8.65332c0-14.88672,12.11133-26.99805,26.99854-26.99805h19.61865c14.33545,0,25.99854-11.66309,25.99854-25.99805v-12.86182h1v12.86182c0,14.88672-12.11133,26.99805-26.99854,26.99805h-19.61865c-14.33545,0-25.99854,11.66309-25.99854,25.99805v8.65332Z" style="fill:#020202;"/><path d="m211.97217,370.40332h-1v-8.65332c0-14.33496-11.66309-25.99805-25.99854-25.99805h-19.61865c-14.88721,0-26.99854-12.11133-26.99854-26.99805v-12.86182h1v12.86182c0,14.33496,11.66309,25.99805,25.99854,25.99805h19.61865c14.88721,0,26.99854,12.11133,26.99854,26.99805v8.65332Z" style="fill:#020202;"/><path d="m819.61621,246.05664h-1v-8.79248c0-14.88721,12.11133-26.99854,26.99902-26.99854h98.77832c14.33496,0,25.99805-11.66309,25.99805-25.99854v-8.58789h1v8.58789c0,14.88721-12.11133,26.99854-26.99805,26.99854h-98.77832c-14.33594,0-25.99902,11.66309-25.99902,25.99854v8.79248Z" style="fill:#020202;"/><path d="m1123.16699,246.05664h-1v-8.79248c0-14.33545-11.66309-25.99854-25.99902-25.99854h-98.77832c-14.88672,0-26.99805-12.11133-26.99805-26.99854v-8.58789h1v8.58789c0,14.33545,11.66309,25.99854,25.99805,25.99854h98.77832c14.8877,0,26.99902,12.11133,26.99902,26.99854v8.79248Z" style="fill:#020202;"/><rect x="45.26969" y="247.95811" width="187.17329" height="50.2788" style="fill:#ffc6ff;"/><path d="m232.94287,298.73682H44.76953v-51.27881h188.17334v51.27881Zm-187.17334-1h186.17334v-49.27881H45.76953v49.27881Z" style="fill:#020202;"/><path d="m73.19727,271.35986c0-.35742-.0708-.67285-.21289-.94629s-.33398-.49902-.57568-.67871c-.24219-.17871-.52051-.31543-.83594-.40918-.31543-.09473-.64648-.14258-.99365-.14258-.30518,0-.59424.04004-.86768.11816-.27344.0791-.51807.19238-.7334.33984-.21533.14648-.38623.32812-.51221.54395-.12646.21582-.18945.46484-.18945.74902v.09473c0,.30469.06299.56543.18945.78027.12598.21582.3125.40039.55957.55273s.55469.27832.92285.37793c.36768.10059.79883.18652,1.29346.26074,1.15625.17871,2.00781.51758,2.55469,1.0166.54688.5.82031,1.16992.82031,2.01172v.18848c0,.47363-.08154.90723-.24463,1.30176s-.40479.7334-.7251,1.01758c-.32129.2832-.71777.50391-1.19092.66211-.47314.15723-1.02002.23633-1.64062.23633-.70459,0-1.32715-.10254-1.86865-.30762-.54199-.20508-.99365-.48828-1.35645-.85156-.36279-.3623-.63867-.78809-.82812-1.27734s-.28369-1.02246-.28369-1.60059v-.47363h1.32471v.37891c0,.9668.26514,1.69238.79639,2.17578.53076.48438,1.26953.72559,2.21582.72559.82031,0,1.43799-.18066,1.85352-.54395.41504-.3623.62305-.84375.62305-1.44336v-.09473c0-.57812-.21289-1.01953-.63867-1.32422-.42627-.30469-1.11768-.52539-2.07422-.66309-.55762-.07324-1.05957-.18652-1.50635-.33887s-.82812-.35156-1.14355-.59863-.55713-.54492-.72559-.8916c-.16797-.34668-.25195-.75684-.25195-1.23047v-.18945c0-.43066.08887-.8252.26807-1.18262.17871-.35742.42822-.66699.74902-.93066.3208-.2627.7041-.46484,1.15137-.60742.44678-.1416.93848-.21289,1.47461-.21289.62061,0,1.17529.08984,1.66406.26855s.90137.41797,1.23828.71777c.33643.2998.59131.65234.76465,1.05664.17383.40527.26025.82812.26025,1.26953v.66211h-1.32471v-.56738Z" style="fill:#020202;"/><path d="m78.5752,268.17432v7.31738c0,.89453.20752,1.56934.62305,2.02734.41553.45703,1.02783.68555,1.8374.68555s1.42188-.22852,1.8374-.68555c.41553-.45801.62305-1.13281.62305-2.02734v-7.31738h1.3252v7.31738c0,1.2832-.33691,2.26172-1.00977,2.93359-.67285.67383-1.59814,1.00977-2.77588,1.00977s-2.10303-.33594-2.77588-1.00977c-.67285-.67188-1.00928-1.65039-1.00928-2.93359v-7.31738h1.32471Z" style="fill:#020202;"/><path d="m87.5498,277.98389h.94629v-8.58008h-.94629v-1.22949h4.46338c.52588,0,.99121.07324,1.396.2207s.74658.34668,1.02539.59863c.27832.25293.48877.55469.63086.90723.1416.35254.21289.7334.21289,1.14355v.18945c0,.30469-.04736.58301-.14209.83594-.09473.25195-.22607.47852-.39404.67773-.16846.2002-.36572.37109-.5918.5127s-.4707.25-.7334.32324v.18945c.52588.14746.96729.42871,1.3252.84375.35693.41602.53613.92285.53613,1.52246v.18848c0,.41016-.07129.79199-.21289,1.14355-.14209.35254-.35254.65723-.63086.91504-.27881.25781-.62061.45996-1.02539.60742s-.87012.2207-1.396.2207h-4.46338v-1.23047Zm2.27148-4.9209h2.14502c.63086,0,1.12988-.16309,1.49805-.48828.36816-.32617.55225-.77344.55225-1.34082v-.09473c0-.53613-.19482-.95996-.5835-1.26953-.38916-.31055-.89404-.46582-1.51416-.46582h-2.09766v3.65918Zm0,4.9209h2.09766c.62012,0,1.125-.1543,1.51416-.46484.38867-.31055.5835-.73926.5835-1.28516v-.09473c0-.56836-.18408-1.01758-.55225-1.34863s-.86719-.49707-1.49805-.49707h-2.14502v3.69043Z" style="fill:#020202;"/><path d="m99.55225,274.54541h4.73145v1.13574h-4.73145v-1.13574Z" style="fill:#020202;"/><path d="m108.90527,268.17432h1.3252v9.80957h5.77246v1.23047h-7.09766v-11.04004Z" style="fill:#020202;"/><path d="m118.92041,272.46436c0-1.43066.3418-2.54004,1.02539-3.32812.68311-.78906,1.63477-1.18359,2.85449-1.18359s2.17139.39453,2.85498,1.18359c.68311.78809,1.0249,1.89746,1.0249,3.32812v2.45996c0,1.47266-.3418,2.5918-1.0249,3.35938-.68359.76758-1.63525,1.15137-2.85498,1.15137s-2.17139-.38379-2.85449-1.15137c-.68359-.76758-1.02539-1.88672-1.02539-3.35938v-2.45996Zm3.87988,5.74023c.85156,0,1.49072-.29102,1.9165-.875s.63867-1.41699.63867-2.5v-2.27148c0-1.00879-.21289-1.82422-.63867-2.44434s-1.06494-.93066-1.9165-.93066-1.49023.31055-1.91602.93066c-.42627.62012-.63916,1.43555-.63916,2.44434v2.27148c0,1.08301.21289,1.91602.63916,2.5.42578.58398,1.06445.875,1.91602.875Z" style="fill:#020202;"/><path d="m133.30469,278.20459c.45215,0,.83838-.07617,1.15967-.22852.32031-.15234.5835-.35742.78857-.61523.20508-.25684.35693-.55176.45703-.88281s.1499-.68066.1499-1.04883v-.18945h1.3252v.18945c0,.55762-.08447,1.08008-.25244,1.56934-.16846.48926-.41553.91504-.74121,1.27734-.32617.36328-.73096.64648-1.21484.85156-.4834.20508-1.04102.30762-1.67188.30762-1.21973,0-2.17139-.38379-2.85449-1.15137-.68359-.76758-1.02539-1.88672-1.02539-3.35938v-2.45996c0-1.43066.3418-2.54004,1.02539-3.32812.68311-.78906,1.63477-1.18359,2.85449-1.18359.63086,0,1.18848.10254,1.67188.30762.48389.20508.88867.48926,1.21484.85254.32568.3623.57275.78809.74121,1.27734.16797.48828.25244,1.01172.25244,1.56934v.18945h-1.3252v-.18945c-.01025-.35742-.06592-.70508-.16553-1.04102-.1001-.33691-.25244-.63379-.45752-.8916-.20508-.25684-.46533-.46191-.78076-.61523-.31543-.15234-.69922-.22852-1.15137-.22852-.85156,0-1.49023.31055-1.91602.93066s-.63867,1.43555-.63867,2.44434v2.27148c0,1.08301.21289,1.91602.63867,2.5s1.06445.875,1.91602.875Z" style="fill:#020202;"/><path d="m146.04834,276.47021h-4.73145l-.8042,2.74414h-1.41943l3.34326-11.04004h2.49219l3.34375,11.04004h-1.41943l-.80469-2.74414Zm-2.46045-7.72852l-1.9082,6.49805h4.00586l-1.9082-6.49805h-.18945Z" style="fill:#020202;"/><path d="m150.24414,268.17432h7.75977v1.22949h-3.21729v9.81055h-1.32471v-9.81055h-3.21777v-1.22949Z" style="fill:#020202;"/><path d="m161.06348,268.17432h7.00293v1.22949h-2.83887v8.58008h2.83887v1.23047h-7.00293v-1.23047h2.83936v-8.58008h-2.83936v-1.22949Z" style="fill:#020202;"/><path d="m171.12598,272.46436c0-1.43066.3418-2.54004,1.02539-3.32812.68311-.78906,1.63477-1.18359,2.85449-1.18359s2.17139.39453,2.85498,1.18359c.68311.78809,1.0249,1.89746,1.0249,3.32812v2.45996c0,1.47266-.3418,2.5918-1.0249,3.35938-.68359.76758-1.63525,1.15137-2.85498,1.15137s-2.17139-.38379-2.85449-1.15137c-.68359-.76758-1.02539-1.88672-1.02539-3.35938v-2.45996Zm3.87988,5.74023c.85156,0,1.49072-.29102,1.9165-.875s.63867-1.41699.63867-2.5v-2.27148c0-1.00879-.21289-1.82422-.63867-2.44434s-1.06494-.93066-1.9165-.93066-1.49023.31055-1.91602.93066c-.42627.62012-.63916,1.43555-.63916,2.44434v2.27148c0,1.08301.21289,1.91602.63916,2.5.42578.58398,1.06445.875,1.91602.875Z" style="fill:#020202;"/><path d="m187.60791,278.64697h.18945v-10.47266h1.32471v11.04004h-2.64941l-3.18604-10.47266h-.18945v10.47266h-1.32471v-11.04004h2.6499l3.18555,10.47266Z" style="fill:#020202;"/><path d="m208.69531,276.47021h-4.73145l-.8042,2.74414h-1.41943l3.34326-11.04004h2.49219l3.34375,11.04004h-1.41943l-.80469-2.74414Zm-2.46045-7.72852l-1.9082,6.49805h4.00586l-1.9082-6.49805h-.18945Z" style="fill:#020202;"/><rect x="331.84102" y="247.95811" width="187.17329" height="50.2788" style="fill:#ffc6ff;"/><path d="m519.51416,298.73682h-188.17334v-51.27881h188.17334v51.27881Zm-187.17334-1h186.17334v-49.27881h-186.17334v49.27881Z" style="fill:#020202;"/><path d="m359.76855,271.35986c0-.35742-.0708-.67285-.21289-.94629s-.33398-.49902-.57568-.67871c-.24219-.17871-.52051-.31543-.83594-.40918-.31543-.09473-.64648-.14258-.99365-.14258-.30518,0-.59424.04004-.86768.11816-.27344.0791-.51807.19238-.7334.33984-.21533.14648-.38623.32812-.51221.54395-.12646.21582-.18945.46484-.18945.74902v.09473c0,.30469.06299.56543.18945.78027.12598.21582.3125.40039.55957.55273s.55469.27832.92285.37793c.36768.10059.79883.18652,1.29346.26074,1.15625.17871,2.00781.51758,2.55469,1.0166.54688.5.82031,1.16992.82031,2.01172v.18848c0,.47363-.08154.90723-.24463,1.30176s-.40479.7334-.7251,1.01758c-.32129.2832-.71777.50391-1.19092.66211-.47314.15723-1.02002.23633-1.64062.23633-.70459,0-1.32715-.10254-1.86865-.30762-.54199-.20508-.99365-.48828-1.35645-.85156-.36279-.3623-.63867-.78809-.82812-1.27734s-.28369-1.02246-.28369-1.60059v-.47363h1.32471v.37891c0,.9668.26514,1.69238.79639,2.17578.53076.48438,1.26953.72559,2.21582.72559.82031,0,1.43799-.18066,1.85352-.54395.41504-.3623.62305-.84375.62305-1.44336v-.09473c0-.57812-.21289-1.01953-.63867-1.32422-.42627-.30469-1.11768-.52539-2.07422-.66309-.55762-.07324-1.05957-.18652-1.50635-.33887s-.82812-.35156-1.14355-.59863-.55713-.54492-.72559-.8916c-.16797-.34668-.25195-.75684-.25195-1.23047v-.18945c0-.43066.08887-.8252.26807-1.18262.17871-.35742.42822-.66699.74902-.93066.3208-.2627.7041-.46484,1.15137-.60742.44678-.1416.93848-.21289,1.47461-.21289.62061,0,1.17529.08984,1.66406.26855s.90137.41797,1.23828.71777c.33643.2998.59131.65234.76465,1.05664.17383.40527.26025.82812.26025,1.26953v.66211h-1.32471v-.56738Z" style="fill:#020202;"/><path d="m365.14648,268.17432v7.31738c0,.89453.20752,1.56934.62305,2.02734.41553.45703,1.02783.68555,1.8374.68555s1.42188-.22852,1.8374-.68555c.41553-.45801.62305-1.13281.62305-2.02734v-7.31738h1.3252v7.31738c0,1.2832-.33691,2.26172-1.00977,2.93359-.67285.67383-1.59814,1.00977-2.77588,1.00977s-2.10303-.33594-2.77588-1.00977c-.67285-.67188-1.00928-1.65039-1.00928-2.93359v-7.31738h1.32471Z" style="fill:#020202;"/><path d="m374.12109,277.98389h.94629v-8.58008h-.94629v-1.22949h4.46338c.52588,0,.99121.07324,1.396.2207s.74658.34668,1.02539.59863c.27832.25293.48877.55469.63086.90723.1416.35254.21289.7334.21289,1.14355v.18945c0,.30469-.04736.58301-.14209.83594-.09473.25195-.22607.47852-.39404.67773-.16846.2002-.36572.37109-.5918.5127s-.4707.25-.7334.32324v.18945c.52588.14746.96729.42871,1.3252.84375.35693.41602.53613.92285.53613,1.52246v.18848c0,.41016-.07129.79199-.21289,1.14355-.14209.35254-.35254.65723-.63086.91504-.27881.25781-.62061.45996-1.02539.60742s-.87012.2207-1.396.2207h-4.46338v-1.23047Zm2.27148-4.9209h2.14502c.63086,0,1.12988-.16309,1.49805-.48828.36816-.32617.55225-.77344.55225-1.34082v-.09473c0-.53613-.19482-.95996-.5835-1.26953-.38916-.31055-.89404-.46582-1.51416-.46582h-2.09766v3.65918Zm0,4.9209h2.09766c.62012,0,1.125-.1543,1.51416-.46484.38867-.31055.5835-.73926.5835-1.28516v-.09473c0-.56836-.18408-1.01758-.55225-1.34863s-.86719-.49707-1.49805-.49707h-2.14502v3.69043Z" style="fill:#020202;"/><path d="m386.12354,274.54541h4.73145v1.13574h-4.73145v-1.13574Z" style="fill:#020202;"/><path d="m395.47656,268.17432h1.3252v9.80957h5.77246v1.23047h-7.09766v-11.04004Z" style="fill:#020202;"/><path d="m405.4917,272.46436c0-1.43066.3418-2.54004,1.02539-3.32812.68311-.78906,1.63477-1.18359,2.85449-1.18359s2.17139.39453,2.85498,1.18359c.68311.78809,1.0249,1.89746,1.0249,3.32812v2.45996c0,1.47266-.3418,2.5918-1.0249,3.35938-.68359.76758-1.63525,1.15137-2.85498,1.15137s-2.17139-.38379-2.85449-1.15137c-.68359-.76758-1.02539-1.88672-1.02539-3.35938v-2.45996Zm3.87988,5.74023c.85156,0,1.49072-.29102,1.9165-.875s.63867-1.41699.63867-2.5v-2.27148c0-1.00879-.21289-1.82422-.63867-2.44434s-1.06494-.93066-1.9165-.93066-1.49023.31055-1.91602.93066c-.42627.62012-.63916,1.43555-.63916,2.44434v2.27148c0,1.08301.21289,1.91602.63916,2.5.42578.58398,1.06445.875,1.91602.875Z" style="fill:#020202;"/><path d="m419.87598,278.20459c.45215,0,.83838-.07617,1.15967-.22852.32031-.15234.5835-.35742.78857-.61523.20508-.25684.35693-.55176.45703-.88281s.1499-.68066.1499-1.04883v-.18945h1.3252v.18945c0,.55762-.08447,1.08008-.25244,1.56934-.16846.48926-.41553.91504-.74121,1.27734-.32617.36328-.73096.64648-1.21484.85156-.4834.20508-1.04102.30762-1.67188.30762-1.21973,0-2.17139-.38379-2.85449-1.15137-.68359-.76758-1.02539-1.88672-1.02539-3.35938v-2.45996c0-1.43066.3418-2.54004,1.02539-3.32812.68311-.78906,1.63477-1.18359,2.85449-1.18359.63086,0,1.18848.10254,1.67188.30762.48389.20508.88867.48926,1.21484.85254.32568.3623.57275.78809.74121,1.27734.16797.48828.25244,1.01172.25244,1.56934v.18945h-1.3252v-.18945c-.01025-.35742-.06592-.70508-.16553-1.04102-.1001-.33691-.25244-.63379-.45752-.8916-.20508-.25684-.46533-.46191-.78076-.61523-.31543-.15234-.69922-.22852-1.15137-.22852-.85156,0-1.49023.31055-1.91602.93066s-.63867,1.43555-.63867,2.44434v2.27148c0,1.08301.21289,1.91602.63867,2.5s1.06445.875,1.91602.875Z" style="fill:#020202;"/><path d="m432.61963,276.47021h-4.73145l-.8042,2.74414h-1.41943l3.34326-11.04004h2.49219l3.34375,11.04004h-1.41943l-.80469-2.74414Zm-2.46045-7.72852l-1.9082,6.49805h4.00586l-1.9082-6.49805h-.18945Z" style="fill:#020202;"/><path d="m436.81543,268.17432h7.75977v1.22949h-3.21729v9.81055h-1.32471v-9.81055h-3.21777v-1.22949Z" style="fill:#020202;"/><path d="m447.63477,268.17432h7.00293v1.22949h-2.83887v8.58008h2.83887v1.23047h-7.00293v-1.23047h2.83936v-8.58008h-2.83936v-1.22949Z" style="fill:#020202;"/><path d="m457.69727,272.46436c0-1.43066.3418-2.54004,1.02539-3.32812.68311-.78906,1.63477-1.18359,2.85449-1.18359s2.17139.39453,2.85498,1.18359c.68311.78809,1.0249,1.89746,1.0249,3.32812v2.45996c0,1.47266-.3418,2.5918-1.0249,3.35938-.68359.76758-1.63525,1.15137-2.85498,1.15137s-2.17139-.38379-2.85449-1.15137c-.68359-.76758-1.02539-1.88672-1.02539-3.35938v-2.45996Zm3.87988,5.74023c.85156,0,1.49072-.29102,1.9165-.875s.63867-1.41699.63867-2.5v-2.27148c0-1.00879-.21289-1.82422-.63867-2.44434s-1.06494-.93066-1.9165-.93066-1.49023.31055-1.91602.93066c-.42627.62012-.63916,1.43555-.63916,2.44434v2.27148c0,1.08301.21289,1.91602.63916,2.5.42578.58398,1.06445.875,1.91602.875Z" style="fill:#020202;"/><path d="m474.1792,278.64697h.18945v-10.47266h1.32471v11.04004h-2.64941l-3.18604-10.47266h-.18945v10.47266h-1.32471v-11.04004h2.6499l3.18555,10.47266Z" style="fill:#020202;"/><path d="m488.97363,277.98389h.94629v-8.58008h-.94629v-1.22949h4.46338c.52588,0,.99121.07324,1.396.2207s.74658.34668,1.02539.59863c.27832.25293.48877.55469.63086.90723.1416.35254.21289.7334.21289,1.14355v.18945c0,.30469-.04736.58301-.14209.83594-.09473.25195-.22607.47852-.39404.67773-.16846.2002-.36572.37109-.5918.5127s-.4707.25-.7334.32324v.18945c.52588.14746.96729.42871,1.3252.84375.35693.41602.53613.92285.53613,1.52246v.18848c0,.41016-.07129.79199-.21289,1.14355-.14209.35254-.35254.65723-.63086.91504-.27881.25781-.62061.45996-1.02539.60742s-.87012.2207-1.396.2207h-4.46338v-1.23047Zm2.27148-4.9209h2.14502c.63086,0,1.12988-.16309,1.49805-.48828.36816-.32617.55225-.77344.55225-1.34082v-.09473c0-.53613-.19482-.95996-.5835-1.26953-.38916-.31055-.89404-.46582-1.51416-.46582h-2.09766v3.65918Zm0,4.9209h2.09766c.62012,0,1.125-.1543,1.51416-.46484.38867-.31055.5835-.73926.5835-1.28516v-.09473c0-.56836-.18408-1.01758-.55225-1.34863s-.86719-.49707-1.49805-.49707h-2.14502v3.69043Z" style="fill:#020202;"/><rect x="754.37143" y="247.95811" width="129.49059" height="50.2788" style="fill:#fff6ff;"/><path d="m884.3623,298.73682h-130.49121v-51.27881h130.49121v51.27881Zm-129.49121-1h128.49121v-49.27881h-128.49121v49.27881Z" style="fill:#020202;"/><path d="m772.85742,268.17432h2.52344l1.48242,10.47266h.18945l1.48242-10.47266h2.52344v11.04004h-1.22949v-10.47266h-.18945l-1.48242,10.47266h-2.39746l-1.4834-10.47266h-.18848v10.47266h-1.23047v-11.04004Z" style="fill:#020202;"/><path d="m789.76562,276.47021h-4.73145l-.80469,2.74414h-1.41992l3.34375-11.04004h2.49219l3.34375,11.04004h-1.41992l-.80371-2.74414Zm-2.46094-7.72852l-1.9082,6.49805h4.00586l-1.9082-6.49805h-.18945Z" style="fill:#020202;"/><path d="m797.90332,278.20459c.45215,0,.83789-.07617,1.15918-.22852.32031-.15234.58301-.35742.78809-.61523.20508-.25684.35742-.55176.45801-.88281.09961-.33105.14941-.68066.14941-1.04883v-.18945h1.3252v.18945c0,.55762-.08496,1.08008-.25293,1.56934s-.41504.91504-.74121,1.27734c-.32617.36328-.73047.64648-1.21387.85156-.48438.20508-1.04102.30762-1.67188.30762-1.21973,0-2.17188-.38379-2.85547-1.15137s-1.02441-1.88672-1.02441-3.35938v-2.45996c0-1.43066.34082-2.54004,1.02441-3.32812.68359-.78906,1.63574-1.18359,2.85547-1.18359.63086,0,1.1875.10254,1.67188.30762.4834.20508.8877.48926,1.21387.85254.32617.3623.57324.78809.74121,1.27734.16797.48828.25293,1.01172.25293,1.56934v.18945h-1.3252v-.18945c-.01074-.35742-.06543-.70508-.16504-1.04102-.10059-.33691-.25293-.63379-.45801-.8916-.20508-.25684-.46484-.46191-.78027-.61523-.31543-.15234-.69922-.22852-1.15137-.22852-.85156,0-1.49121.31055-1.91699.93066s-.63867,1.43555-.63867,2.44434v2.27148c0,1.08301.21289,1.91602.63867,2.5s1.06543.875,1.91699.875Z" style="fill:#020202;"/><path d="m804.60645,268.17432h1.3252v4.88867h4.7002v-4.88867h1.32422v11.04004h-1.32422v-4.9209h-4.7002v4.9209h-1.3252v-11.04004Z" style="fill:#020202;"/><path d="m815.22168,268.17432h7.00293v1.22949h-2.83984v8.58008h2.83984v1.23047h-7.00293v-1.23047h2.83887v-8.58008h-2.83887v-1.22949Z" style="fill:#020202;"/><path d="m831.3252,278.64697h.18945v-10.47266h1.32422v11.04004h-2.64941l-3.18652-10.47266h-.18848v10.47266h-1.3252v-11.04004h2.64941l3.18652,10.47266Z" style="fill:#020202;"/><path d="m836.26074,268.17432h6.6875v1.22949h-5.3623v3.65918h5.26758v1.23047h-5.26758v3.69043h5.45703v1.23047h-6.78223v-11.04004Z" style="fill:#020202;"/><path d="m856.8916,274.00928v-5.83496h6.9082v1.22949h-5.61523v3.94336h.18945c.10449-.20996.24121-.41211.41016-.60742.16797-.19434.36523-.36523.59082-.5127.22656-.14648.48145-.26562.76562-.35449s.59961-.13379.94629-.13379c.50488,0,.96973.08398,1.39551.25195s.79102.40527,1.09668.70996c.30469.30469.54395.67285.7168,1.10352.17383.43164.26074.91016.26074,1.43555v.28418c0,.52539-.08398,1.02246-.25195,1.49023-.16895.46777-.41602.88281-.74219,1.24609-.3252.3623-.73047.64941-1.21387.85938s-1.04102.31543-1.67188.31543c-.6416,0-1.20898-.09473-1.70312-.28418-.49512-.18848-.91016-.45117-1.24609-.78809-.33691-.33691-.5918-.7334-.76562-1.19141-.17285-.45703-.25977-.9541-.25977-1.49023v-.44141h1.3252v.34668c0,.87305.24414,1.52734.7334,1.96387.48828.43652,1.12695.6543,1.91602.6543.41992,0,.79102-.07617,1.1123-.22852.32031-.15234.58789-.35742.80371-.61523.21582-.25684.37598-.55664.48145-.89844.10449-.3418.15723-.69629.15723-1.06445v-.09473c0-.32617-.05469-.63086-.16504-.91504s-.26367-.53125-.45801-.74121-.43066-.37598-.70898-.49707c-.2793-.12109-.58105-.18164-.90723-.18164-.2207,0-.42383.03223-.60742.09473-.18359.06348-.34473.14453-.48047.24512-.1377.09961-.25.21289-.33984.33887-.08887.12598-.14941.24707-.18066.3623h-2.49219Z" style="fill:#020202;"/><rect x="1.49564" y="372.15332" width="129.49059" height="50.2788" style="fill:#fff6ff;"/><path d="m131.48633,422.93164H.99561v-51.27832h130.49072v51.27832Zm-129.49072-1h128.49072v-49.27832H1.99561v49.27832Z" style="fill:#020202;"/><path d="m19.98145,392.18164h2.52344l1.48242,10.47266h.18945l1.48242-10.47266h2.52393v11.04004h-1.23047v-10.47266h-.18945l-1.48242,10.47266h-2.39746l-1.48242-10.47266h-.18945v10.47266h-1.22998v-11.04004Z" style="fill:#020202;"/><path d="m36.88867,400.47754h-4.73145l-.8042,2.74414h-1.41943l3.34326-11.04004h2.49219l3.34375,11.04004h-1.41943l-.80469-2.74414Zm-2.46045-7.72852l-1.9082,6.49805h4.00586l-1.9082-6.49805h-.18945Z" style="fill:#020202;"/><path d="m45.02734,402.21191c.45215,0,.83838-.07617,1.15967-.22852.32031-.15234.5835-.35742.78857-.61523.20508-.25684.35693-.55176.45703-.88281s.1499-.68066.1499-1.04883v-.18945h1.3252v.18945c0,.55762-.08447,1.08008-.25244,1.56934-.16846.48926-.41553.91504-.74121,1.27734-.32617.36328-.73096.64648-1.21484.85156-.4834.20508-1.04102.30762-1.67188.30762-1.21973,0-2.17139-.38379-2.85449-1.15137-.68359-.76758-1.02539-1.88672-1.02539-3.35938v-2.45996c0-1.43066.3418-2.54004,1.02539-3.32812.68311-.78906,1.63477-1.18359,2.85449-1.18359.63086,0,1.18848.10254,1.67188.30762.48389.20508.88867.48926,1.21484.85254.32568.3623.57275.78809.74121,1.27734.16797.48828.25244,1.01172.25244,1.56934v.18945h-1.3252v-.18945c-.01025-.35742-.06592-.70508-.16553-1.04102-.1001-.33691-.25244-.63379-.45752-.8916-.20508-.25684-.46533-.46191-.78076-.61523-.31543-.15234-.69922-.22852-1.15137-.22852-.85156,0-1.49023.31055-1.91602.93066s-.63867,1.43555-.63867,2.44434v2.27148c0,1.08301.21289,1.91602.63867,2.5s1.06445.875,1.91602.875Z" style="fill:#020202;"/><path d="m51.73047,392.18164h1.32471v4.88867h4.7002v-4.88867h1.32471v11.04004h-1.32471v-4.9209h-4.7002v4.9209h-1.32471v-11.04004Z" style="fill:#020202;"/><path d="m62.34521,392.18164h7.00293v1.22949h-2.83887v8.58008h2.83887v1.23047h-7.00293v-1.23047h2.83936v-8.58008h-2.83936v-1.22949Z" style="fill:#020202;"/><path d="m78.44824,402.6543h.18945v-10.47266h1.32471v11.04004h-2.64941l-3.18604-10.47266h-.18945v10.47266h-1.32471v-11.04004h2.6499l3.18555,10.47266Z" style="fill:#020202;"/><path d="m83.38525,392.18164h6.6875v1.22949h-5.3623v3.65918h5.26758v1.23047h-5.26758v3.69043h5.45703v1.23047h-6.78223v-11.04004Z" style="fill:#020202;"/><path d="m107.02783,401.99121v-9.22656h-.18945l-1.81348,4.14844h-1.30908v-.09473l2.06592-4.63672h2.5708v9.80957h3.12305v1.23047h-7.5708v-1.23047h3.12305Z" style="fill:#020202;"/><rect x="146.72674" y="372.15332" width="129.49059" height="50.2788" style="fill:#fff6ff;"/><path d="m276.71729,422.93164h-130.49072v-51.27832h130.49072v51.27832Zm-129.49072-1h128.49072v-49.27832h-128.49072v49.27832Z" style="fill:#020202;"/><path d="m165.21289,392.18164h2.52344l1.48242,10.47266h.18945l1.48242-10.47266h2.52393v11.04004h-1.23047v-10.47266h-.18945l-1.48242,10.47266h-2.39746l-1.48242-10.47266h-.18945v10.47266h-1.22998v-11.04004Z" style="fill:#020202;"/><path d="m182.12012,400.47754h-4.73145l-.8042,2.74414h-1.41943l3.34326-11.04004h2.49219l3.34375,11.04004h-1.41943l-.80469-2.74414Zm-2.46045-7.72852l-1.9082,6.49805h4.00586l-1.9082-6.49805h-.18945Z" style="fill:#020202;"/><path d="m190.25879,402.21191c.45215,0,.83838-.07617,1.15967-.22852.32031-.15234.5835-.35742.78857-.61523.20508-.25684.35693-.55176.45703-.88281s.1499-.68066.1499-1.04883v-.18945h1.3252v.18945c0,.55762-.08447,1.08008-.25244,1.56934-.16846.48926-.41553.91504-.74121,1.27734-.32617.36328-.73096.64648-1.21484.85156-.4834.20508-1.04102.30762-1.67188.30762-1.21973,0-2.17139-.38379-2.85449-1.15137-.68359-.76758-1.02539-1.88672-1.02539-3.35938v-2.45996c0-1.43066.3418-2.54004,1.02539-3.32812.68311-.78906,1.63477-1.18359,2.85449-1.18359.63086,0,1.18848.10254,1.67188.30762.48389.20508.88867.48926,1.21484.85254.32568.3623.57275.78809.74121,1.27734.16797.48828.25244,1.01172.25244,1.56934v.18945h-1.3252v-.18945c-.01025-.35742-.06592-.70508-.16553-1.04102-.1001-.33691-.25244-.63379-.45752-.8916-.20508-.25684-.46533-.46191-.78076-.61523-.31543-.15234-.69922-.22852-1.15137-.22852-.85156,0-1.49023.31055-1.91602.93066s-.63867,1.43555-.63867,2.44434v2.27148c0,1.08301.21289,1.91602.63867,2.5s1.06445.875,1.91602.875Z" style="fill:#020202;"/><path d="m196.96191,392.18164h1.32471v4.88867h4.7002v-4.88867h1.32471v11.04004h-1.32471v-4.9209h-4.7002v4.9209h-1.32471v-11.04004Z" style="fill:#020202;"/><path d="m207.57666,392.18164h7.00293v1.22949h-2.83887v8.58008h2.83887v1.23047h-7.00293v-1.23047h2.83936v-8.58008h-2.83936v-1.22949Z" style="fill:#020202;"/><path d="m223.67969,402.6543h.18945v-10.47266h1.32471v11.04004h-2.64941l-3.18604-10.47266h-.18945v10.47266h-1.32471v-11.04004h2.6499l3.18555,10.47266Z" style="fill:#020202;"/><path d="m228.6167,392.18164h6.6875v1.22949h-5.3623v3.65918h5.26758v1.23047h-5.26758v3.69043h5.45703v1.23047h-6.78223v-11.04004Z" style="fill:#020202;"/><path d="m256.59668,401.99121v1.23047h-7.47607v-1.89258c0-.50488.08398-.94336.25244-1.31738.16797-.37305.40723-.69336.71777-.96191.31006-.26758.68604-.49121,1.12744-.66992.44189-.17871.94092-.33105,1.49854-.45801.93555-.20996,1.61133-.50977,2.02686-.89844.41504-.38867.62256-.86719.62256-1.43555v-.09473c0-.28418-.04688-.5625-.1416-.83594s-.24219-.52051-.44189-.74121-.45459-.39648-.76465-.52832c-.31055-.13086-.68115-.19727-1.1123-.19727-.80957,0-1.43799.24707-1.88477.74121s-.66992,1.15137-.66992,1.97168v.69434h-1.3252v-.78906c0-.50488.08398-.98828.25244-1.45117.16797-.46191.41553-.87207.74121-1.22949s.73096-.6416,1.21436-.85254c.48389-.20996,1.04102-.31543,1.67188-.31543.6416,0,1.19873.09766,1.67188.29199.47314.19531.86768.45215,1.18311.77344.31543.32031.54932.68359.70166,1.08789.15234.40527.229.81738.229,1.23828v.28418c0,.84082-.26318,1.55859-.78857,2.15234-.52588.59473-1.36719,1.01758-2.52393,1.26953-1.00928.2207-1.75049.5127-2.22363.87598-.47314.3623-.70996.89062-.70996,1.58496v.47266h6.15137Z" style="fill:#020202;"/><rect x="561.83154" y="247.95811" width="129.49059" height="50.2788" style="fill:#fff6ff;"/><path d="m691.82227,298.73682h-130.49072v-51.27881h130.49072v51.27881Zm-129.49072-1h128.49072v-49.27881h-128.49072v49.27881Z" style="fill:#020202;"/><path d="m580.31641,268.17432h2.52344l1.48242,10.47266h.18945l1.48242-10.47266h2.52393v11.04004h-1.23047v-10.47266h-.18945l-1.48242,10.47266h-2.39746l-1.48242-10.47266h-.18945v10.47266h-1.22998v-11.04004Z" style="fill:#020202;"/><path d="m597.22363,276.47021h-4.73145l-.8042,2.74414h-1.41943l3.34326-11.04004h2.49268l3.34375,11.04004h-1.41992l-.80469-2.74414Zm-2.46094-7.72852l-1.90771,6.49805h4.00537l-1.9082-6.49805h-.18945Z" style="fill:#020202;"/><path d="m605.3623,278.20459c.45215,0,.83789-.07617,1.15918-.22852.32031-.15234.58301-.35742.78809-.61523.20508-.25684.35742-.55176.45801-.88281.09961-.33105.14941-.68066.14941-1.04883v-.18945h1.3252v.18945c0,.55762-.08496,1.08008-.25293,1.56934s-.41504.91504-.74121,1.27734c-.32617.36328-.73047.64648-1.21387.85156-.48438.20508-1.04102.30762-1.67188.30762-1.21973,0-2.17188-.38379-2.85547-1.15137s-1.02441-1.88672-1.02441-3.35938v-2.45996c0-1.43066.34082-2.54004,1.02441-3.32812.68359-.78906,1.63574-1.18359,2.85547-1.18359.63086,0,1.1875.10254,1.67188.30762.4834.20508.8877.48926,1.21387.85254.32617.3623.57324.78809.74121,1.27734.16797.48828.25293,1.01172.25293,1.56934v.18945h-1.3252v-.18945c-.01074-.35742-.06543-.70508-.16504-1.04102-.10059-.33691-.25293-.63379-.45801-.8916-.20508-.25684-.46484-.46191-.78027-.61523-.31543-.15234-.69922-.22852-1.15137-.22852-.85156,0-1.49121.31055-1.91699.93066s-.63867,1.43555-.63867,2.44434v2.27148c0,1.08301.21289,1.91602.63867,2.5s1.06543.875,1.91699.875Z" style="fill:#020202;"/><path d="m612.06543,268.17432h1.3252v4.88867h4.7002v-4.88867h1.32422v11.04004h-1.32422v-4.9209h-4.7002v4.9209h-1.3252v-11.04004Z" style="fill:#020202;"/><path d="m622.68066,268.17432h7.00293v1.22949h-2.83984v8.58008h2.83984v1.23047h-7.00293v-1.23047h2.83887v-8.58008h-2.83887v-1.22949Z" style="fill:#020202;"/><path d="m638.78418,278.64697h.18945v-10.47266h1.32422v11.04004h-2.64941l-3.18652-10.47266h-.18848v10.47266h-1.3252v-11.04004h2.64941l3.18652,10.47266Z" style="fill:#020202;"/><path d="m643.71973,268.17432h6.6875v1.22949h-5.3623v3.65918h5.26758v1.23047h-5.26758v3.69043h5.45703v1.23047h-6.78223v-11.04004Z" style="fill:#020202;"/><path d="m667.75684,268.17432h2.57129v7.72754h1.70312v1.23047h-1.70312v2.08203h-1.3252v-2.08203h-5.11035v-1.8291l3.86426-7.12891Zm-2.72852,7.53906v.18848h3.97461v-7.16016h-.18945l-3.78516,6.97168Z" style="fill:#020202;"/><rect x="360.68237" y="372.15332" width="129.49059" height="50.2788" style="fill:#fff6ff;"/><path d="m490.67285,422.93164h-130.49072v-51.27832h130.49072v51.27832Zm-129.49072-1h128.49072v-49.27832h-128.49072v49.27832Z" style="fill:#020202;"/><path d="m379.16846,392.18164h2.52344l1.48242,10.47266h.18945l1.48242-10.47266h2.52393v11.04004h-1.23047v-10.47266h-.18945l-1.48242,10.47266h-2.39746l-1.48242-10.47266h-.18945v10.47266h-1.22998v-11.04004Z" style="fill:#020202;"/><path d="m396.07568,400.47754h-4.73145l-.8042,2.74414h-1.41943l3.34326-11.04004h2.49219l3.34375,11.04004h-1.41943l-.80469-2.74414Zm-2.46045-7.72852l-1.9082,6.49805h4.00586l-1.9082-6.49805h-.18945Z" style="fill:#020202;"/><path d="m404.21436,402.21191c.45215,0,.83838-.07617,1.15967-.22852.32031-.15234.5835-.35742.78857-.61523.20508-.25684.35693-.55176.45703-.88281s.1499-.68066.1499-1.04883v-.18945h1.3252v.18945c0,.55762-.08447,1.08008-.25244,1.56934-.16846.48926-.41553.91504-.74121,1.27734-.32617.36328-.73096.64648-1.21484.85156-.4834.20508-1.04102.30762-1.67188.30762-1.21973,0-2.17139-.38379-2.85449-1.15137-.68359-.76758-1.02539-1.88672-1.02539-3.35938v-2.45996c0-1.43066.3418-2.54004,1.02539-3.32812.68311-.78906,1.63477-1.18359,2.85449-1.18359.63086,0,1.18848.10254,1.67188.30762.48389.20508.88867.48926,1.21484.85254.32568.3623.57275.78809.74121,1.27734.16797.48828.25244,1.01172.25244,1.56934v.18945h-1.3252v-.18945c-.01025-.35742-.06592-.70508-.16553-1.04102-.1001-.33691-.25244-.63379-.45752-.8916-.20508-.25684-.46533-.46191-.78076-.61523-.31543-.15234-.69922-.22852-1.15137-.22852-.85156,0-1.49023.31055-1.91602.93066s-.63867,1.43555-.63867,2.44434v2.27148c0,1.08301.21289,1.91602.63867,2.5s1.06445.875,1.91602.875Z" style="fill:#020202;"/><path d="m410.91748,392.18164h1.32471v4.88867h4.7002v-4.88867h1.32471v11.04004h-1.32471v-4.9209h-4.7002v4.9209h-1.32471v-11.04004Z" style="fill:#020202;"/><path d="m421.53223,392.18164h7.00293v1.22949h-2.83887v8.58008h2.83887v1.23047h-7.00293v-1.23047h2.83936v-8.58008h-2.83936v-1.22949Z" style="fill:#020202;"/><path d="m437.63525,402.6543h.18945v-10.47266h1.32471v11.04004h-2.64941l-3.18604-10.47266h-.18945v10.47266h-1.32471v-11.04004h2.6499l3.18555,10.47266Z" style="fill:#020202;"/><path d="m442.57227,392.18164h6.6875v1.22949h-5.3623v3.65918h5.26758v1.23047h-5.26758v3.69043h5.45703v1.23047h-6.78223v-11.04004Z" style="fill:#020202;"/><path d="m465.70996,397.7334v-1.83008l3.59619-2.30273v-.18945h-6.24561v-1.22949h7.38135v2.01855l-3.59619,2.30273v.18945h.63086c.42041,0,.8252.06836,1.21436.20508s.7334.33594,1.0332.59863c.2998.26367.5415.58691.72559.9707.18359.38379.27588.82715.27588,1.33203v.28418c0,.47363-.09473.91504-.28369,1.3252-.18945.41016-.45215.76465-.78857,1.06445-.33691.2998-.7334.53613-1.19092.70996-.45752.17285-.9541.25977-1.49023.25977-.62061,0-1.17773-.09473-1.67188-.28418-.49463-.18848-.91504-.44922-1.26221-.78027-.34668-.33105-.6123-.71973-.79639-1.16699s-.27588-.92285-.27588-1.42773v-.85156h1.32471v.75684c0,.40039.06592.75488.19727,1.06445.13135.31055.31543.57324.55225.78906.23633.21582.51758.38086.84375.49707.32568.11523.67822.17285,1.05664.17285.34717,0,.67041-.05762.96973-.17285.2998-.11621.56006-.27637.78076-.48145.22119-.20508.39453-.44629.52051-.72559.12646-.27832.18945-.5752.18945-.89062v-.09473c0-.66309-.21045-1.18066-.63086-1.55371-.4209-.37305-.94629-.55957-1.57715-.55957h-1.48291Z" style="fill:#020202;"/><rect x="906.14662" y="247.95811" width="129.49059" height="50.2788" style="fill:#fff6ff;"/><path d="m1036.1377,298.73682h-130.49121v-51.27881h130.49121v51.27881Zm-129.49121-1h128.49121v-49.27881h-128.49121v49.27881Z" style="fill:#020202;"/><path d="m924.63184,268.17432h2.52344l1.48242,10.47266h.18945l1.48242-10.47266h2.52344v11.04004h-1.22949v-10.47266h-.18945l-1.48242,10.47266h-2.39746l-1.4834-10.47266h-.18848v10.47266h-1.23047v-11.04004Z" style="fill:#020202;"/><path d="m941.54004,276.47021h-4.73145l-.80469,2.74414h-1.41992l3.34375-11.04004h2.49219l3.34375,11.04004h-1.41992l-.80371-2.74414Zm-2.46094-7.72852l-1.9082,6.49805h4.00586l-1.9082-6.49805h-.18945Z" style="fill:#020202;"/><path d="m949.67773,278.20459c.45215,0,.83789-.07617,1.15918-.22852.32031-.15234.58301-.35742.78809-.61523.20508-.25684.35742-.55176.45801-.88281.09961-.33105.14941-.68066.14941-1.04883v-.18945h1.3252v.18945c0,.55762-.08496,1.08008-.25293,1.56934s-.41504.91504-.74121,1.27734c-.32617.36328-.73047.64648-1.21387.85156-.48438.20508-1.04102.30762-1.67188.30762-1.21973,0-2.17188-.38379-2.85547-1.15137s-1.02441-1.88672-1.02441-3.35938v-2.45996c0-1.43066.34082-2.54004,1.02441-3.32812.68359-.78906,1.63574-1.18359,2.85547-1.18359.63086,0,1.1875.10254,1.67188.30762.4834.20508.8877.48926,1.21387.85254.32617.3623.57324.78809.74121,1.27734.16797.48828.25293,1.01172.25293,1.56934v.18945h-1.3252v-.18945c-.01074-.35742-.06543-.70508-.16504-1.04102-.10059-.33691-.25293-.63379-.45801-.8916-.20508-.25684-.46484-.46191-.78027-.61523-.31543-.15234-.69922-.22852-1.15137-.22852-.85156,0-1.49121.31055-1.91699.93066s-.63867,1.43555-.63867,2.44434v2.27148c0,1.08301.21289,1.91602.63867,2.5s1.06543.875,1.91699.875Z" style="fill:#020202;"/><path d="m956.38086,268.17432h1.3252v4.88867h4.7002v-4.88867h1.32422v11.04004h-1.32422v-4.9209h-4.7002v4.9209h-1.3252v-11.04004Z" style="fill:#020202;"/><path d="m966.99609,268.17432h7.00293v1.22949h-2.83984v8.58008h2.83984v1.23047h-7.00293v-1.23047h2.83887v-8.58008h-2.83887v-1.22949Z" style="fill:#020202;"/><path d="m983.09961,278.64697h.18945v-10.47266h1.32422v11.04004h-2.64941l-3.18652-10.47266h-.18848v10.47266h-1.3252v-11.04004h2.64941l3.18652,10.47266Z" style="fill:#020202;"/><path d="m988.03516,268.17432h6.6875v1.22949h-5.3623v3.65918h5.26758v1.23047h-5.26758v3.69043h5.45703v1.23047h-6.78223v-11.04004Z" style="fill:#020202;"/><path d="m1014.58008,271.39111c0-.68359-.20996-1.23242-.63086-1.64746-.4209-.41602-1.00391-.62305-1.75-.62305-.3584,0-.68652.0625-.98633.18848-.2998.12695-.55762.30762-.77246.54492-.21582.23633-.38379.51758-.50488.84375s-.18164.68359-.18164,1.07227v1.64062h.18945c.25195-.46289.6123-.82617,1.08008-1.08887s.99121-.39453,1.56934-.39453c.50488,0,.97266.08203,1.4043.24512.43066.16309.80176.40234,1.11133.71777.31055.31543.55273.69629.72559,1.14355.17383.44629.26074.9541.26074,1.52148v.18945c0,.54688-.09766,1.0459-.29199,1.49805s-.46289.8418-.80469,1.16699c-.3418.32617-.74609.5791-1.21387.75781-.46875.17871-.97559.26758-1.52246.26758s-1.05371-.08887-1.52148-.26758c-.46875-.17871-.87305-.42871-1.21484-.75-.3418-.32031-.61035-.7041-.80469-1.15137-.19434-.44629-.29199-.93848-.29199-1.47461v-4.02148c0-.57812.10059-1.10449.2998-1.57715.2002-.47363.47363-.87598.82031-1.20703.34766-.33105.74902-.58594,1.20703-.76465.45703-.17871.94824-.26855,1.47461-.26855.52539,0,1.01465.0791,1.4668.2373.45215.15723.84082.38574,1.16699.68555s.58105.66309.76465,1.08887c.18457.42578.27637.90137.27637,1.42676h-1.3252Zm-2.31836,6.87695c.37891,0,.72266-.06055,1.0332-.18164.30957-.12012.5752-.29199.79688-.5127.2207-.2207.38867-.4834.50391-.78809.11621-.30469.17383-.6416.17383-1.00977v-.18945c0-.36719-.06348-.7041-.18945-1.00879s-.2998-.56836-.52051-.78906-.48633-.3916-.7959-.5127c-.31055-.12012-.64453-.18066-1.00195-.18066s-.68848.0625-.99316.18848c-.30566.12695-.57129.2998-.79688.52051-.22656.2207-.40234.47852-.52832.77344-.12598.29395-.18945.60938-.18945.94629v.2998c0,.34668.05762.66992.17383.96973.11523.2998.28418.55957.50488.78027s.48633.39258.7959.5127c.31055.12109.6543.18164,1.0332.18164Z" style="fill:#020202;"/><rect x="1057.92182" y="247.95811" width="129.49059" height="50.2788" style="fill:#fff6ff;"/><path d="m1187.91211,298.73682h-130.49023v-51.27881h130.49023v51.27881Zm-129.49023-1h128.49023v-49.27881h-128.49023v49.27881Z" style="fill:#020202;"/><rect x="626.07715" y="51.32227" width="1" height="71.4209" style="fill:#020202;"/><rect x="626.07715" y="173.10254" width="1" height="72.28809" style="fill:#020202;"/><rect x="970.3916" y="174.5791" width="1" height="71.47754" style="fill:#020202;"/><rect x="424.92773" y="298.88672" width="1" height="71.02637" style="fill:#020202;"/><path d="m139.77148,246.97803h-1v-10.08691c0-14.88721,12.11133-26.99854,26.99854-26.99854h90.08105c14.33545,0,25.99854-11.6626,25.99854-25.99805v-8.95654h1v8.95654c0,14.88672-12.11133,26.99805-26.99854,26.99805h-90.08105c-14.33545,0-25.99854,11.66309-25.99854,25.99854v10.08691Z" style="fill:#020202;"/><path d="m425.92725,245.79834h-1v-8.90723c0-14.33545-11.66309-25.99854-25.99854-25.99854h-90.08057c-14.88721,0-26.99854-12.11133-26.99854-26.99805v-8.95654h1v8.95654c0,14.33545,11.66309,25.99805,25.99854,25.99805h90.08057c14.88721,0,26.99854,12.11133,26.99854,26.99854v8.90723Z" style="fill:#020202;"/><path d="m282.83301,122.63232h-1v-8.69189c0-14.88672,12.11133-26.99805,26.99854-26.99805h291.24707c14.33545,0,25.99854-11.66309,25.99854-25.99854v-8.95605h1v8.95605c0,14.88721-12.11133,26.99854-26.99854,26.99854h-291.24707c-14.33545,0-25.99854,11.6626-25.99854,25.99805v8.69189Z" style="fill:#020202;"/><path d="m971.3916,122.74316h-1v-8.80273c0-14.33545-11.66309-25.99805-25.99902-25.99805h-291.31738c-14.88672,0-26.99805-12.11133-26.99805-26.99854v-8.95605h1v8.95605c0,14.33545,11.66309,25.99854,25.99805,25.99854h291.31738c14.8877,0,26.99902,12.11133,26.99902,26.99805v8.80273Z" style="fill:#020202;"/><rect x="538.85802" y="1.40988" width="175.43764" height="50.2788" style="fill:#ff85ff;"/><path d="m714.7959,52.18848h-176.43799V.90967h176.43799v51.27881Zm-175.43799-1h174.43799V1.90967h-174.43799v49.27881Z" style="fill:#020202;"/><path d="m564.87695,25.72559c0-1.42969.3418-2.53906,1.02539-3.32812.68311-.78857,1.63477-1.18262,2.85449-1.18262s2.17139.39404,2.85498,1.18262c.68311.78906,1.0249,1.89844,1.0249,3.32812v2.46045c0,1.47217-.3418,2.59229-1.0249,3.35938-.68359.76758-1.63525,1.15137-2.85498,1.15137s-2.17139-.38379-2.85449-1.15137c-.68359-.76709-1.02539-1.88721-1.02539-3.35938v-2.46045Zm3.87988,5.74121c.85156,0,1.49072-.29199,1.9165-.87549s.63867-1.41699.63867-2.5v-2.271c0-1.00928-.21289-1.82422-.63867-2.44482-.42578-.62012-1.06494-.93066-1.9165-.93066s-1.49023.31055-1.91602.93066c-.42627.62061-.63916,1.43555-.63916,2.44482v2.271c0,1.08301.21289,1.9165.63916,2.5.42578.5835,1.06445.87549,1.91602.87549Z" style="fill:#020202;"/><path d="m582.65186,32.47607h-1.32471v-3.69092c0-.27295-.06299-.4834-.18945-.63086-.12598-.14697-.34668-.2207-.66211-.2207h-3.43848v4.54248h-1.32471v-11.04053h3.94287c.56787,0,1.06201.08154,1.48242.24463s.77002.38135,1.04883.6543c.27881.27344.48926.5918.63086.9541.14209.36279.21289.74414.21289,1.14355v.47314c0,.41016-.11279.82031-.33887,1.23047s-.57568.72559-1.04883.94629v.18945c.31543.05273.5625.17871.74121.37842s.26807.48389.26807.85156v3.97461Zm-5.61475-5.77246h2.46045c.74658,0,1.30127-.16016,1.66406-.48096s.54395-.7915.54395-1.41162v-.28418c0-.55713-.18115-1.00684-.54395-1.34863-.36279-.34131-.91748-.51221-1.66406-.51221h-2.46045v4.0376Z" style="fill:#020202;"/><path d="m588.58252,27.17676h4.9209v5.29932h-1.22998v-1.32471h-.18945c-.1792.46289-.49463.83594-.94629,1.11963-.45215.28418-.97803.42578-1.57715.42578-1.18848,0-2.12158-.38379-2.7998-1.15137-.67822-.76709-1.01709-1.88721-1.01709-3.35938v-2.46045c0-1.42969.34131-2.53906,1.0249-3.32812.68359-.78857,1.63525-1.18262,2.85498-1.18262.63086,0,1.18799.10254,1.67188.30762.4834.20508.88818.48877,1.21436.85156.32568.36279.57275.78857.74121,1.27734.16797.48926.25244,1.01221.25244,1.56934v.18945h-1.32471v-.18945c0-.35693-.05029-.7041-.1499-1.04053-.1001-.33643-.25244-.63379-.45752-.8916-.20508-.25732-.46777-.4624-.78857-.61475s-.70703-.229-1.15918-.229c-.85156,0-1.49072.31055-1.9165.93066-.42578.62061-.63867,1.43555-.63867,2.44482v2.271c0,1.08301.21289,1.9165.63867,2.5s1.0752.87549,1.94824.87549c.78857,0,1.40576-.25244,1.85303-.75732.44678-.50439.67041-1.20898.67041-2.11328v-.18945h-3.59619v-1.22998Z" style="fill:#020202;"/><path d="m602.44629,29.73193h-4.73145l-.80469,2.74414h-1.41992l3.34375-11.04053h2.49219l3.34375,11.04053h-1.41992l-.80371-2.74414Zm-2.46094-7.72852l-1.9082,6.49805h4.00586l-1.9082-6.49805h-.18945Z" style="fill:#020202;"/><path d="m612.68262,31.9082h.18945v-10.47266h1.32422v11.04053h-2.64941l-3.18652-10.47266h-.18848v10.47266h-1.3252v-11.04053h2.64941l3.18652,10.47266Z" style="fill:#020202;"/><path d="m617.46191,21.43555h7.00293v1.23047h-2.83984v8.57959h2.83984v1.23047h-7.00293v-1.23047h2.83887v-8.57959h-2.83887v-1.23047Z" style="fill:#020202;"/><path d="m627.79199,21.43555h7.38086v1.9873l-6.62402,7.63379v.18896h6.81348v1.23047h-7.94922v-1.9873l6.62402-7.63379v-.18896h-6.24512v-1.23047Z" style="fill:#020202;"/><path d="m644.21094,29.73193h-4.73145l-.80469,2.74414h-1.41992l3.34375-11.04053h2.49219l3.34375,11.04053h-1.41992l-.80371-2.74414Zm-2.46094-7.72852l-1.9082,6.49805h4.00586l-1.9082-6.49805h-.18945Z" style="fill:#020202;"/><path d="m648.40625,21.43555h7.75977v1.23047h-3.21777v9.81006h-1.32422v-9.81006h-3.21777v-1.23047Z" style="fill:#020202;"/><path d="m659.22559,21.43555h7.00293v1.23047h-2.83984v8.57959h2.83984v1.23047h-7.00293v-1.23047h2.83887v-8.57959h-2.83887v-1.23047Z" style="fill:#020202;"/><path d="m669.28809,25.72559c0-1.42969.3418-2.53906,1.02539-3.32812.68359-.78857,1.63477-1.18262,2.85449-1.18262s2.1709.39404,2.85449,1.18262c.68359.78906,1.02539,1.89844,1.02539,3.32812v2.46045c0,1.47217-.3418,2.59229-1.02539,3.35938-.68359.76758-1.63477,1.15137-2.85449,1.15137s-2.1709-.38379-2.85449-1.15137c-.68359-.76709-1.02539-1.88721-1.02539-3.35938v-2.46045Zm3.87988,5.74121c.85156,0,1.49023-.29199,1.91602-.87549s.63965-1.41699.63965-2.5v-2.271c0-1.00928-.21387-1.82422-.63965-2.44482-.42578-.62012-1.06445-.93066-1.91602-.93066s-1.49023.31055-1.91602.93066c-.42578.62061-.63867,1.43555-.63867,2.44482v2.271c0,1.08301.21289,1.9165.63867,2.5s1.06445.87549,1.91602.87549Z" style="fill:#020202;"/><path d="m685.77051,31.9082h.18945v-10.47266h1.32422v11.04053h-2.64941l-3.18652-10.47266h-.18848v10.47266h-1.3252v-11.04053h2.64941l3.18652,10.47266Z" style="fill:#020202;"/><rect x="205.61622" y="124.19404" width="153.46662" height="50.2788" style="fill:#ffc6ff;"/><path d="m359.58301,174.97266h-154.4668v-51.27881h154.4668v51.27881Zm-153.4668-1h152.4668v-49.27881h-152.4668v49.27881Z" style="fill:#020202;"/><path d="m241.95605,144.2207h1.3252v9.81006h5.77246v1.23047h-7.09766v-11.04053Z" style="fill:#020202;"/><path d="m251.97119,148.51074c0-1.42969.3418-2.53906,1.02539-3.32812.68311-.78857,1.63477-1.18262,2.85449-1.18262s2.17139.39404,2.85498,1.18262c.68311.78906,1.0249,1.89844,1.0249,3.32812v2.46045c0,1.47217-.3418,2.59229-1.0249,3.35938-.68359.76758-1.63525,1.15137-2.85498,1.15137s-2.17139-.38379-2.85449-1.15137c-.68359-.76709-1.02539-1.88721-1.02539-3.35938v-2.46045Zm3.87988,5.74121c.85156,0,1.49072-.29199,1.9165-.87549s.63867-1.41699.63867-2.5v-2.271c0-1.00928-.21289-1.82422-.63867-2.44482-.42578-.62012-1.06494-.93066-1.9165-.93066s-1.49023.31055-1.91602.93066c-.42627.62061-.63916,1.43555-.63916,2.44482v2.271c0,1.08301.21289,1.9165.63916,2.5.42578.5835,1.06445.87549,1.91602.87549Z" style="fill:#020202;"/><path d="m266.35547,154.25195c.45215,0,.83838-.07617,1.15967-.229.32031-.15234.5835-.35693.78857-.61475s.35693-.55225.45703-.8833c.1001-.33154.1499-.68066.1499-1.04883v-.18945h1.3252v.18945c0,.55713-.08447,1.08008-.25244,1.56934-.16846.48877-.41553.91455-.74121,1.27734-.32617.36279-.73096.64648-1.21484.85156-.4834.20508-1.04102.30762-1.67188.30762-1.21973,0-2.17139-.38379-2.85449-1.15137-.68359-.76709-1.02539-1.88721-1.02539-3.35938v-2.46045c0-1.42969.3418-2.53906,1.02539-3.32812.68311-.78857,1.63477-1.18262,2.85449-1.18262.63086,0,1.18848.10254,1.67188.30762.48389.20508.88867.48877,1.21484.85156.32568.36279.57275.78857.74121,1.27734.16797.48926.25244,1.01221.25244,1.56934v.18945h-1.3252v-.18945c-.01025-.35693-.06592-.7041-.16553-1.04053-.1001-.33643-.25244-.63379-.45752-.8916-.20508-.25732-.46533-.4624-.78076-.61475s-.69922-.229-1.15137-.229c-.85156,0-1.49023.31055-1.91602.93066-.42578.62061-.63867,1.43555-.63867,2.44482v2.271c0,1.08301.21289,1.9165.63867,2.5s1.06445.87549,1.91602.87549Z" style="fill:#020202;"/><path d="m279.09912,152.51709h-4.73145l-.8042,2.74414h-1.41943l3.34326-11.04053h2.49219l3.34375,11.04053h-1.41943l-.80469-2.74414Zm-2.46045-7.72852l-1.9082,6.49805h4.00586l-1.9082-6.49805h-.18945Z" style="fill:#020202;"/><path d="m283.29492,144.2207h7.75977v1.23047h-3.21729v9.81006h-1.32471v-9.81006h-3.21777v-1.23047Z" style="fill:#020202;"/><path d="m294.11426,144.2207h7.00293v1.23047h-2.83887v8.57959h2.83887v1.23047h-7.00293v-1.23047h2.83936v-8.57959h-2.83936v-1.23047Z" style="fill:#020202;"/><path d="m304.17725,148.51074c0-1.42969.3418-2.53906,1.02539-3.32812.68311-.78857,1.63477-1.18262,2.85449-1.18262s2.17139.39404,2.85498,1.18262c.68311.78906,1.0249,1.89844,1.0249,3.32812v2.46045c0,1.47217-.3418,2.59229-1.0249,3.35938-.68359.76758-1.63525,1.15137-2.85498,1.15137s-2.17139-.38379-2.85449-1.15137c-.68359-.76709-1.02539-1.88721-1.02539-3.35938v-2.46045Zm3.87988,5.74121c.85156,0,1.49072-.29199,1.9165-.87549s.63867-1.41699.63867-2.5v-2.271c0-1.00928-.21289-1.82422-.63867-2.44482-.42578-.62012-1.06494-.93066-1.9165-.93066s-1.49023.31055-1.91602.93066c-.42627.62061-.63916,1.43555-.63916,2.44482v2.271c0,1.08301.21289,1.9165.63916,2.5.42578.5835,1.06445.87549,1.91602.87549Z" style="fill:#020202;"/><path d="m320.65869,154.69336h.18945v-10.47266h1.32471v11.04053h-2.64941l-3.18604-10.47266h-.18945v10.47266h-1.32471v-11.04053h2.6499l3.18555,10.47266Z" style="fill:#020202;"/><rect x="549.88726" y="124.19404" width="153.46662" height="50.2788" style="fill:#ffc6ff;"/><path d="m703.85352,174.97266h-154.46631v-51.27881h154.46631v51.27881Zm-153.46631-1h152.46631v-49.27881h-152.46631v49.27881Z" style="fill:#020202;"/><path d="m586.18359,144.2207h1.3252v9.81006h5.77246v1.23047h-7.09766v-11.04053Z" style="fill:#020202;"/><path d="m596.19922,148.51074c0-1.42969.3418-2.53906,1.02539-3.32812.68359-.78857,1.63477-1.18262,2.85449-1.18262s2.1709.39404,2.85449,1.18262c.68359.78906,1.02539,1.89844,1.02539,3.32812v2.46045c0,1.47217-.3418,2.59229-1.02539,3.35938-.68359.76758-1.63477,1.15137-2.85449,1.15137s-2.1709-.38379-2.85449-1.15137c-.68359-.76709-1.02539-1.88721-1.02539-3.35938v-2.46045Zm3.87988,5.74121c.85156,0,1.49023-.29199,1.91602-.87549s.63965-1.41699.63965-2.5v-2.271c0-1.00928-.21387-1.82422-.63965-2.44482-.42578-.62012-1.06445-.93066-1.91602-.93066s-1.49023.31055-1.91602.93066c-.42578.62061-.63867,1.43555-.63867,2.44482v2.271c0,1.08301.21289,1.9165.63867,2.5s1.06445.87549,1.91602.87549Z" style="fill:#020202;"/><path d="m610.58301,154.25195c.45215,0,.83789-.07617,1.15918-.229.32031-.15234.58301-.35693.78809-.61475s.35742-.55225.45801-.8833c.09961-.33154.14941-.68066.14941-1.04883v-.18945h1.3252v.18945c0,.55713-.08496,1.08008-.25293,1.56934-.16797.48877-.41504.91455-.74121,1.27734s-.73047.64648-1.21387.85156c-.48438.20508-1.04102.30762-1.67188.30762-1.21973,0-2.17188-.38379-2.85547-1.15137-.68359-.76709-1.02441-1.88721-1.02441-3.35938v-2.46045c0-1.42969.34082-2.53906,1.02441-3.32812.68359-.78857,1.63574-1.18262,2.85547-1.18262.63086,0,1.1875.10254,1.67188.30762.4834.20508.8877.48877,1.21387.85156s.57324.78857.74121,1.27734c.16797.48926.25293,1.01221.25293,1.56934v.18945h-1.3252v-.18945c-.01074-.35693-.06543-.7041-.16504-1.04053-.10059-.33643-.25293-.63379-.45801-.8916-.20508-.25732-.46484-.4624-.78027-.61475s-.69922-.229-1.15137-.229c-.85156,0-1.49121.31055-1.91699.93066-.42578.62061-.63867,1.43555-.63867,2.44482v2.271c0,1.08301.21289,1.9165.63867,2.5s1.06543.87549,1.91699.87549Z" style="fill:#020202;"/><path d="m623.32715,152.51709h-4.73145l-.80469,2.74414h-1.41992l3.34375-11.04053h2.49219l3.34375,11.04053h-1.41992l-.80371-2.74414Zm-2.46094-7.72852l-1.9082,6.49805h4.00586l-1.9082-6.49805h-.18945Z" style="fill:#020202;"/><path d="m627.52246,144.2207h7.75977v1.23047h-3.21777v9.81006h-1.32422v-9.81006h-3.21777v-1.23047Z" style="fill:#020202;"/><path d="m638.34277,144.2207h7.00293v1.23047h-2.83984v8.57959h2.83984v1.23047h-7.00293v-1.23047h2.83887v-8.57959h-2.83887v-1.23047Z" style="fill:#020202;"/><path d="m648.4043,148.51074c0-1.42969.3418-2.53906,1.02539-3.32812.68359-.78857,1.63477-1.18262,2.85449-1.18262s2.1709.39404,2.85449,1.18262c.68359.78906,1.02539,1.89844,1.02539,3.32812v2.46045c0,1.47217-.3418,2.59229-1.02539,3.35938-.68359.76758-1.63477,1.15137-2.85449,1.15137s-2.1709-.38379-2.85449-1.15137c-.68359-.76709-1.02539-1.88721-1.02539-3.35938v-2.46045Zm3.87988,5.74121c.85156,0,1.49023-.29199,1.91602-.87549s.63965-1.41699.63965-2.5v-2.271c0-1.00928-.21387-1.82422-.63965-2.44482-.42578-.62012-1.06445-.93066-1.91602-.93066s-1.49023.31055-1.91602.93066c-.42578.62061-.63867,1.43555-.63867,2.44482v2.271c0,1.08301.21289,1.9165.63867,2.5s1.06445.87549,1.91602.87549Z" style="fill:#020202;"/><path d="m664.88672,154.69336h.18945v-10.47266h1.32422v11.04053h-2.64941l-3.18652-10.47266h-.18848v10.47266h-1.3252v-11.04053h2.64941l3.18652,10.47266Z" style="fill:#020202;"/><rect x="894.1583" y="124.19404" width="153.46662" height="50.2788" style="fill:#ffc6ff;"/><path d="m1048.125,174.97266h-154.4668v-51.27881h154.4668v51.27881Zm-153.4668-1h152.4668v-49.27881h-152.4668v49.27881Z" style="fill:#020202;"/><path d="m930.49902,144.2207h1.3252v9.81006h5.77246v1.23047h-7.09766v-11.04053Z" style="fill:#020202;"/><path d="m940.51465,148.51074c0-1.42969.3418-2.53906,1.02539-3.32812.68359-.78857,1.63477-1.18262,2.85449-1.18262s2.1709.39404,2.85449,1.18262c.68359.78906,1.02539,1.89844,1.02539,3.32812v2.46045c0,1.47217-.3418,2.59229-1.02539,3.35938-.68359.76758-1.63477,1.15137-2.85449,1.15137s-2.1709-.38379-2.85449-1.15137c-.68359-.76709-1.02539-1.88721-1.02539-3.35938v-2.46045Zm3.87988,5.74121c.85156,0,1.49023-.29199,1.91602-.87549s.63965-1.41699.63965-2.5v-2.271c0-1.00928-.21387-1.82422-.63965-2.44482-.42578-.62012-1.06445-.93066-1.91602-.93066s-1.49023.31055-1.91602.93066c-.42578.62061-.63867,1.43555-.63867,2.44482v2.271c0,1.08301.21289,1.9165.63867,2.5s1.06445.87549,1.91602.87549Z" style="fill:#020202;"/><path d="m954.89844,154.25195c.45215,0,.83789-.07617,1.15918-.229.32031-.15234.58301-.35693.78809-.61475s.35742-.55225.45801-.8833c.09961-.33154.14941-.68066.14941-1.04883v-.18945h1.3252v.18945c0,.55713-.08496,1.08008-.25293,1.56934-.16797.48877-.41504.91455-.74121,1.27734s-.73047.64648-1.21387.85156c-.48438.20508-1.04102.30762-1.67188.30762-1.21973,0-2.17188-.38379-2.85547-1.15137-.68359-.76709-1.02441-1.88721-1.02441-3.35938v-2.46045c0-1.42969.34082-2.53906,1.02441-3.32812.68359-.78857,1.63574-1.18262,2.85547-1.18262.63086,0,1.1875.10254,1.67188.30762.4834.20508.8877.48877,1.21387.85156s.57324.78857.74121,1.27734c.16797.48926.25293,1.01221.25293,1.56934v.18945h-1.3252v-.18945c-.01074-.35693-.06543-.7041-.16504-1.04053-.10059-.33643-.25293-.63379-.45801-.8916-.20508-.25732-.46484-.4624-.78027-.61475s-.69922-.229-1.15137-.229c-.85156,0-1.49121.31055-1.91699.93066-.42578.62061-.63867,1.43555-.63867,2.44482v2.271c0,1.08301.21289,1.9165.63867,2.5s1.06543.87549,1.91699.87549Z" style="fill:#020202;"/><path d="m967.64258,152.51709h-4.73145l-.80469,2.74414h-1.41992l3.34375-11.04053h2.49219l3.34375,11.04053h-1.41992l-.80371-2.74414Zm-2.46094-7.72852l-1.9082,6.49805h4.00586l-1.9082-6.49805h-.18945Z" style="fill:#020202;"/><path d="m971.83789,144.2207h7.75977v1.23047h-3.21777v9.81006h-1.32422v-9.81006h-3.21777v-1.23047Z" style="fill:#020202;"/><path d="m982.6582,144.2207h7.00293v1.23047h-2.83984v8.57959h2.83984v1.23047h-7.00293v-1.23047h2.83887v-8.57959h-2.83887v-1.23047Z" style="fill:#020202;"/><path d="m992.71973,148.51074c0-1.42969.3418-2.53906,1.02539-3.32812.68359-.78857,1.63477-1.18262,2.85449-1.18262s2.1709.39404,2.85449,1.18262c.68359.78906,1.02539,1.89844,1.02539,3.32812v2.46045c0,1.47217-.3418,2.59229-1.02539,3.35938-.68359.76758-1.63477,1.15137-2.85449,1.15137s-2.1709-.38379-2.85449-1.15137c-.68359-.76709-1.02539-1.88721-1.02539-3.35938v-2.46045Zm3.87988,5.74121c.85156,0,1.49023-.29199,1.91602-.87549s.63965-1.41699.63965-2.5v-2.271c0-1.00928-.21387-1.82422-.63965-2.44482-.42578-.62012-1.06445-.93066-1.91602-.93066s-1.49023.31055-1.91602.93066c-.42578.62061-.63867,1.43555-.63867,2.44482v2.271c0,1.08301.21289,1.9165.63867,2.5s1.06445.87549,1.91602.87549Z" style="fill:#020202;"/><path d="m1009.20215,154.69336h.18945v-10.47266h1.32422v11.04053h-2.64941l-3.18652-10.47266h-.18848v10.47266h-1.3252v-11.04053h2.64941l3.18652,10.47266Z" style="fill:#020202;"/><path d="m1076.40723,268.17432h2.52344l1.48242,10.47266h.18945l1.48242-10.47266h2.52344v11.04004h-1.22949v-10.47266h-.18945l-1.48242,10.47266h-2.39746l-1.4834-10.47266h-.18848v10.47266h-1.23047v-11.04004Z" style="fill:#020202;"/><path d="m1093.31543,276.47021h-4.73145l-.80469,2.74414h-1.41992l3.34375-11.04004h2.49219l3.34375,11.04004h-1.41992l-.80371-2.74414Zm-2.46094-7.72852l-1.9082,6.49805h4.00586l-1.9082-6.49805h-.18945Z" style="fill:#020202;"/><path d="m1101.45312,278.20459c.45215,0,.83789-.07617,1.15918-.22852.32031-.15234.58301-.35742.78809-.61523.20508-.25684.35742-.55176.45801-.88281.09961-.33105.14941-.68066.14941-1.04883v-.18945h1.3252v.18945c0,.55762-.08496,1.08008-.25293,1.56934s-.41504.91504-.74121,1.27734c-.32617.36328-.73047.64648-1.21387.85156-.48438.20508-1.04102.30762-1.67188.30762-1.21973,0-2.17188-.38379-2.85547-1.15137s-1.02441-1.88672-1.02441-3.35938v-2.45996c0-1.43066.34082-2.54004,1.02441-3.32812.68359-.78906,1.63574-1.18359,2.85547-1.18359.63086,0,1.1875.10254,1.67188.30762.4834.20508.8877.48926,1.21387.85254.32617.3623.57324.78809.74121,1.27734.16797.48828.25293,1.01172.25293,1.56934v.18945h-1.3252v-.18945c-.01074-.35742-.06543-.70508-.16504-1.04102-.10059-.33691-.25293-.63379-.45801-.8916-.20508-.25684-.46484-.46191-.78027-.61523-.31543-.15234-.69922-.22852-1.15137-.22852-.85156,0-1.49121.31055-1.91699.93066s-.63867,1.43555-.63867,2.44434v2.27148c0,1.08301.21289,1.91602.63867,2.5s1.06543.875,1.91699.875Z" style="fill:#020202;"/><path d="m1108.15625,268.17432h1.3252v4.88867h4.7002v-4.88867h1.32422v11.04004h-1.32422v-4.9209h-4.7002v4.9209h-1.3252v-11.04004Z" style="fill:#020202;"/><path d="m1118.77148,268.17432h7.00293v1.22949h-2.83984v8.58008h2.83984v1.23047h-7.00293v-1.23047h2.83887v-8.58008h-2.83887v-1.22949Z" style="fill:#020202;"/><path d="m1134.875,278.64697h.18945v-10.47266h1.32422v11.04004h-2.64941l-3.18652-10.47266h-.18848v10.47266h-1.3252v-11.04004h2.64941l3.18652,10.47266Z" style="fill:#020202;"/><path d="m1139.81055,268.17432h6.6875v1.22949h-5.3623v3.65918h5.26758v1.23047h-5.26758v3.69043h5.45703v1.23047h-6.78223v-11.04004Z" style="fill:#020202;"/><path d="m1160.34668,268.17432h7.38086v1.92383l-4.65234,7.03418c-.2207.33691-.38965.62598-.50488.86719-.11621.24219-.17383.48926-.17383.74121v.47363h-1.29297v-.56738c0-.18945.01855-.36816.05566-.53711.03613-.16797.09473-.33887.17285-.51172.0791-.17383.17871-.35742.2998-.55273.12109-.19434.26562-.41797.43359-.66992l4.52734-6.78223v-.18945h-6.24609v-1.22949Z" style="fill:#020202;"/><polygon points="425.42735 245.39064 420.49547 238.77211 419.06133 238.77211 425.42735 247.3152 431.79399 238.77211 430.35973 238.77211 425.42735 245.39064" style="fill:#020202;"/><polygon points="626.57684 245.39064 621.64495 238.77211 620.21081 238.77211 626.57684 247.3152 632.94348 238.77211 631.50921 238.77211 626.57684 245.39064" style="fill:#020202;"/><polygon points="819.11642 245.39064 814.18453 238.77211 812.75039 238.77211 819.11642 247.3152 825.48305 238.77211 824.04879 238.77211 819.11642 245.39064" style="fill:#020202;"/><polygon points="970.89161 245.39064 965.95973 238.77211 964.52558 238.77211 970.89161 247.3152 977.25825 238.77211 975.82398 238.77211 970.89161 245.39064" style="fill:#020202;"/><polygon points="1122.66681 245.39064 1117.73492 238.77211 1116.30078 238.77211 1122.66681 247.3152 1129.03344 238.77211 1127.59918 238.77211 1122.66681 245.39064" style="fill:#020202;"/><polygon points="282.33318 122.10309 277.4013 115.48456 275.96715 115.48456 282.33318 124.02765 288.69982 115.48456 287.26555 115.48456 282.33318 122.10309" style="fill:#020202;"/><polygon points="626.57684 122.10309 621.64495 115.48456 620.21081 115.48456 626.57684 124.02765 632.94348 115.48456 631.50921 115.48456 626.57684 122.10309" style="fill:#020202;"/><polygon points="970.89131 122.10309 965.95942 115.48456 964.52528 115.48456 970.89131 124.02765 977.25794 115.48456 975.82368 115.48456 970.89131 122.10309" style="fill:#020202;"/><polygon points="139.27172 245.39064 134.33983 238.77211 132.90569 238.77211 139.27172 247.3152 145.63836 238.77211 144.20409 238.77211 139.27172 245.39064" style="fill:#020202;"/><polygon points="66.24063 369.91291 61.30875 363.29438 59.8746 363.29438 66.24063 371.83747 72.60727 363.29438 71.173 363.29438 66.24063 369.91291" style="fill:#020202;"/><polygon points="211.47172 369.91291 206.53984 363.29438 205.1057 363.29438 211.47172 371.83747 217.83836 363.29438 216.4041 363.29438 211.47172 369.91291" style="fill:#020202;"/><polygon points="425.42766 369.91291 420.49577 363.29438 419.06163 363.29438 425.42766 371.83747 431.7943 363.29438 430.36003 363.29438 425.42766 369.91291" style="fill:#020202;"/></svg>