<?xml version="1.0" encoding="UTF-8"?><svg xmlns="http://www.w3.org/2000/svg" viewBox="0 0 372.1 453.26"><defs><style>.cls-1{fill:#f0f0f0;}.cls-2{fill:#fff;}.cls-3{fill:#241f20;}.cls-4{fill:#2dd880;}.cls-5{fill:#e2e0df;mix-blend-mode:multiply;}.cls-6{isolation:isolate;}</style></defs><g class="cls-6"><g id="outlines"><g><rect class="cls-4" x="228.26" y="386.43" width="1" height="34.29"/><polygon class="cls-4" points="232.85 389.74 232.12 390.43 228.76 386.81 225.41 390.43 224.67 389.74 228.76 385.35 232.85 389.74"/></g><g><path class="cls-3" d="M238.98,453.01c-2.34,0-4.94-.77-7.61-2.31-9.15-5.28-16.59-18.12-16.59-28.61,0-6.05,2.42-10.27,6.65-11.61l12.68-7.44c3.25-1.85,7.54-1.43,12.06,1.18,9.15,5.28,16.59,18.12,16.59,28.61,0,5.19-1.79,9.07-5.04,10.92l-13.55,7.64c-1.47,1.08-3.24,1.62-5.2,1.62Zm-.4-50.11c-1.46,0-2.79,.33-3.97,1l-12.73,7.46s-.07,.04-.1,.05c-3.81,1.18-6,5.07-6,10.68,0,10.17,7.22,22.62,16.09,27.74,4.54,2.62,8.82,2.88,11.77,.72h0s0,0,0,0c.18-.14,.36-.28,.54-.44,.03-.02,.06-.05,.09-.06l13.36-7.44s.07-.04,.11-.05c2.59-1.78,4.02-5.2,4.02-9.73,0-10.17-7.22-22.62-16.09-27.74-2.51-1.45-4.93-2.19-7.09-2.19Z"/><path class="cls-2" d="M245.91,404.66c-4.51-2.61-8.6-2.87-11.56-1.18l-12.73,7.47c-3.86,1.2-6.35,5.12-6.35,11.15,0,10.35,7.32,22.96,16.34,28.17,4.91,2.84,9.32,2.89,12.31,.69l13.54-7.64c2.96-1.68,4.79-5.31,4.79-10.48,0-10.35-7.32-22.96-16.34-28.17Zm-1.97,46.29c.2-.15,.39-.3,.57-.47l13.36-7.44-13.93,7.91Z"/><g><path class="cls-3" d="M236.51,447.17c-1.72,0-3.62-.58-5.58-1.73-6.61-3.87-11.95-13.21-11.9-20.81,.02-3.77,1.34-6.6,3.72-7.95,2.4-1.37,5.54-1.05,8.85,.89,6.61,3.87,11.95,13.21,11.9,20.81-.02,3.77-1.34,6.6-3.72,7.95-.98,.56-2.08,.83-3.27,.83Zm-10.48-30.32c-1.02,0-1.96,.23-2.78,.7-2.05,1.17-3.19,3.68-3.21,7.08-.05,7.29,5.07,16.23,11.4,19.94,2.99,1.75,5.78,2.07,7.85,.89,2.05-1.17,3.19-3.68,3.21-7.08,.05-7.29-5.07-16.23-11.4-19.94-1.8-1.05-3.53-1.59-5.07-1.59Z"/><path class="cls-3" d="M227.03,423.82c-.47,0-.98-.15-1.49-.45l-5.27-3.09c-.24-.14-.32-.45-.18-.68s.44-.32,.68-.18l5.27,3.09c.5,.3,.97,.39,1.32,.26,.26-.1,.44-.31,.56-.64l1.71-4.93c.09-.26,.38-.4,.64-.31,.26,.09,.4,.38,.31,.64l-1.71,4.93c-.21,.62-.61,1.05-1.16,1.25-.21,.08-.44,.12-.68,.12Z"/><path class="cls-3" d="M223.33,437.42c-.05,0-.11,0-.16-.03-.26-.09-.4-.38-.31-.64l1.58-4.57c.32-.92-.05-2.42-.91-3.63l-4.2-6c-.16-.23-.1-.54,.12-.7,.23-.16,.54-.1,.7,.12l4.2,6c1.04,1.49,1.45,3.31,1.03,4.53l-1.58,4.57c-.07,.21-.27,.34-.47,.34Z"/><path class="cls-3" d="M236.82,447.16c-.16,0-.31-.07-.41-.21l-4-5.72c-.81-1.16-1.94-1.86-2.67-1.68l-4.04,1.01c-.28,.06-.54-.1-.61-.36s.1-.54,.36-.61l4.04-1.01c1.18-.29,2.65,.52,3.73,2.08l4,5.72c.16,.23,.1,.54-.12,.7-.09,.06-.19,.09-.29,.09Z"/><path class="cls-3" d="M239.07,446.64c-.23,0-.43-.15-.49-.38l-1.51-6.38c-.43-1.8,.13-3.21,1.38-3.53l4.25-1.06c.27-.07,.54,.1,.61,.36,.07,.27-.1,.54-.36,.61l-4.25,1.06c-.67,.17-.93,1.12-.65,2.33l1.51,6.38c.06,.27-.1,.54-.37,.6-.04,0-.08,.01-.12,.01Z"/><path class="cls-3" d="M242.08,432.98c-.09,0-.17-.02-.25-.07l-5.27-3.09c-1.29-.76-2.42-2.37-2.81-4l-1.63-6.89c-.06-.27,.1-.54,.37-.6,.27-.06,.54,.1,.6,.37l1.63,6.89c.32,1.36,1.29,2.75,2.34,3.37l5.27,3.09c.24,.14,.32,.45,.18,.68-.09,.16-.26,.25-.43,.25Z"/><path class="cls-3" d="M233.31,437.94c-.73,0-1.52-.24-2.33-.72-2.67-1.56-4.82-5.33-4.8-8.39,0-1.59,.58-2.78,1.61-3.37,1.03-.59,2.37-.46,3.76,.35,2.67,1.56,4.82,5.33,4.8,8.39,0,1.59-.58,2.78-1.61,3.37-.43,.25-.91,.37-1.43,.37Zm-4.09-11.84c-.35,0-.66,.08-.94,.23-.7,.4-1.09,1.29-1.1,2.5-.02,2.75,1.91,6.12,4.3,7.52,1.07,.63,2.05,.75,2.76,.34,.7-.4,1.09-1.29,1.1-2.5h0c.02-2.75-1.91-6.12-4.3-7.52-.66-.38-1.28-.58-1.83-.58Z"/><path class="cls-3" d="M231.41,423.72c-.08,0-.16-.02-.24-.07-.21-.13-.38-.41-.38-.66,0-.17,.07-.31,.2-.38s.29-.06,.43,.02c.22,.13,.38,.41,.38,.66,0,.17-.07,.31-.2,.38-.06,.03-.12,.05-.19,.05Z"/><path class="cls-3" d="M238.62,433.88c-.09,0-.18-.03-.26-.08-.24-.14-.42-.46-.42-.74,0-.18,.08-.33,.21-.41,.14-.08,.31-.07,.46,.02,.24,.14,.42,.46,.42,.74h0c0,.18-.08,.33-.22,.41-.06,.04-.13,.05-.2,.05Zm-.08-.46s0,.01,0,.02l.25-.02h-.24Z"/><path class="cls-3" d="M226.73,436.99c-.09,0-.18-.03-.26-.08-.24-.14-.42-.46-.42-.74,0-.18,.08-.33,.21-.41,.14-.08,.31-.07,.46,.02,.24,.14,.42,.46,.42,.74h-.25s.25,0,.25,0c0,.18-.08,.33-.21,.41-.06,.04-.13,.05-.2,.05Z"/><path class="cls-3" d="M236.23,442.9c-.09,0-.18-.03-.26-.08-.24-.14-.42-.46-.42-.74,0-.18,.08-.33,.21-.41s.3-.07,.46,.02c.24,.14,.42,.46,.42,.74,0,.18-.08,.33-.21,.41-.06,.04-.13,.05-.2,.05Zm-.08-.46s0,.01-.01,.02l.25-.02h-.24Z"/><path class="cls-3" d="M223.61,424.74c-.09,0-.18-.03-.26-.08-.24-.14-.42-.46-.42-.74,0-.18,.08-.33,.22-.41,.14-.08,.3-.07,.46,.02,.24,.14,.42,.46,.42,.74,0,.18-.08,.33-.21,.41-.06,.03-.13,.05-.2,.05Z"/><path class="cls-3" d="M238.96,453.02c-2.34,0-4.92-.78-7.59-2.32-9.15-5.28-16.59-18.12-16.59-28.61,0-5.17,1.77-9.03,5-10.89,3.25-1.88,7.55-1.47,12.1,1.16,9.15,5.28,16.59,18.12,16.59,28.61,0,5.17-1.77,9.03-5,10.89-1.34,.78-2.86,1.16-4.51,1.16Zm-14.68-41.98c-1.47,0-2.82,.34-4.01,1.03-2.9,1.67-4.5,5.23-4.5,10.03,0,10.17,7.22,22.62,16.09,27.74,4.23,2.44,8.17,2.85,11.1,1.16,2.9-1.67,4.5-5.23,4.5-10.03,0-10.17-7.22-22.62-16.09-27.74-2.51-1.45-4.93-2.19-7.09-2.19Z"/><path class="cls-3" d="M257.47,443.82c-.17,0-.34-.09-.43-.25-.14-.24-.05-.55,.19-.68,2.92-1.66,4.53-5.23,4.53-10.05,0-10.17-7.22-22.62-16.09-27.74-4.21-2.43-8.13-2.85-11.06-1.18-.24,.14-.55,.05-.68-.19-.14-.24-.05-.55,.19-.68,3.25-1.85,7.53-1.43,12.05,1.19,9.15,5.28,16.59,18.12,16.59,28.61,0,5.19-1.79,9.07-5.04,10.92-.08,.04-.16,.07-.25,.07Z"/><path class="cls-3" d="M220.5,411.88c-.17,0-.34-.09-.43-.25-.14-.24-.05-.55,.19-.68l14.54-8.25c.24-.14,.55-.05,.68,.19,.14,.24,.05,.55-.19,.68l-14.54,8.25c-.08,.04-.16,.06-.25,.06Z"/><path class="cls-3" d="M243.33,451.79c-.17,0-.34-.09-.43-.25-.14-.24-.05-.55,.19-.68l14.54-8.25c.24-.14,.54-.05,.68,.19,.14,.24,.05,.55-.19,.68l-14.54,8.25c-.08,.04-.16,.06-.25,.06Z"/></g></g><g><polygon points="231.31 213.25 .27 346.65 .27 180.66 231.31 47.27 231.31 213.25"/><g><polygon class="cls-1" points="238.1 217.17 7.05 350.56 7.05 184.57 238.1 51.18 238.1 217.17"/><path d="M7.05,351.06c-.09,0-.17-.02-.25-.07-.15-.09-.25-.25-.25-.43V184.57c0-.18,.1-.34,.25-.43L237.85,50.75c.15-.09,.35-.09,.5,0,.15,.09,.25,.25,.25,.43V217.17c0,.18-.1,.34-.25,.43L7.3,350.99c-.08,.04-.16,.07-.25,.07Zm.5-166.2v164.83L237.6,216.88V52.05L7.55,184.86Zm230.54,32.31h0Z"/></g><path d="M67.45,315.89c-.28,0-.5-.22-.5-.5V149.77c0-.28,.22-.5,.5-.5s.5,.22,.5,.5v165.62c0,.28-.22,.5-.5,.5Z"/><polygon class="cls-5" points="67.45 315.39 7.05 350.56 7.05 184.57 67.45 149.77 67.45 315.39"/><path d="M80.89,174.3c-.17,0-.34-.09-.43-.25-.14-.24-.06-.54,.18-.68L210.4,98.45c.24-.14,.54-.06,.68,.18,.14,.24,.06,.54-.18,.68L81.14,174.23c-.08,.05-.17,.07-.25,.07Z"/><g><polygon class="cls-2" points="100.68 272.79 80.99 284.16 80.99 274.89 100.68 263.52 100.68 272.79"/><path d="M80.99,284.66c-.09,0-.17-.02-.25-.07-.15-.09-.25-.25-.25-.43v-9.27c0-.18,.1-.34,.25-.43l19.69-11.37c.15-.09,.35-.09,.5,0,.15,.09,.25,.25,.25,.43v9.27c0,.18-.1,.34-.25,.43l-19.69,11.37c-.08,.04-.16,.07-.25,.07Zm.5-9.48v8.12l18.69-10.79v-8.12l-18.69,10.79Zm19.19-2.39h0Z"/></g><g><polygon class="cls-2" points="125.93 258.21 106.24 269.58 106.24 260.31 125.93 248.94 125.93 258.21"/><path d="M106.24,270.08c-.09,0-.17-.02-.25-.07-.15-.09-.25-.25-.25-.43v-9.27c0-.18,.1-.34,.25-.43l19.69-11.37c.15-.09,.35-.09,.5,0,.15,.09,.25,.25,.25,.43v9.27c0,.18-.1,.34-.25,.43l-19.69,11.37c-.08,.04-.16,.07-.25,.07Zm.5-9.48v8.12l18.69-10.79v-8.12l-18.69,10.79Zm19.19-2.39h0Z"/></g><g><polygon class="cls-2" points="238.1 61.48 7.05 194.87 7.05 184.57 238.1 51.18 238.1 61.48"/><path d="M7.05,195.37c-.09,0-.17-.02-.25-.07-.15-.09-.25-.25-.25-.43v-10.29c0-.18,.1-.34,.25-.43L237.85,50.75c.15-.09,.35-.09,.5,0,.15,.09,.25,.25,.25,.43v10.29c0,.18-.1,.34-.25,.43L7.3,195.3c-.08,.04-.16,.07-.25,.07Zm.5-10.51v9.14L237.6,61.19v-9.14L7.55,184.86ZM238.1,61.48h0Z"/></g><g><ellipse class="cls-2" cx="11.54" cy="187.14" rx="2.97" ry="1.72" transform="translate(-155.77 102.51) rotate(-59.64)"/><path d="M10.59,190.35c-.29,0-.56-.07-.8-.21-.56-.32-.86-.95-.86-1.78,0-1.52,1.04-3.31,2.36-4.07,.73-.42,1.44-.47,2-.15,.56,.32,.86,.95,.86,1.78,0,1.52-1.04,3.31-2.36,4.07-.41,.24-.82,.36-1.2,.36Zm1.9-5.42c-.2,0-.44,.08-.7,.22-1.01,.58-1.86,2.05-1.86,3.2,0,.45,.13,.78,.36,.92,.23,.13,.6,.08,1-.15,1.01-.58,1.86-2.05,1.86-3.2,0-.45-.13-.78-.36-.92-.08-.05-.19-.07-.3-.07Z"/></g><g><ellipse class="cls-2" cx="18.13" cy="183.33" rx="2.97" ry="1.72" transform="translate(-149.22 106.31) rotate(-59.64)"/><path d="M17.18,186.54c-.29,0-.56-.07-.8-.21-.56-.32-.86-.95-.86-1.78,0-1.52,1.04-3.31,2.36-4.07,.73-.42,1.44-.47,2-.15,.56,.32,.86,.95,.86,1.78,0,1.52-1.04,3.31-2.36,4.07-.41,.24-.82,.36-1.2,.36Zm1.9-5.42c-.2,0-.44,.08-.7,.22-1.01,.58-1.86,2.05-1.86,3.2,0,.45,.13,.78,.36,.92,.23,.13,.6,.08,1-.15,1.01-.58,1.86-2.05,1.86-3.2,0-.45-.13-.78-.36-.92-.08-.05-.19-.07-.3-.07Z"/></g><g><ellipse class="cls-2" cx="24.72" cy="179.53" rx="2.97" ry="1.72" transform="translate(-142.68 110.12) rotate(-59.64)"/><path d="M23.78,182.74c-.29,0-.56-.07-.8-.21-.56-.32-.86-.95-.86-1.78,0-1.52,1.04-3.31,2.36-4.07,.73-.42,1.44-.47,2-.15,.56,.32,.86,.95,.86,1.78,0,1.52-1.04,3.31-2.36,4.07-.41,.24-.82,.36-1.2,.36Zm1.9-5.42c-.2,0-.44,.08-.7,.22-1.01,.58-1.86,2.05-1.86,3.2,0,.45,.13,.78,.36,.92,.24,.13,.6,.08,1-.15,1.01-.58,1.86-2.05,1.86-3.2,0-.45-.13-.78-.36-.92-.08-.05-.19-.07-.3-.07Z"/></g></g><g><g><polyline class="cls-2" points="234.28 379.42 197.26 358.04 197.26 281.66 263.4 243.47 300.42 264.85"/><path d="M234.28,379.92c-.08,0-.17-.02-.25-.07l-37.02-21.38c-.15-.09-.25-.25-.25-.43v-76.39c0-.18,.1-.34,.25-.43l66.14-38.18c.15-.09,.35-.09,.5,0l37.02,21.38c.24,.14,.32,.44,.18,.68-.14,.24-.44,.32-.68,.18l-36.77-21.23-65.64,37.9v75.81l36.77,21.23c.24,.14,.32,.44,.18,.68-.09,.16-.26,.25-.43,.25Z"/></g><polygon points="300.42 264.85 234.28 303.03 197.26 281.66 263.4 243.47 300.42 264.85"/><g><polygon class="cls-2" points="234.28 303.03 234.28 379.42 300.42 341.23 300.42 264.85 234.28 303.03"/><path d="M234.28,379.92c-.09,0-.17-.02-.25-.07-.15-.09-.25-.25-.25-.43v-76.39c0-.18,.1-.34,.25-.43l66.14-38.18c.15-.09,.35-.09,.5,0,.15,.09,.25,.25,.25,.43v76.39c0,.18-.1,.34-.25,.43l-66.14,38.18c-.08,.04-.16,.07-.25,.07Zm.5-76.6v75.23l65.14-37.61v-75.23l-65.14,37.61Z"/></g></g><path d="M234.28,379.92c-.09,0-.17-.02-.25-.07l-37.02-21.38c-.15-.09-.25-.25-.25-.43v-76.39c0-.18,.1-.34,.25-.43l66.14-38.18c.15-.09,.35-.09,.5,0l37.02,21.38c.15,.09,.25,.25,.25,.43v76.39c0,.18-.1,.34-.25,.43l-66.14,38.18c-.08,.04-.16,.07-.25,.07Zm-36.52-22.16l36.52,21.09,65.64-37.9v-75.81l-36.52-21.09-65.64,37.9v75.81Z"/><path d="M229.95,244.69c-.09,0-.17-.02-.25-.07l-27.37-15.8c-.15-.09-.25-.25-.25-.43v-63.21c0-.18,.1-.34,.25-.43l54.74-31.6c.15-.09,.35-.09,.5,0l27.37,15.8c.15,.09,.25,.25,.25,.43v63.21c0,.18-.1,.34-.25,.43l-54.74,31.6c-.08,.04-.16,.07-.25,.07Zm-26.87-16.59l26.87,15.51,54.24-31.31v-62.63l-26.87-15.51-54.24,31.31v62.63Z"/><path d="M234.28,303.53c-.08,0-.17-.02-.25-.07l-37.02-21.38c-.24-.14-.32-.44-.18-.68,.14-.24,.44-.32,.68-.18l37.02,21.38c.24,.14,.32,.44,.18,.68-.09,.16-.26,.25-.43,.25Z"/><g><rect class="cls-4" x="250.09" y="208.75" width="1" height="69.06"/><polygon class="cls-4" points="246.5 274.5 247.24 273.82 250.59 277.43 253.95 273.82 254.68 274.5 250.59 278.9 246.5 274.5"/></g><g><rect class="cls-4" x="271.48" y="362.51" width="1" height="30.97"/><polygon class="cls-4" points="276.07 365.82 275.34 366.5 271.98 362.89 268.63 366.5 267.89 365.82 271.98 361.42 276.07 365.82"/></g><g><rect class="cls-4" x="334.54" y="287.15" width="1" height="65.06" transform="translate(-109.33 450) rotate(-60)"/><polygon class="cls-4" points="307.7 308.61 308.65 308.32 307.2 303.61 312.01 302.51 311.79 301.53 305.93 302.87 307.7 308.61"/></g><g><rect class="cls-4" x="190.31" y="383.58" width="1" height="48.15" transform="translate(-257.63 369.07) rotate(-60)"/><polygon class="cls-4" points="210.83 414.49 209.88 414.78 211.33 419.49 206.52 420.6 206.74 421.57 212.6 420.23 210.83 414.49"/></g><path d="M219.42,359.26c-.09,0-.17-.02-.25-.07l-9.65-5.57c-.15-.09-.25-.25-.25-.43v-51.59c0-.18,.1-.34,.25-.43,.15-.09,.35-.09,.5,0l9.65,5.57c.15,.09,.25,.25,.25,.43v51.59c0,.18-.1,.34-.25,.43-.08,.04-.16,.07-.25,.07Zm-9.15-6.36l8.65,4.99v-50.44l-8.65-4.99v50.44Z"/><g><polygon class="cls-4" points="173.03 320.63 172.82 247.71 173.82 247.71 174.02 318.9 190.57 309.36 191.07 310.22 173.03 320.63"/><polygon class="cls-4" points="185.91 307.9 185.69 308.88 190.49 309.98 189.04 314.69 190 314.99 191.76 309.25 185.91 307.9"/></g><g><polygon class="cls-4" points="292.42 318.51 243.34 346.84 243.34 307.89 292.42 279.55 292.42 318.51"/><path d="M243.34,347.34c-.09,0-.17-.02-.25-.07-.15-.09-.25-.25-.25-.43v-38.95c0-.18,.1-.34,.25-.43l49.08-28.34c.15-.09,.35-.09,.5,0,.15,.09,.25,.25,.25,.43v38.95c0,.18-.1,.34-.25,.43l-49.08,28.34c-.08,.04-.16,.07-.25,.07Zm.5-39.16v37.8l48.08-27.76v-37.8l-48.08,27.76Z"/></g><path d="M243.43,333.25l-.46-.89c.52-.27,1.24-.98,1.56-2.07l2.69-9.21c.46-1.57,1.75-2.86,2.93-2.94,.63-.04,1.17,.28,1.44,.89l2.69,6.1c.1,.22,.25,.31,.46,.3,.67-.04,1.67-.97,2.04-2.22l2.69-9.21c.46-1.57,1.75-2.86,2.93-2.94,.64-.04,1.17,.28,1.44,.89l2.69,6.1c.1,.23,.25,.32,.46,.3,.67-.04,1.67-.97,2.04-2.22l2.69-9.21c.46-1.57,1.75-2.86,2.93-2.94,.63-.04,1.17,.28,1.44,.89l2.69,6.1c.1,.22,.23,.31,.46,.3,.67-.04,1.67-.97,2.04-2.22l2.69-9.21c.46-1.57,1.75-2.86,2.93-2.94,.63-.04,1.17,.28,1.44,.89l2.69,6.1c.1,.22,.22,.27,.26,.28,.18,.06,.45,0,.74-.17l.5,.87c-.55,.31-1.1,.41-1.55,.26-.39-.13-.69-.41-.87-.83l-2.69-6.1c-.1-.22-.25-.32-.46-.3-.67,.04-1.67,.97-2.04,2.22l-2.69,9.21c-.46,1.57-1.75,2.86-2.93,2.94-.63,.04-1.17-.28-1.44-.89l-2.69-6.1c-.1-.22-.23-.31-.46-.3-.67,.04-1.67,.97-2.04,2.22l-2.69,9.21c-.46,1.57-1.75,2.86-2.93,2.94-.62,.05-1.17-.28-1.44-.89l-2.69-6.1c-.1-.22-.23-.31-.46-.3-.67,.04-1.67,.97-2.04,2.22l-2.69,9.21c-.46,1.57-1.75,2.86-2.93,2.94-.63,.05-1.17-.28-1.44-.89l-2.69-6.1c-.1-.22-.24-.31-.46-.3-.67,.04-1.67,.97-2.04,2.22l-2.69,9.21c-.34,1.17-1.13,2.19-2.06,2.68Z"/><g><ellipse cx="246.68" cy="357.14" rx="3.25" ry="1.88" transform="translate(-186.17 389.48) rotate(-59.64)"/><path d="M245.64,360.61c-.31,0-.59-.07-.85-.22-.59-.34-.92-1.02-.92-1.91,0-1.65,1.12-3.58,2.56-4.41,.78-.45,1.54-.51,2.14-.16,.59,.34,.92,1.02,.92,1.91,0,1.65-1.12,3.58-2.56,4.41-.44,.26-.88,.39-1.29,.39Zm2.07-5.93c-.23,0-.5,.08-.79,.25-1.12,.64-2.06,2.27-2.06,3.54,0,.51,.15,.89,.42,1.04,.27,.16,.69,.1,1.14-.16,1.12-.64,2.06-2.27,2.06-3.54,0-.51-.15-.89-.42-1.04-.1-.06-.22-.09-.35-.09Z"/></g><g><ellipse cx="255.5" cy="352.05" rx="3.25" ry="1.88" transform="translate(-177.41 394.57) rotate(-59.64)"/><path d="M254.46,355.51c-.31,0-.59-.07-.85-.22-.59-.34-.92-1.02-.92-1.91,0-1.65,1.12-3.58,2.56-4.41,.78-.45,1.54-.51,2.14-.16,.59,.34,.92,1.02,.92,1.91,0,1.64-1.12,3.58-2.56,4.41-.44,.26-.88,.39-1.29,.39Zm2.07-5.93c-.23,0-.5,.08-.79,.25-1.12,.64-2.06,2.27-2.06,3.54,0,.51,.15,.89,.42,1.04,.27,.16,.69,.1,1.14-.16,1.11-.64,2.06-2.27,2.06-3.54,0-.51-.15-.89-.42-1.04-.1-.06-.22-.09-.35-.09Z"/></g><path d="M284.98,339.83c-.49,0-.94-.12-1.34-.35-.95-.55-1.47-1.65-1.47-3.12,0-2.81,1.99-6.25,4.45-7.66,1.29-.74,2.52-.85,3.48-.3,.95,.55,1.47,1.65,1.47,3.12,0,2.81-1.99,6.25-4.44,7.66-.74,.43-1.47,.65-2.14,.65Zm3.77-10.78c-.49,0-1.04,.17-1.63,.51-2.18,1.26-3.95,4.3-3.95,6.8,0,1.09,.34,1.89,.97,2.25,.63,.36,1.51,.26,2.48-.3,2.17-1.26,3.94-4.31,3.94-6.8,0-1.09-.34-1.89-.97-2.25-.25-.14-.53-.21-.84-.21Z"/><g><polygon class="cls-4" points="347.54 141.55 346.54 141.55 346.54 126.33 246.98 68.85 247.48 67.98 347.54 125.75 347.54 141.55"/><polygon class="cls-4" points="342.95 138.24 343.68 137.55 347.04 141.17 350.4 137.55 351.13 138.24 347.04 142.63 342.95 138.24"/></g><g><rect class="cls-4" x="345.74" y="189.23" width="1" height="12.53"/><polygon class="cls-4" points="342.15 198.45 342.89 197.76 346.24 201.38 349.6 197.76 350.33 198.45 346.24 202.84 342.15 198.45"/></g><g><g><path class="cls-2" d="M364.45,336.09l-28.52,16.47c-3.38,1.95-6.11-.12-6.11-4.62v-14.65c0-4.5,2.74-9.73,6.11-11.68l28.52-16.47c3.38-1.95,6.11,.12,6.11,4.62v14.65c0,4.5-2.74,9.73-6.11,11.68Z"/><path d="M333.5,353.66c-.63,0-1.22-.15-1.76-.46-1.46-.84-2.3-2.76-2.3-5.27v-14.65c0-4.61,2.83-10,6.3-12l28.52-16.47c1.59-.92,3.14-1.03,4.37-.32,1.46,.84,2.3,2.76,2.3,5.27v14.65c0,4.61-2.83,10-6.3,12l-28.52,16.47c-.9,.52-1.79,.78-2.62,.78Zm33.38-48.88c-.7,0-1.46,.23-2.24,.68l-28.52,16.47c-3.27,1.89-5.92,6.98-5.92,11.35v14.65c0,2.23,.7,3.91,1.92,4.62,.99,.57,2.28,.46,3.62-.32l28.52-16.47c3.27-1.89,5.92-6.98,5.92-11.35v-14.65c0-2.23-.7-3.91-1.92-4.62-.41-.24-.88-.36-1.38-.36Z"/></g><path d="M358.61,320.88l-.11-.16c0-1.6-.64-1.88-1.4-1.93,.23-.2,.46-.39,.53-.76,.39-.34,.47-.6,.51-.84,.1-.14,.44-.55,.41-.91,.19-.26,.3-.52,.24-.76,.21-.38,.26-.62,.17-.77,.25-.5,.14-.62,.03-.74,.18-.49,.02-.81-.5-.44-.21-.23-.66,.11-.73,.15-.08-.06-.18-.1-.5,.13-.2-.09-.43,.08-.67,.32-.28-.09-.46,.22-.68,.42-.34,.07-.42,.28-.58,.45-.37,.12-.48,.38-.66,.69l-.21,.12c-.55,.69-.83,1.61-.93,2.05-.1-.33-.38-.93-.93-.98l-.21,.12c-.18-.1-.29-.23-.66,.08-.17,.03-.24-.1-.58,.22-.14,.03-.27,0-.42,.09-.08,.05-.16,.13-.26,.27-.24,.03-.46,.13-.67,.46-.31,.14-.42,.29-.5,.45-.07,.04-.52,.22-.73,.69-.52,.23-.68,.74-.5,1.01-.11,.25-.22,.49,.03,.7-.09,.25-.03,.43,.17,.57-.05,.31,.05,.44,.24,.48-.04,.4,.31,.42,.41,.44,.04,.2,.12,.36,.51,.25,.06,.29,.3,.21,.53,.15-.75,.93-1.4,1.95-1.4,3.55l-.11,.29c-.86,1.09-1.64,3.45-.42,4.29,.08,.44,.21,.71,.33,1.03,.18,1.45,1.34,1.51,1.64,1.42,.45,.13,.93,.22,1.57,.1,.61,.36,1.27,.25,1.93-.14l.03-.02c.66-.38,1.32-1.03,1.93-2.09,.65-.63,1.12-1.27,1.57-1.91,.31-.26,1.46-1.65,1.64-3.32,.12-.45,.25-.88,.33-1.41,1.21-2.25,.43-3.71-.43-3.8h0Zm-.67,.11c-.04,.67-2.97-.53-2.46-.92,1.37-1.05,2.51-.79,2.46,.92Zm-1.29,3.95c-.73,.97-1.79,1.23-2.36,.58-.57-.65-.44-1.96,.3-2.92,.73-.97,1.79-1.23,2.36-.58,.57,.65,.44,1.96-.3,2.92h0Zm-2.04-8.74c.02,.13,.05,.2,.09,.21,.16-.29,.29-.57,.51-.89,0,.11-.05,.26,.08,.28,.11-.24,.26-.48,.46-.73-.1,.25-.02,.26,.04,.31,.15-.24,.3-.48,.58-.76-.08,.15-.18,.32-.07,.38,.16-.21,.32-.41,.69-.71-.09,.16-.26,.37-.15,.41,.2-.2,.42-.4,.66-.57-.12,.18-.21,.34-.12,.37,.21-.2,.51-.47,.79-.55l-.18,.32s.42-.22,.72-.39c-.11,.24-.22,.46-.28,.79,.03,.02,.17-.08,.31-.18-.14,.42-.38,.64-.44,.83,.09,.03,.2-.06,.33-.19-.1,.3-.31,.58-.48,.87,.04,.01,.12-.01,.29-.14-.16,.28-.34,.56-.56,.84,.04,.03,.17-.05,.3-.12-.2,.34-.46,.6-.7,.9,.12,.02,.21-.05,.3-.1-.17,.26-.46,.51-.73,.77,.05,.06,.1,.06,.21,.02-.28,.35-.7,.5-.81,.66,.03,.08,.11,.09,.2,.08-.46,.3-1.72,.97-1.96,.02,.47-.87,1.33-2.06,2.81-3.78-1.15,1.1-2.19,2.3-3.06,3.61-1.02,.04-.32-1.75,.18-2.58h0Zm-1.03,4.54c.73-.43,1.62-.33,1.62,.26,0,.52-.63,1.3-1.62,1.86-.96,.54-1.61,.41-1.61-.1,0-.41,.79-1.58,1.61-2.02h0Zm-3.69,1.69c.11-.09,.16-.14,.21-.26-.27,.06-.56,.14-.73,.08,.09-.05,.18-.08,.3-.24-.24,0-.5,.02-.7-.08,.13-.08,.26-.15,.3-.23-.22-.03-.41-.09-.56-.19,.17-.08,.25-.14,.29-.2-.17-.1-.38-.14-.48-.32,.13-.02,.25-.07,.33-.2-.06-.11-.3-.06-.44-.32,.14-.06,.28-.13,.31-.18-.06-.26-.17-.36-.28-.46,.29-.17,.74-.43,.72-.44l-.18-.11c.28-.25,.58-.32,.79-.37,.1-.14,0-.19-.12-.23,.24-.1,.46-.17,.66-.2,.11-.17-.07-.18-.15-.24,.38-.14,.53-.12,.69-.09,.11-.19,0-.23-.07-.3,.28-.05,.43,.02,.58,.09,.05-.11,.13-.21,.04-.35,.2,.01,.36,.08,.46,.19,.12-.16,.08-.25,.08-.37,.21,.07,.34,.2,.51,.3,.03-.05,.06-.15,.09-.31,.5,.26,1.2,1.23,.18,2.37-.87-.3-1.91-.3-3.06-.07,1.48,0,2.34,.21,2.81,.53-.24,1.23-1.5,2.01-1.96,2.25,.09-.1,.17-.21,.2-.32-.11-.02-.52,.29-.81,.28h0Zm1.8-.21c.51-.19-2.42,4.37-2.46,3.76-.04-1.65,1.1-3.23,2.46-3.76h0Zm-3.1,8.22c-.71-.24-.94-2,.38-3.6,.79-.7,.27,3.56-.38,3.6Zm2.73,1.8c-.4,.5-1.37,.95-2.07,.23-.46-.68-.41-1.66-.08-2.14,.49-.62,1.25-.6,1.83-.17,.51,.4,.74,1.48,.32,2.08Zm-.79-3.66c-.73-.12-.87-1.27-.3-2.58,.57-1.31,1.63-2.27,2.36-2.15s.87,1.27,.3,2.58c-.57,1.31-1.63,2.27-2.36,2.15Zm3.07,4.27c-.88,.55-1.75,.19-1.74-.11-.01-.43,1.08-1.4,1.78-1.78,.71-.45,1.67-.71,1.67-.31,.02,.37-.86,1.73-1.71,2.21h0Zm1.77-5.32c0,1.02-.79,2.31-1.77,2.88-.98,.57-1.78,.21-1.78-.81v-.02c0-1.02,.79-2.31,1.77-2.88,.98-.57,1.78-.21,1.78,.81v.02Zm2.47,.04c-.76,1.63-1.79,2.27-2.17,2.16-.4-.2-.1-1.7,.45-2.74,.63-1.17,1.3-2.07,1.77-1.94,.31,.18,.5,1.4-.05,2.52h0Zm.69-2.91c-.65,.7-1.17-2.95-.38-3.16,1.32,.09,1.09,2.11,.38,3.16Z"/><polygon points="346.55 343.05 344.97 343.96 344.97 342.15 346.55 341.23 346.55 343.05"/><polygon points="348.8 341.75 347.22 342.66 347.22 340.85 348.8 339.93 348.8 341.75"/><polygon points="351.05 340.45 349.47 341.36 349.47 339.55 351.05 338.63 351.05 340.45"/><polygon points="353.3 339.15 351.72 340.07 351.72 338.25 353.3 337.33 353.3 339.15"/><polygon points="355.55 337.85 353.97 338.77 353.97 336.95 355.55 336.04 355.55 337.85"/><polygon points="357.81 336.55 356.22 337.47 356.22 335.65 357.81 334.74 357.81 336.55"/><polygon points="360.06 335.25 358.47 336.17 358.47 334.35 360.06 333.44 360.06 335.25"/><polygon points="362.31 333.95 360.72 334.87 360.72 333.05 362.31 332.14 362.31 333.95"/><g><ellipse class="cls-2" cx="366.33" cy="330.6" rx="2.6" ry="1.5" transform="translate(-104.09 479.6) rotate(-59.64)"/><path d="M365.5,333.23c-.22,0-.42-.05-.61-.16-.43-.25-.66-.74-.66-1.4,0-1.27,.87-2.76,1.97-3.4,.58-.33,1.13-.38,1.56-.13,.43,.25,.66,.74,.66,1.4,0,1.27-.87,2.76-1.97,3.4-.33,.19-.66,.29-.96,.29Zm1.66-4.75c-.21,0-.45,.07-.7,.22-.95,.55-1.72,1.88-1.72,2.97,0,.47,.15,.81,.41,.97,.27,.16,.65,.11,1.06-.13,.95-.55,1.72-1.88,1.72-2.97,0-.47-.15-.81-.41-.97-.1-.06-.22-.09-.36-.09Z"/></g><g><ellipse class="cls-2" cx="340.99" cy="345.23" rx="2.6" ry="1.5" transform="translate(-129.25 464.97) rotate(-59.64)"/><path d="M340.16,347.86c-.22,0-.42-.05-.61-.16-.43-.25-.66-.74-.66-1.4,0-1.27,.87-2.76,1.97-3.4,.58-.33,1.13-.38,1.56-.13,.43,.25,.66,.74,.66,1.4,0,1.27-.87,2.76-1.97,3.4-.33,.19-.66,.29-.96,.29Zm1.66-4.75c-.21,0-.45,.07-.7,.22-.95,.55-1.72,1.88-1.72,2.97,0,.47,.15,.81,.41,.97,.27,.16,.65,.11,1.06-.13,.95-.55,1.72-1.88,1.72-2.97,0-.47-.15-.81-.41-.97-.1-.06-.22-.09-.36-.09Z"/></g><g><ellipse class="cls-2" cx="366.27" cy="308.38" rx="2.6" ry="1.5" transform="translate(-84.94 468.55) rotate(-59.64)"/><path d="M365.44,311c-.22,0-.42-.05-.61-.16-.43-.25-.66-.74-.66-1.4,0-1.27,.87-2.76,1.97-3.4,.58-.33,1.13-.38,1.56-.13,.43,.25,.66,.74,.66,1.4,0,1.27-.87,2.76-1.97,3.4-.33,.19-.66,.29-.96,.29Zm1.66-4.75c-.21,0-.45,.07-.7,.22-.95,.55-1.72,1.88-1.72,2.97,0,.47,.15,.81,.41,.97,.27,.15,.65,.11,1.06-.13,.95-.55,1.72-1.88,1.72-2.97,0-.47-.15-.81-.41-.97-.1-.06-.22-.09-.36-.09Z"/></g><g><ellipse class="cls-2" cx="340.93" cy="323.01" rx="2.6" ry="1.5" transform="translate(-110.1 453.92) rotate(-59.64)"/><path d="M340.1,325.63c-.22,0-.42-.05-.61-.16-.43-.25-.66-.74-.66-1.4,0-1.27,.87-2.76,1.97-3.4,.58-.33,1.13-.38,1.56-.13,.43,.25,.66,.74,.66,1.4,0,1.27-.87,2.76-1.97,3.4-.33,.19-.66,.29-.96,.29Zm1.66-4.75c-.21,0-.45,.07-.7,.22-.95,.55-1.72,1.88-1.72,2.97,0,.47,.15,.81,.41,.97,.27,.16,.65,.11,1.06-.13,.95-.55,1.72-1.88,1.72-2.97,0-.47-.15-.81-.41-.97-.1-.06-.22-.09-.36-.09Z"/></g><g><polygon class="cls-2" points="337.94 343.79 329.82 348.48 329.82 341.91 337.94 337.23 337.94 343.79"/><path d="M329.45,349.13v-7.43l8.86-5.12v7.43l-8.86,5.12Zm.75-7v5.7l7.36-4.25v-5.7l-7.36,4.25Z"/></g><g><polygon class="cls-2" points="337.94 334.76 329.82 339.45 329.82 332.88 337.94 328.2 337.94 334.76"/><path d="M329.45,340.1v-7.43l8.86-5.12v7.43l-8.86,5.12Zm.75-7v5.7l7.36-4.25v-5.7l-7.36,4.25Z"/></g><polygon points="367.34 325.2 365.09 326.49 365.09 314.54 367.34 313.25 367.34 325.2"/><path d="M333.5,353.78c-.65,0-1.27-.16-1.82-.48-1.5-.87-2.36-2.83-2.36-5.38v-14.65c0-4.65,2.85-10.08,6.36-12.11l28.52-16.47c1.63-.94,3.23-1.06,4.5-.32,1.5,.87,2.36,2.83,2.36,5.38v14.65c0,4.65-2.85,10.08-6.36,12.11l-28.52,16.47c-.92,.53-1.83,.8-2.68,.8Zm33.38-48.88c-.67,0-1.41,.22-2.18,.66l-28.52,16.47c-3.23,1.87-5.86,6.91-5.86,11.24v14.65c0,2.18,.68,3.83,1.86,4.51,.95,.55,2.19,.43,3.5-.32l28.52-16.47c3.23-1.87,5.86-6.91,5.86-11.24v-14.65c0-2.18-.68-3.83-1.86-4.51-.39-.23-.84-.34-1.32-.34Z"/></g><g><path d="M184.82,270.1c-.9,0-1.75-.18-2.51-.55-.05,0-.1-.03-.15-.05l-25.12-14.49c-2-1.2-3.1-3.62-3.1-6.82,0-6.51,4.62-14.48,10.3-17.76,2.78-1.61,5.31-1.87,7.52-.78l21.17,12.21c.06,.03,.16,.08,.26,.13,.04,.02,.08,.05,.11,.08l3.25,1.87c.1,.05,.21,.12,.32,.18l.14,.08s.07,.04,.1,.07c1.79,1.26,2.77,3.6,2.77,6.61,0,2.46-.65,5.17-1.88,7.89l.98,.56c.45,.24,.71,.74,.71,1.38,0,1.09-.75,2.38-1.7,2.93-.48,.28-.96,.34-1.37,.17-.03-.01-.07-.02-.1-.04-.03-.02-.07-.04-.11-.07l-.96-.55c-1.73,2.37-3.75,4.27-5.86,5.48-1.66,.96-3.29,1.45-4.76,1.45Zm-2.28-1.54s.07,.02,.11,.04c1.72,.88,4.01,.59,6.44-.81,2.09-1.21,4.1-3.13,5.81-5.57,.15-.21,.44-.27,.66-.15l1.37,.79h0s.03,.02,.05,.03c.12,.05,.3,.02,.51-.1,.65-.38,1.2-1.32,1.2-2.07,0-.25-.07-.44-.18-.5h-.02s-1.38-.81-1.38-.81c-.23-.13-.31-.41-.2-.65,1.29-2.72,1.98-5.44,1.98-7.87,0-2.71-.85-4.78-2.4-5.83-.01,0-.02-.02-.03-.02l-.09-.05c-.1-.06-.2-.12-.29-.17l-3.37-1.95s-.06-.04-.09-.07c-.04-.02-.09-.04-.13-.06l-21.18-12.21c-1.89-.93-4.04-.69-6.55,.76-5.4,3.12-9.8,10.7-9.8,16.89,0,2.83,.92,4.95,2.6,5.96l24.99,14.42Z"/><path class="cls-2" d="M198.67,259.76l-1.38-.8c1.27-2.66,2.03-5.49,2.03-8.09,0-2.99-.99-5.14-2.62-6.25h0s-.16-.1-.16-.1c-.1-.06-.2-.12-.3-.17l-3.36-1.94v-.02c-.08-.05-.17-.09-.26-.13l-21.15-12.19c-1.99-.98-4.3-.83-7.05,.76-5.55,3.2-10.05,10.96-10.05,17.32,0,3.12,1.08,5.33,2.85,6.39l25.12,14.49v-.02c1.81,.92,4.25,.72,6.93-.83,2.24-1.29,4.3-3.33,5.97-5.71l1.37,.79s.05,.03,.07,.04h.01s0,0,0,0c.26,.12,.6,.09,.97-.13,.8-.46,1.45-1.58,1.45-2.5,0-.47-.17-.8-.45-.94Z"/><g><path d="M184.82,269.99c-1.02,0-1.97-.24-2.8-.72-2-1.16-3.11-3.56-3.11-6.76,0-6.47,4.59-14.39,10.24-17.65,2.82-1.63,5.48-1.88,7.51-.71,2,1.16,3.11,3.56,3.11,6.76,0,6.47-4.59,14.39-10.24,17.65-1.65,.95-3.25,1.44-4.7,1.44Zm9.03-25.81c-1.32,0-2.79,.45-4.32,1.33-5.44,3.14-9.86,10.77-9.86,17,0,2.92,.97,5.09,2.73,6.11,1.78,1.03,4.18,.78,6.76-.71,5.44-3.14,9.86-10.77,9.86-17,0-2.92-.97-5.09-2.73-6.11-.72-.42-1.54-.62-2.43-.62Z"/><path d="M178.51,267.23c-1.95-1.17-3.03-3.56-3.03-6.71,0-6.47,4.59-14.39,10.24-17.65,2.77-1.6,5.41-1.87,7.42-.76l-.36,.66c-1.77-.98-4.14-.71-6.68,.76-5.44,3.14-9.86,10.76-9.86,17,0,2.88,.95,5.04,2.66,6.07l-.39,.64Z"/><path d="M186.66,264.72c-.63,0-1.22-.15-1.74-.45-1.23-.71-1.92-2.18-1.92-4.13,0-3.88,2.75-8.63,6.14-10.58,1.72-.99,3.35-1.14,4.6-.42,1.24,.71,1.92,2.18,1.92,4.13,0,3.88-2.75,8.63-6.14,10.58-1,.58-1.98,.87-2.86,.87Zm5.35-15.29c-.75,0-1.6,.26-2.48,.77-3.18,1.83-5.76,6.29-5.76,9.93,0,1.67,.55,2.91,1.54,3.48,1,.58,2.37,.43,3.85-.42,3.18-1.84,5.76-6.29,5.76-9.93,0-1.67-.55-2.91-1.54-3.48-.4-.23-.86-.35-1.36-.35Z"/><ellipse cx="189.34" cy="256.7" rx="2.43" ry="1.41" transform="translate(-127.86 290.33) rotate(-59.64)"/><ellipse cx="189.39" cy="265.78" rx="1.33" ry=".77" transform="translate(-135.66 294.87) rotate(-59.64)"/><ellipse cx="189.39" cy="247.48" rx="1.33" ry=".77" transform="translate(-119.88 285.82) rotate(-59.64)"/><path d="M182.22,269.39l-25.12-14.49c-1.96-1.18-3.03-3.56-3.03-6.71,0-6.47,4.59-14.39,10.24-17.65,2.74-1.58,5.23-1.84,7.4-.77l25.24,14.56-.38,.65-25.22-14.55c-1.94-.96-4.13-.71-6.68,.76-5.44,3.14-9.86,10.77-9.86,17,0,2.88,.95,5.04,2.66,6.07l25.11,14.49-.38,.65Z"/><g><g><path class="cls-2" d="M196.76,263.36l-8.39-4.86h0c-.26-.15-.42-.47-.42-.93,0-.92,.65-2.03,1.45-2.5,.4-.23,.76-.25,1.02-.1l-.06-.03,8.39,4.86"/><path d="M196.58,263.68l-8.39-4.86c-.39-.23-.61-.67-.61-1.25,0-1.05,.72-2.29,1.63-2.82,.46-.26,.91-.32,1.28-.16,.01,0,.03,.01,.04,.02h0s.05,.02,.07,.04c.02,0,.03,.02,.04,.03l8.29,4.8-.38,.65-8.37-4.84c-.15-.06-.37-.02-.61,.12-.68,.39-1.26,1.39-1.26,2.17,0,.3,.08,.52,.23,.6l8.39,4.86-.38,.65Z"/></g><g><ellipse class="cls-2" cx="197.74" cy="261.57" rx="2.04" ry="1.18" transform="translate(-127.9 299.98) rotate(-59.64)"/><path d="M197.08,263.81c-.2,0-.39-.05-.57-.15-.39-.23-.61-.67-.61-1.25,0-1.05,.72-2.29,1.64-2.83,.51-.29,1.01-.33,1.4-.1,.39,.23,.61,.67,.61,1.25,0,1.05-.72,2.29-1.64,2.83-.29,.17-.58,.25-.84,.25Zm1.3-3.73c-.13,0-.29,.05-.46,.15-.68,.4-1.26,1.39-1.26,2.18,0,.3,.08,.52,.23,.6,.15,.09,.39,.05,.66-.1,.68-.4,1.26-1.39,1.26-2.18,0-.3-.08-.52-.23-.6-.05-.03-.12-.05-.19-.05Z"/></g></g></g></g><g><path class="cls-3" d="M284.09,426.97c-2.34,0-4.94-.77-7.61-2.31-9.15-5.28-16.59-18.12-16.59-28.61,0-6.05,2.42-10.27,6.65-11.61l12.68-7.44c3.25-1.85,7.53-1.43,12.06,1.18h0c9.15,5.28,16.59,18.12,16.59,28.61,0,5.19-1.79,9.07-5.04,10.92l-13.54,7.64c-1.47,1.08-3.24,1.62-5.2,1.62Zm-.4-50.11c-1.46,0-2.79,.33-3.97,1l-12.73,7.46s-.07,.04-.1,.05c-3.81,1.18-6,5.07-6,10.68,0,10.17,7.22,22.62,16.09,27.74,4.54,2.62,8.82,2.88,11.77,.72h0s0,0,.01,0c.18-.14,.36-.28,.54-.44,.03-.02,.06-.05,.09-.06l13.36-7.44s.07-.04,.11-.05c2.59-1.78,4.02-5.2,4.02-9.73,0-10.17-7.22-22.62-16.09-27.74-2.51-1.45-4.93-2.19-7.09-2.19Z"/><path class="cls-2" d="M291.03,378.61c-4.51-2.61-8.6-2.87-11.56-1.18l-12.73,7.47c-3.86,1.2-6.35,5.12-6.35,11.15,0,10.35,7.32,22.96,16.34,28.17,4.91,2.84,9.32,2.89,12.31,.69l13.54-7.64c2.96-1.68,4.79-5.31,4.79-10.48,0-10.35-7.32-22.96-16.34-28.17Zm-1.97,46.29c.2-.15,.39-.3,.57-.47l13.36-7.44-13.93,7.91Z"/><g><path class="cls-3" d="M281.62,421.13c-1.72,0-3.62-.58-5.58-1.73-6.61-3.87-11.95-13.21-11.9-20.81,.02-3.77,1.34-6.6,3.72-7.95,2.4-1.36,5.54-1.05,8.85,.89,6.61,3.87,11.95,13.21,11.9,20.81h-.5s.5,0,.5,0c-.02,3.77-1.34,6.6-3.72,7.95-.98,.56-2.08,.83-3.27,.83Zm-10.48-30.32c-1.02,0-1.96,.23-2.78,.7-2.05,1.17-3.19,3.68-3.21,7.09-.05,7.29,5.07,16.23,11.4,19.94,2.99,1.75,5.78,2.07,7.85,.89,2.05-1.17,3.19-3.68,3.21-7.09,.05-7.29-5.07-16.23-11.4-19.94-1.8-1.05-3.53-1.59-5.07-1.59Z"/><path class="cls-3" d="M272.14,397.77c-.47,0-.98-.15-1.49-.45l-5.27-3.09c-.24-.14-.32-.45-.18-.68,.14-.24,.44-.32,.68-.18l5.27,3.09c.5,.3,.97,.39,1.32,.26,.26-.1,.44-.31,.56-.64l1.71-4.93c.09-.26,.38-.4,.64-.31,.26,.09,.4,.38,.31,.64l-1.71,4.93c-.21,.62-.61,1.05-1.16,1.25-.21,.08-.44,.12-.68,.12Z"/><path class="cls-3" d="M268.45,411.37c-.05,0-.11,0-.16-.03-.26-.09-.4-.38-.31-.64l1.58-4.57c.32-.92-.05-2.42-.91-3.63l-4.2-6c-.16-.23-.1-.54,.12-.7,.23-.16,.54-.1,.7,.12l4.2,6c1.04,1.49,1.45,3.31,1.03,4.53l-1.58,4.57c-.07,.21-.27,.34-.47,.34Z"/><path class="cls-3" d="M281.93,421.11c-.16,0-.31-.07-.41-.21l-4-5.72c-.81-1.16-1.93-1.86-2.67-1.68l-4.04,1.01c-.27,.06-.54-.1-.61-.36-.07-.27,.1-.54,.36-.61l4.04-1.01c1.18-.29,2.65,.52,3.73,2.08l4,5.72c.16,.23,.1,.54-.12,.7-.09,.06-.19,.09-.29,.09Z"/><path class="cls-3" d="M284.19,420.59c-.23,0-.43-.15-.49-.38l-1.51-6.38c-.43-1.8,.13-3.21,1.38-3.53l4.25-1.06c.27-.07,.54,.1,.61,.36,.07,.27-.1,.54-.36,.61l-4.25,1.06c-.67,.17-.93,1.12-.65,2.32l1.51,6.38c.06,.27-.1,.54-.37,.6-.04,0-.08,.01-.12,.01Z"/><path class="cls-3" d="M287.19,406.93c-.09,0-.17-.02-.25-.07l-5.27-3.09c-1.29-.76-2.42-2.37-2.81-4l-1.63-6.89c-.06-.27,.1-.54,.37-.6,.27-.07,.54,.1,.6,.37l1.63,6.89c.32,1.36,1.29,2.75,2.34,3.37l5.27,3.09c.24,.14,.32,.45,.18,.68-.09,.16-.26,.25-.43,.25Z"/><path class="cls-3" d="M278.43,411.89c-.73,0-1.52-.24-2.33-.72-2.67-1.56-4.82-5.33-4.8-8.39,0-1.59,.58-2.78,1.61-3.37,1.04-.59,2.37-.46,3.76,.35,2.67,1.56,4.82,5.33,4.8,8.39h-.5s.5,0,.5,0c0,1.59-.58,2.78-1.61,3.37-.43,.24-.91,.37-1.43,.37Zm-4.09-11.84c-.35,0-.66,.08-.94,.23-.7,.4-1.09,1.29-1.1,2.5-.02,2.75,1.91,6.12,4.3,7.52,1.07,.63,2.05,.75,2.76,.34,.7-.4,1.09-1.29,1.1-2.5h0c.02-2.75-1.91-6.12-4.3-7.52-.66-.38-1.28-.58-1.83-.58Z"/><path class="cls-3" d="M276.52,397.67c-.08,0-.16-.02-.24-.07-.22-.13-.38-.41-.38-.66,0-.17,.07-.31,.2-.38,.13-.07,.28-.07,.43,.02,.22,.13,.38,.41,.38,.66,0,.17-.07,.31-.2,.38-.06,.03-.12,.05-.19,.05Zm-.11-.43s0,0,0,0h.25s-.25,0-.25,0Z"/><path class="cls-3" d="M283.74,407.83c-.09,0-.18-.03-.26-.08-.24-.14-.42-.46-.42-.74,0-.18,.08-.33,.21-.41,.14-.08,.31-.07,.46,.02,.24,.14,.42,.46,.42,.74h0c0,.18-.08,.33-.22,.41-.06,.03-.13,.05-.2,.05Zm-.08-.46s0,.01,0,.02l.25-.02h-.24Z"/><path class="cls-3" d="M271.84,410.94c-.09,0-.18-.03-.26-.08-.24-.14-.42-.46-.42-.74,0-.18,.08-.33,.21-.41,.14-.08,.3-.07,.46,.02,.24,.14,.42,.46,.42,.74,0,.18-.08,.33-.21,.41-.06,.04-.13,.05-.2,.05Zm-.08-.46s0,.01-.01,.02l.25-.02h-.24Z"/><path class="cls-3" d="M281.35,416.86c-.09,0-.18-.03-.26-.08-.24-.14-.42-.46-.42-.74,0-.18,.08-.33,.21-.41,.14-.08,.31-.07,.46,.02,.24,.14,.42,.46,.42,.74,0,.18-.08,.33-.21,.41-.06,.04-.13,.05-.2,.05Z"/><path class="cls-3" d="M268.72,398.69c-.09,0-.18-.03-.26-.08-.24-.14-.42-.46-.42-.74,0-.18,.08-.33,.22-.41,.13-.08,.3-.07,.46,.02,.24,.14,.42,.46,.42,.74,0,.18-.08,.33-.21,.41-.06,.04-.13,.05-.2,.05Z"/><path class="cls-3" d="M284.07,426.98c-2.34,0-4.92-.78-7.59-2.32-9.15-5.28-16.59-18.12-16.59-28.61,0-5.17,1.77-9.03,5-10.89,3.25-1.88,7.55-1.47,12.1,1.16,9.15,5.28,16.59,18.12,16.59,28.61,0,5.17-1.77,9.03-5,10.89-1.34,.78-2.86,1.16-4.51,1.16Zm-14.68-41.98c-1.47,0-2.82,.34-4.01,1.02-2.9,1.67-4.5,5.23-4.5,10.03,0,10.17,7.22,22.62,16.09,27.74,4.23,2.44,8.17,2.85,11.1,1.16,2.9-1.67,4.5-5.23,4.5-10.03,0-10.17-7.22-22.62-16.09-27.74-2.51-1.45-4.93-2.19-7.09-2.19Z"/><path class="cls-3" d="M302.58,417.77c-.17,0-.34-.09-.43-.25-.14-.24-.05-.54,.19-.68,2.92-1.66,4.53-5.23,4.53-10.05,0-10.17-7.22-22.62-16.09-27.74-4.21-2.43-8.13-2.85-11.06-1.18-.24,.14-.55,.05-.68-.19-.14-.24-.05-.55,.19-.68,3.25-1.85,7.53-1.43,12.05,1.19,9.15,5.28,16.59,18.12,16.59,28.61,0,5.19-1.79,9.07-5.04,10.92-.08,.04-.16,.07-.25,.07Z"/><path class="cls-3" d="M265.62,385.83c-.17,0-.34-.09-.43-.25-.14-.24-.05-.55,.19-.68l14.54-8.25c.24-.13,.55-.05,.68,.19,.14,.24,.05,.55-.19,.68l-14.54,8.25c-.08,.04-.16,.06-.25,.06Z"/><path class="cls-3" d="M288.45,425.75c-.17,0-.34-.09-.43-.25-.14-.24-.05-.55,.19-.68l14.54-8.25c.24-.14,.54-.05,.68,.19,.14,.24,.05,.55-.19,.68l-14.54,8.25c-.08,.04-.16,.06-.25,.06Z"/></g></g><path d="M166.2,375.32v8.42l-18.21-9.1,18.2-8.7v1.82s1,0,1,0v-2.92s-2.61-1.3-2.61-1.3l-.45,.89,1.42,.71-18.69,8.94-17.76-9.08,18.05-9.36,7.64,3.82c-.02,.1-.03,.19-.03,.29,0,.96,.78,1.73,1.73,1.73,.96,0,1.73-.78,1.73-1.73,0-.96-.78-1.73-1.73-1.73-.5,0-.94,.21-1.26,.55l-7.97-3.98h-20.16s0,10.33,0,10.33v29.77h19.33s.24,0,.24,0h20.53s0-9.81,0-9.81v-9.55h-1Zm-.64,9.22l-19,9.08-17.76-9.08,18.05-9.35,18.71,9.35Zm-37.46-28.96h17s-17,8.81-17,8.81v-8.81Zm0,10.03l17.66,9.02-17.66,9.15v-18.17Zm0,28.07v-8.37l16.37,8.37h-16.37Zm38.1,0h-17.43s17.43-8.34,17.43-8.34v8.34Z"/><g><path d="M346.04,150.81c-2.45,0-4.76,.61-6.78,1.69,2.76,0,5,2.24,5,5,0,2.76-2.24,5-5,5s-5-2.24-5-5c0-.25,.04-.48,.07-.72-1.75,2.4-2.8,5.34-2.8,8.54,0,8.01,6.5,14.51,14.51,14.51,8.01,0,14.51-6.5,14.51-14.51,0-8.01-6.5-14.51-14.51-14.51Z"/><path d="M346.05,145.19c-11.1,0-20.13,9.03-20.13,20.12s9.03,20.13,20.13,20.13,20.12-9.03,20.12-20.13-9.03-20.12-20.12-20.12Zm0,39.25c-10.55,0-19.13-8.58-19.13-19.13s8.58-19.12,19.13-19.12,19.12,8.58,19.12,19.12-8.58,19.13-19.12,19.13Z"/></g><path d="M166.59,33.77h-36.08c-1.11,0-2.01,.9-2.01,2.01v36.08c0,1.11,.9,2.01,2.01,2.01h36.08c1.11,0,2.01-.9,2.01-2.01V35.77c0-1.11-.9-2.01-2.01-2.01Zm-3.67,21.16v-1.48h-1.94v-4.56c-.02-1.23,.66-3.5,.93-4.35h5.69v15.58h-3.64v-4.14l-1.04-1.04Zm-17.12-9.99c-.49-.63-1.32-1.68-1.19-2.91,.09-.85,.39-1.59,.72-2.14l1.26,3.02,4.11-1.67-1.25-3.18c1.2,.29,2.27,1.65,2.48,2.65,.28,1.39-.16,2.8-1.29,4.08-1.34,1.52-1.59,2.54-1.58,3.91,0,0,.45,14.8,.58,19.05,.02,.62-.12,1.08-.41,1.38-.34,.35-.85,.42-1.22,.42s-.88-.07-1.22-.42c-.29-.3-.42-.76-.41-1.38,.13-4.25,.58-19.05,.58-19.06,.03-1.51-.32-2.65-1.18-3.74Zm-11.35,23.16v-1.71h1.33v-1h-1.33v-2.37h2.96v-1h-2.96v-2.37h1.33v-1h-1.33v-2.37h2.96v-1h-2.96v-2.37h1.33v-1h-1.33v-2.37h2.96v-1h-2.96v-2.37h1.33v-1h-1.33v-2.37h2.96v-1h-2.96v-1.61h4.54v27.89h-4.54Zm2.74-28.89v-4.44h10.8v2.34h0s0,0,0,0h0s0,0,0,0l1.41,3.57-2.27,.92-1.51-3.61-.53,.55c-.61,.64-1.33,1.87-1.48,3.38-.06,.58,.04,1.12,.21,1.61h-3.82v-4.33h-2.8Zm22.79,14.24h-.99v-4.54c.02-1.51-.78-4.23-.98-4.88l.84-3.31h1.27l.9,3.31c-.22,.67-1.07,3.37-1.05,4.88v4.55Zm-4.82,2.52v4.14h-4.76c-.17-5.45-.35-11.44-.35-11.44,0-1,.09-1.82,1.33-3.23,.26-.29,.47-.59,.67-.9h5.07c.26,.86,.89,3.13,.87,4.36v4.55h-1.79v1.48l-1.04,1.04Zm3.9-16.26h-.98l-.97,3.82h-4.53c.41-.99,.53-2.03,.32-3.04-.3-1.47-1.98-3.5-3.91-3.5v-2.23h10.07v4.94Zm-19.07,4.82h4.3c.26,.43,.55,.8,.77,1.08,.67,.85,.94,1.76,.91,3.04,0,0-.18,6-.35,11.45h-5.63v-15.58Zm8.46,25.97c.61-.08,1.13-.31,1.5-.69,.48-.5,.71-1.21,.69-2.1-.04-1.38-.12-3.86-.2-6.6h4.73v5.08l.09,.13c.61,.87,2.28,1.23,3.81,1.29v5.25h-10.62v-2.36Zm11.12-3.88c-1.72,0-2.98-.38-3.4-.78v-9.46l1.04-1.04v-.89h4.72v.89l1.04,1.04v9.46c-.42,.39-1.68,.78-3.4,.78Zm8.04-30.85v7.76h-5.67l-1.04-3.82h-.82v-4.94h6.53c.56,0,1.01,.45,1.01,1.01Zm-37.09-1.01h5.67v4.44h-2.74v4.33h-3.94v-7.76c0-.56,.45-1.01,1.01-1.01Zm2.93,25.35h-3.94v-15.58h3.94v15.58Zm-3.94,11.74v-10.74h3.94v7.99h2.74v3.75h1v-3.75h2.8v-7.99h5.6c-.08,2.73-.16,5.22-.2,6.6-.03,.9,.2,1.6,.69,2.1,.35,.36,.81,.59,1.37,.68v2.37h-16.93c-.56,0-1.01-.45-1.01-1.01Zm37.09,1.01h-6.53v-5.25c1.53-.06,3.2-.43,3.81-1.29l.09-.13v-5.08h3.64v10.74c0,.56-.45,1.01-1.01,1.01Z"/><g><path d="M182.62,.24V40.34h40.1S222.72,.24,222.72,.24h-40.1Zm39.1,39.1h-38.1V1.24h38.1V39.34Z"/><path d="M193.93,21.89c-3.68,0-6.68,3-6.68,6.68s3,6.68,6.68,6.68,6.68-3,6.68-6.68-3-6.68-6.68-6.68Z"/><path d="M217.36,5.47h-12.49v12.49h12.49V5.47Zm-1,11.49h-10.49V6.47h10.49v10.49Z"/><path d="M218.77,28.11l-7.66-7.66-7.66,7.67,7.66,7.66,7.66-7.67Zm-7.66-6.24l6.25,6.24-6.25,6.25-6.25-6.24,6.25-6.25Z"/><path d="M197.54,17.98l3.61-6.26-3.61-6.26h-7.23l-3.61,6.26,3.61,6.26h7.23Zm-6.65-11.51h6.07l3.04,5.26-3.04,5.26h-6.07l-3.04-5.26,3.04-5.26Z"/></g><g><path d="M72.46,21.23V61.33s40.1,0,40.1,0V21.23s-40.1,0-40.1,0Zm39.1,39.1h-38.1V22.23h38.1V60.33Z"/><path d="M105.48,54.26c-.74,.74-.74,1.93,0,2.66,.74,.74,1.93,.74,2.66,0s.74-1.93,0-2.66-1.93-.74-2.66,0Z"/><path d="M95.53,44.35c-3.73,3.73-5.53,8.86-4.95,14.1h1.01c-.58-4.98,1.11-9.86,4.65-13.4,3.55-3.55,8.44-5.24,13.44-4.64v-1.01c-5.25-.59-10.4,1.2-14.14,4.94Z"/><path d="M98.84,47.61c-2.84,2.84-4.15,6.88-3.55,10.84h1c-.61-3.7,.6-7.48,3.25-10.13,2.65-2.65,6.43-3.86,10.12-3.25v-1c-3.96-.6-7.99,.71-10.83,3.55Z"/><path d="M102.09,50.87c-1.99,1.99-2.77,4.87-2.1,7.59h1.02c-.69-2.45,0-5.08,1.79-6.88,1.79-1.79,4.43-2.48,6.87-1.79v-1.02c-2.71-.66-5.59,.12-7.58,2.1Z"/><path d="M80.84,25.03c0-.31-.04-.62-.1-.92h-1.02c.08,.3,.12,.61,.12,.92,0,1.95-1.59,3.54-3.54,3.54-.33,0-.65-.05-.97-.13v1.02c.32,.07,.64,.12,.97,.12,2.5,0,4.54-2.03,4.54-4.54Z"/><path d="M89.98,43.8c-3.03,4.22-4.47,9.39-4.01,14.65h1c-.57-6.2,1.63-12.27,6.03-16.67,4.4-4.4,10.48-6.6,16.67-6.03v-1c-5.24-.46-10.39,.96-14.59,3.96,3-4.21,4.42-9.36,3.96-14.6h-1c.57,6.2-1.62,12.28-6.03,16.68-4.4,4.4-10.48,6.59-16.67,6.03v1c.64,.06,1.28,.09,1.92,.09,4.59,0,9.01-1.45,12.71-4.11Z"/><path d="M89.44,38.24c3.74-3.74,5.53-8.88,4.94-14.12h-1.01c.59,4.98-1.1,9.87-4.65,13.42-3.54,3.54-8.42,5.23-13.39,4.65v1.01c.64,.07,1.28,.11,1.92,.11,4.55,0,8.9-1.79,12.17-5.06Z"/><path d="M86.19,34.95c2.84-2.84,4.15-6.87,3.55-10.84h-1c.61,3.7-.6,7.48-3.25,10.13-2.65,2.65-6.44,3.86-10.14,3.25v1.01c.63,.1,1.27,.15,1.9,.15,3.33,0,6.56-1.31,8.95-3.7Z"/><path d="M82.9,31.69c1.98-1.98,2.77-4.86,2.1-7.58h-1.02c.69,2.45,0,5.08-1.79,6.87-1.79,1.79-4.41,2.48-6.85,1.8v1.02c.62,.15,1.26,.24,1.88,.24,2.1,0,4.15-.83,5.68-2.35Z"/></g><g><rect class="cls-4" x="146.55" y="187.98" width="1" height="160.55"/><polygon class="cls-4" points="142.96 345.21 143.69 344.53 147.05 348.14 150.4 344.53 151.14 345.21 147.05 349.61 142.96 345.21"/></g><g><rect class="cls-4" x="92.01" y="230.59" width="1" height="89.87"/><polygon class="cls-4" points="88.42 317.15 89.15 316.47 92.51 320.08 95.86 316.47 96.6 317.15 92.51 321.55 88.42 317.15"/></g><g><rect class="cls-4" x="202.17" y="44.11" width="1" height="85.34"/><polygon class="cls-4" points="206.77 47.42 206.04 48.11 202.69 44.49 199.33 48.1 198.59 47.42 202.69 43.03 206.77 47.42"/></g><g><rect class="cls-4" x="148.05" y="78.07" width="1" height="134.25"/><polygon class="cls-4" points="152.66 81.39 151.92 82.07 148.57 78.46 145.21 82.07 144.48 81.39 148.57 76.99 152.66 81.39"/></g><g><rect class="cls-4" x="92.01" y="65.37" width="1" height="162.29"/><polygon class="cls-4" points="96.61 68.68 95.88 69.37 92.52 65.75 89.16 69.37 88.43 68.68 92.52 64.29 96.61 68.68"/></g><g><g><polygon class="cls-2" points="225.52 182.37 81.06 265.78 81.05 187.81 225.52 104.4 225.52 182.37"/><path d="M81.06,266.28c-.09,0-.17-.02-.25-.07-.15-.09-.25-.25-.25-.43v-77.97c0-.18,.1-.34,.25-.43L225.27,103.97c.15-.09,.35-.09,.5,0,.15,.09,.25,.25,.25,.43v77.97c0,.18-.1,.34-.25,.43l-144.47,83.41c-.08,.04-.16,.07-.25,.07Zm.5-78.18v76.82l143.47-82.83V105.27L81.56,188.1Zm143.97-5.73h0Z"/></g><g><rect x="84.78" y="156.69" width="141.45" height=".75" transform="translate(-57.7 98.81) rotate(-30)"/><rect x="102.32" y="182.69" width="58.47" height=".75" transform="translate(-73.91 90.32) rotate(-30)"/><rect x="102.32" y="192.49" width="58.47" height=".75" transform="translate(-78.82 91.63) rotate(-30)"/><rect x="102.32" y="202.3" width="58.47" height=".75" transform="translate(-83.72 92.95) rotate(-30)"/><rect x="103.32" y="215.86" width="43.46" height=".75" transform="translate(-91.37 91.51) rotate(-30)"/><path d="M89.34,200c-.17,0-.34-.04-.48-.12-.33-.19-.51-.57-.51-1.05v-1.88c0-.18-.05-.33-.12-.39-.05-.04-.12-.05-.23-.03l-1.18,.27-.34-.64,1.18-1.09c.41-.37,.69-.97,.69-1.44v-1.88c0-.85,.58-1.84,1.31-2.27l.68-.39,.38,.65-.68,.39c-.51,.29-.94,1.04-.94,1.62v1.88c0,.68-.37,1.48-.93,1.99l-.16,.15c.25-.02,.49,.05,.68,.2,.26,.21,.41,.56,.41,.98v1.88c0,.2,.05,.35,.14,.4,.09,.05,.25,.02,.42-.08l.68-.39,.38,.65-.68,.39c-.24,.14-.47,.2-.7,.2Z"/><path d="M87.57,255.7l-.38-.65,.68-.39c.51-.29,.94-1.04,.94-1.62v-1.88c0-.68,.37-1.48,.93-1.99l.16-.15c-.26,.02-.49-.05-.68-.2-.26-.21-.41-.55-.41-.98v-1.88c0-.2-.05-.35-.14-.4-.09-.05-.25-.02-.42,.08l-.68,.39-.38-.65,.68-.39c.42-.24,.85-.27,1.17-.08,.33,.19,.51,.57,.51,1.05v1.88c0,.18,.05,.33,.12,.39,.05,.04,.12,.05,.23,.03l1.18-.27,.34,.64-1.18,1.09c-.41,.37-.69,.97-.69,1.44v1.88c0,.85-.58,1.84-1.31,2.27l-.68,.39Z"/><ellipse cx="147.46" cy="202.92" rx="1.21" ry=".7" transform="translate(-102.16 227.59) rotate(-59.64)"/><ellipse cx="151.91" cy="200.35" rx="1.21" ry=".7" transform="translate(-97.74 230.16) rotate(-59.64)"/><ellipse cx="156.36" cy="197.78" rx="1.21" ry=".7" transform="translate(-93.33 232.73) rotate(-59.64)"/></g></g><g><path d="M72.46,325.1v40.1h40.1s0-40.1,0-40.1h-40.1Zm39.1,39.1h-38.1v-38.1h38.1v38.1Z"/><path d="M78.93,357.17c1.04,0,1.88-.84,1.88-1.88,0-.87-.59-1.59-1.38-1.81v-19.82c0-1.58,1.28-2.86,2.86-2.86s2.86,1.28,2.86,2.86v22.92c0,2.13,1.73,3.86,3.86,3.86s3.86-1.73,3.86-3.86v-22.92c0-1.58,1.28-2.86,2.86-2.86s2.86,1.28,2.86,2.86v22.92c0,2.13,1.73,3.86,3.86,3.86s3.86-1.73,3.86-3.86v-21.38l1.15,1.57h1.2l-2.85-3.82-2.85,3.82h1.18l1.17-1.58v21.39c0,1.58-1.28,2.86-2.86,2.86s-2.86-1.28-2.86-2.86v-22.92c0-2.13-1.73-3.86-3.86-3.86s-3.86,1.73-3.86,3.86v22.92c0,1.58-1.28,2.86-2.86,2.86s-2.86-1.28-2.86-2.86v-22.92c0-2.13-1.73-3.86-3.86-3.86s-3.86,1.73-3.86,3.86v19.82c-.8,.22-1.38,.94-1.38,1.81,0,1.04,.84,1.88,1.88,1.88Z"/></g><g><path class="cls-3" d="M277.57,191.13c-1.41,0-2.99-.46-4.59-1.39-5.45-3.14-9.88-10.78-9.88-17.03,0-3.65,1.47-6.21,4.04-7.03l7.45-4.37c1.99-1.13,4.58-.88,7.31,.7h0c5.45,3.14,9.88,10.78,9.88,17.03,0,3.14-1.09,5.48-3.07,6.61l-7.98,4.5c-.89,.66-1.97,.98-3.16,.98Zm-.24-29.52c-.82,0-1.58,.19-2.24,.56l-7.49,4.39s-.07,.04-.1,.05c-2.15,.67-3.39,2.89-3.39,6.09,0,5.93,4.21,13.18,9.38,16.16,2.6,1.5,5.04,1.66,6.71,.44h0s0,0,0,0c.1-.08,.2-.16,.3-.24,.03-.02,.06-.05,.09-.06l7.87-4.38s.05-.02,.08-.03c1.46-1.01,2.25-2.96,2.25-5.54,0-5.93-4.21-13.18-9.38-16.16h0c-1.45-.84-2.84-1.26-4.07-1.26Z"/><path class="cls-2" d="M281.64,162.44c-2.66-1.53-5.07-1.69-6.81-.7l-7.5,4.4c-2.28,.71-3.74,3.02-3.74,6.57,0,6.1,4.31,13.53,9.63,16.6,2.89,1.67,5.49,1.7,7.25,.4l7.98-4.5c1.74-.99,2.82-3.13,2.82-6.18,0-6.1-4.31-13.53-9.63-16.6Zm-1.16,27.27c.12-.09,.23-.18,.34-.27l7.87-4.38-8.21,4.66Z"/><g><path class="cls-3" d="M277.55,191.01c-1.39,0-2.93-.46-4.51-1.38-5.41-3.12-9.81-10.71-9.81-16.92,0-3.07,1.06-5.38,2.98-6.49,1.94-1.12,4.5-.88,7.21,.68,5.41,3.12,9.82,10.71,9.82,16.92,0,3.07-1.06,5.38-2.98,6.49-.8,.46-1.71,.69-2.7,.69Zm-8.65-24.73c-.85,0-1.63,.2-2.32,.59-1.68,.97-2.61,3.04-2.61,5.84,0,5.97,4.23,13.27,9.44,16.27,2.46,1.42,4.76,1.67,6.46,.68,1.68-.97,2.61-3.04,2.61-5.84,0-5.97-4.24-13.27-9.44-16.27-1.47-.85-2.88-1.28-4.14-1.28Z"/><path class="cls-3" d="M288.45,185.59c-.13,0-.26-.07-.33-.19-.1-.18-.04-.41,.14-.51,1.7-.96,2.63-3.04,2.63-5.85,0-5.97-4.24-13.27-9.44-16.27-2.45-1.42-4.74-1.66-6.43-.7-.18,.1-.41,.04-.51-.14-.1-.18-.04-.41,.14-.51,1.94-1.1,4.49-.85,7.18,.7,5.41,3.12,9.82,10.71,9.82,16.92,0,3.09-1.07,5.4-3.01,6.5-.06,.03-.12,.05-.19,.05Z"/><path class="cls-3" d="M266.68,166.78c-.13,0-.26-.07-.33-.19-.1-.18-.04-.41,.14-.51l8.56-4.86c.18-.1,.41-.04,.51,.14,.1,.18,.04,.41-.14,.51l-8.56,4.86c-.06,.03-.12,.05-.18,.05Z"/><path class="cls-3" d="M280.12,190.29c-.13,0-.26-.07-.33-.19-.1-.18-.04-.41,.14-.51l8.56-4.86c.18-.1,.41-.04,.51,.14,.1,.18,.04,.41-.14,.51l-8.56,4.86c-.06,.03-.12,.05-.18,.05Z"/></g></g><g><g><polyline class="cls-2" points="229.95 244.19 202.58 228.39 202.58 165.19 257.32 133.58 284.69 149.39"/><path d="M229.95,244.57c-.06,0-.13-.02-.19-.05l-27.37-15.8c-.12-.07-.19-.19-.19-.32v-63.21c0-.13,.07-.26,.19-.32l54.74-31.6c.12-.07,.26-.07,.38,0l27.37,15.8c.18,.1,.24,.33,.14,.51-.11,.18-.34,.24-.51,.14l-27.18-15.69-54.36,31.39v62.77l27.18,15.69c.18,.1,.24,.33,.14,.51-.07,.12-.2,.19-.33,.19Z"/></g><path d="M229.95,181.36c-.06,0-.13-.02-.19-.05l-27.37-15.8c-.18-.1-.24-.33-.14-.51,.11-.18,.34-.24,.51-.14l27.37,15.8c.18,.1,.24,.33,.14,.51-.07,.12-.2,.19-.33,.19Z"/><g><polygon class="cls-2" points="229.95 180.99 229.95 244.19 284.69 212.59 284.69 149.39 229.95 180.99"/><path d="M229.95,244.69c-.09,0-.17-.02-.25-.07-.15-.09-.25-.25-.25-.43v-63.21c0-.18,.1-.34,.25-.43l54.74-31.6c.15-.09,.35-.09,.5,0,.15,.09,.25,.25,.25,.43v63.21c0,.18-.1,.34-.25,.43l-54.74,31.6c-.08,.04-.16,.07-.25,.07Zm.5-63.42v62.05l53.74-31.03v-62.05l-53.74,31.03Z"/></g><polygon points="284.69 149.39 229.95 180.99 202.58 165.19 257.32 133.58 284.69 149.39"/></g><g><path class="cls-3" d="M211.15,219.8c-1.41,0-2.99-.46-4.59-1.39-5.45-3.14-9.88-10.78-9.88-17.03,0-3.65,1.47-6.2,4.04-7.03l7.45-4.37c1.99-1.13,4.58-.88,7.31,.7,5.45,3.14,9.88,10.78,9.88,17.03,0,3.14-1.09,5.48-3.07,6.61l-7.98,4.5c-.89,.66-1.97,.98-3.16,.98Zm-.24-29.52c-.82,0-1.58,.19-2.24,.56l-7.49,4.39s-.07,.04-.1,.05c-2.16,.67-3.39,2.89-3.39,6.09,0,5.93,4.21,13.18,9.38,16.16,2.6,1.5,5.04,1.66,6.71,.44h0s0,0,0,0c.1-.08,.2-.16,.3-.25,.03-.02,.06-.04,.09-.06l7.87-4.38s.05-.02,.07-.03c1.46-1.01,2.25-2.96,2.25-5.54,0-5.93-4.21-13.18-9.38-16.16h0c-1.45-.84-2.84-1.26-4.07-1.26Z"/><path class="cls-2" d="M215.23,191.11c-2.66-1.53-5.07-1.69-6.81-.7l-7.5,4.4c-2.28,.71-3.74,3.02-3.74,6.57,0,6.1,4.31,13.53,9.63,16.6,2.89,1.67,5.49,1.7,7.25,.4l7.98-4.5c1.74-.99,2.82-3.13,2.82-6.18,0-6.1-4.31-13.53-9.63-16.6Zm-1.16,27.27c.12-.09,.23-.18,.34-.27l7.87-4.38-8.21,4.66Z"/><g><ellipse cx="206.81" cy="206.94" rx="7.83" ry="13.57" transform="translate(-76.23 132.91) rotate(-30.36)"/><path class="cls-3" d="M222.03,214.26c-.13,0-.26-.07-.33-.19-.1-.18-.04-.41,.14-.51,1.7-.96,2.63-3.04,2.63-5.85,0-5.97-4.24-13.27-9.44-16.27-2.45-1.42-4.74-1.66-6.43-.7-.18,.1-.41,.04-.51-.14-.1-.18-.04-.41,.14-.51,1.94-1.1,4.49-.85,7.18,.7,5.41,3.12,9.82,10.71,9.82,16.92,0,3.09-1.07,5.4-3.01,6.5-.06,.03-.12,.05-.19,.05Z"/><path class="cls-3" d="M200.26,195.44c-.13,0-.26-.07-.33-.19-.1-.18-.04-.41,.14-.51l8.57-4.86c.17-.1,.41-.04,.51,.14,.1,.18,.04,.41-.14,.51l-8.57,4.86c-.06,.03-.12,.05-.18,.05Z"/><path class="cls-3" d="M213.71,218.95c-.13,0-.26-.07-.33-.19-.1-.18-.04-.41,.14-.51l8.57-4.86c.17-.1,.41-.04,.51,.14,.1,.18,.04,.41-.14,.51l-8.57,4.86c-.06,.03-.12,.05-.18,.05Z"/></g></g><path d="M245.32,224.3c-.3,0-.59-.07-.85-.23-.67-.39-1.06-1.24-1.06-2.33,0-1.91,1.14-4.07,2.59-4.91l28.03-16.18c.72-.42,1.45-.46,2.03-.12,.67,.39,1.06,1.24,1.06,2.33,0,1.91-1.14,4.07-2.59,4.91l-28.03,16.18c-.4,.23-.8,.35-1.18,.35Zm29.89-23c-.24,0-.49,.11-.68,.22l-28.03,16.18c-1.14,.66-2.09,2.51-2.09,4.05,0,.71,.21,1.26,.56,1.46,.34,.19,.75,.04,1.03-.12l28.03-16.18h0c1.13-.66,2.09-2.51,2.09-4.05,0-.71-.21-1.26-.56-1.46-.11-.06-.23-.09-.35-.09Z"/><g><rect class="cls-4" x="304.28" y="162.15" width="1" height="76.31" transform="translate(-21.34 363.58) rotate(-59.91)"/><polygon class="cls-4" points="272.58 186.38 273.54 186.09 272.1 181.37 276.9 180.28 276.68 179.3 270.83 180.64 272.58 186.38"/></g><g><rect class="cls-4" x="274.89" y="180.1" width="1" height="70.68" transform="translate(-49.1 345.66) rotate(-59.9)"/><polygon class="cls-4" points="245.63 202.92 246.59 202.62 245.15 197.91 249.96 196.81 249.73 195.84 243.88 197.17 245.63 202.92"/></g><g><g><path class="cls-2" d="M327.43,231.1h0s-8.29-4.79-8.29-4.79c-2.13-1.22-5.09-1.04-8.35,.84-6.51,3.76-11.78,12.85-11.78,20.31,0,3.7,1.29,6.3,3.39,7.52h0s8.18,4.7,8.18,4.7c.13,.08,.27,.16,.4,.23l.1,.06h0c2.11,1.04,4.93,.79,8.05-1.01,6.51-3.76,11.78-12.85,11.78-20.31,0-3.75-1.33-6.37-3.48-7.57Z"/><path d="M313.83,261.1c-1.04,0-2.02-.21-2.91-.63-.03-.01-.07-.02-.1-.04l-.1-.06c-.13-.07-.28-.15-.42-.24l-8.16-4.69s-.04-.02-.05-.03c-2.31-1.39-3.58-4.2-3.58-7.92,0-7.61,5.4-16.91,12.04-20.75,3.32-1.92,6.46-2.21,8.85-.85l8.29,4.78s.06,.04,.09,.06c2.34,1.37,3.63,4.19,3.63,7.95,0,7.61-5.4,16.91-12.03,20.74-1.94,1.12-3.83,1.68-5.54,1.68Zm-2.58-1.58s.03,.01,.04,.02c2.04,1.01,4.73,.66,7.57-.99,6.36-3.67,11.53-12.59,11.53-19.88,0-3.43-1.14-5.97-3.22-7.14-.03-.02-.06-.04-.09-.07l-8.2-4.72c-2.06-1.18-4.85-.88-7.85,.84-6.36,3.67-11.54,12.59-11.54,19.88,0,3.39,1.12,5.91,3.14,7.09,.01,0,.03,.02,.04,.03l8.12,4.67c.14,.09,.26,.16,.39,.22l.05,.03Z"/></g><g><path class="cls-2" d="M327.43,231.09l-8.29-4.78c-2.13-1.22-5.09-1.04-8.35,.84-6.51,3.76-11.78,12.85-11.78,20.31,0,3.7,1.29,6.3,3.39,7.52h0s8.68,4.99,8.68,4.99"/><path d="M310.89,260.31l-8.68-4.99s-.03-.02-.04-.03c-2.28-1.36-3.53-4.14-3.53-7.82,0-7.57,5.37-16.83,11.97-20.64,3.28-1.89,6.37-2.19,8.72-.85l8.29,4.78-.38,.65-8.29-4.78c-2.11-1.21-4.94-.91-7.97,.84-6.39,3.69-11.6,12.66-11.6,19.99,0,3.43,1.14,5.99,3.21,7.2,.01,0,.03,.02,.04,.02l8.63,4.97-.37,.65Z"/></g><path d="M314.96,252.56c-.61,0-1.18-.15-1.69-.44-1.2-.69-1.86-2.11-1.86-3.98,0-3.66,2.6-8.15,5.79-9.99,1.65-.95,3.23-1.09,4.43-.39,1.2,.69,1.86,2.11,1.86,3.98h0c0,3.66-2.6,8.15-5.79,9.99-.96,.55-1.89,.83-2.74,.83Zm4.98-14.24c-.67,0-1.44,.23-2.24,.7-2.92,1.69-5.29,5.78-5.29,9.13,0,1.5,.48,2.61,1.36,3.12,.89,.51,2.11,.37,3.43-.39,2.92-1.69,5.29-5.78,5.29-9.13h0c0-1.5-.48-2.61-1.36-3.12-.35-.2-.75-.3-1.2-.3Z"/><g><path class="cls-2" d="M319.12,231.96c-6.51,3.76-11.78,12.85-11.78,20.31s5.28,10.46,11.78,6.7c6.51-3.76,11.78-12.85,11.78-20.31s-5.28-10.46-11.78-6.7Zm0,24.86c-5.47,3.16-9.91,.64-9.91-5.64,0-6.27,4.43-13.92,9.91-17.07,5.47-3.16,9.91-.64,9.91,5.64,0,6.27-4.43,13.92-9.91,17.07Z"/><path d="M313.83,261.1c-1.21,0-2.33-.28-3.32-.86-2.37-1.37-3.67-4.2-3.67-7.97,0-7.61,5.4-16.91,12.03-20.74,3.33-1.92,6.47-2.22,8.86-.84,2.37,1.37,3.67,4.2,3.67,7.97,0,7.61-5.4,16.91-12.03,20.74-1.95,1.12-3.83,1.69-5.54,1.69Zm10.58-30.26c-1.53,0-3.25,.52-5.04,1.56-6.36,3.67-11.53,12.59-11.53,19.88,0,3.4,1.13,5.93,3.17,7.11,2.07,1.19,4.86,.9,7.86-.84,6.36-3.67,11.53-12.59,11.53-19.88,0-3.4-1.13-5.93-3.17-7.11-.83-.48-1.79-.72-2.82-.72Zm-9.74,27.85c-1.03,0-1.99-.24-2.83-.73-2.02-1.16-3.13-3.57-3.12-6.77,0-6.42,4.56-14.27,10.16-17.51,2.82-1.63,5.49-1.88,7.53-.7,2.02,1.16,3.13,3.57,3.13,6.77,0,6.42-4.56,14.27-10.16,17.51h0c-1.65,.95-3.25,1.43-4.7,1.43Zm8.9-25.44c-1.27,0-2.7,.44-4.2,1.3-5.32,3.07-9.66,10.54-9.66,16.64,0,2.83,.93,4.93,2.62,5.91,1.71,.99,4.03,.74,6.53-.7,5.32-3.07,9.66-10.54,9.66-16.64,0-2.83-.93-4.93-2.63-5.91-.69-.4-1.48-.6-2.33-.6Z"/></g><path d="M317.38,240.26c-.69,.4-1.34,.97-1.91,1.65,.78-.45,1.41-.09,1.41,.8,0,.89-.63,1.98-1.41,2.43-.78,.45-1.41,.09-1.41-.8,0-.08,.01-.16,.02-.24-.49,1.06-.79,2.18-.79,3.22,0,2.59,1.83,3.63,4.09,2.33s4.09-4.46,4.09-7.06c0-2.59-1.83-3.63-4.09-2.33Z"/></g><g><g><path class="cls-2" d="M359.77,212.08h0s-8.29-4.79-8.29-4.79c-2.13-1.22-5.09-1.04-8.35,.84-6.51,3.76-11.78,12.85-11.78,20.31,0,3.7,1.29,6.3,3.39,7.52h0s8.18,4.7,8.18,4.7c.13,.08,.27,.16,.4,.23l.1,.06h0c2.11,1.04,4.93,.79,8.05-1.01,6.51-3.76,11.78-12.85,11.78-20.31,0-3.75-1.33-6.37-3.48-7.57Z"/><path d="M346.18,242.08c-1.05,0-2.03-.21-2.91-.64-.03-.01-.06-.02-.09-.04l-.1-.06c-.13-.07-.28-.15-.42-.24l-8.16-4.69s-.04-.02-.05-.03c-2.31-1.39-3.58-4.2-3.58-7.92,0-7.61,5.4-16.92,12.03-20.75,3.32-1.91,6.46-2.22,8.85-.85l8.29,4.78s.06,.04,.09,.06c2.35,1.37,3.64,4.19,3.64,7.95,0,7.61-5.4,16.91-12.03,20.74-1.94,1.12-3.83,1.68-5.54,1.69Zm-2.57-1.58s.02,.01,.04,.02c2.04,1.01,4.73,.66,7.57-.99,6.36-3.67,11.53-12.59,11.53-19.88,0-3.43-1.14-5.97-3.22-7.14-.03-.02-.06-.04-.09-.07l-8.2-4.72c-2.07-1.18-4.85-.89-7.85,.85-6.36,3.67-11.53,12.59-11.53,19.88,0,3.39,1.12,5.91,3.14,7.09,.01,0,.03,.02,.04,.03l8.12,4.67c.14,.09,.26,.16,.39,.22l.06,.03Z"/></g><g><path class="cls-2" d="M359.78,212.07l-8.29-4.78c-2.13-1.22-5.09-1.04-8.35,.84-6.51,3.76-11.78,12.85-11.78,20.31,0,3.7,1.29,6.3,3.39,7.52h0s8.68,4.99,8.68,4.99"/><path d="M343.23,241.29l-8.68-4.99s-.03-.02-.04-.03c-2.28-1.36-3.53-4.14-3.53-7.82,0-7.57,5.37-16.83,11.97-20.64,3.28-1.89,6.38-2.19,8.72-.85l8.29,4.78-.38,.65-8.29-4.78c-2.11-1.21-4.94-.91-7.97,.85-6.39,3.69-11.6,12.66-11.6,19.99,0,3.43,1.14,5.99,3.21,7.2,.01,0,.03,.02,.04,.02l8.63,4.97-.37,.65Z"/></g><path d="M347.31,233.54c-.61,0-1.19-.15-1.69-.44-1.2-.69-1.86-2.11-1.86-3.98,0-3.66,2.6-8.15,5.79-9.99,1.65-.95,3.23-1.09,4.43-.39,1.2,.69,1.86,2.11,1.86,3.98h0c0,3.66-2.6,8.15-5.79,9.99-.96,.55-1.89,.83-2.74,.83Zm4.98-14.24c-.67,0-1.44,.23-2.24,.7-2.92,1.69-5.29,5.78-5.29,9.13,0,1.5,.48,2.61,1.36,3.12,.88,.51,2.11,.37,3.43-.39,2.92-1.69,5.29-5.78,5.29-9.13h0c0-1.5-.48-2.61-1.36-3.12-.35-.2-.75-.3-1.2-.3Z"/><g><path class="cls-2" d="M351.47,212.95c-6.51,3.76-11.78,12.85-11.78,20.31,0,7.46,5.28,10.46,11.78,6.7,6.51-3.76,11.78-12.85,11.78-20.31,0-7.46-5.28-10.46-11.78-6.7Zm0,24.86c-5.47,3.16-9.91,.64-9.91-5.64,0-6.27,4.43-13.92,9.91-17.07,5.47-3.16,9.91-.64,9.91,5.64,0,6.27-4.43,13.92-9.91,17.07Z"/><path d="M346.17,242.09c-1.21,0-2.33-.28-3.32-.86-2.37-1.37-3.67-4.2-3.67-7.97,0-7.61,5.4-16.91,12.03-20.74h0c3.33-1.92,6.47-2.22,8.86-.84,2.37,1.37,3.67,4.2,3.67,7.97,0,7.61-5.4,16.91-12.03,20.74-1.95,1.12-3.83,1.69-5.54,1.69Zm10.58-30.26c-1.53,0-3.25,.52-5.04,1.56h0c-6.36,3.67-11.53,12.59-11.53,19.88,0,3.4,1.13,5.93,3.17,7.11,2.07,1.19,4.86,.9,7.86-.84,6.36-3.67,11.53-12.59,11.53-19.88,0-3.4-1.13-5.93-3.17-7.11-.83-.48-1.79-.72-2.82-.72Zm-9.74,27.85c-1.03,0-1.99-.24-2.83-.73-2.02-1.16-3.13-3.57-3.13-6.77,0-6.42,4.56-14.27,10.16-17.51,2.82-1.63,5.5-1.88,7.53-.7,2.02,1.16,3.13,3.57,3.13,6.77,0,6.42-4.56,14.27-10.16,17.51-1.65,.95-3.25,1.43-4.7,1.43Zm8.9-25.44c-1.27,0-2.7,.44-4.2,1.3-5.32,3.07-9.66,10.54-9.66,16.64,0,2.83,.93,4.93,2.63,5.91,1.71,.99,4.03,.74,6.53-.7h0c5.32-3.07,9.66-10.54,9.66-16.64,0-2.83-.93-4.93-2.63-5.91-.69-.4-1.48-.59-2.33-.59Z"/></g><path d="M349.72,221.24c-.69,.4-1.34,.97-1.91,1.65,.78-.45,1.41-.09,1.41,.8s-.63,1.98-1.41,2.43-1.41,.09-1.41-.8c0-.08,.01-.16,.02-.24-.49,1.06-.79,2.18-.79,3.22,0,2.59,1.83,3.63,4.09,2.33,2.26-1.31,4.09-4.46,4.09-7.06,0-2.59-1.83-3.63-4.09-2.33Z"/></g></g></g></svg>