<?xml version="1.0" encoding="UTF-8"?><svg id="Layer_1" xmlns="http://www.w3.org/2000/svg" viewBox="0 0 350 350"><path d="M179.06,90.02l-34.26-19.25H68.78s0,34.53,0,34.53v165.5s200.03,0,200.03,0V105.29s0-15.28,0-15.28h-89.76Zm84.77,175.8H73.77s0-155.53,0-155.53h190.06s0,155.53,0,155.53ZM73.77,105.29v-29.54s69.73,0,69.73,0l34.26,19.25h86.07s0,10.29,0,10.29H73.77Z"/><polygon points="190.84 194.36 185.07 194.2 170.43 213.89 169.78 159.96 164.8 160.02 165.43 213.74 151.24 194.39 145.12 194.39 167.97 225.05 190.84 194.36"/></svg>