<?xml version="1.0" encoding="UTF-8"?><svg id="Layer_1" xmlns="http://www.w3.org/2000/svg" viewBox="0 0 350 350"><path d="m185.15498,90.76169l-33.7606-15.55034-76.40955-.22897v200.03036l200.03036.00487V90.76169h-89.8602Zm84.87162,179.26734l-190.0532-.00487V117.84812l190.0532.00487v152.17604ZM79.9734,112.85954v-32.88858h69.83281l33.7606,15.55034,86.45978.22897v17.11414l-190.0532-.00487Z"/><path d="m130.97725,207.11642v14.96087c0,9.02719,7.34403,16.36878,16.37121,16.36878v-4.98858c-6.27713,0-11.38263-5.1055-11.38263-11.3802v-14.96087c0-6.07009-5.19928-11.05867-11.18594-13.87449,5.98666-2.81704,11.18594-7.80562,11.18594-13.87936v-14.956c0-6.2747,5.1055-11.3802,11.38263-11.3802v-4.98858c-9.02719,0-16.37121,7.34159-16.37121,16.36878v14.956c0,5.7583-9.32923,11.38507-16.29083,11.38507v4.98858c6.9616,0,16.29083,5.62677,16.29083,11.3802Z"/><path d="m219.02032,222.07729v-14.96087c0-5.75343,9.32923-11.3802,16.29327-11.3802v-4.98858c-6.96404,0-16.29327-5.62677-16.29327-11.38507v-14.956c0-9.02719-7.34403-16.36878-16.37121-16.36878v4.98858c6.27713,0,11.38263,5.1055,11.38263,11.3802v14.956c0,6.07374,5.20019,11.06232,11.18777,13.87936-5.98757,2.81582-11.18777,7.8044-11.18777,13.87449v14.96087c0,6.2747-5.1055,11.3802-11.38263,11.3802v4.98858c9.02719,0,16.37121-7.34159,16.37121-16.36878Z"/></svg>