<?xml version="1.0" encoding="UTF-8"?><svg id="Layer_1" xmlns="http://www.w3.org/2000/svg" viewBox="0 0 350 350"><path d="m74.99,74.98v200.04s200.03,0,200.03,0V74.98s-200.03,0-200.03,0Zm195.04,195.05H79.97s0-190.06,0-190.06h190.06s0,190.06,0,190.06Z"/><path d="m110.62,171.4c0-37.74,28.57-68.45,63.68-68.45,21.91,0,41.28,11.96,52.74,30.13-9.8-9.78-23.32-15.83-38.22-15.83-29.86,0-54.15,24.29-54.15,54.15v76.25h4.99v-76.25c0-27.11,22.06-49.16,49.16-49.16,15.19,0,28.78,6.93,37.81,17.78-6.25-4.4-13.85-7.02-22.06-7.02-21.17,0-38.4,17.23-38.4,38.4v76.25h4.99v-76.25c0-18.42,14.99-33.41,33.41-33.41,10.92,0,20.61,5.29,26.71,13.42-3.39-1.95-7.27-3.16-11.46-3.16-12.76,0-23.15,10.38-23.15,23.15v76.25h4.99v-76.25c0-10.01,8.15-18.16,18.16-18.16s18.16,8.15,18.16,18.16v65s-5.73-7.81-5.73-7.81h-5.98l14.21,19.06,14.21-19.06h-5.87l-5.84,7.86v-65.05c0-40.49-30.8-73.44-68.66-73.44s-68.67,32.94-68.67,73.44v76.26s4.99,0,4.99,0v-76.26Z"/></svg>