<?xml version="1.0" encoding="UTF-8"?><svg id="Layer_1" xmlns="http://www.w3.org/2000/svg" viewBox="0 0 350 350"><path d="M75.72,73.4v200.04s200.03,0,200.03,0V73.41s-200.03,0-200.03,0Zm195.05,195.05H80.71s0-190.06,0-190.06h190.06s0,190.06,0,190.06Z"/><path d="M132.11,181.37c-18.37,0-33.32,14.95-33.32,33.32s14.95,33.31,33.32,33.31c18.37,0,33.31-14.95,33.31-33.31,0-18.37-14.95-33.32-33.31-33.32Z"/><path d="M249,99.49h-62.31v62.31h62.31v-62.31Zm-4.99,57.33h-52.34s0-52.34,0-52.34h52.34s0,52.34,0,52.34Z"/><path d="M256.05,212.41l-38.21-38.2-38.21,38.24,38.21,38.2,38.21-38.24Zm-38.21-31.15l31.15,31.15-31.15,31.18-31.15-31.15,31.15-31.18Z"/><path d="M150.14,161.87l18.02-31.22-18.02-31.21h-36.05s-18.02,31.21-18.02,31.21l18.02,31.22h36.05Zm-33.16-57.44h30.28s15.15,26.22,15.15,26.22l-15.15,26.23h-30.28s-15.15-26.23-15.15-26.23l15.15-26.22Z"/></svg>