<?xml version="1.0" encoding="UTF-8"?>
<svg id="Layer_1" data-name="Layer 1" xmlns="http://www.w3.org/2000/svg" viewBox="0 0 350 350">
  <path d="m74.99,74.98v200.03s200.02,0,200.02,0V74.99s-200.02,0-200.02,0Zm195.03,195.05H79.97s0-190.06,0-190.06h190.05s0,190.06,0,190.06Z"/>
  <path d="m159.39,202.77h-60.71v48.56h152.65V98.68h-48.41v60.69h-43.53v43.41Zm4.99-38.42h43.53v-60.69h38.44v142.67H103.67v-38.58h60.71v-43.41Z"/>
  <polygon points="98.66 98.67 98.66 185.01 141.61 185.01 141.61 141.61 141.61 141.61 185.12 141.61 185.12 98.67 98.66 98.67"/>
</svg>