<?xml version="1.0" encoding="UTF-8"?><svg id="Layer_1" xmlns="http://www.w3.org/2000/svg" viewBox="0 0 350 350"><path d="m122.08,188.87l-14.21-19.06-14.21,19.06h5.87l5.89-7.92.42,32.43c0,.88.49,1.69,1.25,2.12l67.16,38.77c.38.22.82.34,1.25.34s.86-.11,1.25-.34l66.67-38.49c.77-.44,1.25-1.27,1.25-2.16v-76.98c0-.89-.47-1.71-1.24-2.16-.76-.44-1.71-.45-2.48,0l-65.92,37.51-62.13-35.35,62.13-35.88,25.47,14.7c-.2.76-.33,1.54-.33,2.35,0,5.19,4.21,9.39,9.39,9.39s9.39-4.21,9.39-9.39-4.21-9.39-9.39-9.39c-2.57,0-4.89,1.04-6.59,2.71l-26.69-15.41c-.77-.45-1.72-.45-2.49,0l-67.15,38.77c-.77.44-1.25,1.27-1.25,2.17,0,.89.48,1.71,1.26,2.16l67.15,38.21c.76.44,1.71.44,2.47,0l63.43-36.09v71.25l-64.18,37.05-64.68-37.35-.39-30.78,5.68,7.75h5.98Z"/><path d="m74.98,74.98v200.04h200.04s0-200.03,0-200.03H74.98Zm195.05,195.05H79.97V79.97h190.06v190.06Z"/></svg>