<?xml version="1.0" encoding="UTF-8"?>
<svg id="Layer_1" data-name="Layer 1" xmlns="http://www.w3.org/2000/svg" viewBox="0 0 350 350">
  <path d="m275.02,74.9H74.98s0,200.03,0,200.03h37.37c.27.1.54.17.84.17s.58-.07.84-.17h160.98s0-200.03,0-200.03Zm-4.99,195.05H115.69v-134.36c0-15.66,12.74-28.41,28.41-28.41s28.41,12.74,28.41,28.41v78.65c0,18.42,14.99,33.4,33.4,33.4h0c8.92,0,17.3-3.47,23.6-9.78s9.78-14.7,9.78-23.62v-75.24l5.73,7.81h5.98l-14.21-19.06-14.21,19.06h5.87l5.85-7.86v75.29c0,7.59-2.96,14.72-8.32,20.09-5.36,5.36-12.49,8.32-20.08,8.32h0c-15.67,0-28.41-12.74-28.41-28.41v-78.65c0-18.42-14.98-33.4-33.4-33.4s-33.4,14.98-33.4,33.4v134.36h-30.73V79.89h190.06v190.06Z"/>
  <path d="m205.9,223.73c5.19,0,9.39-4.21,9.39-9.39s-4.21-9.39-9.39-9.39-9.39,4.21-9.39,9.39,4.21,9.39,9.39,9.39Z"/>
  <path d="m144.1,126.11c-5.19,0-9.39,4.21-9.39,9.39s4.21,9.39,9.39,9.39,9.39-4.21,9.39-9.39-4.21-9.39-9.39-9.39Z"/>
</svg>