<?xml version="1.0" encoding="UTF-8"?>
<svg id="Layer_1" data-name="Layer 1" xmlns="http://www.w3.org/2000/svg" viewBox="0 0 350 350">
  <path d="m74.98,74.98v200.04h200.04s0-200.03,0-200.03H74.98Zm195.05,195.05H79.97V79.97h190.06v190.06Z"/>
  <path d="m103.8,214.32c0,5.19,4.21,9.39,9.39,9.39s9.39-4.21,9.39-9.39c0-4.32-2.93-7.92-6.9-9.02v-60.62c3.97-1.1,6.9-4.7,6.9-9.02,0-3.82-2.29-7.1-5.57-8.57,3.64-11.49,14.4-19.84,27.08-19.84s23.44,8.35,27.08,19.85c-3.28,1.47-5.57,4.74-5.57,8.57,0,4.32,2.93,7.92,6.9,9.02v60.62c-3.97,1.1-6.9,4.7-6.9,9.02,0,4.79,3.6,8.7,8.24,9.28,4.03,13.91,16.87,24.12,32.06,24.12s28.03-10.21,32.06-24.12c4.64-.58,8.24-4.49,8.24-9.28,0-4.32-2.93-7.92-6.9-9.02v-60.62c3.96-1.1,6.89-4.7,6.89-9.02,0-5.19-4.21-9.39-9.39-9.39s-9.39,4.21-9.39,9.39c0,4.32,2.93,7.92,6.9,9.02v60.62c-3.97,1.1-6.9,4.7-6.9,9.02,0,3.82,2.29,7.1,5.57,8.57-3.64,11.49-14.4,19.84-27.08,19.84s-23.44-8.35-27.09-19.84c3.28-1.47,5.57-4.74,5.57-8.57,0-4.32-2.93-7.92-6.9-9.02v-60.62c3.97-1.1,6.9-4.7,6.9-9.02,0-4.79-3.6-8.7-8.24-9.28-4.03-13.91-16.86-24.12-32.06-24.12s-28.03,10.21-32.06,24.12c-4.64.58-8.24,4.49-8.24,9.28,0,4.32,2.93,7.92,6.9,9.02v60.62c-3.97,1.1-6.9,4.7-6.9,9.02Z"/>
</svg>