<?xml version="1.0" encoding="UTF-8"?><svg id="Layer_1" xmlns="http://www.w3.org/2000/svg" viewBox="0 0 350 350"><path d="M264.43,70.77H84.44c-5.53,0-10.02,4.49-10.02,10.02v179.99c0,5.52,4.5,10.02,10.02,10.02h179.99c5.52,0,10.02-4.49,10.02-10.02V80.79c0-5.52-4.5-10.02-10.02-10.02Zm-18.33,105.56v-7.38h-9.68s0-22.74,0-22.74c-.1-6.12,3.3-17.45,4.66-21.72h28.39s0,77.71,0,77.71h-18.15s0-20.66,0-20.66l-5.21-5.21Zm-85.43-49.82c-2.46-3.14-6.59-8.4-5.95-14.54,.44-4.22,1.94-7.93,3.61-10.66l6.28,15.04,20.49-8.34-6.25-15.86c5.99,1.45,11.35,8.21,12.37,13.2,1.42,6.92-.8,13.95-6.42,20.34-6.67,7.59-7.92,12.69-7.89,19.51,0,0,2.24,73.84,2.9,95.04,.09,3.07-.58,5.38-2.02,6.86-1.7,1.75-4.23,2.11-6.07,2.11s-4.37-.37-6.07-2.11c-1.44-1.49-2.12-3.8-2.02-6.86,.67-21.2,2.9-95.04,2.9-95.07,.14-7.55-1.59-13.21-5.86-18.67Zm-56.62,115.54v-8.51s6.62,0,6.62,0v-4.99h-6.62s0-11.81,0-11.81h14.79v-4.99h-14.79s0-11.81,0-11.81h6.62v-4.99h-6.62s0-11.81,0-11.81h14.79v-4.99h-14.79s0-11.81,0-11.81h6.62v-4.99h-6.62s0-11.81,0-11.81h14.79v-4.99h-14.79s0-11.81,0-11.81h6.62v-4.99h-6.62s0-11.81,0-11.81h14.79v-4.99h-14.79s0-8.03,0-8.03h22.66s0,139.14,0,139.14h-22.66Zm13.68-144.13v-22.17s53.89,0,53.89,0v11.66s0,0,0,0h0v.04h.01s7.02,17.8,7.02,17.8l-11.34,4.61-7.52-18.01-2.64,2.76c-3.06,3.21-6.61,9.32-7.39,16.84-.3,2.91,.18,5.6,1.03,8.04h-19.08s0-21.58,0-21.58h-13.97Zm113.7,71.03h-4.92s0-22.66,0-22.66c.12-7.56-3.89-21.12-4.88-24.36l4.2-16.51h3.14s3.18,0,3.18,0l4.51,16.51c-1.09,3.32-5.35,16.81-5.23,24.32v22.7Zm-24.04,12.59v20.66s-23.76,0-23.76,0c-.83-27.19-1.74-57.08-1.74-57.08-.02-4.99,.44-9.08,6.65-16.14,1.28-1.45,2.36-2.97,3.35-4.5h25.29c1.28,4.31,4.43,15.61,4.33,21.76v22.7s-8.92,0-8.92,0v7.39s-5.21,5.21-5.21,5.21Zm19.47-81.12h-4.91s-4.85,19.07-4.85,19.07h-22.58c2.03-4.95,2.62-10.11,1.59-15.15-1.51-7.35-9.87-17.44-19.49-17.46v-11.13s50.25,0,50.25,0v24.67Zm-95.15,24.06h21.44c1.29,2.15,2.72,3.97,3.85,5.41,3.32,4.24,4.68,8.79,4.56,15.17,0,0-.91,29.92-1.73,57.14h-28.11s0-77.71,0-77.71Zm42.18,129.56c3.04-.38,5.62-1.53,7.49-3.46,2.41-2.49,3.56-6.02,3.42-10.49-.21-6.87-.6-19.28-1.01-32.9h23.61s0,25.34,0,25.34l.45,.65c3.03,4.33,11.4,6.13,19.01,6.45v26.19s-52.97,0-52.97,0v-11.77Zm55.47-19.34c-8.58,0-14.86-1.91-16.97-3.88v-47.22s5.21-5.21,5.21-5.21v-4.46s23.52,0,23.52,0v4.46s5.21,5.21,5.21,5.21v47.22c-2.11,1.96-8.39,3.88-16.97,3.88Zm40.11-153.91v38.71s-28.3,0-28.3,0l-5.21-19.07h-4.11s0-24.67,0-24.67h32.59c2.77,0,5.03,2.26,5.03,5.03Zm-185.02-5.04h28.3s0,22.17,0,22.17h-13.68v21.58s-19.66,0-19.66,0v-38.71c0-2.78,2.26-5.03,5.03-5.03Zm14.62,126.45h-19.66s0-77.71,0-77.71h19.66s0,77.71,0,77.71Zm-19.66,58.58v-53.59s19.66,0,19.66,0v39.85h13.68s0,18.71,0,18.71h4.99v-18.71s13.97,0,13.97,0v-39.85s27.96,0,27.96,0c-.42,13.62-.8,26.03-1.01,32.9-.14,4.47,1.01,8,3.42,10.49,1.74,1.79,4.06,2.94,6.82,3.4v11.83s-84.45,0-84.45,0c-2.77,0-5.03-2.26-5.03-5.03Zm185.02,5.04h-32.59s0-26.19,0-26.19c7.62-.32,15.98-2.12,19.01-6.45l.45-.64v-25.35s18.15,0,18.15,0v53.59c0,2.78-2.26,5.03-5.03,5.03Z"/></svg>