<?xml version="1.0" encoding="UTF-8"?><svg id="Layer_1" xmlns="http://www.w3.org/2000/svg" viewBox="0 0 350 350"><rect x="140.96" y="228.09" width="10.12" height="10.12"/><rect x="155.33" y="228.09" width="10.12" height="10.12"/><rect x="169.71" y="228.09" width="10.12" height="10.12"/><rect x="184.09" y="228.09" width="10.12" height="10.12"/><rect x="198.46" y="228.09" width="10.12" height="10.12"/><rect x="212.84" y="228.09" width="10.12" height="10.12"/><rect x="227.22" y="228.09" width="10.12" height="10.12"/><rect x="241.59" y="228.09" width="10.12" height="10.12"/><path d="M277.43,218.19c-7.88,0-14.3,6.41-14.3,14.29s6.42,14.3,14.3,14.3c7.88,0,14.29-6.42,14.29-14.3,0-7.88-6.41-14.29-14.29-14.29Zm0,23.6c-5.13,0-9.31-4.18-9.31-9.31s4.18-9.31,9.31-9.31,9.31,4.18,9.31,9.31-4.18,9.31-9.31,9.31Z"/><path d="M115.57,218.19c-7.88,0-14.3,6.41-14.3,14.29,0,7.88,6.41,14.3,14.3,14.3,7.88,0,14.3-6.42,14.3-14.3,0-7.88-6.41-14.29-14.3-14.29Zm0,23.6c-5.13,0-9.31-4.18-9.31-9.31s4.18-9.31,9.31-9.31c5.13,0,9.31,4.18,9.31,9.31s-4.18,9.31-9.31,9.31Z"/><path d="M277.03,122.78c7.88,0,14.29-6.41,14.29-14.29,0-7.88-6.41-14.3-14.29-14.3-7.88,0-14.3,6.42-14.3,14.3,0,7.88,6.42,14.29,14.3,14.29Zm9.31-14.29c0,5.13-4.18,9.31-9.31,9.31-5.13,0-9.31-4.18-9.31-9.31,0-5.13,4.18-9.31,9.31-9.31s9.31,4.18,9.31,9.31Z"/><path d="M115.18,122.78c7.88,0,14.3-6.41,14.3-14.29,0-7.88-6.41-14.3-14.3-14.3s-14.3,6.42-14.3,14.3,6.41,14.29,14.3,14.29Zm9.31-14.29c0,5.13-4.18,9.31-9.31,9.31-5.13,0-9.31-4.18-9.31-9.31,0-5.13,4.18-9.31,9.31-9.31s9.31,4.18,9.31,9.31Z"/><rect x="269.5" y="139.03" width="14.33" height="66.6"/><path d="M272.44,82.08H76.25c-19.02,0-34.5,15.48-34.5,34.5v8.68s0,41.58,0,41.58v8.73s0,41.58,0,41.58v7.85c0,19.02,15.48,34.5,34.5,34.5h196.19c19.02,0,34.5-15.48,34.5-34.5V116.57c0-19.02-15.48-34.5-34.5-34.5Zm29.51,142.91c0,16.27-13.24,29.51-29.51,29.51H76.25c-16.27,0-29.51-13.24-29.51-29.51v-7.85s51.83,0,51.83,0v-41.58H46.74s0-8.73,0-8.73h51.83v-41.58H46.74s0-8.68,0-8.68c0-16.27,13.24-29.51,29.51-29.51h196.19c16.27,0,29.51,13.24,29.51,29.51v108.42Zm-255.21-12.84v-31.6s46.84,0,46.84,0v31.6s-46.84,0-46.84,0Zm0-50.31v-31.6s46.84,0,46.84,0v31.6s-46.84,0-46.84,0Z"/></svg>