<?xml version="1.0" encoding="UTF-8"?><svg id="Layer_1" xmlns="http://www.w3.org/2000/svg" viewBox="0 0 350 350"><path d="M292.93187,160.92684c-.02893-12.79875-5.86774-25.03268-16.77594-35.68816-4.23692-6.19689-10.07908-12.0013-17.49879-17.20527-5.02097-6.42221-11.48033-12.11883-19.28643-16.62431-37.91699-21.89861-90.68801-22.01553-128.33218-.28256-7.28969,4.20799-13.46527,9.4287-18.33948,15.33755-8.05578,5.37691-14.44785,11.41974-18.93901,17.95461-10.92951,10.59671-16.76407,22.82425-16.76407,35.63853,0,1.2423.06242,2.47851.17112,3.70924l.00913,38.07593c-1.77332,19.93041,11.04918,39.35416,35.1888,53.28256,23.04835,13.30968,53.28743,19.96939,83.44856,19.96939,29.87857,0,59.68406-6.53304,82.34754-19.62349,21.63066-12.48635,33.92701-29.22088,34.70649-47.19284.08769-.2582.13641-.53589.13641-.82333v-46.16977c0-.12697-.05389-.23598-.07216-.35808ZM288.01534,206.71418c-.0682.21436-.10718.44333-.11205.67718-.4141,16.45684-11.86276,31.99779-32.23651,43.76312-44.1626,25.49885-116.29404,25.35269-160.80741-.3459-22.38579-12.92481-34.31188-30.60934-32.7042-48.74694v-21.54388c5.68109,10.93043,15.93982,20.91147,30.20985,29.14872,23.04348,13.30968,53.28256,19.96939,83.44856,19.96939,29.87857,0,59.68406-6.53792,82.34754-19.62349,14.16955-8.17909,24.30344-18.13912,29.85421-29.06651v25.76832ZM84.70082,119.26833c-.52128,1.15674-.90341,2.35489-1.3373,3.53812-2.02361,5.51819-3.20715,11.2751-3.20715,17.17421,0,6.60064,1.3714,12.93729,3.95953,18.80991.37634.85439.86504,1.66219,1.29315,2.49587.42932.83612.84251,1.67863,1.32269,2.49282,4.62179,7.8332,11.53361,14.64789,20.49219,19.81836,18.90734,10.91764,43.69978,16.37889,68.44351,16.37889,24.50988,0,48.96617-5.36382,67.55684-16.1012,9.05145-5.22497,16.00224-12.14228,20.61886-20.09605.47408-.81663.89762-1.65427,1.32055-2.49282.41928-.83125.87753-1.64422,1.24596-2.49587,2.51079-5.80411,3.85783-12.05246,3.85783-18.56632,0-5.44238-.99932-10.76874-2.73459-15.89902-.37482-1.10863-.7941-2.20387-1.24535-3.29027,2.38565,2.47121,4.39951,5.03528,6.13234,7.66238,4.31822,6.54583,6.67524,13.5015,6.67524,20.64687.00091,3.1974-.55873,6.34487-1.44722,9.44636-.23872.83429-.44546,1.67102-.74721,2.49587-.30723.84038-.71828,1.6631-1.09006,2.49282-4.45371,9.9442-13.38915,19.12231-26.42357,26.64859-40.74262,23.50142-107.2569,23.36014-148.29183-.31667-12.95526-7.48182-21.94489-16.53601-26.59165-26.33192-.39218-.82668-.76761-1.65579-1.09615-2.49282-.32519-.82851-.62694-1.65823-.8891-2.49587-1.06113-3.39136-1.68167-6.84392-1.68167-10.34764,0-7.12253,2.34545-14.04532,6.65119-20.54456,1.9755-2.98183,4.39007-5.86074,7.21296-8.63004ZM125.96715,94.13395c4.11634-1.21825,8.40868-1.64909,12.15659-.95761.30053.05542.53437.16199.81937.22958.84799.20127,1.65458.43085,2.36372.73198,1.25935.53498,2.25411,1.23652,3.05856,2.0367.69575.6921,1.26148,1.44509,1.60038,2.29065,1.08001,2.69378.3395,6.04648-2.52875,9.4016-5.59157,6.54035-17.03628,10.56748-25.56249,8.99481-5.92529-1.0931-8.79598-4.62087-8.17118-8.85597.14981-1.01668.4546-2.06076,1.02581-3.13742.47317-.89214,1.05961-1.79312,1.83239-2.69713.25851-.30235.58796-.5703.87083-.86169.09896-.102.20309-.20096.30479-.30144,2.80705-2.77417,6.66732-4.99082,10.79371-6.41947.4817-.14798.95182-.31149,1.43626-.4546ZM67.36553,158.79057c.22532.83003.3532,1.67467.63272,2.49587.28683.84373.72589,1.65914,1.06905,2.49282,4.75515,11.54579,14.76025,22.12028,29.53359,30.64831,21.30425,12.30122,49.25847,18.45914,77.14449,18.45914,27.62294,0,55.18255-6.04587,76.13603-18.14247,14.83789-8.56579,24.81041-19.26237,29.35333-30.96497.32184-.82942.66469-1.65336.93081-2.49282.26094-.82394.42049-1.66341.62724-2.49587.77096-3.10301,1.29193-6.2447,1.29102-9.44636,0-1.96211-.19578-3.90412-.48657-5.83334,2.46694,4.93845,3.84078,10.06021,4.15806,15.2797.04537.74569.19183,1.48193.19183,2.23127,0,.08891-.02192.17569-.02253.2646-.00609.83703-.15011,1.66097-.21284,2.49282-1.18902,15.75744-12.37643,30.56123-32.04499,41.91672-44.16747,25.4891-116.31353,25.34295-160.80741-.3459-19.63567-11.33631-30.97167-25.98755-32.55469-41.57082-.08404-.83003-.18635-1.65792-.21436-2.49282-.0137-.41166-.10566-.81633-.10566-1.22921,0-.42567.09348-.84251.10809-1.26666.19243-5.5523,1.61591-10.99224,4.24149-16.21843-.29566,1.94049-.48626,3.89559-.48626,5.87079,0,3.5092.59527,6.95415,1.51756,10.34764Z"/></svg>