<?xml version="1.0" encoding="UTF-8"?><svg id="Layer_1" xmlns="http://www.w3.org/2000/svg" viewBox="0 0 350 350"><path d="m175,59.48c-63.7,0-115.52,51.82-115.52,115.52s51.83,115.52,115.52,115.52,115.52-51.82,115.52-115.52-51.82-115.52-115.52-115.52Zm0,226.05c-60.95,0-110.54-49.58-110.54-110.53s49.58-110.53,110.54-110.53,110.53,49.58,110.53,110.53-49.58,110.53-110.53,110.53Z"/><circle cx="175" cy="175" r="26.72" transform="translate(-72.49 175) rotate(-45)"/><path d="m107.96,101.64l-3.37-3.67c-2.51,2.3-4.94,4.75-7.2,7.26l3.71,3.33c2.15-2.4,4.46-4.73,6.86-6.92Z"/><path d="m123.55,89.96l-2.59-4.27c-2.91,1.77-5.77,3.7-8.48,5.73l2.99,3.99c2.58-1.93,5.3-3.77,8.08-5.46Z"/><path d="m94.94,116.12l-4.01-2.96c-2.03,2.76-3.94,5.63-5.66,8.53l4.29,2.55c1.64-2.76,3.45-5.5,5.39-8.12Z"/><path d="m85.64,228.95c1.74,2.89,3.67,5.75,5.72,8.49l3.99-2.99c-1.95-2.61-3.79-5.32-5.45-8.07l-4.27,2.57Z"/><path d="m76.75,189.93l-4.93.75c.51,3.38,1.19,6.75,2.02,10.03l4.83-1.22c-.78-3.12-1.43-6.34-1.92-9.56Z"/><path d="m84.98,132.85l-4.52-2.11c-1.45,3.09-2.75,6.28-3.88,9.47l4.71,1.67c1.07-3.04,2.32-6.08,3.7-9.02Z"/><path d="m76.83,210.5c1.16,3.21,2.48,6.38,3.95,9.45l4.5-2.15c-1.39-2.91-2.66-5.93-3.76-8.99l-4.69,1.7Z"/><path d="m141.1,81.55l-1.7-4.69c-3.2,1.15-6.37,2.49-9.44,3.96l2.15,4.5c2.92-1.4,5.94-2.67,8.98-3.77Z"/><path d="m78.48,151.21l-4.84-1.19c-.81,3.32-1.47,6.7-1.95,10.05l4.94.71c.46-3.19,1.08-6.41,1.85-9.57Z"/><path d="m75.63,174.91c0-1.48.03-2.96.1-4.43l-4.98-.22c-.07,1.54-.11,3.09-.11,4.65,0,1.78.04,3.57.13,5.25v.38s4.98-.51,4.98-.51c-.08-1.71-.13-3.42-.13-5.12Z"/><path d="m273.1,139.3c-1.15-3.18-2.49-6.36-3.97-9.44l-4.49,2.16c1.4,2.93,2.67,5.95,3.78,8.98l4.69-1.71Z"/><path d="m159.97,76.76l-.75-4.93c-3.36.51-6.74,1.19-10.03,2.03l1.23,4.83c3.14-.79,6.35-1.44,9.55-1.93Z"/><path d="m273.23,159.86l4.93-.74c-.51-3.35-1.19-6.72-2.04-10.04l-4.83,1.24c.8,3.15,1.46,6.36,1.94,9.54Z"/><path d="m251.97,104.52c-2.28-2.49-4.73-4.91-7.27-7.2l-3.33,3.71c2.43,2.18,4.76,4.49,6.93,6.85l3.67-3.37Z"/><path d="m264.25,120.87c-1.76-2.9-3.69-5.75-5.74-8.47l-3.99,2.99c1.95,2.6,3.79,5.31,5.46,8.07l4.27-2.59Z"/><path d="m236.76,90.86c-2.73-2.01-5.6-3.91-8.53-5.65l-2.55,4.29c2.79,1.66,5.52,3.47,8.13,5.38l2.95-4.02Z"/><path d="m179.43,75.72l.21-4.99c-3.27-.14-6.47-.14-10.05.05l-.05,2.5.42,2.47c3.19-.16,6.33-.17,9.46-.03Z"/><path d="m199.88,73.61c-3.3-.81-6.69-1.46-10.05-1.94l-.7,4.94c3.2.45,6.42,1.08,9.57,1.84l1.18-4.84Z"/><path d="m219.17,80.42c-3.13-1.46-6.31-2.76-9.48-3.87l-1.66,4.71c3.01,1.06,6.05,2.3,9.03,3.69l2.1-4.52Z"/><path d="m149.92,276.34c3.33.82,6.71,1.48,10.05,1.96l.71-4.94c-3.18-.45-6.39-1.08-9.57-1.86l-1.19,4.84Z"/><path d="m208.71,268.5l1.69,4.7c3.19-1.14,6.37-2.47,9.45-3.94l-2.14-4.5c-2.93,1.4-5.96,2.66-8.99,3.75Z"/><path d="m254.93,234.04l4.01,2.96c2.02-2.73,3.93-5.59,5.68-8.52l-4.28-2.56c-1.67,2.79-3.49,5.51-5.41,8.12Z"/><path d="m226.28,260.14l2.57,4.27c2.91-1.75,5.77-3.67,8.5-5.71l-2.98-3.99c-2.6,1.93-5.32,3.77-8.09,5.44Z"/><path d="m170.38,274.27l-.23,4.98c1.58.08,3.17.11,4.76.11,1.78,0,3.57-.04,5.34-.14v-2.49s-.22-2.48-.22-2.48c-3.24.16-6.46.17-9.65.02Z"/><path d="m189.83,273.27l.73,4.93c3.35-.49,6.73-1.17,10.04-2.01l-1.22-4.83c-3.15.79-6.37,1.44-9.55,1.91Z"/><path d="m279.22,169.5v-.25s-4.97.71-4.97.71c.08,1.71.13,3.41.13,5.11,0,1.55-.04,3.1-.11,4.64l4.98.23c.08-1.62.12-3.24.12-4.87,0-1.78-.04-3.57-.15-5.57Z"/><path d="m264.94,217.32l4.51,2.13c1.44-3.05,2.76-6.24,3.9-9.47l-4.7-1.67c-1.1,3.07-2.34,6.1-3.72,9Z"/><path d="m271.46,198.99l4.84,1.2c.82-3.29,1.48-6.67,1.97-10.05l-4.94-.72c-.46,3.21-1.1,6.43-1.88,9.57Z"/><path d="m241.89,248.5l3.36,3.68c2.53-2.3,4.95-4.75,7.22-7.25l-3.7-3.34c-2.15,2.39-4.47,4.72-6.87,6.91Z"/><path d="m97.89,245.32c2.28,2.49,4.72,4.92,7.26,7.21l3.34-3.7c-2.42-2.19-4.75-4.5-6.92-6.87l-3.68,3.36Z"/><path d="m130.65,269.49c3.08,1.45,6.27,2.76,9.46,3.89l1.67-4.7c-3.04-1.08-6.07-2.33-9.01-3.71l-2.11,4.52Z"/><path d="m113.08,259.01c2.73,2.02,5.6,3.92,8.53,5.67l2.55-4.29c-2.79-1.66-5.51-3.48-8.12-5.4l-2.96,4.01Z"/><path d="m218.83,173.85c0,24.16-19.66,43.83-43.83,43.83s-43.83-19.66-43.83-43.83h-4.99c0,26.92,21.9,48.82,48.82,48.82s48.82-21.9,48.82-48.82h-4.99Z"/><path d="m237.22,175c0-16.97-6.71-32.83-18.89-44.65l-3.48,3.58c11.21,10.88,17.38,25.46,17.38,41.07s-6.32,30.55-17.79,41.46l3.44,3.61c12.47-11.86,19.34-27.87,19.34-45.08Z"/><path d="m112.79,175c0,34.3,27.91,62.21,62.21,62.21v-4.99c-31.55,0-57.22-25.67-57.22-57.22s25.67-57.22,57.22-57.22v-4.99c-34.3,0-62.21,27.91-62.21,62.21Z"/><path d="m118.98,221.18c-10.69-12.95-16.58-29.35-16.58-46.18,0-18.53,6.98-36.17,19.65-49.67l-3.63-3.41c-13.54,14.43-21,33.28-21,53.08,0,17.99,6.29,35.52,17.72,49.36l3.85-3.18Z"/><path d="m207.59,245.43l-2.09-4.52c-17.26,8.01-37.47,8.84-55.37,2.32l-1.71,4.69c8.51,3.1,17.45,4.67,26.58,4.67,11.38,0,22.35-2.41,32.59-7.16Z"/><path d="m247.71,202.16c3.24-8.68,4.88-17.81,4.88-27.16,0-12.42-2.85-24.28-8.46-35.27l-4.44,2.27c5.25,10.27,7.91,21.38,7.91,33,0,8.74-1.53,17.29-4.57,25.41l4.68,1.74Z"/><path d="m138.46,106.54l2.35,4.39c17.65-9.43,39.34-11.07,58.2-4.47l1.65-4.71c-20.15-7.06-43.33-5.31-62.2,4.78Z"/><path d="m265.27,195.33c1.49-6.65,2.24-13.49,2.24-20.33,0-2.45-.1-4.87-.28-7.27l-4.97.38c.18,2.27.26,4.56.26,6.89,0,6.48-.72,12.96-2.12,19.24l4.87,1.09Z"/><path d="m154.35,84.81c-6.65,1.52-13.15,3.78-19.32,6.74l2.15,4.5c5.84-2.8,11.98-4.94,18.27-6.38l-1.11-4.86Z"/><path d="m264.78,152.57c-1.66-6.64-4.06-13.09-7.13-19.19l-4.45,2.25c2.91,5.76,5.17,11.86,6.74,18.14l4.84-1.21Z"/><path d="m102.41,223.92l-4.13,2.8c3.82,5.65,8.28,10.9,13.25,15.58l3.42-3.62c-4.7-4.44-8.92-9.4-12.54-14.76Z"/><path d="m192.09,265.93c6.7-1.24,13.28-3.25,19.57-5.97l-1.98-4.58c-5.94,2.57-12.17,4.47-18.51,5.65l.92,4.9Z"/><path d="m84,158.23c-1,5.49-1.52,11.13-1.52,16.77,0,1.21.02,2.43.07,3.63l4.99-.19c-.04-1.14-.07-2.29-.07-3.44,0-5.33.48-10.67,1.44-15.87l-4.91-.9Z"/><path d="m123.54,251.89c5.68,3.81,11.78,6.99,18.15,9.45l1.79-4.66c-6.02-2.32-11.79-5.33-17.17-8.93l-2.78,4.14Z"/><path d="m157.44,260.76l-.99,4.89c6.06,1.23,12.31,1.86,18.56,1.86h1.81s-.08-5-.08-5h-1.73c-5.92.01-11.82-.58-17.56-1.75Z"/><path d="m90.78,213.32l4.54-2.07c-2.68-5.88-4.7-12.07-6.02-18.4l-4.88,1.01c1.39,6.69,3.53,13.24,6.36,19.45Z"/><path d="m245.59,123.25l4.02-2.95c-4.04-5.51-8.7-10.57-13.85-15.06l-3.27,3.76c4.87,4.24,9.28,9.04,13.1,14.25Z"/><path d="m106.46,112.87l3.69,3.35c4.35-4.79,9.23-9.11,14.5-12.82l-2.87-4.08c-5.57,3.93-10.73,8.49-15.32,13.55Z"/><path d="m256.04,208.11c-2.44,5.96-5.56,11.68-9.27,17l4.09,2.85c3.92-5.62,7.22-11.66,9.8-17.96l-4.62-1.89Z"/><path d="m97.11,125.06c-3.7,5.76-6.76,11.93-9.09,18.34l4.69,1.71c2.2-6.07,5.1-11.9,8.6-17.35l-4.2-2.7Z"/><path d="m222.5,248.53l2.71,4.19c5.73-3.71,11.06-8.06,15.84-12.94l-3.57-3.49c-4.53,4.61-9.57,8.74-14.99,12.24Z"/><path d="m223.39,96.14c-5.84-3.59-12.07-6.52-18.52-8.72l-1.61,4.73c6.1,2.08,11.99,4.85,17.51,8.24l2.61-4.25Z"/><path d="m189.17,88.62l.8-4.92c-6.69-1.1-13.66-1.45-20.43-1.05l.29,4.98c6.41-.37,13-.04,19.34.99Z"/></svg>