<?xml version="1.0" encoding="UTF-8"?><svg id="Layer_1" xmlns="http://www.w3.org/2000/svg" viewBox="0 0 350 350"><path d="M326.48,156.28l-16.09-9.28-50.49,29.15-13.86-8v-55.46s0-2.29,0-2.29l-2.5-1.44-34.12-19.7-50.88,29.38-13.5-7.79V54.92s0-2.29,0-2.29l-2.49-1.44-16.09-9.29L19,103.95l-1.25,.72v79.18s16.09,9.29,16.09,9.29l2.5,1.44,1.67-.96,48.59-28.06,14.12,8.15v57.13s34.12,19.7,34.12,19.7l2.49,1.44,1.67-.96,46.65-26.93,16.03,9.25v55.62s16.09,9.28,16.09,9.28l2.5,1.44,1.67-.96,105.8-61.08,1.25-.72v-76.89s0-2.29,0-2.29l-2.49-1.44Zm-2.49,7.2v2.99s0,67.54,0,67.54l-94.03,54.29-5.68,3.28-1.52,.88v-2.99s0-43.98,0-43.98v-2.88s0-2.88,0-2.88v-15.54s0-2.25,0-2.25l8.71-5.03,1.15-.66,1.35-.78,1.15-.66,1.34-.77,1.15-.66,9.28-5.36,2.49-1.44,2.49-1.44,24.13-13.93,2.49-1.44,2.49-1.44,35.81-20.67,5.68-3.28,1.52-.87Zm-135.84,56.26l-2.5-1.44-14.75-8.52-2.18-1.26-2.18-1.26-7.4-4.27c-.32-.18-.6-.46-.84-.79-.61-.83-.95-2.1-.95-3.69,0-5.64,4.16-12.81,9.09-15.65,1.8-1.04,3.45-1.33,4.57-.87l10.43,6.02,2.18,1.26,2.18,1.26,23.97,13.84,.62,.36-7.46,4.31-1.25,.72v2.17s0,2.88,0,2.88v2.19s0,10.56,0,10.56l-11.04-6.37-2.49-1.44Zm-41.08,20.84l-5.7,3.29-1.53,.89v-2.98s0-45.51,0-45.51v-2.87s0-2.88,0-2.88v-15.92s10.33-5.97,10.33-5.97l2.5-1.44,2.49-1.44,8.41-4.86,2.49-1.44,2.49-1.44,24.13-13.93,2.49-1.44,2.49-1.44,36.16-20.88,5.71-3.3,1.53-.89v2.98s0,46.13,0,46.13l-23.2-13.39-.61-.37c-.29-.18-.63-.25-.94-.38-.84-.36-1.73-.56-2.68-.61-1.12-.06-2.27,.04-3.47,.4-.94,.29-1.9,.69-2.86,1.24-5.68,3.28-10.28,10.39-11.35,17.11-.15,.97-.24,1.93-.24,2.87,0,.48,.09,.9,.13,1.35,.11,1.15,.33,2.21,.7,3.17,.68,1.77,1.74,3.22,3.21,4.13l25.44,14.69-9.29,5.36-1.15,.66-25.88-14.94-2.18-1.26-2.18-1.26-9.79-5.65-.84-.51c-1.34-.81-2.9-1.15-4.56-1.06-1.13,.06-2.3,.39-3.49,.86-.63,.25-1.26,.49-1.9,.86-6.49,3.75-11.58,12.53-11.58,19.97,0,.61,.1,1.15,.17,1.72,.4,3.25,1.83,5.83,4.19,7.12l6.73,3.89,2.18,1.26,2.18,1.26,12.85,7.42-33.6,19.4Zm-57.97-79.36l-2.5-1.44-15.56-8.98-2.18-1.26-2.18-1.26-4.19-2.42c-1.14-.62-1.8-2.26-1.8-4.47,0-5.65,4.16-12.81,9.09-15.66,1.82-1.05,3.46-1.35,4.6-.85l7.17,4.14,2.18,1.26,2.18,1.26,24.81,14.32,.33,.19-9.09,5.25-1.25,.72v2.51s0,2.88,0,2.88v10.54s-9.13-5.27-9.13-5.27l-2.49-1.44Zm-43.06,21.98l-5.68,3.28-1.52,.88v-2.99s0-67.54,0-67.54l94.04-54.29,5.68-3.28,1.52-.88v2.99s0,46.58,0,46.58l-20.02-11.56-.89-.54c-1.44-.86-3.13-1.18-4.93-1.01-1.34,.12-2.73,.58-4.13,1.27-.3,.15-.59,.23-.89,.4-5.01,2.9-9.16,8.79-10.81,14.75-.47,1.71-.75,3.42-.77,5.08,0,.05-.01,.1-.01,.15,0,4.09,1.59,7.31,4.37,8.85l22.13,12.77-8.41,4.86-26.72-15.43-2.18-1.26-2.18-1.26-6.77-3.91-.61-.37c-2.74-1.66-6.36-1.42-9.95,.66-6.49,3.75-11.59,12.53-11.59,19.98,0,4.09,1.6,7.31,4.37,8.84l3.53,2.04,2.18,1.26,2.18,1.26,13.64,7.88-35.58,20.54ZM22.74,110.43l11.1,6.41v70.54s-11.1-6.41-11.1-6.41V110.43ZM126.47,47.66l11.1,6.41L36.33,112.52l-11.1-6.41L126.47,47.66Zm37.06,73.85l45.9-26.5,29.13,16.82-45.9,26.5-2.49,1.44-2.49,1.44-24.13,13.93-2.49,1.44-2.49,1.44-8.41,4.86-2.49,1.44-2.49,1.44-7.84,4.53-29.13-16.82,7.84-4.53,2.49-1.44,2.49-1.44,8.41-4.86,2.49-1.44,2.5-1.44,24.12-13.93,2.49-1.44,2.49-1.44Zm-18.48,4.91l-2.49,1.44-13.12,7.58-.33-.19-24.69-14.26c-1.14-.63-1.8-2.27-1.8-4.48,0-5.64,4.17-12.81,9.09-15.66,1.8-1.03,3.43-1.34,4.57-.86l23.79,13.73,2.5,1.44,2.49,1.44,8.51,4.91-8.51,4.91Zm-39.35,50.16v-2.87s0-2.89,0-2.89v-13.04s29.13,16.82,29.13,16.82v13.05s0,2.88,0,2.88v2.87s0,51.36,0,51.36l-29.13-16.82v-51.36Zm204.69-23.82l11.1,6.41-45.5,26.27-2.49,1.44-2.49,1.44-24.13,13.93-2.49,1.44-2.49,1.44-9.28,5.36-1.15,.66-1.34,.77-1.15,.66-1.35,.78-1.15,.66-6.22,3.59-11.1-6.41,6.22-3.59,1.15-.66,1.35-.78,1.15-.66,1.34-.77,1.15-.66,9.29-5.36,2.49-1.44,2.49-1.44,24.13-13.93,2.49-1.44,2.49-1.44,45.5-26.27Zm-64.35,31.39l-2.49,1.44-12.77,7.37-.62-.36-27.32-15.77-.36-.22c-1.14-.62-1.79-2.26-1.79-4.47,0-.31,.06-.64,.08-.96,.16-2.13,.85-4.39,1.91-6.55,1.34-2.71,3.22-5.22,5.38-6.96,.56-.45,1.13-.85,1.71-1.19,1.17-.67,2.24-1,3.18-1.05,.52-.03,1.01,.01,1.42,.19l26.67,15.4,2.49,1.44,2.49,1.44,8.87,5.12-8.87,5.12Zm-39.38,52.06v-2.88s0-2.88,0-2.88v-11.74s0-3.18,0-3.18l11.1,6.41v.56s0,14.36,0,14.36v2.88s0,2.88,0,2.88v49.86s-11.1-6.41-11.1-6.41v-49.86Z"/><path d="M263.54,231.21c-.16-.69-.38-1.32-.64-1.92-.34-.77-.76-1.46-1.27-2.06-.57-.68-1.22-1.28-2-1.73-.77-.45-1.62-.71-2.5-.86-.78-.14-1.59-.16-2.42-.07-.65,.07-1.31,.2-1.98,.41-.45,.14-.9,.35-1.35,.55-.5,.22-1,.4-1.51,.68-.02,.01-.05,.02-.07,.03-.34,.2-.66,.46-.99,.68-1.77,1.19-3.4,2.72-4.84,4.5-3.45,4.27-5.75,9.81-5.75,14.79,0,.92,.1,1.78,.25,2.59,.27,1.46,.82,2.7,1.55,3.77,.66,.97,1.44,1.82,2.45,2.41,1.03,.59,2.18,.88,3.38,.96,.19,.01,.36,.07,.56,.07,.79,0,1.62-.16,2.45-.38,.31-.08,.62-.18,.94-.29,.82-.29,1.65-.61,2.5-1.1,.58-.33,1.13-.75,1.68-1.16,3.38-2.5,6.25-6.27,8.01-10.38,.65-1.53,1.12-3.09,1.44-4.65,.11-.56,.21-1.11,.27-1.66,.03-.28,.05-.56,.07-.84,.03-.42,.1-.85,.1-1.27,0,0,0,0,0-.01,0-.58-.1-1.09-.16-1.63-.05-.49-.08-.99-.19-1.43Zm-4.79,1.45c.09,.5,.14,1.03,.14,1.62,0,.7-.07,1.43-.19,2.17-.86,5.19-4.59,10.99-8.9,13.49-1.94,1.12-3.7,1.38-4.84,.73-1.12-.64-1.75-2.27-1.75-4.45,0-4.34,2.47-9.57,5.86-13.05,1.01-1.04,2.1-1.94,3.23-2.6,.55-.32,1.07-.54,1.58-.72,.6-.21,1.17-.33,1.69-.35,.04,0,.08-.02,.12-.02,.55,0,1.04,.12,1.45,.35,.42,.24,.75,.67,1.03,1.17,.26,.47,.47,1.01,.58,1.66Z"/><path d="M305.76,205.5c-.69-2.01-1.84-3.62-3.53-4.59-1.23-.71-2.62-.99-4.08-.97-.55,0-1.11,.09-1.68,.2-.69,.13-1.38,.32-2.09,.6-.34,.14-.69,.3-1.04,.47-.32,.15-.63,.25-.94,.43-2.33,1.35-4.47,3.35-6.26,5.7l-.37,.49c-2.17,2.97-3.74,6.44-4.47,9.87-.28,1.32-.48,2.64-.48,3.92,0,.08,.02,.15,.02,.24,0,.16,.04,.3,.04,.45,.04,.95,.16,1.84,.37,2.67,.43,1.7,1.21,3.13,2.31,4.21,.46,.45,.93,.88,1.5,1.21,.61,.36,1.27,.61,1.95,.78,.64,.16,1.3,.25,1.99,.25,.87,0,1.78-.16,2.7-.42,.94-.27,1.91-.68,2.88-1.22,.1-.06,.21-.08,.31-.14,6.49-3.75,11.58-12.52,11.58-19.97,0-.34-.07-.62-.09-.95-.07-1.18-.29-2.26-.63-3.24Zm-13.36,19.84c-1.39,.8-2.67,1.15-3.71,1.05-.42-.04-.81-.13-1.13-.32-.32-.19-.59-.47-.83-.81-.59-.83-.92-2.08-.92-3.64,0-3.51,1.61-7.61,4.02-10.89,.04-.05,.08-.1,.12-.15,1.44-1.93,3.14-3.57,4.95-4.61,1.24-.72,2.41-1.08,3.39-1.08,.55,0,1.04,.12,1.45,.35,1.12,.64,1.75,2.27,1.75,4.46,0,5.64-4.16,12.81-9.09,15.65Z"/></svg>