<?xml version="1.0" encoding="UTF-8"?><svg id="Layer_1" xmlns="http://www.w3.org/2000/svg" viewBox="0 0 350 350"><path d="M262.56,269.03l37.87,3.11-5.39-21.85-4.35,2.51,2.68,11.56-29.11-16.81,31.09-17.95,1.25-.72v-61.57s0-2.88,0-2.88l-1.83-1.05-119.24-68.84V60.52s14.23,19.41,14.23,19.41h6.12s-22.85-30.66-22.85-30.66l-22.87,30.68,5.76,.17,14.61-19.65v34.08S51.3,163.39,51.3,163.39l-1.83,1.05v2.88s0,61.57,0,61.57l32.33,18.67-29.11,16.8,2.68-11.56-4.35-2.51-5.39,21.85,37.87-3.11-6.04-3.62-19.3,1.61,28.67-16.55,86.19,49.76,86.19-49.76,28.67,16.55-19.3-1.61-6.04,3.62Zm-8.32-21.45l-78.71,45.44v-55.81s116.07-67.01,116.07-67.01v55.8s-32.34,18.67-32.34,18.67l-24-13.86-4.99,2.93,23.96,13.83Zm-162.41,0l23.96-13.83-4.99-2.93-24,13.86-32.34-18.67v-55.81s116.08,67.02,116.08,67.02v55.81s-78.71-45.44-78.71-45.44Zm-34.87-81.7l4.32-2.49,109.26-63.08v63.08s0,2.47,0,2.47h4.99v-2.47s0-63.08,0-63.08l109.26,63.09,4.32,2.49h0s-4.32,2.5-4.32,2.5l-111.75,64.52L61.28,168.38l-4.32-2.49h0Z"/></svg>