<?xml version="1.0" encoding="UTF-8"?><svg id="Layer_1" xmlns="http://www.w3.org/2000/svg" viewBox="0 0 350 350"><path d="m326.75419,142.95017c-.09652-.08343-.20979-.15955-.30784-.24176-.84251-.70215-1.70878-1.39698-2.65999-2.06259-1.09585-.77279-2.25746-1.51939-3.49093-2.23067l-100.78247-58.18852c-17.50673-10.11381-44.14318-11.16124-59.38697-2.35794L25.50657,155.59305c-7.15421,4.1264-11.09304,9.96279-11.09304,16.42276,0,.13397.03288.26795.03623.40192l-.01675,17.97443c-.22654,7.78023,5.29806,15.50687,15.15854,21.19711l100.78004,58.18852c9.54138,5.50998,21.7939,8.32587,33.43988,8.32587,9.7192,0,19.01211-1.96333,25.94709-5.96793l134.62184-77.72435c6.66703-3.8487,10.5815-9.27587,11.02727-15.45328l.10474-18.29353c.60745-6.21761-2.54155-12.42608-8.75824-17.71439Zm-93.77351-10.56019l13.28138-7.66757,31.53806,18.20888-13.28138,7.66757-31.53806-18.20888Zm29.09121,54.7868c-3.15326,1.82022-8.2467,1.83118-11.37743.02375-3.13042-1.80743-3.11215-4.74816.04111-6.56898s8.24731-1.83118,11.37804-.02375c3.13042,1.80743,3.11154,4.74816-.04171,6.56898Zm5.24082-16.11584c3.15326-1.82083,8.24731-1.83179,11.37804-.02436,3.13042,1.80743,3.11154,4.74877-.04171,6.56959-3.15326,1.82022-8.2467,1.83118-11.37743.02314-3.13073-1.80743-3.11215-4.74755.04111-6.56837Zm19.12934-21.31038c8.09903-4.6763,21.1831-4.7037,29.22397-.0609,8.04057,4.64159,7.99307,12.19528-.10627,16.87158-8.09903,4.6763-21.1828,4.7037-29.22367.06151-8.04087-4.6428-7.99337-12.1965.10596-16.87219Zm-29.66943,5.32059l-13.28138,7.66818-31.53837-18.20888,13.28168-7.66818,31.53806,18.20888Zm-34.30919,19.80804l-31.53837-18.20827,13.28168-7.66818,31.53806,18.20888-13.28138,7.66757Zm6.4548,31.4388c-3.15326,1.82083-8.24701,1.83179-11.37743.02436-3.13073-1.80804-3.11215-4.74877.04111-6.56959s8.24731-1.83118,11.37773-.02375c3.13073,1.80804,3.11185,4.74816-.04141,6.56898Zm-16.57714,9.57061c-3.15326,1.82083-8.2467,1.83179-11.37743.02436s-3.11215-4.74877.04111-6.56959c3.15326-1.82022,8.24731-1.83057,11.37773-.02314,3.13073,1.80743,3.11185,4.74755-.04141,6.56837Zm-45.87297-87.62867l22.57917,13.03566-57.03969,32.932-22.57917-13.03627,57.03969-32.93139Zm-57.42547,18.7941c-4.34715,2.50957-11.36982,2.5248-15.6853.03288s-4.29051-6.54645.05663-9.05664c4.34715-2.50957,11.37043-2.52358,15.68591-.03228,4.31548,2.49131,4.29021,6.54584-.05724,9.05603Zm18.17539-28.54009c4.34715-2.51018,11.37043-2.5248,15.68591-.03288s4.28991,6.54645-.05724,9.05603-11.36982,2.52419-15.6853.03349c-4.31548-2.49191-4.29051-6.54645.05663-9.05664Zm45.74386-34.28148c8.09903-4.67569,21.1828-4.7037,29.22367-.0609,8.04087,4.64159,7.99337,12.19589-.10596,16.87219-8.09903,4.67569-21.18371,4.70248-29.22427.0609-8.04026-4.6428-7.99307-12.1965.10657-16.87219Zm-27.95883,97.42582l13.18516,7.61215-31.76856,18.34164-13.18486-7.61276,31.76826-18.34103Zm21.36488,12.33534l13.18547,7.61215-31.76826,18.34164-13.18547-7.61276,31.76826-18.34103Zm-18.85135,35.96529c8.09933-4.6763,21.1834-4.7037,29.22427-.06151,8.04026,4.6428,7.99276,12.1965-.10627,16.87219-8.09933,4.6763-21.1828,4.7037-29.22397.06151-8.04087-4.6422-7.99307-12.1965.10596-16.87219Zm36.91133-11.04493c3.15326-1.82022,8.24701-1.83057,11.37773-.02314s3.11185,4.74816-.04141,6.56837c-3.15326,1.82083-8.24701,1.83179-11.37743.02436-3.13073-1.80743-3.11215-4.74877.04111-6.56959Zm49.73081-28.71182c3.15326-1.82083,8.24731-1.83118,11.37804-.02375,3.13042,1.80743,3.11154,4.74816-.04171,6.56898s-8.2467,1.83118-11.37743.02375-3.11215-4.74816.04111-6.56898Zm-171.00428-8.95007c-8.09933,4.6763-21.18371,4.70309-29.22427.0609-8.04057-4.6422-7.99337-12.19589.10627-16.87158,8.09933-4.67691,21.1831-4.7037,29.22397-.06212,8.04057,4.6428,7.99307,12.1965-.10596,16.87279Zm258.73161,8.84289l-134.62184,77.72435c-13.86752,8.00433-38.26782,6.94716-54.39827-2.35794l-100.78004-58.18852c-8.22113-4.74511-12.83714-10.84458-12.66419-16.80763l.00548-6.05806c2.52998,3.0546,5.92073,5.90094,10.16192,8.34779l100.78247,58.18852c9.54138,5.50998,21.7939,8.32587,33.43988,8.32587,9.7192,0,19.01211-1.96333,25.94709-5.96793l134.61941-77.72435c2.42066-1.39637,4.44002-3.00162,6.09642-4.74755l-.04811,7.93369c-.32154,4.36998-3.27383,8.28689-8.54023,11.33176Z"/></svg>