<?xml version="1.0" encoding="UTF-8"?>
<svg id="Layer_1" xmlns="http://www.w3.org/2000/svg" viewBox="0 0 350 350"><g transform="translate(58, 75)"><path d="M239.80967,85.83405c.00244-.18026.02223-.35868.02223-.53924-.00487-19.04375-12.71045-36.86469-35.78316-50.18411-6.83509-3.94613-14.34889-7.24311-22.24938-10.03372v-2.3893c0-.04354-.02558-.0813-.02771-.12453.00335-.12119.03258-.24146.03258-.36264,0-5.68536-3.44921-10.80559-9.70457-14.42044l-3.56126-2.04614c-13.18788-7.62919-36.23136-6.71817-51.36308,2.02178l-13.6029,7.85543c-24.65938,1.93135-48.42631,8.25978-67.29286,19.1488C13.5966,47.85525,1.10051,65.45209,1.10051,84.31071c0,.46678.04293.92899.05816,1.39424-.03593.16869-.102.3261-.102.50575l.00974,30.97472c-1.80256,20.17887,11.18559,39.84134,35.62239,53.94999,23.34065,13.48019,53.9646,20.22272,84.51548,20.22272,30.25857,0,60.44893-6.62074,83.40472-19.87682,21.90348-12.63737,34.35573-29.58626,35.14008-47.78233.08769-.2582.13641-.53589.13641-.82333v-36.66495c0-.13367-.05572-.24876-.07582-.37665ZM234.89679,122.13514c-.0682.21436-.10718.44333-.11205.67718-.41897,16.68581-12.01866,32.43625-32.67009,44.3526-44.75209,25.83987-117.84326,25.6791-162.9315-.3459-22.68784-13.10019-34.76983-31.02831-33.13778-49.4095v-12.97474c5.68262,11.28119,16.14748,21.58712,30.83344,30.06492,23.32117,13.46557,53.91589,20.20811,84.43753,20.20811,30.23421,0,60.40021-6.61586,83.33651-19.86221,14.37233-8.29754,24.63837-18.40555,30.24395-29.49309v16.78264ZM93.07163,21.67496l-21.14044,12.20805c-8.39893,4.84741-13.21224,11.44866-13.21224,18.11812-.00061.5904.05877,1.17105.13215,1.74836l.01736,29.96687.00122,2.49648.00152,2.49222.00365,6.27484c-.91589,6.40151,2.56255,12.38891,9.5438,16.41787l3.56126,2.05589c6.00689,3.4687,14.05019,5.16895,22.46373,5.16895,10.06508,0,20.65631-2.43589,28.89934-7.19561l39.35873-22.72194,4.3173-2.49252,1.57297-.90798c.88423-.51062,1.71608-1.04378,2.51779-1.5882,6.22947-4.23144,9.94207-9.43997,10.56778-14.91736.07795-.24359.12179-.50666.12179-.77461V30.31566c6.99586,2.57564,13.64827,5.58549,19.75503,9.11143,20.80307,12.01166,32.44356,27.6881,33.1527,44.28927.02253.52828.13611,1.04834.13611,1.57845,0,.30844-.07064.61019-.07825.91772-.02071.83581-.13641,1.66188-.21284,2.49252-1.44996,15.72608-12.73846,30.47445-32.39362,41.82415-44.71798,25.81551-117.74583,25.65962-162.78535-.3459-19.61801-11.32991-31.06546-25.92391-32.90638-41.47826-.09804-.82851-.17143-1.65853-.21405-2.49222-.03258-.63607-.16351-1.26331-.16351-1.90212,0-.19974.0475-.39492.05085-.59436.26917-16.77594,11.80613-32.61316,32.63386-44.64004,15.47822-8.93391,34.37278-14.68413,54.29771-17.40136ZM114.51412,15.04936l5.15555-2.97726c13.75301-7.93611,34.56521-8.85201,46.37439-2.01691l3.56126,2.04614c4.01343,2.31805,6.35583,5.32332,6.95202,8.56214.09439.51184.2582,1.01455.2582,1.53704-.0003.32215-.06272.64673-.09744.97009-.00579.0545-.00913.1084-.01614.1626-.09987.80323-.2713,1.60708-.57548,2.4094-.01005.02588-.01279.05176-.02284.07764-.28256.72894-.67017,1.4527-1.11411,2.1719-1.77698,2.878-4.79595,5.64273-8.8919,8.0101l-45.24901,26.12243c-13.76275,7.93611-34.56034,8.83739-46.37439,2.02666l-3.56126-2.05589c-3.76862-2.17677-6.08027-4.95764-6.84971-7.96595-.17965-.70184-.35655-1.4049-.35564-2.12835,0-.15651.03867-.31453.04689-.47134.05237-1.01028.25059-2.02544.63029-3.03694,1.38389-3.68641,4.86933-7.30461,10.04072-10.29344l30.82552-17.80084,4.87603-2.81588,4.38703-2.53332ZM161.37203,83.71636l-4.32431,2.49617-4.3173,2.49252-31.88178,18.40555c-13.74327,7.93124-34.5506,8.84226-46.37439,2.02666l-3.56126-2.05589c-5.19818-3.00588-7.72176-7.04945-7.07381-11.75071v-32.32085c1.30289,1.23621,2.81619,2.38443,4.57946,3.40202l3.56126,2.05589c6.00689,3.4687,14.05019,5.16895,22.46373,5.16895,10.06508,0,20.65631-2.43589,28.89934-7.19561l45.24901-26.12243c3.34325-1.93044,6.0891-4.14679,8.21868-6.52726v33.702c-.02923.12179-.04872.24846-.05846.37025-.3459,4.62818-4.23357,9.41226-10.65456,13.12455l-4.72562,2.72819Z"/><path d="M185.88221,46.9217c1.92648,1.11198,5.03802,1.11868,6.95049.01462,1.91217-1.10407,1.9009-2.90083-.02527-4.01282-1.92648-1.11229-5.03802-1.11868-6.95049-.01462-1.91217,1.10407-1.9009,2.90053.02527,4.01282Z"/><path d="M48.56313,122.17564c-1.91247,1.10407-1.9009,2.90053.02527,4.01282,1.92618,1.11198,5.03772,1.11868,6.95019.01462,1.91217-1.10407,1.9009-2.90083-.02527-4.01282s-5.03802-1.11868-6.95019-.01462Z"/><path d="M48.08752,46.63244c1.92618,1.11198,5.03802,1.11838,6.95019.01431,1.91247-1.10407,1.90121-2.90053-.02527-4.01251-1.92618-1.11198-5.03802-1.11838-6.95019-.01431s-1.9009,2.90053.02527,4.01251Z"/><path d="M186.35873,122.46003c-1.91247,1.10407-1.90121,2.90053.02527,4.01251,1.92618,1.11198,5.03802,1.11868,6.95019.01462s1.9009-2.90083-.02527-4.01282-5.03802-1.11838-6.95019-.01431Z"/><path d="M121.0703,143.64705c2.71419.00548,4.90648-1.26027,4.89674-2.82715-.01005-1.56719-2.21818-2.84207-4.93236-2.84785-2.71449-.00579-4.90679,1.25996-4.89674,2.82715.00974,1.56719,2.21818,2.84207,4.93236,2.84785Z"/><path d="M18.56246,83.71636c-.08191.20675-.21588.40253-.21436.62389.00457.72437.51519,1.36958,1.29193,1.87259.90371.58522,2.18073.97192,3.64043.97496,1.47127.00304,2.7492-.38548,3.64622-.97496.75786-.49814,1.25509-1.13451,1.25052-1.85219-.00152-.22836-.13976-.43146-.22928-.64429-.52524-1.24809-2.38443-2.19869-4.70309-2.20326-2.33053-.00487-4.18485.94756-4.68238,2.20326Z"/><path d="M218.14673,87.59276c1.77698.00365,3.25982-.56634,4.11786-1.38023.45277-.42932.78192-.90554.77857-1.44692-.00244-.37178-.14585-.72315-.3733-1.04926-.73046-1.04743-2.48917-1.79403-4.55906-1.79829-2.08177-.00457-3.83317.74447-4.54293,1.79829-.21558.32032-.35594.66378-.35351,1.02886.00335.54868.34742,1.03221.81724,1.46732.87205.8078,2.35124,1.37658,4.11512,1.38023Z"/><path d="M125.53071,30.1622c.43755.80993,1.06753,1.54131,1.8802,2.1859.3532.28013.69575.56665,1.11564.80902l1.05717.6041c.37299.21588.85652.30753,1.26818.48383,1.86254.79806,3.99942,1.29437,6.29768,1.29437,3.2787,0,6.70356-.79897,9.43175-2.37742l4.72227-2.72454,2.97026-1.71365c.92838-.53529,1.68959-1.15796,2.36433-1.81565.91528-.89245,1.59825-1.87046,1.99164-2.90753.02375-.06242.07155-.11997.09317-.183.22471-.65038.34955-1.3169.34955-1.99225,0-.16929-.05755-.32428-.07125-.49053-.07917-.94786-.34437-1.85066-.85378-2.66608-.63668-1.01942-1.58302-1.92009-2.83111-2.6408l-1.05717-.6041c-4.31426-2.4983-11.38929-2.28364-16.43126.36691-.17904.09409-.39766.13184-.57122.23232l-3.24856,1.87533-3.83104,2.21178-.60806.35107c-2.96843,1.71182-4.67386,4.14649-4.76429,6.69168-.00244.06973-.03441.13671-.03441.20675,0,.57578.08465,1.13299.24207,1.66858.11662.39644.3188.76487.51823,1.1339Z"/></g></svg>