<?xml version="1.0" encoding="UTF-8"?><svg id="Layer_1" xmlns="http://www.w3.org/2000/svg" viewBox="0 0 350 350"><path d="M249.1,104.91c-1.12-.65-2.24-1.23-3.35-1.74-.34-.16-.68-.27-1.02-.41-.77-.33-1.54-.66-2.3-.92-.34-.12-.67-.18-1.01-.29-.75-.23-1.51-.47-2.24-.63-.34-.07-.66-.1-1-.16-.73-.13-1.47-.28-2.18-.34-.32-.03-.62-.01-.93-.03-.72-.04-1.43-.08-2.13-.06-.32,.01-.63,.08-.94,.1-.67,.06-1.34,.11-1.98,.23-.34,.07-.67,.18-1,.27-.59,.15-1.19,.28-1.76,.48-.4,.14-.77,.35-1.16,.52-.45,.2-.91,.36-1.33,.6l-25-15.78-34.55-22.36c-.18-.38-.38-.74-.57-1.12-.19-.39-.39-.77-.59-1.15-.55-1.05-1.12-2.1-1.71-3.13-.17-.29-.35-.58-.52-.87-1.88-3.14-3.95-6.12-6.17-8.9-.44-.55-.87-1.11-1.32-1.64-.49-.58-1.01-1.14-1.52-1.71-.61-.67-1.22-1.34-1.84-1.98-.46-.47-.92-.92-1.38-1.37-.72-.7-1.45-1.37-2.19-2.02-.42-.37-.84-.74-1.26-1.1-.84-.7-1.7-1.36-2.56-1.99-.35-.26-.69-.53-1.04-.78-1.22-.86-2.45-1.66-3.71-2.38-5.78-3.31-11.4-4.87-16.45-4.63-1.01,.05-2,.17-2.96,.36-1.93,.38-3.75,1.05-5.45,2.01l-36.42,21.13c-.08,.05-.16,.1-.23,.15-.29,.17-.54,.39-.82,.58-.49,.34-1,.66-1.46,1.04-.3,.25-.57,.55-.85,.83-.41,.39-.83,.76-1.2,1.19-.3,.34-.55,.73-.82,1.09-.32,.42-.65,.82-.94,1.27-.28,.44-.52,.94-.77,1.41-.23,.43-.48,.83-.69,1.27-.26,.57-.47,1.19-.69,1.79-.15,.4-.32,.78-.46,1.2-.22,.71-.39,1.48-.56,2.24-.08,.36-.19,.69-.26,1.05-.17,.89-.28,1.82-.39,2.77-.03,.27-.09,.53-.11,.81-.11,1.19-.15,2.42-.15,3.69,0,.05,0,.09,0,.14h0s0,0,0,0c0,1.87,.18,3.8,.41,5.75,.06,.48,.11,.95,.18,1.43,.27,1.8,.63,3.63,1.09,5.47,.16,.63,.34,1.26,.52,1.89,.43,1.55,.92,3.1,1.48,4.66,.26,.74,.54,1.47,.83,2.2,0,.02,.01,.03,.02,.04l-.3,.08,20.02,75.3,3,12.16-2.72,1.57c-.16,.09-.31,.21-.45,.33-.19,.12-.35,.28-.53,.41-.52,.37-1.04,.74-1.52,1.16-.22,.19-.42,.4-.63,.61-.48,.46-.95,.93-1.39,1.45-.18,.21-.34,.45-.51,.67-.42,.55-.84,1.1-1.21,1.7-.15,.25-.29,.52-.43,.78-.35,.62-.69,1.24-.99,1.9-.14,.31-.25,.65-.38,.97-.26,.66-.53,1.31-.74,2.01-.13,.42-.22,.88-.34,1.32-.17,.64-.35,1.27-.48,1.94-.12,.64-.2,1.32-.28,1.99-.07,.52-.17,1.02-.21,1.55-.11,1.23-.17,2.51-.18,3.82,0,1.35,.06,2.73,.18,4.12,.06,.67,.16,1.36,.25,2.04,.09,.71,.16,1.42,.28,2.15,.13,.81,.31,1.63,.48,2.45,.13,.61,.24,1.21,.39,1.83,.2,.86,.44,1.72,.68,2.58,.16,.58,.32,1.16,.5,1.74,.12,.38,.2,.75,.33,1.13-.27,.21-.5,.44-.77,.65-.7,.57-1.38,1.14-2.03,1.72-.31,.28-.59,.57-.88,.86-2.45,2.37-4.45,4.87-5.99,7.49-.09,.16-.19,.31-.28,.46-.44,.79-.83,1.59-1.19,2.39-.15,.35-.31,.7-.44,1.05-.29,.71-.54,1.43-.76,2.16-.16,.54-.28,1.09-.41,1.63-.14,.59-.29,1.17-.38,1.76-.17,1.11-.28,2.24-.29,3.36-.01,.1-.02,.2-.02,.31v29.68s0,0,0,0c0,.1,0,.19,.02,.29,.24,10.65,7.39,20.57,20.17,27.95,12.94,7.47,29.92,11.21,46.86,11.21,16.78,0,33.53-3.67,46.26-11.02,1.6-.92,3.11-1.89,4.53-2.89,9.92-7,15.29-15.75,15.32-25.12,.02-.14,.04-.28,.04-.43h0s0-29.68,0-29.68c0-.23-.03-.45-.09-.66-.02-.32-.09-.63-.12-.94-.08-.86-.16-1.73-.32-2.58-.06-.3-.16-.6-.23-.9-1.3-5.61-4.56-10.9-9.58-15.62-.24-.23-.45-.46-.7-.68-.8-.72-1.67-1.41-2.55-2.09-.42-.33-.82-.67-1.26-.99-.84-.62-1.74-1.21-2.65-1.8-.37-.24-.69-.49-1.07-.73,0-.3-.05-.61-.06-.91-.03-1.12-.1-2.25-.21-3.39-.06-.64-.15-1.28-.23-1.93-.11-.84-.25-1.68-.4-2.53-.15-.83-.3-1.66-.49-2.49-.11-.48-.24-.96-.36-1.45-.92-3.72-2.18-7.46-3.78-11.16-.02-.04-.03-.08-.05-.12-.58-1.32-1.19-2.64-1.84-3.94-.02-.05-.05-.1-.08-.15-1.63-3.22-3.48-6.36-5.57-9.39l-4.84-18.53,5.76,4.8,24.16,20.98,.12-.14c.54,.57,1.1,1.12,1.66,1.67,.26,.25,.51,.52,.77,.77,1.42,1.35,2.87,2.58,4.34,3.73,.33,.26,.66,.51,.99,.75,1.53,1.14,3.08,2.21,4.64,3.11,1.24,.72,2.47,1.34,3.7,1.89,.4,.18,.8,.32,1.2,.48,.82,.34,1.63,.65,2.44,.91,.46,.15,.92,.27,1.37,.39,.74,.2,1.47,.37,2.19,.51,.46,.09,.92,.16,1.38,.22,.72,.09,1.42,.14,2.12,.17,.28,.01,.58,.07,.87,.07,.17,0,.34-.03,.51-.03,.33,0,.66-.04,.98-.06,.61-.04,1.21-.11,1.81-.21,.32-.05,.63-.11,.94-.18,.61-.13,1.2-.3,1.79-.49,.27-.09,.54-.16,.8-.26,.69-.26,1.36-.57,2.02-.92,.11-.06,.24-.1,.35-.16,.09-.04,.17-.08,.26-.13l36.49-21.07c6.7-3.96,10.39-12.01,10.41-22.67,.03-21-14.63-46.58-32.67-57.03Zm-41.86,90.51c-1.68-1.33-3.31-2.81-4.89-4.39-.04-.04-.07-.07-.11-.11-3.38-3.41-6.48-7.32-9.16-11.55-6.49-10.23-10.62-22.21-10.6-32.92,0-6.52,1.56-11.76,4.43-15.28,.54-.66,1.12-1.28,1.75-1.82,.51-.43,1.05-.81,1.62-1.15,.1-.06,.19-.14,.29-.2,.1-.06,.22-.07,.32-.13,1.98-1.07,4.2-1.63,6.63-1.63,3.86,0,8.2,1.33,12.75,3.97,1.07,.62,2.12,1.29,3.16,2.02,15.19,10.64,27.05,32.52,27.03,50.69-.01,8.88-2.87,15.43-8.05,18.43,0,0-.01,0-.02,.01,0,0-.01,.01-.02,.02-5.14,2.96-12.14,2.17-19.7-2.2-1.71-.99-3.37-2.16-5-3.42-.14-.11-.29-.21-.43-.32Zm-131.22,55.28c0-.26,.06-.52,.07-.78,.03-.73,.08-1.46,.19-2.18,.09-.58,.25-1.15,.39-1.72,.1-.39,.18-.78,.3-1.16,.21-.69,.48-1.37,.77-2.04,.1-.24,.21-.48,.32-.72,.35-.75,.74-1.49,1.18-2.22,.09-.14,.18-.28,.27-.43,.5-.79,1.03-1.58,1.64-2.35,.02-.03,.04-.05,.06-.07,1.43-1.82,3.11-3.57,5.1-5.24,0,0,0,.02,.01,.03,2.75,6.73,6.51,13.22,10.97,18.92,4.91,6.27,10.62,11.59,16.75,15.14,5.33,3.09,10.52,4.64,15.26,4.64,3.42,0,6.59-.81,9.42-2.43,0,0,.01-.01,.02-.02h0s30.04-17.33,30.04-17.33l6.46-3.73c5.56-3.29,9.01-9.43,10.05-17.51,0-.01,0-.02,0-.03,8.75,6.04,13.58,13.41,13.84,21.13,0,.05,.01,.1,.01,.14,0,.17,.04,.33,.04,.5,0,8.9-6.17,17.37-17.36,23.83-24.2,13.98-63.74,13.89-88.13-.19-11.38-6.57-17.65-15.13-17.68-24.11,0,0,0-.02,0-.03,0-.01,0-.02,0-.04Zm10.47-45.04c.05-.6,.15-1.15,.23-1.72,.06-.4,.09-.83,.16-1.22,.15-.83,.34-1.61,.56-2.37,.03-.1,.05-.22,.08-.32,1.24-4.26,3.48-7.46,6.57-9.38,.12-.08,.23-.18,.35-.25,2.05-1.18,4.39-1.76,6.95-1.76,3.86,0,8.2,1.33,12.75,3.97,7,4.05,13.43,10.59,18.55,18.22,.18,.27,.38,.54,.56,.82,.51,.79,.99,1.6,1.48,2.4,.48,.8,.95,1.61,1.4,2.43,5.08,9.25,8.21,19.52,8.2,28.83,0,1.93-.17,3.73-.43,5.43-.88,5.59-3.15,9.83-6.63,12.31-.34,.24-.66,.51-1.02,.71-5.15,2.95-12.14,2.17-19.7-2.2-4.6-2.66-8.94-6.41-12.84-10.82-5.58-6.31-10.23-13.99-13.3-21.97-.22-.58-.44-1.16-.65-1.75-.08-.21-.14-.43-.21-.64-.28-.81-.57-1.63-.81-2.44-.61-2.03-1.07-4.06-1.45-6.07-.02-.13-.05-.25-.07-.38-.24-1.3-.42-2.59-.56-3.87-.02-.2-.06-.41-.07-.62-.13-1.4-.21-2.78-.21-4.14,0-1.1,.05-2.17,.14-3.19Zm-14.09-134.65c.06-.49,.11-1.01,.19-1.48,.04-.19,.09-.36,.13-.55,.15-.73,.3-1.46,.51-2.14,.03-.09,.06-.16,.09-.24,1.28-4.16,3.54-7.3,6.68-9.12,0,0,.01,0,.02,0,.38-.22,.83-.32,1.23-.5,1.78-.8,3.71-1.3,5.83-1.3,3.91,0,8.32,1.34,12.95,4,9.24,5.29,17.53,14.77,23.16,25.43,4.63,8.76,7.46,18.31,7.49,27,.03,8.08-2.4,14.17-6.82,17.41-.36,.26-.7,.54-1.08,.77-1.7,.98-3.61,1.52-5.67,1.71-.83,.07-1.69,.08-2.58,.03-.87-.06-1.76-.17-2.68-.36-2.88-.58-5.94-1.74-9.11-3.56-9.65-5.53-18.27-15.62-23.9-26.85-2.11-4.2-3.77-8.56-4.93-12.9-.05-.19-.11-.38-.16-.57-.49-1.89-.87-3.78-1.14-5.65-.05-.34-.09-.67-.13-1-.23-1.85-.39-3.68-.4-5.47,0-1.63,.12-3.16,.31-4.63Zm50.56-36.41c4.01-.09,8.57,1.25,13.35,3.99,1.19,.68,2.36,1.45,3.52,2.27,.22,.15,.43,.32,.64,.48,.98,.71,1.94,1.47,2.89,2.27,.19,.16,.37,.32,.55,.48,1.04,.9,2.05,1.85,3.05,2.84,.06,.06,.13,.13,.19,.19,5.07,5.11,9.51,11.33,12.89,17.98l-.07,.04-32.08,18.32c-6.09-11.78-15.22-22.3-25.4-28.13-3.95-2.27-7.81-3.66-11.47-4.27l25.38-14.72c1.94-1.1,4.14-1.67,6.55-1.73Zm-23.45,149.16l-.52-1.94-2.84-10.69-15.11-56.83c.52,.73,1.05,1.44,1.6,2.14,5.12,6.62,11.15,12.25,17.63,15.96,4.5,2.58,8.87,4.03,12.98,4.46l16.56,62.3c-4.03-4.41-8.48-8.16-13.17-10.88-4.94-2.86-9.75-4.36-14.21-4.57-.99-.05-1.96-.03-2.92,.06Zm65.55-113.53l3.45,2.23,28.5,18.45,22.52,14.58-31.77,18.33,.03,.05c-.46,.27-.88,.59-1.31,.9l-20.83-14.6-2.05-1.44-2.04-1.43-29.34-20.57,29.93-17.09,.6-.35,.46-.26,1.85,1.2Zm1.26,111.88l1.07,4.09-.67,.39c-.33-.44-.67-.87-1.01-1.3,.02,.03,.02,.07,.04,.1,.31,.4,.59,.83,.9,1.24l-30.34,17.61-6.27-23.6-11.63-43.76c2.46-.32,4.77-1.09,6.88-2.31,.87-.51,1.68-1.09,2.45-1.73l32.7,28.41,.55,.48,3.98,15.21,1.35,5.18Zm-35.24-52.99c3-4.3,4.62-10.1,4.59-17.07-.02-6.25-1.4-12.92-3.77-19.47l50.94,35.71c-3.45,4.4-5.34,10.59-5.35,18.13-.01,9.58,3.06,20.1,8.08,29.72,.1,.19,.21,.39,.31,.58l-9.11-7.91-45.7-39.7Zm-55.06,151.25c0-.07,0-.15-.01-.22v-14.35c3.42,4.97,8.53,9.52,15.2,13.37,12.94,7.47,29.92,11.21,46.86,11.21,16.78,0,33.53-3.67,46.26-11.02,6.53-3.77,11.54-8.22,14.9-13.1v12.8c-.05,.22-.07,.45-.06,.68,.46,9.25-5.7,18.05-17.33,24.76-24.2,13.98-63.74,13.89-88.13-.19-11.3-6.52-17.58-15.03-17.68-23.95Zm103.64-65.56c.28,1.43,.51,2.86,.67,4.27,.03,.26,.07,.51,.09,.77,.03,.35,.08,.71,.11,1.06,.07,.97,.11,1.92,.12,2.87,0,.18,.02,.36,.02,.53,0,.25-.03,.49-.03,.74,0,0,0,.02,0,.03-.01,.5-.03,.99-.06,1.48-.46,7.68-3.19,13.38-7.84,16.14l-13.91,8.03-11.53,6.65c.75-2.03,1.29-4.25,1.62-6.65,.23-1.73,.39-3.52,.4-5.43,.01-9.25-2.83-19.39-7.56-28.74-.43-.85-.89-1.68-1.35-2.51-.46-.84-.94-1.66-1.43-2.48-.46-.77-.92-1.54-1.4-2.29l31.96-18.55,.07-.04c4.81,7.39,8.35,15.75,10,23.91,.02,.08,.03,.15,.04,.23Zm89.2-34.52l-25.44,14.68h0c1.29-3.48,2.01-7.52,2.02-12.08,.02-18.95-11.93-41.61-27.52-53.53-1.68-1.29-3.39-2.48-5.15-3.5-3.86-2.24-7.64-3.62-11.24-4.24l22.71-13.11,1.62-.93c.19-.06,.36-.15,.53-.26,.1-.07,.22-.11,.33-.17,.85-.52,1.77-.9,2.72-1.21,4.79-1.53,10.74-.46,17.17,3.26,16.67,9.65,30.21,33.3,30.18,52.71-.01,8.82-2.84,15.36-7.93,18.38Z"/></svg>