<?xml version="1.0" encoding="UTF-8"?><svg id="Layer_1" xmlns="http://www.w3.org/2000/svg" viewBox="0 0 350 350"><path d="M306.23,106.79c-10.99-6.35-21.45-7.61-29.74-3.8l-.03-.06-.74,.41c-.33,.17-.68,.28-.99,.46h0s-.02,.01-.04,.02l-3.89,2.29-21.91,12.36,.03,.06s-.05,.02-.07,.03c-.35,.17-.71,.31-1.05,.5-.05,.03-.1,.04-.15,.07-.66,.38-1.25,.84-1.86,1.28l-2.66-1.54c-.1-26.7-19.02-59.27-42.28-72.7-5.28-3.05-10.43-4.88-15.29-5.6-.55-.08-1.12-.21-1.66-.27-.33-.03-.65,0-.98-.03-4.25-.26-8.22,.44-11.8,2.09l-.03-.06-.73,.41c-.33,.17-.68,.28-1,.47h0s-.02,.01-.04,.02l-3.58,2.12-22.14,12.67-.38,.22-1,.58-1.57,.91h-.02S40.59,117.45,40.59,117.45c-.03,.01-.05,.02-.08,.04h0s-.02,.01-.04,.02l-.2,.12-.54,.32-1.47,.85-2.49,1.44,.03,.02-21.08,11.88,.03,.06s-.1,.04-.15,.07c-.32,.16-.65,.28-.97,.46-.05,.03-.11,.05-.16,.08-.92,.53-1.76,1.14-2.59,1.79-.63,.49-1.2,1.04-1.77,1.6-.48,.46-.97,.9-1.41,1.41-.45,.52-.85,1.1-1.26,1.67-.38,.53-.77,1.05-1.12,1.62-.36,.59-.69,1.22-1.02,1.85-.33,.64-.65,1.29-.94,1.98-.27,.64-.52,1.29-.76,1.96-.27,.79-.52,1.6-.74,2.44-.17,.64-.35,1.29-.5,1.96-.21,1-.38,2.05-.52,3.11-.08,.58-.19,1.14-.25,1.73-.17,1.7-.27,3.44-.27,5.27,0,26.69,18.94,59.33,42.22,72.77,6.89,3.98,13.58,5.99,19.65,5.99,1.19,0,2.36-.1,3.5-.25,.48-.07,.95-.17,1.42-.27,.6-.12,1.2-.24,1.78-.4,.55-.15,1.09-.34,1.63-.54,.51-.19,1.02-.39,1.51-.61,.46-.21,.92-.43,1.37-.67,.23-.12,.47-.21,.7-.34,.4-.23,.74-.52,1.12-.78,.21-.14,.43-.24,.63-.39l25.03-14c1.88-1.07,3.55-2.44,5.05-4-.14,1.57-.22,3.2-.22,4.87,0,26.69,18.94,59.34,42.21,72.78,6.89,3.98,13.58,5.99,19.66,5.99,1.19,0,2.36-.1,3.5-.25,.48-.06,.93-.17,1.39-.26,.61-.12,1.23-.24,1.82-.41,.54-.15,1.07-.34,1.59-.53,.53-.19,1.06-.4,1.57-.63,.45-.2,.89-.42,1.32-.65,.24-.13,.49-.22,.72-.35,.42-.24,.78-.55,1.18-.82,.17-.12,.36-.2,.53-.32l.56-.32,24.52-13.71c4.19-2.39,7.45-6.04,9.69-10.73l3.81,2.2,99.76-57.6,15.65-8.75c8.57-4.87,13.29-14.99,13.29-28.49,0-26.74-18.97-59.45-42.29-72.91Zm-52.78,15.24c1.92-.63,3.97-.98,6.15-.98,5.2,0,11.05,1.79,17.18,5.32,10.3,5.95,19.67,15.91,26.75,27.38l-52.89-30.54h0c.9-.48,1.84-.87,2.82-1.19ZM167.76,49.92l5.02-2.83c.5-.24,1-.5,1.52-.7,.25-.09,.51-.16,.76-.25,.64-.21,1.29-.39,1.96-.52,.29-.06,.57-.11,.86-.16,.71-.11,1.44-.18,2.18-.22,.24-.01,.48-.04,.72-.04,.45,0,.91,.04,1.36,.06,.8,.03,1.61,.09,2.44,.2,.49,.07,.99,.17,1.49,.26,.81,.16,1.63,.35,2.47,.59,.5,.14,1,.28,1.5,.45,.92,.3,1.84,.66,2.78,1.05,.44,.18,.87,.34,1.31,.54,1.38,.63,2.78,1.33,4.2,2.15,21.04,12.15,38.27,40.91,39.66,65.43l-31.66-18.28c-7.76-15.15-19.43-28.68-32.47-36.21-5.56-3.21-11-5.07-16.11-5.64-.12-.01-.24-.04-.35-.05l10.33-5.83Zm-13.19,10.66c5.13,0,10.86,1.74,16.83,5.18,10.19,5.89,19.48,15.7,26.53,27.02l-52.18-30.12c2.66-1.37,5.61-2.08,8.82-2.08ZM74.32,230.58c-.21,.19-.44,.36-.66,.54-.21,.17-.44,.31-.66,.46l-1.05,.59,.03,.05,.03,.05c-.13,.08-.24,.18-.37,.26-.26,.15-.55,.24-.81,.38-.3,.15-.6,.29-.9,.42-.68,.3-1.38,.55-2.09,.76-.27,.08-.55,.16-.83,.23-.81,.2-1.65,.34-2.5,.43-.21,.02-.43,.05-.65,.07-.96,.07-1.94,.08-2.94,.02-.15,0-.3,0-.45-.02-1.07-.08-2.17-.23-3.29-.45-.11-.02-.22-.03-.34-.06-1.13-.24-2.29-.55-3.46-.94-.12-.04-.24-.07-.37-.11-1.14-.39-2.31-.85-3.48-1.38-.16-.07-.31-.12-.47-.19-1.32-.61-2.65-1.29-4-2.07-21.9-12.65-39.72-43.36-39.72-68.46,0-1.58,.09-3.09,.22-4.55,.04-.45,.12-.87,.18-1.3,.13-1,.27-1.97,.46-2.91,.1-.47,.22-.91,.33-1.37,.21-.86,.45-1.69,.72-2.49,.14-.42,.3-.84,.46-1.24,.31-.78,.65-1.52,1.02-2.23,.18-.35,.35-.71,.55-1.04,.43-.74,.9-1.42,1.39-2.08,.18-.24,.35-.51,.54-.74,1.37-1.66,2.96-3.05,4.78-4.1,.09-.05,.18-.08,.27-.13,.08-.04,.17-.08,.25-.12,.89-.48,1.82-.86,2.78-1.17,1.92-.63,3.96-.98,6.14-.98,3.97,0,8.31,1.05,12.86,3.11,.82,.37,1.66,.84,2.49,1.28,.6,.32,1.19,.57,1.8,.92,.24,.14,.46,.3,.7,.44,15.65,9.35,29.09,27.84,35.31,46.78,.38,1.17,.74,2.33,1.06,3.5,.32,1.13,.64,2.27,.9,3.4,1.13,4.87,1.75,9.7,1.75,14.34,0,9.93-2.81,17.62-7.96,22.11Zm34.69-33.24c-.04,.42-.11,.8-.15,1.2-.1,.89-.2,1.77-.35,2.61-.08,.46-.2,.88-.3,1.33-.12,.55-.25,1.1-.4,1.63-.05,.18-.08,.38-.13,.56-.13,.44-.29,.85-.44,1.27-.07,.2-.15,.4-.22,.6-.16,.44-.31,.9-.49,1.33-.15,.34-.32,.66-.48,1-.03,.06-.06,.11-.09,.17-.28,.58-.57,1.15-.89,1.69-.22,.36-.46,.7-.7,1.04-.34,.5-.69,.99-1.07,1.45-.26,.32-.55,.61-.83,.91-.39,.42-.79,.82-1.22,1.2-.32,.28-.65,.53-.98,.78-.27,.2-.55,.38-.82,.57,0,0,0,0-.01,0l-15.36,8.66c.04-.09,.07-.19,.11-.29,2-4.66,3.08-10.23,3.08-16.57,0-3.59-.37-7.29-1.02-11.04-.19-1.08-.41-2.17-.65-3.25-.24-1.12-.53-2.24-.82-3.36-5.83-22.1-21.41-44.55-39.73-55.13-.6-.35-1.2-.62-1.8-.93-.83-.44-1.67-.91-2.5-1.3-.84-.39-1.66-.69-2.49-1.02-3.17-1.26-6.25-2.09-9.23-2.46-.1-.01-.2-.04-.29-.05l9.52-5.37,.08-.04,2.41-1.36,.06-.03,2.52-1.42,.62-.35c.33-.16,.66-.32,.99-.45,.17-.07,.34-.17,.52-.24,.22-.08,.45-.15,.68-.22,.03,0,.06-.01,.09-.02,.63-.2,1.28-.38,1.94-.52,.3-.06,.59-.12,.9-.16,.69-.11,1.39-.18,2.11-.21,.17,0,.33-.05,.5-.05,.1,0,.2,0,.3,0,.41,0,.83,.04,1.25,.06,.84,.03,1.68,.09,2.55,.21,.46,.06,.93,.16,1.4,.25,.84,.16,1.69,.36,2.55,.6,.48,.13,.96,.27,1.44,.43,.01,0,.02,0,.04,.01,.92,.3,1.85,.66,2.78,1.06,.43,.18,.85,.33,1.28,.53,1.38,.63,2.78,1.33,4.19,2.15,.11,.06,.21,.14,.32,.2,1.71,1,3.39,2.14,5.04,3.36,6.85,5.02,13.13,11.71,18.41,19.3,1.05,1.51,2.06,3.05,3.03,4.63,.87,1.42,1.71,2.86,2.51,4.33,6.45,11.82,10.42,24.84,10.42,36.64,0,1.42-.06,2.78-.17,4.11Zm70.72,94.62c-.22,.19-.44,.37-.67,.54-.22,.18-.46,.32-.69,.48l-1.02,.58,.03,.05,.03,.05c-.13,.08-.24,.18-.37,.26-.26,.15-.55,.25-.83,.38-.28,.14-.57,.27-.86,.4-.71,.31-1.44,.58-2.19,.8-.23,.07-.47,.13-.71,.19-.86,.21-1.75,.36-2.67,.46-.16,.02-.31,.04-.47,.05-1.02,.08-2.06,.09-3.14,.03-.09,0-.17,0-.26-.01-1.13-.08-2.29-.24-3.47-.48-.06-.01-.12-.02-.18-.03-1.18-.25-2.38-.57-3.6-.97-.08-.03-.16-.04-.24-.07-1.18-.4-2.37-.87-3.58-1.42-.13-.06-.26-.1-.39-.16-1.32-.61-2.66-1.29-4.01-2.07-21.9-12.65-39.72-43.36-39.72-68.46,0-1.58,.09-3.09,.22-4.55,.04-.45,.12-.86,.17-1.3,.13-1,.27-1.98,.47-2.92,.1-.46,.21-.9,.33-1.35,.01-.05,.02-.1,.04-.15,.21-.81,.43-1.6,.69-2.35,.01-.04,.03-.07,.04-.11,.13-.38,.27-.75,.41-1.12,.16-.41,.31-.85,.49-1.24,.16-.36,.36-.68,.54-1.02,.18-.34,.35-.69,.53-1.02,.43-.75,.91-1.45,1.42-2.12,.17-.23,.33-.48,.51-.7,1.37-1.67,2.96-3.06,4.78-4.11,.09-.05,.18-.08,.27-.13,.07-.04,.15-.07,.23-.11,.9-.48,1.84-.87,2.81-1.19,1.92-.63,3.95-.98,6.12-.98,5.19,0,11.03,1.79,17.14,5.32,15.77,9.1,29.38,27.56,35.79,46.56,.4,1.17,.78,2.35,1.12,3.52,.33,1.14,.65,2.28,.92,3.41,1.22,5.08,1.9,10.13,1.9,14.97,0,9.93-2.81,17.61-7.95,22.1Zm34.68-33.22c-.04,.42-.11,.8-.15,1.2-.1,.89-.2,1.77-.35,2.61-.08,.46-.2,.88-.3,1.33-.09,.39-.18,.78-.28,1.16-.09,.34-.15,.7-.25,1.02-.13,.44-.29,.85-.44,1.27-.02,.05-.04,.1-.06,.15-.21,.6-.41,1.21-.66,1.77-.08,.2-.17,.39-.26,.58-.09,.2-.21,.38-.31,.58-.28,.58-.57,1.15-.89,1.69-.22,.36-.46,.7-.7,1.04-.34,.5-.69,.99-1.07,1.45-.26,.32-.55,.61-.83,.91-.39,.42-.79,.82-1.22,1.2-.32,.28-.65,.53-.98,.78-.27,.2-.55,.38-.82,.57,0,0,0,0-.01,0l-15.36,8.66c.04-.09,.07-.2,.11-.29,2-4.66,3.08-10.22,3.08-16.57,0-3.78-.42-7.69-1.14-11.65-.2-1.08-.4-2.17-.65-3.25-.26-1.13-.56-2.25-.87-3.38-5.96-21.89-21.42-44.02-39.56-54.49-5.54-3.2-10.94-5.08-16.01-5.71-.1-.01-.19-.03-.29-.05l9.61-5.42,2.92-1.65,2.52-1.42,.14-.08c.49-.24,.98-.49,1.49-.68,.28-.1,.56-.18,.84-.27,.16-.05,.33-.08,.49-.13,.44-.13,.88-.26,1.34-.36,.33-.07,.66-.13,1-.18,.64-.1,1.29-.16,1.95-.2,.31-.02,.62-.05,.94-.05,.37,0,.76,.04,1.13,.05,.87,.03,1.76,.09,2.66,.22,.44,.06,.89,.15,1.34,.24,.86,.16,1.73,.37,2.62,.62,.46,.13,.93,.26,1.4,.42,.94,.31,1.89,.68,2.85,1.08,.42,.18,.84,.33,1.26,.52,1.38,.63,2.78,1.33,4.2,2.15,8.64,4.99,16.62,12.81,23.14,21.96,1.09,1.53,2.14,3.1,3.14,4.69,.9,1.44,1.77,2.89,2.59,4.37,6.71,12.03,10.85,25.37,10.85,37.43,0,1.42-.06,2.78-.17,4.11Zm-7.09-45.23c-7.66-13.28-18.26-24.9-29.97-31.66-9.66-5.57-18.91-7.22-26.66-4.93-.49,.14-1,.24-1.48,.42-.47,.17-.91,.43-1.37,.64-.06,.03-.12,.06-.18,.08l-.03-.06-.74,.42c-.07,.03-.14,.06-.2,.09l-44.35-25.6c-4.86-8.6-10.95-16.55-17.8-22.97-1.16-1.09-2.36-2.12-3.56-3.11-1.37-1.14-2.77-2.21-4.18-3.21-1.59-1.13-3.21-2.2-4.85-3.14-5.74-3.32-11.34-5.25-16.58-5.8l76.99-44.45,.16-.09,4.32-2.49,3.76-2.17,.75,.43h0s17.34,10.01,17.34,10.01l28.07,16.21,15.87,9.16,7.27,4.2,28.12,16.23h0s2.42,1.4,2.42,1.4l1.42,.82h0s.96,.56,.96,.56l1.3,.75,2.2,1.27,.03,.02,17.38,10.03,28.77,16.61,14.06,8.12,1.59,.92,4.53,2.61,1.98,1.14-2.31,1.33-1.54,.89-8.16,4.71-4.48,2.59-27.88,16.09-4.47,2.58-6.8,3.93-2.17,1.25-2.14,1.24-34.91,20.16-12.49-7.21Zm109.85-42.45v41.51l-10.87,6.28-8.65,4.99-4.11,2.37h-.02s-71.21,41.13-71.21,41.13v-42.31l35.63-20.57,2.17-1.25,2.19-1.27,7.32-4.22,4.6-2.66,25.06-14.47,4.55-2.63,8.76-5.06,4.36-2.52,.22-.13v.79Zm26.02,14c-.1,.87-.2,1.74-.35,2.57-.08,.46-.21,.89-.3,1.34-.16,.74-.32,1.48-.53,2.18-.13,.44-.29,.85-.44,1.27-.23,.66-.45,1.31-.72,1.93-.17,.41-.38,.78-.57,1.17-.29,.58-.57,1.15-.89,1.69-.22,.36-.46,.7-.7,1.04-.34,.5-.69,.99-1.07,1.45-.27,.32-.55,.62-.84,.92-.39,.41-.79,.82-1.22,1.19-.32,.28-.65,.53-.99,.79-.26,.2-.54,.38-.82,.56,0,0,0,0-.01,0l-11.6,6.54v-42.32s0-2.88,0-2.88l-1.64-.95-8.61-4.97c-7.76-15.28-19.51-28.96-32.64-36.55-5.56-3.21-10.97-5.09-16.05-5.72-.09-.01-.19-.03-.29-.05l9.62-5.43,5.61-3.17c.5-.25,1-.5,1.53-.7,.24-.09,.5-.16,.74-.24,.65-.21,1.31-.39,1.98-.53,.28-.06,.56-.11,.85-.16,.72-.11,1.45-.19,2.2-.22,.24-.01,.47-.04,.71-.04,.45,0,.92,.04,1.38,.06,.8,.03,1.6,.09,2.42,.2,.49,.07,1,.17,1.5,.26,.81,.16,1.63,.35,2.46,.58,.51,.14,1.01,.28,1.53,.45,.9,.3,1.82,.65,2.74,1.04,.45,.19,.89,.35,1.35,.56,1.38,.63,2.78,1.33,4.19,2.15,21.94,12.68,39.8,43.45,39.8,68.59,0,1.42-.06,2.79-.17,4.11-.04,.43-.11,.83-.16,1.26Z"/><path d="M143.9,84.7c-2.45-1.42-6.44-1.41-8.91,.02-.37,.21-.57,.47-.83,.72,0,0,0,0,0,0-1.23,1.17-1.23,2.58,0,3.74,0,0,.01,0,.02,.01,.25,.23,.43,.48,.77,.68,2.45,1.42,6.44,1.41,8.91-.02,.55-.32,.94-.69,1.25-1.08,.45-.57,.6-1.19,.51-1.8-.12-.82-.64-1.63-1.73-2.26Z"/><path d="M118.56,99.33c-2.45-1.42-6.44-1.41-8.91,.02-2.47,1.43-2.48,3.73-.03,5.15,2.45,1.42,6.44,1.41,8.91-.02,2.47-1.43,2.48-3.73,.03-5.15Z"/><path d="M93.23,113.96c-2.45-1.42-6.44-1.41-8.91,.02-2.47,1.43-2.48,3.73-.03,5.15,2.45,1.42,6.44,1.41,8.91-.02,2.47-1.43,2.48-3.73,.03-5.15Z"/><path d="M166.73,97.88c-2.45-1.42-6.44-1.41-8.91,.02-2.47,1.43-2.48,3.73-.03,5.15,2.45,1.42,6.44,1.41,8.91-.02,2.47-1.43,2.48-3.73,.03-5.15Z"/><path d="M141.39,112.51c-.7-.4-1.53-.66-2.4-.83-.03,0-.07,0-.1-.01-.84-.16-1.71-.2-2.58-.14-.86,.05-1.66,.21-2.44,.47-.03,0-.06,.02-.08,.03-.45,.15-.92,.28-1.31,.5-2.47,1.43-2.48,3.73-.03,5.15,1.11,.64,2.55,.95,4.01,1.01,.03,0,.07,.01,.1,.01,.88,.03,1.76-.03,2.6-.22,.8-.18,1.56-.44,2.21-.82,.01,0,.02-.02,.03-.03,.03-.02,.04-.04,.07-.06,2.34-1.43,2.34-3.67-.07-5.06Z"/><path d="M116.05,127.14c-2.45-1.42-6.44-1.41-8.91,.02-.61,.35-1.07,.76-1.38,1.2-.57,.8-.57,1.69-.1,2.51,.3,.52,.74,1.02,1.45,1.44,2.3,1.33,5.91,1.35,8.4,.18,.16-.08,.36-.11,.51-.2,.96-.56,1.44-1.26,1.66-1.97,.34-1.12-.13-2.31-1.62-3.17Z"/><path d="M189.56,111.06c-2.45-1.42-6.44-1.41-8.91,.02-2.47,1.43-2.48,3.73-.03,5.15,2.45,1.42,6.44,1.41,8.91-.02,2.47-1.43,2.48-3.73,.03-5.15Z"/><path d="M164.22,125.69c-1.3-.75-3.03-1.07-4.74-1.02-1.51,.04-3.02,.37-4.18,1.04-.28,.16-.42,.37-.64,.55-1.69,1.42-1.56,3.34,.61,4.59,1.03,.6,2.35,.88,3.7,.97,1.86,.13,3.78-.17,5.21-.99,.14-.08,.19-.19,.32-.28,2.06-1.43,2.02-3.53-.29-4.87Z"/><path d="M138.88,140.32c-2.45-1.42-6.44-1.41-8.91,.02-2.47,1.43-2.48,3.73-.03,5.15,2.45,1.42,6.44,1.41,8.91-.02,2.47-1.43,2.48-3.73,.03-5.15Z"/><path d="M212.38,124.24c-.66-.38-1.44-.64-2.26-.81-2.24-.48-4.85-.21-6.66,.83-2.47,1.43-2.48,3.73-.03,5.15,2.06,1.19,5.15,1.31,7.56,.5,.47-.16,.95-.29,1.35-.52,2.47-1.43,2.48-3.73,.03-5.15Z"/><path d="M187.6,139.35c-.2-.16-.31-.34-.56-.49-2.45-1.42-6.44-1.41-8.91,.02-.28,.16-.41,.36-.63,.54-.23,.19-.51,.37-.67,.58-.61,.8-.64,1.67-.22,2.49,.29,.56,.73,1.09,1.49,1.53,2.35,1.36,6.08,1.37,8.56,.12,.11-.06,.25-.08,.35-.14,1-.58,1.49-1.31,1.68-2.06,.24-.91-.13-1.82-1.09-2.6Z"/><path d="M161.71,153.5c-2.45-1.42-6.44-1.41-8.91,.02-2.47,1.43-2.48,3.73-.03,5.15,2.45,1.42,6.44,1.41,8.91-.02,2.47-1.43,2.48-3.73,.03-5.15Z"/><path d="M235.49,137.66s0,0-.01-.01c-.11-.07-.15-.16-.26-.23-.4-.23-.88-.36-1.35-.51-.01,0-.02,0-.04-.01-2.4-.79-5.47-.64-7.53,.55-2.47,1.43-2.48,3.73-.03,5.15,.36,.21,.81,.32,1.23,.47,0,0,.01,0,.02,0,.04,.01,.07,.03,.11,.04,.42,.14,.83,.26,1.28,.34,.79,.14,1.59,.18,2.41,.13,1.22-.07,2.39-.34,3.39-.82,.01,0,.02,0,.04-.01,.14-.07,.31-.09,.44-.17,2.12-1.22,2.32-3.06,.82-4.46-.16-.15-.3-.3-.51-.44Z"/><path d="M210.54,152.63c-.06-.05-.12-.11-.19-.16-.18-.14-.27-.3-.48-.42-.71-.41-1.56-.67-2.46-.84-2.19-.42-4.7-.16-6.45,.86-2.47,1.43-2.48,3.73-.03,5.15,.26,.15,.6,.22,.89,.34,0,0,0,0,0,0,0,0,.02,0,.03,.01,.98,.39,2.06,.63,3.2,.67,.22,0,.42,0,.63,0,.01,0,.02,0,.03,0,1.25-.04,2.44-.32,3.48-.79,.2-.09,.45-.14,.64-.25,1.09-.63,1.61-1.43,1.75-2.25,0-.02,.02-.04,.02-.05,.01-.11,.09-.2,.08-.31,0-.18-.13-.34-.17-.52-.13-.51-.46-.99-.98-1.44Z"/><path d="M184.53,166.67c-2.45-1.42-6.44-1.41-8.91,.02-2.47,1.43-2.48,3.73-.03,5.15,2.45,1.42,6.44,1.41,8.91-.02,2.47-1.43,2.48-3.73,.03-5.15Z"/><path d="M249.09,155.76c.16,.09,.37,.13,.54,.21,1.44,.67,3.23,.91,4.97,.73,1.17-.12,2.29-.38,3.21-.88,.06-.03,.14-.04,.19-.07,1.04-.6,1.54-1.36,1.71-2.14,.23-1.07-.26-2.18-1.68-3-.69-.4-1.52-.66-2.38-.83-1.78-.35-3.72-.2-5.36,.4-.4,.14-.82,.25-1.17,.45-.54,.31-.91,.67-1.21,1.05-.64,.78-.72,1.65-.34,2.47,.27,.59,.71,1.16,1.52,1.62Z"/><path d="M232.7,165.22c-2.45-1.42-6.44-1.41-8.91,.02-2.47,1.43-2.48,3.73-.03,5.15,2.45,1.42,6.44,1.41,8.91-.02s2.48-3.73,.03-5.15Z"/><path d="M207.36,179.85c-2.45-1.42-6.44-1.41-8.91,.02-2.47,1.43-2.48,3.73-.03,5.15,2.45,1.42,6.44,1.41,8.91-.02,2.47-1.43,2.48-3.73,.03-5.15Z"/><path d="M271.92,168.94c2.45,1.42,6.44,1.41,8.91-.02,2.47-1.43,2.48-3.73,.03-5.15-2.45-1.42-6.44-1.41-8.91,.02-2.47,1.43-2.48,3.73-.03,5.15Z"/><path d="M256.98,182.05c.68-1.25,.25-2.66-1.46-3.65-.13-.08-.31-.1-.45-.17-2.38-1.15-5.82-1.13-8.16,.08-.09,.05-.21,.06-.3,.11-.85,.49-1.3,1.1-1.57,1.73-.51,1.19-.07,2.49,1.54,3.42,.05,.03,.11,.04,.16,.06,.94,.51,2.1,.78,3.3,.89,1.93,.18,3.96-.1,5.45-.97,.75-.43,1.19-.95,1.49-1.5Z"/><path d="M230.19,193.03c-2.45-1.42-6.44-1.41-8.91,.02-2.47,1.43-2.48,3.73-.03,5.15,2.45,1.42,6.44,1.41,8.91-.02,2.47-1.43,2.48-3.73,.03-5.15Z"/><path d="M172.56,244.39c-.46-1.24-.9-2.49-1.44-3.71-4.7-10.54-12.49-20.23-21.34-25.42-7.53-4.39-14.73-5.07-20.29-1.9-.91,.52-1.72,1.15-2.49,1.84-.63,.57-1.22,1.19-1.76,1.87-.51,.64-.98,1.33-1.41,2.07-1.9,3.29-2.95,7.48-2.98,12.38-.11,16.65,11.58,37.09,26.05,45.57,4.4,2.57,8.69,3.87,12.61,3.87,2.78,0,5.37-.65,7.68-1.97,5.52-3.14,8.59-9.59,8.64-18.16,.03-4.12-.68-8.46-1.96-12.81-.36-1.22-.86-2.42-1.31-3.64Zm-7.85,30.27c-3.96,2.25-9.38,1.58-15.3-1.88-13.1-7.67-23.68-26.17-23.58-41.23,.02-4.04,.91-7.33,2.39-9.87,.43-.74,.87-1.47,1.42-2.06,.61-.66,1.3-1.23,2.05-1.7,.1-.06,.17-.16,.27-.22,1.54-.88,3.3-1.31,5.23-1.31,3.03,0,6.46,1.07,10.07,3.19,6.14,3.6,11.67,9.61,15.86,16.49,.84,1.37,1.59,2.78,2.31,4.21,.65,1.3,1.28,2.6,1.83,3.94,2.27,5.54,3.62,11.28,3.58,16.6-.04,6.71-2.22,11.63-6.12,13.86Z"/><path d="M67.41,183.67c-.43-1.22-.81-2.45-1.33-3.65-4.67-10.83-12.64-20.85-21.7-26.16-.37-.22-.74-.38-1.11-.58-.84-.45-1.67-.86-2.5-1.22-.84-.36-1.67-.69-2.49-.95-5.26-1.7-10.16-1.45-14.19,.85-5.52,3.14-8.59,9.59-8.64,18.16-.1,16.65,11.59,37.09,26.05,45.57,4.4,2.57,8.69,3.87,12.61,3.87,2.78,0,5.37-.65,7.68-1.96,5.52-3.14,8.59-9.59,8.65-18.17,.02-3.92-.65-8.05-1.82-12.18-.34-1.2-.77-2.38-1.2-3.57Zm-8.1,29.59c-3.96,2.24-9.39,1.58-15.3-1.88-13.1-7.67-23.68-26.17-23.58-41.23,.04-6.71,2.22-11.63,6.12-13.86,1.54-.88,3.3-1.31,5.23-1.31s4.2,.52,6.49,1.45c.82,.33,1.65,.73,2.49,1.18,.36,.19,.72,.35,1.08,.56,.48,.28,.94,.68,1.41,.99,5.82,3.82,11.08,9.65,15,16.35,.78,1.34,1.46,2.72,2.14,4.12,.62,1.28,1.19,2.56,1.7,3.86,2.1,5.33,3.37,10.81,3.34,15.91-.04,6.71-2.22,11.63-6.13,13.86Z"/></svg>