<?xml version="1.0" encoding="UTF-8"?><svg id="Layer_1" xmlns="http://www.w3.org/2000/svg" viewBox="0 0 350 350"><path d="M207.64,148.21c-6.04-3.49-13.89-2.78-22.12,1.97-15.94,9.21-28.9,31.57-28.9,49.85,0,9.36,3.3,16.41,9.28,19.87,2.53,1.46,5.38,2.18,8.44,2.18,4.24,0,8.9-1.4,13.68-4.16,15.94-9.21,28.9-31.57,28.9-49.85,0-9.36-3.3-16.42-9.28-19.87Zm-22.11,65.4c-6.62,3.83-12.7,4.53-17.13,1.97-4.37-2.53-6.79-8.05-6.79-15.55,0-16.69,11.84-37.12,26.4-45.53,4-2.31,7.81-3.48,11.17-3.48,2.2,0,4.21,.5,5.96,1.51,4.37,2.53,6.79,8.05,6.79,15.55,0,16.69-11.84,37.12-26.4,45.53Z"/><path d="M231.43,124.43c-10.14-5.86-23.49-4.62-37.57,3.51-27.94,16.13-50.66,55.31-50.66,87.34,0,15.98,5.54,27.98,15.59,33.79,4.21,2.43,8.98,3.64,14.11,3.64,7.24,0,15.22-2.4,23.45-7.15,27.94-16.13,50.67-55.31,50.67-87.34,0-15.98-5.54-27.98-15.59-33.79Zm-37.57,116.81c-12.46,7.2-24.03,8.44-32.58,3.51-8.45-4.88-13.1-15.34-13.1-29.47,0-30.44,21.61-67.68,48.17-83.02,7.45-4.3,14.58-6.48,20.94-6.48,4.27,0,8.2,.99,11.64,2.97,8.45,4.88,13.1,15.34,13.1,29.47,0,30.44-21.61,67.68-48.17,83.02Z"/><path d="M186.4,160.72c-3.45,1.99-6.69,4.85-9.54,8.23,3.89-2.24,7.04-.45,7.04,4,0,4.46-3.15,9.89-7.04,12.13-3.89,2.24-7.04,.45-7.04-4,0-.4,.05-.81,.1-1.22-2.46,5.29-3.94,10.89-3.93,16.05,0,12.93,9.14,18.13,20.41,11.62,11.27-6.51,20.41-22.27,20.41-35.2,0-12.93-9.14-18.13-20.41-11.62Z"/><path d="M256.08,145.98c-.03-.29-.09-.55-.12-.84-.2-1.89-.43-3.75-.78-5.51-.07-.37-.19-.71-.27-1.08-.35-1.64-.73-3.26-1.21-4.78-.12-.38-.29-.72-.42-1.1-.5-1.45-1.01-2.88-1.62-4.22-.24-.52-.55-.98-.8-1.48-.57-1.12-1.13-2.24-1.78-3.27-.41-.65-.91-1.2-1.35-1.81-.58-.79-1.13-1.62-1.76-2.34-.63-.71-1.34-1.32-2.02-1.97-.54-.52-1.04-1.09-1.62-1.57-.83-.68-1.74-1.25-2.63-1.85-.49-.33-.94-.72-1.45-1.02-.13-.12-.28-.23-.43-.32l-41.37-23.83c-11.91-6.84-27.59-5.33-44.14,4.22-33.1,19.11-60.04,65.54-60.04,103.49,0,4.65,.4,9.01,1.17,13.05,2.33,12.11,8.06,21.3,16.71,26.48,.08,.06,.17,.12,.26,.17l41.27,23.74c.16,.1,.3,.23,.46,.32,.2,.12,.43,.2,.63,.31l.94,.54h0c.16,.09,.32,.16,.48,.21,.22,.11,.46,.18,.68,.28,.71,.32,1.44,.62,2.17,.89,.46,.17,.92,.31,1.39,.46,.81,.25,1.63,.5,2.46,.69,.35,.08,.71,.13,1.06,.2,2.18,.42,4.42,.7,6.74,.7,8.53,0,17.94-2.83,27.66-8.44,33.1-19.11,60.03-65.53,60.03-103.48,0-2.35-.1-4.63-.3-6.83Zm-158.82,50.72c0-36.37,25.81-80.85,57.54-99.17,14.95-8.63,28.86-10.12,39.16-4.22l26.98,15.54c-8.38,.12-17.57,2.86-27.08,8.34-33.1,19.11-60.03,65.53-60.03,103.48,0,10.68,2.16,19.78,6.13,26.96l-26.8-15.41c-.07-.05-.14-.09-.21-.14-10.12-5.92-15.69-18.49-15.69-35.39Zm96.6,55.27c-1.81,1.05-3.61,1.98-5.39,2.81-.97,.45-1.92,.81-2.88,1.2-.78,.32-1.58,.69-2.35,.97-1.17,.42-2.32,.74-3.46,1.06-.54,.15-1.09,.34-1.62,.48-1.21,.3-2.39,.5-3.57,.68-.45,.07-.91,.18-1.35,.23-1.17,.15-2.3,.2-3.43,.23-.44,.01-.9,.05-1.33,.05-1.07,0-2.11-.11-3.14-.22-.48-.05-.96-.08-1.43-.15-.95-.15-1.87-.38-2.79-.62-.52-.14-1.04-.26-1.55-.43-.83-.27-1.64-.61-2.43-.96-.66-.29-1.33-.57-1.97-.92l-.99-.57c-9.89-6.01-15.36-18.43-15.36-35.14,0-36.36,25.81-80.85,57.54-99.16,14.91-8.61,28.76-10.1,39.06-4.25,.82,.46,1.56,1.03,2.32,1.58,.44,.32,.91,.58,1.33,.93,.69,.57,1.31,1.24,1.95,1.88,.42,.42,.87,.79,1.26,1.24,.55,.64,1.03,1.37,1.54,2.06,.4,.55,.84,1.06,1.21,1.64,.43,.68,.78,1.45,1.17,2.17,.37,.69,.77,1.34,1.1,2.08,.33,.73,.58,1.53,.86,2.3,.31,.82,.65,1.61,.92,2.48,.25,.81,.42,1.7,.63,2.54,.22,.91,.48,1.77,.66,2.72,.19,1.02,.3,2.13,.44,3.2,.11,.85,.27,1.66,.34,2.54,.17,1.99,.26,4.05,.26,6.18,0,36.36-25.81,80.84-57.53,99.16Z"/></svg>