<?xml version="1.0" encoding="UTF-8"?><svg id="Layer_1" xmlns="http://www.w3.org/2000/svg" viewBox="0 0 350 350"><path d="M311.62,108.79H32.56s0,131.92,0,131.92H311.62s0-131.92,0-131.92ZM37.56,235.72V113.78s269.07,0,269.07,0v121.94s-269.07,0-269.07,0Z"/><path d="M49.04,135.99v88.79s245.97,0,245.97,0v-88.79s-245.97,0-245.97,0Zm59.88,70.95h-24.71s0-15.16,0-15.16h-15.16s0-24.71,0-24.71h15.16s0-15.16,0-15.16h24.71s0,15.16,0,15.16h15.16s0,24.71,0,24.71h-15.16s0,15.16,0,15.16Zm119.71-13.37c-7.58,0-13.75-6.17-13.75-13.75,0-7.59,6.17-13.75,13.75-13.75,7.58,0,13.75,6.17,13.75,13.75s-6.17,13.75-13.75,13.75Zm35.95,0c-7.58,0-13.75-6.17-13.75-13.75s6.17-13.75,13.75-13.75c7.58,0,13.75,6.17,13.75,13.75,0,7.59-6.17,13.75-13.75,13.75Z"/></svg>