<?xml version="1.0" encoding="UTF-8"?><svg id="Layer_1" xmlns="http://www.w3.org/2000/svg" viewBox="0 0 350 350"><path d="M241.84,83.23l-123.51-9.34-13-7.51L40.69,103.71v1.44s0,1.44,0,1.44v7.06s0,43.13,0,43.13l12.62,7.28,16.13,71.38,147.89,39.49,1,.26,16.22-9.36v-43.68s0-6.5,0-6.5v-1.44s0-1.44,0-1.44l-61.12-35.29,13.7-7.91,107.07,61.82,16.58-9.57v-43.54s0-6.64,0-6.64v-1.44s0-.88,0-.88l-68.94-86.07Zm-136.51-11.09l7.26,4.19-24.5,14.14-32.66,18.85-7.26-4.19,57.16-33Zm-59.65,37.32l7.26,4.19v44.42s-7.26-4.19-7.26-4.19v-44.42Zm12.25,25.03l11.12,49.02v27.62s-11.12-49.01-11.12-49.01v-27.62Zm16.11,51.98l141.44,37.77v45.02s-141.44-37.77-141.44-37.77v-45.01Zm155.53,76.45l-9.1,5.25v-44.42s9.1-5.25,9.1-5.25v44.42Zm-2.49-48.74l-9.45,5.46-143.98-38.44-15.37-67.75,33.35-19.25,26.54-15.32,121.14,9.16,65.22,81.43-10.32,5.96-107.07-61.82-67.13,38.76,107.07,61.82Zm-58.63-39.61l-38.47-22.21,54.66-31.56v44.42s-16.19,9.35-16.19,9.35Zm21.18-53.77l102.08,58.94v44.42s-102.08-58.94-102.08-58.94v-44.42Zm116.17,98.1l-9.1,5.25v-44.42s9.1-5.25,9.1-5.25v44.42Z"/></svg>