<?xml version="1.0" encoding="UTF-8"?><svg id="Layer_1" xmlns="http://www.w3.org/2000/svg" viewBox="0 0 350 350"><path d="M288.78,175.83c-.08-.86-.22-1.66-.33-2.49-.12-.92-.22-1.85-.39-2.74-.19-1-.44-1.94-.68-2.89-.16-.65-.3-1.31-.49-1.94-.29-.98-.65-1.91-1-2.84-.2-.54-.4-1.09-.62-1.61-.39-.89-.82-1.73-1.26-2.56-.27-.5-.53-1.01-.82-1.49-.46-.76-.95-1.47-1.46-2.18-.36-.5-.72-.99-1.1-1.46-.5-.61-1.03-1.19-1.57-1.75-.47-.49-.95-.96-1.46-1.41-.52-.47-1.07-.91-1.62-1.34-.43-.33-.88-.62-1.33-.92l.05-.09-1.14-.66c-.12-.07-.23-.17-.36-.25-.13-.07-.27-.12-.4-.19l-2.05-1.18-15.15-8.74,.04-.08c-.26-.14-.55-.23-.81-.36l-106.11-61.19c-11.03-5.44-23.65-4.14-37.52,3.87-9.67,5.58-18.69,13.93-26.43,23.74-14.92,18.94-24.96,43.44-24.96,64.84,0,15.96,5.47,28.04,15.44,34.03l125.31,72.29,.07-.11c.41,.21,.82,.42,1.24,.61,.64,.29,1.29,.56,1.95,.8,.37,.14,.75,.25,1.13,.37,.72,.23,1.44,.44,2.18,.61,.3,.07,.6,.11,.9,.17,1.88,.36,3.81,.6,5.82,.6,7.34,0,15.43-2.43,23.77-7.25,1.6-.92,3.17-1.94,4.73-3.01,.45-.3,.89-.63,1.33-.94,1.18-.84,2.35-1.72,3.51-2.64,.4-.32,.8-.63,1.2-.96,3.06-2.52,6.02-5.29,8.86-8.28,.34-.36,.68-.74,1.02-1.11,1.07-1.16,2.13-2.35,3.16-3.57,.39-.46,.78-.92,1.16-1.39,1.07-1.3,2.11-2.63,3.13-3.99,.25-.34,.52-.66,.77-1.01,.12-.16,.22-.32,.34-.48l.66,.38,4.22,2.44c.07,.04,.11,.11,.18,.15,.08,.04,.17,.06,.25,.1l.04,.02h0s0,0,0,0c.21,.11,.43,.18,.64,.26,.39,.15,.8,.25,1.22,.31,.16,.02,.31,.05,.48,.06,.17,.01,.32,.06,.49,.06,.15,0,.3-.06,.45-.07,.43-.03,.87-.09,1.31-.2,.23-.05,.45-.09,.68-.16,.69-.22,1.38-.5,2.07-.9,4.75-2.75,8.48-9.18,8.48-14.63,0-.66-.08-1.27-.19-1.86-.02-.11-.01-.23-.03-.33-.07-.34-.22-.63-.32-.94-.11-.33-.2-.69-.35-.99-.09-.17-.22-.3-.32-.47-.12-.2-.24-.39-.37-.58-.13-.19-.27-.37-.42-.53-.07-.07-.16-.12-.23-.18-.35-.33-.7-.66-1.12-.9-.04-.02-.09-.03-.13-.05l-.03-.02-4.92-2.85c.13-.29,.28-.57,.4-.85,.23-.51,.44-1.03,.66-1.54,.63-1.47,1.23-2.95,1.8-4.43,.21-.55,.41-1.09,.61-1.64,.59-1.62,1.14-3.24,1.65-4.87,.11-.34,.22-.68,.33-1.02,1.2-3.99,2.14-7.98,2.81-11.93,.08-.49,.15-.97,.22-1.45,.23-1.48,.41-2.96,.55-4.42,.05-.52,.11-1.04,.15-1.56,.15-1.89,.24-3.76,.24-5.6,0-1.94-.09-3.82-.25-5.64Zm-210.96,21.84c-2.67-1.61-4.91-3.83-6.79-6.49-4.01-5.69-6.2-13.61-6.2-23.24,0-30.9,21.93-68.7,48.89-84.26,12.51-7.23,23.25-8.44,32.67-3.79l93.39,53.86c-6.8,.4-14.16,2.73-21.74,7.11-28.33,16.36-51.38,56.09-51.38,88.58,0,8.71,1.68,16.21,4.78,22.25,0,0,0,0,0,0l-93.62-54.01Zm106.76,61.59h0s.06-.09,.06-.09c-8.37-5.03-12.98-15.59-12.98-29.73,0-30.9,21.93-68.7,48.89-84.26,12.09-6.98,23.37-8.4,31.93-4.12l4.5,2.6c-6.82,.39-14.2,2.73-21.82,7.13-28.33,16.36-51.38,56.09-51.38,88.58,0,8.67,1.65,16.13,4.71,22.14,0,0,0,0,0,0l-3.89-2.25Zm80.86-23.16l-10.24-5.93-4.28-2.48-13.73-7.95-4.35-2.52c-.53-.31-.85-1.23-.85-2.46,0-3.71,2.74-8.42,5.98-10.29,.99-.57,1.9-.78,2.47-.58l4.48,2.6,13.74,7.95,4.27,2.47,10.26,5.94,1.97,1.14,1.21,.7h0c-4.17,2.78-7.38,8.28-7.74,13.26,0,0,0,0,0,0l-1.24-.72-1.96-1.13Zm10.14,5.29c-.36,.08-.62,.03-.88-.04-.07-.02-.17,0-.22-.02-.02,0-.06,0-.08,0-.01,0-.02-.03-.03-.04,0,0-.01-.02-.02-.03-.5-.34-.81-1.21-.81-2.41,0-3.71,2.74-8.44,5.99-10.31,.75-.43,1.46-.66,2-.66,.23,0,.42,.05,.58,.13h0s.01,0,.02,0c0,0,.02,0,.03,0,0,0,0,0,0,0,.24,.14,.42,.44,.56,.8,.01,.04,.04,.04,.06,.08,.07,.2,.07,.49,.11,.74,.04,.28,.12,.52,.12,.85,0,3.71-2.74,8.44-5.99,10.31-.52,.3-1.02,.48-1.46,.58Zm-15.08-31.65l-17.2-9.95c-.08-.06-.17-.11-.25-.17-.13-.07-.25-.14-.38-.2-.09-.05-.19-.09-.28-.12-2.01-.83-4.49-.54-6.92,.86-4.75,2.74-8.47,9.16-8.47,14.61,0,3.08,1.22,5.55,3.34,6.78l17.4,10.07c-3.8,4.36-8.07,8.07-12.59,10.68-7.17,4.14-13.77,4.88-18.58,2.11-4.75-2.74-7.37-8.73-7.37-16.84,0-17.97,12.76-39.96,28.44-49.01,4.32-2.5,8.43-3.76,12.08-3.76,2.4,0,4.59,.55,6.5,1.65,4.75,2.74,7.37,8.73,7.37,16.84,0,5.29-1.13,10.92-3.08,16.47Zm23.3-22.95c-.05,.62-.12,1.25-.19,1.88-.12,1.15-.26,2.31-.43,3.47-.12,.81-.25,1.62-.4,2.44-.16,.92-.36,1.85-.55,2.78-.21,1-.42,2.01-.67,3.01-.1,.41-.22,.82-.33,1.22-1.46,5.61-3.44,11.23-5.9,16.73l-.07-.04-10.41-6.02c2.37-6.38,3.72-12.9,3.72-18.99,0-9.97-3.5-17.49-9.87-21.16-6.42-3.71-14.79-2.96-23.56,2.11-17.06,9.85-30.94,33.78-30.94,53.34,0,9.97,3.5,17.49,9.87,21.16,2.69,1.55,5.72,2.32,8.98,2.32,4.52,0,9.49-1.49,14.59-4.43,5.22-3.02,10.13-7.36,14.45-12.48l10.41,6.03,.07,.04c-3.63,4.92-7.61,9.47-11.85,13.55-.14,.14-.28,.29-.43,.42-.75,.72-1.52,1.4-2.29,2.08-.7,.62-1.4,1.25-2.11,1.84-.64,.53-1.28,1.05-1.93,1.56-.92,.72-1.84,1.42-2.77,2.09-.52,.37-1.04,.76-1.56,1.12-1.48,1.01-2.98,1.98-4.5,2.86-1.54,.89-3.07,1.68-4.58,2.39-.82,.39-1.62,.68-2.43,1.01-.67,.28-1.35,.59-2.01,.83-1.03,.37-2.03,.64-3.03,.92-.43,.12-.86,.28-1.28,.38-1.07,.26-2.11,.43-3.15,.59-.34,.05-.69,.14-1.03,.18-1.04,.13-2.04,.17-3.04,.19-.33,0-.66,.04-.99,.04-.96-.01-1.88-.1-2.8-.21-.35-.04-.71-.06-1.06-.11-.85-.14-1.67-.35-2.49-.57-.39-.11-.79-.19-1.17-.32-.74-.25-1.46-.56-2.17-.89-.63-.29-1.27-.53-1.87-.87-8.58-4.95-13.3-15.58-13.3-29.93,0-30.9,21.93-68.7,48.89-84.26,7.57-4.37,14.81-6.58,21.26-6.58,4.16,0,7.98,.94,11.36,2.79l.8,.46c.63,.38,1.22,.82,1.81,1.27,.49,.37,.96,.74,1.42,1.14,.42,.37,.81,.78,1.21,1.19,.47,.49,.93,.98,1.36,1.51,.32,.39,.61,.82,.91,1.24,.44,.62,.88,1.24,1.27,1.91,.24,.4,.44,.83,.66,1.25,.39,.75,.78,1.5,1.12,2.3,.18,.43,.33,.88,.49,1.33,.32,.85,.64,1.7,.9,2.6,.15,.51,.25,1.06,.38,1.58,.22,.89,.45,1.76,.62,2.7,.13,.75,.21,1.54,.31,2.32,.1,.77,.23,1.52,.3,2.33,.14,1.62,.21,3.29,.21,5.02s-.09,3.53-.23,5.32Z"/><path d="M236.65,261.06c2.59-1.5,4.69-5.12,4.69-8.09s-2.1-4.17-4.69-2.67c-2.59,1.5-4.69,5.12-4.69,8.09s2.1,4.17,4.69,2.67Z"/><path d="M236.65,159.04c-2.59,1.5-4.69,5.12-4.69,8.09s2.1,4.17,4.69,2.67c2.59-1.5,4.69-5.12,4.69-8.09s-2.1-4.17-4.69-2.67Z"/></svg>