<?xml version="1.0" encoding="UTF-8"?><svg id="Layer_1" xmlns="http://www.w3.org/2000/svg" viewBox="0 0 350 350"><path d="M230.34,180c7.72-8.64,2.77-19.26-2.73-22.56l-.72-1.24c.02-8.9-4.1-12.52-8.92-15.27,1.46-.39,2.94-.7,3.38-2.53,2.51-.63,3.03-1.81,3.27-3.03,.65-.44,2.84-1.66,2.6-3.77,1.22-.85,1.92-1.94,1.55-3.47,1.33-1.44,1.66-2.62,1.11-3.71,1.59-1.98,.87-2.99,.22-4.01,1.18-2.14,.13-4.45-3.18-4.06-1.33-1.94-4.19-1.51-4.65-1.51-.5-.61-1.16-1.16-3.16-.89-1.31-1.18-2.77-.96-4.28-.39-1.79-1.4-2.97-.26-4.34,.15-2.16-.7-2.66,.24-3.71,.65-2.36-.5-3.08,.57-4.21,1.7l-1.33-.02c-3.53,2.05-5.3,6.28-5.93,8.44-.63-2.16-2.4-6.39-5.96-8.44l-1.33,.02c-1.13-1.13-1.85-2.2-4.21-1.7-1.07-.39-1.55-1.35-3.71-.65-.87-.26-1.7-.85-2.66-.83-.5,.02-1.05,.2-1.66,.68-1.51-.57-2.97-.76-4.28,.39-2.01-.24-2.68,.26-3.16,.89-.44,0-3.32-.44-4.65,1.51-3.32-.39-4.34,1.92-3.16,4.06-.68,1.03-1.37,2.05,.22,4.01-.55,1.09-.22,2.29,1.11,3.71-.35,1.53,.35,2.62,1.55,3.47-.24,2.12,1.96,3.34,2.6,3.77,.24,1.22,.76,2.38,3.27,3.03,.41,1.81,1.92,2.14,3.38,2.53-4.82,2.77-8.92,6.39-8.92,15.27l-.72,1.24c-5.52,3.29-10.47,13.94-2.7,22.56,.5,2.7,1.35,4.65,2.12,6.78,1.13,8.66,8.53,12.72,10.47,13.2,2.86,2.14,5.91,4.19,10.01,5.61,3.88,3.95,8.12,5.45,12.33,5.45h.2c4.23,0,8.44-1.51,12.3-5.45,4.12-1.42,7.16-3.45,10.01-5.61,1.96-.48,9.34-4.52,10.47-13.2,.74-2.14,1.61-4.08,2.12-6.78Zm-6.98-24.08c-.28,3.58-18.96-12.48-15.73-13.02,8.75-1.44,16.01,3.69,15.73,13.02Zm-8.25,17.84c-4.69,3.03-11.45,1.07-15.1-4.36-3.64-5.45-2.79-12.3,1.9-15.34,4.69-3.03,11.45-1.07,15.1,4.36,3.64,5.43,2.79,12.3-1.9,15.34Zm-13.02-55.26c.15,.81,.35,1.31,.55,1.46,1.03-1.11,1.88-2.25,3.23-3.32,0,.63-.33,1.31,.48,1.81,.72-.96,1.68-1.81,2.97-2.55-.61,1.07-.11,1.4,.24,1.83,.98-.85,1.92-1.68,3.71-2.36-.5,.59-1.18,1.18-.46,1.88,1.03-.63,2.03-1.27,4.43-1.7-.55,.59-1.66,1.2-.98,1.81,1.27-.48,2.68-.85,4.23-1.03-.74,.61-1.35,1.2-.74,1.68,1.35-.41,3.23-.98,5.06-.5l-1.16,1.18c-.13,.15,2.7,.11,4.58,.15-.7,.96-1.37,1.85-1.79,3.49,.2,.2,1.11,.09,1.99,0-.89,1.9-2.44,2.36-2.81,3.18,.55,.41,1.31,.31,2.14,.02-.65,1.33-1.99,2.25-3.08,3.32,.26,.2,.74,.31,1.85,.17-1,1.05-2.18,2.01-3.6,2.88,.24,.28,1.11,.28,1.92,.31-1.29,1.24-2.92,1.9-4.49,2.73,.76,.52,1.33,.39,1.92,.39-1.09,.89-2.94,1.35-4.67,1.92,.33,.52,.65,.65,1.35,.79-1.81,1.03-4.45,.55-5.17,1.07,.17,.52,.7,.85,1.29,1.11-2.94,.17-10.97-.11-12.54-6.2,3.01-3.32,8.51-7.18,17.95-12-7.35,2.44-13.98,5.76-19.55,10.25-6.52-3.08-2.03-10.75,1.16-13.79Zm-6.59,21.97c4.65-.07,10.36,3.4,10.34,6.65-.02,2.88-4.04,5.19-10.32,5.15-6.15-.09-10.3-2.92-10.27-5.72,.02-2.29,5.04-6.24,10.25-6.09Zm-23.58-2.47c.72-.13,1.03-.28,1.35-.79-1.72-.55-3.58-1.03-4.67-1.92,.59,0,1.16,.13,1.92-.39-1.55-.83-3.21-1.48-4.49-2.73,.81-.02,1.66,0,1.92-.31-1.42-.87-2.6-1.81-3.6-2.88,1.11,.13,1.59,.02,1.85-.17-1.07-1.07-2.44-1.98-3.08-3.32,.83,.28,1.59,.39,2.14-.02-.37-.81-1.92-1.29-2.81-3.18,.87,.09,1.81,.2,1.99,0-.39-1.64-1.11-2.55-1.79-3.49,1.88-.02,4.71,0,4.58-.15l-1.16-1.18c1.81-.48,3.71,.09,5.06,.5,.61-.48-.02-1.07-.74-1.68,1.55,.22,2.94,.55,4.23,1.03,.68-.59-.44-1.2-.98-1.81,2.4,.44,3.4,1.07,4.43,1.7,.72-.7,.04-1.29-.46-1.88,1.81,.65,2.75,1.51,3.71,2.36,.33-.44,.85-.76,.24-1.83,1.29,.72,2.27,1.59,2.97,2.55,.79-.5,.48-1.18,.48-1.81,1.35,1.07,2.18,2.2,3.23,3.32,.22-.15,.39-.65,.55-1.46,3.19,3.05,7.68,10.71,1.16,13.76-5.56-4.49-12.19-7.81-19.55-10.25,9.45,4.8,14.94,8.68,17.95,12-1.53,6.09-9.58,6.37-12.54,6.2,.59-.26,1.11-.61,1.29-1.11-.72-.5-3.34-.04-5.17-1.05Zm11.52,4.62c3.23,.55-15.44,16.58-15.73,13.02-.28-9.34,7-14.48,15.73-13.02Zm-19.81,35.8c-4.54-3.6-6-14.14,2.42-18.85,5.06-1.33,1.7,20.68-2.42,18.85Zm17.43,18.83c-2.55,1.51-8.77,.89-13.2-5.34-2.97-5.26-2.6-10.58-.5-12.15,3.12-1.88,7.96,.65,11.67,4.91,3.25,3.84,4.73,10.6,2.03,12.59Zm-5.06-22.95c-4.69-3.03-5.54-9.88-1.9-15.34s10.41-7.4,15.1-4.36c4.69,3.03,5.54,9.88,1.9,15.34-3.64,5.45-10.41,7.4-15.1,4.36Zm19.59,33.64c-5.63,.24-11.15-4.54-11.08-6.2-.09-2.44,6.87-4.34,11.37-4.21,4.54-.2,10.67,1.44,10.67,3.62,.11,2.12-5.5,6.89-10.95,6.78Zm11.3-23.93c.04,5.69-5.02,10.32-11.28,10.34-6.24,.04-11.34-4.56-11.39-10.23v-.11c-.04-5.69,5.02-10.32,11.28-10.34,6.24-.04,11.34,4.56,11.39,10.23v.11Zm15.75,8.18c-4.84,6.63-11.43,6.87-13.85,5.04-2.55-2.38-.61-9.75,2.9-13.81,4.01-4.47,8.29-7.37,11.3-5.1,1.99,1.99,3.19,9.42-.35,13.87Zm1.96-32.87c8.42,4.73,6.98,15.27,2.42,18.85-4.12,1.81-7.48-20.18-2.42-18.85Z"/><rect x="140.5" y="232.05" width="10.12" height="10.12"/><rect x="154.88" y="232.05" width="10.12" height="10.12"/><rect x="169.25" y="232.05" width="10.12" height="10.12"/><rect x="183.63" y="232.05" width="10.12" height="10.12"/><rect x="198.01" y="232.05" width="10.12" height="10.12"/><rect x="212.38" y="232.05" width="10.12" height="10.12"/><rect x="226.76" y="232.05" width="10.12" height="10.12"/><rect x="241.14" y="232.05" width="10.12" height="10.12"/><path d="M276.97,222.16c-7.88,0-14.3,6.41-14.3,14.29,0,7.88,6.42,14.3,14.3,14.3,7.88,0,14.29-6.42,14.29-14.3,0-7.88-6.41-14.29-14.29-14.29Zm0,23.6c-5.13,0-9.31-4.18-9.31-9.31,0-5.13,4.18-9.31,9.31-9.31s9.31,4.18,9.31,9.31-4.18,9.31-9.31,9.31Z"/><path d="M115.12,222.16c-7.88,0-14.3,6.41-14.3,14.29,0,7.88,6.41,14.3,14.3,14.3s14.3-6.42,14.3-14.3c0-7.88-6.41-14.29-14.3-14.29Zm0,23.6c-5.13,0-9.31-4.18-9.31-9.31,0-5.13,4.18-9.31,9.31-9.31s9.31,4.18,9.31,9.31-4.18,9.31-9.31,9.31Z"/><path d="M276.57,126.75c7.88,0,14.29-6.41,14.29-14.29,0-7.88-6.41-14.3-14.29-14.3s-14.3,6.42-14.3,14.3c0,7.88,6.42,14.29,14.3,14.29Zm0-23.6c5.13,0,9.31,4.18,9.31,9.31,0,5.13-4.18,9.31-9.31,9.31-5.13,0-9.31-4.18-9.31-9.31s4.18-9.31,9.31-9.31Z"/><path d="M114.72,126.75c7.88,0,14.3-6.41,14.3-14.29,0-7.88-6.41-14.3-14.3-14.3-7.88,0-14.3,6.42-14.3,14.3s6.41,14.29,14.3,14.29Zm0-23.6c5.13,0,9.31,4.18,9.31,9.31s-4.18,9.31-9.31,9.31-9.31-4.18-9.31-9.31,4.18-9.31,9.31-9.31Z"/><rect x="269.04" y="142.99" width="14.33" height="66.6"/><path d="M271.98,86.04H75.79c-19.02,0-34.5,15.48-34.5,34.5v8.68s0,41.58,0,41.58v8.73s0,41.58,0,41.58v7.85c0,19.02,15.48,34.5,34.5,34.5h196.19c19.02,0,34.5-15.48,34.5-34.5V120.54c0-19.02-15.48-34.5-34.5-34.5ZM46.28,134.21h46.84s0,31.6,0,31.6H46.28s0-31.6,0-31.6Zm0,50.31h46.84s0,31.6,0,31.6H46.28s0-31.6,0-31.6Zm255.21,44.44c0,16.27-13.24,29.51-29.51,29.51H75.79c-16.27,0-29.51-13.24-29.51-29.51v-7.85s51.83,0,51.83,0v-41.58H46.28s0-8.73,0-8.73h51.83v-41.58H46.28s0-8.68,0-8.68c0-16.27,13.24-29.51,29.51-29.51h196.19c16.27,0,29.51,13.24,29.51,29.51v108.42Z"/></svg>