<?xml version="1.0" encoding="UTF-8"?><svg id="Layer_1" xmlns="http://www.w3.org/2000/svg" viewBox="0 0 350 350"><path d="M235.71,58.01l-28.08-16.21h0s0,0,0,0l-55.6,32.1-73.84,42.63-.65,.37h0s0,1.44,0,1.44v1.44s0,83.19,0,83.19l29.9,17.26v55.37s1.25,.72,1.25,.72c4.26,2.47,10.92,2.48,15.16,.02l1.25-.72v-45.2s18.74,10.82,18.74,10.82l5.99-3.46v67.33s1.25,.72,1.25,.72c2.14,1.24,4.88,1.86,7.62,1.86s5.42-.61,7.53-1.83l1.25-.72v-77.56s26.7-15.41,26.7-15.41v13.43s1.25,.72,1.25,.72c1.07,.62,2.29,1.08,3.58,1.39,.34,.08,.71,.06,1.06,.12,.98,.17,1.96,.34,2.97,.34,0,0,0,0,0,0,.56,0,1.09-.14,1.64-.19,.79-.07,1.6-.09,2.36-.27,1.28-.31,2.49-.76,3.55-1.37l1.25-.72v-23.64s24.74-14.28,24.74-14.28v67.42s0,0,0,0l1.25,.72c2.14,1.24,4.88,1.85,7.62,1.86,0,0,0,0,0,0,.39,0,.75-.11,1.14-.13,.96-.06,1.94-.11,2.85-.33,.26-.06,.47-.2,.73-.28,.99-.29,1.97-.6,2.81-1.09l1.25-.72v-77.64s19.71-11.38,19.71-11.38V82.95s0-1.44,0-1.44v-1.44s0,0,0,0l-38.22-22.06ZM82.53,122.66l58.81,33.95v77.43s-16.25-9.38-16.25-9.38l-4.99-2.88h0s-7.67-4.43-7.67-4.43l-4.99-2.88-24.91-14.38V122.66Zm4.99-5.76l68.13-39.34,51.98-30.01,58.81,33.96-2.49,1.44-120.12,69.35-58.81-33.96h0s2.49-1.44,2.49-1.44h0Zm181.42,46.35l-14.72,8.5-4.99,2.88-7.67,4.43-4.99,2.88-24.74,14.28-4.99,2.88-7.68,4.43-4.99,2.88-26.7,15.41-4.99,2.88-7.67,4.43-4.99,2.88-3.5,2.02h0s0-77.43,0-77.43l122.61-70.79v77.42ZM120.1,227.54v45.05c-2.3,.8-5.37,.8-7.67-.02v-49.46s7.67,4.43,7.67,4.43Zm34.72,74.55v-67.19s7.67-4.43,7.67-4.43v71.64c-2.3,.81-5.37,.79-7.67-.02Zm44.35-79.51v-13.28s7.67-4.43,7.67-4.43v17.73c-.16,.06-.35,.08-.52,.13-2.23,.64-5.01,.61-7.16-.15Zm50.06,29.54c-2.3,.79-5.36,.79-7.67-.02v-67.27s7.67-4.43,7.67-4.43v71.73Z"/><path d="M130.3,126.7c4.74,2.74,10.82,4.11,16.89,4.11,6.01,0,12.01-1.34,16.67-4.03h0c4.92-2.84,7.62-6.77,7.62-11.07,0-4.34-2.75-8.31-7.74-11.19-1.07-.62-2.22-1.14-3.41-1.62-9.32-3.75-21.84-3.25-30.15,1.56-2.62,1.51-4.56,3.35-5.85,5.37-1.13,1.77-1.77,3.69-1.77,5.69,0,4.34,2.75,8.31,7.74,11.19Zm16.56-21.25c.05,0,.1,0,.15,0,5.18,.02,10.37,1.14,14.24,3.37,3.38,1.95,5.24,4.39,5.24,6.87s-1.82,4.84-5.13,6.75c-7.71,4.46-20.8,4.42-28.57-.06-3.38-1.95-5.24-4.39-5.24-6.87,0-2.44,1.82-4.83,5.13-6.75,.62-.36,1.32-.64,2-.94,3.55-1.56,7.83-2.38,12.18-2.38Z"/><path d="M189.11,93.06c2.19,1.26,4.68,2.2,7.31,2.88,3.06,.79,6.31,1.22,9.58,1.22,6.01,0,12.01-1.34,16.67-4.04,1.53-.88,2.77-1.9,3.86-2.98,2.4-2.37,3.77-5.13,3.77-8.09,0-4.34-2.75-8.31-7.74-11.19-9.44-5.46-24.18-5.49-33.56-.06-4.92,2.84-7.62,6.77-7.62,11.07,0,4.33,2.75,8.3,7.74,11.18Zm2.38-17.93c3.84-2.21,9-3.32,14.18-3.32,5.23,0,10.48,1.13,14.39,3.38,3.38,1.95,5.24,4.39,5.24,6.87,0,2.44-1.82,4.84-5.13,6.75-7.71,4.45-20.8,4.42-28.57-.07-3.38-1.95-5.24-4.39-5.24-6.86s1.82-4.84,5.13-6.75Z"/></svg>