<?xml version="1.0" encoding="UTF-8"?><svg id="Layer_1" xmlns="http://www.w3.org/2000/svg" viewBox="0 0 350 350"><polygon points="35.95 140.2 35.95 140.2 33.46 140.2 33.46 141.64 35.95 143.08 35.95 140.2"/><g><path d="M280.63,198.68v-37.07s0-1.44,0-1.44v-1.44s0,0,0,0l-17.53-10.12-27.38-15.81,5.84-3.38c2.07-1.19,3.29-2.92,3.37-4.74,.06-1.52-.69-2.93-2.06-3.87l-62.11-42.74c-3.89-2.68-8-5.26-12.3-7.74-4.3-2.48-8.78-4.84-13.42-7.09L80.96,27.44c-.68-.33-1.46-.56-2.28-.69-1.8-.28-3.81-.05-5.66,.58-.7,.24-1.39,.5-2.01,.85l-16.35,9.45c-2.07,1.19-3.29,2.92-3.37,4.74-.06,1.52,.69,2.93,2.06,3.87l60.84,41.86c-.23,.15-.42,.31-.65,.47-.51,.35-1.01,.71-1.49,1.07-.47,.35-.93,.71-1.36,1.07-.52,.43-1.02,.88-1.49,1.33-.32,.3-.63,.6-.93,.9-.55,.57-1.07,1.15-1.55,1.74-.16,.2-.32,.39-.48,.59-.54,.71-1.04,1.44-1.49,2.18-.04,.07-.1,.13-.14,.2l-71.15,41.08h0s0,1.44,0,1.44h2.49s0,0,0,0v2.88s-2.49-1.44-2.49-1.44v14.13s34.6,19.98,34.6,19.98v65.77s140.89,81.34,140.89,81.34l71.69-41.39v-24.95s33.3-20.1,33.3-20.1l1.29-.75v-.03s0-14.09,0-14.09v-1.44s0-1.44,0-1.44h0s-34.6-19.98-34.6-19.98ZM57.23,42.87c-.24-.17-.33-.26-.33-.45,0-.21,.13-.32,.38-.46l5.32-3.15,10.89-6.3c.87-.51,1.92-.78,2.89-.87,.96-.08,1.85,.02,2.4,.29l74.1,35.8c9.05,4.37,17.49,9.24,25.06,14.45l60.65,41.74c.51,.35,.48,1.11-.05,1.42l-7.8,4.58-4.99,2.88-3.03,1.75c-1.74,1-4.18,1.11-5.28,.58l-5.5-2.66-.43-.21-2.07-1-.26-.12-2.32-1.12-8.9-4.3-12.97-6.27-.98-.47-6.43-3.11-13.52-6.53-8.57-4.14-12.18-5.88c-3.38-1.64-6.65-3.36-9.85-5.13-.83-.46-1.68-.91-2.49-1.38-1.34-.77-2.64-1.56-3.95-2.34-.99-.6-2.01-1.19-2.98-1.8-.46-.29-.88-.59-1.34-.88-.16-.1-.32-.21-.48-.32-.21-.13-.41-.27-.62-.41-.81-.53-1.64-1.06-2.43-1.6-.3-.2-.62-.4-.91-.6L57.23,42.87Zm149.72,95.95v10.53c-.01,2.46-1.87,4.87-5.22,6.8-7.74,4.47-20.78,4.48-28.46,.04-3.1-1.79-4.91-4.06-5.07-6.38l-.21-2.97-2.89,.72c-15.86,3.99-34.64,1.98-46.71-4.99-7.32-4.23-11.41-9.72-11.52-15.41v-7.37c2.28,2.71,5.28,5.21,9.02,7.37h0c12.69,7.34,31.25,9.65,47.94,6.09,1.07,2.9,3.46,5.51,6.94,7.52,4.66,2.69,10.65,4.04,16.65,4.04,6.03,0,12.08-1.36,16.8-4.08,1.03-.59,1.89-1.26,2.73-1.93Zm-99.89-33.81c.22-1.26,.66-2.5,1.26-3.71,.03-.07,.06-.14,.09-.2,.51-1.01,1.16-2.01,1.93-2.97,0,0,0,0,.01-.01,.61-.77,1.31-1.52,2.07-2.25,.13-.13,.27-.25,.4-.38,.65-.6,1.36-1.18,2.11-1.75,.22-.17,.43-.34,.66-.51,.86-.61,1.77-1.21,2.74-1.78,.1-.06,.18-.12,.28-.18,.05-.03,.11-.05,.16-.07,1.1,.72,2.19,1.45,3.33,2.15,2.87,1.79,5.84,3.51,8.89,5.19v5.75s0,.89,0,.89c0,.54,.12,1.07,.23,1.6,.17,.85,.48,1.68,.94,2.47,.93,1.58,2.36,3.02,4.32,4.16,3.23,1.86,7.37,2.79,11.52,2.79,3.47,0,6.91-.68,9.86-1.98,.62-.27,1.24-.53,1.8-.86,.18-.11,.33-.24,.5-.35l15.53,7.5,28.76,13.9c-.76,.71-1.63,1.4-2.71,2.03-7.74,4.47-20.77,4.48-28.45,.04-3.11-1.8-4.91-4.06-5.07-6.38l-.21-2.97-2.89,.72c-15.86,3.99-34.64,1.98-46.71-4.99-6.22-3.6-10.06-8.09-11.16-12.86-.19-.82-.31-1.65-.33-2.49,0-.12-.03-.24-.03-.35,0-.72,.07-1.44,.19-2.15Zm-4.99-.1c-.01,.09-.01,.17-.02,.26h-.16s0,1.96,0,1.96c0,.01,0,.02,0,.03,0,.01,0,.02,0,.03v20.04c.07,3.56,1.25,6.99,3.37,10.16l-29.72-17.16,26.53-15.32Zm-34.02,65.07l-29.61-17.1v-8.36s29.61,17.09,29.61,17.09v8.37Zm0-45.43v31.31s-27.11-15.65-27.11-15.65h0s27.11-15.66,27.11-15.66h0Zm138.39,114.09v2.88s0,74.14,0,74.14L73.04,238.63v-65.77s0-48.31,0-48.31l133.41,77.02v37.07Zm-74.14-85.63c9.99,2.15,21.13,2.21,31.54,0,1.07,2.9,3.45,5.51,6.94,7.52,4.66,2.7,10.65,4.04,16.65,4.04s12.08-1.36,16.8-4.08c4.95-2.85,7.69-6.79,7.71-11.11v-11.35s3.33,1.61,3.33,1.61c1.13,.55,2.51,.81,3.95,.81,2.05,0,4.22-.54,6-1.57l5.52-3.19h0s42.41,24.49,42.41,24.49h0s-64.21,37.07-64.21,37.07l-76.64-44.25Zm143.34,11.49v34.19s-64.21,37.07-64.21,37.07v-34.19s64.21-37.07,64.21-37.07Zm-34.6,96.99v8.37s-29.61-17.1-29.61-17.1v-8.37s29.61,17.09,29.61,17.09Zm34.6,17.1l-64.21,37.07v-57.14s32.1,18.54,32.1,18.54l32.1-18.54v20.07Zm-29.61-8.73v-8.37s26.08-15.05,26.08-15.05v8.37s-26.08,15.06-26.08,15.06Zm34.6-35.42l-3.87-2.24c.19-.94,.17-1.9-.06-2.86-.2-.8-.58-1.55-1.06-2.26-.8-1.2-1.94-2.29-3.46-3.16-5.42-3.13-13.94-3.12-19.39,.03-3.04,1.75-4.78,4.33-4.78,7.07s1.72,5.27,4.72,7c3.56,2.06,8.58,2.81,13.31,2.04l3.57,2.06-26.08,15.05-29.61-17.1,61.71-35.63,2.49-1.44h0s2.49,1.44,2.49,1.44l27.11,15.65h0s-25.97,15-25.97,15l-1.14-.66Zm29.61-1.65l-25.97,15v-8.37s25.97-14.99,25.97-14.99v8.36Z"/><path d="M148.31,92.13c7.51,0,13.61-4.13,13.61-9.22,0-5.09-6.09-9.22-13.61-9.22s-13.61,4.13-13.61,9.22c0,5.09,6.09,9.22,13.61,9.22Zm-.01-13.9c4.63,0,8.39,2.01,8.39,4.49s-3.76,4.5-8.39,4.5c-4.63,0-8.39-2.01-8.39-4.5s3.76-4.5,8.39-4.5Z"/></g></svg>