<?xml version="1.0" encoding="UTF-8"?><svg id="Layer_1" xmlns="http://www.w3.org/2000/svg" viewBox="0 0 350 350"><defs><style>.cls-1{fill:#251f20;}</style></defs><path class="cls-1" d="M145.57,52.86s-.02,0-.03,.01l-11.58,6.79,10.89-6.18c.19-.24,.43-.46,.72-.62Z"/><path class="cls-1" d="M177.96,301.44c-.43,.07-.84,.18-1.28,.24,.43-.06,.85-.17,1.28-.24Z"/><path class="cls-1" d="M190.81,297.13c-.64,.34-1.29,.65-1.94,.95,.65-.3,1.31-.61,1.94-.95Z"/><path class="cls-1" d="M184.95,299.66c-.69,.24-1.37,.48-2.07,.68,.7-.2,1.38-.44,2.07-.68Z"/><path class="cls-1" d="M182.88,300.34c-1.6,.46-3.24,.83-4.92,1.11,1.67-.29,3.31-.64,4.92-1.11Z"/><path class="cls-1" d="M188.87,298.08c-1.27,.59-2.58,1.12-3.92,1.58,1.33-.46,2.64-.99,3.92-1.58Z"/><path class="cls-1" d="M192.25,296.42c.8-.46,1.5-1.06,2.26-1.57-1.2,.82-2.43,1.6-3.71,2.28,.47-.25,.98-.44,1.44-.71Z"/><path class="cls-1" d="M131.89,290.63c13.33,7.7,26.22,11.58,37.88,11.58,2.36,0,4.66-.21,6.92-.53-2.22,.31-4.49,.48-6.83,.48-11.68,0-24.67-3.85-37.97-11.54Z"/><path class="cls-1" d="M188.86,292.52c-1.27,.69-2.57,1.29-3.9,1.83,1.34-.53,2.64-1.14,3.9-1.83Z"/><path class="cls-1" d="M192.47,290.21l.75-.43c.28-.21,.55-.45,.83-.67-.5,.4-1.05,.73-1.58,1.1Z"/><path class="cls-1" d="M141.47,290.01c-2.34-1.12-4.7-2.32-7.09-3.7,2.38,1.37,4.74,2.59,7.09,3.7Z"/><path class="cls-1" d="M168.85,297.1c-.85-.02-1.71-.03-2.57-.09,.87,.06,1.72,.08,2.57,.09Z"/><path class="cls-1" d="M155.78,295.27c-1.66-.43-3.32-.9-5.01-1.47,1.69,.57,3.36,1.05,5.01,1.47Z"/><path class="cls-1" d="M163.02,296.69c-1.41-.19-2.84-.43-4.28-.73,1.44,.3,2.87,.54,4.28,.73Z"/><path class="cls-1" d="M182.77,295.13c-1.09,.36-2.2,.66-3.33,.92,1.13-.26,2.24-.57,3.33-.92Z"/><path class="cls-1" d="M148.59,293.01c-1.99-.74-3.98-1.53-6.01-2.46,2.02,.93,4.02,1.73,6.01,2.46Z"/><path class="cls-1" d="M175.95,296.69c-.9,.13-1.82,.23-2.74,.3,.93-.07,1.84-.18,2.74-.3Z"/><path class="cls-1" d="M147.69,51.88c-.7,.35-1.43,.59-2.11,.98,0,0,0,0,0,0,.67-.38,1.41-.63,2.1-.97h.02Z"/><path class="cls-1" d="M205.71,58.79c-20.62-11.91-40.16-14.59-55.74-7.96,0,0,0,0,0,0,15.6-6.61,35.14-3.93,55.74,7.96Z"/><path class="cls-1" d="M147.67,51.89c-.69,.34-1.42,.59-2.1,.97-.29,.16-.52,.38-.72,.62l2.82-1.6Z"/><path class="cls-1" d="M180.42,53.73c2.18,.51,4.4,1.19,6.64,1.95-2.24-.76-4.46-1.44-6.64-1.95Z"/><path class="cls-1" d="M173.94,52.61c2.08,.25,4.19,.59,6.35,1.09-2.16-.5-4.27-.84-6.35-1.09Z"/><path class="cls-1" d="M154.98,54.24c1.28-.42,2.59-.78,3.93-1.06-1.34,.28-2.65,.65-3.93,1.06Z"/><path class="cls-1" d="M160.94,52.8c1.35-.21,2.73-.35,4.14-.44-1.4,.08-2.78,.22-4.14,.44Z"/><path class="cls-1" d="M153.27,54.79c-.93,.35-1.83,.78-2.73,1.21l-.48,.27c1.06-.52,2.1-1.06,3.21-1.48Z"/><path class="cls-1" d="M188.32,56.12c2.18,.78,4.38,1.69,6.6,2.71-2.22-1.02-4.42-1.92-6.6-2.71Z"/><path class="cls-1" d="M167.85,52.2c-.28,0-.55,.04-.83,.05,1.9-.03,3.83,.03,5.8,.23-1.68-.17-3.34-.28-4.97-.28Z"/><path class="cls-1" d="M149.01,51.13l-1.32,.75c.75-.37,1.51-.73,2.28-1.06-.33,.04-.66,.13-.96,.31Z"/><path class="cls-1" d="M149.97,50.82s0,0,0,0c-.77,.33-1.53,.69-2.28,1.06h-.02c.76-.37,1.52-.73,2.3-1.06Z"/><path class="cls-1" d="M144.86,53.49c-.61,.77-.73,1.86-.22,2.77,0,.01,.02,.02,.02,.03l2.14-1.26c1.82-1.03,3.72-1.91,5.7-2.65-.04-.1-.05-.21-.1-.31-.5-.89-1.48-1.35-2.43-1.25-.78,.33-1.54,.69-2.3,1.07l-2.82,1.6Z"/><path class="cls-1" d="M150.54,56c-.84,.4-1.69,.74-2.5,1.2,.65-.37,1.35-.6,2.02-.93l.48-.27Z"/><path class="cls-1" d="M144.66,56.29c.69,1.17,2.2,1.58,3.38,.91,.81-.46,1.66-.81,2.5-1.2l.93-.53c1.1-.62,1.5-1.95,1.04-3.09-1.98,.74-3.89,1.62-5.7,2.65l-2.14,1.26Z"/><path class="cls-1" d="M190.36,291.41c-.33,.19-.58,.44-.79,.73,.19-.11,.38-.2,.57-.31,.81-.48,1.55-1.08,2.32-1.62l-2.11,1.19Z"/><path class="cls-1" d="M189.54,292.2c.07-.04,.15-.06,.22-.1,.14-.08,.25-.19,.38-.27-.19,.11-.38,.2-.57,.31-.01,.02-.02,.04-.03,.06Z"/><path class="cls-1" d="M203.52,286.85l-8.96,5.05c-1.58,1.16-3.25,2.16-4.98,3.07,.48,.68,1.22,1.1,2.01,1.1,.42,0,.84-.1,1.23-.33l2.25-1.28c3.12-2.16,5.97-4.67,8.45-7.62Z"/><path class="cls-1" d="M197.47,289.54c-.92,.82-1.87,1.6-2.86,2.32l8.96-5.08c.29-.35,.54-.74,.82-1.1l-6.92,3.85Z"/><path class="cls-1" d="M190.14,291.83c1.01-.6,1.99-1.24,2.94-1.94h.02s.02-.03,.04-.04c.03-.02,.05-.05,.08-.07l-.75,.43c-.77,.54-1.51,1.14-2.32,1.62Z"/><g><path class="cls-1" d="M75.69,135.41s-.04,.04-.06,.06c-.02,.03-.02,.07-.04,.1-1.84,3.74-3.21,7.96-4.08,12.62-.02,.11-.03,.23-.05,.33-.69,3.77-1.09,7.78-1.12,12.07-.12,20.04,7.29,42.46,19.14,62.02,.23,.38,.45,.75,.68,1.12,3.26,5.29,6.82,10.37,10.68,15.11,.12,.14,.22,.3,.34,.44,8.46,10.32,18.18,19.06,28.52,25.12,9.77,5.72,19.25,8.61,27.83,8.61,.49,0,.96-.07,1.45-.09,.03,0,.06,.02,.1,.02,.04,0,.07-.03,.11-.04,4.15-.19,8.07-1.05,11.71-2.63,0,0,0,0,0,0,.35-.08,.66-.25,.94-.45,.68-.32,1.37-.61,2.03-.98,11.85-6.74,18.44-20.82,18.55-39.65,.03-4.31-.34-8.74-.97-13.23-.01-.14,.02-.27-.02-.42,0-.03-.03-.05-.04-.09-.79-5.35-2.01-10.78-3.65-16.2-.06-.18-.13-.37-.18-.55-8.3-27.08-26.47-53.87-48.17-69.24-.03-.02-.05-.04-.08-.06-2.05-1.45-4.13-2.8-6.24-4.04-2.23-1.31-4.44-2.44-6.63-3.45-.02,0-.03-.02-.04-.03,0,0-.02,0-.03,0-14.03-6.45-27.14-6.85-37.46-.97-5.66,3.22-10.09,8.16-13.21,14.46Zm-.1,20.1l17.24,24.64c4.25,6.07,6.11,13.53,4.51,18.13l-6.1,17.65c-9.93-17.73-16.02-37.5-15.9-55.3,.01-1.77,.12-3.46,.25-5.13Zm56.64,104.61c-8.88-5.2-17.24-12.51-24.73-21.07l16.24-4.04c3.68-.91,9.3,2.6,13.33,8.37l17.12,24.47c-6.82-.65-14.25-3.21-21.96-7.72Zm39.78,4.01l-6.79-28.65c-1.42-6-.1-10.77,3.22-11.6l18.39-4.58c.37,3.34,.63,6.66,.61,9.89-.1,16.62-5.6,28.96-15.43,34.93Zm8.86-69.9l-20.57-12.05c-5.27-3.09-10.08-10-11.7-16.8l-6.53-27.57c16.87,13.89,30.99,34.78,38.8,56.42Zm-45.04-61.11l7.92,33.41c1.93,8.16,7.57,16.17,14.03,19.96l25.44,14.9c1.27,4.33,2.26,8.65,2.97,12.94l-18.95,4.71c-6.23,1.55-9,8.62-6.87,17.59l7.05,29.75c-2.24,.81-4.65,1.25-7.14,1.47l-19.12-27.33c-5.43-7.75-12.73-11.8-18.63-10.35l-18.61,4.63c-3.35-4.18-6.47-8.62-9.34-13.24l7.48-21.64c2.11-6.11,.05-15.2-5.14-22.62l-20.33-29.06c.58-2.85,1.4-5.46,2.39-7.9l23.84,13.96c2.54,1.49,5.09,2.25,7.45,2.25,1.19,0,2.33-.19,3.4-.58,2.71-1,4.7-3.16,5.77-6.24l7.56-21.85c1.19,.61,2.36,1.15,3.56,1.85,1.79,1.05,3.55,2.2,5.29,3.41Zm-44.46-7.83c4.12-2.34,8.8-3.5,13.88-3.5,5.34,0,11.15,1.37,17.19,3.91l-7.74,22.38c-.57,1.64-1.5,2.71-2.78,3.18-1.74,.63-4.08,.19-6.59-1.29l-24.18-14.16c2.6-4.53,6-8.13,10.22-10.53Z"/><path class="cls-1" d="M114.04,164.7c-5.12,2.91-7.97,8.88-8.01,16.8-.09,15.3,10.64,34.08,23.94,41.87,4.06,2.38,8.02,3.58,11.64,3.58,2.57,0,4.98-.6,7.12-1.83,5.12-2.91,7.97-8.88,8.02-16.8,.09-15.29-10.64-34.08-23.94-41.87-6.94-4.06-13.6-4.69-18.77-1.74Zm37.72,43.58c-.04,6.07-1.99,10.5-5.5,12.5-3.56,2.01-8.45,1.41-13.78-1.72-11.92-6.98-21.55-23.82-21.47-37.53,.04-6.06,1.99-10.5,5.49-12.49,1.38-.78,2.95-1.17,4.68-1.17,2.73,0,5.83,.97,9.1,2.88,11.92,6.99,21.56,23.82,21.47,37.53Z"/><path class="cls-1" d="M130.28,156.76c.59,.35,1.22,.52,1.84,.52,.55,0,1.08-.14,1.56-.4,1.01-.58,1.62-1.69,1.64-2.96h0c0-1.71-1.02-3.51-2.5-4.38-1.11-.65-2.38-.69-3.4-.11-1.01,.58-1.62,1.69-1.63,2.95-.01,1.71,1.01,3.51,2.49,4.38Z"/><path class="cls-1" d="M166.15,207.41c.62,.37,1.29,.55,1.94,.55,.57,0,1.12-.14,1.62-.42,1.05-.6,1.69-1.76,1.7-3.11h0c0-1.84-1.13-3.84-2.73-4.77-1.17-.69-2.5-.73-3.56-.12-1.06,.6-1.69,1.76-1.7,3.1-.01,1.83,1.13,3.83,2.73,4.77Z"/><path class="cls-1" d="M109.36,215.17c-1.17-.69-2.5-.74-3.56-.14s-1.7,1.76-1.71,3.12c0,1.84,1.14,3.84,2.72,4.76,.63,.37,1.3,.56,1.95,.56,.57,0,1.12-.14,1.61-.42,1.06-.6,1.7-1.77,1.71-3.11,0-1.84-1.14-3.84-2.72-4.76Z"/><path class="cls-1" d="M153.22,244.54c-1.05,.6-1.69,1.76-1.7,3.11,0,1.83,1.13,3.83,2.73,4.77,.62,.37,1.29,.55,1.94,.55,.57,0,1.12-.14,1.61-.42,1.06-.6,1.7-1.76,1.71-3.11h0c0-1.84-1.13-3.84-2.73-4.77-1.16-.68-2.49-.73-3.56-.13Z"/><path class="cls-1" d="M93.79,154.06c-1.17-.69-2.5-.74-3.56-.13-1.05,.6-1.69,1.76-1.7,3.11,0,1.83,1.13,3.83,2.73,4.77,.62,.37,1.29,.55,1.94,.55,.57,0,1.13-.14,1.62-.42,1.06-.6,1.69-1.76,1.7-3.11,.01-1.83-1.13-3.83-2.73-4.77Z"/><path class="cls-1" d="M205.71,58.79c-20.6-11.9-40.14-14.58-55.74-7.96,.96-.1,1.93,.36,2.43,1.25,.06,.1,.06,.21,.1,.31,.46,1.14,.06,2.47-1.04,3.09l-.93,.53c.9-.43,1.8-.85,2.73-1.21,.56-.21,1.14-.37,1.71-.55,1.28-.42,2.59-.78,3.93-1.06,.67-.14,1.35-.26,2.03-.37,1.35-.21,2.73-.35,4.14-.44,.65-.04,1.28-.1,1.94-.11,.28,0,.55-.05,.83-.05,1.63,0,3.29,.11,4.97,.28,.37,.04,.75,.09,1.12,.14,2.08,.25,4.19,.59,6.35,1.09,.05,.01,.09,.02,.13,.03,2.18,.51,4.4,1.19,6.64,1.95,.42,.14,.84,.28,1.26,.43,2.18,.78,4.38,1.69,6.6,2.71,.42,.19,.85,.41,1.27,.61,2.32,1.11,4.66,2.3,7.02,3.67,44.27,25.56,80.29,87.64,80.29,138.39,0,2.92-.13,5.73-.36,8.46-.08,.91-.23,1.74-.34,2.63-.21,1.78-.41,3.56-.72,5.25-.18,1-.44,1.93-.66,2.9-.33,1.47-.66,2.96-1.07,4.35-.29,.98-.65,1.88-.98,2.82-.45,1.28-.9,2.57-1.42,3.78-.39,.91-.85,1.76-1.28,2.63-.56,1.12-1.13,2.24-1.76,3.28-.5,.82-1.04,1.59-1.58,2.36-.67,.97-1.36,1.93-2.1,2.82-.59,.72-1.22,1.39-1.86,2.05-.79,.83-1.59,1.63-2.44,2.37-.68,.6-1.4,1.17-2.12,1.72-.63,.48-1.3,.91-1.96,1.35,0,0,0,0,0,0l-55.59,31.54c.17-.26,.29-.57,.46-.84,6.14-10.08,9.45-23.27,9.45-38.9,0-52.33-37.14-116.35-82.79-142.71-13.63-7.88-26.79-11.68-38.66-11.5-.43,0-.88-.05-1.31-.04l42.3-24,13.34-7.57c-.67,.33-1.37,.56-2.02,.93-1.18,.67-2.69,.27-3.38-.91,0-.01-.02-.02-.02-.03-.52-.91-.4-2,.22-2.77l-10.89,6.18-57.5,32.62c-.06,.03-.09,.09-.14,.12-.67,.33-1.34,.65-1.99,1.01-.1,.06-.22,.09-.32,.15-.18,.11-.33,.25-.52,.36-3.73,2.21-7.07,4.97-9.99,8.26-.09,.1-.18,.19-.26,.29-1.45,1.67-2.8,3.47-4.04,5.38-.1,.15-.19,.31-.29,.46-1.23,1.95-2.37,4.02-3.38,6.21-.02,.03-.03,.07-.05,.11-1.01,2.21-1.89,4.54-2.67,6.98-.04,.11-.08,.22-.11,.33-.72,2.32-1.32,4.76-1.83,7.28-.08,.4-.16,.8-.24,1.21-.46,2.47-.82,5.02-1.07,7.65-.04,.43-.07,.87-.1,1.31-.23,2.76-.37,5.58-.37,8.52,0,52.33,37.14,116.35,82.79,142.7,13.3,7.68,26.29,11.54,37.97,11.54,2.33,0,4.61-.18,6.83-.48,.43-.06,.85-.17,1.28-.24,1.68-.28,3.32-.65,4.92-1.11,.7-.2,1.39-.44,2.07-.68,1.34-.46,2.64-.98,3.92-1.58,.65-.3,1.3-.61,1.94-.95,1.28-.68,2.5-1.46,3.71-2.28,.41-.28,.87-.48,1.27-.78l67.57-38.11c16.22-9.22,25.15-28.57,25.15-54.48,0-52.33-37.14-116.35-82.79-142.7Zm-2.14,227.99l-8.96,5.08c.98-.73,1.94-1.5,2.86-2.32l6.92-3.85c-.28,.36-.53,.75-.82,1.1ZM96.52,92.78c10.78,0,22.82,3.66,35.37,10.9,44.27,25.56,80.29,87.65,80.29,138.39,0,20.54-5.91,36.49-16.73,45.89-.46,.4-.93,.77-1.41,1.15-.28,.22-.54,.46-.83,.67-.03,.02-.05,.05-.08,.07l-.04,.03h-.02c-.95,.71-1.93,1.35-2.94,1.95-.13,.08-.25,.19-.38,.27-.07,.04-.15,.06-.22,.1-.22,.12-.46,.2-.68,.32-1.26,.68-2.56,1.3-3.9,1.83-.72,.29-1.45,.54-2.19,.78-1.09,.35-2.2,.66-3.33,.92-1.14,.27-2.31,.47-3.49,.64-.9,.13-1.82,.23-2.74,.3-1.43,.11-2.88,.14-4.35,.11-.85-.02-1.71-.03-2.57-.09-1.08-.08-2.16-.17-3.26-.32-1.41-.18-2.84-.43-4.28-.73-.98-.2-1.97-.44-2.96-.69-1.65-.42-3.32-.9-5.01-1.47-.72-.24-1.45-.52-2.18-.79-1.99-.73-3.99-1.54-6.01-2.46-.37-.17-.74-.36-1.1-.54-2.35-1.11-4.71-2.33-7.09-3.7-44.27-25.56-80.29-87.64-80.29-138.39,0-2.71,.13-5.31,.34-7.85,.03-.43,.06-.86,.1-1.29,.22-2.4,.55-4.71,.95-6.95,.08-.46,.17-.91,.26-1.36,.44-2.23,.96-4.39,1.58-6.44,.08-.27,.18-.53,.27-.8,.62-1.95,1.32-3.83,2.1-5.61,.11-.25,.2-.51,.31-.75,.83-1.84,1.77-3.56,2.77-5.21,.2-.33,.4-.67,.61-.99,1.02-1.59,2.12-3.09,3.3-4.48,.22-.26,.45-.5,.67-.75,1.25-1.4,2.57-2.73,3.99-3.92,.1-.08,.2-.15,.3-.23,1.33-1.09,2.74-2.05,4.21-2.94,.23-.14,.43-.33,.66-.46,.16-.09,.33-.15,.49-.24,1.17-.65,2.37-1.24,3.6-1.76,.74-.31,1.5-.56,2.26-.82,4.26-1.49,8.82-2.3,13.67-2.3Zm96.3,202.96c-.39,.22-.81,.33-1.23,.33-.79,0-1.53-.42-2.01-1.1,1.73-.91,3.4-1.91,4.98-3.07l8.96-5.05c-2.48,2.95-5.33,5.46-8.45,7.62l-2.25,1.28Z"/></g></svg>