<?xml version="1.0" encoding="UTF-8"?><svg id="outlines" xmlns="http://www.w3.org/2000/svg" viewBox="0 0 180.02272 131.28811"><rect x="-.00739" y="3.49221" width="176.65601" height="127.67622"/><rect x="3.03726" y=".44756" width="176.65601" height="127.67622" fill="#eaeaea"/><path d="m179.94302,128.37402H2.78726V.19726h177.15625l-.00049,128.17676Zm-176.65576-.5h176.15576l.00049-127.17676H3.28726v127.17676Z"/><polygon points="179.69327 19.25476 3.03726 19.39961 3.03727 7.31367 179.69327 7.34443 179.69327 19.25476"/><rect x="3.03727" y=".44756" width="176.65601" height="6.86609" fill="#fff"/><path d="m179.94351,7.56347H2.78726V.19726h177.15625v7.36621ZM3.28726,7.06347h176.15625V.69726H3.28726v6.36621Z"/><circle cx="6.46557" cy="3.88566" r="1.6133" fill="#ff737c"/><circle cx="11.50713" cy="3.88566" r="1.6133" fill="#ffd200"/><circle cx="16.54868" cy="3.88566" r="1.6133" fill="#00f376"/><path d="m11.04574,13.03059l-1.64479-2.21164h-1.6337s3.27848,4.38992,3.27848,4.38992l3.27854-4.38988h-1.62259s-1.65593,2.2116-1.65593,2.2116Z" fill="#fff"/><path d="m30.32766,10.81912h-1.28917s-.43344-.00001-.43344-.00001l-1.82264,2.22272-1.8115-2.22275h-.43343s-1.28918-.00001-1.28918-.00001h-.01111s-.00003,4.38991-.00003,4.38991h1.30029s.00002-2.78952.00002-2.78952l2.24492,2.78955,2.25608-2.78951-.00002,2.78953h1.3114s.00003-4.3899.00003-4.3899h-.02223Z" fill="#fff"/><path d="m15.98383,10.819h-1.3114s-.00003,4.3899-.00003,4.3899h1.3114s.00003-4.3899.00003-4.3899Z" fill="#fff"/><path d="m16.33198,15.20891h1.62258s1.65594-2.2116,1.65594-2.2116l1.64479,2.21164h1.6337s-3.27848-4.38992-3.27848-4.38992l-3.27854,4.38988Z" fill="#fff"/><polygon points="50.88929 32.67005 50.88929 25.1265 28.52801 25.12651 28.52801 32.67005 3.03726 32.67006 3.03725 128.12378 179.69326 128.12377 179.69327 32.67005 50.88929 32.67005" fill="#fff"/><path d="m179.94351,128.37402H2.78726V32.41992h25.49072v-7.54297h22.86133v7.54297h128.8042v95.9541Zm-176.65625-.5h176.15625V32.91992H50.63931v-7.54297h-21.86133v7.54297H3.28726v94.9541Z"/><path d="m179.94302,128.37402H2.78726V.19726h177.15625l-.00049,128.17676Zm-176.65576-.5h176.15576l.00049-127.17676H3.28726v127.17676Z"/><rect x="14.25404" y="41.56963" width="31.57949" height="31.57949" fill="#fff"/><path d="m46.08364,73.39941H14.00405v-32.08008h32.07959v32.08008Zm-31.57959-.5h31.07959v-31.08008H14.50405v31.08008Z"/><rect x="51.96991" y="41.56963" width="31.57949" height="31.57949" fill="#fff"/><path d="m83.79947,73.39941h-32.07959v-32.08008h32.07959v32.08008Zm-31.57959-.5h31.07959v-31.08008h-31.07959v31.08008Z"/><rect x="89.68577" y="41.56963" width="31.57949" height="31.57949" fill="#fff"/><path d="m121.51529,73.39941h-32.07959v-32.08008h32.07959v32.08008Zm-31.57959-.5h31.07959v-31.08008h-31.07959v31.08008Z"/><rect x="14.25404" y="79.28549" width="31.57949" height="31.57949" fill="#fff"/><path d="m46.08364,111.11523H14.00405v-32.08008h32.07959v32.08008Zm-31.57959-.5h31.07959v-31.08008H14.50405v31.08008Z"/><rect x="51.96991" y="79.28549" width="31.57949" height="31.57949" fill="#fff"/><path d="m83.79947,111.11523h-32.07959v-32.08008h32.07959v32.08008Zm-31.57959-.5h31.07959v-31.08008h-31.07959v31.08008Z"/><rect x="89.68577" y="79.28549" width="31.57949" height="31.57949" fill="#fff"/><path d="m121.51529,111.11523h-32.07959v-32.08008h32.07959v32.08008Zm-31.57959-.5h31.07959v-31.08008h-31.07959v31.08008Z"/><polygon points="67.75965 47.21804 70.5925 51.59778 75.63328 52.93857 72.3433 56.98618 72.62582 62.19457 67.75965 60.3164 62.89348 62.19457 63.176 56.98618 59.88602 52.93857 64.9268 51.59778 67.75965 47.21804" fill="#ffd200"/><path d="m62.6232,62.5664l.29785-5.49707-3.47314-4.27344,5.32129-1.41504,2.99023-4.62305,2.99072,4.62305,5.32129,1.41504-3.47314,4.27344.29785,5.49707-5.13672-1.98242-5.13623,1.98242Zm5.13623-2.51758l4.5957,1.77344-.2666-4.91895,3.10693-3.82227-4.76074-1.2666-2.67529-4.13672-2.6748,4.13672-4.76074,1.2666,3.10693,3.82227-.2666,4.91895,4.59521-1.77344Z"/><polygon points="104.16228 85.20567 106.99514 89.5854 112.03591 90.92619 108.74593 94.97381 109.02845 100.18219 104.16228 98.30402 99.29612 100.18219 99.57863 94.97381 96.28866 90.92619 101.32943 89.5854 104.16228 85.20567" fill="#ffd200"/><path d="m109.29898,100.55468l-5.13672-1.9834-5.13672,1.9834.29834-5.49805-3.47314-4.27344,5.3208-1.41504,2.99072-4.62207,2.99072,4.62207,5.3208,1.41504-3.47314,4.27344.29834,5.49805Zm-5.13672-2.51855l4.5957,1.77441-.26709-4.91992,3.10693-3.82227-4.76025-1.2666-2.67529-4.13574-2.67529,4.13574-4.76025,1.2666,3.10693,3.82227-.26709,4.91992,4.5957-1.77441Z"/><path d="m39.37612,57.36553c.0001-1.4025-.94522-2.57273-2.22956-2.94202.64843-1.16907.49014-2.66549-.50198-3.65771-.99188-.99212-2.48835-1.15098-3.65776-.50342-.36746-1.28685-1.53909-2.23461-2.94385-2.23461-1.40265,0-2.57268.94498-2.94207,2.22884-1.16898-.64669-2.66452-.48755-3.65636.50429-.99241.99241-1.15127,2.48921-.50323,3.65857-1.28434.36852-2.22975,1.53827-2.22985,2.94077-.0001,1.4026.94517,2.57263,2.22942,2.94212-.64838,1.16888-.49,2.66529.50203,3.65752.99208.99222,2.48878,1.15098,3.65829.50323.36958,1.28329,1.53947,2.22788,2.94178,2.22788,1.40265,0,2.57268-.94488,2.94207-2.22874,1.16898.64669,2.66457.48755,3.65641-.50429.99063-.99068,1.1505-2.48382.5066-3.65213,1.28343-.36929,2.22797-1.53837,2.22807-2.94029Z" fill="#b400ff"/><path d="m30.04312,66.9414c-1.36572,0-2.5957-.86133-3.08691-2.12695-1.24316.54883-2.72314.29004-3.68994-.67773-.9668-.9668-1.22656-2.44629-.67627-3.68848-1.26709-.49219-2.12842-1.72168-2.12842-3.08789s.86133-2.5957,2.12842-3.08594c-.5498-1.24316-.28906-2.72363.67773-3.69043.9668-.96582,2.4458-1.22754,3.6875-.67773.49121-1.26758,1.72168-2.12891,3.08789-2.12891,1.36914,0,2.6001.86426,3.08984,2.13379,1.24268-.54883,2.72266-.28809,3.68848.67773.9668.9668,1.22656,2.44629.67627,3.68945,1.26709.49121,2.12842,1.7207,2.12842,3.08691s-.86133,2.5957-2.12744,3.08594c.54541,1.24121.28369,2.71875-.68066,3.68359-.96631.96777-2.4458,1.22754-3.6875.67773-.49072,1.26758-1.7207,2.12891-3.0874,2.12891Zm-2.78857-2.84961l.08691.30176c.34717,1.20605,1.4585,2.04785,2.70166,2.04785,1.24414,0,2.35498-.84277,2.70166-2.04883l.08691-.30176.27441.15234c1.09912.60938,2.47949.41992,3.3584-.46191.89209-.89258,1.07861-2.24023.46484-3.35449l-.15137-.27441.30078-.08691c1.20557-.34668,2.04736-1.45703,2.04736-2.7002,0-1.24414-.84229-2.35449-2.04834-2.70117l-.30225-.08691.15234-.27441c.60938-1.09863.41992-2.48047-.45996-3.36035s-2.26123-1.06934-3.35986-.46094l-.2749.15234-.08643-.30273c-.3457-1.20898-1.45752-2.05371-2.70361-2.05371-1.24365,0-2.35498.84277-2.70215,2.04883l-.08691.30078-.27441-.15137c-1.09668-.60645-2.47852-.41699-3.3584.46191-.88037.87988-1.06982,2.2627-.46143,3.36133l.15234.27441-.30225.08691c-1.20605.3457-2.04834,1.45605-2.04834,2.7002,0,1.24316.84229,2.35449,2.04883,2.70215l.30176.08691-.15234.27441c-.60938,1.09766-.41992,2.47949.45996,3.35938.88037.87988,2.26123,1.06934,3.36035.46094l.27441-.15234Z"/><circle cx="30.04379" cy="57.35937" r="1.92072" fill="#ffd200"/><path d="m30.04361,59.53027c-1.19678,0-2.17041-.97363-2.17041-2.1709s.97363-2.1709,2.17041-2.1709c1.19727,0,2.1709.97363,2.1709,2.1709s-.97363,2.1709-2.1709,2.1709Zm0-3.8418c-.9209,0-1.67041.75-1.67041,1.6709s.74951,1.6709,1.67041,1.6709c.92139,0,1.6709-.75,1.6709-1.6709s-.74951-1.6709-1.6709-1.6709Z"/><rect x="98.24168" y="46.80795" width="16.588" height="16.588" fill="#00f376"/><path d="m115.07974,63.6455h-17.08789v-17.08789h17.08789v17.08789Zm-16.58789-.5h16.08789v-16.08789h-16.08789v16.08789Z"/><circle cx="26.9315" cy="93.04333" r="6.28598" fill="#ff737c"/><path d="m26.9313,99.5791c-3.604,0-6.53564-2.93164-6.53564-6.53613,0-3.60352,2.93164-6.53516,6.53564-6.53516s6.53613,2.93164,6.53613,6.53516c0,3.60449-2.93213,6.53613-6.53613,6.53613Zm0-12.57129c-3.32812,0-6.03564,2.70703-6.03564,6.03516s2.70752,6.03613,6.03564,6.03613,6.03613-2.70801,6.03613-6.03613-2.70801-6.03516-6.03613-6.03516Z"/><circle cx="36.25496" cy="101.81024" r="3.66682" fill="#ff737c"/><path d="m36.25503,105.72753c-2.15967,0-3.91699-1.75684-3.91699-3.91699s1.75732-3.91699,3.91699-3.91699,3.91699,1.75684,3.91699,3.91699-1.75732,3.91699-3.91699,3.91699Zm0-7.33398c-1.88428,0-3.41699,1.5332-3.41699,3.41699s1.53271,3.41699,3.41699,3.41699,3.41699-1.5332,3.41699-3.41699-1.53271-3.41699-3.41699-3.41699Z"/><path d="m80.91397,93.46415c.00005-1.20063-2.71615-2.17477-6.07399-2.18246,2.36975-2.37923,3.60243-4.98824,2.75338-5.83728-.84905-.84914-3.45897.38315-5.83906,2.75247-.00669-3.35923-.98067-6.07716-2.18198-6.07716-1.20083,0-2.17452,2.71562-2.18198,6.07293-2.37923-2.36874-4.9879-3.60046-5.837-2.75132-.84929.84924.3831,3.45901,2.7529,5.83863-3.35803.00674-6.07442.9799-6.07447,2.18073-.00005,1.20063,2.7161,2.17477,6.07399,2.18246-2.3699,2.37933-3.60262,4.98833-2.75358,5.83748.849.84905,3.45834-.38286,5.8382-2.7517.00765,3.35692.98125,6.07196,2.18193,6.07196,1.20083,0,2.17448-2.71562,2.18193-6.07293,2.37923,2.36865,4.988,3.60046,5.83709,2.75132.8488-.84885-.38185-3.45603-2.74886-5.83449,3.35668-.00731,6.07144-.98019,6.07148-2.18063Z" fill="#00ecea"/><path d="m69.57241,105.05078c-1.30322,0-2.30957-2.43066-2.42188-5.74414-2.42236,2.26562-4.854,3.27344-5.7749,2.35059-.92236-.92188.08643-3.35254,2.35156-5.77441-3.31396-.1123-5.74561-1.11816-5.74561-2.42188s2.43213-2.30859,5.74609-2.4209c-2.26465-2.42188-3.27295-4.85352-2.35107-5.77539.91992-.92188,3.35107.08496,5.77393,2.34961.11182-3.31348,1.11768-5.74414,2.42188-5.74414,1.30469,0,2.31055,2.43262,2.42188,5.74805,2.42236-2.26367,4.85352-3.27441,5.77588-2.35059.92236.92188-.08643,3.35254-2.35156,5.77441,3.31396.1123,5.74561,1.11816,5.74561,2.42188h0c-.00049,1.30371-2.43115,2.30859-5.74316,2.4209,2.26172,2.4209,3.26855,4.85059,2.34717,5.77148-.92285.92285-3.35352-.08691-5.77441-2.34961-.11182,3.3125-1.11768,5.74414-2.42139,5.74414Zm-1.93359-6.92285l.00146.59961c.00781,3.43164,1.0249,5.82324,1.93213,5.82324.90771,0,1.92432-2.3916,1.93164-5.82422l.00146-.59961.4248.42383c2.43164,2.4209,4.84229,3.39355,5.48438,2.75195.6416-.6416-.33008-3.05078-2.74951-5.48145l-.42285-.42578.59961-.00098c3.43066-.00684,5.82178-1.02344,5.82227-1.93066,0-.90723-2.39209-1.9248-5.82471-1.93262l-.6001-.00098.42334-.42578c2.42285-2.43164,3.396-4.8418,2.75391-5.4834-.64258-.64258-3.05322.33105-5.48584,2.75293l-.42529.42383-.00098-.59961c-.00684-3.43457-1.02393-5.82812-1.93213-5.82812-.90771,0-1.9248,2.3916-1.93213,5.82324l-.00146.59961-.4248-.42383c-2.43262-2.4209-4.84326-3.39355-5.48389-2.75098-.6416.64258.33105,3.05273,2.75342,5.48535l.42334.42578-.6001.00098c-3.43311.00684-5.8252,1.02344-5.8252,1.93066s2.39209,1.9248,5.82471,1.93262l.6001.00098-.42334.42578c-2.42334,2.43164-3.396,4.8418-2.75391,5.4834.63965.64062,3.05078-.33008,5.48486-2.75195l.4248-.42383Z"/><circle cx="69.57288" cy="93.46031" r="1.7461" fill="#ffd200"/><path d="m69.5729,95.45605c-1.10059,0-1.99609-.89551-1.99609-1.99609s.89551-1.99609,1.99609-1.99609,1.99609.89551,1.99609,1.99609-.89551,1.99609-1.99609,1.99609Zm0-3.49219c-.82471,0-1.49609.6709-1.49609,1.49609s.67139,1.49609,1.49609,1.49609,1.49609-.6709,1.49609-1.49609-.67139-1.49609-1.49609-1.49609Z"/><rect x="14.25404" y="116.88677" width="31.57949" height="11.32302" fill="#fff"/><path d="m46.08364,128.45996H14.00405v-11.82324h32.07959v11.82324Zm-31.57959-.5h31.07959v-10.82324H14.50405v10.82324Z"/><rect x="51.96991" y="116.88677" width="31.57949" height="11.32302" fill="#fff"/><path d="m83.79947,128.45996h-32.07959v-11.82324h32.07959v11.82324Zm-31.57959-.5h31.07959v-10.82324h-31.07959v10.82324Z"/><rect x="89.68577" y="116.88677" width="31.57949" height="11.32302" fill="#fff"/><path d="m121.51529,128.45996h-32.07959v-11.82324h32.07959v11.82324Zm-31.57959-.5h31.07959v-10.82324h-31.07959v10.82324Z"/><rect x="132.56851" y="32.67871" width=".5" height="96.25098"/><rect x="139.9072" y="101.16576" width="26.28716" height="8.27012"/><path d="m166.69448,109.93554h-27.28711v-9.26953h27.28711v9.26953Zm-26.28711-1h25.28711v-7.26953h-25.28711v7.26953Z"/><rect x="139.9072" y="41.3551" width="32.6455" height="8.77085" fill="#fff"/><path d="m172.80288,50.37597h-33.14551v-9.27051h33.14551v9.27051Zm-32.64551-.5h32.14551v-8.27051h-32.14551v8.27051Z"/><polyline points="169.02483 44.80667 167.37747 46.469 165.72678 44.82464" fill="#fff"/><polygon points="167.37857 46.82226 165.55044 45.00097 165.90298 44.64746 167.37661 46.11523 168.84732 44.63086 169.20279 44.98242 167.37857 46.82226"/><rect x="139.9072" y="58.97409" width="32.6455" height="8.77085" fill="#fff"/><path d="m172.80288,67.99511h-33.14551v-9.27148h33.14551v9.27148Zm-32.64551-.5h32.14551v-8.27148h-32.14551v8.27148Z"/><polyline points="169.02483 62.42566 167.37747 64.088 165.72678 62.44364" fill="#fff"/><polygon points="167.37857 64.4414 165.55044 62.62011 165.90298 62.2666 167.37661 63.73437 168.84732 62.25 169.20279 62.60156 167.37857 64.4414"/><rect x="139.7226" y="73.25412" width="19.49385" height="5.61187" rx="2.80593" ry="2.80593" fill="#eaeaea"/><rect x="139.7226" y="80.63815" width="29.90533" height="5.61187" rx="2.80593" ry="2.80593" fill="#eaeaea"/><rect x="160.69325" y="73.25412" width="13.80814" height="5.61187" rx="2.80593" ry="2.80593" fill="#eaeaea"/></svg>