<?xml version="1.0" encoding="UTF-8"?><svg xmlns="http://www.w3.org/2000/svg" viewBox="185 0 280 224.92"><defs><style>.cls-1{fill:#f2f2f2;}.cls-2{fill:#e6e4e3;}.cls-3{fill:#ededed;}.cls-4{fill:#fff;}.cls-5{fill:#251f20;}.cls-7{fill:#9729f6;}.cls-8{fill:#e7e7e7;mix-blend-mode:multiply;}.cls-9{isolation:isolate;}</style></defs><g class="cls-9"><g id="Layer_2">
<g><rect x="185.77" y="7.17" width="268.64" height="217.65"/><g><rect class="cls-3" x="191.76" y="1.19" width="268.64" height="217.65"/><path d="M460.78,219.21H191.38V.81H460.78s0,218.4,0,218.4Zm-268.64-.75H460.03V1.56H192.13V218.46Z"/></g><polygon points="460.4 47.46 191.76 47.85 191.76 14.69 460.4 14.77 460.4 47.46"/><g><rect class="cls-4" x="191.76" y="1.19" width="268.64" height="13.5"/><path d="M460.78,15.06H191.38V.81H460.78s0,14.25,0,14.25Zm-268.64-.75H460.03V1.56H192.13V14.31Z"/></g><g><circle class="cls-4" cx="198.5" cy="7.95" r="3.17"/><path d="M198.5,11.49c-1.96,0-3.55-1.59-3.55-3.55s1.59-3.55,3.55-3.55,3.55,1.59,3.55,3.55-1.59,3.55-3.55,3.55Zm0-6.34c-1.54,0-2.8,1.25-2.8,2.8s1.25,2.8,2.8,2.8,2.8-1.25,2.8-2.8-1.25-2.8-2.8-2.8Z"/></g><g><circle class="cls-4" cx="208.41" cy="7.95" r="3.17"/><path d="M208.41,11.49c-1.96,0-3.55-1.59-3.55-3.55s1.59-3.55,3.55-3.55,3.55,1.59,3.55,3.55-1.59,3.55-3.55,3.55Zm0-6.34c-1.54,0-2.8,1.25-2.8,2.8s1.25,2.8,2.8,2.8,2.8-1.25,2.8-2.8-1.25-2.8-2.8-2.8Z"/></g><g><circle class="cls-4" cx="218.32" cy="7.95" r="3.17"/><path d="M218.32,11.49c-1.96,0-3.55-1.59-3.55-3.55s1.59-3.55,3.55-3.55,3.55,1.59,3.55,3.55-1.59,3.55-3.55,3.55Zm0-6.34c-1.54,0-2.8,1.25-2.8,2.8s1.25,2.8,2.8,2.8,2.8-1.25,2.8-2.8-1.25-2.8-2.8-2.8Z"/></g><g><path class="cls-4" d="M210.2,30.42l-4.59-6.17h-4.55s9.14,12.24,9.14,12.24l9.14-12.24h-4.52s-4.62,6.17-4.62,6.17Z"/><path class="cls-4" d="M263.96,24.25h-3.59s-1.21,0-1.21,0l-5.08,6.2-5.05-6.2h-1.21s-3.59,0-3.59,0h-.03v12.24h3.63v-7.78s6.26,7.78,6.26,7.78l6.29-7.78v7.78h3.66v-12.24h-.06Z"/><path class="cls-4" d="M223.97,24.25h-3.66v12.24h3.66v-12.24Z"/><path class="cls-4" d="M224.94,36.49h4.52s4.62-6.17,4.62-6.17l4.59,6.17h4.55s-9.14-12.24-9.14-12.24l-9.14,12.24Z"/></g><rect class="cls-4" x="275.77" y="21.33" width=".5" height="18.5"/><rect class="cls-8" x="191.76" y="68.88" width="268.64" height="15.36"/><g><polygon class="cls-4" points="285.83 84.24 285.83 69.41 241.87 69.41 241.87 84.24 191.76 84.24 191.76 218.83 460.4 218.83 460.4 84.24 285.83 84.24"/><path d="M460.65,219.08H191.51V83.99h50.11v-14.83h44.46v14.83h174.57V219.08Zm-268.64-.5H460.15V84.49h-174.57v-14.83h-43.46v14.83h-50.11V218.58Z"/></g><g><rect class="cls-4" x="216.18" y="119.98" width="221.18" height="81.33"/><path d="M437.62,201.56H215.93V119.73h221.68v81.83Zm-221.18-.5h220.68V120.23H216.43v80.83Z"/></g><rect x="216.18" y="98.61" width="40.91" height="9.53"/><path d="M297.51,99.11v8.53h-39.91s0-8.53,0-8.53h39.91m.5-.5h-40.91v9.53h40.91v-9.53h0Z"/><g><line class="cls-4" x1="216.18" y1="137.99" x2="437.1" y2="137.99"/><rect x="216.18" y="137.74" width="220.92" height=".5"/></g><g><rect class="cls-4" x="220.24" y="124.75" width="50.31" height="8.47" rx="4.24" ry="4.24"/><path d="M266.32,133.47h-41.84c-2.47,0-4.49-2.01-4.49-4.49s2.01-4.49,4.49-4.49h41.84c2.47,0,4.49,2.01,4.49,4.49s-2.01,4.49-4.49,4.49Zm-41.84-8.47c-2.2,0-3.99,1.79-3.99,3.99s1.79,3.99,3.99,3.99h41.84c2.2,0,3.99-1.79,3.99-3.99s-1.79-3.99-3.99-3.99h-41.84Z"/></g><path d="M460.9,219.33H191.26V.69H460.9s0,218.65,0,218.65Zm-268.64-1H459.9V1.69H192.26V218.33Z"/></g><g><path class="cls-7" d="M281.59,171.57v-4.58l12.59-4.34v2.53l-11.69,3.92v.36l11.69,3.92v2.53l-12.59-4.34Z"/><path class="cls-7" d="M328.12,155.54l2.11,.66-8.77,26.82-2.14-.66,8.8-26.82Z"/><path class="cls-7" d="M355.35,175.91v-2.53l11.69-3.92v-.36l-11.69-3.92v-2.53l12.59,4.34v4.58l-12.59,4.34Z"/></g></g></g></svg>