<?xml version="1.0" encoding="UTF-8"?><svg id="Layer_1" xmlns="http://www.w3.org/2000/svg" viewBox="0 0 350 350"><path d="m74.99,74.98v200.04s200.03,0,200.03,0V74.98s-200.03,0-200.03,0Zm195.04,195.05H79.97s0-190.06,0-190.06h190.05s0,190.06,0,190.06Z"/><path d="m104.51,240.03c-3.13-.82-6.58-.05-9.03,2.4-3.67,3.67-3.67,9.62,0,13.28,3.67,3.67,9.62,3.67,13.28,0,1.19-1.19,1.95-2.63,2.37-4.15h68.33c.42,1.52,1.18,2.96,2.37,4.15,3.67,3.67,9.62,3.67,13.28,0,3.3-3.3,3.6-8.45.95-12.12l48.16-59.99c3.43,1.48,7.55.83,10.36-1.97,3.67-3.67,3.67-9.62,0-13.28-2.8-2.8-6.92-3.45-10.35-1.97l-48.04-59.93c2.65-3.67,2.36-8.81-.95-12.12-3.67-3.67-9.62-3.67-13.28,0-1.19,1.19-1.95,2.63-2.37,4.15h-68.46c-.42-1.52-1.18-2.96-2.37-4.15-3.67-3.67-9.62-3.67-13.28,0-3.67,3.67-3.67,9.62,0,13.28,2.45,2.45,5.91,3.22,9.03,2.4l37.94,65.06-37.93,64.96Zm6.62-136.57h68.46c.41,1.48,1.15,2.89,2.3,4.06l-20.2,34.6-50.82-37.76c.11-.29.18-.6.27-.9Zm75.08,6.55c2.02.53,4.16.4,6.1-.43l48.04,59.93c-.67.92-1.13,1.93-1.42,2.99h-28.13c-.42-1.5-1.18-2.94-2.37-4.13-3.39-3.39-8.7-3.61-12.39-.73l-30.33-22.53,20.5-35.1Zm-75.35,135.67l50.76-37.71,20.14,34.55c-1.15,1.18-1.9,2.58-2.3,4.06h-68.33c-.08-.3-.15-.61-.27-.9Zm75.22-5.65l-20.44-35.05,30.39-22.58c3.69,2.87,9,2.66,12.39-.73,1.19-1.19,1.96-2.64,2.37-4.15h28.13c.29,1.04.75,2.04,1.42,2.96l-48.16,59.99c-1.94-.83-4.08-.97-6.1-.44Zm6.95-68.4c-.84,2.18-.84,4.61,0,6.79l-29.92,22.23-14.91-25.56,14.97-25.63,29.85,22.18Zm-33.94,32.01l-48.67,36.16,34.91-59.77,13.77,23.61Zm-48.69-93.4l48.75,36.22-13.83,23.68-34.93-59.9Z"/></svg>