<svg width="280" height="336" viewBox="0 0 280 336" fill="none" xmlns="http://www.w3.org/2000/svg">
<path d="M178.112 2.27764L113.677 39.4821C104.86 44.5709 97.7168 56.8861 97.7168 66.9991V112.142C97.7168 122.246 104.86 126.317 113.677 121.228L135.328 108.728L146.209 136.319L157.09 96.1631L178.103 84.033C186.92 78.9441 194.063 66.629 194.063 56.516V11.3636C194.063 1.25986 186.92 -2.81125 178.103 2.27764H178.112Z" fill="black"/>
<path d="M213.854 181.277L0.0742188 304.705V151.123L213.854 27.7031V181.277Z" fill="black"/>
<path d="M220.128 184.903L6.35742 308.322V154.74L220.128 31.3203V184.903Z" fill="#F0F0F0"/>
<path d="M6.34739 308.785C6.26412 308.785 6.1901 308.767 6.11608 308.721C5.97729 308.637 5.88477 308.489 5.88477 308.323V154.74C5.88477 154.574 5.97729 154.426 6.11608 154.342L219.896 30.9228C220.035 30.8395 220.22 30.8395 220.358 30.9228C220.497 31.0061 220.59 31.1541 220.59 31.3207V184.903C220.59 185.07 220.497 185.218 220.358 185.301L6.57871 308.721C6.50469 308.758 6.43066 308.785 6.34739 308.785ZM6.81002 155.008V307.518L219.655 184.626V32.1256L6.81002 155.008Z" fill="black"/>
<path d="M62.2322 276.245C61.9731 276.245 61.7695 276.041 61.7695 275.782V122.542C61.7695 122.283 61.9731 122.079 62.2322 122.079C62.4912 122.079 62.6948 122.283 62.6948 122.542V275.782C62.6948 276.041 62.4912 276.245 62.2322 276.245Z" fill="black"/>
<g style="mix-blend-mode:multiply">
<path d="M62.2334 275.782L6.35742 308.324V154.741L62.2334 122.542V275.782Z" fill="#E2E0DF"/>
</g>
<path d="M74.6686 145.238C74.5113 145.238 74.354 145.155 74.2708 145.007C74.1412 144.785 74.2153 144.507 74.4373 144.378L194.498 75.0579C194.72 74.9283 194.998 75.0024 195.127 75.2244C195.257 75.4465 195.183 75.7241 194.961 75.8536L74.8999 145.174C74.8259 145.22 74.7427 145.238 74.6686 145.238Z" fill="black"/>
<path d="M92.9892 236.366L74.7617 246.886V238.309L92.9892 227.789V236.366Z" fill="white"/>
<path d="M74.7615 247.349C74.6782 247.349 74.6042 247.331 74.5301 247.284C74.3914 247.201 74.2988 247.053 74.2988 246.887V238.31C74.2988 238.143 74.3914 237.995 74.5301 237.912L92.7484 227.392C92.8872 227.308 93.0722 227.308 93.211 227.392C93.3498 227.475 93.4423 227.623 93.4423 227.789V236.367C93.4423 236.533 93.3498 236.681 93.211 236.764L74.9928 247.284C74.9187 247.322 74.8447 247.349 74.7615 247.349ZM75.2241 238.578V246.091L92.5171 236.107V228.594L75.2241 238.578Z" fill="black"/>
<path d="M116.341 222.876L98.123 233.396V224.819L116.341 214.299V222.876Z" fill="white"/>
<path d="M98.1228 233.859C98.0395 233.859 97.9655 233.841 97.8915 233.794C97.7527 233.711 97.6602 233.563 97.6602 233.396V224.819C97.6602 224.653 97.7527 224.505 97.8915 224.421L116.11 213.901C116.248 213.818 116.434 213.818 116.572 213.901C116.711 213.985 116.804 214.133 116.804 214.299V222.876C116.804 223.043 116.711 223.191 116.572 223.274L98.3541 233.794C98.2801 233.831 98.2061 233.859 98.1228 233.859ZM98.5854 225.088V232.601L115.878 222.617V215.104L98.5854 225.088Z" fill="black"/>
<path d="M220.128 40.8504L6.35742 164.27V154.74L220.128 31.3203V40.8504Z" fill="white"/>
<path d="M6.34739 164.733C6.26412 164.733 6.1901 164.714 6.11608 164.668C5.97729 164.585 5.88477 164.437 5.88477 164.27V154.749C5.88477 154.583 5.97729 154.435 6.11608 154.352L219.896 30.9228C220.035 30.8395 220.22 30.8395 220.358 30.9228C220.497 31.0061 220.59 31.1541 220.59 31.3207V40.8415C220.59 41.0081 220.497 41.1561 220.358 41.2394L6.57871 164.668C6.50469 164.705 6.43066 164.733 6.34739 164.733ZM6.81002 155.008V163.465L219.664 40.5824V32.1256L6.81002 155.008Z" fill="black"/>
<path d="M11.8775 157.923C12.6446 156.614 12.6516 155.192 11.8932 154.748C11.1348 154.303 9.8982 155.005 9.13111 156.314C8.36403 157.624 8.35699 159.046 9.11538 159.49C9.87378 159.934 11.1104 159.233 11.8775 157.923Z" fill="white"/>
<path d="M9.62186 160.088C9.35353 160.088 9.10372 160.023 8.88166 159.894C8.36351 159.598 8.08594 159.015 8.08594 158.247C8.08594 156.841 9.0482 155.184 10.2695 154.481C10.945 154.093 11.6019 154.046 12.12 154.342C12.6382 154.639 12.9158 155.221 12.9158 155.989C12.9158 157.396 11.9535 159.052 10.7322 159.755C10.3528 159.977 9.97345 160.088 9.62186 160.088ZM11.3798 155.073C11.1948 155.073 10.9727 155.147 10.7322 155.277C9.79766 155.814 9.01119 157.174 9.01119 158.238C9.01119 158.654 9.13147 158.959 9.34428 159.089C9.55709 159.209 9.89943 159.163 10.2695 158.95C11.204 158.414 11.9905 157.053 11.9905 155.989C11.9905 155.573 11.8702 155.268 11.6574 155.138C11.5834 155.092 11.4816 155.073 11.3798 155.073Z" fill="black"/>
<path d="M17.9693 154.397C18.7364 153.087 18.7434 151.665 17.985 151.221C17.2266 150.777 15.99 151.478 15.2229 152.788C14.4558 154.098 14.4488 155.519 15.2072 155.964C15.9656 156.408 17.2022 155.706 17.9693 154.397Z" fill="white"/>
<path d="M15.7195 156.564C15.4512 156.564 15.2014 156.499 14.9793 156.37C14.4612 156.073 14.1836 155.491 14.1836 154.723C14.1836 153.316 15.1459 151.66 16.3672 150.957C17.0426 150.568 17.6996 150.522 18.2177 150.818C18.7358 151.114 19.0134 151.697 19.0134 152.465C19.0134 153.871 18.0512 155.528 16.8298 156.231C16.4505 156.453 16.0711 156.564 15.7195 156.564ZM17.4775 151.549C17.2924 151.549 17.0704 151.623 16.8298 151.753C15.8953 152.289 15.1088 153.649 15.1088 154.713C15.1088 155.13 15.2291 155.435 15.4419 155.565C15.664 155.685 15.9971 155.639 16.3672 155.426C17.3017 154.889 18.0882 153.529 18.0882 152.465C18.0882 152.049 17.9679 151.743 17.7551 151.614C17.681 151.567 17.5793 151.549 17.4775 151.549Z" fill="black"/>
<path d="M24.0826 150.875C24.8497 149.566 24.8567 148.144 24.0983 147.7C23.3399 147.256 22.1033 147.957 21.3362 149.267C20.5691 150.576 20.5621 151.998 21.3205 152.442C22.0789 152.886 23.3155 152.185 24.0826 150.875Z" fill="white"/>
<path d="M21.8269 153.047C21.5586 153.047 21.3088 152.982 21.0867 152.853C20.5686 152.557 20.291 151.974 20.291 151.206C20.291 149.8 21.2533 148.143 22.4746 147.44C23.15 147.052 23.807 147.005 24.3251 147.301C24.8433 147.598 25.1208 148.18 25.1208 148.948C25.1208 150.355 24.1586 152.011 22.9372 152.714C22.5579 152.936 22.1785 153.047 21.8269 153.047ZM23.5849 148.032C23.3999 148.032 23.1778 148.106 22.9372 148.236C22.0027 148.773 21.2163 150.133 21.2163 151.197C21.2163 151.613 21.3366 151.918 21.5494 152.048C21.7622 152.178 22.1045 152.122 22.4746 151.909C23.4091 151.373 24.1956 150.012 24.1956 148.948C24.1956 148.532 24.0753 148.227 23.8625 148.097C23.7885 148.051 23.6867 148.032 23.5849 148.032Z" fill="black"/>
<path d="M75.6189 229.67L75.1562 230.472L179.204 290.544L179.667 289.742L75.6189 229.67Z" fill="#BE3536"/>
<path d="M174.891 291.882L174.678 290.984L179.128 289.967L177.787 285.599L178.675 285.331L180.303 290.642L174.891 291.882Z" fill="#BE3536"/>
<path d="M272.45 134.875H271.525V117.342L208.266 80.97L208.728 80.165L272.219 116.676C272.367 116.759 272.45 116.907 272.45 117.073V134.875Z" fill="#BE3536"/>
<path d="M268.203 131.803L268.879 131.174L271.987 134.514L275.096 131.174L275.772 131.803L271.987 135.874L268.203 131.803Z" fill="#BE3536"/>
<path d="M208.497 152.704L74.8262 229.88V157.738L208.497 80.5625V152.704Z" fill="#FCECEA"/>
<path d="M74.8259 230.343C74.7426 230.343 74.6686 230.324 74.5946 230.278C74.4558 230.195 74.3633 230.047 74.3633 229.88V157.738C74.3633 157.572 74.4558 157.424 74.5946 157.34L208.266 80.165C208.405 80.0817 208.59 80.0817 208.728 80.165C208.867 80.2483 208.96 80.3963 208.96 80.5629V152.705C208.96 152.871 208.867 153.019 208.728 153.103L75.0572 230.278C74.9832 230.315 74.9092 230.343 74.8259 230.343ZM75.2885 158.007V229.084L208.035 152.446V81.3678L75.2885 158.007Z" fill="black"/>
<path d="M200.2 96.2841L86.8574 161.723L87.2044 162.324L200.547 96.8851L200.2 96.2841Z" fill="black"/>
<path d="M144.795 139.537L97.9434 166.587L98.2903 167.188L145.142 140.138L144.795 139.537Z" fill="black"/>
<path d="M144.795 148.602L97.9434 175.651L98.2903 176.252L145.142 149.203L144.795 148.602Z" fill="black"/>
<path d="M144.789 157.684L97.9375 184.733L98.2845 185.334L145.136 158.285L144.789 157.684Z" fill="black"/>
<path d="M132.768 173.693L97.9434 193.799L98.2903 194.4L133.114 174.294L132.768 173.693Z" fill="black"/>
<path d="M82.4958 169.016C82.3385 169.016 82.1905 168.979 82.0517 168.905C81.7464 168.73 81.5798 168.378 81.5798 167.934V166.194C81.5798 166.028 81.5336 165.889 81.4688 165.834C81.4225 165.797 81.3578 165.787 81.256 165.806L80.1642 166.056L79.8496 165.463L80.9414 164.455C81.3208 164.113 81.5798 163.557 81.5798 163.123V161.383C81.5798 160.597 82.1165 159.681 82.7919 159.283L83.4211 158.922L83.7727 159.523L83.1435 159.884C82.6716 160.152 82.2738 160.837 82.2738 161.383V163.123C82.2738 163.752 81.9314 164.492 81.4133 164.964L81.2653 165.103C81.4966 165.084 81.7186 165.149 81.8944 165.288C82.135 165.482 82.2738 165.806 82.2738 166.194V167.934C82.2738 168.119 82.32 168.258 82.4033 168.304C82.4866 168.35 82.6346 168.322 82.7919 168.23L83.4211 167.869L83.7727 168.47L83.1435 168.831C82.9215 168.961 82.7086 169.016 82.4958 169.016Z" fill="black"/>
<path d="M80.8496 220.553L80.498 219.952L81.1272 219.591C81.5991 219.323 81.997 218.629 81.997 218.092V216.353C81.997 215.723 82.3393 214.983 82.8574 214.511L83.0055 214.372C82.7649 214.391 82.5429 214.326 82.3763 214.187C82.1357 213.993 81.997 213.669 81.997 213.281V211.541C81.997 211.356 81.9507 211.217 81.8674 211.171C81.7841 211.125 81.6361 211.153 81.4788 211.245L80.8496 211.606L80.498 211.005L81.1272 210.644C81.5158 210.422 81.9137 210.394 82.2098 210.57C82.5151 210.746 82.6816 211.097 82.6816 211.541V213.281C82.6816 213.447 82.7279 213.586 82.7927 213.642C82.8389 213.679 82.9037 213.688 82.9962 213.669L84.088 213.419L84.4026 214.012L83.3108 215.02C82.9407 215.363 82.6724 215.908 82.6724 216.353V218.092C82.6724 218.878 82.1357 219.794 81.4603 220.192L80.8311 220.553H80.8496Z" fill="black"/>
<path d="M136.828 172.042C137.141 171.509 137.144 170.93 136.835 170.749C136.526 170.568 136.023 170.854 135.71 171.387C135.398 171.921 135.395 172.5 135.703 172.681C136.012 172.862 136.516 172.576 136.828 172.042Z" fill="black"/>
<path d="M140.937 169.665C141.25 169.132 141.253 168.553 140.944 168.372C140.636 168.191 140.132 168.477 139.82 169.011C139.507 169.544 139.504 170.123 139.813 170.304C140.121 170.485 140.625 170.199 140.937 169.665Z" fill="black"/>
<path d="M145.057 167.288C145.369 166.755 145.372 166.176 145.064 165.995C144.755 165.814 144.251 166.1 143.939 166.634C143.626 167.167 143.623 167.746 143.932 167.927C144.241 168.108 144.744 167.822 145.057 167.288Z" fill="black"/>
<path d="M210.346 335.091C208.181 335.091 205.775 334.378 203.305 332.954C194.839 328.068 187.955 316.188 187.955 306.482C187.955 300.884 190.194 296.98 194.108 295.74L205.84 288.856C208.847 287.144 212.807 287.533 216.999 289.948C225.465 294.833 232.349 306.713 232.349 316.419C232.349 321.221 230.693 324.811 227.685 326.523L215.158 333.592C213.797 334.591 212.16 335.091 210.346 335.091ZM209.976 288.726C208.634 288.726 207.395 289.032 206.303 289.652L194.524 296.554C194.524 296.554 194.46 296.591 194.432 296.6C190.907 297.692 188.88 301.291 188.88 306.482C188.88 315.892 195.561 327.411 203.768 332.149C207.959 334.573 211.928 334.813 214.649 332.815C214.649 332.815 214.649 332.815 214.658 332.806C214.824 332.676 214.991 332.546 215.158 332.398C215.185 332.38 215.213 332.352 215.241 332.343L227.602 325.459C227.602 325.459 227.667 325.422 227.704 325.413C230.1 323.766 231.423 320.601 231.423 316.41C231.423 307 224.743 295.481 216.536 290.744C214.214 289.402 211.975 288.717 209.976 288.717V288.726Z" fill="#241F20"/>
<path d="M216.768 290.355C212.595 287.94 208.811 287.7 206.072 289.264L194.293 296.175C190.722 297.285 188.418 300.912 188.418 306.492C188.418 316.068 195.191 327.736 203.537 332.556C208.08 335.184 212.16 335.23 214.926 333.195L227.454 326.126C230.193 324.571 231.886 321.212 231.886 316.429C231.886 306.853 225.114 295.185 216.768 290.365V290.355ZM214.945 333.185C215.13 333.046 215.306 332.908 215.472 332.75L227.834 325.867L214.945 333.185Z" fill="white"/>
<path d="M208.06 329.687C206.469 329.687 204.711 329.15 202.898 328.086C196.782 324.506 191.841 315.864 191.887 308.832C191.906 305.344 193.127 302.725 195.329 301.476C197.55 300.218 200.455 300.505 203.517 302.3C209.633 305.88 214.574 314.522 214.528 321.554C214.509 325.042 213.288 327.661 211.086 328.91C210.179 329.428 209.162 329.678 208.06 329.678V329.687ZM198.364 301.633C197.42 301.633 196.55 301.846 195.792 302.281C193.895 303.364 192.84 305.686 192.822 308.832C192.775 315.577 197.513 323.849 203.369 327.281C206.136 328.901 208.717 329.197 210.633 328.105C212.529 327.022 213.584 324.7 213.603 321.554C213.64 314.809 208.912 306.537 203.046 303.105C201.38 302.133 199.779 301.633 198.355 301.633H198.364Z" fill="#241F20"/>
<path d="M199.299 308.083C198.865 308.083 198.393 307.944 197.921 307.666L193.045 304.807C192.823 304.678 192.749 304.391 192.878 304.178C193.008 303.956 193.285 303.882 193.507 304.012L198.383 306.871C198.846 307.139 199.281 307.232 199.605 307.111C199.845 307.019 200.012 306.824 200.123 306.519L201.705 301.958C201.788 301.717 202.057 301.587 202.297 301.671C202.538 301.754 202.667 302.022 202.584 302.263L201.002 306.824C200.808 307.398 200.438 307.796 199.929 307.981C199.734 308.055 199.522 308.092 199.299 308.092V308.083Z" fill="#241F20"/>
<path d="M195.875 320.666C195.829 320.666 195.773 320.666 195.727 320.638C195.486 320.555 195.357 320.286 195.44 320.046L196.902 315.817C197.198 314.966 196.856 313.578 196.069 312.459L192.183 306.907C192.035 306.694 192.091 306.407 192.294 306.259C192.507 306.111 192.794 306.167 192.942 306.37L196.828 311.922C197.79 313.301 198.179 314.985 197.781 316.123L196.319 320.351C196.254 320.545 196.069 320.666 195.884 320.666H195.875Z" fill="#241F20"/>
<path d="M208.348 329.678C208.2 329.678 208.061 329.613 207.969 329.484L204.268 324.191C203.518 323.118 202.473 322.47 201.798 322.637L198.06 323.571C197.81 323.627 197.56 323.479 197.495 323.238C197.43 322.998 197.588 322.739 197.828 322.674L201.566 321.739C202.658 321.471 204.018 322.221 205.017 323.655L208.718 328.947C208.866 329.16 208.811 329.447 208.607 329.595C208.524 329.65 208.432 329.678 208.339 329.678H208.348Z" fill="#241F20"/>
<path d="M210.438 329.197C210.225 329.197 210.04 329.058 209.985 328.845L208.588 322.942C208.19 321.277 208.708 319.972 209.865 319.676L213.797 318.695C214.047 318.64 214.296 318.788 214.361 319.028C214.426 319.278 214.269 319.528 214.028 319.593L210.096 320.574C209.476 320.731 209.235 321.61 209.494 322.72L210.892 328.623C210.947 328.873 210.799 329.123 210.549 329.178C210.512 329.178 210.475 329.188 210.438 329.188V329.197Z" fill="#241F20"/>
<path d="M213.215 316.549C213.132 316.549 213.058 316.531 212.984 316.484L208.108 313.625C206.914 312.922 205.869 311.432 205.508 309.924L204 303.549C203.944 303.299 204.092 303.05 204.342 302.994C204.592 302.929 204.842 303.087 204.897 303.336L206.406 309.711C206.702 310.97 207.599 312.256 208.571 312.83L213.447 315.689C213.669 315.818 213.743 316.105 213.613 316.318C213.53 316.466 213.373 316.549 213.215 316.549Z" fill="#241F20"/>
<path d="M205.109 321.138C204.433 321.138 203.703 320.916 202.953 320.472C200.492 319.029 198.493 315.54 198.512 312.709C198.512 311.238 199.048 310.137 200.002 309.591C200.955 309.045 202.194 309.165 203.48 309.915C205.942 311.358 207.94 314.846 207.922 317.678C207.922 319.149 207.385 320.25 206.432 320.796C206.034 321.018 205.59 321.138 205.109 321.138ZM201.325 310.183C201.001 310.183 200.714 310.257 200.455 310.396C199.807 310.766 199.446 311.59 199.437 312.709C199.419 315.254 201.204 318.372 203.416 319.667C204.406 320.25 205.312 320.361 205.969 319.982C206.617 319.612 206.978 318.788 206.987 317.668C207.006 315.124 205.22 312.006 203.009 310.711C202.398 310.359 201.824 310.174 201.315 310.174L201.325 310.183Z" fill="#241F20"/>
<path d="M203.351 307.99C203.277 307.99 203.203 307.972 203.129 307.926C202.925 307.805 202.777 307.546 202.777 307.315C202.777 307.158 202.842 307.028 202.962 306.963C203.083 306.898 203.221 306.908 203.36 306.982C203.564 307.102 203.712 307.361 203.712 307.592C203.712 307.75 203.647 307.879 203.527 307.944C203.471 307.972 203.416 307.99 203.351 307.99Z" fill="#241F20"/>
<path d="M210.022 317.39C209.938 317.39 209.855 317.363 209.781 317.316C209.559 317.187 209.393 316.891 209.393 316.632C209.393 316.465 209.467 316.326 209.587 316.252C209.707 316.178 209.864 316.188 210.012 316.271C210.235 316.4 210.401 316.696 210.401 316.956C210.401 317.122 210.327 317.261 210.207 317.335C210.151 317.363 210.087 317.381 210.022 317.381V317.39Z" fill="#241F20"/>
<path d="M199.022 320.259C198.938 320.259 198.855 320.231 198.781 320.185C198.559 320.055 198.393 319.759 198.393 319.5C198.393 319.333 198.467 319.195 198.587 319.121C198.707 319.046 198.864 319.056 199.012 319.139C199.235 319.269 199.401 319.565 199.401 319.824C199.401 319.99 199.327 320.129 199.207 320.203C199.151 320.231 199.087 320.249 199.022 320.249V320.259Z" fill="#241F20"/>
<path d="M207.811 325.736C207.728 325.736 207.644 325.708 207.57 325.662C207.348 325.533 207.182 325.236 207.182 324.977C207.182 324.811 207.256 324.672 207.385 324.598C207.505 324.524 207.663 324.533 207.811 324.617C208.033 324.746 208.199 325.042 208.199 325.301C208.199 325.468 208.125 325.607 208.005 325.681C207.95 325.718 207.885 325.727 207.82 325.727L207.811 325.736Z" fill="#241F20"/>
<path d="M196.135 308.934C196.052 308.934 195.968 308.907 195.894 308.86C195.672 308.731 195.506 308.435 195.506 308.176C195.506 308.009 195.58 307.87 195.7 307.796C195.82 307.722 195.978 307.732 196.126 307.815C196.348 307.944 196.514 308.24 196.514 308.499C196.514 308.666 196.44 308.805 196.32 308.879C196.265 308.916 196.2 308.925 196.135 308.925V308.934ZM196.061 308.509C196.061 308.509 196.061 308.518 196.052 308.527L196.283 308.509H196.061Z" fill="#241F20"/>
<path d="M210.328 335.1C208.163 335.1 205.775 334.378 203.305 332.953C194.839 328.068 187.955 316.188 187.955 306.482C187.955 301.698 189.593 298.127 192.581 296.406C195.588 294.666 199.567 295.046 203.777 297.479C212.243 302.364 219.127 314.245 219.127 323.95C219.127 328.734 217.489 332.305 214.501 334.026C213.261 334.748 211.854 335.1 210.328 335.1ZM196.745 296.258C195.385 296.258 194.136 296.572 193.035 297.211C190.351 298.756 188.871 302.05 188.871 306.491C188.871 315.901 195.551 327.42 203.758 332.157C207.672 334.415 211.318 334.794 214.029 333.231C216.712 331.686 218.192 328.382 218.192 323.95C218.192 314.541 211.512 303.021 203.305 298.284C200.983 296.942 198.744 296.258 196.745 296.258Z" fill="#241F20"/>
<path d="M227.463 326.588C227.306 326.588 227.148 326.504 227.065 326.356C226.936 326.134 227.019 325.857 227.241 325.727C229.943 324.191 231.432 320.888 231.432 316.428C231.432 307.019 224.752 295.499 216.545 290.762C212.65 288.514 209.023 288.125 206.312 289.67C206.09 289.8 205.803 289.716 205.683 289.494C205.553 289.272 205.636 288.995 205.858 288.865C208.865 287.153 212.825 287.542 217.008 289.966C225.474 294.852 232.358 306.732 232.358 316.438C232.358 321.24 230.701 324.83 227.694 326.541C227.62 326.578 227.546 326.606 227.463 326.606V326.588Z" fill="#241F20"/>
<path d="M193.256 297.026C193.099 297.026 192.942 296.943 192.858 296.795C192.729 296.573 192.812 296.286 193.034 296.165L206.487 288.532C206.709 288.403 206.996 288.486 207.116 288.708C207.246 288.93 207.163 289.217 206.941 289.337L193.487 296.97C193.413 297.007 193.339 297.026 193.256 297.026Z" fill="#241F20"/>
<path d="M214.381 333.961C214.224 333.961 214.067 333.878 213.983 333.73C213.854 333.508 213.937 333.221 214.159 333.101L227.612 325.468C227.834 325.338 228.112 325.421 228.241 325.643C228.371 325.866 228.288 326.152 228.066 326.273L214.612 333.906C214.538 333.943 214.464 333.961 214.381 333.961Z" fill="#241F20"/>
<path d="M252.094 310.988C249.929 310.988 247.524 310.276 245.053 308.851C236.587 303.966 229.703 292.085 229.703 282.38C229.703 276.782 231.942 272.877 235.856 271.637L247.588 264.753C250.595 263.042 254.555 263.43 258.747 265.845C267.213 270.731 274.097 282.611 274.097 292.317C274.097 297.119 272.441 300.709 269.433 302.421L256.906 309.489C255.545 310.489 253.908 310.988 252.094 310.988ZM251.724 264.624C250.383 264.624 249.143 264.929 248.051 265.549L236.272 272.452C236.272 272.452 236.208 272.489 236.18 272.498C232.655 273.59 230.628 277.189 230.628 282.38C230.628 291.789 237.309 303.309 245.516 308.046C249.707 310.47 253.676 310.711 256.397 308.712C256.397 308.712 256.397 308.712 256.406 308.703C256.572 308.573 256.739 308.444 256.906 308.296C256.933 308.277 256.961 308.25 256.989 308.24L269.35 301.356C269.35 301.356 269.415 301.319 269.452 301.31C271.858 299.663 273.171 296.499 273.171 292.308C273.171 282.898 266.491 271.378 258.284 266.641C255.962 265.299 253.723 264.615 251.724 264.615V264.624Z" fill="#241F20"/>
<path d="M258.506 266.253C254.333 263.838 250.549 263.597 247.81 265.161L236.032 272.073C232.46 273.183 230.156 276.81 230.156 282.389C230.156 291.966 236.929 303.633 245.275 308.454C249.818 311.081 253.898 311.128 256.665 309.092L269.193 302.023C271.931 300.469 273.625 297.11 273.625 292.326C273.625 282.75 266.852 271.083 258.506 266.262V266.253ZM256.683 309.083C256.868 308.944 257.044 308.805 257.211 308.648L269.572 301.764L256.683 309.083Z" fill="white"/>
<path d="M249.809 305.585C248.217 305.585 246.459 305.048 244.646 303.984C238.53 300.403 233.589 291.761 233.635 284.729C233.654 281.241 234.875 278.623 237.077 277.374C239.298 276.106 242.203 276.402 245.266 278.197C251.381 281.778 256.322 290.42 256.276 297.452C256.258 300.94 255.036 303.558 252.834 304.807C251.927 305.326 250.91 305.575 249.809 305.575V305.585ZM240.112 277.531C239.168 277.531 238.298 277.744 237.54 278.179C235.643 279.261 234.588 281.584 234.57 284.729C234.523 291.475 239.261 299.746 245.117 303.179C247.884 304.798 250.465 305.094 252.381 304.002C254.277 302.92 255.332 300.598 255.351 297.452C255.388 290.707 250.66 282.435 244.794 279.002C243.128 278.031 241.527 277.531 240.103 277.531H240.112Z" fill="#241F20"/>
<path d="M241.038 283.98C240.603 283.98 240.131 283.841 239.659 283.564L234.783 280.705C234.561 280.575 234.487 280.288 234.616 280.076C234.746 279.863 235.024 279.78 235.246 279.909L240.122 282.768C240.584 283.046 241.019 283.129 241.343 283.009C241.584 282.916 241.75 282.722 241.861 282.417L243.443 277.855C243.527 277.614 243.795 277.485 244.036 277.568C244.276 277.652 244.406 277.92 244.322 278.16L242.74 282.722C242.546 283.296 242.176 283.693 241.667 283.878C241.473 283.952 241.26 283.989 241.038 283.989V283.98Z" fill="#241F20"/>
<path d="M237.613 296.563C237.567 296.563 237.512 296.563 237.465 296.535C237.225 296.452 237.095 296.184 237.178 295.943L238.64 291.715C238.936 290.863 238.594 289.476 237.808 288.356L233.922 282.805C233.773 282.592 233.829 282.305 234.033 282.157C234.245 282.009 234.532 282.064 234.68 282.268L238.566 287.819C239.529 289.198 239.917 290.882 239.519 292.02L238.057 296.248C237.993 296.443 237.808 296.563 237.623 296.563H237.613Z" fill="#241F20"/>
<path d="M250.096 305.575C249.948 305.575 249.81 305.511 249.717 305.381L246.016 300.089C245.267 299.025 244.23 298.368 243.546 298.534L239.808 299.469C239.558 299.524 239.308 299.376 239.243 299.136C239.178 298.886 239.336 298.636 239.576 298.571L243.314 297.637C244.406 297.369 245.766 298.118 246.765 299.561L250.466 304.854C250.615 305.067 250.559 305.353 250.355 305.501C250.272 305.557 250.18 305.585 250.087 305.585L250.096 305.575Z" fill="#241F20"/>
<path d="M252.178 305.094C251.966 305.094 251.781 304.956 251.725 304.743L250.328 298.84C249.93 297.174 250.448 295.87 251.605 295.574L255.537 294.593C255.787 294.528 256.037 294.685 256.101 294.926C256.166 295.176 256.009 295.425 255.768 295.49L251.836 296.471C251.216 296.628 250.976 297.507 251.235 298.627L252.632 304.53C252.687 304.78 252.539 305.03 252.289 305.085C252.252 305.085 252.215 305.094 252.178 305.094Z" fill="#241F20"/>
<path d="M254.963 292.455C254.88 292.455 254.806 292.437 254.732 292.391L249.856 289.531C248.662 288.828 247.617 287.339 247.256 285.83L245.748 279.455C245.692 279.206 245.84 278.956 246.09 278.9C246.34 278.836 246.59 278.993 246.645 279.243L248.154 285.618C248.45 286.876 249.347 288.162 250.319 288.736L255.195 291.595C255.417 291.724 255.491 292.011 255.361 292.224C255.278 292.372 255.121 292.455 254.963 292.455Z" fill="#241F20"/>
<path d="M246.847 297.044C246.172 297.044 245.441 296.822 244.691 296.378C242.23 294.935 240.232 291.447 240.25 288.615C240.25 287.144 240.787 286.043 241.74 285.497C242.693 284.951 243.933 285.072 245.219 285.821C247.68 287.264 249.678 290.753 249.66 293.584C249.66 295.055 249.123 296.156 248.17 296.702C247.772 296.933 247.328 297.044 246.847 297.044ZM243.063 286.089C242.739 286.089 242.452 286.163 242.193 286.302C241.545 286.672 241.185 287.496 241.175 288.615C241.157 291.16 242.943 294.278 245.154 295.573C246.144 296.156 247.051 296.267 247.708 295.888C248.355 295.518 248.716 294.694 248.725 293.575C248.744 291.03 246.958 287.912 244.747 286.617C244.136 286.265 243.563 286.08 243.054 286.08L243.063 286.089Z" fill="#241F20"/>
<path d="M245.089 283.888C245.015 283.888 244.941 283.869 244.867 283.823C244.673 283.703 244.516 283.444 244.516 283.212C244.516 283.055 244.58 282.925 244.701 282.861C244.821 282.796 244.96 282.805 245.099 282.879C245.302 282.999 245.45 283.259 245.45 283.49C245.45 283.647 245.385 283.777 245.265 283.841C245.21 283.869 245.154 283.888 245.089 283.888Z" fill="#241F20"/>
<path d="M251.762 293.288C251.679 293.288 251.595 293.26 251.521 293.214C251.299 293.084 251.133 292.788 251.133 292.529C251.133 292.363 251.207 292.224 251.327 292.15C251.457 292.076 251.614 292.085 251.753 292.168C251.975 292.298 252.141 292.594 252.141 292.853C252.141 293.02 252.067 293.158 251.947 293.232C251.892 293.269 251.827 293.279 251.762 293.279V293.288Z" fill="#241F20"/>
<path d="M240.76 296.166C240.677 296.166 240.593 296.138 240.519 296.092C240.297 295.962 240.131 295.666 240.131 295.407C240.131 295.241 240.205 295.102 240.334 295.028C240.464 294.954 240.612 294.963 240.76 295.046C240.982 295.176 241.149 295.472 241.149 295.731C241.149 295.897 241.075 296.036 240.954 296.11C240.899 296.147 240.834 296.157 240.769 296.157L240.76 296.166Z" fill="#241F20"/>
<path d="M249.559 301.634C249.476 301.634 249.392 301.606 249.318 301.56C249.096 301.43 248.93 301.134 248.93 300.875C248.93 300.708 249.004 300.57 249.133 300.496C249.263 300.421 249.42 300.431 249.559 300.514C249.781 300.644 249.947 300.94 249.947 301.199C249.947 301.365 249.873 301.504 249.753 301.578C249.698 301.615 249.633 301.624 249.568 301.624L249.559 301.634Z" fill="#241F20"/>
<path d="M237.873 284.831C237.79 284.831 237.707 284.803 237.633 284.757C237.411 284.627 237.244 284.331 237.244 284.072C237.244 283.906 237.318 283.767 237.438 283.693C237.568 283.619 237.716 283.628 237.864 283.711C238.086 283.841 238.253 284.137 238.253 284.396C238.253 284.563 238.179 284.701 238.058 284.775C238.003 284.812 237.938 284.822 237.873 284.822V284.831Z" fill="#241F20"/>
<path d="M252.076 310.997C249.911 310.997 247.524 310.275 245.053 308.851C236.587 303.965 229.703 292.085 229.703 282.379C229.703 277.596 231.341 274.024 234.329 272.303C237.336 270.564 241.315 270.943 245.525 273.376C253.991 278.262 260.875 290.142 260.875 299.848C260.875 304.631 259.237 308.203 256.249 309.924C255.009 310.646 253.602 310.997 252.076 310.997ZM238.493 272.155C237.133 272.155 235.884 272.47 234.783 273.108C232.1 274.653 230.619 277.947 230.619 282.388C230.619 291.798 237.299 303.318 245.506 308.055C249.42 310.312 253.066 310.692 255.777 309.128C258.46 307.583 259.94 304.289 259.94 299.848C259.94 290.438 253.26 278.919 245.053 274.181C242.731 272.84 240.492 272.155 238.493 272.155Z" fill="#241F20"/>
<path d="M269.201 302.485C269.044 302.485 268.887 302.402 268.803 302.254C268.674 302.032 268.757 301.754 268.979 301.625C271.681 300.089 273.171 296.786 273.171 292.326C273.171 282.916 266.49 271.397 258.283 266.659C254.388 264.411 250.761 264.022 248.05 265.568C247.828 265.697 247.541 265.614 247.421 265.392C247.291 265.17 247.375 264.892 247.597 264.763C250.604 263.051 254.564 263.439 258.746 265.864C267.212 270.749 274.096 282.629 274.096 292.335C274.096 297.137 272.44 300.727 269.433 302.439C269.359 302.476 269.284 302.504 269.201 302.504V302.485Z" fill="#241F20"/>
<path d="M234.996 272.932C234.839 272.932 234.682 272.849 234.599 272.701C234.469 272.479 234.552 272.192 234.774 272.072L248.228 264.438C248.45 264.309 248.727 264.392 248.857 264.614C248.986 264.836 248.903 265.123 248.681 265.243L235.228 272.877C235.154 272.914 235.08 272.932 234.996 272.932Z" fill="#241F20"/>
<path d="M256.119 309.859C255.962 309.859 255.805 309.776 255.722 309.628C255.592 309.406 255.675 309.119 255.897 308.998L269.351 301.365C269.573 301.236 269.85 301.319 269.98 301.541C270.109 301.763 270.026 302.05 269.804 302.17L256.351 309.803C256.277 309.84 256.203 309.859 256.119 309.859Z" fill="#241F20"/>
<path d="M217.592 312.071L183.33 292.298V221.618L244.526 186.292L278.779 206.065" fill="white"/>
<path d="M217.592 312.533C217.518 312.533 217.435 312.515 217.361 312.469L183.108 292.687C182.969 292.603 182.877 292.455 182.877 292.289V221.609C182.877 221.442 182.969 221.294 183.108 221.211L244.304 185.885C244.443 185.801 244.628 185.801 244.767 185.885L279.02 205.667C279.242 205.796 279.316 206.074 279.187 206.296C279.057 206.518 278.779 206.592 278.557 206.462L244.536 186.819L183.802 221.886V292.03L217.824 311.673C218.046 311.802 218.12 312.08 217.99 312.302C217.907 312.45 217.75 312.533 217.592 312.533Z" fill="black"/>
<path d="M278.779 206.065L217.592 241.4L183.33 221.618L244.526 186.292L278.779 206.065Z" fill="black"/>
<path d="M217.592 241.4V312.071L278.779 276.745V206.064L217.592 241.4Z" fill="white"/>
<path d="M217.592 312.534C217.508 312.534 217.434 312.515 217.36 312.469C217.221 312.386 217.129 312.238 217.129 312.071V241.391C217.129 241.224 217.221 241.076 217.36 240.993L278.556 205.667C278.695 205.584 278.88 205.584 279.019 205.667C279.158 205.75 279.25 205.898 279.25 206.065V276.745C279.25 276.911 279.158 277.059 279.019 277.143L217.823 312.469C217.749 312.506 217.675 312.534 217.592 312.534ZM218.054 241.659V311.266L278.325 276.467V206.861L218.054 241.659Z" fill="black"/>
<path d="M217.592 312.533C217.509 312.533 217.435 312.515 217.361 312.469L183.108 292.687C182.969 292.603 182.877 292.455 182.877 292.289V221.609C182.877 221.442 182.969 221.294 183.108 221.211L244.304 185.885C244.443 185.801 244.628 185.801 244.767 185.885L279.02 205.667C279.159 205.75 279.251 205.898 279.251 206.064V276.745C279.251 276.911 279.159 277.059 279.02 277.142L217.824 312.469C217.75 312.506 217.676 312.533 217.592 312.533ZM183.802 292.03L217.592 311.543L278.326 276.476V206.333L244.536 186.819L183.802 221.886V292.03Z" fill="black"/>
<path d="M217.591 241.862C217.517 241.862 217.434 241.844 217.36 241.798L183.107 222.016C182.885 221.886 182.811 221.609 182.941 221.387C183.07 221.164 183.348 221.09 183.57 221.22L217.823 241.002C218.045 241.131 218.119 241.409 217.989 241.631C217.906 241.779 217.749 241.862 217.591 241.862Z" fill="black"/>
<path d="M203.833 293.418C203.749 293.418 203.675 293.399 203.601 293.353L194.673 288.199C194.534 288.116 194.441 287.968 194.441 287.802V240.068C194.441 239.901 194.534 239.753 194.673 239.67C194.812 239.587 194.997 239.587 195.135 239.67L204.064 244.824C204.203 244.907 204.295 245.055 204.295 245.221V292.955C204.295 293.122 204.203 293.27 204.064 293.353C203.99 293.39 203.916 293.418 203.833 293.418ZM195.367 287.533L203.37 292.15V245.48L195.367 240.863V287.533Z" fill="black"/>
<path d="M271.386 255.713L225.965 281.935V245.887L271.386 219.675V255.713Z" fill="#FCECEA"/>
<path d="M225.965 282.398C225.881 282.398 225.807 282.38 225.733 282.333C225.594 282.25 225.502 282.102 225.502 281.935V245.897C225.502 245.73 225.594 245.582 225.733 245.499L271.145 219.277C271.283 219.194 271.469 219.194 271.607 219.277C271.746 219.361 271.839 219.509 271.839 219.675V255.714C271.839 255.88 271.746 256.028 271.607 256.112L226.196 282.333C226.122 282.37 226.048 282.398 225.965 282.398ZM226.427 246.165V281.14L270.913 255.455V220.48L226.427 246.165Z" fill="black"/>
<path d="M230.549 292.333C231.388 290.9 231.397 289.344 230.568 288.859C229.739 288.373 228.387 289.141 227.547 290.574C226.708 292.007 226.699 293.563 227.528 294.048C228.357 294.534 229.71 293.766 230.549 292.333Z" fill="black"/>
<path d="M228.095 294.667C227.808 294.667 227.549 294.602 227.308 294.463C226.762 294.149 226.457 293.519 226.457 292.696C226.457 291.169 227.493 289.384 228.826 288.616C229.547 288.199 230.251 288.144 230.806 288.468C231.352 288.782 231.657 289.411 231.657 290.235C231.657 291.752 230.621 293.547 229.288 294.315C228.881 294.556 228.474 294.676 228.095 294.676V294.667ZM230.01 289.18C229.797 289.18 229.547 289.254 229.279 289.411C228.243 290.003 227.373 291.512 227.373 292.687C227.373 293.159 227.512 293.51 227.762 293.649C228.011 293.797 228.4 293.742 228.816 293.501C229.843 292.909 230.722 291.401 230.722 290.226C230.722 289.754 230.584 289.402 230.334 289.263C230.241 289.208 230.13 289.18 230.01 289.18Z" fill="black"/>
<path d="M238.715 287.62C239.555 286.187 239.563 284.631 238.734 284.146C237.905 283.66 236.553 284.428 235.713 285.861C234.874 287.294 234.865 288.85 235.694 289.335C236.523 289.821 237.876 289.053 238.715 287.62Z" fill="black"/>
<path d="M236.255 289.957C235.968 289.957 235.709 289.892 235.468 289.753C234.923 289.439 234.617 288.809 234.617 287.986C234.617 286.459 235.653 284.674 236.986 283.906C237.708 283.489 238.411 283.434 238.966 283.758C239.512 284.072 239.817 284.701 239.817 285.525C239.817 287.052 238.781 288.837 237.448 289.605C237.041 289.846 236.634 289.966 236.255 289.966V289.957ZM238.17 284.47C237.957 284.47 237.708 284.544 237.439 284.701C236.403 285.294 235.533 286.802 235.533 287.977C235.533 288.449 235.672 288.8 235.922 288.939C236.172 289.087 236.56 289.032 236.977 288.791C238.013 288.199 238.883 286.691 238.883 285.516C238.883 285.044 238.744 284.692 238.494 284.553C238.401 284.498 238.29 284.47 238.17 284.47Z" fill="black"/>
<path d="M264.493 275.44C264.039 275.44 263.623 275.329 263.253 275.116C262.374 274.607 261.893 273.589 261.893 272.229C261.893 269.629 263.734 266.446 266.001 265.142C267.194 264.457 268.332 264.355 269.221 264.864C270.1 265.373 270.581 266.391 270.581 267.751C270.581 270.351 268.739 273.534 266.463 274.838C265.779 275.236 265.103 275.44 264.493 275.44ZM267.981 265.465C267.527 265.465 267.018 265.623 266.473 265.937C264.465 267.103 262.827 269.925 262.827 272.229C262.827 273.238 263.142 273.978 263.725 274.311C264.307 274.653 265.122 274.551 266.019 274.033C268.036 272.867 269.674 270.045 269.674 267.742C269.674 266.733 269.359 265.993 268.776 265.66C268.545 265.53 268.286 265.465 267.999 265.465H267.981Z" fill="black"/>
<path d="M231.886 217.158C231.609 217.158 231.34 217.094 231.1 216.946C230.48 216.585 230.119 215.798 230.119 214.79C230.119 213.023 231.174 211.024 232.516 210.247L258.45 195.276C259.117 194.888 259.792 194.851 260.329 195.165C260.949 195.526 261.309 196.313 261.309 197.321C261.309 199.088 260.255 201.087 258.913 201.864L232.978 216.835C232.608 217.047 232.238 217.158 231.886 217.158ZM259.542 195.878C259.32 195.878 259.089 195.979 258.913 196.081L232.978 211.052C231.923 211.662 231.044 213.374 231.044 214.799C231.044 215.456 231.239 215.965 231.563 216.15C231.868 216.335 232.256 216.187 232.516 216.039L258.45 201.068C259.505 200.458 260.384 198.746 260.384 197.321C260.384 196.664 260.19 196.155 259.866 195.97C259.764 195.905 259.653 195.887 259.533 195.887L259.542 195.878Z" fill="black"/>
<path d="M264.725 182.387C263.328 182.387 261.783 181.924 260.191 181.017C254.806 177.909 250.43 170.359 250.43 164.187C250.43 160.588 251.882 158.071 254.408 157.257L261.792 152.927C263.744 151.816 266.307 152.066 268.999 153.621C274.384 156.73 278.761 164.28 278.761 170.451C278.761 173.541 277.688 175.855 275.735 176.965L267.834 181.415C266.955 182.063 265.9 182.387 264.725 182.387ZM264.484 153.167C263.67 153.167 262.911 153.352 262.254 153.732L254.834 158.08C254.834 158.08 254.769 158.117 254.741 158.127C252.595 158.793 251.364 161.004 251.364 164.187C251.364 170.062 255.537 177.252 260.663 180.212C263.244 181.702 265.678 181.859 267.334 180.647C267.334 180.647 267.334 180.647 267.343 180.638C267.445 180.564 267.547 180.481 267.649 180.398C267.676 180.379 267.704 180.351 267.732 180.342L275.523 176.003C275.523 176.003 275.569 175.975 275.597 175.966C277.049 174.957 277.845 173.014 277.845 170.451C277.845 164.576 273.672 157.386 268.546 154.426C267.103 153.593 265.724 153.177 264.494 153.177L264.484 153.167Z" fill="#241F20"/>
<path d="M268.769 154.018C266.141 152.501 263.754 152.343 262.033 153.324L254.603 157.682C252.355 158.376 250.902 160.671 250.902 164.187C250.902 170.219 255.168 177.575 260.432 180.619C263.301 182.275 265.864 182.303 267.612 181.017L275.514 176.567C277.235 175.586 278.308 173.467 278.308 170.451C278.308 164.418 274.043 157.062 268.778 154.018H268.769ZM267.622 181.008C267.733 180.925 267.844 180.832 267.955 180.739L275.745 176.4L267.622 181.008Z" fill="white"/>
<path d="M264.707 182.276C263.337 182.276 261.82 181.823 260.247 180.916C254.899 177.825 250.541 170.322 250.541 164.187C250.541 161.152 251.587 158.886 253.483 157.784C255.399 156.683 257.925 156.924 260.599 158.46C265.946 161.55 270.304 169.054 270.304 175.188C270.304 178.223 269.259 180.49 267.362 181.591C266.566 182.045 265.669 182.276 264.707 182.276ZM256.148 157.794C255.297 157.794 254.52 157.988 253.835 158.386C252.16 159.348 251.244 161.411 251.244 164.187C251.244 170.1 255.445 177.335 260.599 180.314C263.041 181.73 265.327 181.971 267.02 180.99C268.694 180.028 269.61 177.964 269.61 175.188C269.61 169.276 265.41 162.041 260.256 159.061C258.794 158.219 257.397 157.794 256.148 157.794Z" fill="#241F20"/>
<path d="M275.505 176.909C275.384 176.909 275.264 176.845 275.199 176.733C275.107 176.567 275.162 176.354 275.329 176.262C277.013 175.299 277.947 173.236 277.947 170.451C277.947 164.539 273.747 157.303 268.584 154.324C266.15 152.917 263.874 152.677 262.19 153.63C262.024 153.722 261.811 153.667 261.718 153.5C261.626 153.334 261.681 153.121 261.848 153.029C263.763 151.946 266.28 152.187 268.935 153.722C274.283 156.813 278.641 164.317 278.641 170.451C278.641 173.495 277.586 175.78 275.671 176.863C275.616 176.891 275.56 176.909 275.495 176.909H275.505Z" fill="black"/>
<path d="M253.946 158.284C253.825 158.284 253.705 158.219 253.64 158.108C253.548 157.941 253.603 157.729 253.77 157.636L262.245 152.825C262.412 152.732 262.624 152.788 262.717 152.954C262.81 153.121 262.754 153.334 262.587 153.426L254.112 158.238C254.057 158.265 254.001 158.284 253.946 158.284Z" fill="#241F20"/>
<path d="M267.26 181.554C267.14 181.554 267.019 181.49 266.955 181.379C266.862 181.212 266.918 180.999 267.084 180.907L275.56 176.095C275.726 176.003 275.939 176.058 276.031 176.225C276.124 176.391 276.068 176.604 275.902 176.697L267.427 181.508C267.371 181.536 267.316 181.554 267.26 181.554Z" fill="#241F20"/>
<path d="M217.593 229.769L190.492 214.123V156.729L244.684 125.446L271.785 141.092" fill="white"/>
<path d="M217.593 230.111C217.537 230.111 217.473 230.093 217.417 230.065L190.316 214.419C190.205 214.354 190.141 214.243 190.141 214.123V156.729C190.141 156.609 190.205 156.489 190.316 156.433L244.508 125.141C244.62 125.077 244.749 125.077 244.86 125.141L271.961 140.787C272.127 140.88 272.183 141.093 272.09 141.259C271.988 141.426 271.776 141.481 271.618 141.389L244.694 125.845L190.844 156.933V213.919L217.769 229.464C217.935 229.556 217.991 229.769 217.898 229.935C217.833 230.046 217.713 230.111 217.593 230.111Z" fill="black"/>
<path d="M217.593 172.727C217.538 172.727 217.473 172.708 217.417 172.681L190.317 157.035C190.15 156.942 190.095 156.729 190.187 156.563C190.28 156.396 190.502 156.341 190.659 156.433L217.76 172.079C217.926 172.172 217.982 172.385 217.889 172.551C217.824 172.662 217.704 172.727 217.584 172.727H217.593Z" fill="black"/>
<path d="M217.594 172.376V229.769L271.786 198.477V141.093L217.594 172.376Z" fill="white"/>
<path d="M217.593 230.231C217.51 230.231 217.436 230.213 217.362 230.167C217.223 230.083 217.131 229.935 217.131 229.769V172.375C217.131 172.209 217.223 172.061 217.362 171.978L271.554 140.686C271.693 140.602 271.878 140.602 272.017 140.686C272.156 140.769 272.248 140.917 272.248 141.083V198.477C272.248 198.643 272.156 198.791 272.017 198.875L217.825 230.167C217.751 230.204 217.677 230.231 217.593 230.231ZM218.056 172.644V228.964L271.323 198.208V141.888L218.056 172.644Z" fill="black"/>
<path d="M271.785 141.092L217.593 172.375L190.492 156.729L244.684 125.446L271.785 141.092Z" fill="black"/>
<path d="M198.967 210.774C197.57 210.774 196.025 210.311 194.433 209.404C189.048 206.295 184.672 198.745 184.672 192.574C184.672 188.975 186.125 186.458 188.65 185.644L196.034 181.313C197.986 180.203 200.549 180.453 203.242 182.007C208.627 185.116 213.003 192.666 213.003 198.838C213.003 201.928 211.93 204.241 209.978 205.352L202.076 209.802C201.197 210.45 200.142 210.774 198.967 210.774ZM198.726 181.554C197.912 181.554 197.154 181.739 196.497 182.118L189.076 186.467C189.076 186.467 189.011 186.504 188.984 186.513C186.837 187.18 185.606 189.391 185.606 192.574C185.606 198.449 189.779 205.638 194.905 208.599C197.487 210.089 199.92 210.246 201.576 209.025C201.678 208.951 201.78 208.868 201.882 208.784C201.909 208.766 201.937 208.738 201.965 208.729L209.755 204.389C209.755 204.389 209.802 204.362 209.83 204.352C211.282 203.344 212.078 201.401 212.078 198.838C212.078 192.962 207.905 185.773 202.779 182.812C201.336 181.98 199.957 181.563 198.726 181.563V181.554Z" fill="#241F20"/>
<path d="M203.011 182.396C200.383 180.879 197.996 180.721 196.275 181.702L188.846 186.06C186.597 186.754 185.145 189.049 185.145 192.565C185.145 198.597 189.41 205.953 194.675 208.997C197.543 210.653 200.106 210.681 201.855 209.395L209.756 204.944C211.477 203.964 212.551 201.845 212.551 198.829C212.551 192.796 208.285 185.44 203.02 182.396H203.011ZM201.864 209.386C201.975 209.302 202.086 209.21 202.197 209.117L209.988 204.778L201.864 209.386Z" fill="white"/>
<path d="M201.468 209.661C205.163 207.497 205.118 200.552 201.368 194.15C197.618 187.748 191.583 184.312 187.888 186.477C184.193 188.641 184.237 195.586 187.988 201.988C191.738 208.39 197.773 211.826 201.468 209.661Z" fill="black"/>
<path d="M209.757 205.287C209.636 205.287 209.516 205.222 209.451 205.111C209.359 204.945 209.414 204.732 209.581 204.64C211.265 203.677 212.199 201.614 212.199 198.829C212.199 192.917 207.999 185.681 202.836 182.702C200.402 181.295 198.135 181.055 196.442 182.008C196.276 182.1 196.063 182.045 195.97 181.878C195.878 181.712 195.933 181.499 196.1 181.406C198.015 180.324 200.532 180.564 203.187 182.1C208.535 185.191 212.893 192.695 212.893 198.829C212.893 201.873 211.838 204.158 209.923 205.241C209.868 205.269 209.812 205.287 209.747 205.287H209.757Z" fill="black"/>
<path d="M188.198 186.662C188.077 186.662 187.957 186.597 187.892 186.486C187.8 186.319 187.855 186.107 188.022 186.014L196.497 181.203C196.664 181.11 196.876 181.166 196.969 181.332C197.061 181.499 197.006 181.712 196.839 181.804L188.364 186.616C188.309 186.643 188.253 186.662 188.198 186.662Z" fill="#241F20"/>
<path d="M201.502 209.941C201.382 209.941 201.262 209.876 201.197 209.765C201.104 209.599 201.16 209.386 201.326 209.293L209.802 204.482C209.968 204.39 210.181 204.445 210.274 204.612C210.366 204.778 210.311 204.991 210.144 205.083L201.669 209.895C201.613 209.923 201.558 209.941 201.493 209.941H201.502Z" fill="#241F20"/>
<path d="M239.532 188.871C242.603 183.623 242.637 177.931 239.607 176.158C236.578 174.385 231.631 177.202 228.56 182.45C225.488 187.698 225.454 193.39 228.484 195.163C231.514 196.936 236.46 194.119 239.532 188.871Z" fill="#F7D648"/>
<path d="M230.528 196.145C229.705 196.145 228.937 195.951 228.261 195.562C226.651 194.628 225.763 192.712 225.754 190.159C225.754 185.07 229.362 178.843 233.794 176.28C236.043 174.985 238.18 174.79 239.799 175.725C241.409 176.659 242.307 178.575 242.307 181.128C242.307 186.217 238.698 192.444 234.266 195.007C232.952 195.766 231.685 196.145 230.528 196.145ZM237.542 176.067C236.552 176.067 235.432 176.409 234.266 177.085C230.084 179.5 226.679 185.366 226.688 190.159C226.688 192.37 227.41 193.999 228.733 194.757C230.056 195.525 231.87 195.331 233.813 194.202C237.995 191.787 241.4 185.921 241.391 181.128C241.391 178.917 240.669 177.279 239.346 176.521C238.809 176.215 238.208 176.058 237.542 176.058V176.067Z" fill="black"/>
<path d="M237.312 187.573C239.139 184.45 239.158 181.063 237.355 180.008C235.551 178.952 232.607 180.627 230.78 183.75C228.952 186.872 228.933 190.259 230.737 191.315C232.54 192.371 235.484 190.695 237.312 187.573Z" fill="#F7D648"/>
<path d="M231.953 192.074C231.435 192.074 230.945 191.954 230.51 191.704C229.492 191.112 228.928 189.919 228.928 188.327C228.928 185.246 231.111 181.462 233.804 179.907C235.201 179.102 236.543 178.982 237.57 179.574C238.587 180.166 239.152 181.36 239.152 182.951C239.152 186.042 236.968 189.817 234.276 191.362C233.461 191.834 232.675 192.065 231.953 192.065V192.074ZM236.126 180.129C235.571 180.129 234.933 180.324 234.276 180.712C231.842 182.119 229.862 185.533 229.862 188.327C229.862 189.567 230.26 190.483 230.982 190.899C231.713 191.316 232.721 191.205 233.822 190.566C236.256 189.16 238.236 185.746 238.236 182.951C238.236 181.712 237.838 180.796 237.116 180.379C236.829 180.213 236.496 180.129 236.135 180.129H236.126Z" fill="black"/>
<path d="M263.012 175.378C266.084 170.13 266.118 164.438 263.088 162.665C260.058 160.891 255.112 163.708 252.04 168.956C248.969 174.205 248.935 179.897 251.964 181.67C254.994 183.443 259.94 180.626 263.012 175.378Z" fill="#F7D648"/>
<path d="M254.011 182.647C253.187 182.647 252.419 182.453 251.744 182.064C250.134 181.13 249.246 179.214 249.236 176.661C249.236 171.572 252.845 165.345 257.277 162.782C259.525 161.487 261.662 161.292 263.291 162.227C264.901 163.161 265.789 165.077 265.789 167.63C265.789 172.719 262.181 178.946 257.749 181.509C256.435 182.268 255.167 182.647 254.001 182.647H254.011ZM261.024 162.569C260.034 162.569 258.914 162.911 257.749 163.587C253.566 166.002 250.162 171.868 250.171 176.661C250.171 178.872 250.893 180.5 252.216 181.259C253.548 182.027 255.352 181.833 257.305 180.704C261.487 178.289 264.892 172.423 264.882 167.63C264.882 165.419 264.161 163.79 262.847 163.032C262.31 162.726 261.709 162.569 261.043 162.569H261.024Z" fill="black"/>
<path d="M260.792 174.08C262.62 170.957 262.639 167.57 260.835 166.514C259.031 165.459 256.088 167.134 254.26 170.257C252.433 173.379 252.413 176.766 254.217 177.822C256.021 178.877 258.965 177.202 260.792 174.08Z" fill="#F7D648"/>
<path d="M255.436 178.585C254.918 178.585 254.427 178.465 253.992 178.215C252.975 177.623 252.41 176.429 252.41 174.838C252.41 171.748 254.594 167.973 257.286 166.418C258.683 165.613 260.016 165.493 261.052 166.085C262.07 166.677 262.634 167.871 262.634 169.462C262.634 172.543 260.451 176.328 257.758 177.882C256.944 178.354 256.157 178.585 255.436 178.585ZM259.609 166.64C259.053 166.64 258.415 166.834 257.758 167.223C255.325 168.629 253.345 172.044 253.345 174.838C253.345 176.078 253.743 176.994 254.464 177.41C255.195 177.836 256.204 177.715 257.295 177.077C259.729 175.671 261.709 172.256 261.709 169.462C261.709 168.222 261.311 167.306 260.589 166.89C260.303 166.723 259.969 166.64 259.609 166.64Z" fill="black"/>
<path d="M234.673 147.495V147.44C234.673 147.393 234.664 147.338 234.654 147.292L231.148 123.3L227.66 147.144C227.456 147.838 227.789 148.587 228.65 149.124C230.037 149.993 232.277 150.003 233.655 149.133C234.377 148.679 234.71 148.078 234.673 147.486V147.495Z" fill="white"/>
<path d="M231.156 150.142C230.185 150.142 229.213 149.901 228.454 149.42C227.492 148.809 227.066 147.93 227.316 147.051L230.795 123.254C230.842 122.911 231.434 122.911 231.48 123.254L234.987 147.246C234.987 147.246 235.005 147.347 235.014 147.412C235.014 147.431 235.014 147.458 235.014 147.477C235.061 148.226 234.626 148.939 233.83 149.438C233.081 149.91 232.118 150.142 231.156 150.142ZM231.128 125.706L227.982 147.199C227.807 147.819 228.112 148.402 228.815 148.837C230.101 149.642 232.183 149.651 233.451 148.846C234.034 148.476 234.339 148.004 234.311 147.514C234.311 147.514 234.311 147.495 234.311 147.486C234.311 147.421 234.302 147.394 234.293 147.366L231.128 125.706Z" fill="black"/>
<path d="M231.129 130.083C234.763 130.083 237.708 127.138 237.708 123.504C237.708 119.871 234.763 116.926 231.129 116.926C227.496 116.926 224.551 119.871 224.551 123.504C224.551 127.138 227.496 130.083 231.129 130.083Z" fill="white"/>
<path d="M231.129 130.545C227.243 130.545 224.088 127.39 224.088 123.504C224.088 119.618 227.243 116.463 231.129 116.463C235.015 116.463 238.17 119.618 238.17 123.504C238.17 127.39 235.015 130.545 231.129 130.545ZM231.129 117.388C227.761 117.388 225.013 120.136 225.013 123.504C225.013 126.872 227.761 129.62 231.129 129.62C234.497 129.62 237.245 126.872 237.245 123.504C237.245 120.136 234.497 117.388 231.129 117.388Z" fill="black"/>
<path d="M184.903 5.8958L120.468 43.1002C111.651 48.1891 104.508 60.5042 104.508 70.6172V115.76C104.508 125.864 111.651 129.935 120.468 124.846L142.119 112.346L153 139.937L163.881 99.7812L184.894 87.6511C193.711 82.5623 200.854 70.2471 200.854 60.1341V14.9818C200.854 4.87803 193.711 0.806912 184.894 5.8958H184.903Z" fill="white"/>
<path d="M153.083 141.399L141.888 113.012L120.699 125.244C116.268 127.807 112.076 128.204 108.912 126.382C105.775 124.568 104.045 120.802 104.045 115.769V70.626C104.045 60.3927 111.308 47.8648 120.237 42.7111L184.671 5.49746C189.103 2.93451 193.295 2.53665 196.459 4.3594C199.596 6.17289 201.326 9.93867 201.326 14.972V60.1151C201.326 70.3484 194.063 82.8764 185.134 88.03L164.288 100.068L153.093 141.389L153.083 141.399ZM142.35 111.67L152.917 138.466L163.483 99.4661L184.662 87.2435C193.341 82.2379 200.392 70.0708 200.392 60.1336V14.9813C200.392 10.2903 198.828 6.80206 195.987 5.16437C193.119 3.50816 189.261 3.90602 185.125 6.30243L120.69 43.5068C112.011 48.5125 104.961 60.6795 104.961 70.6168V115.76C104.961 120.451 106.525 123.939 109.365 125.577C112.233 127.233 116.092 126.835 120.228 124.439L142.35 111.67Z" fill="black"/>
<path d="M229.602 210.783C229.491 210.783 229.389 210.746 229.296 210.672C229.102 210.506 229.083 210.21 229.25 210.015C234.348 204.121 239.844 199.449 245.571 196.146C251.317 192.824 256.832 191.149 261.976 191.149C262.245 191.149 262.476 191.344 262.476 191.612C262.476 191.88 262.272 192.075 262.013 192.075C262.013 192.075 261.995 192.075 261.976 192.075C256.998 192.075 251.641 193.712 246.034 196.951C240.39 200.208 234.977 204.806 229.944 210.626C229.851 210.728 229.722 210.783 229.592 210.783H229.602Z" fill="black"/>
<path d="M226.262 268.76L225.836 267.937C226.317 267.687 226.983 267.03 227.279 266.021L229.768 257.5C230.194 256.047 231.387 254.854 232.479 254.779C233.071 254.742 233.562 255.039 233.812 255.603L236.301 261.247C236.393 261.451 236.523 261.534 236.726 261.525C237.346 261.488 238.271 260.627 238.614 259.471L241.103 250.949C241.528 249.496 242.722 248.303 243.814 248.229C244.397 248.192 244.896 248.488 245.146 249.052L247.635 254.696C247.727 254.9 247.857 254.983 248.061 254.974C248.68 254.937 249.606 254.076 249.948 252.92L252.437 244.398C252.863 242.946 254.056 241.752 255.148 241.678C255.731 241.641 256.23 241.937 256.48 242.501L258.969 248.145C259.062 248.349 259.173 248.432 259.395 248.423C260.015 248.386 260.94 247.526 261.282 246.369L263.771 237.847C264.197 236.395 265.39 235.201 266.482 235.127C267.074 235.09 267.565 235.386 267.815 235.951L270.304 241.595C270.396 241.798 270.507 241.835 270.544 241.854C270.711 241.909 270.961 241.854 271.229 241.696L271.691 242.501C271.192 242.788 270.674 242.881 270.257 242.742C269.896 242.622 269.619 242.363 269.452 241.974L266.963 236.33C266.871 236.126 266.741 236.043 266.538 236.052C265.918 236.089 264.993 236.95 264.65 238.106L262.161 246.628C261.736 248.081 260.542 249.274 259.45 249.348C258.867 249.385 258.368 249.089 258.118 248.525L255.629 242.881C255.537 242.677 255.398 242.594 255.203 242.603C254.584 242.64 253.658 243.501 253.316 244.657L250.827 253.179C250.401 254.631 249.208 255.825 248.116 255.899C247.533 255.936 247.033 255.64 246.784 255.076L244.295 249.432C244.202 249.228 244.063 249.145 243.869 249.154C243.249 249.191 242.324 250.051 241.982 251.208L239.493 259.73C239.067 261.182 237.873 262.376 236.782 262.45C236.19 262.487 235.699 262.191 235.449 261.626L232.96 255.982C232.868 255.779 232.738 255.686 232.535 255.705C231.915 255.742 230.99 256.602 230.647 257.759L228.158 266.28C227.844 267.363 227.113 268.307 226.252 268.76H226.262Z" fill="black"/>
<path d="M132.46 95.8388C132.349 95.8388 132.247 95.8018 132.154 95.7278C132.006 95.5983 131.951 95.3947 132.025 95.2097L154.101 38.6305C154.166 38.4732 154.305 38.3621 154.471 38.3436C154.638 38.3251 154.805 38.3991 154.906 38.5379L176.983 69.6264C177.057 69.7282 177.085 69.867 177.057 69.9965C177.029 70.1261 176.946 70.2371 176.835 70.3018L132.682 95.7926C132.608 95.8296 132.534 95.8573 132.45 95.8573L132.46 95.8388ZM154.657 39.7685L133.376 94.3214L175.947 69.7467L154.666 39.7778L154.657 39.7685Z" fill="#BE3536"/>
<path d="M153.259 78.5831C152.898 78.5831 152.574 78.509 152.287 78.3518C151.936 78.1667 151.658 77.8614 151.464 77.4543C151.279 77.0749 151.195 76.6123 151.195 76.0849C151.195 75.5575 151.279 75.0486 151.445 74.512C151.602 73.9846 151.834 73.4849 152.111 73.013C152.389 72.5412 152.713 72.1063 153.083 71.7177C153.462 71.3106 153.869 70.9775 154.313 70.7184C154.758 70.4686 155.192 70.3206 155.609 70.2835C156.053 70.2465 156.451 70.3206 156.784 70.4964C157.135 70.6814 157.413 70.9867 157.607 71.3938C157.792 71.7732 157.876 72.2358 157.876 72.7632C157.876 73.2906 157.792 73.7995 157.626 74.3362C157.469 74.8635 157.237 75.3632 156.96 75.8351C156.682 76.2977 156.349 76.7418 155.979 77.1397C155.59 77.5468 155.183 77.8799 154.767 78.1204C154.304 78.3888 153.86 78.5368 153.444 78.5646C153.379 78.5646 153.323 78.5646 153.259 78.5646V78.5831ZM155.831 71.1995C155.785 71.1995 155.729 71.1995 155.683 71.1995C155.396 71.2273 155.091 71.3291 154.767 71.5141C154.406 71.7269 154.064 71.9953 153.749 72.3376C153.425 72.68 153.138 73.0686 152.898 73.4849C152.657 73.892 152.463 74.3362 152.324 74.7895C152.185 75.2429 152.121 75.6778 152.121 76.0849C152.121 76.4735 152.185 76.8066 152.306 77.0564C152.417 77.2877 152.555 77.4358 152.722 77.5283C152.907 77.6301 153.12 77.6671 153.388 77.6486C153.656 77.6301 153.971 77.519 154.313 77.3247C154.656 77.1304 154.989 76.8528 155.313 76.5105C155.646 76.1589 155.933 75.7703 156.173 75.3632C156.414 74.9561 156.608 74.512 156.747 74.0586C156.886 73.6145 156.95 73.1796 156.95 72.7632C156.95 72.3746 156.886 72.0415 156.765 71.7917C156.654 71.5604 156.516 71.4124 156.34 71.3198C156.192 71.2458 156.016 71.1995 155.822 71.1995H155.831ZM152.528 70.1818C152.444 70.1818 152.37 70.1633 152.296 70.117C152.158 70.0337 152.065 69.8857 152.065 69.7191V52.75C152.065 52.5835 152.158 52.4354 152.296 52.3521L156.303 50.039C156.441 49.9557 156.627 49.9557 156.765 50.039C156.904 50.1223 156.997 50.2703 156.997 50.4369V67.406C156.997 67.5726 156.904 67.7206 156.765 67.8039L152.759 70.117C152.685 70.154 152.611 70.1818 152.528 70.1818ZM152.99 53.0183V68.9234L156.071 67.1469V51.2418L152.99 53.0183Z" fill="#BE3536"/>
</svg>
