<?xml version="1.0" encoding="UTF-8"?><svg id="Layer_2" xmlns="http://www.w3.org/2000/svg" xmlns:xlink="http://www.w3.org/1999/xlink" viewBox="0 0 354.42 224.95"><defs><style>.cls-1,.cls-2,.cls-3,.cls-4,.cls-5,.cls-6,.cls-7,.cls-8,.cls-9,.cls-10,.cls-11,.cls-12{fill:none;}.cls-13{clip-path:url(#clippath);}.cls-14,.cls-15,.cls-16,.cls-17,.cls-18,.cls-19,.cls-20,.cls-21{fill:#fff;}.cls-22{fill:#f1f1f3;}.cls-15,.cls-16,.cls-17,.cls-2,.cls-23,.cls-24,.cls-3,.cls-25,.cls-7,.cls-21,.cls-9,.cls-10,.cls-11,.cls-12{stroke-miterlimit:10;}.cls-15,.cls-16,.cls-2,.cls-23,.cls-24,.cls-18,.cls-19,.cls-20,.cls-4,.cls-5,.cls-6,.cls-8,.cls-9,.cls-10{stroke-width:.25px;}.cls-15,.cls-17,.cls-24,.cls-20,.cls-25,.cls-4,.cls-7,.cls-21,.cls-8,.cls-10{stroke:#000;}.cls-16,.cls-2,.cls-23,.cls-18,.cls-6,.cls-9{stroke:#231f20;}.cls-17,.cls-11,.cls-12{stroke-width:.5px;}.cls-2,.cls-18,.cls-19,.cls-20,.cls-4,.cls-5,.cls-6{stroke-linecap:round;}.cls-23{fill:#231f20;}.cls-24{fill:#f2f2f2;}.cls-3,.cls-21{stroke-width:.75px;}.cls-3,.cls-12{stroke:#fff;}.cls-18,.cls-19,.cls-20,.cls-4,.cls-5,.cls-6,.cls-8{stroke-linejoin:round;}.cls-19,.cls-5{stroke:#251f20;}.cls-25{fill:#6deb8e;}.cls-11{stroke:#e4e4e6;}</style><clipPath id="clippath"><rect class="cls-1" x="6.44" y="47.69" width="165.7" height="170.21"/></clipPath></defs><g><rect x=".45" y="7.01" width="347.28" height="217.65"/><rect class="cls-21" x="6.44" y="1.02" width="347.28" height="217.65"/><polygon points="353.72 47.29 6.44 47.69 6.44 14.52 353.72 14.6 353.72 47.29"/><rect class="cls-21" x="6.44" y="1.02" width="347.28" height="13.5"/><circle class="cls-21" cx="13.18" cy="7.78" r="3.17"/><circle class="cls-21" cx="23.09" cy="7.78" r="3.17"/><circle class="cls-21" cx="33" cy="7.78" r="3.17"/><g><path class="cls-14" d="m24.88,30.25l-4.59-6.17h-4.55s9.14,12.24,9.14,12.24l9.14-12.24h-4.52s-4.62,6.17-4.62,6.17Z"/><path class="cls-14" d="m78.64,24.08h-3.59s-1.21,0-1.21,0l-5.08,6.2-5.05-6.2h-1.21s-3.59,0-3.59,0h-.03v12.24h3.63v-7.78s6.26,7.78,6.26,7.78l6.29-7.78v7.78h3.66v-12.24h-.06Z"/><path class="cls-14" d="m38.65,24.08h-3.66v12.24h3.66v-12.24Z"/><path class="cls-14" d="m39.62,36.32h4.52s4.62-6.17,4.62-6.17l4.59,6.17h4.55s-9.14-12.24-9.14-12.24l-9.14,12.24Z"/></g><line class="cls-12" x1="90.7" y1="21.16" x2="90.7" y2="39.66"/><line class="cls-3" x1="228.14" y1="39.84" x2="251.96" y2="39.84"/><g><path class="cls-14" d="m108.22,25.95h5.1v.93h-4.1v2.75h4.03v.93h-4.03v3.7h-1v-8.3Z"/><path class="cls-14" d="m115.38,25.95h1v7.38h4.34v.93h-5.34v-8.3Z"/><path class="cls-14" d="m122.72,25.95h5.03v.93h-4.03v2.75h3.96v.93h-3.96v2.77h4.1v.93h-5.1v-8.3Z"/><path class="cls-14" d="m129.98,25.95h5.03v.93h-4.03v2.75h3.96v.93h-3.96v2.77h4.1v.93h-5.1v-8.3Z"/><path class="cls-14" d="m136.84,25.95h5.83v.93h-2.42v7.38h-1v-7.38h-2.42v-.93Z"/></g><g><path class="cls-14" d="m169.74,25.37h2.73c1.03,0,1.78.25,2.25.74.47.49.71,1.27.71,2.35v2.13c0,1.08-.24,1.86-.71,2.35-.47.49-1.23.74-2.25.74h-2.73v-.94h.71v-6.44h-.71v-.93Zm2.58,7.38c.36,0,.68-.04.94-.11.26-.07.48-.19.66-.36.17-.17.3-.4.38-.68s.12-.64.12-1.08v-1.99c0-.43-.04-.79-.12-1.08s-.21-.51-.38-.68c-.17-.17-.39-.29-.66-.36-.27-.07-.58-.11-.94-.11h-.88v6.45h.88Z"/><path class="cls-14" d="m181.54,31.61h-3.56l-.61,2.06h-1.07l2.51-8.3h1.87l2.51,8.3h-1.07l-.6-2.06Zm-1.85-5.81l-1.43,4.89h3.01l-1.44-4.89h-.14Z"/><path class="cls-14" d="m184.1,25.37h5.83v.93h-2.42v7.38h-1v-7.38h-2.42v-.93Z"/><path class="cls-14" d="m196.06,31.61h-3.56l-.61,2.06h-1.07l2.51-8.3h1.87l2.51,8.3h-1.07l-.6-2.06Zm-1.85-5.81l-1.43,4.89h3.01l-1.44-4.89h-.14Z"/></g><g><path class="cls-14" d="m229.43,25.95h5.83v.93h-2.42v7.38h-1v-7.38h-2.42v-.93Z"/><path class="cls-14" d="m242.21,34.25h-1v-2.78c0-.21-.05-.36-.14-.47s-.26-.17-.5-.17h-2.59v3.42h-1v-8.3h2.96c.43,0,.8.06,1.12.18s.58.29.79.49c.21.21.37.44.47.72.11.27.16.56.16.86v.36c0,.31-.08.62-.25.93-.17.31-.43.55-.79.71v.14c.24.04.42.13.56.28.13.15.2.36.2.64v2.99Zm-4.22-4.34h1.85c.56,0,.98-.12,1.25-.36.27-.24.41-.59.41-1.06v-.21c0-.42-.14-.76-.41-1.01-.27-.26-.69-.39-1.25-.39h-1.85v3.04Z"/><path class="cls-14" d="m246.37,31.33h-.21l-2.6-5.38h1.12l2.12,4.53h.14l2.12-4.53h1.12l-2.6,5.38h-.21v2.92h-1v-2.92Z"/></g><g><path class="cls-14" d="m284.2,25.95h2.73c1.03,0,1.78.25,2.25.74.47.49.71,1.27.71,2.35v2.13c0,1.08-.24,1.86-.71,2.35-.47.49-1.23.74-2.25.74h-2.73v-.94h.71v-6.44h-.71v-.93Zm2.58,7.38c.36,0,.68-.04.94-.11.26-.07.48-.19.66-.36.17-.17.3-.4.38-.68s.12-.64.12-1.08v-1.99c0-.43-.04-.79-.12-1.08s-.21-.51-.38-.68c-.17-.17-.39-.29-.66-.36-.27-.07-.58-.11-.94-.11h-.88v6.45h.88Z"/><path class="cls-14" d="m291.31,29.18c0-1.08.26-1.91.77-2.5.51-.59,1.23-.89,2.15-.89s1.63.3,2.15.89c.51.59.77,1.43.77,2.5v1.85c0,1.11-.26,1.95-.77,2.53-.51.58-1.23.87-2.15.87s-1.63-.29-2.15-.87-.77-1.42-.77-2.53v-1.85Zm2.92,4.32c.64,0,1.12-.22,1.44-.66.32-.44.48-1.06.48-1.88v-1.71c0-.76-.16-1.37-.48-1.84-.32-.47-.8-.7-1.44-.7s-1.12.23-1.44.7c-.32.47-.48,1.08-.48,1.84v1.71c0,.81.16,1.44.48,1.88.32.44.8.66,1.44.66Z"/><path class="cls-14" d="m301.53,33.49c.34,0,.63-.06.87-.17.24-.11.44-.27.59-.46s.27-.42.34-.66.11-.51.11-.79v-.14h1v.14c0,.42-.06.81-.19,1.18-.13.37-.31.69-.56.96-.25.27-.55.49-.91.64-.36.15-.78.23-1.26.23-.92,0-1.63-.29-2.15-.87-.51-.58-.77-1.42-.77-2.53v-1.85c0-1.08.26-1.91.77-2.5.51-.59,1.23-.89,2.15-.89.47,0,.89.08,1.26.23s.67.37.91.64c.25.27.43.59.56.96.13.37.19.76.19,1.18v.14h-1v-.14c0-.27-.05-.53-.12-.78s-.19-.48-.34-.67c-.15-.19-.35-.35-.59-.46-.24-.11-.53-.17-.87-.17-.64,0-1.12.23-1.44.7-.32.47-.48,1.08-.48,1.84v1.71c0,.81.16,1.44.48,1.88.32.44.8.66,1.44.66Z"/><path class="cls-14" d="m310.7,28.35c0-.27-.05-.51-.16-.71s-.25-.38-.43-.51c-.18-.13-.39-.24-.63-.31-.24-.07-.49-.11-.75-.11-.23,0-.45.03-.65.09-.21.06-.39.14-.55.25-.16.11-.29.25-.38.41-.09.16-.14.35-.14.56v.07c0,.23.05.42.14.59s.24.3.42.42c.19.11.42.21.69.28.28.08.6.14.97.2.87.13,1.51.39,1.92.77s.62.88.62,1.51v.14c0,.36-.06.68-.18.98-.12.3-.3.55-.55.77-.24.21-.54.38-.9.5-.36.12-.77.18-1.23.18-.53,0-1-.08-1.41-.23-.41-.15-.75-.37-1.02-.64-.27-.27-.48-.59-.62-.96s-.21-.77-.21-1.2v-.36h1v.28c0,.73.2,1.27.6,1.64.4.36.96.55,1.67.55.62,0,1.08-.14,1.39-.41.31-.27.47-.63.47-1.09v-.07c0-.43-.16-.77-.48-1-.32-.23-.84-.4-1.56-.5-.42-.06-.8-.14-1.13-.25s-.62-.27-.86-.45c-.24-.19-.42-.41-.55-.67-.13-.26-.19-.57-.19-.92v-.14c0-.32.07-.62.2-.89.13-.27.32-.5.56-.7.24-.2.53-.35.87-.46.34-.11.71-.16,1.11-.16.47,0,.88.07,1.25.2.37.13.68.31.93.54.25.23.44.49.58.79.13.3.2.62.2.95v.5h-1v-.43Z"/></g><rect class="cls-7" x="6.44" y="1.02" width="347.28" height="217.65"/></g><g><path d="m188.76,87.3h5.54v1.39h-2.05v6.31h-1.45v-6.31h-2.05v-1.39Z"/><path d="m195.49,89.55h2.31v.79h.2c.1-.3.28-.53.52-.7.25-.17.54-.25.89-.25.54,0,.98.17,1.31.51.33.34.5.86.5,1.56v.24l-1.43.13v-.15c0-.3-.08-.54-.23-.72-.15-.18-.39-.27-.69-.27s-.55.11-.73.32c-.18.21-.26.52-.26.91v1.76h1.25v1.32h-3.76v-1.32h1.12v-2.82h-.99v-1.32Z"/><path d="m206.18,89.55h1.39v6.8c0,.25-.08.45-.24.62-.16.16-.36.24-.61.24h-3.25v-1.32h2.41c.2,0,.3-.11.3-.33v-1.34h-.2c-.24.63-.76.95-1.56.95-.27,0-.52-.04-.76-.13-.24-.09-.44-.22-.62-.41-.18-.18-.31-.41-.41-.69-.1-.28-.15-.6-.15-.97v-3.41h1.39v3.12c0,.39.09.69.27.91.18.22.46.32.83.32.42,0,.72-.13.92-.4s.29-.63.29-1.09v-2.86Z"/><path d="m215.35,87.3h1.5l1.51,6.97h.2l1.51-6.97h1.5l-1.74,7.7h-2.73l-1.74-7.7Z"/><path d="m222.78,93.68h1.85v-2.82h-1.72v-1.32h3.1v4.14h1.58v1.32h-4.82v-1.32Zm3.58-5.75c0,.15-.03.28-.08.41-.05.13-.13.24-.23.33-.09.09-.21.17-.33.22-.13.05-.26.08-.4.08-.15,0-.28-.03-.41-.08-.12-.06-.23-.13-.33-.22-.1-.09-.17-.2-.23-.33-.05-.13-.08-.27-.08-.41s.03-.28.08-.41.13-.24.23-.33.21-.17.33-.22c.12-.05.26-.08.41-.08.14,0,.27.03.4.08.13.06.24.13.33.22.1.09.17.2.23.33.06.13.08.27.08.41Z"/><path d="m232.94,94.21c-.15.34-.35.59-.62.73-.26.14-.57.21-.92.21-.33,0-.64-.06-.93-.19-.29-.12-.54-.31-.76-.55-.22-.24-.39-.54-.52-.88-.13-.34-.19-.74-.19-1.18v-.18c0-.43.06-.82.19-1.17s.29-.64.51-.88c.21-.24.46-.43.74-.56.28-.13.58-.19.91-.19.39,0,.7.07.94.2.24.13.43.34.57.62h.2v-.66h1.39v3.81c0,.22.1.33.3.33h.21v1.32h-.95c-.25,0-.45-.07-.61-.22-.16-.15-.24-.34-.24-.57h-.2Zm-1.23-.37c.4,0,.73-.13.97-.4s.36-.63.36-1.09v-.13c0-.46-.12-.83-.36-1.09-.24-.27-.56-.4-.97-.4s-.73.13-.97.4c-.24.27-.36.63-.36,1.09v.13c0,.46.12.83.36,1.09.24.27.56.4.97.4Z"/><path d="m241.62,95h-1.39v-3.83c0-.15-.04-.27-.12-.35-.08-.08-.18-.12-.3-.12-.15,0-.26.04-.35.13-.08.09-.13.22-.13.4v3.76h-1.39v-3.83c0-.15-.04-.27-.13-.35-.08-.08-.19-.12-.3-.12-.13,0-.24.04-.33.13-.09.09-.13.22-.13.4v3.76h-1.39v-5.46h1.39v.53h.2c.04-.2.14-.36.3-.49.16-.13.37-.19.62-.19.24,0,.45.06.62.19.17.13.28.29.34.49h.2c.06-.2.18-.36.37-.49.19-.13.42-.19.7-.19.37,0,.66.12.88.37.22.25.33.58.33,1.02v4.22Z"/><path d="m244.34,94.11c0-.14.03-.27.08-.4.06-.13.13-.24.23-.33.1-.09.21-.17.33-.22.12-.06.26-.08.41-.08.14,0,.27.03.4.08.13.05.24.13.33.22.1.09.17.2.23.33.06.13.08.26.08.4v1.34c0,.28-.09.51-.28.7-.19.19-.42.29-.7.29h-.7v-.86h.53c.2,0,.3-.11.3-.33v-.13c-.06.02-.12.03-.19.03-.15,0-.28-.03-.41-.08-.12-.05-.23-.13-.33-.23s-.17-.21-.23-.33c-.05-.12-.08-.26-.08-.41Z"/><path d="m190.41,108.2h-1.39v-5.46h1.39v.81h.2c.12-.31.33-.55.6-.71.28-.17.61-.25.98-.25.26,0,.51.04.74.13.23.08.43.21.61.39.18.18.31.4.41.67.1.27.15.59.15.97v3.45h-1.39v-3.1c0-.39-.09-.69-.28-.92-.19-.22-.46-.34-.81-.34-.41,0-.72.14-.92.41-.2.27-.3.64-.3,1.11v2.84Z"/><path d="m201.1,105.54c0,.46-.08.86-.23,1.2-.15.35-.36.64-.63.88-.26.24-.57.42-.91.54-.34.12-.7.19-1.07.19s-.73-.06-1.07-.19c-.34-.12-.64-.31-.91-.54-.26-.24-.47-.53-.63-.88-.15-.35-.23-.75-.23-1.2v-.13c0-.45.08-.85.23-1.19.15-.35.36-.64.63-.89.26-.24.57-.43.91-.55.34-.12.7-.19,1.07-.19s.73.06,1.07.19c.34.12.64.31.91.55.26.24.47.54.63.89.15.35.23.75.23,1.19v.13Zm-2.84,1.5c.2,0,.38-.03.56-.1s.33-.16.46-.29c.13-.12.24-.28.31-.46.08-.18.12-.38.12-.61v-.22c0-.23-.04-.43-.12-.61-.08-.18-.18-.33-.31-.46-.13-.12-.29-.22-.46-.29s-.36-.1-.56-.1-.38.03-.56.1c-.18.07-.33.16-.46.29-.13.12-.24.28-.31.46-.08.18-.12.38-.12.61v.22c0,.23.04.43.12.61s.18.33.31.46c.13.12.29.22.46.29.18.07.36.1.56.1Z"/><path d="m210.96,104.29c0,.18.09.3.28.38.18.08.52.14,1,.19.56.06,1.01.23,1.36.5.35.27.53.66.53,1.15v.07c0,.54-.2.98-.59,1.3-.4.32-.95.48-1.67.48-.43,0-.79-.05-1.09-.17-.3-.11-.55-.25-.75-.41s-.35-.35-.46-.55c-.11-.2-.18-.4-.21-.59l1.28-.42c.06.23.18.44.37.62.19.18.47.26.86.26.34,0,.58-.05.71-.16.13-.11.19-.22.19-.35,0-.07-.02-.14-.05-.2-.03-.06-.09-.12-.18-.18-.09-.06-.21-.1-.36-.14s-.34-.07-.57-.09c-.62-.05-1.11-.21-1.47-.48s-.54-.66-.54-1.18v-.07c0-.27.06-.51.18-.71.12-.21.27-.38.46-.52.19-.14.41-.25.66-.32.25-.07.51-.11.77-.11.34,0,.64.04.9.13s.47.19.64.33.32.29.43.45c.11.17.19.32.25.48l-1.25.51c-.07-.2-.18-.35-.34-.47s-.37-.17-.63-.17c-.23,0-.41.04-.53.13-.12.08-.18.19-.18.31Z"/><path d="m217.17,105.93c0,.16.05.31.12.45s.17.25.29.35.26.18.42.23c.16.06.32.08.5.08.34,0,.61-.06.79-.18.18-.12.31-.27.4-.43l1.19.66c-.07.14-.16.28-.28.43s-.27.29-.46.41c-.19.12-.42.23-.68.31-.27.08-.58.12-.94.12-.41,0-.79-.07-1.12-.2s-.63-.32-.87-.57c-.25-.25-.44-.55-.57-.91s-.2-.77-.2-1.22v-.07c0-.42.07-.8.21-1.14.14-.34.34-.64.59-.88.25-.24.54-.43.87-.57.33-.14.69-.2,1.07-.2.47,0,.87.08,1.21.25.34.17.62.37.84.63.22.25.38.53.48.84s.15.6.15.89v.74h-4Zm1.31-2.08c-.35,0-.64.09-.86.27-.22.18-.36.39-.43.62h2.57c-.04-.26-.18-.47-.41-.64-.23-.17-.52-.25-.88-.25Z"/><path d="m222.53,102.75h1.62v-2.24h1.39v2.24h1.97v1.32h-1.97v2.49c0,.22.1.33.3.33h1.47v1.32h-2.31c-.25,0-.45-.08-.61-.24-.16-.16-.24-.37-.24-.62v-3.28h-1.62v-1.32Z"/><path d="m233.11,102.75h1.39v5.46h-1.39v-.79h-.2c-.24.63-.76.95-1.56.95-.27,0-.52-.04-.76-.13-.24-.09-.44-.22-.62-.41-.18-.18-.31-.41-.41-.69-.1-.28-.15-.6-.15-.97v-3.41h1.39v3.12c0,.39.09.69.27.91.18.22.46.32.83.32.42,0,.72-.13.92-.4s.29-.63.29-1.09v-2.86Z"/><path d="m237.25,110.4h-1.39v-7.66h1.39v.79h.2c.15-.3.36-.53.64-.7s.63-.25,1.07-.25c.32,0,.63.06.92.19.29.12.54.31.76.54.22.24.39.53.52.87.13.34.19.74.19,1.18v.2c0,.45-.06.84-.19,1.19-.12.34-.29.64-.51.87s-.46.42-.75.54c-.29.12-.6.18-.94.18-.25,0-.47-.03-.65-.08-.18-.05-.34-.12-.48-.21-.14-.09-.25-.19-.34-.3s-.17-.23-.24-.36h-.2v2.99Zm1.45-3.37c.43,0,.78-.13,1.05-.4.27-.27.4-.63.4-1.09v-.13c0-.46-.13-.83-.4-1.09-.27-.27-.62-.4-1.05-.4s-.78.14-1.05.41-.4.64-.4,1.08v.13c0,.45.13.81.4,1.08s.62.41,1.05.41Z"/><path d="m249.34,102.75h2.31v.79h.2c.1-.3.28-.53.52-.7.25-.17.54-.25.89-.25.54,0,.98.17,1.31.51.33.34.5.86.5,1.56v.24l-1.43.13v-.15c0-.3-.08-.54-.23-.72-.15-.18-.39-.27-.69-.27s-.55.11-.73.32c-.18.21-.26.52-.26.91v1.76h1.25v1.32h-3.76v-1.32h1.12v-2.82h-.99v-1.32Z"/><path d="m257.56,105.93c0,.16.05.31.12.45s.17.25.29.35.26.18.42.23c.16.06.32.08.5.08.34,0,.61-.06.79-.18.18-.12.31-.27.4-.43l1.19.66c-.07.14-.16.28-.28.43s-.27.29-.46.41c-.19.12-.42.23-.68.31-.27.08-.58.12-.94.12-.41,0-.79-.07-1.12-.2s-.63-.32-.87-.57c-.25-.25-.44-.55-.57-.91s-.2-.77-.2-1.22v-.07c0-.42.07-.8.21-1.14.14-.34.34-.64.59-.88.25-.24.54-.43.87-.57.33-.14.69-.2,1.07-.2.47,0,.87.08,1.21.25.34.17.62.37.84.63.22.25.38.53.48.84s.15.6.15.89v.74h-4Zm1.31-2.08c-.35,0-.64.09-.86.27-.22.18-.36.39-.43.62h2.57c-.04-.26-.18-.47-.41-.64-.23-.17-.52-.25-.88-.25Z"/><path d="m266.99,107.41h-.2c-.06.12-.13.24-.21.36s-.19.21-.33.3c-.14.09-.3.16-.48.21-.19.05-.41.08-.68.08-.34,0-.65-.06-.94-.18-.29-.12-.54-.3-.76-.54-.22-.24-.39-.53-.51-.87-.12-.34-.18-.74-.18-1.19v-.2c0-.44.06-.83.19-1.18.13-.34.3-.64.53-.87s.48-.42.78-.54c.3-.12.61-.19.94-.19.44,0,.79.08,1.04.25s.46.4.61.7h.2v-.79h1.39v7.66h-1.39v-2.99Zm-1.45-.37c.43,0,.78-.14,1.05-.41s.4-.64.4-1.08v-.13c0-.45-.13-.81-.4-1.08s-.62-.41-1.05-.41-.78.13-1.05.4c-.27.27-.4.63-.4,1.09v.13c0,.46.13.83.4,1.09s.62.4,1.05.4Z"/><path d="m273.5,102.75h1.39v5.46h-1.39v-.79h-.2c-.24.63-.76.95-1.56.95-.27,0-.52-.04-.76-.13-.24-.09-.44-.22-.62-.41-.18-.18-.31-.41-.41-.69-.1-.28-.15-.6-.15-.97v-3.41h1.39v3.12c0,.39.09.69.27.91.18.22.46.32.83.32.42,0,.72-.13.92-.4.19-.27.29-.63.29-1.09v-2.86Z"/><path d="m276.64,106.88h1.85v-2.82h-1.72v-1.32h3.1v4.14h1.58v1.32h-4.82v-1.32Zm3.57-5.75c0,.15-.03.28-.08.41-.05.13-.13.24-.23.33-.09.09-.21.17-.33.22-.13.05-.26.08-.4.08-.15,0-.28-.03-.41-.08-.12-.06-.23-.13-.33-.22-.1-.09-.17-.2-.23-.33-.05-.13-.08-.27-.08-.41s.03-.28.08-.41.13-.24.23-.33.21-.17.33-.22c.12-.05.26-.08.41-.08.14,0,.27.03.4.08.13.06.24.13.33.22.1.09.17.2.23.33s.08.27.08.41Z"/><path d="m283.01,102.75h2.31v.79h.2c.1-.3.28-.53.52-.7.25-.17.54-.25.89-.25.54,0,.98.17,1.31.51.33.34.5.86.5,1.56v.24l-1.43.13v-.15c0-.3-.08-.54-.23-.72s-.38-.27-.69-.27-.55.11-.72.32c-.18.21-.27.52-.27.91v1.76h1.25v1.32h-3.76v-1.32h1.12v-2.82h-.99v-1.32Z"/><path d="m291.22,105.93c0,.16.04.31.12.45.07.14.16.25.29.35s.26.18.42.23.32.08.5.08c.34,0,.61-.06.79-.18.18-.12.31-.27.4-.43l1.19.66c-.07.14-.16.28-.28.43s-.27.29-.46.41c-.19.12-.42.23-.68.31-.27.08-.58.12-.94.12-.41,0-.79-.07-1.12-.2-.34-.13-.63-.32-.87-.57-.25-.25-.44-.55-.57-.91-.14-.36-.2-.77-.2-1.22v-.07c0-.42.07-.8.21-1.14.14-.34.34-.64.59-.88.25-.24.54-.43.87-.57.33-.14.69-.2,1.07-.2.47,0,.87.08,1.21.25s.62.37.84.63.38.53.48.84c.1.3.15.6.15.89v.74h-4Zm1.31-2.08c-.35,0-.64.09-.86.27-.22.18-.36.39-.43.62h2.57c-.04-.26-.18-.47-.41-.64-.23-.17-.52-.25-.88-.25Z"/><path d="m300.65,107.41h-.2c-.06.12-.13.24-.21.36s-.19.21-.33.3c-.13.09-.3.16-.48.21-.19.05-.41.08-.68.08-.34,0-.65-.06-.94-.18-.29-.12-.54-.3-.76-.54s-.38-.53-.51-.87-.18-.74-.18-1.19v-.2c0-.44.06-.83.19-1.18.13-.34.3-.64.53-.87.22-.24.48-.42.78-.54.3-.12.61-.19.94-.19.44,0,.79.08,1.04.25.26.17.46.4.61.7h.2v-3.04h1.38v7.7h-1.38v-.79Zm-1.45-.37c.43,0,.78-.14,1.05-.41s.4-.64.4-1.08v-.13c0-.45-.13-.81-.4-1.08s-.62-.41-1.05-.41-.78.13-1.05.4c-.27.27-.4.63-.4,1.09v.13c0,.46.13.83.4,1.09s.62.4,1.05.4Z"/></g><rect x="188.46" y="143.62" width="41.65" height="9.75"/><rect class="cls-17" x="241.62" y="143.62" width="41.65" height="9.75"/><polygon class="cls-25" points="244.18 166.51 221.81 146.88 222.79 176.62 229.37 169.64 233.76 178.93 238.99 176.46 234.6 167.16 244.18 166.51"/><rect class="cls-22" x="6.44" y="47.69" width="165.7" height="170.21"/><g class="cls-13"><g><g><line class="cls-11" x1="-79.11" y1="68.96" x2="185.44" y2="221.7"/><line class="cls-11" x1="-101.15" y1="81.69" x2="163.4" y2="234.42"/><line class="cls-11" x1="-123.2" y1="94.41" x2="141.35" y2="247.15"/><line class="cls-11" x1="-145.25" y1="107.14" x2="119.3" y2="259.88"/><line class="cls-11" x1="-167.29" y1="119.87" x2="97.26" y2="272.61"/></g><g><line class="cls-11" x1="9.07" y1="18.04" x2="273.63" y2="170.78"/><line class="cls-11" x1="-12.97" y1="30.77" x2="251.58" y2="183.51"/><line class="cls-11" x1="-35.02" y1="43.5" x2="229.53" y2="196.24"/><line class="cls-11" x1="-57.06" y1="56.23" x2="207.49" y2="208.97"/><line class="cls-11" x1="-79.11" y1="68.96" x2="185.44" y2="221.7"/></g><g><line class="cls-11" x1="75.21" y1="-20.14" x2="339.76" y2="132.6"/><line class="cls-11" x1="53.17" y1="-7.41" x2="317.72" y2="145.33"/><line class="cls-11" x1="31.12" y1="5.32" x2="295.67" y2="158.06"/></g><g><line class="cls-11" x1="242.61" y1="68.96" x2="-21.94" y2="221.7"/><line class="cls-11" x1="264.66" y1="81.69" x2=".11" y2="234.42"/><line class="cls-11" x1="286.7" y1="94.41" x2="22.15" y2="247.15"/><line class="cls-11" x1="308.75" y1="107.14" x2="44.2" y2="259.88"/><line class="cls-11" x1="330.8" y1="119.87" x2="66.25" y2="272.61"/></g><g><line class="cls-11" x1="154.43" y1="18.04" x2="-110.12" y2="170.78"/><line class="cls-11" x1="176.48" y1="30.77" x2="-88.08" y2="183.51"/><line class="cls-11" x1="198.52" y1="43.5" x2="-66.03" y2="196.24"/><line class="cls-11" x1="220.57" y1="56.23" x2="-43.98" y2="208.97"/><line class="cls-11" x1="242.61" y1="68.96" x2="-21.94" y2="221.7"/></g><g><line class="cls-11" x1="88.29" y1="-20.14" x2="-176.26" y2="132.6"/><line class="cls-11" x1="110.34" y1="-7.41" x2="-154.21" y2="145.33"/><line class="cls-11" x1="132.38" y1="5.32" x2="-132.17" y2="158.06"/></g></g></g><g><path class="cls-23" d="m136.91,128.84l-30.25-17.46c-2.84-1.64-7.46-1.63-10.32.02l-50.08,28.91c-2.86,1.65-2.88,4.32-.04,5.96l30.25,17.46c2.84,1.64,7.46,1.63,10.32-.02l50.08-28.91c2.86-1.65,2.88-4.32.04-5.96Zm-53.65,27.3l-4.85,2.93-14.2-8.2,1.88-1.09,5.8-2.65,12.25,7.51-.89,1.49Z"/><g><path class="cls-19" d="m77.67,143.14c-1.69-.97-3.22-1.07-4.32-.44l-4.76,2.79c-1.44.45-2.38,1.92-2.38,4.17,0,3.87,2.74,8.59,6.11,10.54,1.84,1.06,3.48,1.08,4.6.26l5.06-2.86c1.11-.63,1.79-1.99,1.79-3.92,0-3.87-2.74-8.59-6.11-10.54Zm-.74,17.31c.07-.05.15-.11.21-.17l5-2.78-5.21,2.96Z"/><g><ellipse class="cls-5" cx="72.2" cy="153.18" rx="3.58" ry="6.21" transform="translate(-66.92 56.63) rotate(-30)"/><path class="cls-5" d="m68.18,148.82l1.97,1.15c.44.26.83.16.97-.24l.64-1.84"/><path class="cls-5" d="m69.23,155.2l.59-1.71c.14-.4,0-1.02-.36-1.53l-1.57-2.24"/><path class="cls-5" d="m74.27,158.84l-1.5-2.14c-.36-.51-.84-.79-1.2-.7l-1.51.38"/><path class="cls-5" d="m76.52,154.77l-1.59.4c-.36.09-.51.53-.38,1.09l.57,2.39"/><path class="cls-5" d="m72.7,148.43l.61,2.58c.13.56.52,1.12.96,1.38l1.97,1.15"/><ellipse class="cls-5" cx="72.2" cy="153.18" rx="1.4" ry="2.42" transform="translate(-66.92 56.63) rotate(-30)"/><ellipse class="cls-5" cx="72.21" cy="150.05" rx=".08" ry=".13" transform="translate(-65.36 56.21) rotate(-30)"/><ellipse class="cls-5" cx="74.9" cy="153.83" rx=".09" ry=".16" transform="translate(-66.88 58.07) rotate(-30)"/><ellipse class="cls-5" cx="70.45" cy="154.99" rx=".09" ry=".16" transform="translate(-68.06 56) rotate(-30)"/><ellipse class="cls-5" cx="74.01" cy="157.2" rx=".09" ry=".16" transform="translate(-68.69 58.07) rotate(-30)"/><ellipse class="cls-5" cx="69.28" cy="150.41" rx=".09" ry=".16" transform="translate(-65.93 54.8) rotate(-30)"/><ellipse class="cls-5" cx="72.33" cy="153.19" rx="4.97" ry="8.61" transform="translate(-67.51 57.57) rotate(-30.36)"/><path class="cls-5" d="m73.35,142.69c1.11-.63,2.63-.53,4.32.44,3.38,1.95,6.11,6.67,6.11,10.54,0,1.93-.68,3.29-1.79,3.92"/><line class="cls-5" x1="68.17" y1="145.65" x2="73.61" y2="142.56"/></g></g><path class="cls-16" d="m136.91,127.89l-30.25-17.46c-2.84-1.64-7.46-1.63-10.32.02l-50.08,28.91c-2.86,1.65-2.88,4.32-.04,5.96l30.25,17.46c2.84,1.64,7.46,1.63,10.32-.02l50.08-28.91c2.86-1.65,2.88-4.32.04-5.96Zm-53.65,28.26l-4.85,2.93-14.2-8.2,1.88-1.09,5.8-2.65,12.25,7.51-.89,1.49Z"/><ellipse class="cls-18" cx="97.06" cy="146.34" rx="1.21" ry="2.1" transform="translate(-60.65 69.13) rotate(-30.36)"/><ellipse class="cls-18" cx="96.46" cy="146.83" rx="1.65" ry="2.85" transform="translate(-60.98 68.89) rotate(-30.36)"/><path class="cls-18" d="m86.83,148.04l6.79-3.92c.52-.26,1.21-.2,1.98.24,1.6.92,2.89,3.15,2.89,4.98,0,.95-.35,1.61-.91,1.89l-6.79,3.92"/><ellipse class="cls-18" cx="88.81" cy="151.59" rx="2.35" ry="4.07" transform="translate(-64.44 65.68) rotate(-30.36)"/><path class="cls-18" d="m83.96,153.24l3.59,2.07c.2.12.45.12.65,0l3.23-1.86s-1.03-4.02-4.08-5.9v-2.23s-5.11,1.61-5.11,1.61l-.02,5.81,1.74.49Z"/><path class="cls-6" d="m91.57,151.75l3.96-2.29c-.44-1.43-1.46-2.84-2.65-3.53-.11-.07-.22-.12-.33-.17l-3.96,2.29"/><polyline class="cls-18" points="133.17 116.74 133.17 125.41 134.32 127.23 134.4 128.85 131.16 130.64 127.43 124.75 126.69 122.81 132.46 118.32"/><polyline class="cls-6" points="134.76 128.61 131.93 130.24 131.93 128.88 134.76 127.25"/><polyline class="cls-6" points="130.35 124.41 130.35 125.81 130.97 126.51 131.83 127.94 131.93 128.88"/><polyline class="cls-6" points="127.67 124.66 127.67 122.88 128.76 122.24 128.76 121.91"/><line class="cls-6" x1="131.85" y1="127.93" x2="133.92" y2="126.74"/><line class="cls-6" x1="131.01" y1="126.57" x2="133.17" y2="125.41"/><polyline class="cls-6" points="130.35 124.41 131.44 123.78 131.44 120.35"/><path class="cls-18" d="m120.17,128.83l6.79-3.92c.52-.26,1.21-.2,1.98.24,1.6.92,2.89,3.15,2.89,4.98,0,.95-.35,1.61-.91,1.89l-6.79,3.92"/><path class="cls-18" d="m81.13,154.89l3.59,2.07c.2.12.45.12.65,0l3.23-1.86s-1.42-5.53-5.85-6.65"/><g><path class="cls-23" d="m62.77,147.97l18.19-10.5c.44-.25.38-.69-.12-.99l-11.18-6.46c-.5-.29-1.27-.32-1.71-.07l-18.19,10.5c-.44.25-.38.69.12.99l11.18,6.46c.5.29,1.27.32,1.71.07Z"/><path class="cls-24" d="m62.77,147.59l18.19-10.5c.44-.25.38-.69-.12-.99l-11.18-6.46c-.5-.29-1.27-.32-1.71-.07l-18.19,10.5c-.44.25-.38.69.12.99l11.18,6.46c.5.29,1.27.32,1.71.07Z"/><g><polygon class="cls-20" points="63.39 136.16 63.39 138.11 62.65 138.53 57.65 135.64 57.65 133.61 58.29 133.23 63.39 136.16"/><polyline class="cls-20" points="57.65 133.78 57.65 135.64 62.65 138.53 62.65 136.64"/><polyline class="cls-20" points="63.39 136.1 63.39 138.11 62.65 138.53"/><path class="cls-20" d="m62.13,136.43v1.37s.03.09.07.12h0s.07,0,.07-.04v-1.37"/><path class="cls-20" d="m57.97,133.99v1.37s.03.09.07.12h0s.07,0,.07-.04v-1.37"/><g><line class="cls-20" x1="58.73" y1="133.49" x2="62.76" y2="135.82"/><polygon class="cls-20" points="57.57 133.86 58.78 134.55 58.78 134.22 57.57 133.53 57.57 133.86"/><polygon class="cls-20" points="58.59 134.36 58.69 134.17 58.3 133.95 57.57 133.53 57.93 133.32 58.29 133.12 59.01 133.54 58.66 133.74 62.37 135.89 62.73 135.68 63.46 136.1 63.1 136.31 62.75 136.51 62.02 136.09 61.64 135.88 61.32 135.93 58.59 134.36"/><polygon class="cls-20" points="62.75 136.84 63.46 136.43 63.46 136.1 62.75 136.51 62.75 136.84"/><polygon class="cls-20" points="61.32 136.26 61.64 136.21 61.64 135.88 61.32 135.93 61.32 136.26"/><polygon class="cls-20" points="61.64 136.21 62.75 136.84 62.75 136.51 61.64 135.88 61.64 136.21"/><polygon class="cls-20" points="58.59 134.69 61.32 136.26 61.32 135.93 58.59 134.36 58.59 134.69"/></g></g><ellipse class="cls-10" cx="66.02" cy="144.06" rx=".92" ry=".53" transform="translate(-.91 .42) rotate(-.36)"/><ellipse class="cls-10" cx="66.02" cy="144.06" rx=".38" ry=".22" transform="translate(-.91 .42) rotate(-.36)"/><g><g><path class="cls-14" d="m78.23,136.04c.13,0,.2,0,.32.01l.89.52c0,.07.01.11.02.19v.55s-.29.17-.29.17c-.13,0-.2,0-.32-.01l-.89-.52c0-.07-.01-.11-.02-.19v-.55s.29-.17.29-.17Z"/><path class="cls-15" d="m79.17,136.91l.29-.17-.02-.19-.89-.52h-.32s-.29.16-.29.16l.02.19.89.52h.32Z"/><path class="cls-10" d="m79.47,136.74v.55s-.29.17-.29.17h-.32s-.89-.53-.89-.53l-.02-.19v-.55"/><line class="cls-10" x1="79.17" y1="136.91" x2="79.17" y2="137.47"/><line class="cls-10" x1="78.85" y1="136.89" x2="78.85" y2="137.45"/><polygon class="cls-14" points="79 134.92 79.13 134.99 79.13 136.64 79 136.71 78.88 136.64 78.88 134.99 79 134.92"/><polygon class="cls-8" points="79 135.06 79.13 134.99 79 134.92 78.88 134.99 79 135.06"/><polyline class="cls-8" points="79.13 134.99 79.13 136.64 79 136.71 78.88 136.64 78.88 134.99"/><line class="cls-8" x1="79" y1="135.06" x2="79" y2="136.71"/><polygon class="cls-14" points="78.4 134.57 78.52 134.64 78.52 136.29 78.4 136.36 78.28 136.29 78.28 134.64 78.4 134.57"/><polygon class="cls-8" points="78.4 134.71 78.52 134.64 78.4 134.57 78.28 134.64 78.4 134.71"/><polyline class="cls-8" points="78.52 134.64 78.52 136.29 78.4 136.36 78.28 136.29 78.28 134.64"/><line class="cls-8" x1="78.4" y1="134.71" x2="78.4" y2="136.36"/></g><g><path class="cls-14" d="m77.64,136.38c.13,0,.2,0,.32.01l.89.52c0,.07.01.11.02.19v.55s-.29.17-.29.17c-.13,0-.2,0-.32-.01l-.89-.52c0-.07-.01-.11-.02-.19v-.55s.29-.17.29-.17Z"/><path class="cls-15" d="m78.58,137.25l.29-.17-.02-.19-.89-.52h-.32s-.29.16-.29.16l.02.19.89.52h.32Z"/><path class="cls-10" d="m78.88,137.08v.55s-.29.17-.29.17h-.32s-.89-.53-.89-.53l-.02-.19v-.55"/><line class="cls-10" x1="78.58" y1="137.25" x2="78.58" y2="137.81"/><line class="cls-10" x1="78.26" y1="137.24" x2="78.26" y2="137.8"/><polygon class="cls-14" points="78.41 135.26 78.53 135.33 78.53 136.98 78.41 137.05 78.29 136.98 78.29 135.33 78.41 135.26"/><polygon class="cls-8" points="78.41 135.4 78.53 135.33 78.41 135.26 78.29 135.33 78.41 135.4"/><polyline class="cls-8" points="78.53 135.33 78.53 136.98 78.41 137.05 78.29 136.98 78.29 135.33"/><line class="cls-8" x1="78.41" y1="135.4" x2="78.41" y2="137.05"/><polygon class="cls-14" points="77.81 134.91 77.93 134.99 77.93 136.63 77.81 136.7 77.69 136.63 77.69 134.99 77.81 134.91"/><polygon class="cls-8" points="77.81 135.06 77.93 134.99 77.81 134.91 77.69 134.99 77.81 135.06"/><polyline class="cls-8" points="77.93 134.99 77.93 136.63 77.81 136.7 77.69 136.63 77.69 134.99"/><line class="cls-8" x1="77.81" y1="135.06" x2="77.81" y2="136.7"/></g><g><path class="cls-14" d="m77.05,136.72c.13,0,.2,0,.32.01l.89.52c0,.07.01.11.02.19v.55s-.29.17-.29.17c-.13,0-.2,0-.32-.01l-.89-.52c0-.07-.01-.11-.02-.19v-.55s.29-.17.29-.17Z"/><path class="cls-15" d="m77.99,137.59l.29-.17-.02-.19-.89-.52h-.32s-.29.16-.29.16l.02.19.89.52h.32Z"/><path class="cls-10" d="m78.28,137.42v.55s-.29.17-.29.17h-.32s-.89-.53-.89-.53l-.02-.19v-.55"/><line class="cls-10" x1="77.99" y1="137.59" x2="77.99" y2="138.15"/><line class="cls-10" x1="77.67" y1="137.58" x2="77.67" y2="138.14"/><polygon class="cls-14" points="77.82 135.61 77.94 135.68 77.94 137.32 77.82 137.39 77.7 137.32 77.7 135.68 77.82 135.61"/><polygon class="cls-8" points="77.82 135.75 77.94 135.68 77.82 135.61 77.7 135.68 77.82 135.75"/><polyline class="cls-8" points="77.94 135.68 77.94 137.32 77.82 137.39 77.7 137.32 77.7 135.68"/><line class="cls-8" x1="77.82" y1="135.75" x2="77.82" y2="137.39"/><polygon class="cls-14" points="77.22 135.26 77.34 135.33 77.34 136.97 77.22 137.04 77.09 136.97 77.09 135.33 77.22 135.26"/><polygon class="cls-8" points="77.22 135.4 77.34 135.33 77.22 135.26 77.09 135.33 77.22 135.4"/><polyline class="cls-8" points="77.34 135.33 77.34 136.97 77.22 137.04 77.09 136.97 77.09 135.33"/><line class="cls-8" x1="77.22" y1="135.4" x2="77.22" y2="137.04"/></g><g><path class="cls-14" d="m76.45,137.06c.13,0,.2,0,.32.01l.89.52c0,.07.01.11.02.19v.55s-.29.17-.29.17c-.13,0-.2,0-.32-.01l-.89-.52c0-.07-.01-.11-.02-.19v-.55s.29-.17.29-.17Z"/><path class="cls-15" d="m77.4,137.93l.29-.17-.02-.19-.89-.52h-.32s-.29.16-.29.16l.02.19.89.52h.32Z"/><path class="cls-10" d="m77.69,137.76v.55s-.29.17-.29.17h-.32s-.89-.53-.89-.53l-.02-.19v-.55"/><line class="cls-10" x1="77.4" y1="137.93" x2="77.4" y2="138.49"/><line class="cls-10" x1="77.08" y1="137.92" x2="77.08" y2="138.48"/><polygon class="cls-14" points="77.23 135.95 77.35 136.02 77.35 137.66 77.23 137.73 77.11 137.66 77.11 136.02 77.23 135.95"/><polygon class="cls-8" points="77.23 136.09 77.35 136.02 77.23 135.95 77.11 136.02 77.23 136.09"/><polyline class="cls-8" points="77.35 136.02 77.35 137.66 77.23 137.73 77.11 137.66 77.11 136.02"/><line class="cls-8" x1="77.23" y1="136.09" x2="77.23" y2="137.73"/><polygon class="cls-14" points="76.63 135.6 76.75 135.67 76.75 137.32 76.63 137.39 76.5 137.32 76.5 135.67 76.63 135.6"/><polygon class="cls-8" points="76.63 135.74 76.75 135.67 76.63 135.6 76.5 135.67 76.63 135.74"/><polyline class="cls-8" points="76.75 135.67 76.75 137.32 76.63 137.39 76.5 137.32 76.5 135.67"/><line class="cls-8" x1="76.63" y1="135.74" x2="76.63" y2="137.39"/></g><g><path class="cls-14" d="m75.86,137.4c.13,0,.2,0,.32.01l.89.52c0,.07.01.11.02.19v.55s-.29.17-.29.17c-.13,0-.2,0-.32-.01l-.89-.52c0-.07-.01-.11-.02-.19v-.55s.29-.17.29-.17Z"/><path class="cls-15" d="m76.81,138.27l.29-.17-.02-.19-.89-.52h-.32s-.29.16-.29.16l.02.19.89.52h.32Z"/><path class="cls-10" d="m77.1,138.1v.55s-.29.17-.29.17h-.32s-.89-.53-.89-.53l-.02-.19v-.55"/><line class="cls-10" x1="76.81" y1="138.27" x2="76.81" y2="138.83"/><line class="cls-10" x1="76.49" y1="138.26" x2="76.49" y2="138.82"/><polygon class="cls-14" points="76.64 136.29 76.76 136.36 76.76 138.01 76.64 138.08 76.52 138.01 76.52 136.36 76.64 136.29"/><polygon class="cls-8" points="76.64 136.43 76.76 136.36 76.64 136.29 76.52 136.36 76.64 136.43"/><polyline class="cls-8" points="76.76 136.36 76.76 138.01 76.64 138.08 76.52 138.01 76.52 136.36"/><line class="cls-8" x1="76.64" y1="136.43" x2="76.64" y2="138.08"/><polygon class="cls-14" points="76.03 135.94 76.16 136.01 76.16 137.66 76.03 137.73 75.91 137.66 75.91 136.01 76.03 135.94"/><polygon class="cls-8" points="76.03 136.08 76.16 136.01 76.03 135.94 75.91 136.01 76.03 136.08"/><polyline class="cls-8" points="76.16 136.01 76.16 137.66 76.03 137.73 75.91 137.66 75.91 136.01"/><line class="cls-8" x1="76.03" y1="136.08" x2="76.03" y2="137.73"/></g><g><path class="cls-14" d="m75.27,137.74c.13,0,.2,0,.32.01l.89.52c0,.07.01.11.02.19v.55s-.29.17-.29.17c-.13,0-.2,0-.32-.01l-.89-.52c0-.07-.01-.11-.02-.19v-.55s.29-.17.29-.17Z"/><path class="cls-15" d="m76.22,138.61l.29-.17-.02-.19-.89-.52h-.32s-.29.16-.29.16l.02.19.89.52h.32Z"/><path class="cls-10" d="m76.51,138.45v.55s-.29.17-.29.17h-.32s-.89-.53-.89-.53l-.02-.19v-.55"/><line class="cls-10" x1="76.22" y1="138.61" x2="76.22" y2="139.17"/><line class="cls-10" x1="75.9" y1="138.6" x2="75.9" y2="139.16"/><polygon class="cls-14" points="76.05 136.63 76.17 136.7 76.17 138.35 76.05 138.42 75.93 138.35 75.93 136.7 76.05 136.63"/><polygon class="cls-8" points="76.05 136.77 76.17 136.7 76.05 136.63 75.93 136.7 76.05 136.77"/><polyline class="cls-8" points="76.17 136.7 76.17 138.35 76.05 138.42 75.93 138.35 75.93 136.7"/><line class="cls-8" x1="76.05" y1="136.77" x2="76.05" y2="138.42"/><polygon class="cls-14" points="75.44 136.28 75.57 136.35 75.57 138 75.44 138.07 75.32 138 75.32 136.35 75.44 136.28"/><polygon class="cls-8" points="75.44 136.42 75.57 136.35 75.44 136.28 75.32 136.35 75.44 136.42"/><polyline class="cls-8" points="75.57 136.35 75.57 138 75.44 138.07 75.32 138 75.32 136.35"/><line class="cls-8" x1="75.44" y1="136.42" x2="75.44" y2="138.07"/></g><g><path class="cls-14" d="m74.68,138.09c.13,0,.2,0,.32.01l.89.52c0,.07.01.11.02.19v.55s-.29.17-.29.17c-.13,0-.2,0-.32-.01l-.89-.52c0-.07-.01-.11-.02-.19v-.55s.29-.17.29-.17Z"/><path class="cls-15" d="m75.63,138.96l.29-.17-.02-.19-.89-.52h-.32s-.29.16-.29.16l.02.19.89.52h.32Z"/><path class="cls-10" d="m75.92,138.79v.55s-.29.17-.29.17h-.32s-.89-.53-.89-.53l-.02-.19v-.55"/><line class="cls-10" x1="75.63" y1="138.96" x2="75.63" y2="139.52"/><line class="cls-10" x1="75.3" y1="138.94" x2="75.3" y2="139.5"/><polygon class="cls-14" points="75.46 136.97 75.58 137.04 75.58 138.69 75.46 138.76 75.33 138.69 75.33 137.04 75.46 136.97"/><polygon class="cls-8" points="75.46 137.11 75.58 137.04 75.46 136.97 75.33 137.04 75.46 137.11"/><polyline class="cls-8" points="75.58 137.04 75.58 138.69 75.46 138.76 75.33 138.69 75.33 137.04"/><line class="cls-8" x1="75.46" y1="137.11" x2="75.46" y2="138.76"/><polygon class="cls-14" points="74.85 136.62 74.97 136.69 74.97 138.34 74.85 138.41 74.73 138.34 74.73 136.69 74.85 136.62"/><polygon class="cls-8" points="74.85 136.76 74.97 136.69 74.85 136.62 74.73 136.69 74.85 136.76"/><polyline class="cls-8" points="74.97 136.69 74.97 138.34 74.85 138.41 74.73 138.34 74.73 136.69"/><line class="cls-8" x1="74.85" y1="136.76" x2="74.85" y2="138.41"/></g><g><path class="cls-14" d="m74.09,138.43c.13,0,.2,0,.32.01l.89.52c0,.07.01.11.02.19v.55s-.29.17-.29.17c-.13,0-.2,0-.32-.01l-.89-.52c0-.07-.01-.11-.02-.19v-.55s.29-.17.29-.17Z"/><path class="cls-15" d="m75.04,139.3l.29-.17-.02-.19-.89-.52h-.32s-.29.16-.29.16l.02.19.89.52h.32Z"/><path class="cls-10" d="m75.33,139.13v.55s-.29.17-.29.17h-.32s-.89-.53-.89-.53l-.02-.19v-.55"/><line class="cls-10" x1="75.04" y1="139.3" x2="75.04" y2="139.86"/><line class="cls-10" x1="74.71" y1="139.28" x2="74.71" y2="139.84"/><polygon class="cls-14" points="74.87 137.31 74.99 137.38 74.99 139.03 74.86 139.1 74.74 139.03 74.74 137.38 74.87 137.31"/><polygon class="cls-8" points="74.86 137.45 74.99 137.38 74.87 137.31 74.74 137.38 74.86 137.45"/><polyline class="cls-8" points="74.99 137.38 74.99 139.03 74.86 139.1 74.74 139.03 74.74 137.38"/><line class="cls-8" x1="74.86" y1="137.45" x2="74.86" y2="139.1"/><polygon class="cls-14" points="74.26 136.96 74.38 137.03 74.38 138.68 74.26 138.75 74.14 138.68 74.14 137.03 74.26 136.96"/><polygon class="cls-8" points="74.26 137.1 74.38 137.03 74.26 136.96 74.14 137.03 74.26 137.1"/><polyline class="cls-8" points="74.38 137.03 74.38 138.68 74.26 138.75 74.14 138.68 74.14 137.03"/><line class="cls-8" x1="74.26" y1="137.1" x2="74.26" y2="138.75"/></g><g><path class="cls-14" d="m73.5,138.77c.13,0,.2,0,.32.01l.89.52c0,.07.01.11.02.19v.55s-.29.17-.29.17c-.13,0-.2,0-.32-.01l-.89-.52c0-.07-.01-.11-.02-.19v-.55s.29-.17.29-.17Z"/><path class="cls-15" d="m74.44,139.64l.29-.17-.02-.19-.89-.52h-.32s-.29.16-.29.16l.02.19.89.52h.32Z"/><path class="cls-10" d="m74.74,139.47v.55s-.29.17-.29.17h-.32s-.89-.53-.89-.53l-.02-.19v-.55"/><line class="cls-10" x1="74.44" y1="139.64" x2="74.44" y2="140.2"/><line class="cls-10" x1="74.12" y1="139.62" x2="74.12" y2="140.18"/><polygon class="cls-14" points="74.27 137.65 74.4 137.72 74.4 139.37 74.27 139.44 74.15 139.37 74.15 137.72 74.27 137.65"/><polygon class="cls-8" points="74.27 137.79 74.4 137.72 74.27 137.65 74.15 137.72 74.27 137.79"/><polyline class="cls-8" points="74.4 137.72 74.4 139.37 74.27 139.44 74.15 139.37 74.15 137.72"/><line class="cls-8" x1="74.27" y1="137.79" x2="74.27" y2="139.44"/><polygon class="cls-14" points="73.67 137.3 73.79 137.37 73.79 139.02 73.67 139.09 73.55 139.02 73.55 137.37 73.67 137.3"/><polygon class="cls-8" points="73.67 137.45 73.79 137.37 73.67 137.3 73.55 137.37 73.67 137.45"/><polyline class="cls-8" points="73.79 137.37 73.79 139.02 73.67 139.09 73.55 139.02 73.55 137.37"/><line class="cls-8" x1="73.67" y1="137.45" x2="73.67" y2="139.09"/></g><g><path class="cls-14" d="m72.91,139.11c.13,0,.2,0,.32.01l.89.52c0,.07.01.11.02.19v.55s-.29.17-.29.17c-.13,0-.2,0-.32-.01l-.89-.52c0-.07-.01-.11-.02-.19v-.55s.29-.17.29-.17Z"/><path class="cls-15" d="m73.85,139.98l.29-.17-.02-.19-.89-.52h-.32s-.29.16-.29.16l.02.19.89.52h.32Z"/><path class="cls-10" d="m74.15,139.81v.55s-.29.17-.29.17h-.32s-.89-.53-.89-.53l-.02-.19v-.55"/><line class="cls-10" x1="73.85" y1="139.98" x2="73.85" y2="140.54"/><line class="cls-10" x1="73.53" y1="139.97" x2="73.53" y2="140.53"/><polygon class="cls-14" points="73.68 137.99 73.8 138.06 73.8 139.71 73.68 139.78 73.56 139.71 73.56 138.07 73.68 137.99"/><polygon class="cls-8" points="73.68 138.14 73.8 138.06 73.68 137.99 73.56 138.07 73.68 138.14"/><polyline class="cls-8" points="73.8 138.06 73.8 139.71 73.68 139.78 73.56 139.71 73.56 138.07"/><line class="cls-8" x1="73.68" y1="138.14" x2="73.68" y2="139.78"/><polygon class="cls-14" points="73.08 137.65 73.2 137.72 73.2 139.36 73.08 139.43 72.96 139.36 72.96 137.72 73.08 137.65"/><polygon class="cls-8" points="73.08 137.79 73.2 137.72 73.08 137.65 72.96 137.72 73.08 137.79"/><polyline class="cls-8" points="73.2 137.72 73.2 139.36 73.08 139.43 72.96 139.36 72.96 137.72"/><line class="cls-8" x1="73.08" y1="137.79" x2="73.08" y2="139.43"/></g><g><path class="cls-14" d="m72.32,139.45c.13,0,.2,0,.32.01l.89.52c0,.07.01.11.02.19v.55s-.29.17-.29.17c-.13,0-.2,0-.32-.01l-.89-.52c0-.07-.01-.11-.02-.19v-.55s.29-.17.29-.17Z"/><path class="cls-15" d="m73.26,140.32l.29-.17-.02-.19-.89-.52h-.32s-.29.16-.29.16l.02.19.89.52h.32Z"/><path class="cls-10" d="m73.55,140.15v.55s-.29.17-.29.17h-.32s-.89-.53-.89-.53l-.02-.19v-.55"/><line class="cls-10" x1="73.26" y1="140.32" x2="73.26" y2="140.88"/><line class="cls-10" x1="72.94" y1="140.31" x2="72.94" y2="140.87"/><polygon class="cls-14" points="73.09 138.34 73.21 138.41 73.21 140.05 73.09 140.12 72.97 140.05 72.97 138.41 73.09 138.34"/><polygon class="cls-8" points="73.09 138.48 73.21 138.41 73.09 138.34 72.97 138.41 73.09 138.48"/><polyline class="cls-8" points="73.21 138.41 73.21 140.05 73.09 140.12 72.97 140.05 72.97 138.41"/><line class="cls-8" x1="73.09" y1="138.48" x2="73.09" y2="140.12"/><polygon class="cls-14" points="72.49 137.99 72.61 138.06 72.61 139.7 72.49 139.78 72.37 139.7 72.37 138.06 72.49 137.99"/><polygon class="cls-8" points="72.49 138.13 72.61 138.06 72.49 137.99 72.37 138.06 72.49 138.13"/><polyline class="cls-8" points="72.61 138.06 72.61 139.7 72.49 139.78 72.37 139.7 72.37 138.06"/><line class="cls-8" x1="72.49" y1="138.13" x2="72.49" y2="139.78"/></g><g><path class="cls-14" d="m71.73,139.79c.13,0,.2,0,.32.01l.89.52c0,.07.01.11.02.19v.55s-.29.17-.29.17c-.13,0-.2,0-.32-.01l-.89-.52c0-.07-.01-.11-.02-.19v-.55s.29-.17.29-.17Z"/><path class="cls-15" d="m72.67,140.66l.29-.17-.02-.19-.89-.52h-.32s-.29.16-.29.16l.02.19.89.52h.32Z"/><path class="cls-10" d="m72.96,140.49v.55s-.29.17-.29.17h-.32s-.89-.53-.89-.53l-.02-.19v-.55"/><line class="cls-10" x1="72.67" y1="140.66" x2="72.67" y2="141.22"/><line class="cls-10" x1="72.35" y1="140.65" x2="72.35" y2="141.21"/><polygon class="cls-14" points="72.5 138.68 72.62 138.75 72.62 140.39 72.5 140.47 72.38 140.39 72.38 138.75 72.5 138.68"/><polygon class="cls-8" points="72.5 138.82 72.62 138.75 72.5 138.68 72.38 138.75 72.5 138.82"/><polyline class="cls-8" points="72.62 138.75 72.62 140.39 72.5 140.47 72.38 140.39 72.38 138.75"/><line class="cls-8" x1="72.5" y1="138.82" x2="72.5" y2="140.47"/><polygon class="cls-14" points="71.9 138.33 72.02 138.4 72.02 140.05 71.9 140.12 71.77 140.05 71.77 138.4 71.9 138.33"/><polygon class="cls-8" points="71.9 138.47 72.02 138.4 71.9 138.33 71.77 138.4 71.9 138.47"/><polyline class="cls-8" points="72.02 138.4 72.02 140.05 71.9 140.12 71.77 140.05 71.77 138.4"/><line class="cls-8" x1="71.9" y1="138.47" x2="71.9" y2="140.12"/></g><g><path class="cls-14" d="m71.13,140.13c.13,0,.2,0,.32.01l.89.52c0,.07.01.11.02.19v.55s-.29.17-.29.17c-.13,0-.2,0-.32-.01l-.89-.52c0-.07-.01-.11-.02-.19v-.55s.29-.17.29-.17Z"/><path class="cls-15" d="m72.08,141l.29-.17-.02-.19-.89-.52h-.32s-.29.16-.29.16l.02.19.89.52h.32Z"/><path class="cls-10" d="m72.37,140.83v.55s-.29.17-.29.17h-.32s-.89-.53-.89-.53l-.02-.19v-.55"/><line class="cls-10" x1="72.08" y1="141" x2="72.08" y2="141.56"/><line class="cls-10" x1="71.76" y1="140.99" x2="71.76" y2="141.55"/><polygon class="cls-14" points="71.91 139.02 72.03 139.09 72.03 140.74 71.91 140.81 71.79 140.74 71.79 139.09 71.91 139.02"/><polygon class="cls-8" points="71.91 139.16 72.03 139.09 71.91 139.02 71.79 139.09 71.91 139.16"/><polyline class="cls-8" points="72.03 139.09 72.03 140.74 71.91 140.81 71.79 140.74 71.79 139.09"/><line class="cls-8" x1="71.91" y1="139.16" x2="71.91" y2="140.81"/><polygon class="cls-14" points="71.31 138.67 71.43 138.74 71.43 140.39 71.3 140.46 71.18 140.39 71.18 138.74 71.31 138.67"/><polygon class="cls-8" points="71.3 138.81 71.43 138.74 71.31 138.67 71.18 138.74 71.3 138.81"/><polyline class="cls-8" points="71.43 138.74 71.43 140.39 71.3 140.46 71.18 140.39 71.18 138.74"/><line class="cls-8" x1="71.3" y1="138.81" x2="71.3" y2="140.46"/></g><g><path class="cls-14" d="m70.54,140.48c.13,0,.2,0,.32.01l.89.52c0,.07.01.11.02.19v.55s-.29.17-.29.17c-.13,0-.2,0-.32-.01l-.89-.52c0-.07-.01-.11-.02-.19v-.55s.29-.17.29-.17Z"/><path class="cls-15" d="m71.49,141.34l.29-.17-.02-.19-.89-.52h-.32s-.29.16-.29.16l.02.19.89.52h.32Z"/><path class="cls-10" d="m71.78,141.18v.55s-.29.17-.29.17h-.32s-.89-.53-.89-.53l-.02-.19v-.55"/><line class="cls-10" x1="71.49" y1="141.34" x2="71.49" y2="141.9"/><line class="cls-10" x1="71.17" y1="141.33" x2="71.17" y2="141.89"/><polygon class="cls-14" points="71.32 139.36 71.44 139.43 71.44 141.08 71.32 141.15 71.2 141.08 71.2 139.43 71.32 139.36"/><polygon class="cls-8" points="71.32 139.5 71.44 139.43 71.32 139.36 71.2 139.43 71.32 139.5"/><polyline class="cls-8" points="71.44 139.43 71.44 141.08 71.32 141.15 71.2 141.08 71.2 139.43"/><line class="cls-8" x1="71.32" y1="139.5" x2="71.32" y2="141.15"/><polygon class="cls-14" points="70.71 139.01 70.84 139.08 70.84 140.73 70.71 140.8 70.59 140.73 70.59 139.08 70.71 139.01"/><polygon class="cls-8" points="70.71 139.15 70.84 139.08 70.71 139.01 70.59 139.08 70.71 139.15"/><polyline class="cls-8" points="70.84 139.08 70.84 140.73 70.71 140.8 70.59 140.73 70.59 139.08"/><line class="cls-8" x1="70.71" y1="139.15" x2="70.71" y2="140.8"/></g><g><path class="cls-14" d="m69.95,140.82c.13,0,.2,0,.32.01l.89.52c0,.07.01.11.02.19v.55s-.29.17-.29.17c-.13,0-.2,0-.32-.01l-.89-.52c0-.07-.01-.11-.02-.19v-.55s.29-.17.29-.17Z"/><path class="cls-15" d="m70.9,141.69l.29-.17-.02-.19-.89-.52h-.32s-.29.16-.29.16l.02.19.89.52h.32Z"/><path class="cls-10" d="m71.19,141.52v.55s-.29.17-.29.17h-.32s-.89-.53-.89-.53l-.02-.19v-.55"/><line class="cls-10" x1="70.9" y1="141.69" x2="70.9" y2="142.25"/><line class="cls-10" x1="70.58" y1="141.67" x2="70.58" y2="142.23"/><polygon class="cls-14" points="70.73 139.7 70.85 139.77 70.85 141.42 70.73 141.49 70.6 141.42 70.6 139.77 70.73 139.7"/><polygon class="cls-8" points="70.73 139.84 70.85 139.77 70.73 139.7 70.6 139.77 70.73 139.84"/><polyline class="cls-8" points="70.85 139.77 70.85 141.42 70.73 141.49 70.6 141.42 70.6 139.77"/><line class="cls-8" x1="70.73" y1="139.84" x2="70.73" y2="141.49"/><polygon class="cls-14" points="70.12 139.35 70.24 139.42 70.24 141.07 70.12 141.14 70 141.07 70 139.42 70.12 139.35"/><polygon class="cls-8" points="70.12 139.49 70.24 139.42 70.12 139.35 70 139.42 70.12 139.49"/><polyline class="cls-8" points="70.24 139.42 70.24 141.07 70.12 141.14 70 141.07 70 139.42"/><line class="cls-8" x1="70.12" y1="139.49" x2="70.12" y2="141.14"/></g><g><path class="cls-14" d="m69.36,141.16c.13,0,.2,0,.32.01l.89.52c0,.07.01.11.02.19v.55s-.29.17-.29.17c-.13,0-.2,0-.32-.01l-.89-.52c0-.07-.01-.11-.02-.19v-.55s.29-.17.29-.17Z"/><path class="cls-15" d="m70.31,142.03l.29-.17-.02-.19-.89-.52h-.32s-.29.16-.29.16l.02.19.89.52h.32Z"/><path class="cls-10" d="m70.6,141.86v.55s-.29.17-.29.17h-.32s-.89-.53-.89-.53l-.02-.19v-.55"/><line class="cls-10" x1="70.31" y1="142.03" x2="70.31" y2="142.59"/><line class="cls-10" x1="69.98" y1="142.01" x2="69.98" y2="142.57"/><polygon class="cls-14" points="70.14 140.04 70.26 140.11 70.26 141.76 70.14 141.83 70.01 141.76 70.01 140.11 70.14 140.04"/><polygon class="cls-8" points="70.14 140.18 70.26 140.11 70.14 140.04 70.01 140.11 70.14 140.18"/><polyline class="cls-8" points="70.26 140.11 70.26 141.76 70.14 141.83 70.01 141.76 70.01 140.11"/><line class="cls-8" x1="70.14" y1="140.18" x2="70.14" y2="141.83"/><polygon class="cls-14" points="69.53 139.69 69.65 139.76 69.65 141.41 69.53 141.48 69.41 141.41 69.41 139.76 69.53 139.69"/><polygon class="cls-8" points="69.53 139.83 69.65 139.76 69.53 139.69 69.41 139.76 69.53 139.83"/><polyline class="cls-8" points="69.65 139.76 69.65 141.41 69.53 141.48 69.41 141.41 69.41 139.76"/><line class="cls-8" x1="69.53" y1="139.83" x2="69.53" y2="141.48"/></g><g><path class="cls-14" d="m68.77,141.5c.13,0,.2,0,.32.01l.89.52c0,.07.01.11.02.19v.55s-.29.17-.29.17c-.13,0-.2,0-.32-.01l-.89-.52c0-.07-.01-.11-.02-.19v-.55s.29-.17.29-.17Z"/><path class="cls-15" d="m69.72,142.37l.29-.17-.02-.19-.89-.52h-.32s-.29.16-.29.16l.02.19.89.52h.32Z"/><path class="cls-10" d="m70.01,142.2v.55s-.29.17-.29.17h-.32s-.89-.53-.89-.53l-.02-.19v-.55"/><line class="cls-10" x1="69.72" y1="142.37" x2="69.72" y2="142.93"/><line class="cls-10" x1="69.39" y1="142.36" x2="69.39" y2="142.92"/><polygon class="cls-14" points="69.54 140.38 69.67 140.45 69.67 142.1 69.54 142.17 69.42 142.1 69.42 140.45 69.54 140.38"/><polygon class="cls-8" points="69.54 140.52 69.67 140.45 69.54 140.38 69.42 140.45 69.54 140.52"/><polyline class="cls-8" points="69.67 140.45 69.67 142.1 69.54 142.17 69.42 142.1 69.42 140.45"/><line class="cls-8" x1="69.54" y1="140.52" x2="69.54" y2="142.17"/><polygon class="cls-14" points="68.94 140.03 69.06 140.1 69.06 141.75 68.94 141.82 68.82 141.75 68.82 140.11 68.94 140.03"/><polygon class="cls-8" points="68.94 140.18 69.06 140.1 68.94 140.03 68.82 140.11 68.94 140.18"/><polyline class="cls-8" points="69.06 140.1 69.06 141.75 68.94 141.82 68.82 141.75 68.82 140.11"/><line class="cls-8" x1="68.94" y1="140.18" x2="68.94" y2="141.82"/></g><g><path class="cls-14" d="m68.18,141.84c.13,0,.2,0,.32.01l.89.52c0,.07.01.11.02.19v.55s-.29.17-.29.17c-.13,0-.2,0-.32-.01l-.89-.52c0-.07-.01-.11-.02-.19v-.55s.29-.17.29-.17Z"/><path class="cls-15" d="m69.12,142.71l.29-.17-.02-.19-.89-.52h-.32s-.29.16-.29.16l.02.19.89.52h.32Z"/><path class="cls-10" d="m69.42,142.54v.55s-.29.17-.29.17h-.32s-.89-.53-.89-.53l-.02-.19v-.55"/><line class="cls-10" x1="69.12" y1="142.71" x2="69.12" y2="143.27"/><line class="cls-10" x1="68.8" y1="142.7" x2="68.8" y2="143.26"/><polygon class="cls-14" points="68.95 140.72 69.08 140.8 69.08 142.44 68.95 142.51 68.83 142.44 68.83 140.8 68.95 140.72"/><polygon class="cls-8" points="68.95 140.87 69.08 140.8 68.95 140.72 68.83 140.8 68.95 140.87"/><polyline class="cls-8" points="69.08 140.8 69.08 142.44 68.95 142.51 68.83 142.44 68.83 140.8"/><line class="cls-8" x1="68.95" y1="140.87" x2="68.95" y2="142.51"/><polygon class="cls-14" points="68.35 140.38 68.47 140.45 68.47 142.09 68.35 142.16 68.23 142.09 68.23 140.45 68.35 140.38"/><polygon class="cls-8" points="68.35 140.52 68.47 140.45 68.35 140.38 68.23 140.45 68.35 140.52"/><polyline class="cls-8" points="68.47 140.45 68.47 142.09 68.35 142.16 68.23 142.09 68.23 140.45"/><line class="cls-8" x1="68.35" y1="140.52" x2="68.35" y2="142.16"/></g><g><path class="cls-14" d="m67.59,142.18c.13,0,.2,0,.32.01l.89.52c0,.07.01.11.02.19v.55s-.29.17-.29.17c-.13,0-.2,0-.32-.01l-.89-.52c0-.07-.01-.11-.02-.19v-.55s.29-.17.29-.17Z"/><path class="cls-15" d="m68.53,143.05l.29-.17-.02-.19-.89-.52h-.32s-.29.16-.29.16l.02.19.89.52h.32Z"/><path class="cls-10" d="m68.83,142.88v.55s-.29.17-.29.17h-.32s-.89-.53-.89-.53l-.02-.19v-.55"/><line class="cls-10" x1="68.53" y1="143.05" x2="68.53" y2="143.61"/><line class="cls-10" x1="68.21" y1="143.04" x2="68.21" y2="143.6"/><polygon class="cls-14" points="68.36 141.07 68.48 141.14 68.48 142.78 68.36 142.85 68.24 142.78 68.24 141.14 68.36 141.07"/><polygon class="cls-8" points="68.36 141.21 68.48 141.14 68.36 141.07 68.24 141.14 68.36 141.21"/><polyline class="cls-8" points="68.48 141.14 68.48 142.78 68.36 142.85 68.24 142.78 68.24 141.14"/><line class="cls-8" x1="68.36" y1="141.21" x2="68.36" y2="142.85"/><polygon class="cls-14" points="67.76 140.72 67.88 140.79 67.88 142.43 67.76 142.51 67.64 142.44 67.64 140.79 67.76 140.72"/><polygon class="cls-8" points="67.76 140.86 67.88 140.79 67.76 140.72 67.64 140.79 67.76 140.86"/><polyline class="cls-8" points="67.88 140.79 67.88 142.43 67.76 142.51 67.64 142.44 67.64 140.79"/><line class="cls-8" x1="67.76" y1="140.86" x2="67.76" y2="142.51"/></g><g><path class="cls-14" d="m67,142.52c.13,0,.2,0,.32.01l.89.52c0,.07.01.11.02.19v.55s-.29.17-.29.17c-.13,0-.2,0-.32-.01l-.89-.52c0-.07-.01-.11-.02-.19v-.55s.29-.17.29-.17Z"/><path class="cls-15" d="m67.94,143.39l.29-.17-.02-.19-.89-.52h-.32s-.29.16-.29.16l.02.19.89.52h.32Z"/><path class="cls-10" d="m68.23,143.22v.55s-.29.17-.29.17h-.32s-.89-.53-.89-.53l-.02-.19v-.55"/><line class="cls-10" x1="67.94" y1="143.39" x2="67.94" y2="143.95"/><line class="cls-10" x1="67.62" y1="143.38" x2="67.62" y2="143.94"/><polygon class="cls-14" points="67.77 141.41 67.89 141.48 67.89 143.13 67.77 143.2 67.65 143.13 67.65 141.48 67.77 141.41"/><polygon class="cls-8" points="67.77 141.55 67.89 141.48 67.77 141.41 67.65 141.48 67.77 141.55"/><polyline class="cls-8" points="67.89 141.48 67.89 143.13 67.77 143.2 67.65 143.13 67.65 141.48"/><line class="cls-8" x1="67.77" y1="141.55" x2="67.77" y2="143.2"/><polygon class="cls-14" points="67.17 141.06 67.29 141.13 67.29 142.78 67.17 142.85 67.04 142.78 67.04 141.13 67.17 141.06"/><polygon class="cls-8" points="67.17 141.2 67.29 141.13 67.17 141.06 67.04 141.13 67.17 141.2"/><polyline class="cls-8" points="67.29 141.13 67.29 142.78 67.17 142.85 67.04 142.78 67.04 141.13"/><line class="cls-8" x1="67.17" y1="141.2" x2="67.17" y2="142.85"/></g></g><g><polygon class="cls-14" points="60 137.57 60 135.96 57.32 134.41 55.55 135.43 55.55 137.04 58.24 138.59 60 137.57"/><polygon class="cls-4" points="60 135.96 58.24 136.98 58.24 138.59 60 137.57 60 135.96"/><line class="cls-4" x1="58.24" y1="136.98" x2="55.55" y2="135.43"/><polyline class="cls-4" points="60 135.96 57.32 134.41 55.55 135.43 55.55 137.04 58.24 138.59"/></g><g><polygon class="cls-14" points="56.8 137.27 56.8 140.91 52.9 143.17 49.89 141.43 49.89 137.79 53.8 135.54 56.8 137.27"/><polygon class="cls-4" points="53.8 135.54 49.89 137.79 52.9 139.53 56.8 137.27 53.8 135.54"/><polyline class="cls-4" points="52.82 138.26 52.07 138.81 52.42 139.01 53.37 138.58"/><polyline class="cls-4" points="51.46 137.48 50.71 138.03 51.07 138.23 52.02 137.8"/><polyline class="cls-4" points="56.8 137.27 56.8 140.91 52.9 143.17 49.89 141.43 49.89 137.79"/><line class="cls-4" x1="52.9" y1="139.53" x2="52.9" y2="143.17"/><polygon class="cls-4" points="52.75 139.64 50.03 138.07 50.03 141.35 52.75 142.92 52.75 139.64"/><line class="cls-4" x1="52.73" y1="140.87" x2="50.03" y2="139.31"/><line class="cls-4" x1="52.49" y1="141.86" x2="50.16" y2="140.52"/><line class="cls-4" x1="52.73" y1="141.58" x2="50.03" y2="140.02"/><polyline class="cls-4" points="50.53 140.31 50.16 140.52 50.16 140.95 52.49 142.29 52.74 142.15"/><polyline class="cls-4" points="52.74 141.72 52.49 141.86 52.49 142.29"/><polyline class="cls-4" points="50.32 138.24 50.16 138.33 50.16 138.76 52.49 140.1 52.74 139.96"/><polyline class="cls-4" points="52.64 139.59 52.49 139.67 52.49 140.1"/></g><g><polygon class="cls-14" points="60.34 139.31 60.34 142.95 56.43 145.21 53.42 143.47 53.42 139.83 57.33 137.58 60.34 139.31"/><polygon class="cls-4" points="57.33 137.58 53.42 139.83 56.43 141.57 60.34 139.31 57.33 137.58"/><polyline class="cls-4" points="60.34 139.31 60.34 142.95 56.43 145.21 53.42 143.47 53.42 139.83"/><line class="cls-4" x1="56.43" y1="141.57" x2="56.43" y2="145.21"/><polygon class="cls-4" points="56.29 141.68 53.56 140.11 53.56 143.39 56.29 144.96 56.29 141.68"/><line class="cls-4" x1="56.27" y1="142.91" x2="53.57" y2="141.35"/><line class="cls-4" x1="56.03" y1="143.91" x2="53.7" y2="142.56"/><line class="cls-4" x1="56.27" y1="143.62" x2="53.57" y2="142.06"/><polyline class="cls-4" points="54.06 142.35 53.7 142.56 53.7 142.99 56.03 144.33 56.27 144.19"/><polyline class="cls-4" points="56.27 143.76 56.03 143.91 56.03 144.33"/><polyline class="cls-4" points="53.85 140.28 53.7 140.37 53.7 140.8 56.03 142.14 56.27 142"/><polyline class="cls-4" points="56.17 141.63 56.03 141.71 56.03 142.14"/><path d="m56.68,139.99l-1.12.86c-.05.03-.05.07,0,.1l.36.21s.11.03.16,0l1.5-.66-.17-.1-1.39.61-.22-.12,1.05-.8-.17-.1Z"/><path d="m55.25,139.16l-1.12.86c-.05.03-.05.07,0,.1l.36.21s.11.03.16,0l1.5-.66-.17-.1-1.39.61-.22-.12,1.05-.8-.17-.1Z"/><path class="cls-10" d="m55.04,140.44s1.17-.62,1.17-.62l.13.07.13.07s-1.06.67-1.07.67"/></g><g><polygon class="cls-14" points="65.7 141.37 62.04 139.26 57.1 142.11 57.1 145.6 60.76 147.71 65.7 144.86 65.7 141.37"/><polygon class="cls-4" points="62.04 139.26 57.1 142.11 60.76 144.22 65.7 141.37 62.04 139.26"/><polyline class="cls-4" points="57.1 142.11 57.1 145.6 60.76 147.71 65.7 144.86 65.7 141.37"/><line class="cls-4" x1="60.76" y1="144.22" x2="60.76" y2="147.71"/><polygon class="cls-4" points="57.48 142.97 57.48 145.61 60.3 147.23 60.3 144.59 57.48 142.97"/><line class="cls-4" x1="59.82" y1="144.3" x2="58.32" y2="145.17"/><line class="cls-4" x1="60.3" y1="145.79" x2="59.74" y2="146.11"/><line class="cls-4" x1="59.16" y1="143.94" x2="57.68" y2="144.79"/><line class="cls-4" x1="60.29" y1="145.05" x2="58.8" y2="145.92"/><line class="cls-4" x1="59.73" y1="146.23" x2="59.48" y2="146.37"/><line class="cls-4" x1="58.8" y1="146.07" x2="58.55" y2="146.21"/><line class="cls-4" x1="58.57" y1="145.59" x2="58.32" y2="145.73"/><polyline class="cls-4" points="57.68 143.12 57.68 144.79 58.32 145.17 58.32 145.73 58.55 145.86 58.55 146.21"/><polyline class="cls-4" points="58.57 145.59 58.8 145.72 58.8 146.07"/><polyline class="cls-4" points="60.3 146.44 59.74 146.11 59.74 146.52"/><polyline class="cls-4" points="59.74 146.52 59.48 146.37 59.48 146.74"/></g></g><path class="cls-18" d="m65.22,139.15c-1.07.89-1,2.03-1,2.03v7.56s14.4,8.29,14.4,8.29c.27.16.6.16.87,0l.82-.48,1.46-1.27-.17-10.88-13.9-5.82-2.47.57Z"/><path class="cls-6" d="m80.31,152.13l-.82.48c-.27.16-.6.16-.87,0"/><path class="cls-16" d="m68.78,150.74v4.64c0,.14.09.28.28.39.37.21.97.21,1.34,0,.19-.11.28-.25.28-.39v-4.61"/><path class="cls-16" d="m68.36,148.89v1.43c0,.2.13.41.4.56.53.31,1.4.31,1.93,0,.27-.15.4-.36.4-.56v-1.4"/><ellipse class="cls-16" cx="69.73" cy="148.92" rx=".79" ry="1.37" transform="translate(-79.62 217.71) rotate(-89.64)"/><ellipse class="cls-16" cx="69.73" cy="148.69" rx=".61" ry="1.05" transform="translate(-79.39 217.5) rotate(-89.64)"/><ellipse class="cls-16" cx="69.73" cy="148.55" rx=".45" ry=".78" transform="translate(-79.25 217.33) rotate(-89.64)"/><line class="cls-6" x1="78.62" y1="152.6" x2="78.62" y2="156.96"/><path class="cls-6" d="m74.65,144.84c2.26,1.78,3.97,5.03,3.97,7.76"/><path class="cls-6" d="m75.49,144.35c2.26,1.78,3.97,5.03,3.97,7.76,0,0,.02.62.02.55v4.36"/><path class="cls-16" d="m95.63,140.02v2.49c0,.14.09.29.28.4.38.22.99.22,1.37,0,.19-.11.28-.25.29-.39v-2.46"/><path class="cls-16" d="m102.82,144.22v2.49c0,.14.09.29.28.4.38.22.99.22,1.37,0,.19-.11.28-.25.29-.39v-2.46"/><path class="cls-16" d="m109.81,140.19v2.49c0,.14.09.29.28.4.38.22.99.22,1.37,0,.19-.11.28-.25.29-.39v-2"/><g><polygon class="cls-14" points="94.9 140.3 94.9 140.78 103.8 145.92 112.18 141.09 112.18 140.61 103.28 135.47 94.9 140.3"/><polygon class="cls-6" points="94.9 140.3 103.8 145.44 112.18 140.61 103.28 135.47 94.9 140.3"/><polyline class="cls-6" points="112.18 140.61 112.18 141.09 103.8 145.92 94.9 140.78 94.9 140.3"/></g><polygon class="cls-18" points="110.11 136.61 110.11 141.74 106.89 139.89 106.89 134.74 110.11 136.61"/><polygon class="cls-18" points="108.63 137.46 108.63 142.6 105.41 140.74 105.41 135.59 108.63 137.46"/><polygon class="cls-18" points="107.15 138.32 107.15 143.45 103.93 141.6 103.93 136.45 107.15 138.32"/><polygon class="cls-18" points="105.66 139.18 105.66 144.31 102.44 142.46 102.44 137.31 105.66 139.18"/><path class="cls-18" d="m102.29,135.25c-.2,1.08-.32,2.15-.32,3.19s.11,1.98.32,2.82l.88.51,4.45-3.33-3.14-3.96-2.19.76Z"/><path class="cls-16" d="m134.21,113.24v17.56c0,.19.12.38.37.52.5.29,1.3.28,1.8,0,.25-.14.37-.33.38-.52v-17.52"/><path class="cls-16" d="m80.32,144.35v17.56c0,.19.12.38.37.52.5.29,1.3.28,1.8,0,.25-.14.37-.33.38-.52v-17.52"/><path class="cls-16" d="m45.56,124.61v17.56c0,.19.12.38.37.52.5.29,1.3.28,1.8,0,.25-.14.37-.33.38-.52v-17.52"/><path class="cls-18" d="m118.95,132.66c.2-1.08.32-2.15.32-3.19,0-1.04-.11-1.98-.32-2.82l-15.78,9.11c-.2,1.08-.32,2.15-.32,3.19s.11,1.98.32,2.82l15.78-9.11Z"/><g><path class="cls-9" d="m106.52,133.83c-.2,1.08-.32,2.15-.32,3.19s.11,1.98.32,2.82"/><path class="cls-9" d="m115.6,128.59c.2.85.32,1.79.32,2.82s-.11,2.11-.32,3.19"/></g><path class="cls-9" d="m112.9,134.58l-3.86,2.23c-.23.13-.41,0-.41-.31v-1.77c0-.3.18-.65.41-.78l3.86-2.23c.23-.13.41,0,.41.31v1.77c0,.3-.18.65-.41.78Z"/><ellipse class="cls-9" cx="110.97" cy="134.26" rx=".69" ry=".4" transform="translate(-60.97 162.15) rotate(-59.64)"/><g><path class="cls-14" d="m99.53,138.41c0-.15.1-.3.3-.42.4-.23,1.06-.23,1.46,0,.2.12.3.27.3.42v2.22c0,.15-.1.31-.3.42-.4.23-1.05.23-1.46,0-.2-.12-.3-.27-.3-.42v-2.22Z"/><ellipse class="cls-9" cx="100.56" cy="138.4" rx=".59" ry="1.03" transform="translate(-38.47 238.09) rotate(-89.64)"/><path class="cls-2" d="m99.53,138.41v2.22c0,.15.1.3.3.42.4.23,1.06.23,1.46,0,.2-.12.3-.27.3-.42v-2.22"/></g><ellipse class="cls-9" cx="103.77" cy="144.3" rx=".43" ry=".75" transform="translate(-41.18 247.15) rotate(-89.64)"/><g><polygon class="cls-14" points="97.45 139.71 98.61 139.04 100.93 140.38 100.93 141.92 99.77 142.59 97.45 141.26 97.45 139.71"/><polygon class="cls-6" points="97.45 139.71 98.61 139.04 100.93 140.38 99.77 141.05 97.45 139.71"/><polyline class="cls-6" points="97.45 139.71 97.45 141.26 99.77 142.59 100.93 141.92 100.93 140.38"/><line class="cls-6" x1="99.78" y1="141.02" x2="99.77" y2="142.59"/></g><path class="cls-6" d="m131.6,128.71l-3.26,1.88c-.44-1.43-1.46-2.84-2.65-3.53-.11-.07-.22-.12-.33-.17l3.27-1.89"/><ellipse class="cls-6" cx="84.92" cy="150.46" rx=".31" ry=".53" transform="translate(-64.4 63.55) rotate(-30.36)"/><ellipse class="cls-6" cx="87.58" cy="154.52" rx=".31" ry=".53" transform="translate(-66.09 65.45) rotate(-30.36)"/><ellipse class="cls-18" cx="122.15" cy="132.38" rx="2.35" ry="4.07" transform="translate(-50.16 79.89) rotate(-30.36)"/><path class="cls-18" d="m122.92,135.26l.67-.38c.29-.23.46-.65.46-1.21,0-1.28-.91-2.84-2.02-3.49-.45-.26-.86-.33-1.2-.24-.06.02-.12.04-.17.08l-.59.34"/><ellipse class="cls-18" cx="121.33" cy="132.9" rx="1.65" ry="2.85" transform="translate(-50.53 79.55) rotate(-30.36)"/><ellipse class="cls-18" cx="120.99" cy="133.09" rx="1.21" ry="2.1" transform="translate(-50.68 79.41) rotate(-30.36)"/><line class="cls-6" x1="127.67" y1="122.88" x2="130.35" y2="124.41"/><line class="cls-6" x1="128.76" y1="122.24" x2="131.44" y2="123.78"/><line class="cls-6" x1="88.6" y1="155.1" x2="91.35" y2="153.51"/><line class="cls-6" x1="88.32" y1="154.12" x2="91.07" y2="152.53"/><line class="cls-6" x1="88" y1="153.26" x2="90.75" y2="151.67"/><line class="cls-6" x1="87.2" y1="151.88" x2="89.96" y2="150.29"/><line class="cls-6" x1="84.6" y1="149.14" x2="87.35" y2="147.55"/><line class="cls-6" x1="83.97" y1="147.23" x2="83.97" y2="148.84"/><line class="cls-6" x1="88.5" y1="145.18" x2="88.5" y2="147.04"/><line class="cls-6" x1="88.88" y1="144.88" x2="88.88" y2="146.85"/><line class="cls-6" x1="86.62" y1="146.22" x2="86.62" y2="147.97"/><line class="cls-6" x1="123.49" y1="124.02" x2="123.49" y2="126.85"/><line class="cls-6" x1="123.93" y1="123.75" x2="123.93" y2="126.63"/><path class="cls-23" d="m46.27,122.75l10.25-5.92c.2-.12.51-.15.78-.09l.56.13c.27.06.57.03.78-.09l27.38-15.81c.2-.12.27-.29.16-.45l-.23-.32c-.11-.15-.05-.33.16-.45l10.25-5.92c2.86-1.65,7.48-1.66,10.32-.02l30.25,17.46c2.84,1.64,2.82,4.31-.04,5.96l-10.32,5.96c-.2.12-.51.15-.78.09l-.3-.07c-.27-.06-.57-.03-.78.09l-27.38,15.81c.02.3.1.9-.28,1.13l-10.24,5.9c-2.86,1.65-7.48,1.66-10.32.02l-30.25-17.46c-2.84-1.64-2.82-4.31.04-5.96Z"/><path class="cls-16" d="m46.27,121.86l10.25-5.92c.2-.12.51-.15.78-.09l.56.13c.27.06.57.03.78-.09l27.38-15.81c.2-.12.27-.29.16-.45l-.23-.32c-.11-.15-.05-.33.16-.45l10.25-5.92c2.86-1.65,7.48-1.66,10.32-.02l30.25,17.46c2.84,1.64,2.82,4.31-.04,5.96l-10.32,5.96c-.2.12-.51.15-.78.09l-.3-.07c-.27-.06-.57-.03-.78.09l-27.38,15.81c-.2.12-.27.29-.16.45l.12.17c.11.15.05.33-.16.45l-10.32,5.96c-2.86,1.65-7.48,1.66-10.32.02l-30.25-17.46c-2.84-1.64-2.82-4.31.04-5.96Z"/><ellipse class="cls-16" cx="135.48" cy="113.3" rx="1.27" ry=".73" transform="translate(-.71 .85) rotate(-.36)"/><ellipse class="cls-16" cx="101.52" cy="93.69" rx="1.27" ry=".73" transform="translate(-.59 .64) rotate(-.36)"/><ellipse class="cls-16" cx="81.6" cy="144.41" rx="1.27" ry=".73" transform="translate(-.91 .52) rotate(-.36)"/><ellipse class="cls-16" cx="46.82" cy="124.74" rx="1.27" ry=".73" transform="translate(-.78 .3) rotate(-.36)"/><ellipse class="cls-16" cx="101.69" cy="96.06" rx=".58" ry=".34" transform="translate(-.61 .65) rotate(-.36)"/><ellipse class="cls-16" cx="131.48" cy="113.26" rx=".58" ry=".34" transform="translate(-.71 .83) rotate(-.36)"/><ellipse class="cls-16" cx="126.52" cy="110.4" rx=".58" ry=".34" transform="translate(-.7 .8) rotate(-.36)"/><ellipse class="cls-16" cx="121.55" cy="107.53" rx=".58" ry=".34" transform="translate(-.68 .77) rotate(-.36)"/><ellipse class="cls-16" cx="116.58" cy="104.66" rx=".58" ry=".34" transform="translate(-.66 .74) rotate(-.36)"/><ellipse class="cls-16" cx="111.62" cy="101.79" rx=".58" ry=".34" transform="translate(-.64 .71) rotate(-.36)"/><ellipse class="cls-16" cx="106.65" cy="98.93" rx=".58" ry=".34" transform="translate(-.62 .68) rotate(-.36)"/><ellipse class="cls-16" cx="71.67" cy="113.39" rx=".58" ry=".34" transform="translate(-.71 .45) rotate(-.36)"/><ellipse class="cls-16" cx="81.68" cy="107.61" rx=".58" ry=".34" transform="translate(-.67 .51) rotate(-.36)"/><ellipse class="cls-16" cx="86.68" cy="104.72" rx=".58" ry=".34" transform="translate(-.65 .54) rotate(-.36)"/><ellipse class="cls-16" cx="91.68" cy="101.84" rx=".58" ry=".34" transform="translate(-.64 .58) rotate(-.36)"/><ellipse class="cls-16" cx="96.68" cy="98.95" rx=".58" ry=".34" transform="translate(-.62 .61) rotate(-.36)"/><ellipse class="cls-16" cx="51.66" cy="124.94" rx=".58" ry=".34" transform="translate(-.78 .33) rotate(-.36)"/><ellipse class="cls-16" cx="56.67" cy="122.05" rx=".58" ry=".34" transform="translate(-.76 .36) rotate(-.36)"/><ellipse class="cls-16" cx="61.67" cy="119.16" rx=".58" ry=".34" transform="translate(-.74 .39) rotate(-.36)"/><ellipse class="cls-16" cx="66.67" cy="116.28" rx=".58" ry=".34" transform="translate(-.73 .42) rotate(-.36)"/><ellipse class="cls-16" cx="76.64" cy="116.25" rx=".58" ry=".34" transform="translate(-.73 .48) rotate(-.36)"/><ellipse class="cls-16" cx="81.64" cy="113.37" rx=".58" ry=".34" transform="translate(-.71 .51) rotate(-.36)"/><ellipse class="cls-16" cx="86.64" cy="110.48" rx=".58" ry=".34" transform="translate(-.69 .54) rotate(-.36)"/><ellipse class="cls-16" cx="91.65" cy="107.59" rx=".58" ry=".34" transform="translate(-.67 .58) rotate(-.36)"/><ellipse class="cls-16" cx="96.65" cy="104.7" rx=".58" ry=".34" transform="translate(-.65 .61) rotate(-.36)"/><ellipse class="cls-16" cx="101.65" cy="101.81" rx=".58" ry=".34" transform="translate(-.63 .64) rotate(-.36)"/><ellipse class="cls-16" cx="56.63" cy="127.81" rx=".58" ry=".34" transform="translate(-.8 .36) rotate(-.36)"/><ellipse class="cls-16" cx="61.63" cy="124.92" rx=".58" ry=".34" transform="translate(-.78 .39) rotate(-.36)"/><ellipse class="cls-16" cx="66.63" cy="122.03" rx=".58" ry=".34" transform="translate(-.76 .42) rotate(-.36)"/><ellipse class="cls-16" cx="71.64" cy="119.14" rx=".58" ry=".34" transform="translate(-.74 .45) rotate(-.36)"/><ellipse class="cls-16" cx="81.6" cy="119.12" rx=".58" ry=".34" transform="translate(-.74 .51) rotate(-.36)"/><ellipse class="cls-16" cx="86.61" cy="116.23" rx=".58" ry=".34" transform="translate(-.73 .54) rotate(-.36)"/><ellipse class="cls-16" cx="91.61" cy="113.35" rx=".58" ry=".34" transform="translate(-.71 .58) rotate(-.36)"/><ellipse class="cls-16" cx="96.61" cy="110.46" rx=".58" ry=".34" transform="translate(-.69 .61) rotate(-.36)"/><ellipse class="cls-16" cx="101.61" cy="107.57" rx=".58" ry=".34" transform="translate(-.67 .64) rotate(-.36)"/><ellipse class="cls-16" cx="106.62" cy="104.68" rx=".58" ry=".34" transform="translate(-.65 .67) rotate(-.36)"/><ellipse class="cls-16" cx="61.6" cy="130.67" rx=".58" ry=".34" transform="translate(-.82 .39) rotate(-.36)"/><ellipse class="cls-16" cx="66.6" cy="127.79" rx=".58" ry=".34" transform="translate(-.8 .42) rotate(-.36)"/><ellipse class="cls-16" cx="71.6" cy="124.9" rx=".58" ry=".34" transform="translate(-.78 .45) rotate(-.36)"/><ellipse class="cls-16" cx="76.6" cy="122.01" rx=".58" ry=".34" transform="translate(-.76 .48) rotate(-.36)"/><ellipse class="cls-16" cx="101.58" cy="113.32" rx=".58" ry=".34" transform="translate(-.71 .64) rotate(-.36)"/><ellipse class="cls-16" cx="106.58" cy="110.44" rx=".58" ry=".34" transform="translate(-.69 .67) rotate(-.36)"/><ellipse class="cls-16" cx="111.58" cy="107.55" rx=".58" ry=".34" transform="translate(-.67 .7) rotate(-.36)"/><ellipse class="cls-16" cx="66.56" cy="133.54" rx=".58" ry=".34" transform="translate(-.83 .42) rotate(-.36)"/><ellipse class="cls-16" cx="71.56" cy="130.65" rx=".58" ry=".34" transform="translate(-.82 .45) rotate(-.36)"/><ellipse class="cls-16" cx="76.57" cy="127.77" rx=".58" ry=".34" transform="translate(-.8 .48) rotate(-.36)"/><ellipse class="cls-16" cx="81.57" cy="124.88" rx=".58" ry=".34" transform="translate(-.78 .51) rotate(-.36)"/><ellipse class="cls-16" cx="86.57" cy="121.99" rx=".58" ry=".34" transform="translate(-.76 .54) rotate(-.36)"/><ellipse class="cls-16" cx="91.57" cy="119.1" rx=".58" ry=".34" transform="translate(-.74 .58) rotate(-.36)"/><ellipse class="cls-16" cx="96.57" cy="116.21" rx=".58" ry=".34" transform="translate(-.72 .61) rotate(-.36)"/><ellipse class="cls-16" cx="106.54" cy="116.19" rx=".58" ry=".34" transform="translate(-.72 .67) rotate(-.36)"/><ellipse class="cls-16" cx="111.55" cy="113.3" rx=".58" ry=".34" transform="translate(-.71 .7) rotate(-.36)"/><ellipse class="cls-16" cx="116.55" cy="110.42" rx=".58" ry=".34" transform="translate(-.69 .73) rotate(-.36)"/><ellipse class="cls-16" cx="71.53" cy="136.41" rx=".58" ry=".34" transform="translate(-.85 .45) rotate(-.36)"/><ellipse class="cls-16" cx="76.53" cy="133.52" rx=".58" ry=".34" transform="translate(-.83 .48) rotate(-.36)"/><ellipse class="cls-16" cx="81.53" cy="130.63" rx=".58" ry=".34" transform="translate(-.82 .51) rotate(-.36)"/><ellipse class="cls-16" cx="86.53" cy="127.74" rx=".58" ry=".34" transform="translate(-.8 .54) rotate(-.36)"/><ellipse class="cls-16" cx="111.51" cy="119.06" rx=".58" ry=".34" transform="translate(-.74 .7) rotate(-.36)"/><ellipse class="cls-16" cx="116.51" cy="116.17" rx=".58" ry=".34" transform="translate(-.72 .73) rotate(-.36)"/><ellipse class="cls-16" cx="121.51" cy="113.28" rx=".58" ry=".34" transform="translate(-.71 .76) rotate(-.36)"/><ellipse class="cls-16" cx="76.49" cy="139.28" rx=".58" ry=".34" transform="translate(-.87 .48) rotate(-.36)"/><ellipse class="cls-16" cx="81.5" cy="136.39" rx=".58" ry=".34" transform="translate(-.85 .51) rotate(-.36)"/><ellipse class="cls-16" cx="86.5" cy="133.5" rx=".58" ry=".34" transform="translate(-.83 .54) rotate(-.36)"/><ellipse class="cls-16" cx="91.5" cy="130.61" rx=".58" ry=".34" transform="translate(-.82 .57) rotate(-.36)"/><ellipse class="cls-16" cx="116.48" cy="121.93" rx=".58" ry=".34" transform="translate(-.76 .73) rotate(-.36)"/><ellipse class="cls-16" cx="121.48" cy="119.04" rx=".58" ry=".34" transform="translate(-.74 .76) rotate(-.36)"/><ellipse class="cls-16" cx="126.48" cy="116.15" rx=".58" ry=".34" transform="translate(-.72 .79) rotate(-.36)"/><ellipse class="cls-16" cx="81.46" cy="142.14" rx=".58" ry=".34" transform="translate(-.89 .51) rotate(-.36)"/><ellipse class="cls-16" cx="86.46" cy="139.25" rx=".58" ry=".34" transform="translate(-.87 .54) rotate(-.36)"/><ellipse class="cls-16" cx="91.46" cy="136.37" rx=".58" ry=".34" transform="translate(-.85 .57) rotate(-.36)"/><ellipse class="cls-16" cx="96.47" cy="133.48" rx=".58" ry=".34" transform="translate(-.83 .61) rotate(-.36)"/><ellipse class="cls-16" cx="76.64" cy="110.48" rx="2.88" ry="1.66" transform="translate(-.69 .48) rotate(-.36)"/><ellipse class="cls-16" cx="76.66" cy="110.15" rx="2.35" ry="1.35" transform="translate(-.69 .48) rotate(-.36)"/><ellipse class="cls-16" cx="99.09" cy="123.44" rx="5.34" ry="3.08" transform="translate(-.77 .63) rotate(-.36)"/><ellipse class="cls-16" cx="99.09" cy="123.44" rx=".88" ry=".51" transform="translate(-.79 .64) rotate(-.37)"/><ellipse class="cls-16" cx="109.08" cy="124.67" rx="1.07" ry=".62" transform="translate(-.78 .69) rotate(-.36)"/><ellipse class="cls-16" cx="101.28" cy="129.17" rx="1.07" ry=".62" transform="translate(-.81 .64) rotate(-.36)"/><path class="cls-2" d="m74.54,110.73c.07.07.28.19.42.23,1.09.34,2.76.07,3.53-.79.4-.44.02-.94-.25-1.03"/><g><path class="cls-16" d="m96.89,122.19c-.33.19-.57.42-.72.66-.13.22-.56.32-.92.23h0c-.32-.08-.49-.29-.37-.48.21-.35.57-.68,1.05-.96s1.08-.49,1.7-.62c.33-.07.69.03.83.21h0c.16.21-.02.46-.4.54-.43.08-.83.23-1.17.42Z"/><path class="cls-16" d="m99.64,125.63h0c-.16-.21.02-.46.4-.53.42-.09.81-.22,1.14-.42s.58-.43.73-.67c.13-.22.56-.33.93-.23h0c.32.08.48.29.37.48-.21.36-.57.7-1.07.98s-1.06.48-1.67.61c-.33.07-.7-.03-.84-.22Z"/><path class="cls-16" d="m101.2,122.19c-.33-.19-.72-.33-1.14-.41-.37-.08-.55-.32-.39-.53h0c.14-.19.51-.29.84-.22.61.12,1.18.32,1.66.6s.84.62,1.05.98c.11.19-.06.4-.38.48h0c-.37.1-.8,0-.93-.23-.14-.25-.38-.48-.72-.67Z"/><path class="cls-16" d="m96.87,124.68c.34.2.74.33,1.16.42.38.07.56.32.4.54h0c-.14.18-.51.28-.84.22-.62-.12-1.2-.32-1.7-.61s-.83-.61-1.04-.96c-.12-.19.06-.4.38-.49h0c.36-.09.79,0,.92.23.15.24.38.46.71.66Z"/></g></g></svg>