<svg xmlns="http://www.w3.org/2000/svg" xmlns:xlink="http://www.w3.org/1999/xlink" version="1.1" x="0px" y="0px" viewBox="0 0 100 125" enable-background="new 0 0 100 100" xml:space="preserve"><g><path d="M50,69c1.104,0,2-0.896,2-2V43.945c0-1.104-0.896-2-2-2s-2,0.896-2,2V67C48,68.104,48.896,69,50,69z"/><path d="M57.958,68.935c0.069,0.007,0.138,0.01,0.205,0.01c1.014,0,1.883-0.767,1.987-1.797l2.339-22.945   c0.112-1.099-0.688-2.08-1.786-2.192c-1.113-0.108-2.081,0.688-2.192,1.787l-2.339,22.945   C56.06,67.841,56.859,68.822,57.958,68.935z"/><path d="M41.498,68.967c0.056,0,0.111-0.002,0.168-0.007c1.101-0.092,1.919-1.058,1.827-2.159L41.58,43.813   c-0.092-1.101-1.055-1.914-2.159-1.827c-1.101,0.092-1.919,1.058-1.827,2.159l1.913,22.988   C39.594,68.177,40.468,68.967,41.498,68.967z"/><path d="M25.5,34h3.629l2.876,43.133C32.074,78.184,32.947,79,34,79h32c1.053,0,1.926-0.816,1.995-1.867L70.871,34H74.5   c1.104,0,2-0.896,2-2s-0.896-2-2-2H69h-6.058l-2.544-7.632C60.125,21.551,59.361,21,58.5,21h-17c-0.861,0-1.625,0.551-1.897,1.368   L37.058,30H31h-5.5c-1.104,0-2,0.896-2,2S24.396,34,25.5,34z M42.941,25h14.117l1.667,5H41.274L42.941,25z M38.5,34h23h0.02h5.343   l-2.733,41H35.871l-2.733-41H38.5z"/></g><text x="0" y="115" fill="#000000" font-size="5px" font-weight="bold" font-family="'Helvetica Neue', Helvetica, Arial-Unicode, Arial, Sans-serif">Created by iconlabs</text><text x="0" y="120" fill="#000000" font-size="5px" font-weight="bold" font-family="'Helvetica Neue', Helvetica, Arial-Unicode, Arial, Sans-serif">from the Noun Project</text></svg>