<svg xmlns="http://www.w3.org/2000/svg" version="1.1" viewBox="-5.0 -10.0 110.0 135.0">
 <g>
  <path d="m84.375 17.062h-43.367c-1.7266 0-3.125 1.3984-3.125 3.125s1.3984 3.125 3.125 3.125h43.367c3.4453 0 6.25 2.8047 6.25 6.25v40.879c0 3.4453-2.8047 6.25-6.25 6.25l-68.75-0.003906c-3.4453 0-6.25-2.8047-6.25-6.25v-40.879c0-3.4453 2.8047-6.25 6.25-6.25h8.7305l-3.3672 3.3672c-1.2188 1.2188-1.2188 3.1992 0 4.418 0.60938 0.60938 1.4102 0.91406 2.2109 0.91406s1.5977-0.30469 2.2109-0.91406l8.6992-8.6992c0.58594-0.58594 0.91406-1.3828 0.91406-2.2109s-0.32813-1.625-0.91406-2.2109l-8.6992-8.6992c-1.2188-1.2188-3.1992-1.2188-4.418 0s-1.2188 3.1992 0 4.4219l3.3633 3.3633h-8.7305c-6.8906 0-12.5 5.6094-12.5 12.5v40.879c0 6.8906 5.6094 12.5 12.5 12.5h68.75c6.8906 0 12.5-5.6094 12.5-12.5v-40.879c0-6.8906-5.6094-12.5-12.5-12.5z"/>
  <path d="m69.805 33.039h-39.605c-1.7266 0-3.125 1.3984-3.125 3.125 0 1.7266 1.3984 3.125 3.125 3.125h39.605c1.7266 0 3.125-1.3984 3.125-3.125 0-1.7266-1.3984-3.125-3.125-3.125z"/>
  <path d="m72.93 50c0-1.7266-1.3984-3.125-3.125-3.125h-39.605c-1.7266 0-3.125 1.3984-3.125 3.125s1.3984 3.125 3.125 3.125h39.605c1.7266 0 3.125-1.3984 3.125-3.125z"/>
  <path d="m30.195 60.711c-1.7266 0-3.125 1.3984-3.125 3.125 0 1.7266 1.3984 3.125 3.125 3.125h18.578c1.7266 0 3.125-1.3984 3.125-3.125 0-1.7266-1.3984-3.125-3.125-3.125z"/>
 </g>
<text x="0.0" y="117.5" font-size="5.0" font-weight="bold" font-family="Arbeit Regular, Helvetica, Arial-Unicode, Arial, Sans-serif" fill="#000000">Created by pictranoosa</text><text x="0.0" y="122.5" font-size="5.0" font-weight="bold" font-family="Arbeit Regular, Helvetica, Arial-Unicode, Arial, Sans-serif" fill="#000000">from Noun Project</text></svg>