<svg xmlns="http://www.w3.org/2000/svg" xmlns:xlink="http://www.w3.org/1999/xlink" version="1.1" x="0px" y="0px" viewBox="0 0 100 125" enable-background="new 0 0 100 100" xml:space="preserve"><path d="M86,54.5C86,33.822,69.178,17,48.5,17H23l4.8-3.6c1.325-0.994,1.595-2.875,0.601-4.2c-0.995-1.326-2.876-1.594-4.2-0.6  L9.433,19.675l2.445,2.445c0,0,0.001,0.001,0.001,0.001l12,11.999C24.465,34.707,25.232,35,26,35s1.535-0.293,2.121-0.879  c1.172-1.171,1.172-3.071,0-4.242L21.242,23H48.5C65.869,23,80,37.131,80,54.5S65.869,86,48.5,86S17,71.869,17,54.5  c0-1.657-1.343-3-3-3s-3,1.343-3,3C11,75.178,27.822,92,48.5,92S86,75.178,86,54.5z"/><text x="0" y="115" fill="#000000" font-size="5px" font-weight="bold" font-family="'Helvetica Neue', Helvetica, Arial-Unicode, Arial, Sans-serif">Created by eris kusnadi</text><text x="0" y="120" fill="#000000" font-size="5px" font-weight="bold" font-family="'Helvetica Neue', Helvetica, Arial-Unicode, Arial, Sans-serif">from the Noun Project</text></svg>