<svg xmlns="http://www.w3.org/2000/svg" version="1.1" viewBox="-5.0 -10.0 110.0 135.0">
 <path d="m35.941 10.934c-0.41797 0-0.81641 0.16406-1.1133 0.45703-0.29297 0.29688-0.45703 0.69531-0.45703 1.1133 0.003906 0.41406 0.16797 0.8125 0.46094 1.1016 0.29688 0.29297 0.69531 0.45703 1.1094 0.45312h35.93c7.8164 0 14.07 6.2422 14.07 14.059v43.75c0 7.8164-6.2539 14.07-14.07 14.07l-43.75 0.003906c-7.8164 0-14.059-6.2539-14.059-14.07l-0.003906-34.375c0-0.85547-0.69531-1.5508-1.5547-1.5547-0.41406-0.003906-0.8125 0.16016-1.1094 0.45312-0.29297 0.29297-0.45703 0.6875-0.46094 1.1016v34.371c0 9.4961 7.6914 17.199 17.188 17.199h43.75c9.4961 0 17.199-7.7031 17.199-17.199l-0.003906-43.746c0-9.4961-7.7031-17.188-17.199-17.188z"/>
 <path d="m12.527 4.6484c-2.3906 0.007812-4.7773 0.92187-6.6094 2.7578-3.6719 3.668-3.6875 9.5742-0.070313 13.195l31.062 31.07c0.20703 0.21094 0.47266 0.35156 0.76172 0.41797l14.301 3.2383c0.51953 0.11719 1.0625-0.039063 1.4414-0.41797 0.375-0.375 0.53125-0.91797 0.41797-1.4375l-3.2422-14.301c-0.0625-0.28906-0.20703-0.55469-0.41797-0.76172l-31.059-31.062c-1.8086-1.8086-4.1992-2.707-6.5859-2.6992zm0.011718 3.0664c1.582-0.007813 3.1523 0.61328 4.3711 1.832l30.75 30.742 2.5938 11.453-11.453-2.5938-30.75-30.738c-2.4375-2.4414-2.457-6.2891 0.058594-8.8008 1.2578-1.2578 2.8477-1.8867 4.4297-1.8906z"/>
 <path d="m46.793 37.242-11.051 11.051 2.2148 2.2031 11.051-11.051z"/>
 <path d="m60.934 51.559c-0.41406 0-0.80859 0.16797-1.1016 0.46094s-0.45703 0.69141-0.45312 1.1055c0.003906 0.85938 0.69922 1.5547 1.5547 1.5586h14.062c0.41406 0 0.8125-0.16016 1.1055-0.45312 0.29688-0.29297 0.46094-0.6875 0.46094-1.1055 0.003906-0.41406-0.16016-0.81641-0.45703-1.1094-0.29297-0.29297-0.69531-0.46094-1.1094-0.45703z"/>
 <path d="m35.941 62.504c-0.41406 0-0.8125 0.16016-1.1094 0.45312-0.29297 0.29297-0.45703 0.6875-0.46094 1.1055 0 0.41406 0.16406 0.81641 0.45703 1.1094 0.29688 0.29297 0.69531 0.46094 1.1133 0.45703h39.055c0.41406 0.003906 0.81641-0.16406 1.1094-0.45703 0.29688-0.29297 0.46094-0.69531 0.45703-1.1094 0-0.41797-0.16406-0.8125-0.46094-1.1055-0.29297-0.29297-0.69141-0.45312-1.1055-0.45312z"/>
 <path d="m60.934 73.438c-0.85547 0.003906-1.5508 0.69922-1.5547 1.5586-0.003906 0.41406 0.16016 0.8125 0.45312 1.1055 0.29297 0.29688 0.6875 0.46094 1.1016 0.46094h14.062c0.41406 0.003906 0.81641-0.16016 1.1094-0.45703 0.29688-0.29297 0.46094-0.69531 0.45703-1.1094 0-0.41406-0.16406-0.8125-0.46094-1.1055-0.29297-0.28906-0.69141-0.45312-1.1055-0.45312z"/>
<text x="0.0" y="117.5" font-size="5.0" font-weight="bold" font-family="Arbeit Regular, Helvetica, Arial-Unicode, Arial, Sans-serif" fill="#000000">Created by hazicon</text><text x="0.0" y="122.5" font-size="5.0" font-weight="bold" font-family="Arbeit Regular, Helvetica, Arial-Unicode, Arial, Sans-serif" fill="#000000">from Noun Project</text></svg>