<?xml version="1.0" encoding="UTF-8"?><svg id="outlines" xmlns="http://www.w3.org/2000/svg" viewBox="0 0 36 36"><path d="m36,20.04694l-2.59242-3.47889-2.5926,3.47889h1.07077s1.03289-1.38911,1.03289-1.38911c-.34779,7.93819-6.89652,14.29435-14.91883,14.29435-6.99064,0-12.97933-4.74803-14.5618-11.5462l-.88734.20628c1.68038,7.21292,8.03267,12.25029,15.44915,12.25029,8.5507,0,15.52439-6.80528,15.83315-15.28198l1.07525,1.46637h1.09178Zm-2.59251-2.04645l.00009-.00018.00009.00018h-.00018Z"/><path d="m5.18493,15.95333h-1.09178s-1.01171,1.37979-1.01171,1.37979c.35253-7.93424,6.89925-14.2853,14.91839-14.2853,6.99064,0,12.97933,4.74803,14.56277,11.5462l.88726-.20628c-1.68117-7.21292-8.03443-12.25029-15.45002-12.25029-8.55299,0-15.52826,6.8095-15.83342,15.28936l-1.09573-1.47349H0s2.5926,3.47889,2.5926,3.47889l2.59234-3.47889Z"/></svg>