<?xml version="1.0" encoding="UTF-8"?><svg xmlns="http://www.w3.org/2000/svg" viewBox="0 0 354.42 224.95"><defs><style>.cls-1{fill:#ededed;}.cls-2{fill:#fff;}.cls-3{fill:#6deb8e;}.cls-4{fill:#e7e7e7;mix-blend-mode:multiply;}.cls-5{isolation:isolate;}</style></defs><g class="cls-5"><g id="Layer_2"><g><rect x=".45" y="7.01" width="347.28" height="217.65"/><g><rect class="cls-1" x="6.44" y="1.02" width="347.28" height="217.65"/><path d="M354.1,219.04H6.07V.65H354.1V219.04Zm-347.28-.75H353.35V1.4H6.82V218.29Z"/></g><polygon points="353.72 47.29 6.44 47.69 6.44 14.52 353.72 14.6 353.72 47.29"/><g><rect class="cls-2" x="6.44" y="1.02" width="347.28" height="13.5"/><path d="M354.1,14.89H6.07V.65H354.1V14.89ZM6.82,14.14H353.35V1.4H6.82V14.14Z"/></g><g><circle class="cls-2" cx="13.18" cy="7.78" r="3.17"/><path d="M13.18,11.33c-1.96,0-3.55-1.59-3.55-3.55s1.59-3.55,3.55-3.55,3.55,1.59,3.55,3.55-1.59,3.55-3.55,3.55Zm0-6.34c-1.54,0-2.8,1.25-2.8,2.8s1.25,2.8,2.8,2.8,2.8-1.25,2.8-2.8-1.25-2.8-2.8-2.8Z"/></g><g><circle class="cls-2" cx="23.09" cy="7.78" r="3.17"/><path d="M23.09,11.33c-1.96,0-3.55-1.59-3.55-3.55s1.59-3.55,3.55-3.55,3.55,1.59,3.55,3.55-1.59,3.55-3.55,3.55Zm0-6.34c-1.54,0-2.8,1.25-2.8,2.8s1.25,2.8,2.8,2.8,2.8-1.25,2.8-2.8-1.25-2.8-2.8-2.8Z"/></g><g><circle class="cls-2" cx="33" cy="7.78" r="3.17"/><path d="M33,11.33c-1.96,0-3.55-1.59-3.55-3.55s1.59-3.55,3.55-3.55,3.55,1.59,3.55,3.55-1.59,3.55-3.55,3.55Zm0-6.34c-1.54,0-2.8,1.25-2.8,2.8s1.25,2.8,2.8,2.8,2.8-1.25,2.8-2.8-1.25-2.8-2.8-2.8Z"/></g><g><path class="cls-2" d="M24.88,30.25l-4.59-6.17h-4.55s9.14,12.24,9.14,12.24l9.14-12.24h-4.52s-4.62,6.17-4.62,6.17Z"/><path class="cls-2" d="M78.64,24.08h-3.59s-1.21,0-1.21,0l-5.08,6.2-5.05-6.2h-1.21s-3.59,0-3.59,0h-.03v12.24h3.63v-7.78s6.26,7.78,6.26,7.78l6.29-7.78v7.78h3.66v-12.24h-.06Z"/><path class="cls-2" d="M38.65,24.08h-3.66v12.24h3.66v-12.24Z"/><path class="cls-2" d="M39.62,36.32h4.52s4.62-6.17,4.62-6.17l4.59,6.17h4.55s-9.14-12.24-9.14-12.24l-9.14,12.24Z"/></g><rect class="cls-2" x="90.45" y="21.16" width=".5" height="18.5"/><rect class="cls-2" x="228.14" y="39.47" width="23.82" height=".75"/><g><path class="cls-2" d="M108.22,25.95h5.1v.93h-4.1v2.75h4.03v.93h-4.03v3.7h-1v-8.3Z"/><path class="cls-2" d="M115.38,25.95h1v7.38h4.34v.93h-5.34v-8.3Z"/><path class="cls-2" d="M122.72,25.95h5.03v.93h-4.03v2.75h3.96v.93h-3.96v2.77h4.1v.93h-5.1v-8.3Z"/><path class="cls-2" d="M129.98,25.95h5.03v.93h-4.03v2.75h3.96v.93h-3.96v2.77h4.1v.93h-5.1v-8.3Z"/><path class="cls-2" d="M136.84,25.95h5.83v.93h-2.42v7.38h-1v-7.38h-2.42v-.93Z"/></g><g><path class="cls-2" d="M169.74,25.37h2.73c1.03,0,1.78,.25,2.25,.74,.47,.49,.71,1.27,.71,2.35v2.13c0,1.08-.24,1.86-.71,2.35-.47,.49-1.23,.74-2.25,.74h-2.73v-.94h.71v-6.44h-.71v-.93Zm2.58,7.38c.36,0,.68-.04,.94-.11,.26-.07,.48-.19,.66-.36,.17-.17,.3-.4,.38-.68s.12-.64,.12-1.08v-1.99c0-.43-.04-.79-.12-1.08s-.21-.51-.38-.68c-.17-.17-.39-.29-.66-.36-.27-.07-.58-.11-.94-.11h-.88v6.45h.88Z"/><path class="cls-2" d="M181.54,31.61h-3.56l-.61,2.06h-1.07l2.51-8.3h1.87l2.51,8.3h-1.07l-.6-2.06Zm-1.85-5.81l-1.43,4.89h3.01l-1.44-4.89h-.14Z"/><path class="cls-2" d="M184.1,25.37h5.83v.93h-2.42v7.38h-1v-7.38h-2.42v-.93Z"/><path class="cls-2" d="M196.06,31.61h-3.56l-.61,2.06h-1.07l2.51-8.3h1.87l2.51,8.3h-1.07l-.6-2.06Zm-1.85-5.81l-1.43,4.89h3.01l-1.44-4.89h-.14Z"/></g><g><path class="cls-2" d="M229.36,25.95h5.98v1.49h-2.21v6.81h-1.57v-6.81h-2.21v-1.49Z"/><path class="cls-2" d="M242.42,34.25h-1.57v-2.49c0-.19-.05-.34-.15-.46-.1-.12-.26-.18-.49-.18h-1.8v3.13h-1.57v-8.3h3.18c.43,0,.8,.06,1.13,.18s.59,.28,.81,.49,.38,.45,.5,.73,.17,.57,.17,.89v.28c0,.34-.09,.66-.27,.96-.18,.3-.46,.52-.84,.68v.21c.28,.03,.5,.14,.66,.32,.16,.18,.24,.41,.24,.69v2.87Zm-4.01-4.63h1.49c.38,0,.67-.09,.87-.27,.2-.18,.3-.43,.3-.75v-.14c0-.28-.1-.52-.3-.72-.2-.2-.49-.3-.87-.3h-1.49v2.18Z"/><path class="cls-2" d="M246.08,31.33h-.36l-2.38-5.38h1.71l1.71,3.96h.21l1.71-3.96h1.71l-2.38,5.38h-.36v2.92h-1.57v-2.92Z"/></g><g><path class="cls-2" d="M284.2,25.95h2.73c1.03,0,1.78,.25,2.25,.74,.47,.49,.71,1.27,.71,2.35v2.13c0,1.08-.24,1.86-.71,2.35-.47,.49-1.23,.74-2.25,.74h-2.73v-.94h.71v-6.44h-.71v-.93Zm2.58,7.38c.36,0,.68-.04,.94-.11,.26-.07,.48-.19,.66-.36,.17-.17,.3-.4,.38-.68s.12-.64,.12-1.08v-1.99c0-.43-.04-.79-.12-1.08s-.21-.51-.38-.68c-.17-.17-.39-.29-.66-.36-.27-.07-.58-.11-.94-.11h-.88v6.45h.88Z"/><path class="cls-2" d="M291.31,29.18c0-1.08,.26-1.91,.77-2.5,.51-.59,1.23-.89,2.15-.89s1.63,.3,2.15,.89c.51,.59,.77,1.43,.77,2.5v1.85c0,1.11-.26,1.95-.77,2.53-.51,.58-1.23,.87-2.15,.87s-1.63-.29-2.15-.87-.77-1.42-.77-2.53v-1.85Zm2.92,4.32c.64,0,1.12-.22,1.44-.66,.32-.44,.48-1.06,.48-1.88v-1.71c0-.76-.16-1.37-.48-1.84-.32-.47-.8-.7-1.44-.7s-1.12,.23-1.44,.7c-.32,.47-.48,1.08-.48,1.84v1.71c0,.81,.16,1.44,.48,1.88,.32,.44,.8,.66,1.44,.66Z"/><path class="cls-2" d="M301.53,33.49c.34,0,.63-.06,.87-.17,.24-.11,.44-.27,.59-.46s.27-.42,.34-.66,.11-.51,.11-.79v-.14h1v.14c0,.42-.06,.81-.19,1.18-.13,.37-.31,.69-.56,.96-.25,.27-.55,.49-.91,.64-.36,.15-.78,.23-1.26,.23-.92,0-1.63-.29-2.15-.87-.51-.58-.77-1.42-.77-2.53v-1.85c0-1.08,.26-1.91,.77-2.5,.51-.59,1.23-.89,2.15-.89,.47,0,.89,.08,1.26,.23s.67,.37,.91,.64c.25,.27,.43,.59,.56,.96,.13,.37,.19,.76,.19,1.18v.14h-1v-.14c0-.27-.05-.53-.12-.78s-.19-.48-.34-.67c-.15-.19-.35-.35-.59-.46-.24-.11-.53-.17-.87-.17-.64,0-1.12,.23-1.44,.7-.32,.47-.48,1.08-.48,1.84v1.71c0,.81,.16,1.44,.48,1.88,.32,.44,.8,.66,1.44,.66Z"/><path class="cls-2" d="M310.7,28.35c0-.27-.05-.51-.16-.71s-.25-.38-.43-.51c-.18-.13-.39-.24-.63-.31-.24-.07-.49-.11-.75-.11-.23,0-.45,.03-.65,.09-.21,.06-.39,.14-.55,.25-.16,.11-.29,.25-.38,.41-.09,.16-.14,.35-.14,.56v.07c0,.23,.05,.42,.14,.59s.24,.3,.42,.42c.19,.11,.42,.21,.69,.28,.28,.08,.6,.14,.97,.2,.87,.13,1.51,.39,1.92,.77s.62,.88,.62,1.51v.14c0,.36-.06,.68-.18,.98-.12,.3-.3,.55-.55,.77-.24,.21-.54,.38-.9,.5-.36,.12-.77,.18-1.23,.18-.53,0-1-.08-1.41-.23-.41-.15-.75-.37-1.02-.64-.27-.27-.48-.59-.62-.96s-.21-.77-.21-1.2v-.36h1v.28c0,.73,.2,1.27,.6,1.64,.4,.36,.96,.55,1.67,.55,.62,0,1.08-.14,1.39-.41,.31-.27,.47-.63,.47-1.09v-.07c0-.43-.16-.77-.48-1-.32-.23-.84-.4-1.56-.5-.42-.06-.8-.14-1.13-.25s-.62-.27-.86-.45c-.24-.19-.42-.41-.55-.67-.13-.26-.19-.57-.19-.92v-.14c0-.32,.07-.62,.2-.89,.13-.27,.32-.5,.56-.7,.24-.2,.53-.35,.87-.46,.34-.11,.71-.16,1.11-.16,.47,0,.88,.07,1.25,.2,.37,.13,.68,.31,.93,.54,.25,.23,.44,.49,.58,.79,.13,.3,.2,.62,.2,.95v.5h-1v-.43Z"/></g><rect class="cls-4" x="6.44" y="68.72" width="347.28" height="15.36"/><g><polygon class="cls-2" points="100.51 84.07 100.51 69.25 56.55 69.25 56.55 84.07 6.44 84.07 6.44 218.67 353.72 218.67 353.72 84.07 100.51 84.07"/><path d="M353.97,218.92H6.19V83.82H56.3v-14.83h44.46v14.83h253.21V218.92Zm-347.28-.5H353.47V84.32H100.26v-14.83H56.8v14.83H6.69V218.42Z"/></g><g><rect class="cls-2" x="30.86" y="119.81" width="299.82" height="81.33"/><path d="M330.93,201.39H30.61V119.56H330.93v81.83Zm-299.82-.5H330.43V120.06H31.11v80.83Z"/></g><rect x="30.86" y="98.44" width="40.91" height="9.53"/><path d="M112.19,98.94v8.53h-39.91s0-8.53,0-8.53h39.91m.5-.5h-40.91v9.53h40.91v-9.53h0Z"/><g><line class="cls-2" x1="30.86" y1="137.82" x2="330.42" y2="137.82"/><rect x="30.86" y="137.57" width="299.55" height=".5"/></g><g><rect class="cls-2" x="34.92" y="124.58" width="50.31" height="8.47" rx="4.24" ry="4.24"/><path d="M81,133.3H39.16c-2.47,0-4.49-2.01-4.49-4.49s2.01-4.49,4.49-4.49h41.84c2.47,0,4.49,2.01,4.49,4.49s-2.01,4.49-4.49,4.49Zm-41.84-8.47c-2.2,0-3.99,1.79-3.99,3.99s1.79,3.99,3.99,3.99h41.84c2.2,0,3.99-1.79,3.99-3.99s-1.79-3.99-3.99-3.99H39.16Z"/></g><path d="M354.22,219.17H5.94V.52H354.22V219.17Zm-347.28-1H353.22V1.52H6.94V218.17Z"/></g><g><polygon class="cls-3" points="261.48 57.94 239.11 38.3 240.09 68.05 246.67 61.07 251.06 70.36 256.29 67.88 251.9 58.59 261.48 57.94"/><path d="M250.82,71.02l-4.29-9.08-6.9,7.33-1.05-32.1,24.14,21.19-10.04,.68,4.29,9.08-6.14,2.9Zm-4.01-10.83l4.49,9.5,4.33-2.05-4.49-9.5,9.11-.62-20.6-18.08,.9,27.39,6.26-6.64Z"/></g></g></g></svg>