<?xml version="1.0" encoding="UTF-8"?><svg id="Layer_2" xmlns="http://www.w3.org/2000/svg" xmlns:xlink="http://www.w3.org/1999/xlink" viewBox="0 0 997.69452 395"><defs><filter id="drop-shadow-1" x="0" y="0" width="442" height="395" filterUnits="userSpaceOnUse"><feOffset dx="0" dy="0"/><feGaussianBlur result="blur" stdDeviation="7"/><feFlood flood-color="#000" flood-opacity=".15"/><feComposite in2="blur" operator="in"/><feComposite in="SourceGraphic"/></filter><filter id="drop-shadow-2" x="569" y="42" width="416" height="146" filterUnits="userSpaceOnUse"><feOffset dx="0" dy="0"/><feGaussianBlur result="blur-2" stdDeviation="7"/><feFlood flood-color="#000" flood-opacity=".15"/><feComposite in2="blur-2" operator="in"/><feComposite in="SourceGraphic"/></filter></defs><path d="M823.16825,49.32114c.75049,0,1.48122.07745,2.19663.19948,1.41451-5.64859,6.50984-9.83794,12.59725-9.83793,3.23812,0,6.19364,1.19171,8.46981,3.15095,2.24702-3.8892,6.44018-6.51309,11.25487-6.51308,7.1798.00001,13.00042,5.82055,13.00042,13.00064,0,.17527-.01927.3456-.02619.51927,1.14821-.33177,2.35769-.51927,3.61263-.51926,7.1798.00001,13.00042,5.82055,13.00042,13.00052,0,7.18009-5.82061,13.00061-13.00041,13.0006l-51.10543-.00008c-7.18029-.00001-13.00042-5.82055-13.00042-13.00064,0-7.17997,5.82012-13.00049,13.00041-13.00048Z" style="fill:#fff;"/><path d="M874.27393,75.82227h-51.10547c-7.44434,0-13.50049-6.05615-13.50049-13.50049s6.05615-13.50049,13.50049-13.50049c.58594,0,1.18799.04443,1.82959.13574,1.65381-5.77832,6.92041-9.77441,12.96387-9.77441,3.0249,0,5.96484,1.02539,8.34229,2.89795,2.47119-3.87598,6.7793-6.25977,11.38281-6.25977,7.39844,0,13.42627,5.98291,13.49951,13.36475,1.02295-.2417,2.05859-.36426,3.08691-.36426,7.44434,0,13.50049,6.05615,13.50049,13.50049s-6.05615,13.50049-13.5,13.50049ZM823.16846,49.82129c-6.89258,0-12.50049,5.60791-12.50049,12.50049s5.60791,12.50049,12.50049,12.50049h51.10547c6.89258,0,12.5-5.60791,12.5-12.50049s-5.60791-12.50049-12.50049-12.50049c-1.15771,0-2.32617.16797-3.47363.49951l-.66553.19238.03955-.90869c.00635-.09375.01318-.1875.01318-.2832,0-6.89258-5.60742-12.50049-12.5-12.50049-4.44336,0-8.58984,2.3999-10.82178,6.2627l-.30176.52246-.45752-.39355c-2.27051-1.95361-5.1626-3.02979-8.14404-3.02979-5.73682,0-10.71729,3.88965-12.1123,9.45947l-.1123.44922-.45654-.07812c-.75781-.12891-1.44824-.19189-2.1123-.19189Z"/><g style="filter:url(#drop-shadow-1);"><rect x="22.27678" y="21.91518" width="397.68426" height="351.29543" rx="8.24127" ry="8.24127" style="fill:#fff;"/><path d="M411.71973,373.71045H30.51807c-4.81982,0-8.74121-3.92139-8.74121-8.74121V30.15625c0-4.81982,3.92139-8.74121,8.74121-8.74121h381.20166c4.81982,0,8.74121,3.92139,8.74121,8.74121v334.81299c0,4.81982-3.92139,8.74121-8.74121,8.74121ZM30.51807,22.41504c-4.26855,0-7.74121,3.47266-7.74121,7.74121v334.81299c0,4.26855,3.47266,7.74121,7.74121,7.74121h381.20166c4.26855,0,7.74121-3.47266,7.74121-7.74121V30.15625c0-4.26855-3.47266-7.74121-7.74121-7.74121H30.51807Z"/></g><rect x="108.4954" y="6.9261" width="231.7366" height="29.97878" rx="14.98937" ry="14.98937"/><path d="M131.96094,27.54248v-4.91211l-3.96875-6.65576h1.87207l2.95996,5.14404,2.9209-5.14404h1.87109l-3.94336,6.66406v4.90381h-1.71191Z" style="fill:#fff;"/><path d="M144.14453,27.70264c-1.05078,0-1.95898-.2334-2.72363-.7002-.76562-.4668-1.35547-1.14111-1.76855-2.02393s-.62012-1.94824-.62012-3.1958c0-1.25879.20996-2.33203.62793-3.22021.41895-.88818,1.01074-1.56787,1.77637-2.04004s1.66797-.70801,2.70801-.70801c1.03516,0,1.93164.23584,2.69238.70801.75977.47217,1.34668,1.15186,1.75977,2.04004s.62012,1.96143.62012,3.22021c0,1.24756-.20508,2.31152-.61621,3.19189-.41113.87988-.99609,1.55469-1.75586,2.02393s-1.66016.7041-2.7002.7041ZM144.14453,26.23828c.67188,0,1.24707-.1543,1.72363-.46387.47754-.30908.8418-.79199,1.09277-1.44775.25-.65625.37598-1.49609.37598-2.52002,0-1.05078-.12695-1.90918-.37988-2.57617-.25391-.6665-.61914-1.15869-1.09668-1.47607s-1.04883-.47607-1.71582-.47607-1.24121.16016-1.72363.47998c-.4834.32031-.85547.81348-1.11621,1.47998-.26172.66699-.3916,1.52295-.3916,2.56836,0,1.0293.12988,1.87061.3916,2.52393.26074.65332.63281,1.13477,1.11621,1.44385.48242.30957,1.05664.46387,1.72363.46387Z" style="fill:#fff;"/><path d="M156.24805,27.70264c-1.04004,0-1.87695-.1709-2.51172-.51221s-1.09766-.83984-1.3877-1.49609c-.29102-.65576-.43652-1.45605-.43652-2.3999v-7.31982h1.76855v7.53564c0,.91748.22461,1.59912.67578,2.04443.4502.44531,1.08105.66797,1.8916.66797.53906,0,1.00488-.09766,1.39648-.29199.3916-.19482.69238-.49365.90039-.896.20801-.40283.31152-.91064.31152-1.52441v-7.53564h1.73633v7.45605c0,.90137-.14941,1.67041-.44824,2.30762-.29883.6377-.7666,1.12402-1.4043,1.45996-.63672.33643-1.46777.50439-2.49219.50439Z" style="fill:#fff;"/><path d="M163.62402,27.54248v-11.56787h4.59277c.8584,0,1.57031.13184,2.13574.396.56543.26367.98633.63867,1.26367,1.12402s.41602,1.05859.41602,1.71973c0,.62402-.10547,1.14404-.31543,1.56006-.21094.41602-.4834.75488-.81641,1.01611s-.68359.4668-1.05176.61572l2.24023,5.13623h-1.80078l-2.05566-4.83984h-2.89648v4.83984h-1.71191ZM165.33594,21.31836h2.41602c.80566,0,1.42969-.17432,1.87207-.52393.44336-.34912.66406-.84912.66406-1.5,0-.64014-.20117-1.125-.60352-1.45605-.40332-.33057-.94824-.49609-1.63574-.49609h-2.71289v3.97607Z" style="fill:#fff;"/><path d="M183.16797,27.70264c-.56543,0-1.10742-.06934-1.62793-.20801-.51953-.13867-.99219-.34521-1.41602-.62012-.42383-.27441-.77344-.61719-1.04785-1.02783s-.44727-.89062-.51562-1.44043h1.7832c.09082.41602.27051.76562.54004,1.04834s.6084.49609,1.0166.63965c.4082.14404.85938.21631,1.35547.21631.45898,0,.88281-.07227,1.27246-.21631.38867-.14355.7041-.35156.94336-.62354.24023-.27246.36035-.60547.36035-1,0-.44287-.14746-.79346-.44434-1.05225-.2959-.25879-.73926-.46533-1.33203-.62012l-2.31934-.57568c-.56055-.1333-1.05371-.32422-1.48047-.57227s-.75684-.57568-.99219-.98389c-.23438-.4082-.35156-.91309-.35156-1.51611,0-.67188.18555-1.25732.55566-1.75586.37109-.49854.875-.88428,1.5127-1.15625.63672-.27197,1.3584-.40771,2.16406-.40771.92188,0,1.69922.15723,2.33203.47168.63184.31494,1.11133.72949,1.43945,1.24414s.49512,1.07617.5,1.68408h-1.74414c-.04785-.49609-.19336-.88916-.43555-1.18018-.24316-.29053-.5498-.5-.91992-.62793-.37109-.12793-.78027-.19189-1.22852-.19189-.78906,0-1.38281.1748-1.7793.52393-.39746.34961-.59668.76416-.59668,1.24414,0,.44287.14551.79199.43652,1.04785.29004.25586.7207.45361,1.29199.59229l2.23926.55176c.7041.15479,1.26855.38525,1.69238.69189.42383.30713.72949.66699.91602,1.08008.18652.41357.28027.86523.28027,1.35596,0,.65625-.18457,1.23877-.55176,1.74805-.36816.50928-.88184.90967-1.54004,1.2002-.65918.29053-1.42871.43604-2.30859.43604Z" style="fill:#fff;"/><path d="M190.35156,27.54248v-11.56787h2.41602l3.25684,9.19971,3.30371-9.19971h2.39941v11.56787h-1.75195v-9.20801l-3.19922,9.20801h-1.49609l-3.18457-9.13623v9.13623h-1.74414Z" style="fill:#fff;"/><path d="M204.19141,27.54248l4.17578-11.56787h1.88867l4.16797,11.56787h-1.72852l-1.08789-3.03223h-4.58398l-1.0957,3.03223h-1.73633ZM207.44727,22.9585h3.71191l-1.85547-5.31982-1.85645,5.31982Z" style="fill:#fff;"/><path d="M216.8877,27.54248v-11.56787h4.5918c.8584,0,1.57031.13184,2.13574.396.56543.26367.9873.63867,1.26465,1.12402s.41602,1.05859.41602,1.71973c0,.62402-.10547,1.14404-.31641,1.56006s-.48242.75488-.81543,1.01611c-.33398.26123-.68457.4668-1.05273.61572l2.24023,5.13623h-1.7998l-2.05664-4.83984h-2.89551v4.83984h-1.71191ZM218.59961,21.31836h2.41602c.80566,0,1.42969-.17432,1.87207-.52393.44238-.34912.66406-.84912.66406-1.5,0-.64014-.20117-1.125-.60449-1.45605-.40234-.33057-.94727-.49609-1.63574-.49609h-2.71191v3.97607Z" style="fill:#fff;"/><path d="M230.74316,27.54248v-10.00781h-3.66406v-1.56006h8.88867v1.56006h-3.49609v10.00781h-1.72852Z" style="fill:#fff;"/><path d="M242.39062,27.54248v-11.56787h2.41602l3.25684,9.19971,3.30371-9.19971h2.39941v11.56787h-1.75195v-9.20801l-3.19922,9.20801h-1.49609l-3.18457-9.13623v9.13623h-1.74414Z" style="fill:#fff;"/><path d="M256.23145,27.54248l4.17578-11.56787h1.8877l4.16797,11.56787h-1.72754l-1.08789-3.03223h-4.58398l-1.09668,3.03223h-1.73535ZM259.4873,22.9585h3.71191l-1.85645-5.31982-1.85547,5.31982Z" style="fill:#fff;"/><path d="M273.30273,27.70264c-1.04492,0-1.94141-.24121-2.6875-.72412-.74707-.48242-1.31934-1.1709-1.71582-2.06396-.39746-.89355-.59668-1.96387-.59668-3.21191,0-1.24268.19727-2.30273.59277-3.18018.39453-.87744.96484-1.54785,1.71191-2.01221.74609-.46387,1.64453-.6958,2.69531-.6958.83203,0,1.57129.1709,2.2168.51221.64453.34131,1.16406.7998,1.55566,1.37598.3916.57568.625,1.21338.7002,1.91162h-1.82422c-.08008-.43701-.2334-.83301-.45996-1.18799-.22656-.35449-.52637-.63428-.90039-.83984-.37305-.20508-.81543-.30811-1.32812-.30811-.65527,0-1.21289.15479-1.67188.46436-.45801.30908-.80664.79199-1.04395,1.44775-.2373.65625-.35547,1.50146-.35547,2.53613,0,1.5625.26367,2.70508.79199,3.42773.52734.72314,1.28809,1.08398,2.2793,1.08398.5127,0,.95508-.11035,1.32812-.33203.37402-.22119.67383-.51709.90039-.8877s.37988-.7749.45996-1.21191h1.82422c-.06445.50635-.19727.99316-.40039,1.45996-.20215.4668-.4834.88379-.84375,1.25195s-.80664.65723-1.33984.86816c-.5332.21045-1.16309.31592-1.88867.31592Z" style="fill:#fff;"/><path d="M280.4707,27.54248v-11.56787h1.71191v4.84766h5.91992v-4.84766h1.71191v11.56787h-1.71191v-5.23193h-5.91992v5.23193h-1.71191Z" style="fill:#fff;"/><path d="M293.14258,27.54248v-11.56787h1.71191v11.56787h-1.71191Z" style="fill:#fff;"/><path d="M298.18262,27.54248v-11.56787h1.65625l5.8877,8.62402v-8.62402h1.71973v11.56787h-1.53613l-6.01562-8.7998v8.7998h-1.71191Z" style="fill:#fff;"/><path d="M310.7666,27.54248v-11.56787h7.47168l-.00781,1.48779h-5.74414v3.51221h5.12793v1.47168h-5.13574v3.58398l5.89551.0083v1.50391h-7.60742Z" style="fill:#fff;"/><rect x="134.0127" y="149.51123" width="1.5" height="134.70068" style="fill:#d000ff;"/><rect x="53.27172" y="76.59111" width="169.22009" height="82.90714" rx="9.10089" ry="9.10089" style="fill:#f7f6f3;"/><path d="M213.39111,159.99805H62.37256c-5.29395,0-9.60107-4.30664-9.60107-9.60059v-64.70557c0-5.29395,4.30713-9.60059,9.60107-9.60059h151.01855c5.29395,0,9.60059,4.30664,9.60059,9.60059v64.70557c0,5.29395-4.30664,9.60059-9.60059,9.60059ZM62.37256,77.09131c-4.74268,0-8.60107,3.8584-8.60107,8.60059v64.70557c0,4.74219,3.8584,8.60059,8.60107,8.60059h151.01855c4.74219,0,8.60059-3.8584,8.60059-8.60059v-64.70557c0-4.74219-3.8584-8.60059-8.60059-8.60059H62.37256Z"/><rect x="265.04827" y="95.63168" width="119.83696" height="42.60055" rx="9.10089" ry="9.10089" style="fill:#f7f6f3;"/><path d="M375.78418,138.73242h-101.63525c-5.29395,0-9.60059-4.30713-9.60059-9.60107v-24.39893c0-5.29395,4.30664-9.60059,9.60059-9.60059h101.63525c5.29395,0,9.60107,4.30664,9.60107,9.60059v24.39893c0,5.29395-4.30713,9.60107-9.60107,9.60107ZM274.14893,96.13184c-4.74219,0-8.60059,3.8584-8.60059,8.60059v24.39893c0,4.74268,3.8584,8.60107,8.60059,8.60107h101.63525c4.74268,0,8.60107-3.8584,8.60107-8.60107v-24.39893c0-4.74219-3.8584-8.60059-8.60107-8.60059h-101.63525Z"/><path d="M74.37842,99.28418v-3.68408l-2.97607-4.9917h1.4043l2.21973,3.85791,2.18994-3.85791h1.4043l-2.95801,4.99756v3.67822h-1.28418Z"/><path d="M83.81641,99.4043c-.78809,0-1.46875-.17529-2.04297-.5249-.57373-.3501-1.01611-.85596-1.32568-1.51807-.31006-.66211-.46533-1.46094-.46533-2.39697,0-.94434.15723-1.74902.47119-2.41504s.75781-1.17627,1.33203-1.53027c.57373-.354,1.25098-.53076,2.03076-.53076.77588,0,1.44922.17676,2.01904.53076.57031.354,1.01025.86426,1.32031,1.53027.30957.66602.46484,1.4707.46484,2.41504,0,.93604-.1543,1.73389-.46191,2.39404-.30811.65967-.74707,1.16602-1.31738,1.51758-.56982.35205-1.24463.52832-2.0249.52832ZM83.81641,98.30615c.50391,0,.93506-.11572,1.29297-.34814.35791-.23193.63086-.59375.81934-1.08594.18799-.4917.28174-1.12207.28174-1.88965,0-.78809-.09521-1.43213-.28467-1.93213-.19043-.5-.46436-.86914-.82227-1.10693-.35791-.23828-.78711-.35742-1.28711-.35742s-.93066.12012-1.29297.36035c-.36182.23975-.64111.60986-.83691,1.10986s-.29395,1.14209-.29395,1.92627c0,.77197.09814,1.40283.29395,1.89258.1958.49023.4751.85107.83691,1.08301.3623.23242.79297.34814,1.29297.34814Z"/><path d="M93.19434,99.4043c-.78027,0-1.4082-.12793-1.88428-.38428-.47607-.25586-.82275-.62988-1.04102-1.12207-.21777-.4917-.32666-1.0918-.32666-1.7998v-5.48975h1.32568v5.65186c0,.68799.16895,1.19922.50732,1.53271.33789.33447.81055.50098,1.41895.50098.40381,0,.75293-.07275,1.04688-.21875s.51904-.37012.6748-.67188c.15625-.30225.23438-.68311.23438-1.14307v-5.65186h1.30176v5.5918c0,.67578-.11182,1.25293-.33594,1.73096s-.5752.84326-1.05273,1.09521c-.47803.25195-1.10107.37793-1.86914.37793Z"/><path d="M99.02637,99.28418v-8.67578h3.44385c.64404,0,1.17773.09863,1.60205.29688.42383.19775.73975.479.94775.84277.20801.36426.31201.79443.31201,1.29004,0,.46826-.07861.85791-.23682,1.16992s-.36182.56641-.61182.76221-.51318.3501-.78906.46191l1.67969,3.85205h-1.34961l-1.54199-3.62988h-2.17236v3.62988h-1.28369ZM100.31006,94.61621h1.81201c.604,0,1.07227-.13086,1.4043-.39307.33203-.26172.49805-.63672.49805-1.125,0-.47998-.15137-.84375-.45312-1.0918-.30225-.24805-.71094-.37207-1.22705-.37207h-2.03418v2.98193Z"/><path d="M111.26025,99.28418v-8.67578h1.28369v3.63574h4.43994v-3.63574h1.28418v8.67578h-1.28418v-3.92383h-4.43994v3.92383h-1.28369Z"/><path d="M120.41602,99.28418l3.13184-8.67578h1.41602l3.12598,8.67578h-1.2959l-.81592-2.27393h-3.43799l-.82227,2.27393h-1.30176ZM122.85791,95.84619h2.78369l-1.3916-3.99023-1.39209,3.99023Z"/><path d="M130.23779,99.28418v-8.67578h3.44385c.64404,0,1.17773.09863,1.60205.29688.42383.19775.73975.479.94775.84277.20801.36426.31201.79443.31201,1.29004,0,.46826-.07861.85791-.23682,1.16992s-.36182.56641-.61182.76221-.51318.3501-.78906.46191l1.67969,3.85205h-1.34961l-1.54199-3.62988h-2.17236v3.62988h-1.28369ZM131.52148,94.61621h1.81201c.604,0,1.07227-.13086,1.4043-.39307.33203-.26172.49805-.63672.49805-1.125,0-.47998-.15137-.84375-.45312-1.0918-.30225-.24805-.71094-.37207-1.22705-.37207h-2.03418v2.98193Z"/><path d="M139.01562,99.28418v-8.67578c.03174,0,.12695.00098.28467.00293.1582.00195.34912.00195.57324,0s.45312-.00195.68701,0,.44287.00488.62695.00879c1.06006.02002,1.92188.19824,2.58594.53418s1.15088.81787,1.46094,1.4458.46533,1.39404.46533,2.29785c0,.94043-.16602,1.7373-.49805,2.39111-.33203.6543-.83936,1.15039-1.521,1.48828-.68213.33789-1.54541.50684-2.58936.50684h-2.07568ZM140.32324,98.2041h.78027c.65576,0,1.22705-.10693,1.71289-.3208s.86328-.56201,1.13086-1.04395c.26807-.48193.40234-1.12695.40234-1.93506,0-.79199-.12842-1.42285-.38428-1.89307s-.62305-.80811-1.10107-1.01416-1.05273-.30908-1.72461-.30908h-.81641v6.51611Z"/><path d="M149.70117,99.28418l-2.51367-8.67578h1.28369l1.83594,6.58789,1.86035-6.58789h.98389l1.85986,6.58789,1.86035-6.58789h1.27783l-2.53809,8.67578h-1.12793l-1.83008-6.43799-1.854,6.43799h-1.09814Z"/><path d="M159.46338,99.28418l3.13184-8.67578h1.41602l3.12598,8.67578h-1.2959l-.81592-2.27393h-3.43799l-.82227,2.27393h-1.30176ZM161.90527,95.84619h2.78369l-1.3916-3.99023-1.39209,3.99023Z"/><path d="M169.28564,99.28418v-8.67578h3.44385c.64404,0,1.17773.09863,1.60205.29688.42383.19775.73975.479.94775.84277.20801.36426.31201.79443.31201,1.29004,0,.46826-.07861.85791-.23682,1.16992s-.36182.56641-.61182.76221-.51318.3501-.78906.46191l1.67969,3.85205h-1.34961l-1.54199-3.62988h-2.17236v3.62988h-1.28369ZM170.56934,94.61621h1.81201c.604,0,1.07227-.13086,1.4043-.39307.33203-.26172.49805-.63672.49805-1.125,0-.47998-.15137-.84375-.45312-1.0918-.30225-.24805-.71094-.37207-1.22705-.37207h-2.03418v2.98193Z"/><path d="M178.06348,99.28418v-8.67578h5.604l-.00635,1.11572h-4.30762v2.63428h3.8457v1.104h-3.85205v2.68799l4.42236.00586v1.12793h-5.70605Z"/><rect x="53.27172" y="283.95599" width="331.61351" height="53.52025" rx="9.10089" ry="9.10089" style="fill:#f7f6f3;"/><path d="M375.78418,337.97607H62.37256c-5.29395,0-9.60107-4.30664-9.60107-9.60059v-35.31885c0-5.29395,4.30713-9.60059,9.60107-9.60059h313.41162c5.29395,0,9.60107,4.30664,9.60107,9.60059v35.31885c0,5.29395-4.30713,9.60059-9.60107,9.60059ZM62.37256,284.45605c-4.74268,0-8.60107,3.8584-8.60107,8.60059v35.31885c0,4.74219,3.8584,8.60059,8.60107,8.60059h313.41162c4.74268,0,8.60107-3.8584,8.60107-8.60059v-35.31885c0-4.74219-3.8584-8.60059-8.60107-8.60059H62.37256Z"/><path d="M77.09863,311.88867c.01562.06396.04395.12988.08398.19775.04004.06836.10352.10205.19189.10205.06396,0,.14404-.03564.23975-.10791l1.54834-1.14014.45605.6001-1.47607,1.12793c-.1123.08838-.22998.16406-.354.22803-.12402.06445-.27832.09619-.46191.09619-.31201,0-.53613-.08203-.67236-.24609-.13574-.16357-.24805-.38574-.33594-.66602-.01611-.07178-.04199-.146-.07764-.22168-.03613-.07617-.10205-.11426-.19824-.11426-.07178,0-.16406.04395-.27588.13184l-1.51221,1.11621-.45605-.6001,1.47607-1.12793c.12012-.09619.24414-.17383.37207-.23389s.27588-.09033.44385-.09033c.3042,0,.52588.08643.66602.2583s.25391.40186.34229.68994Z"/><path d="M85.99023,306.00879l.84033.26367-3.49219,10.68018-.85205-.26416,3.50391-10.67969Z"/><path d="M91.7627,315.00879c0-.23193.08203-.43018.24609-.59424.16357-.16357.36182-.24609.59375-.24609s.43018.08252.59424.24609c.16357.16406.24609.3623.24609.59424s-.08252.43018-.24609.59375c-.16406.16406-.3623.24609-.59424.24609s-.43018-.08203-.59375-.24609c-.16406-.16357-.24609-.36182-.24609-.59375Z"/><path d="M101.4585,315.68066h-1.84814l-2.07568-5.95215h1.104l1.82373,5.52002h.14404l1.82422-5.52002h1.104l-2.07617,5.95215Z"/><path d="M106.00635,314.81689h2.08789v-4.22412h-1.87207v-.86426h2.80811v5.08838h1.94385v.86377h-4.96777v-.86377ZM107.71045,307.95264c0-.23193.08203-.42969.24609-.59375.16357-.16406.36182-.24609.59375-.24609s.43018.08203.59424.24609c.16357.16406.24561.36182.24561.59375s-.08203.43018-.24561.59424c-.16406.16406-.3623.24561-.59424.24561s-.43018-.08154-.59375-.24561c-.16406-.16406-.24609-.3623-.24609-.59424Z"/><path d="M118.12598,314.67285h-.14355c-.19238.3999-.4585.6958-.79834.8877s-.69775.28809-1.07373.28809c-.39209,0-.75635-.06592-1.09229-.19775-.33594-.13232-.62988-.32812-.88184-.58838-.25195-.25977-.4502-.57764-.59424-.95361-.14355-.37598-.21582-.81201-.21582-1.30811v-.19189c0-.48828.07227-.91992.21582-1.29639.14404-.37598.34229-.69385.59424-.95361.25195-.26025.5459-.45801.88184-.59424.33594-.13574.69189-.2041,1.06836-.2041.40771,0,.77783.09033,1.10986.27002.33203.18018.59375.45801.78613.83398h.14355v-.93604h.93604v4.72803c0,.24023.1084.36035.32422.36035h.2998v.86377h-.63574c-.27197,0-.49414-.08789-.66602-.26416-.17236-.17578-.2583-.3999-.2583-.67188v-.07178ZM116.20605,314.96045c.28027,0,.53809-.05176.77393-.15576.23633-.104.43799-.25195.60645-.44385.16797-.19238.2998-.42188.396-.68994.0957-.26807.14355-.56592.14355-.89404v-.14404c0-.31982-.04785-.61426-.14355-.88232-.09619-.26758-.23047-.49805-.40234-.68994s-.37598-.3418-.61182-.44971c-.23633-.1084-.49023-.16211-.76221-.16211-.27979,0-.53613.05225-.76807.15576-.23193.104-.43408.25049-.60596.43799-.17188.18848-.30566.41602-.40186.68408s-.14404.56201-.14404.88232v.19189c0,.68018.17822,1.20996.53418,1.58984s.81787.56982,1.38574.56982Z"/><path d="M127.47461,315.68066h-.93604v-4.27197c0-.27979-.06396-.51025-.19189-.68994-.12842-.18018-.33203-.27002-.6123-.27002-.26367,0-.47803.09814-.6416.29395-.16406.19629-.24609.49805-.24609.90576v4.03223h-.93604v-4.31982c0-.26416-.07227-.48193-.21631-.6543-.14355-.17188-.33594-.25781-.57568-.25781-.28809,0-.51025.104-.66602.31201-.15625.20801-.23389.47998-.23389.81592v4.104h-.93604v-5.95215h.93604v.64795h.14355c.104-.27979.25635-.48584.45605-.61768.2002-.13232.43604-.19824.70801-.19824.28809,0,.52588.07617.71436.22803.1875.15234.31787.34814.38965.58789h.14404c.27197-.54395.7041-.81592,1.2959-.81592.44824,0,.79395.14209,1.03809.42627.24414.28369.36621.65381.36621,1.10986v4.58398Z"/><path d="M133.6543,306.00879l.84033.26367-3.49219,10.68018-.85205-.26416,3.50391-10.67969Z"/><path d="M143.20605,313.56885c-.06396.32812-.17383.63184-.32959.91162-.15625.28027-.354.52197-.59424.72607-.23975.2041-.52002.3623-.83984.47412-.32031.11182-.67627.16797-1.06836.16797-.41602,0-.80957-.06787-1.18164-.2041-.37207-.13574-.69824-.33398-.97803-.59375-.28027-.25977-.50244-.57812-.66602-.9541-.16406-.37598-.24609-.80811-.24609-1.2959v-.14404c0-.47998.08203-.91211.24609-1.2959.16357-.38428.38574-.70801.66602-.97217.27979-.26416.60596-.46777.97803-.61182s.76562-.21631,1.18164-.21631c.37598,0,.72412.05615,1.04443.16797.31982.1123.60156.27002.8457.47412s.44385.44629.6001.72607c.15576.28027.26172.58398.31787.91211l-.93604.21582c-.02393-.20801-.08203-.40967-.17383-.60596-.09229-.1958-.21582-.36768-.37207-.51611-.15576-.14795-.34619-.26562-.56982-.354-.22412-.08789-.48438-.13184-.78027-.13184-.28809,0-.55762.05371-.81006.16211-.25195.10791-.47363.25977-.66602.45605-.19189.1958-.3418.42969-.44971.70166s-.16211.56836-.16211.88818v.14404c0,.33594.0542.63818.16211.90576.10791.26807.25781.49414.44971.67822.19238.18408.41602.32617.67236.42578.25586.1001.53174.1499.82764.1499s.5542-.0459.77441-.1377c.21973-.0918.40771-.21191.56396-.35986.15576-.14795.27979-.31836.37207-.51025.0918-.19189.15381-.39209.18555-.6001l.93604.21631Z"/><path d="M149.90234,314.67285h-.14355c-.19238.3999-.4585.6958-.79834.8877s-.69775.28809-1.07373.28809c-.39209,0-.75635-.06592-1.09229-.19775-.33594-.13232-.62988-.32812-.88184-.58838-.25195-.25977-.4502-.57764-.59424-.95361-.14355-.37598-.21582-.81201-.21582-1.30811v-.19189c0-.48828.07227-.91992.21582-1.29639.14404-.37598.34229-.69385.59424-.95361.25195-.26025.5459-.45801.88184-.59424.33594-.13574.69189-.2041,1.06836-.2041.40771,0,.77783.09033,1.10986.27002.33203.18018.59375.45801.78613.83398h.14355v-.93604h.93604v4.72803c0,.24023.1084.36035.32422.36035h.2998v.86377h-.63574c-.27197,0-.49414-.08789-.66602-.26416-.17236-.17578-.2583-.3999-.2583-.67188v-.07178ZM147.98242,314.96045c.28027,0,.53809-.05176.77393-.15576.23633-.104.43799-.25195.60645-.44385.16797-.19238.2998-.42188.396-.68994.0957-.26807.14355-.56592.14355-.89404v-.14404c0-.31982-.04785-.61426-.14355-.88232-.09619-.26758-.23047-.49805-.40234-.68994s-.37598-.3418-.61182-.44971c-.23633-.1084-.49023-.16211-.76221-.16211-.27979,0-.53613.05225-.76807.15576-.23193.104-.43408.25049-.60596.43799-.17188.18848-.30566.41602-.40186.68408s-.14404.56201-.14404.88232v.19189c0,.68018.17822,1.20996.53418,1.58984s.81787.56982,1.38574.56982Z"/><path d="M154.24658,318.08057h-.93604v-8.35205h.93604v.93604h.14404c.20752-.35986.49561-.63379.86377-.82178.36768-.18799.76807-.28223,1.2002-.28223.36768,0,.71582.06836,1.04395.2041.32764.13623.61768.33203.87012.58789.25195.25635.45166.57227.59961.94824s.22217.80371.22217,1.28369v.24023c0,.48779-.07178.91992-.21582,1.2959s-.34229.69189-.59424.94824c-.25195.25586-.5459.44971-.88184.58203-.33594.13184-.69238.19775-1.06787.19775-.19238,0-.38818-.02197-.58838-.06592-.19971-.04395-.38965-.11182-.56982-.2041-.18018-.0918-.34619-.2041-.49805-.33594s-.28027-.29004-.38379-.47412h-.14404v3.31201ZM156.23828,314.96045c.28809,0,.55225-.0498.79199-.1499.24023-.09961.4502-.2417.63037-.42578.17969-.18408.31982-.4082.41992-.67188.09961-.26416.1499-.56006.1499-.88818v-.24023c0-.31982-.05029-.60986-.1499-.86963-.1001-.26025-.24023-.48389-.41992-.67236-.18018-.1875-.39209-.33398-.63623-.43799-.24414-.10352-.50586-.15576-.78613-.15576-.27979,0-.54004.05371-.77979.16211-.24023.10791-.4502.25781-.62988.44971-.18018.19189-.32227.42236-.42627.68994-.104.26807-.15576.5625-.15576.88232v.14404c0,.32812.05176.62598.15576.89404s.24609.49756.42627.68994c.17969.19189.38965.33984.62988.44385.23975.104.5.15576.77979.15576Z"/><path d="M161.26611,309.72852h1.87207v-2.44775h.93604v2.44775h2.3042v.86426h-2.3042v3.86377c0,.24023.10791.36035.32422.36035h1.69189v.86377h-2.02783c-.27246,0-.49414-.08789-.66602-.26416-.17236-.17578-.2583-.3999-.2583-.67188v-4.15186h-1.87207v-.86426Z"/><path d="M173.6626,309.72852h.93604v5.95215h-.93604v-1.08008h-.14404c-.19189.38428-.44385.68799-.75586.91211-.31201.22363-.70801.33594-1.18799.33594-.32812,0-.62988-.0542-.90625-.16211-.27588-.10791-.51172-.27002-.70801-.48584-.1958-.21582-.34766-.48389-.45605-.8042-.10791-.31982-.16162-.69189-.16162-1.11572v-3.55225h.93604v3.43213c0,.62402.12744,1.08008.38379,1.36816.25586.28809.64795.43164,1.17578.43164.56836,0,1.01416-.19385,1.33838-.58154.32373-.38818.48584-.90625.48584-1.5542v-3.09619Z"/><path d="M177.02246,309.72852h2.16016v.79199h.14404c.15186-.32764.36768-.56982.64795-.72607.27979-.15576.59961-.23389.95996-.23389.6001,0,1.08398.19629,1.45166.58789.36816.39209.56445.96436.58838,1.71631l-.98438.14404c0-.55225-.13184-.9502-.396-1.19434-.26367-.24365-.58789-.36572-.97168-.36572-.24805,0-.46191.04785-.64209.14404-.18018.0957-.33008.22803-.4502.396-.11963.16797-.20801.36426-.26367.58789-.05615.22412-.08398.46387-.08398.72021v2.52002h1.51172v.86377h-3.81592v-.86377h1.36816v-4.22412h-1.22412v-.86426Z"/><path d="M185.98633,312.99268c.02393.59229.20801,1.06787.55176,1.42822.34424.35986.82422.53955,1.44043.53955.27979,0,.52344-.03174.73193-.0957.20801-.06396.38574-.15186.53369-.26416.14795-.11182.26807-.2417.36035-.39014.0918-.14795.16553-.30566.22168-.47363l.88818.23975c-.16797.55225-.47803,1.00195-.93018,1.3501s-1.06201.52197-1.83008.52197c-.42383,0-.81396-.07422-1.16992-.22217s-.66211-.35791-.91797-.62988-.45605-.5957-.6001-.97168-.21582-.79248-.21582-1.24805v-.28809c0-.41602.07373-.8042.22217-1.16406.14795-.35986.354-.66992.61768-.93018.26416-.25977.57422-.46387.93018-.61182s.7417-.22217,1.1582-.22217c.48779,0,.90967.09033,1.26562.27002.35596.18018.64795.40186.87598.66602s.396.55225.50439.86426c.10791.31201.16162.59961.16162.86377v.76807h-4.7998ZM187.97852,310.44873c-.26416,0-.51025.04199-.73828.12598s-.42822.20215-.6001.354-.31201.33008-.41992.53418c-.10791.20361-.17822.42578-.20996.66602h3.83984c-.01611-.25635-.07764-.48828-.18604-.69629-.10791-.20801-.24805-.38379-.41992-.52783s-.36768-.25586-.58789-.33594-.4458-.12012-.67773-.12012Z"/><path d="M285.08398,120.43848h-1.84814l-2.07568-5.95215h1.104l1.82373,5.52002h.14404l1.82422-5.52002h1.104l-2.07617,5.95215Z"/><path d="M289.63184,119.57471h2.08789v-4.22412h-1.87207v-.86426h2.80811v5.08838h1.94385v.86377h-4.96777v-.86377ZM291.33594,112.71045c0-.23193.08203-.42969.24609-.59375.16357-.16406.36182-.24609.59375-.24609s.43018.08203.59424.24609c.16357.16406.24561.36182.24561.59375s-.08203.43018-.24561.59424c-.16406.16406-.3623.24561-.59424.24561s-.43018-.08154-.59375-.24561c-.16406-.16406-.24609-.3623-.24609-.59424Z"/><path d="M301.75195,119.43066h-.14355c-.19238.3999-.4585.6958-.79834.8877s-.69775.28809-1.07373.28809c-.39209,0-.75635-.06592-1.09229-.19775-.33594-.13232-.62988-.32812-.88184-.58838-.25195-.25977-.4502-.57764-.59424-.95361-.14355-.37598-.21582-.81201-.21582-1.30811v-.19189c0-.48828.07227-.91992.21582-1.29639.14404-.37598.34229-.69385.59424-.95361.25195-.26025.5459-.45801.88184-.59424.33594-.13574.69189-.2041,1.06836-.2041.40771,0,.77783.09033,1.10986.27002.33203.18018.59375.45801.78613.83398h.14355v-.93604h.93604v4.72803c0,.24023.1084.36035.32422.36035h.2998v.86377h-.63574c-.27197,0-.49414-.08789-.66602-.26416-.17236-.17578-.2583-.3999-.2583-.67188v-.07178ZM299.83203,119.71826c.28027,0,.53809-.05176.77393-.15576.23633-.104.43799-.25195.60645-.44385.16797-.19238.2998-.42188.396-.68994.0957-.26807.14355-.56592.14355-.89404v-.14404c0-.31982-.04785-.61426-.14355-.88232-.09619-.26758-.23047-.49805-.40234-.68994s-.37598-.3418-.61182-.44971c-.23633-.1084-.49023-.16211-.76221-.16211-.27979,0-.53613.05225-.76807.15576-.23193.104-.43408.25049-.60596.43799-.17188.18848-.30566.41602-.40186.68408s-.14404.56201-.14404.88232v.19189c0,.68018.17822,1.20996.53418,1.58984s.81787.56982,1.38574.56982Z"/><path d="M311.1001,120.43848h-.93604v-4.27197c0-.27979-.06396-.51025-.19189-.68994-.12842-.18018-.33203-.27002-.6123-.27002-.26367,0-.47803.09814-.6416.29395-.16406.19629-.24609.49805-.24609.90576v4.03223h-.93604v-4.31982c0-.26416-.07227-.48193-.21631-.6543-.14355-.17188-.33594-.25781-.57568-.25781-.28809,0-.51025.104-.66602.31201-.15625.20801-.23389.47998-.23389.81592v4.104h-.93604v-5.95215h.93604v.64795h.14355c.104-.27979.25635-.48584.45605-.61768.2002-.13232.43604-.19824.70801-.19824.28809,0,.52588.07617.71436.22803.1875.15234.31787.34814.38965.58789h.14404c.27197-.54395.7041-.81592,1.2959-.81592.44824,0,.79395.14209,1.03809.42627.24414.28369.36621.65381.36621,1.10986v4.58398Z"/><path d="M314.14795,116.88672h3.6001v.86377h-3.6001v-.86377Z"/><path d="M322.5,116.02246c0,.28809.12207.5083.36621.66016s.68994.25195,1.33789.2998c.69629.05615,1.22607.22217,1.59033.49805.36377.27588.5459.67822.5459,1.20605v.07178c0,.28809-.05811.54639-.17432.77441-.11572.22754-.27588.42188-.47998.58154-.20361.16016-.45166.28223-.74365.36621-.29248.08398-.61035.12598-.9541.12598-.46436,0-.8623-.06201-1.19385-.18604-.33252-.12402-.6084-.28809-.82812-.4917-.22021-.2041-.38623-.43604-.49805-.69629-.1123-.25977-.17627-.52197-.19189-.78613l.8877-.21582c.04004.45605.21631.82178.52832,1.09814.31201.27588.72754.41406,1.24805.41406.43945,0,.79346-.08594,1.06201-.2583.26758-.17188.40186-.41406.40186-.72607,0-.33594-.13232-.57568-.396-.71973-.26416-.14404-.69238-.23584-1.28418-.27588-.68799-.04834-1.21582-.20801-1.58398-.47998s-.55176-.66797-.55176-1.18848v-.07178c0-.27979.06006-.52588.17969-.73779.12012-.21191.28223-.39014.48633-.53418.20361-.14404.43359-.25195.68994-.32422.25586-.07178.52393-.10791.80371-.10791.39209,0,.73633.0542,1.03223.16211s.54395.24805.74414.41992c.19971.17236.354.37012.46191.59424s.17773.44775.20996.67188l-.88818.21582c-.04004-.38379-.19385-.68408-.46191-.8999s-.61816-.32373-1.0498-.32373c-.16797,0-.33008.01758-.48633.05371-.15576.03613-.29395.08984-.41406.16211-.11963.07178-.21582.16211-.2876.27002-.07227.10791-.1084.23389-.1084.37793Z"/><path d="M329.89209,117.75049c.02393.59229.20801,1.06787.55176,1.42822.34424.35986.82422.53955,1.44043.53955.27979,0,.52344-.03174.73193-.0957.20801-.06396.38574-.15186.53369-.26416.14795-.11182.26807-.2417.36035-.39014.0918-.14795.16553-.30566.22168-.47363l.88818.23975c-.16797.55225-.47803,1.00195-.93018,1.3501s-1.06201.52197-1.83008.52197c-.42383,0-.81396-.07422-1.16992-.22217s-.66211-.35791-.91797-.62988-.45605-.5957-.6001-.97168-.21582-.79248-.21582-1.24805v-.28809c0-.41602.07373-.8042.22217-1.16406.14795-.35986.354-.66992.61768-.93018.26416-.25977.57422-.46387.93018-.61182s.7417-.22217,1.1582-.22217c.48779,0,.90967.09033,1.26562.27002.35596.18018.64795.40186.87598.66602s.396.55225.50439.86426c.10791.31201.16162.59961.16162.86377v.76807h-4.7998ZM331.88428,115.20654c-.26416,0-.51025.04199-.73828.12598s-.42822.20215-.6001.354-.31201.33008-.41992.53418c-.10791.20361-.17822.42578-.20996.66602h3.83984c-.01611-.25635-.07764-.48828-.18604-.69629-.10791-.20801-.24805-.38379-.41992-.52783s-.36768-.25586-.58789-.33594-.4458-.12012-.67773-.12012Z"/><path d="M336.81592,114.48633h2.16016v.79199h.14404c.15186-.32764.36768-.56982.64795-.72607.27979-.15576.59961-.23389.95996-.23389.6001,0,1.08398.19629,1.45166.58789.36816.39209.56445.96436.58838,1.71631l-.98438.14404c0-.55225-.13184-.9502-.396-1.19434-.26367-.24365-.58789-.36572-.97168-.36572-.24805,0-.46191.04785-.64209.14404-.18018.0957-.33008.22803-.4502.396-.11963.16797-.20801.36426-.26367.58789-.05615.22412-.08398.46387-.08398.72021v2.52002h1.51172v.86377h-3.81592v-.86377h1.36816v-4.22412h-1.22412v-.86426Z"/><path d="M348.63574,120.43848h-1.84814l-2.07568-5.95215h1.104l1.82373,5.52002h.14404l1.82422-5.52002h1.104l-2.07617,5.95215Z"/><path d="M353.72412,117.75049c.02393.59229.20801,1.06787.55176,1.42822.34424.35986.82422.53955,1.44043.53955.27979,0,.52344-.03174.73193-.0957.20801-.06396.38574-.15186.53369-.26416.14795-.11182.26807-.2417.36035-.39014.0918-.14795.16553-.30566.22168-.47363l.88818.23975c-.16797.55225-.47803,1.00195-.93018,1.3501s-1.06201.52197-1.83008.52197c-.42383,0-.81396-.07422-1.16992-.22217s-.66211-.35791-.91797-.62988-.45605-.5957-.6001-.97168-.21582-.79248-.21582-1.24805v-.28809c0-.41602.07373-.8042.22217-1.16406.14795-.35986.354-.66992.61768-.93018.26416-.25977.57422-.46387.93018-.61182s.7417-.22217,1.1582-.22217c.48779,0,.90967.09033,1.26562.27002.35596.18018.64795.40186.87598.66602s.396.55225.50439.86426c.10791.31201.16162.59961.16162.86377v.76807h-4.7998ZM355.71631,115.20654c-.26416,0-.51025.04199-.73828.12598s-.42822.20215-.6001.354-.31201.33008-.41992.53418c-.10791.20361-.17822.42578-.20996.66602h3.83984c-.01611-.25635-.07764-.48828-.18604-.69629-.10791-.20801-.24805-.38379-.41992-.52783s-.36768-.25586-.58789-.33594-.4458-.12012-.67773-.12012Z"/><path d="M360.64795,114.48633h2.16016v.79199h.14404c.15186-.32764.36768-.56982.64795-.72607.27979-.15576.59961-.23389.95996-.23389.6001,0,1.08398.19629,1.45166.58789.36816.39209.56445.96436.58838,1.71631l-.98438.14404c0-.55225-.13184-.9502-.396-1.19434-.26367-.24365-.58789-.36572-.97168-.36572-.24805,0-.46191.04785-.64209.14404-.18018.0957-.33008.22803-.4502.396-.11963.16797-.20801.36426-.26367.58789-.05615.22412-.08398.46387-.08398.72021v2.52002h1.51172v.86377h-3.81592v-.86377h1.36816v-4.22412h-1.22412v-.86426Z"/><polygon points="129.55324 277.23176 131.3395 277.23176 134.76651 281.80866 138.17032 277.23175 139.97965 277.23175 134.76651 284.2121 129.55324 277.23176" style="fill:#d000ff;"/><rect x="347.55884" y="138.87842" width="1.5" height="143.74463" style="fill:#2d00fd;"/><polygon points="343.09948 277.23176 344.88573 277.23176 348.31274 281.80866 351.71655 277.23175 353.52588 277.23175 348.31274 284.2121 343.09948 277.23176" style="fill:#2d00fd;"/><rect x="305.91943" y="139.66357" width="1.5" height="143.92432" style="fill:#2d00fd;"/><polygon points="311.87846 144.9745 310.09219 144.97449 306.66515 140.39756 303.26136 144.97447 301.45202 144.97446 306.66513 137.99411 311.87846 144.9745" style="fill:#2d00fd;"/><polygon points="391.99024 117.61225 391.99024 119.39851 387.41333 122.82557 391.99025 126.22935 391.99025 128.03869 385.00988 122.82559 391.99024 117.61225" style="fill:#2d00fd;"/><polygon points="763.60543 57.46685 765.3917 57.46685 768.81875 62.04376 772.22253 57.46684 774.03187 57.46684 768.81877 64.44721 763.60543 57.46685" style="fill:#2d00fd;"/><path d="M103.26916,129.26076c-.01116-.12641-.03219-.24517-.04853-.36762-.01796-.13582-.03313-.27398-.05731-.40462-.02755-.14748-.0646-.2869-.10003-.42767-.02399-.09584-.04497-.1943-.07257-.28686-.04349-.14532-.09557-.28262-.14779-.41975-.0303-.07973-.05857-.16139-.09175-.23824-.05699-.13172-.1215-.25584-.18696-.37901-.03957-.07437-.07815-.14982-.12083-.22095-.06717-.11228-.1405-.2178-.21519-.32179-.05281-.07329-.10579-.14631-.16229-.21532-.07369-.09044-.15189-.17553-.23184-.25849-.06964-.07203-.141-.14194-.21537-.20825-.07748-.06937-.15761-.13528-.24008-.19817-.06325-.04808-.12992-.09157-.19605-.13578l.00806-.01396-.1685-.09719c-.01837-.01103-.03403-.02571-.05263-.03642-.01877-.01085-.03957-.01711-.05852-.02764l-.30315-.17485-2.23993-1.29166.00639-.01161c-.03849-.0212-.08067-.0339-.11979-.05375l-15.68773-9.04642c-1.63146-.80457-3.4963-.61225-5.54769.57191-1.42991.82559-2.76394,2.0594-3.9074,3.51025-2.20661,2.79977-3.69023,6.42293-3.69023,9.58646,0,2.35968.80889,4.14564,2.28332,5.03196l18.52662,10.68805.00968-.01675c.06041.03129.12132.06145.18313.0895.09436.04277.19007.08243.28758.11772.05506.01999.11115.03746.16711.05506.10602.03318.21258.06496.32188.08968.0438.00995.08878.01643.13303.02503.27857.05389.56381.08923.86039.08923,1.08476,0,2.28116-.35943,3.51502-1.07179.23621-.13636.46895-.28713.69972-.44465.066-.04502.1315-.09269.19718-.13951.17494-.12475.34813-.25494.51924-.39094.05938-.04709.11894-.09323.17796-.14176.45257-.37262.89033-.78228,1.30927-1.22364.05074-.05348.10048-.10921.15077-.16373.15869-.17192.31459-.34799.46738-.52838.05758-.06802.1152-.13609.1721-.20546.15783-.19232.31184-.38914.46252-.58951.03759-.04997.07622-.09809.11345-.14865.01711-.02323.03264-.04785.04961-.07122l.09701.05614.62382.36109c.0099.00626.01702.01603.02724.02192.01143.00662.02472.00878.03637.01486l.0054.00315.00036-.00059.00009-.00018c.0307.01571.06303.0271.0953.03903.05798.02192.11858.03615.18043.04592.02332.00347.04655.00698.07032.00873.02458.0018.04767.009.0727.009.02161,0,.04484-.0086.06676-.00995.06375-.00392.12853-.01364.19416-.0289.0334-.0077.06654-.01342.10026-.02404.10161-.03232.20407-.07383.30581-.13267.703-.4066,1.25398-1.35703,1.25398-2.16376,0-.09697-.01224-.18732-.02809-.2752-.00288-.01576-.00185-.03394-.00518-.04943-.01089-.05029-.03196-.09301-.04794-.13965-.01697-.04911-.02949-.10174-.052-.14631-.01279-.02557-.03205-.04488-.04659-.06888-.03561-.05812-.0709-.11673-.11655-.16472-.0099-.01053-.02309-.01706-.03345-.02706-.05105-.04925-.10327-.09746-.16499-.13321-.00603-.00347-.01319-.0041-.01931-.00743l-.0041-.00239-.72682-.42065c.01918-.04218.04079-.08355.0596-.12578.03385-.07604.06487-.15203.09746-.22806.09319-.21739.18228-.43569.26592-.65488.03088-.08085.06118-.16166.09062-.24238.0872-.23954.16859-.47962.24377-.72007.01571-.05015.03313-.10057.04826-.15063.17791-.58983.3167-1.17993.41538-1.76391.01211-.07189.02224-.1432.03304-.21474.03327-.21928.06001-.4374.08108-.65421.00743-.07703.01603-.15437.02188-.23081.02152-.27884.0357-.55589.0357-.82865,0-.28699-.01342-.56426-.03696-.83356ZM72.07931,132.48965c-.39472-.23734-.72601-.56606-1.00364-.9601-.59321-.84193-.91666-2.01205-.91666-3.4362,0-4.56809,3.24275-10.15684,7.22885-12.45781,1.84971-1.06891,3.43795-1.24791,4.831-.56075l13.80777,7.96301c-1.00553.05893-2.09402.40426-3.21444,1.05145-4.18922,2.41838-7.59692,8.29344-7.59692,13.09671,0,1.28806.24882,2.39677.70638,3.2893,0,.00005.00009.00014.00014.00023l-13.84248-7.98583ZM87.86414,141.59603l.00009-.00014.00819-.01364c-1.23818-.74406-1.91958-2.30529-1.91958-4.3963,0-4.56845,3.24275-10.15684,7.22813-12.45781,1.78731-1.03177,3.45506-1.24133,4.72084-.60896l.66541.38378c-1.00764.05708-2.10001.40372-3.22682,1.05424-4.18922,2.41838-7.59692,8.29344-7.59692,13.09671,0,1.28162.24463,2.38493.69621,3.274.00005.00009.00009.00014.00014.00023l-.57569-.3321ZM99.8195,138.17113l-1.51446-.87651-.63282-.36622-2.03037-1.17507-.64358-.37244c-.07851-.04574-.12533-.18187-.12533-.36411,0-.54814.4048-1.24502.8838-1.52162.14694-.08427.28091-.11525.36591-.08607l.66307.38369,2.03077,1.1752.63125.36528,1.51725.87799.29149.16868.17931.10377-.00005.00005c-.61666.41034-1.09097,1.22427-1.14391,1.96009-.00005.00018,0,.00041-.00005.00059l-.18309-.10597-.2892-.16733ZM101.18972,138.94792c-.00963-.00252-.02449.00122-.03273-.00275-.00297-.00144-.009.00063-.01175-.00099-.00185-.00108-.00252-.00491-.00432-.00608-.00113-.00072-.00158-.00302-.00266-.00378-.07396-.05051-.11979-.17958-.11979-.35569,0-.54922.40552-1.24755.88596-1.52486.1102-.06375.21537-.0976.29604-.0976.03403,0,.06167.00774.08567.01963h.00005c.00072.00036.00185.00023.00257.00059.00131.00068.00347.00041.00473.00108.00036.00023.00099.00009.00135.00032.03543.02066.06217.06483.08346.1184.00207.00522.00621.00608.00815.01157.01031.02949.01062.07311.01639.10971.00653.04164.01801.07667.01801.12587,0,.54922-.40548,1.24755-.88519,1.52486-.07694.0443-.15077.07162-.21636.08558-.05326.0113-.09233.00396-.12956-.00585ZM99.08939,134.27408l-2.54249-1.47147c-.01152-.00864-.02449-.01693-.03746-.02449-.01873-.0108-.03746-.02053-.0569-.02989-.01369-.00684-.02737-.01297-.04178-.01837-.29676-.12209-.66411-.07923-1.02281.12677-.70228.40516-1.25259,1.35415-1.25259,2.16016,0,.45522.18007.82041.49412,1.00193l2.5723,1.48884c-.56201.6443-1.19253,1.19298-1.86137,1.57924-1.06027.61153-2.03554.72209-2.74647.31153-.703-.40552-1.0898-1.29004-1.0898-2.49005,0-2.65716,1.88644-5.9082,4.20506-7.24686.6389-.36915,1.24683-.55571,1.7856-.55571.35438,0,.67851.08103.96087.24418.703.40552,1.0898,1.29004,1.0898,2.48969,0,.78147-.16675,1.61404-.45608,2.4345ZM102.53464,130.88038c-.00711.09238-.01841.18552-.02796.27844-.01742.17021-.03822.3411-.06357.51294-.01769.12006-.03728.24013-.0587.36082-.02426.13645-.05276.2734-.08171.41043-.03138.14856-.06235.29672-.09909.44573-.01486.06019-.03313.12051-.0488.18075-.216.82879-.50821,1.65991-.87295,2.47348l-.00968-.00558-1.53877-.89055c.35024-.94349.54963-1.9067.54963-2.80725,0-1.47444-.51789-2.58549-1.45859-3.12859-.94934-.5485-2.18681-.43794-3.48405.31153-2.52174,1.45643-4.57385,4.99378-4.57385,7.88576,0,1.47444.51789,2.58585,1.45859,3.12895.3976.22941.84562.34358,1.3275.34358.66843,0,1.40241-.21969,2.15655-.65511.7717-.44582,1.49839-1.08791,2.13679-1.8453l1.53967.89118.01094.00635c-.53617.72786-1.12577,1.40043-1.75139,2.0039-.02125.02044-.0416.04245-.06289.06271-.11151.10624-.22541.20659-.33921.30797-.10336.09211-.20663.18426-.3118.27218-.09449.07901-.18953.15567-.28537.23117-.13537.10665-.27205.20933-.40989.30856-.07698.05542-.1532.11228-.2309.16531-.21919.14964-.44037.29284-.66474.42241-.22797.13159-.45378.24895-.67725.35398-.12137.05704-.2399.10066-.3597.14987-.09913.0407-.19943.08698-.29739.12231-.15158.05465-.2996.09508-.44798.13677-.06303.01769-.12745.04074-.18984.05609-.15815.0389-.31216.06393-.46589.0877-.05033.00779-.10197.02003-.15176.0262-.15315.01891-.30171.02449-.44973.028-.04826.00117-.09796.0063-.14563.00581-.14127-.00149-.27772-.0154-.41358-.03129-.052-.00612-.10539-.00855-.15653-.01675-.12592-.02017-.24697-.05173-.36757-.08481-.05744-.01576-.11619-.02841-.17237-.04709-.11011-.0366-.2155-.08337-.32053-.13127-.09256-.04218-.18809-.07802-.27646-.12898-1.26843-.73254-1.96712-2.30385-1.96712-4.42475,0-4.56845,3.24275-10.15684,7.22813-12.45781,1.11861-.64574,2.18897-.97239,3.14335-.97239.61499,0,1.17993.13956,1.67959.41241l.11867.06843c.09355.05641.18093.12159.26804.18719.07176.05407.14248.10917.20983.16927.06199.05537.12024.11565.17845.17607.06919.07176.13753.14424.20123.22302.04704.05812.09012.12114.13415.18304.0651.09143.12952.18331.18795.28267.03484.0592.06541.12326.09782.18516.05785.11056.11543.22117.16558.34025.02652.06294.04826.13082.07261.1961.04682.12556.09395.25066.13262.38464.0217.07523.03764.15608.05672.23382.03228.13136.06627.26084.09103.39927.01972.11034.03142.22784.04628.34259.01486.11448.03403.22509.04403.3438.02017.23959.03138.48678.03138.74289,0,.25872-.01355.52158-.0339.78606Z"/><path d="M95.56176,141.86096c.3832-.22126.69382-.75671.69382-1.19604,0-.43929-.31063-.61603-.69382-.39477-.3832.22122-.69382.75671-.69382,1.196s.31063.61607.69382.39481Z"/><path d="M95.56176,126.77764c-.3832.22126-.69382.75676-.69382,1.19604s.31063.61607.69382.39481.69382-.75676.69382-1.19604-.31063-.61603-.69382-.39481Z"/><path d="M198.36738,125.17171c-.89408-.5144-2.05472-.40869-3.27017.29491-2.35459,1.36391-4.26769,4.67214-4.26439,7.37503.00186,1.38368.49028,2.42613,1.37571,2.93586.37407.21532.79555.32219,1.24826.32169.62737-.00068,1.31539-.20779,2.02155-.61661,2.35459-1.36391,4.26769-4.67214,4.26439-7.37467-.00186-1.38368-.49028-2.42649-1.37535-2.93622ZM195.10885,134.8441c-.97826.56685-1.87707.67227-2.53259.29411-.64723-.37277-1.00466-1.18847-1.00587-2.29736-.00304-2.46808,1.7447-5.48981,3.8963-6.73573.59135-.34242,1.15371-.51626,1.65071-.5168.32521-.00035.62277.07351.88188.22269.64723.37277,1.00466,1.18883,1.00587,2.29772.00304,2.46808-1.7447,5.48945-3.8963,6.73537Z"/><path d="M201.8811,121.65178c-1.50059-.86452-3.47363-.67906-5.5536.52501-4.12792,2.38902-7.48178,8.18526-7.47663,12.92118.00257,2.36292.82347,4.13611,2.31108,4.99308.62344.35911,1.32772.53698,2.08727.53615,1.07035-.00116,2.2498-.35719,3.46597-1.06116,4.12792-2.38902,7.48214-8.18562,7.47699-12.92118-.00257-2.36292-.82347-4.13611-2.31108-4.99308ZM196.34571,138.92754c-1.84135,1.06587-3.55184,1.25213-4.81566.52421-1.24977-.71965-1.93933-2.26609-1.9416-4.35458-.00489-4.5011,3.18397-10.01049,7.10853-12.28188,1.10099-.63758,2.15515-.96033,3.09513-.96135.63206-.00069,1.21277.14454,1.72089.43715,1.24977.71965,1.93933,2.26609,1.9416,4.35458.00489,4.50074-3.18397,10.01049-7.10889,12.28188Z"/><path d="M195.22896,127.02443c-.50933.29497-.98836.7188-1.40887,1.21838.57421-.33245,1.04021-.06789,1.04101.59095.00081.65889-.46399,1.46261-1.0382,1.79515s-1.04034.06798-1.04115-.5909c-.00011-.05879.00775-.11971.01484-.18036-.36344.78281-.58011,1.61139-.57914,2.37395.00235,1.91125,1.35445,2.67869,3.02002,1.71407,1.66557-.96457,3.01395-3.29596,3.0116-5.20721-.00235-1.91125-1.35454-2.67865-3.02011-1.71403Z"/><path d="M205.52991,124.83331c-.00401-.04303-.0131-.08187-.0176-.1245-.02934-.27944-.06489-.55392-.11591-.8152-.01082-.05536-.02834-.10473-.0401-.15923-.05235-.24232-.10812-.48158-.17922-.70673-.01793-.05679-.04311-.10669-.06221-.1624-.07357-.21412-.14929-.42616-.24013-.6232-.0356-.07726-.08074-.14447-.11895-.21902-.08445-.16477-.16706-.33156-.26411-.4828-.06119-.09546-.13408-.17768-.20022-.2676-.08598-.11677-.16701-.23914-.26121-.34636-.09258-.10542-.19798-.19516-.29838-.29108-.08026-.07662-.15423-.16091-.23943-.23127-.1222-.10102-.25748-.18493-.3897-.27284-.07276-.04832-.13859-.10578-.21432-.15004-.01947-.01763-.04109-.03345-.06416-.04711l-6.12055-3.51702c-1.76257-1.00901-4.07987-.78428-6.52516.63087-4.89131,2.83067-8.86597,9.69938-8.85987,15.31117.00075.68734.06011,1.33239.17542,1.92925.34584,1.79068,1.19506,3.14787,2.47513,3.91304.01225.00899.02487.01762.03784.02517l6.10558,3.50299c.02397.01438.04438.03349.06866.04746.03027.01743.0631.02897.09369.04568l.13838.0794.00018-.00027c.02302.01326.04671.02363.07116.03117.03284.01572.06787.02626.10102.04122.10553.04765.21241.09156.3213.13115.06769.02451.1365.04609.20549.06748.12001.03741.24048.07298.36408.10099.05147.0116.10428.01924.15634.02918.32253.06209.65292.1027.99659.10232,1.26087-.00173,2.65202-.42173,4.08774-1.25271,4.89059-2.83067,8.86454-9.6983,8.85843-15.30937-.00038-.34781-.01587-.68458-.0458-1.0098ZM182.05625,132.35816c-.00585-5.37662,3.80347-11.95847,8.49178-14.67187,2.20847-1.27804,4.26466-1.50105,5.78902-.62971l3.99152,2.29393c-1.23933.01881-2.59745.42496-4.00244,1.23803-4.89095,2.83103-8.8649,9.69866-8.85879,15.30973.00172,1.57942.32254,2.92399.91006,3.98484l-3.96512-2.27478c-.01009-.00719-.02054-.01402-.03099-.02049-1.49664-.87425-2.32231-2.73171-2.32503-5.22968ZM196.3478,140.51398c-.26787.15506-.53324.29306-.79592.41697-.14317.06737-.28357.11988-.42505.17797-.11601.0478-.23331.10172-.34788.14327-.17294.0624-.34238.10972-.512.15785-.07952.02273-.16048.05118-.2392.07071-.17894.04418-.3539.07367-.52831.1016-.06644.0107-.13426.02617-.19998.03448-.17231.02166-.34004.02923-.50709.03454-.06559.00214-.13248.00825-.19717.00782-.1582-.00104-.31159-.01528-.46422-.0315-.0706-.00753-.14232-.01191-.21161-.02268-.14075-.02182-.27665-.05543-.41188-.09067-.07673-.02008-.15427-.03814-.22912-.0626-.1233-.04007-.24203-.09031-.35999-.14218-.09805-.04325-.19709-.08433-.29128-.13577l-.14595-.08376c-1.46379-.88644-2.27355-2.72244-2.27623-5.19255-.00585-5.37626,3.80311-11.95739,8.4907-14.67043,2.20239-1.27484,4.25057-1.49792,5.77403-.63442.12072.06839.23061.15227.34271.233.06483.04675.13492.08611.19683.13696.10246.08407.19382.18297.2881.27794.06143.06188.12834.11664.18626.18307.08199.094.15288.20179.22776.30457.05915.08133.12383.15585.17854.24254.06336.10041.11557.21353.17281.32102.05449.10245.11443.19872.1633.30743.0482.10718.08529.22621.12795.33939.04587.12168.09709.23782.13649.36617.03673.11966.06181.25064.09283.37598.03314.1338.07182.26229.09835.40236.02862.15128.04446.31418.06525.47262.01652.12549.0397.24508.05128.37486.02611.29381.03968.59839.04002.91338.00585,5.37626-3.80275,11.95703-8.49034,14.67007Z"/><path d="M166.33867,124.33713c-.01428-.01232-.03104-.02356-.04555-.03569-.12468-.10368-.25287-.20627-.39361-.30453-.16214-.11408-.33401-.22428-.51649-.32924l-14.91002-8.58696c-2.58999-1.49251-6.52835-1.64309-8.78073-.33907l-19.89096,11.51318c-1.05708.61124-1.6385,1.47478-1.63746,2.42989.00002.01981.00491.03961.00542.05942l.00041,2.65752c-.03224,1.15034.78581,2.29184,2.24459,3.13155l14.90966,8.58696c1.41158.81312,3.22356,1.22747,4.94542,1.2256,1.43698-.00156,2.81062-.29333,3.83531-.88653l19.89132-11.51318c.9851-.5701,1.56298-1.37314,1.6279-2.28654l.01255-2.70471c.08881-.91937-.37776-1.83679-1.29775-2.61766ZM152.47258,122.79088l1.96242-1.13578,4.66582,2.68711-1.96242,1.13578-4.66582-2.68711ZM156.78252,130.88643c-.46592.26963-1.21898.27207-1.68215.00534-.46312-.26672-.46089-.70151.00502-.97123s1.21907-.27207,1.68224-.00534c.46312.26672.4608.70151-.00511.97123ZM157.55478,128.50286c.46592-.26972,1.21907-.27216,1.68224-.00543.46312.26672.4608.7016-.00511.97132-.46592.26963-1.21898.27207-1.68215.00525-.46317-.26672-.46089-.70142.00502-.97114ZM160.37962,125.34905c1.19669-.69269,3.13116-.69885,4.32075-.0137,1.18954.68497,1.18373,1.80179-.013,2.49448-1.19669.69269-3.13112.69885-4.3207.01379-1.18959-.68515-1.18378-1.80197.01295-2.49457ZM155.99386,126.14047l-1.96242,1.13587-4.66587-2.68711,1.96246-1.13587,4.66582,2.68711ZM150.92444,129.0746l-4.66587-2.68702,1.96246-1.13587,4.66582,2.68711-1.96242,1.13578ZM151.88383,133.72179c-.46592.26972-1.21902.27216-1.68215.00543-.46317-.26681-.46089-.7016.00502-.97132s1.21907-.27207,1.68219-.00534c.46317.26681.46085.70151-.00507.97123ZM149.43444,135.13946c-.46592.26972-1.21898.27216-1.68215.00543s-.46089-.7016.00502-.97132c.46592-.26963,1.21907-.27198,1.68219-.00525.46317.26672.46085.70142-.00507.97114ZM142.63805,122.19095l3.34042,1.92369-8.42801,4.87816-3.34042-1.92378,8.42801-4.87807ZM134.15072,124.97889c-.64232.37174-1.68062.37512-2.31906.00738s-.6354-.9672.00692-1.33903c.64232-.37174,1.68071-.37494,2.31915-.00729s.63536.96711-.00701,1.33894ZM136.83336,120.75632c.64232-.37183,1.68071-.37512,2.31915-.00738s.63531.9672-.00701,1.33894-1.68062.37503-2.31906.00747c-.63844-.36774-.6354-.9672.00692-1.33903ZM143.59107,115.68045c1.19669-.6926,3.13112-.69885,4.3207-.0137,1.18959.68497,1.18378,1.80188-.01295,2.49457-1.19669.6926-3.13125.69867-4.32079.0137-1.1895-.68515-1.18373-1.80197.01304-2.49457ZM139.47303,130.08934l1.95065,1.12334-4.69403,2.71692-1.9506-1.12343,4.69398-2.71683ZM142.6338,131.90968l1.95069,1.12334-4.69398,2.71692-1.95069-1.12343,4.69398-2.71683ZM139.85242,137.23018c1.19673-.69269,3.13121-.69885,4.32079-.01379,1.1895.68515,1.18369,1.80197-.013,2.49457-1.19673.69269-3.13112.69885-4.32075.01379-1.18959-.68506-1.18373-1.80197.01295-2.49457ZM145.30797,135.59125c.46592-.26963,1.21902-.27198,1.68219-.00525s.46085.70151-.00507.97114c-.46592.26972-1.21902.27216-1.68215.00543-.46317-.26672-.46089-.7016.00502-.97132ZM152.65605,131.33822c.46592-.26972,1.21907-.27207,1.68224-.00534.46312.26672.4608.70151-.00511.97123s-1.21898.27207-1.68215.00534-.46089-.70151.00502-.97123ZM127.37166,130.04244c-1.19673.69269-3.13125.69876-4.32079.0137s-1.18378-1.80188.013-2.49448c1.19673-.69278,3.13116-.69885,4.32075-.01388,1.18954.68515,1.18373,1.80197-.01295,2.49466ZM165.6265,131.30827l-19.89132,11.51318c-2.04902,1.18567-5.65677,1.03329-8.04315-.33988l-14.90966-8.58696c-1.21625-.70024-1.89971-1.60131-1.8751-2.48297l-.00016-.89568c.37455.45122.87633.8715,1.50378,1.23259l14.91002,8.58696c1.41158.81312,3.22356,1.22747,4.94542,1.2256,1.43698-.00156,2.81062-.29333,3.83531-.88653l19.89096-11.51318c.35767-.20684.65597-.4445.90059-.7029l-.00584,1.173c-.04684.64615-.4827,1.22574-1.26085,1.67677Z"/><rect x="53.27172" y="193.57542" width="331.61351" height="53.52025" rx="9.10089" ry="9.10089" style="fill:#f7f6f3;"/><path d="M375.78418,247.5957H62.37256c-5.29395,0-9.60107-4.30713-9.60107-9.60107v-35.31836c0-5.29395,4.30713-9.60107,9.60107-9.60107h313.41162c5.29395,0,9.60107,4.30713,9.60107,9.60107v35.31836c0,5.29395-4.30713,9.60107-9.60107,9.60107ZM62.37256,194.0752c-4.74268,0-8.60107,3.8584-8.60107,8.60107v35.31836c0,4.74268,3.8584,8.60107,8.60107,8.60107h313.41162c4.74268,0,8.60107-3.8584,8.60107-8.60107v-35.31836c0-4.74268-3.8584-8.60107-8.60107-8.60107H62.37256Z"/><path d="M72.36865,225.30029v-8.67578c.03174,0,.12695.00098.28467.00293.1582.00195.34912.00195.57324,0s.45312-.00195.68701,0,.44287.00488.62695.00879c1.06006.02002,1.92188.19824,2.58594.53418s1.15088.81787,1.46094,1.4458.46533,1.39404.46533,2.29785c0,.94043-.16602,1.7373-.49805,2.39111-.33203.6543-.83936,1.15039-1.521,1.48828-.68213.33789-1.54541.50684-2.58936.50684h-2.07568ZM73.67627,224.22021h.78027c.65576,0,1.22705-.10693,1.71289-.3208s.86328-.56201,1.13086-1.04395c.26807-.48193.40234-1.12695.40234-1.93506,0-.79199-.12842-1.42285-.38428-1.89307s-.62305-.80811-1.10107-1.01416-1.05273-.30908-1.72461-.30908h-.81641v6.51611Z"/><path d="M80.72656,225.30029l3.13184-8.67578h1.41602l3.12598,8.67578h-1.2959l-.81592-2.27393h-3.43799l-.82227,2.27393h-1.30176ZM83.16846,221.8623h2.78369l-1.3916-3.99023-1.39209,3.99023Z"/><path d="M92.4624,225.30029v-7.50586h-2.74805v-1.16992h6.66602v1.16992h-2.62207v7.50586h-1.2959Z"/><path d="M97.69434,225.30029l3.13184-8.67578h1.41602l3.12598,8.67578h-1.2959l-.81592-2.27393h-3.43799l-.82227,2.27393h-1.30176ZM100.13623,221.8623h2.78369l-1.3916-3.99023-1.39209,3.99023Z"/><path d="M110.97217,225.30029v-8.67578h1.81201l2.44189,6.8999,2.47803-6.8999h1.7998v8.67578h-1.31396v-6.90576l-2.3999,6.90576h-1.12207l-2.38818-6.85205v6.85205h-1.30762Z"/><path d="M121.65186,225.30029l3.13184-8.67578h1.41602l3.12598,8.67578h-1.2959l-.81592-2.27393h-3.43799l-.82227,2.27393h-1.30176ZM124.09375,221.8623h2.78369l-1.3916-3.99023-1.39209,3.99023Z"/><path d="M131.47412,225.30029v-8.67578h1.2417l4.41602,6.46777v-6.46777h1.29004v8.67578h-1.15186l-4.51221-6.6001v6.6001h-1.28369Z"/><path d="M140.56396,225.30029l3.13184-8.67578h1.41602l3.12598,8.67578h-1.2959l-.81592-2.27393h-3.43799l-.82227,2.27393h-1.30176ZM143.00586,221.8623h2.78369l-1.3916-3.99023-1.39209,3.99023Z"/><path d="M153.66162,225.42041c-.77197,0-1.43799-.17627-1.99805-.52832-.56006-.35156-.99121-.85889-1.29297-1.521-.30225-.66162-.45312-1.45654-.45312-2.38477,0-.93604.15527-1.73877.46533-2.40918.30957-.66992.75049-1.18262,1.32275-1.53906.57178-.35596,1.24414-.53369,2.01611-.53369.45996,0,.88672.07812,1.28076.23389.39404.15625.74219.36816,1.04395.63623.30225.26758.54102.57178.71729.91162.17578.34033.27588.69629.2998,1.06836h-1.36768c-.05615-.30811-.17529-.59326-.35742-.85498-.18164-.26221-.41309-.47314-.69287-.6333-.27979-.15967-.59619-.23975-.94775-.23975-.46826,0-.88232.11572-1.24219.34766-.35986.23242-.64111.59424-.84277,1.08594-.20215.49219-.30322,1.12451-.30322,1.896,0,.60449.06299,1.11816.18896,1.54248.12598.42383.29883.76562.51904,1.02588.21973.25977.47803.44873.77393.56689s.6123.17676.94824.17676c.33203,0,.62402-.05762.87598-.17383.25195-.11572.46289-.26611.63281-.44971.16992-.18408.30225-.3833.396-.59717.09424-.21387.14697-.4209.15918-.62109l.04785-.70215h-2.02783v-.92383l3.36572.01221v4.48779h-.92969v-1.27197c-.15234.23584-.34229.45996-.57031.67188-.22803.2124-.50781.38525-.83984.51904s-.72803.20117-1.18799.20117Z"/><path d="M159.86572,225.30029v-8.67578h5.604l-.00635,1.11572h-4.30762v2.63428h3.8457v1.104h-3.85205v2.68799l4.42236.00586v1.12793h-5.70605Z"/><path d="M167.95947,225.30029v-8.67578h1.81201l2.44189,6.8999,2.47803-6.8999h1.7998v8.67578h-1.31396v-6.90576l-2.3999,6.90576h-1.12207l-2.38818-6.85205v6.85205h-1.30762Z"/><path d="M179.2876,225.30029v-8.67578h5.604l-.00635,1.11572h-4.30762v2.63428h3.8457v1.104h-3.85205v2.68799l4.42236.00586v1.12793h-5.70605Z"/><path d="M187.38135,225.30029v-8.67578h1.2417l4.41602,6.46777v-6.46777h1.29004v8.67578h-1.15186l-4.51221-6.6001v6.6001h-1.28369Z"/><path d="M199.0332,225.30029v-7.50586h-2.74805v-1.16992h6.66602v1.16992h-2.62207v7.50586h-1.2959Z"/><path d="M211.39307,225.42041c-.42432,0-.83105-.05225-1.22119-.15625-.38965-.104-.74365-.25879-1.06201-.46484-.31787-.20605-.58008-.46289-.78564-.771-.20605-.30811-.33545-.66797-.38721-1.08008h1.33789c.06787.31201.20312.57422.40527.78613.20166.21191.45605.37207.76172.47998.30615.10791.64502.16211,1.01709.16211.34375,0,.66211-.0542.9541-.16211s.52783-.26416.70801-.46826c.17969-.20361.27002-.45361.27002-.75,0-.33154-.11133-.59473-.33301-.78857-.22217-.19434-.55518-.34912-.99902-.46533l-1.74023-.43213c-.41992-.09961-.79004-.24268-1.10986-.42871s-.56787-.43213-.74414-.73828c-.17578-.30566-.26367-.68457-.26367-1.13672,0-.50391.13867-.94287.41699-1.31689.27783-.37402.65576-.66309,1.13379-.86719s1.01904-.30615,1.62305-.30615c.69189,0,1.2749.11816,1.74902.354.47412.23633.83398.54736,1.08008.93311.24609.38623.37109.80713.375,1.26318h-1.30811c-.03613-.37207-.14502-.66699-.32715-.88525-.18213-.21777-.41211-.375-.68994-.4707-.27783-.09619-.58496-.14404-.9209-.14404-.59229,0-1.03711.13086-1.33496.39307-.29785.26172-.44727.57275-.44727.93262,0,.33203.10938.59424.32715.78613.21826.19189.54102.34033.96924.44385l1.67969.41406c.52832.11621.95117.28906,1.26904.51904s.54688.5.68701.81006.20996.64893.20996,1.01709c0,.49219-.1377.9292-.41406,1.31104-.27588.38184-.66064.68213-1.15479.8999s-1.0708.32715-1.73096.32715Z"/><path d="M217.08105,225.30029v-8.67578h5.604l-.00635,1.11572h-4.30762v2.63428h3.8457v1.104h-3.85205v2.68799l4.42236.00586v1.12793h-5.70605Z"/><path d="M225.1748,225.30029v-8.67578h3.44434c.64258,0,1.17773.09863,1.60156.29688.42383.19775.74023.479.94727.84277.20898.36426.3125.79443.3125,1.29004,0,.46826-.07812.85791-.23633,1.16992s-.36328.56641-.61328.76221-.51172.3501-.78906.46191l1.68164,3.85205h-1.35156l-1.54102-3.62988h-2.17236v3.62988h-1.28369ZM226.4585,220.63232h1.81299c.60352,0,1.07031-.13086,1.40234-.39307.33203-.26172.49805-.63672.49805-1.125,0-.47998-.15039-.84375-.45312-1.0918-.30078-.24805-.71094-.37207-1.22656-.37207h-2.03369v2.98193Z"/><path d="M236.18457,225.30029l-3.06641-8.67578h1.25391l2.56836,7.20557,2.5625-7.20557h1.25977l-3.06641,8.67578h-1.51172Z"/><path d="M242.72461,225.30029v-8.67578h1.28418v8.67578h-1.28418Z"/><path d="M250.08691,225.42041c-.78418,0-1.45605-.18115-2.01562-.54297-.56055-.3623-.98926-.87793-1.28711-1.54834-.29785-.66992-.44727-1.47266-.44727-2.40869,0-.93213.14844-1.72705.44434-2.38525.2959-.65771.72363-1.16064,1.28418-1.50879.55957-.34814,1.2334-.52197,2.02148-.52197.62402,0,1.17773.12793,1.66211.38379.48438.25635.87305.6001,1.16699,1.03223.29395.43164.46875.91016.52539,1.43408h-1.36816c-.06055-.32812-.1748-.625-.34473-.89111-.1709-.26611-.39551-.47607-.67578-.62988-.2793-.1543-.61133-.23145-.99609-.23145-.49121,0-.90918.11621-1.25391.34814-.34375.23193-.60449.59424-.78223,1.08594-.17871.49219-.26758,1.12598-.26758,1.90234,0,1.17188.19824,2.02881.59375,2.5708.39648.54199.9668.81299,1.70996.81299.38477,0,.7168-.08301.99609-.24902.28027-.16602.50488-.3877.67578-.66602.16992-.27783.28418-.58105.34473-.90869h1.36816c-.04883.37988-.14844.74463-.30078,1.09473-.15137.3501-.3623.66309-.63281.93896-.26953.27588-.60449.49316-1.00488.65088-.40039.1582-.87207.2373-1.41602.2373Z"/><path d="M255.76172,225.30029v-8.67578h5.60449l-.00586,1.11572h-4.30859v2.63428h3.84668v1.104h-3.85254v2.68799l4.42188.00586v1.12793h-5.70605Z"/><path d="M602.65137,11.40234c-.42432,0-.83105-.05176-1.22119-.15625-.38965-.10352-.74365-.25879-1.06201-.46484-.31787-.20605-.58008-.46289-.78564-.77051-.20605-.30859-.33545-.66797-.38721-1.08008h1.33789c.06787.31152.20312.57422.40527.78613.20166.21191.45605.37207.76172.47949.30615.1084.64502.16211,1.01709.16211.34375,0,.66211-.05371.9541-.16211.29199-.10742.52783-.26367.70801-.46777.17969-.2041.27002-.4541.27002-.75,0-.33203-.11133-.59473-.33301-.78906-.22217-.19434-.55518-.34863-.99902-.46484l-1.74023-.43262c-.41992-.09961-.79004-.24219-1.10986-.42871-.31982-.18555-.56787-.43164-.74414-.73828-.17578-.30566-.26367-.68457-.26367-1.13672,0-.50391.13867-.94238.41699-1.31641.27783-.37402.65576-.66309,1.13379-.86719s1.01904-.30664,1.62305-.30664c.69189,0,1.2749.11816,1.74902.35449s.83398.54688,1.08008.93262c.24609.38672.37109.80762.375,1.26367h-1.30811c-.03613-.37207-.14502-.66699-.32715-.88574-.18213-.21777-.41211-.375-.68994-.4707s-.58496-.14355-.9209-.14355c-.59229,0-1.03711.13086-1.33496.39258s-.44727.57324-.44727.93262c0,.33203.10938.59473.32715.78613.21826.19238.54102.34082.96924.44434l1.67969.41406c.52832.11621.95117.28906,1.26904.51855.31787.23047.54688.5.68701.81055.14014.30957.20996.64844.20996,1.0166,0,.49219-.1377.92969-.41406,1.31152-.27588.38184-.66064.68164-1.15479.89941s-1.0708.32715-1.73096.32715Z"/><path d="M608.8252,13.2627c-.37988,0-.71582-.05664-1.00781-.16797v-.82812l.62988.01172c.23975.01172.43799-.00195.59375-.04199.15625-.04004.2793-.09473.36914-.16504s.1582-.14453.2041-.22461.08105-.1543.10498-.22266l.19189-.52148-2.41797-6.02441h1.28418l1.73975,4.58398,1.73389-4.58398h1.25439l-2.58594,6.55273c-.17627.43164-.36914.76562-.5791,1.00195-.20996.23535-.44092.39941-.69336.49121-.25195.09277-.52588.13867-.82178.13867Z"/><path d="M615.22119,11.28223v-6.2041h1.25391v.89453c.1001-.16797.23486-.32617.40479-.47461.16992-.14746.38037-.26758.63037-.35938s.53857-.13867.8667-.13867c.38818,0,.74707.07715,1.07715.23145s.59473.39453.79492.71973c.2002.32617.30029.74707.30029,1.26367v4.06738h-1.28418v-3.92969c0-.44434-.12012-.77441-.35986-.99023-.24023-.21582-.54639-.32422-.91797-.32422-.25244,0-.49219.04199-.72021.12598s-.41211.21191-.55225.38184c-.13965.16992-.20996.38281-.20996.63867v4.09766h-1.28369Z"/><path d="M625.34912,11.40234c-.56006,0-1.05811-.12305-1.49414-.36914s-.77783-.60742-1.02588-1.08594c-.24805-.47754-.37207-1.05859-.37207-1.74316,0-.64355.11523-1.20996.34521-1.69727.22998-.48828.56104-.86816.99316-1.14062.43164-.27148.94971-.4082,1.55371-.4082.46826,0,.88184.0918,1.24219.27344.35986.18164.65283.43457.87891.75879s.36279.70215.41113,1.13379h-1.11621c-.03223-.20312-.10791-.39355-.22803-.56934s-.27783-.31738-.47412-.42285c-.1958-.10645-.42969-.15918-.70166-.15918-.5,0-.90625.18164-1.21826.5459s-.46777.92188-.46777,1.67383c0,.68848.146,1.23633.43799,1.64453.29199.40723.71387.61133,1.26611.61133.27197,0,.50586-.05566.70166-.16797.19629-.11133.35303-.25586.47119-.43164.11768-.17578.19287-.3584.2251-.5459h1.0918c-.04785.41602-.18506.78223-.41113,1.09766-.22607.31641-.51904.5625-.87891.73828s-.77002.26367-1.22998.26367Z"/><path d="M635.47705,11.40234c-.81201,0-1.45264-.2793-1.92285-.83691s-.70508-1.36328-.70508-2.41504c0-.64355.09521-1.20508.28516-1.68262.18994-.47852.47119-.84961.84277-1.11328.37207-.26367.83643-.39648,1.39209-.39648.27637,0,.52393.03418.74414.10254.21973.06836.41211.15625.57617.26367.16357.1084.30176.22461.41406.34863.11182.12402.1958.23926.25195.34766v-3.6543h1.2959v8.91602h-.96631l-.14355-1.27148c-.04443.13574-.11133.28418-.20117.44336-.08984.16016-.21533.3125-.375.45605-.16016.14453-.36084.2627-.60303.35449s-.53711.1377-.88525.1377ZM635.72314,10.43652c.57617,0,.99219-.18066,1.24805-.54297s.38428-.95703.38428-1.78516c-.00439-.46777-.06104-.86426-.17139-1.1875-.10986-.32422-.28174-.56934-.51562-.73535-.23438-.16602-.54102-.24902-.92139-.24902-.47607,0-.86475.1709-1.16699.5127-.30176.3418-.45264.89551-.45264,1.65918,0,.75195.13672,1.32812.41064,1.72852.27393.39941.66943.59961,1.18506.59961Z"/><path d="M642.76123,11.40234c-.40039,0-.75537-.07227-1.06494-.21582-.31006-.14453-.55322-.35156-.729-.62402-.17627-.27246-.26416-.59961-.26416-.98438,0-.6875.24316-1.20117.729-1.54199.48584-.33984,1.26514-.51953,2.33691-.54004l1.02002-.0293v-.4502c0-.35645-.10596-.63574-.31787-.83984-.2124-.2041-.54004-.30469-.98389-.2998-.32812,0-.62207.0752-.88232.22754-.25977.15234-.42969.40234-.50977.75h-1.11035c.02441-.41211.14307-.75879.35742-1.04102.21387-.28223.50879-.49512.88477-.63867.37598-.14453.81592-.2168,1.31982-.2168.56836,0,1.03418.07715,1.39844.23145.36377.1543.63477.37891.81299.6748.17773.2959.2666.65625.2666,1.08008v4.33789h-1.0918l-.09619-1.13965c-.23193.47559-.52588.80469-.88184.9873-.35596.18164-.75391.27246-1.19385.27246ZM643.16309,10.50879c.1958,0,.39014-.03516.58203-.10547.19189-.06934.36621-.16602.52197-.28809s.28076-.25879.375-.41113c.09375-.15137.14307-.30762.14697-.46777v-1.01953l-.84619.01172c-.42383.00391-.78467.04785-1.08301.13184-.29785.08398-.52588.21387-.68359.38965-.1582.17676-.2373.41016-.2373.70215,0,.33203.11523.5918.34521.77734s.52295.2793.87891.2793Z"/><path d="M650.65088,11.32422c-.45996,0-.81592-.06152-1.06787-.18555s-.42822-.30273-.52832-.53711c-.09961-.23438-.1499-.5166-.1499-.84863v-3.75h-1.00781v-.9248h1.0498l.31201-1.82324h.93604v1.81738h1.39209v.93066h-1.39209l.00586,3.70117c0,.2041.02148.35352.06348.44727s.11377.1543.21582.17969c.10205.02637.24072.03906.41699.03906h.71973v.83398c-.07568.03223-.19287.06055-.35059.08398-.1582.02441-.36328.03613-.61523.03613Z"/><path d="M655.39697,11.40234c-.40039,0-.75537-.07227-1.06494-.21582-.31006-.14453-.55322-.35156-.729-.62402-.17627-.27246-.26416-.59961-.26416-.98438,0-.6875.24316-1.20117.729-1.54199.48584-.33984,1.26514-.51953,2.33691-.54004l1.02002-.0293v-.4502c0-.35645-.10596-.63574-.31787-.83984-.2124-.2041-.54004-.30469-.98389-.2998-.32812,0-.62207.0752-.88232.22754-.25977.15234-.42969.40234-.50977.75h-1.11035c.02441-.41211.14307-.75879.35742-1.04102.21387-.28223.50879-.49512.88477-.63867.37598-.14453.81592-.2168,1.31982-.2168.56836,0,1.03418.07715,1.39844.23145.36377.1543.63477.37891.81299.6748.17773.2959.2666.65625.2666,1.08008v4.33789h-1.0918l-.09619-1.13965c-.23193.47559-.52588.80469-.88184.9873-.35596.18164-.75391.27246-1.19385.27246ZM655.79883,10.50879c.1958,0,.39014-.03516.58203-.10547.19189-.06934.36621-.16602.52197-.28809s.28076-.25879.375-.41113c.09375-.15137.14307-.30762.14697-.46777v-1.01953l-.84619.01172c-.42383.00391-.78467.04785-1.08301.13184-.29785.08398-.52588.21387-.68359.38965-.1582.17676-.2373.41016-.2373.70215,0,.33203.11523.5918.34521.77734s.52295.2793.87891.2793Z"/><path d="M590.54102,226.60107v-8.67578h3.44385c.64404,0,1.17773.09863,1.60205.29688.42383.19775.73975.479.94775.84277.20801.36426.31201.79443.31201,1.29004,0,.46826-.07861.85791-.23682,1.16992s-.36182.56641-.61182.76221-.51318.3501-.78906.46191l1.67969,3.85205h-1.34961l-1.54199-3.62988h-2.17236v3.62988h-1.28369ZM591.82471,221.93311h1.81201c.604,0,1.07227-.13086,1.4043-.39307.33203-.26172.49805-.63672.49805-1.125,0-.47998-.15137-.84375-.45312-1.0918-.30225-.24805-.71094-.37207-1.22705-.37207h-2.03418v2.98193Z"/><path d="M601.77881,226.72119c-.58789,0-1.10596-.12695-1.5542-.38135-.44775-.25391-.79688-.6167-1.04688-1.08887-.25-.47168-.375-1.03369-.375-1.68604,0-.64404.11377-1.21289.3418-1.70703.22803-.49365.55811-.88086.99023-1.16064.43213-.28027.95166-.42041,1.56006-.42041.5957,0,1.09961.12842,1.51172.38428s.72412.61475.93604,1.07715c.21191.46191.31836,1.00684.31836,1.63477v.42627h-4.36816c-.00391.37158.05566.70459.17969.99854.12402.29443.30908.52637.55518.69629s.55322.25488.9209.25488c.37207,0,.69336-.08398.96338-.25195s.44482-.41797.5249-.75h1.19385c-.07178.42383-.24219.78418-.50977,1.08008-.26807.2959-.59033.51904-.96631.66895s-.76807.2251-1.17578.2251ZM600.09277,222.96484h3.14404c0-.32373-.05615-.61768-.16797-.88184-.1123-.26416-.2832-.47412-.51318-.62988-.22998-.15625-.51904-.23389-.86719-.23389-.35596,0-.65186.08594-.8877.25781-.23633.17188-.41309.39209-.53125.66016-.11768.26807-.17676.54395-.17676.82764Z"/><path d="M606.5249,226.60107v-6.2041h1.24805v.89404c.17578-.27197.41602-.50879.71973-.71094.3042-.20215.69629-.30322,1.17627-.30322.22363,0,.45068.03809.68066.11426s.44189.18896.63623.33887c.19385.1499.34668.33496.45898.55518.1958-.2959.45801-.53809.78613-.72607.32764-.18799.6958-.28223,1.104-.28223.21973,0,.44775.03516.68359.10498.23633.07031.45508.18848.65723.354.20215.1665.36621.39551.49219.68701.12598.29248.18896.66211.18896,1.11035v4.06787h-1.29004v-3.93018c0-.33984-.05713-.60596-.1709-.79785-.11426-.19189-.26221-.32715-.44434-.40479-.18213-.07812-.375-.11719-.5791-.11719-.18359,0-.37598.03613-.57568.10791-.2002.07227-.37012.19189-.51025.35986-.14014.16846-.20996.396-.20996.68408v4.09814h-1.28369v-4.20605c0-.22803-.06104-.41992-.18311-.57617-.12207-.15576-.27393-.27295-.45605-.35059-.18213-.07812-.36279-.11719-.54297-.11719-.2002,0-.3999.04004-.6001.12012s-.36719.20508-.50098.375c-.13428.16992-.20117.38916-.20117.65674v4.09814h-1.28369Z"/><path d="M620.14453,226.72119c-.58008,0-1.08594-.125-1.51807-.375s-.76807-.61328-1.00781-1.08936c-.24023-.47559-.36035-1.05176-.36035-1.72754,0-.65234.11426-1.22217.34229-1.71045.22803-.48779.55664-.8667.98682-1.13672s.95117-.40527,1.56299-.40527c.58398,0,1.08984.12842,1.51807.38428s.75977.62598.99609,1.10986c.23584.48389.354,1.07031.354,1.7583,0,.62793-.11035,1.18164-.33008,1.66162-.22021.47998-.54297.85498-.96924,1.125-.42578.27002-.95068.40527-1.57471.40527ZM620.15039,225.73096c.35596,0,.65186-.09277.88818-.27881.23584-.18604.41406-.44824.53369-.78613.12012-.33789.18018-.729.18018-1.17285,0-.41211-.05322-.78711-.15918-1.125s-.27588-.60693-.50977-.80713c-.23389-.19971-.54492-.2998-.93311-.2998-.35596,0-.65479.09082-.89697.27295s-.42285.43994-.54297.77393-.18018.729-.18018,1.18506c0,.40381.0542.77588.16211,1.11572.10791.34033.28125.6123.51904.81641.23779.20361.55078.30566.93896.30566Z"/><path d="M626.52832,226.60107l-2.26807-6.2041h1.18799l1.57227,4.57812h.08398l1.57178-4.57812h1.18799l-2.25586,6.2041h-1.08008Z"/><path d="M634.27441,226.72119c-.58789,0-1.10596-.12695-1.5542-.38135-.44775-.25391-.79688-.6167-1.04688-1.08887-.25-.47168-.375-1.03369-.375-1.68604,0-.64404.11377-1.21289.3418-1.70703.22803-.49365.55811-.88086.99023-1.16064.43213-.28027.95166-.42041,1.56006-.42041.5957,0,1.09961.12842,1.51172.38428s.72412.61475.93604,1.07715c.21191.46191.31836,1.00684.31836,1.63477v.42627h-4.36816c-.00391.37158.05566.70459.17969.99854.12402.29443.30908.52637.55518.69629s.55322.25488.9209.25488c.37207,0,.69336-.08398.96338-.25195s.44482-.41797.5249-.75h1.19385c-.07178.42383-.24219.78418-.50977,1.08008-.26807.2959-.59033.51904-.96631.66895s-.76807.2251-1.17578.2251ZM632.58838,222.96484h3.14404c0-.32373-.05615-.61768-.16797-.88184-.1123-.26416-.2832-.47412-.51318-.62988-.22998-.15625-.51904-.23389-.86719-.23389-.35596,0-.65186.08594-.8877.25781-.23633.17188-.41309.39209-.53125.66016-.11768.26807-.17676.54395-.17676.82764Z"/><path d="M644.56396,226.72119c-.81201,0-1.45264-.2793-1.92285-.83691-.47021-.55811-.70508-1.36328-.70508-2.41504,0-.64404.09521-1.20508.28516-1.68311s.47119-.84912.84277-1.11328c.37207-.26367.83643-.396,1.39209-.396.27637,0,.52393.03418.74414.10205.21973.06836.41211.15625.57617.26416.16357.10791.30176.22412.41406.34814.11182.12402.1958.23975.25195.34766v-3.65381h1.2959v8.91602h-.96631l-.14355-1.27197c-.04443.13623-.11133.28418-.20117.44385-.08984.16016-.21533.31201-.375.45605-.16016.14404-.36084.26221-.60303.354s-.53711.13818-.88525.13818ZM644.81006,225.75488c.57617,0,.99219-.18066,1.24805-.54297.25586-.36182.38428-.95703.38428-1.78467-.00439-.46826-.06104-.86426-.17139-1.18799-.10986-.32422-.28174-.56934-.51562-.73535-.23438-.16553-.54102-.24902-.92139-.24902-.47607,0-.86475.17139-1.16699.51318-.30176.3418-.45264.89502-.45264,1.65918,0,.75195.13672,1.32812.41064,1.72803s.66943.59961,1.18506.59961Z"/><path d="M651.84814,226.72119c-.40039,0-.75537-.07227-1.06494-.21631-.31006-.14404-.55322-.35156-.729-.62402-.17627-.27197-.26416-.59961-.26416-.98389,0-.68799.24316-1.20166.729-1.54199.48584-.33984,1.26514-.52002,2.33691-.54004l1.02002-.02979v-.4502c0-.35596-.10596-.63574-.31787-.83984-.2124-.2041-.54004-.3042-.98389-.2998-.32812,0-.62207.07568-.88232.22754-.25977.15234-.42969.40234-.50977.75h-1.11035c.02441-.41162.14307-.75879.35742-1.04102.21387-.28174.50879-.49463.88477-.63867s.81592-.21631,1.31982-.21631c.56836,0,1.03418.07715,1.39844.23145.36377.15381.63477.37891.81299.6748.17773.2959.2666.65625.2666,1.08008v4.33789h-1.0918l-.09619-1.14014c-.23193.47607-.52588.80518-.88184.9873-.35596.18164-.75391.27295-1.19385.27295ZM652.25,225.82715c.1958,0,.39014-.03516.58203-.10498s.36621-.16602.52197-.28809.28076-.25879.375-.41113c.09375-.15186.14307-.30762.14697-.46777v-1.02002l-.84619.01172c-.42383.00439-.78467.04834-1.08301.13232-.29785.08398-.52588.21387-.68359.38965-.1582.17627-.2373.41016-.2373.70215,0,.33203.11523.59131.34521.77686.22998.18604.52295.2793.87891.2793Z"/><path d="M659.73779,226.64307c-.45996,0-.81592-.06201-1.06787-.18604s-.42822-.30273-.52832-.53711c-.09961-.23389-.1499-.5166-.1499-.84863v-3.75h-1.00781v-.92432h1.0498l.31201-1.82373h.93604v1.81787h1.39209v.93018h-1.39209l.00586,3.70166c0,.2041.02148.35303.06348.44727.04199.09375.11377.15381.21582.17969.10205.02637.24072.03906.41699.03906h.71973v.83398c-.07568.03223-.19287.06006-.35059.08398-.1582.02393-.36328.03613-.61523.03613Z"/><path d="M664.48438,226.72119c-.40039,0-.75537-.07227-1.06494-.21631-.31006-.14404-.55322-.35156-.729-.62402-.17627-.27197-.26416-.59961-.26416-.98389,0-.68799.24316-1.20166.729-1.54199.48584-.33984,1.26514-.52002,2.33691-.54004l1.02002-.02979v-.4502c0-.35596-.10596-.63574-.31787-.83984-.2124-.2041-.54004-.3042-.98389-.2998-.32812,0-.62207.07568-.88232.22754-.25977.15234-.42969.40234-.50977.75h-1.11035c.02441-.41162.14307-.75879.35742-1.04102.21387-.28174.50879-.49463.88477-.63867s.81592-.21631,1.31982-.21631c.56836,0,1.03418.07715,1.39844.23145.36377.15381.63477.37891.81299.6748.17773.2959.2666.65625.2666,1.08008v4.33789h-1.0918l-.09619-1.14014c-.23193.47607-.52588.80518-.88184.9873-.35596.18164-.75391.27295-1.19385.27295ZM664.88623,225.82715c.1958,0,.39014-.03516.58203-.10498s.36621-.16602.52197-.28809.28076-.25879.375-.41113c.09375-.15186.14307-.30762.14697-.46777v-1.02002l-.84619.01172c-.42383.00439-.78467.04834-1.08301.13232-.29785.08398-.52588.21387-.68359.38965-.1582.17627-.2373.41016-.2373.70215,0,.33203.11523.59131.34521.77686.22998.18604.52295.2793.87891.2793Z"/><path d="M485.21387,107.729h-99.79541v-1.5h99.79541c6.45898,0,11.71338-5.25439,11.71338-11.71289v-61.4668c0-7.28613,5.92725-13.21338,13.21289-13.21338h246.21533c7.28564,0,13.21338,5.92725,13.21338,13.21338v29.18408h-1.5v-29.18408c0-6.45898-5.25439-11.71338-11.71338-11.71338h-246.21533c-6.4585,0-11.71289,5.25439-11.71289,11.71338v61.4668c0,7.28564-5.92773,13.21289-13.21338,13.21289Z" style="fill:#2d00fd;"/><path d="M756.35547,206.08447h-246.21533c-7.28564,0-13.21289-5.92725-13.21289-13.21289v-57.47949c0-6.45898-5.25439-11.71338-11.71338-11.71338h-99.08203v-1.5h99.08203c7.28564,0,13.21338,5.92773,13.21338,13.21338v57.47949c0,6.4585,5.25439,11.71289,11.71289,11.71289h246.21533c6.45898,0,11.71338-5.25439,11.71338-11.71289v-95.19629h1.5v95.19629c0,7.28564-5.92773,13.21289-13.21338,13.21289Z" style="fill:#2d00fd;"/><g style="filter:url(#drop-shadow-2);"><rect x="590.69964" y="64.44721" width="372.43803" height="101.28009" rx="8.24127" ry="8.24127" style="fill:#fff;"/><path d="M954.89648,166.22754h-355.95557c-4.81982,0-8.74121-3.92139-8.74121-8.7417v-84.79736c0-4.81982,3.92139-8.74121,8.74121-8.74121h355.95557c4.82031,0,8.74121,3.92139,8.74121,8.74121v84.79736c0,4.82031-3.9209,8.7417-8.74121,8.7417ZM598.94092,64.94727c-4.26855,0-7.74121,3.47266-7.74121,7.74121v84.79736c0,4.26855,3.47266,7.7417,7.74121,7.7417h355.95557c4.26855,0,7.74121-3.47314,7.74121-7.7417v-84.79736c0-4.26855-3.47266-7.74121-7.74121-7.74121h-355.95557Z"/></g><rect x="617.7072" y="87.24535" width="131.17468" height="53.52025" rx="9.10089" ry="9.10089" style="fill:#f7f6f3;"/><path d="M739.78076,141.26562h-112.97266c-5.29395,0-9.60107-4.30713-9.60107-9.60107v-35.31836c0-5.29395,4.30713-9.60107,9.60107-9.60107h112.97266c5.29395,0,9.60107,4.30713,9.60107,9.60107v35.31836c0,5.29395-4.30713,9.60107-9.60107,9.60107ZM626.80811,87.74512c-4.74268,0-8.60107,3.8584-8.60107,8.60107v35.31836c0,4.74268,3.8584,8.60107,8.60107,8.60107h112.97266c4.74268,0,8.60107-3.8584,8.60107-8.60107v-35.31836c0-4.74268-3.8584-8.60107-8.60107-8.60107h-112.97266Z"/><path d="M634.15625,118.97021l3.13184-8.67578h1.41602l3.12598,8.67578h-1.2959l-.81592-2.27393h-3.43799l-.82227,2.27393h-1.30176ZM636.59814,115.53223h2.78369l-1.3916-3.99023-1.39209,3.99023Z"/><path d="M643.97803,118.97021v-8.67578h3.00586c.62012,0,1.1748.10596,1.66504.31787.48975.21191.87598.52393,1.15771.93604.28223.41211.42334.91797.42334,1.51807,0,.57568-.12891,1.06689-.38721,1.47266-.25781.40625-.61768.71729-1.08008.93311-.46191.21582-.99707.32422-1.60498.32422h-1.87207v3.17383h-1.30762ZM645.27979,114.74023h1.84229c.55176,0,1.00195-.15918,1.34961-.47705.34814-.31787.52197-.74121.52197-1.26904,0-.53613-.17969-.94678-.53955-1.23291-.36035-.28613-.82031-.4292-1.38037-.4292h-1.79395v3.4082Z"/><path d="M652.27002,118.97021v-8.67578h3.00586c.62012,0,1.1748.10596,1.66504.31787.48975.21191.87598.52393,1.15771.93604.28223.41211.42334.91797.42334,1.51807,0,.57568-.12891,1.06689-.38721,1.47266-.25781.40625-.61768.71729-1.08008.93311-.46191.21582-.99707.32422-1.60498.32422h-1.87207v3.17383h-1.30762ZM653.57178,114.74023h1.84229c.55176,0,1.00195-.15918,1.34961-.47705.34814-.31787.52197-.74121.52197-1.26904,0-.53613-.17969-.94678-.53955-1.23291-.36035-.28613-.82031-.4292-1.38037-.4292h-1.79395v3.4082Z"/><path d="M660.10596,118.97021v-1.54785h1.48193v1.54785h-1.48193Z"/><path d="M666.23779,118.97021l-3.06592-8.67578h1.25391l2.56787,7.20557,2.56201-7.20557h1.26025l-3.06641,8.67578h-1.51172Z"/><path d="M672.77783,118.97021v-8.67578h1.28369v8.67578h-1.28369Z"/><path d="M676.20996,118.97021l3.13184-8.67578h1.41602l3.12598,8.67578h-1.2959l-.81592-2.27393h-3.43799l-.82227,2.27393h-1.30176ZM678.65186,115.53223h2.78369l-1.3916-3.99023-1.39209,3.99023Z"/><path d="M686.03174,118.97021v-8.67578h1.81201l2.44189,6.8999,2.47803-6.8999h1.7998v8.67578h-1.31396v-6.90576l-2.3999,6.90576h-1.12207l-2.38818-6.85205v6.85205h-1.30762Z"/><path d="M696.90381,118.97021v-1.54785h1.48193v1.54785h-1.48193Z"/><path d="M704.08545,119.09033c-.78369,0-1.45605-.18115-2.01611-.54297-.56006-.3623-.98877-.87793-1.28662-1.54834-.29834-.66992-.44727-1.47266-.44727-2.40869,0-.93213.14795-1.72705.44434-2.38525.2959-.65771.72363-1.16064,1.28369-1.50879s1.23389-.52197,2.02197-.52197c.62402,0,1.17822.12793,1.66211.38379.48389.25635.87305.6001,1.16699,1.03223.29395.43164.46875.91016.5249,1.43408h-1.36768c-.06006-.32812-.17529-.625-.34521-.89111s-.39502-.47607-.6748-.62988c-.28027-.1543-.6123-.23145-.99609-.23145-.49219,0-.91016.11621-1.25391.34814-.34424.23193-.60547.59424-.7832,1.08594-.17822.49219-.26709,1.12598-.26709,1.90234,0,1.17188.19824,2.02881.59424,2.5708s.96582.81299,1.70996.81299c.38379,0,.71582-.08301.99609-.24902.27979-.16602.50488-.3877.6748-.66602.16992-.27783.28516-.58105.34521-.90869h1.36768c-.04785.37988-.14795.74463-.2998,1.09473-.15234.3501-.36328.66309-.6333.93896s-.60498.49316-1.00488.65088c-.3999.1582-.87207.2373-1.41602.2373Z"/><path d="M713.12744,119.09033c-.78809,0-1.46875-.17529-2.04297-.5249-.57373-.3501-1.01611-.85596-1.32568-1.51807-.31006-.66211-.46533-1.46094-.46533-2.39697,0-.94434.15723-1.74902.47119-2.41504s.75781-1.17627,1.33203-1.53027c.57373-.354,1.25098-.53076,2.03076-.53076.77588,0,1.44922.17676,2.01904.53076.57031.354,1.01025.86426,1.32031,1.53027.30957.66602.46484,1.4707.46484,2.41504,0,.93604-.1543,1.73389-.46191,2.39404-.30811.65967-.74707,1.16602-1.31738,1.51758-.56982.35205-1.24463.52832-2.0249.52832ZM713.12744,117.99219c.50391,0,.93506-.11572,1.29297-.34814.35791-.23193.63086-.59375.81934-1.08594.18799-.4917.28174-1.12207.28174-1.88965,0-.78809-.09521-1.43213-.28467-1.93213-.19043-.5-.46436-.86914-.82227-1.10693-.35791-.23828-.78711-.35742-1.28711-.35742s-.93066.12012-1.29297.36035c-.36182.23975-.64111.60986-.83691,1.10986s-.29395,1.14209-.29395,1.92627c0,.77197.09814,1.40283.29395,1.89258.1958.49023.4751.85107.83691,1.08301.3623.23242.79297.34814,1.29297.34814Z"/><path d="M719.25342,118.97021v-8.67578h1.81201l2.44189,6.8999,2.47803-6.8999h1.7998v8.67578h-1.31396v-6.90576l-2.3999,6.90576h-1.12207l-2.38818-6.85205v6.85205h-1.30762Z"/><rect x="750.04199" y="112.4436" width="39.5" height="1.5" style="fill:#d000ff;"/><polygon points="755.90198 118.40234 755.90197 116.61608 751.32506 113.18903 755.90196 109.78525 755.90196 107.97592 748.92161 113.18901 755.90198 118.40234" style="fill:#d000ff;"/><rect x="790.49357" y="87.24535" width="148.25033" height="53.52025" rx="9.10089" ry="9.10089" style="fill:#f7f6f3;"/><path d="M929.64258,141.26562h-130.04834c-5.29395,0-9.60059-4.30713-9.60059-9.60107v-35.31836c0-5.29395,4.30664-9.60107,9.60059-9.60107h130.04834c5.29395,0,9.60156,4.30713,9.60156,9.60107v35.31836c0,5.29395-4.30762,9.60107-9.60156,9.60107ZM799.59424,87.74512c-4.74219,0-8.60059,3.8584-8.60059,8.60107v35.31836c0,4.74268,3.8584,8.60107,8.60059,8.60107h130.04834c4.74316,0,8.60156-3.8584,8.60156-8.60107v-35.31836c0-4.74268-3.8584-8.60107-8.60156-8.60107h-130.04834Z"/><path d="M813.84717,119.09033c-.78369,0-1.45605-.18115-2.01611-.54297-.56006-.3623-.98877-.87793-1.28662-1.54834-.29834-.66992-.44727-1.47266-.44727-2.40869,0-.93213.14795-1.72705.44434-2.38525.2959-.65771.72363-1.16064,1.28369-1.50879s1.23389-.52197,2.02197-.52197c.62402,0,1.17822.12793,1.66211.38379.48389.25635.87305.6001,1.16699,1.03223.29395.43164.46875.91016.5249,1.43408h-1.36768c-.06006-.32812-.17529-.625-.34521-.89111s-.39502-.47607-.6748-.62988c-.28027-.1543-.6123-.23145-.99609-.23145-.49219,0-.91016.11621-1.25391.34814-.34424.23193-.60547.59424-.7832,1.08594-.17822.49219-.26709,1.12598-.26709,1.90234,0,1.17188.19824,2.02881.59424,2.5708s.96582.81299,1.70996.81299c.38379,0,.71582-.08301.99609-.24902.27979-.16602.50488-.3877.6748-.66602.16992-.27783.28516-.58105.34521-.90869h1.36768c-.04785.37988-.14795.74463-.2998,1.09473-.15234.3501-.36328.66309-.6333.93896s-.60498.49316-1.00488.65088c-.3999.1582-.87207.2373-1.41602.2373Z"/><path d="M819.52344,118.97021l.00586-8.67578h1.30176v7.54785h4.0083v1.12793h-5.31592Z"/><path d="M830.41895,119.09033c-.78809,0-1.46875-.17529-2.04297-.5249-.57373-.3501-1.01611-.85596-1.32568-1.51807-.31006-.66211-.46533-1.46094-.46533-2.39697,0-.94434.15723-1.74902.47119-2.41504s.75781-1.17627,1.33203-1.53027c.57373-.354,1.25098-.53076,2.03076-.53076.77588,0,1.44922.17676,2.01904.53076.57031.354,1.01025.86426,1.32031,1.53027.30957.66602.46484,1.4707.46484,2.41504,0,.93604-.1543,1.73389-.46191,2.39404-.30811.65967-.74707,1.16602-1.31738,1.51758-.56982.35205-1.24463.52832-2.0249.52832ZM830.41895,117.99219c.50391,0,.93506-.11572,1.29297-.34814.35791-.23193.63086-.59375.81934-1.08594.18799-.4917.28174-1.12207.28174-1.88965,0-.78809-.09521-1.43213-.28467-1.93213-.19043-.5-.46436-.86914-.82227-1.10693-.35791-.23828-.78711-.35742-1.28711-.35742s-.93066.12012-1.29297.36035c-.36182.23975-.64111.60986-.83691,1.10986s-.29395,1.14209-.29395,1.92627c0,.77197.09814,1.40283.29395,1.89258.1958.49023.4751.85107.83691,1.08301.3623.23242.79297.34814,1.29297.34814Z"/><path d="M839.79736,119.09033c-.78027,0-1.4082-.12793-1.88428-.38428-.47607-.25586-.82275-.62988-1.04102-1.12207-.21777-.4917-.32666-1.0918-.32666-1.7998v-5.48975h1.32568v5.65186c0,.68799.16895,1.19922.50732,1.53271.33789.33447.81055.50098,1.41895.50098.40381,0,.75293-.07275,1.04688-.21875s.51904-.37012.6748-.67188c.15625-.30225.23438-.68311.23438-1.14307v-5.65186h1.30176v5.5918c0,.67578-.11182,1.25293-.33594,1.73096s-.5752.84326-1.05273,1.09521c-.47803.25195-1.10107.37793-1.86914.37793Z"/><path d="M845.62891,118.97021v-8.67578c.03174,0,.12695.00098.28467.00293.1582.00195.34912.00195.57324,0s.45312-.00195.68701,0,.44287.00488.62695.00879c1.06006.02002,1.92188.19824,2.58594.53418s1.15088.81787,1.46094,1.4458.46533,1.39404.46533,2.29785c0,.94043-.16602,1.7373-.49805,2.39111-.33203.6543-.83936,1.15039-1.521,1.48828-.68213.33789-1.54541.50684-2.58936.50684h-2.07568ZM846.93652,117.89014h.78027c.65576,0,1.22705-.10693,1.71289-.3208s.86328-.56201,1.13086-1.04395c.26807-.48193.40234-1.12695.40234-1.93506,0-.79199-.12842-1.42285-.38428-1.89307s-.62305-.80811-1.10107-1.01416-1.05273-.30908-1.72461-.30908h-.81641v6.51611Z"/><path d="M861.11475,119.09033c-.42432,0-.83105-.05225-1.22119-.15625-.38965-.104-.74365-.25879-1.06201-.46484-.31787-.20605-.58008-.46289-.78564-.771-.20605-.30811-.33545-.66797-.38721-1.08008h1.33789c.06787.31201.20312.57422.40527.78613.20166.21191.45605.37207.76172.47998.30615.10791.64502.16211,1.01709.16211.34375,0,.66211-.0542.9541-.16211s.52783-.26416.70801-.46826c.17969-.20361.27002-.45361.27002-.75,0-.33154-.11133-.59473-.33301-.78857-.22217-.19434-.55518-.34912-.99902-.46533l-1.74023-.43213c-.41992-.09961-.79004-.24268-1.10986-.42871s-.56787-.43213-.74414-.73828c-.17578-.30566-.26367-.68457-.26367-1.13672,0-.50391.13867-.94287.41699-1.31689.27783-.37402.65576-.66309,1.13379-.86719s1.01904-.30615,1.62305-.30615c.69189,0,1.2749.11816,1.74902.354.47412.23633.83398.54736,1.08008.93311.24609.38623.37109.80713.375,1.26318h-1.30811c-.03613-.37207-.14502-.66699-.32715-.88525-.18213-.21777-.41211-.375-.68994-.4707-.27783-.09619-.58496-.14404-.9209-.14404-.59229,0-1.03711.13086-1.33496.39307-.29785.26172-.44727.57275-.44727.93262,0,.33203.10938.59424.32715.78613.21826.19189.54102.34033.96924.44385l1.67969.41406c.52832.11621.95117.28906,1.26904.51904s.54688.5.68701.81006.20996.64893.20996,1.01709c0,.49219-.1377.9292-.41406,1.31104-.27588.38184-.66064.68213-1.15479.8999s-1.0708.32715-1.73096.32715Z"/><path d="M868.7168,118.97021v-7.50586h-2.74805v-1.16992h6.66602v1.16992h-2.62207v7.50586h-1.2959Z"/><path d="M877.9624,119.09033c-.78809,0-1.46875-.17529-2.04297-.5249-.57373-.3501-1.01611-.85596-1.32568-1.51807-.31006-.66211-.46533-1.46094-.46533-2.39697,0-.94434.15723-1.74902.47119-2.41504s.75781-1.17627,1.33203-1.53027c.57373-.354,1.25098-.53076,2.03076-.53076.77588,0,1.44922.17676,2.01904.53076.57031.354,1.01025.86426,1.32031,1.53027.30957.66602.46484,1.4707.46484,2.41504,0,.93604-.1543,1.73389-.46191,2.39404-.30811.65967-.74707,1.16602-1.31738,1.51758-.56982.35205-1.24463.52832-2.0249.52832ZM877.9624,117.99219c.50391,0,.93506-.11572,1.29297-.34814.35791-.23193.63086-.59375.81934-1.08594.18799-.4917.28174-1.12207.28174-1.88965,0-.78809-.09521-1.43213-.28467-1.93213-.19043-.5-.46436-.86914-.82227-1.10693-.35791-.23828-.78711-.35742-1.28711-.35742s-.93066.12012-1.29297.36035c-.36182.23975-.64111.60986-.83691,1.10986s-.29395,1.14209-.29395,1.92627c0,.77197.09814,1.40283.29395,1.89258.1958.49023.4751.85107.83691,1.08301.3623.23242.79297.34814,1.29297.34814Z"/><path d="M884.08838,118.97021v-8.67578h3.44385c.64404,0,1.17773.09863,1.60205.29688.42383.19775.73975.479.94775.84277.20801.36426.31201.79443.31201,1.29004,0,.46826-.07861.85791-.23682,1.16992s-.36182.56641-.61182.76221-.51318.3501-.78906.46191l1.67969,3.85205h-1.34961l-1.54199-3.62988h-2.17236v3.62988h-1.28369ZM885.37207,114.30225h1.81201c.604,0,1.07227-.13086,1.4043-.39307.33203-.26172.49805-.63672.49805-1.125,0-.47998-.15137-.84375-.45312-1.0918-.30225-.24805-.71094-.37207-1.22705-.37207h-2.03418v2.98193Z"/><path d="M892.21826,118.97021l3.13184-8.67578h1.41602l3.12598,8.67578h-1.2959l-.81592-2.27393h-3.43799l-.82227,2.27393h-1.30176ZM894.66016,115.53223h2.78369l-1.3916-3.99023-1.39209,3.99023Z"/><path d="M905.31641,119.09033c-.77197,0-1.43799-.17627-1.99805-.52832-.56006-.35156-.99121-.85889-1.29297-1.521-.30225-.66162-.45312-1.45654-.45312-2.38477,0-.93604.15527-1.73877.46533-2.40918.30957-.66992.75049-1.18262,1.32275-1.53906.57178-.35596,1.24414-.53369,2.01611-.53369.45996,0,.88672.07812,1.28076.23389.39404.15625.74219.36816,1.04395.63623.30225.26758.54102.57178.71729.91162.17578.34033.27588.69629.2998,1.06836h-1.36768c-.05615-.30811-.17529-.59326-.35742-.85498-.18164-.26221-.41309-.47314-.69287-.6333-.27979-.15967-.59619-.23975-.94775-.23975-.46826,0-.88232.11572-1.24219.34766-.35986.23242-.64111.59424-.84277,1.08594-.20215.49219-.30322,1.12451-.30322,1.896,0,.60449.06299,1.11816.18896,1.54248.12598.42383.29883.76562.51904,1.02588.21973.25977.47803.44873.77393.56689s.6123.17676.94824.17676c.33203,0,.62402-.05762.87598-.17383.25195-.11572.46289-.26611.63281-.44971.16992-.18408.30225-.3833.396-.59717.09424-.21387.14697-.4209.15918-.62109l.04785-.70215h-2.02783v-.92383l3.36572.01221v4.48779h-.92969v-1.27197c-.15234.23584-.34229.45996-.57031.67188-.22803.2124-.50781.38525-.83984.51904s-.72803.20117-1.18799.20117Z"/><path d="M911.52002,118.97021v-8.67578h5.604l-.00635,1.11572h-4.30762v2.63428h3.8457v1.104h-3.85205v2.68799l4.42236.00586v1.12793h-5.70605Z"/><path d="M933.08867,159.53483c.75049,0,1.48122.07745,2.19663.19948,1.41451-5.64859,6.50984-9.83794,12.59725-9.83793,3.23812,0,6.19364,1.19171,8.46981,3.15095,2.24702-3.8892,6.44018-6.51309,11.25487-6.51308,7.1798.00001,13.00042,5.82055,13.00042,13.00064,0,.17527-.01927.3456-.02619.51927,1.14821-.33177,2.35769-.51927,3.61263-.51926,7.1798.00001,13.00042,5.82055,13.00042,13.00052,0,7.18009-5.82061,13.00061-13.00041,13.0006l-51.10543-.00008c-7.18029-.00001-13.00042-5.82055-13.00042-13.00064,0-7.17997,5.82012-13.00049,13.00041-13.00048Z" style="fill:#fff;"/><path d="M984.19434,186.03613h-51.10547c-7.44434,0-13.50049-6.05664-13.50049-13.50098s6.05615-13.50049,13.50049-13.50049c.58496,0,1.1875.04492,1.83008.13623,1.6543-5.77832,6.9209-9.77441,12.96387-9.77441,3.02539,0,5.96484,1.02539,8.3418,2.89795,2.47168-3.87598,6.7793-6.26025,11.38281-6.26025,7.39941,0,13.42676,5.98291,13.49902,13.36523,1.02344-.24219,2.05859-.36475,3.08789-.36475,7.44434.00049,13.5,6.05713,13.5,13.50098,0,7.44434-6.05566,13.50049-13.5,13.50049ZM933.08887,160.03467c-6.89258,0-12.50049,5.60791-12.50049,12.50049,0,6.89307,5.60791,12.50098,12.50049,12.50098h51.10547c6.89258,0,12.5-5.60791,12.5-12.50049s-5.60742-12.50049-12.5-12.50098c-1.1582,0-2.32715.16797-3.47461.5l-.66992.19336.04395-.89844c.00684-.09766.01367-.19531.01367-.29492,0-6.89258-5.60742-12.50049-12.5-12.50049-4.44336,0-8.58984,2.3999-10.82227,6.26318l-.30176.52246-.45703-.39355c-2.26953-1.95361-5.16211-3.02979-8.14355-3.02979-5.73633,0-10.71777,3.88965-12.1123,9.45947l-.11328.44922-.45605-.07812c-.75879-.12939-1.4502-.19238-2.1123-.19238Z"/><path d="M584.95286,51.34683c1.46047,0,2.85148.29348,4.12217.81896,2.00276-4.23068,6.29833-7.16421,11.29004-7.16421,5.57978,0,10.30241,3.6582,11.90862,8.70589.28259-.02491.56724-.04327.85635-.04327,5.32389-.00004,9.63949,4.31568,9.63917,9.63944-.00032,5.32373-4.31639,9.63952-9.64044,9.63956-.01033,0-.02034-.00151-.03067-.00155h-28.14524c-5.96329,0-10.7975-4.83417-10.7975-10.79741s4.83421-10.79741,10.7975-10.79741Z" style="fill:#fff;"/><path d="M613.12891,73.44336l-28.17627-.00146c-6.22949,0-11.29736-5.06836-11.29736-11.29785s5.06787-11.29736,11.29736-11.29736c1.33105,0,2.6333.23096,3.87793.6875,2.22217-4.2876,6.69922-7.03271,11.53467-7.03271,5.55176,0,10.4292,3.4707,12.25928,8.67822,2.84033-.16357,5.64014.91895,7.67529,2.9541,1.91504,1.91553,2.96973,4.46143,2.96924,7.16992,0,5.59082-4.54883,10.13965-10.14014,10.13965ZM584.95264,51.84668c-5.67822,0-10.29736,4.61914-10.29736,10.29736s4.61914,10.29785,10.29736,10.29785h28.14844c5.06934,0,9.16797-4.09912,9.16797-9.13818,0-2.44141-.9502-4.73633-2.67627-6.46289-1.72607-1.72607-4.02148-2.67676-6.46289-2.67676-.27441,0-.54443.01807-.81201.0415l-.39893.03516-.12158-.38135c-1.59082-4.99902-6.18506-8.35791-11.43213-8.35791-4.60645,0-8.86035,2.7002-10.83789,6.87842l-.20361.43018-.43994-.18213c-1.25293-.51855-2.57568-.78125-3.93115-.78125Z"/><polygon points="783.55531 118.40234 783.55531 116.61608 788.13223 113.18903 783.55532 109.78525 783.55533 107.97592 790.53567 113.18901 783.55531 118.40234" style="fill:#d000ff;"/></svg>