<?xml version="1.0" standalone="no"?>
<!DOCTYPE svg PUBLIC "-//W3C//DTD SVG 20010904//EN"
 "http://www.w3.org/TR/2001/REC-SVG-20010904/DTD/svg10.dtd">
<svg version="1.0" xmlns="http://www.w3.org/2000/svg"
 width="700.000000pt" height="700.000000pt" viewBox="0 0 700.000000 700.000000"
 preserveAspectRatio="xMidYMid meet">
<metadata>
Created by potrace 1.14, written by Peter Selinger 2001-2017
</metadata>
<g transform="translate(0.000000,700.000000) scale(0.100000,-0.100000)"
fill="#000000" stroke="none">
<path d="M776 5088 c347 -479 1617 -2176 2343 -3128 323 -424 371 -485 381
-485 11 0 125 147 541 695 795 1047 1843 2448 2183 2918 l38 52 -684 0 -683
-1 -375 -502 c-635 -849 -1002 -1327 -1020 -1327 -17 0 -326 407 -1069 1408
l-314 422 -689 0 -690 0 38 -52z"/>
</g>
</svg>
