<?xml version="1.0" encoding="UTF-8"?><svg id="Layer_1" xmlns="http://www.w3.org/2000/svg" viewBox="0 0 350 350"><path d="m253.69097,117.37673c-.75821-26.49082-22.54922-47.81376-49.22343-47.81376-14.15964,0-27.43789,6.00546-36.79645,16.55471-7.31933-4.07846-15.52004-6.21896-23.86308-6.21896-22.6806,0-42.58567,15.76639-47.86577,37.68605-18.15598,8.83027-29.8138,27.34483-29.8138,47.56741,0,23.30469,14.93975,43.60939,37.17692,50.52908,0,0,1.2362.42358,2.38275.6713-.39758-2.00844-.63504-4.16263-.71852-6.02531-19.87769-6.18064-33.23533-24.33936-33.23533-45.17508,0-18.49813,10.91056-35.39773,27.79921-43.06195l1.29197-.58577.29288-1.39051c4.22079-20.05287,22.17422-34.60941,42.68968-34.60941,8.10217,0,16.0538,2.28284,22.99539,6.60765l2.10766,1.30839,1.55748-1.93248c8.34305-10.36859,20.73444-16.31931,33.99901-16.31931,24.06016,0,43.63676,19.5766,43.6176,44.0145v1.83941l1.68613.73357c17.31018,7.51093,28.49446,24.54739,28.49446,43.39041,0,20.11309-12.74997,38.06926-31.72985,44.68785-.08349,1.86268-.32094,4.01687-.71852,6.02531,1.14655-.24772,2.56341-.737,2.56341-.737,21.22714-7.39597,35.49079-27.48169,35.49079-49.97616,0-20.45798-11.78647-39.01086-30.18059-47.76996Z"/><path d="m218.44652,163.50436c19.08664,19.66419,22.52732,49.81193,8.36768,73.31918-16.4459,27.28529-51.15864,36.88541-79.13508,22.68471l10.65292-1.94206,2.89256-5.95208-26.28244,4.82093,12.27609,24.002,2.94901-6.06842-5.25409-10.08255c9.55495,4.89894,19.79421,7.40418,29.97324,7.40418,22.43152,0,44.33475-11.40326,56.72888-31.9762,15.47077-25.6806,11.70983-58.62578-9.14505-80.11843l-4.02371,3.90875Z"/><path d="m123.18579,174.3985c16.63272-27.6035,51.95449-37.09891,80.10645-22.16464l-12.5416.49133-3.78284,5.46623,26.69508-1.24886-8.72934-24.70888-3.70996,5.36016,3.14164,8.86312c-30.481-15.1382-68.10853-4.61222-85.98053,25.05104-15.32569,25.43972-11.73446,58.20972,8.73173,79.68595l4.05656-3.86495c-18.72806-19.65871-22.01272-49.6477-7.98721-72.93049Z"/><path d="m120.48382,218.05715h108.2745l.00103-.00479.00137.00479c.25593-.93065.82117-3.427,1.03091-5.60583h-110.33836c.20974,2.17883.77463,4.67517,1.03056,5.60583Z"/></svg>