<?xml version="1.0" encoding="UTF-8"?><svg id="Layer_1" xmlns="http://www.w3.org/2000/svg" viewBox="0 0 350 350"><path d="m75.15533,238.38517h152.39039v-77.46426H75.15533v77.46426Zm4.98858-4.98858v-21.71969l13.48475-22.06679c.69178-1.13023,1.79277-1.25202,2.23609-1.25202h.00487c.43845,0,1.53944.12179,2.23122,1.25202l9.70435,15.87674c1.39817,2.27994,3.82425,3.644,6.49879,3.644h.00487c2.66967-.00487,5.09576-1.36406,6.48418-3.644l9.70435-15.87674c.69178-1.13023,1.79277-1.25202,2.23609-1.25202s1.54432.12179,2.23609,1.25202l9.70435,15.87187c1.39329,2.28481,3.81938,3.64887,6.49392,3.64887s5.10063-1.36406,6.49392-3.644l9.70435-15.87674c.69178-1.13023,1.79277-1.25202,2.23609-1.25202s1.54432.12179,2.23609,1.25202l9.70435,15.87187c1.38842,2.28481,3.81451,3.64887,6.48905,3.64887h.00487c2.66967,0,5.10063-1.35919,6.49392-3.644l9.70435-15.87674c.69178-1.13023,1.79277-1.25202,2.23122-1.25202h.00487c.44332,0,1.54432.12179,2.23609,1.25689l13.85013,22.65992v21.12169H80.14391Zm142.41323-67.4871v36.79808l-9.5923-15.69405c-1.39329-2.28481-3.82425-3.644-6.49392-3.644h-.00487c-2.67454,0-5.10063,1.36406-6.48905,3.644l-9.70435,15.87187c-.69178,1.1351-1.79277,1.25689-2.23609,1.25689h-.00487c-.43845,0-1.53944-.12179-2.23122-1.25689l-9.70435-15.87674c-1.39329-2.27994-3.81938-3.63913-6.49392-3.63913s-5.10063,1.35919-6.49392,3.63913l-9.70435,15.88161c-.69178,1.13023-1.79277,1.25202-2.23609,1.25202s-1.54432-.12179-2.23609-1.25689l-9.70435-15.87674c-1.39329-2.27994-3.81938-3.63913-6.49392-3.63913s-5.10063,1.35919-6.49392,3.63913l-9.70435,15.88161c-.69178,1.13023-1.7879,1.25202-2.23122,1.25202s-1.54919-.12179-2.24096-1.25689l-9.70435-15.87674c-1.39329-2.27994-3.81451-3.63913-6.48905-3.63913h-.00487c-2.66967,0-5.09576,1.35919-6.49392,3.63913l-9.22692,15.0991v-36.19826h142.41323Z"/><path d="m75.15533,152.93625h152.39039v-77.46426H75.15533v77.46426Zm4.98858-4.98858v-13.39463l.00487.00244,16.68544-30.25788c2.30917-4.18476,8.98821-4.17501,11.29738,0l8.85181,16.05699c2.04123,3.70733,5.78266,5.9142,10.01613,5.9142,4.2286,0,7.97004-2.20686,10.01126-5.9142l8.85181-16.05699c2.3043-4.17501,8.98334-4.18476,11.29738,0l8.85181,16.05699c2.04123,3.70733,5.78266,5.9142,10.01126,5.9142,4.23347,0,7.97491-2.20686,10.01613-5.9142l8.85181-16.05699c2.30917-4.18476,8.98821-4.17501,11.29738,0l16.36878,29.69277v13.95731H80.14391Zm142.41323-67.4871v43.20493l-12.00377-21.77449c-2.04123-3.70733-5.78266-5.91907-10.01613-5.91907-4.2286,0-7.97004,2.21173-10.01126,5.91907l-8.85181,16.05699c-2.30917,4.17501-8.98821,4.17988-11.29738,0l-8.85181-16.05699c-2.04123-3.70733-5.78266-5.91907-10.01126-5.91907-4.23347,0-7.97491,2.21173-10.01613,5.91907l-8.85181,16.05699c-2.31404,4.17988-8.99308,4.17501-11.29738,0l-8.85181-16.05699c-2.04123-3.70733-5.78266-5.91907-10.01613-5.91907-4.2286,0-7.97004,2.21173-10.01126,5.91907l-12.3253,22.35118v-43.78161h142.41323Z"/><path d="m88.53291,248.31848c-7.22467,0-13.09989,5.88009-13.09989,13.10477s5.87522,13.10477,13.09989,13.10477,13.10477-5.88009,13.10477-13.10477-5.88009-13.10477-13.10477-13.10477Zm0,21.22095c-4.47218,0-8.11131-3.63913-8.11131-8.11619s3.63913-8.11619,8.11131-8.11619c4.47706,0,8.11619,3.63913,8.11619,8.11619s-3.63913,8.11619-8.11619,8.11619Z"/><path d="m126.62929,248.32335c-7.22467,0-13.10477,5.87522-13.10477,13.09989s5.88009,13.10477,13.10477,13.10477,13.10477-5.88009,13.10477-13.10477-5.88009-13.09989-13.10477-13.09989Z"/><path d="m213.00382,248.32335c-7.22467,0-13.09989,5.87522-13.09989,13.09989s5.87522,13.10477,13.09989,13.10477,13.10477-5.88009,13.10477-13.10477-5.88009-13.09989-13.10477-13.09989Zm0,21.21608c-4.47218,0-8.11131-3.63913-8.11131-8.11619,0-4.47218,3.63913-8.11131,8.11131-8.11131,4.47706,0,8.11619,3.63913,8.11619,8.11131,0,4.47706-3.63913,8.11619-8.11619,8.11619Z"/><path d="m238.99412,75.52558v198.94398h35.85055V75.52558h-35.85055Zm30.86197,4.98858v49.01864h-25.87339v-49.01864h25.87339Zm-25.87339,132.59684v-16.87056h25.87339v16.87056h-25.87339Zm25.87339,4.98858v18.15668h-25.87339v-18.15668h25.87339Zm-25.87339-26.84772v-56.73048h25.87339v56.73048h-25.87339Zm0,78.22912v-28.23614h25.87339v28.23614h-25.87339Z"/></svg>