<svg xmlns="http://www.w3.org/2000/svg" xmlns:xlink="http://www.w3.org/1999/xlink" width="586" height="155.717" viewBox="0 0 586 155.717"><defs><style>.a{fill:none;}.b{clip-path:url(#a);}.c{opacity:0.9;}.d{clip-path:url(#b);}.e{fill:#fff;}</style><clipPath id="a"><path class="a" d="M0,0H586V-155.717H0Z"/></clipPath><clipPath id="b"><rect class="a" width="620" height="169.717" transform="translate(-17 -168.717)"/></clipPath></defs><g transform="translate(0 155.717)"><g class="b"><g class="c"><g class="d"><path class="e" d="M179.076-40.7H213.29V-155.717H179.076Z"/><g transform="translate(585.636 -155.717)"><path class="e" d="M0,0H-45.25L-93,58.381-140.377,0h-45.614V115.016h34.208V42.023L-93,115.016l59.152-73.157v73.157H.364V0Z"/></g><g transform="translate(85.898 -97.788)"><path class="e" d="M0,0-43.259-57.929H-85.9L0,57.087,85.9-57.929H43.259Z"/></g><g transform="translate(220.569 -40.701)"><path class="e" d="M0,0H42.64L85.9-57.929,129.157,0H171.8L85.9-115.016Z"/></g><g transform="translate(124.404 -12.972)"><path class="e" d="M0,0A5.3,5.3,0,0,1-.563,2.426,6.24,6.24,0,0,1-2.1,4.365,6.7,6.7,0,0,1-4.3,5.608l5.372,7.128-3.538-.025L-7.547,5.949h-6.29v6.762h-2.829V-5.633H-5.949a6.041,6.041,0,0,1,2.975.745A5.959,5.959,0,0,1-.812-2.869,5.214,5.214,0,0,1,0,0M-6.735-2.909h-7.1V3.225h7.1a3.881,3.881,0,0,0,1.861-.447A3.743,3.743,0,0,0-3.525,1.6,2.735,2.735,0,0,0-3.013,0a2.33,2.33,0,0,0-.512-1.467A3.623,3.623,0,0,0-4.874-2.513a4.288,4.288,0,0,0-1.861-.4"/></g><g transform="translate(183.685 -9.435)"><path class="e" d="M0,0A8.547,8.547,0,0,1-.813,3.708a9,9,0,0,1-2.306,3,11,11,0,0,1-3.512,2,13.175,13.175,0,0,1-4.455.719,13.293,13.293,0,0,1-4.468-.719,10.838,10.838,0,0,1-3.512-2,9.053,9.053,0,0,1-2.292-3A8.547,8.547,0,0,1-22.171,0a8.566,8.566,0,0,1,.813-3.708,9.072,9.072,0,0,1,2.292-3,10.838,10.838,0,0,1,3.512-2.005,13.293,13.293,0,0,1,4.468-.719,13.175,13.175,0,0,1,4.455.719A11,11,0,0,1-3.119-6.708a9.023,9.023,0,0,1,2.306,3A8.566,8.566,0,0,1,0,0M-2.883,0A5.846,5.846,0,0,0-3.931-3.418,7.2,7.2,0,0,0-6.827-5.8a9.818,9.818,0,0,0-4.259-.878,9.887,9.887,0,0,0-4.285.878,7.1,7.1,0,0,0-2.882,2.386A5.886,5.886,0,0,0-19.288,0a5.889,5.889,0,0,0,1.035,3.421,7.105,7.105,0,0,0,2.882,2.385,9.872,9.872,0,0,0,4.285.876,9.8,9.8,0,0,0,4.259-.876,7.145,7.145,0,0,0,2.9-2.4A5.858,5.858,0,0,0-2.883,0"/></g><g transform="translate(231.264 -18.605)"><path class="e" d="M0,0A9.389,9.389,0,0,1,5.215,1.18,3.874,3.874,0,0,1,6.971,4.612,3.65,3.65,0,0,1,6.25,6.827a4.483,4.483,0,0,1-2.137,1.5A7.243,7.243,0,0,1,6,9.224a4.507,4.507,0,0,1,1.4,1.493,4.353,4.353,0,0,1,.538,2.23A4.981,4.981,0,0,1,7.3,15.591a4.661,4.661,0,0,1-1.7,1.653,7.669,7.669,0,0,1-2.346.849,13.3,13.3,0,0,1-2.568.251H-10.011V0ZM.209,2.724h-7.39V7.441h7.7a5.856,5.856,0,0,0,1.756-.3,3,3,0,0,0,1.3-.813,1.859,1.859,0,0,0,.485-1.3A1.82,1.82,0,0,0,2.947,3.25,6.394,6.394,0,0,0,.209,2.724m.445,7.47H-7.181V15.62H.786a6.293,6.293,0,0,0,3.066-.669,2.2,2.2,0,0,0,1.205-2.058,2.008,2.008,0,0,0-.681-1.624,4.113,4.113,0,0,0-1.69-.827,8.5,8.5,0,0,0-2.032-.248"/></g><g transform="translate(297.601 -9.435)"><path class="e" d="M0,0A8.575,8.575,0,0,1-.813,3.708a9.029,9.029,0,0,1-2.306,3,11.009,11.009,0,0,1-3.512,2,13.175,13.175,0,0,1-4.455.719,13.293,13.293,0,0,1-4.468-.719,10.838,10.838,0,0,1-3.512-2,9.053,9.053,0,0,1-2.292-3A8.547,8.547,0,0,1-22.171,0a8.566,8.566,0,0,1,.813-3.708,9.072,9.072,0,0,1,2.292-3,10.838,10.838,0,0,1,3.512-2.005,13.293,13.293,0,0,1,4.468-.719,13.175,13.175,0,0,1,4.455.719A11.009,11.009,0,0,1-3.119-6.708a9.049,9.049,0,0,1,2.306,3A8.594,8.594,0,0,1,0,0M-2.883,0A5.846,5.846,0,0,0-3.931-3.418,7.2,7.2,0,0,0-6.827-5.8a9.821,9.821,0,0,0-4.259-.878,9.887,9.887,0,0,0-4.285.878,7.1,7.1,0,0,0-2.882,2.386A5.886,5.886,0,0,0-19.288,0a5.889,5.889,0,0,0,1.035,3.421,7.105,7.105,0,0,0,2.882,2.385,9.872,9.872,0,0,0,4.285.876,9.807,9.807,0,0,0,4.259-.876,7.145,7.145,0,0,0,2.9-2.4A5.858,5.858,0,0,0-2.883,0"/></g><g transform="translate(339.268 -0.262)"><path class="e" d="M0,0V-15.62H-6.972v-2.724H9.958v2.724H2.829V0Z"/></g><path class="e" d="M388.78-.262h-2.832V-18.606h2.832Z"/><g transform="translate(445.483 -2.986)"><path class="e" d="M0,0A14.147,14.147,0,0,1-1.993,1.308,14.154,14.154,0,0,1-4.874,2.5a12.106,12.106,0,0,1-3.46.484,12.583,12.583,0,0,1-4.155-.668,10.322,10.322,0,0,1-3.367-1.9,8.679,8.679,0,0,1-2.255-2.974,9.133,9.133,0,0,1-.813-3.893,8.331,8.331,0,0,1,.839-3.72,9.176,9.176,0,0,1,2.321-2.962,10.957,10.957,0,0,1,3.392-1.951,11.726,11.726,0,0,1,4.038-.694,12.878,12.878,0,0,1,3.406.444,14.262,14.262,0,0,1,2.949,1.154,9.508,9.508,0,0,1,2.11,1.467l-1.678,2.383a13.7,13.7,0,0,0-3.145-1.911A9.633,9.633,0,0,0-8.6-13a8.313,8.313,0,0,0-2.727.461,7.9,7.9,0,0,0-2.4,1.308,6.441,6.441,0,0,0-1.692,2.059,5.817,5.817,0,0,0-.628,2.724,6.129,6.129,0,0,0,.656,2.9,6.251,6.251,0,0,0,1.769,2.1A7.687,7.687,0,0,0-11.073-.184,10.446,10.446,0,0,0-8.127.233a8.95,8.95,0,0,0,2.807-.4,10.345,10.345,0,0,0,2.2-1.009c.645-.4,1.231-.8,1.754-1.18Z"/></g><g transform="translate(483.481 -5.923)"><path class="e" d="M0,0A12.516,12.516,0,0,0,3.29,2.491a8.951,8.951,0,0,0,4.126.89,10.334,10.334,0,0,0,2.622-.327,5.351,5.351,0,0,0,2.07-.995A2.1,2.1,0,0,0,12.921.367,1.5,1.5,0,0,0,12.2-.981a5.869,5.869,0,0,0-2.07-.708Q8.78-1.936,6.842-2.175a19.56,19.56,0,0,1-4.089-.942A6.366,6.366,0,0,1,.08-4.82a3.947,3.947,0,0,1-.944-2.7A4.23,4.23,0,0,1,.225-10.456,6.941,6.941,0,0,1,3.159-12.3a12.566,12.566,0,0,1,4.126-.64,12.617,12.617,0,0,1,4.837.839,7.575,7.575,0,0,1,3.211,2.383l-1.889,2.07a7.639,7.639,0,0,0-2.582-1.99,8.24,8.24,0,0,0-3.654-.76,9.8,9.8,0,0,0-2.542.3,4.355,4.355,0,0,0-1.782.876,1.784,1.784,0,0,0-.654,1.39A1.869,1.869,0,0,0,2.923-6.3a5.041,5.041,0,0,0,1.965.878A26.1,26.1,0,0,0,7.837-4.9q1.573.183,3.04.458a12.106,12.106,0,0,1,2.633.787,4.533,4.533,0,0,1,1.834,1.388A3.639,3.639,0,0,1,16.012,0a4.857,4.857,0,0,1-1.061,3.119,6.792,6.792,0,0,1-3,2.071,12.871,12.871,0,0,1-4.561.733,14.75,14.75,0,0,1-5.135-.839A10.31,10.31,0,0,1-1.78,2.36Z"/></g></g></g></g></g></svg>