<svg version="1.2" xmlns="http://www.w3.org/2000/svg" viewBox="0 0 960 960" width="960" height="960">
	<title>learn-viam-robot-icon-ai</title>
	<style>
		.s0 { fill: #c0e1bb } 
		.s1 { fill: none;stroke: #00ceea;stroke-miterlimit:10;stroke-width: 4 } 
		.s2 { fill: none;stroke: #251f20;stroke-linecap: round;stroke-linejoin: round;stroke-width: 16 } 
		.s3 { fill: #ffffff } 
		.s4 { fill: none;stroke: #251f20;stroke-linecap: round;stroke-linejoin: round;stroke-width: 12 } 
		.s5 { fill: none;stroke: #000000;stroke-linecap: round;stroke-linejoin: round;stroke-width: 16 } 
		.s6 { fill: #ffffff;stroke: #000000;stroke-linecap: round;stroke-linejoin: round;stroke-width: 16 } 
		.s7 { fill: none;stroke: #000000;stroke-linecap: round;stroke-linejoin: round;stroke-width: 12 } 
		.s8 { fill: #000000 } 
		.s9 { fill: #ffd500;stroke: #000000;stroke-miterlimit:10;stroke-width: 16 } 
		.s10 { fill: #251f20 } 
		.s11 { fill: #231f20 } 
	</style>
	<g id="Layer 1">
		<path id="&lt;Path&gt;" class="s0" d="m7130.3 629h-1573.7v1975.4h1573.7z"/>
		<path id="&lt;Path&gt;" class="s1" d="m8722.8 2428.9h-1289.6v-1289.7h1289.6z"/>
		<g id="&lt;Group&gt;">
			<path id="&lt;Compound Path&gt;" fill-rule="evenodd" class="s2" d="m8619.5 1751.9c0 34-12 57.8-31.5 68.9l-89 50.2c-19.7 14.5-48.6 14.1-80.9-4.5-59.4-34.3-107.5-117.2-107.5-185.2 0-39.7 16.4-65.5 41.8-73.4l83.7-49.1c19.4-11 46.3-9.3 76 7.8 59.3 34.3 107.4 117.2 107.4 185.3zm-28.8 67.1l-87.9 48.9q-1.8 1.6-3.7 3.1z"/>
			<path id="&lt;Compound Path&gt;" fill-rule="evenodd" class="s3" d="m8619.5 1751.9c0 34-12 57.8-31.5 68.9l-89 50.2c-19.7 14.5-48.6 14.1-80.9-4.5-59.4-34.3-107.5-117.2-107.5-185.2 0-39.7 16.4-65.5 41.8-73.4l83.7-49.1c19.4-11 46.3-9.3 76 7.8 59.3 34.3 107.4 117.2 107.4 185.3zm-28.8 67.1l-87.9 48.9q-1.8 1.6-3.7 3.1z"/>
			<g id="&lt;Group&gt;">
				<path id="&lt;Path&gt;" class="s4" d="m8525.5 1805.4c0 68-48.1 95.4-107.4 61.1-59.4-34.3-107.5-117.2-107.5-185.2 0-68.1 48.1-95.4 107.5-61.2 59.3 34.3 107.4 117.2 107.4 185.3z"/>
				<path id="&lt;Path&gt;" class="s5" d="m8436.1 1558.8c19.4-11 46.3-9.3 76 7.8 59.3 34.3 107.4 117.2 107.4 185.3 0 34-12 57.8-31.5 68.9"/>
				<path id="&lt;Path&gt;" class="s4" d="m8345 1610.8l95.6-54.2"/>
				<path id="&lt;Path&gt;" class="s2" d="m8495.1 1873.2l95.6-54.2"/>
			</g>
		</g>
		<g id="&lt;Group&gt;">
			<path id="&lt;Path&gt;" class="s6" d="m7935.1 2420.7l-305.5-176.4v-647l611-352.8 305.5 176.4"/>
			<path id="&lt;Path&gt;" class="s7" d="m7629.6 1597.3l305.5 176.3"/>
			<path id="&lt;Path&gt;" class="s6" d="m7935.1 1773.6v647.1l611-352.8v-647z"/>
			<path id="&lt;Path&gt;" class="s8" d="m8546.1 1420.9l-611 352.7-305.5-176.3 611-352.8z"/>
		</g>
		<g id="&lt;Group&gt;">
			<path id="&lt;Compound Path&gt;" fill-rule="evenodd" class="s2" d="m7878.2 2071.8c0 34.1-12 57.9-31.5 69l-89 50.2c-19.7 14.5-48.7 14.1-81-4.5-59.3-34.3-107.4-117.2-107.4-185.3 0-39.6 16.3-65.4 41.7-73.3l83.7-49.1c19.5-11 46.3-9.3 76 7.8 59.4 34.3 107.5 117.2 107.5 185.2zm-28.8 67.2l-87.9 48.9q-1.8 1.6-3.8 3z"/>
			<path id="&lt;Compound Path&gt;" fill-rule="evenodd" class="s3" d="m7878.2 2071.8c0 34.1-12 57.9-31.5 69l-89 50.2c-19.7 14.5-48.7 14.1-81-4.5-59.3-34.3-107.4-117.2-107.4-185.3 0-39.6 16.3-65.4 41.7-73.3l83.7-49.1c19.5-11 46.3-9.3 76 7.8 59.4 34.3 107.5 117.2 107.5 185.2zm-28.8 67.2l-87.9 48.9q-1.8 1.6-3.8 3z"/>
			<g id="&lt;Group&gt;">
				<path id="&lt;Path&gt;" class="s8" d="m7784.2 2125.3c0 68.1-48.1 95.4-107.5 61.2-59.3-34.3-107.4-117.2-107.4-185.3 0-68 48.1-95.4 107.4-61.1 59.4 34.3 107.5 117.2 107.5 185.2z"/>
				<path id="&lt;Path&gt;" class="s5" d="m7694.7 1878.8c19.5-11 46.3-9.3 76 7.8 59.4 34.3 107.5 117.2 107.5 185.2 0 34.1-12 57.9-31.5 69"/>
				<path id="&lt;Path&gt;" class="s4" d="m7603.7 1930.8l95.6-54.3"/>
				<path id="&lt;Path&gt;" class="s4" d="m7753.8 2193.2l95.6-54.2"/>
			</g>
		</g>
		<path id="&lt;Path&gt;" class="s5" d="m8429.9 2028.1l-312.9 180.6c-14.5 8.4-26.2-0.5-26.2-19.8 0-19.2 11.7-41.6 26.2-50l312.9-180.6c14.4-8.3 26.1 0.5 26.1 19.8 0 19.2-11.7 41.6-26.1 50z"/>
		<g id="&lt;Group&gt;">
			<path id="&lt;Path&gt;" class="s9" d="m8208.6 1872.3c0 55.8-39.4 123.8-88.1 151.9-48.6 28.1-88.1 5.7-88.1-50.1 0-55.8 39.4-123.8 88.1-151.9 48.6-28.1 88.1-5.7 88.1 50.1z"/>
			<path id="&lt;Path&gt;" class="s9" d="m8172.9 1892.9c0 33.2-23.4 73.7-52.4 90.4-28.9 16.7-52.4 3.4-52.4-29.8 0-33.2 23.4-73.7 52.4-90.4 28.9-16.7 52.4-3.4 52.4 29.8z"/>
		</g>
		<g id="&lt;Group&gt;">
			<path id="&lt;Path&gt;" class="s9" d="m8473.4 1720.1c0 55.8-39.4 123.9-88.1 152-48.7 28.1-88.1 5.6-88.1-50.2-0.1-55.8 39.4-123.8 88-151.9 48.7-28.1 88.2-5.7 88.2 50.1z"/>
			<path id="&lt;Path&gt;" class="s9" d="m8437.7 1740.8c0 33.2-23.5 73.6-52.4 90.3-28.9 16.7-52.4 3.4-52.4-29.8 0-33.2 23.4-73.6 52.4-90.4 28.9-16.7 52.4-3.3 52.4 29.9z"/>
		</g>
		<path id="&lt;Path&gt;" class="s6" d="m8127.6 1493.2h0.1l-0.1-0.7q-0.1-0.8-0.3-1.6l-39.5-270.5-39.3 268.8c-2.2 7.9 1.5 16.3 11.2 22.4 15.6 9.8 40.9 9.9 56.4 0.1 8.1-5.1 11.9-11.8 11.5-18.5z"/>
		<path id="&lt;Path&gt;" class="s6" d="m8162 1222.6c0 41-33.3 74.2-74.2 74.2-41 0-74.2-33.2-74.2-74.2 0-41 33.2-74.2 74.2-74.2 40.9 0 74.2 33.2 74.2 74.2z"/>
		<g id="&lt;Group&gt;">
			<path id="&lt;Path&gt;" class="s10" d="m6876.4 1844.2v0.2l38-21.4c-0.4 0.2-0.8 0.2-1.1 0.3z"/>
			<path id="&lt;Path&gt;" class="s8" d="m6876.4 1584.7v11.2c38.5 41 65.5 100.3 65.5 151.2 0 28.5-8.5 49.7-22.6 62.4 0.2 0.3 0.5 0.5 0.7 0.8 2.2 3.9 0.8 8.7-3 10.9l-3.7 2.1c0.3-0.1 0.7-0.1 1.1-0.3 22.9-13 35.5-39.9 35.5-75.9 0-55.1-30.7-119.8-73.5-162.4z"/>
			<path id="&lt;Path&gt;" class="s8" d="m6925.7 1787.6c-0.7 1.5-1.4 2.9-2.2 4.2 0.8-1.3 1.5-2.7 2.2-4.2z"/>
			<path id="&lt;Path&gt;" class="s8" d="m6909.1 1807.3q0.5-0.3 0.9-0.4c0.5-0.4 1-0.9 1.5-1.2-0.8 0.6-1.7 1.1-2.5 1.7z"/>
			<path id="&lt;Path&gt;" class="s8" d="m6917 1800.6q-1.5 1.6-3.1 3 1.6-1.4 3.1-3z"/>
			<path id="&lt;Path&gt;" class="s8" d="m6928.9 1779.7c-0.5 1.7-1.1 3.3-1.7 4.8 0.6-1.5 1.2-3.1 1.7-4.8z"/>
			<path id="&lt;Path&gt;" class="s8" d="m6921.7 1794.6q-1.3 1.9-2.6 3.6 1.3-1.7 2.6-3.6z"/>
			<path id="&lt;Path&gt;" class="s8" d="m6931.4 1770.9c-0.4 1.8-0.8 3.7-1.3 5.5 0.5-1.8 0.9-3.7 1.3-5.5z"/>
			<path id="&lt;Path&gt;" class="s8" d="m6933 1760.8c-0.2 2.2-0.5 4.5-0.8 6.6 0.3-2.1 0.6-4.4 0.8-6.6z"/>
			<path id="&lt;Path&gt;" class="s8" d="m6933.9 1747.1q0 5.5-0.5 10.5 0.5-5 0.5-10.5z"/>
			<path id="&lt;Path&gt;" class="s8" d="m6933.9 1747.1q0 5.5-0.5 10.5c-0.1 1.1-0.2 2.1-0.4 3.2-0.2 2.2-0.5 4.5-0.8 6.6-0.3 1.2-0.6 2.3-0.8 3.5-0.4 1.8-0.8 3.7-1.3 5.5-0.4 1.1-0.8 2.2-1.2 3.3-0.5 1.7-1.1 3.3-1.7 4.8-0.5 1.1-1 2.1-1.5 3.1-0.7 1.5-1.4 2.9-2.2 4.2-0.6 1-1.2 1.9-1.8 2.8q-1.3 1.9-2.6 3.6-1.1 1.3-2.1 2.4-1.5 1.6-3.1 3-1.2 1.1-2.4 2.1c-0.5 0.3-1 0.8-1.5 1.2q-0.4 0.1-0.9 0.4l-0.1 0.1q-0.1 0-0.1 0l0.2-0.1c3.5-2 7.8-0.9 10.2 2.2 14.1-12.7 22.6-33.9 22.6-62.4 0-50.9-27-110.2-65.5-151.2v12c34 39.1 57.5 92.8 57.5 139.2z"/>
			<path id="&lt;Path&gt;" class="s10" d="m6876.4 1835l27-15.2q-0.1-0.1-0.1-0.1l-26.9 15z"/>
			<path id="&lt;Path&gt;" class="s10" d="m6903.4 1820q0 0 0 0l-27 15.2v9l36.9-20.9c-1 0.4-1.9 0.8-2.9 0.8-2.8 0-5.5-1.5-7-4.1z"/>
			<path id="&lt;Path&gt;" class="s10" d="m6876.4 1834.7l26.9-15c-1.9-3.8-0.6-8.5 3.1-10.6 0.9-0.5 1.7-1.1 2.5-1.7l-32.5 18.5z"/>
			<path id="&lt;Path&gt;" class="s10" d="m6876.4 1835.2l27-15.2c0-0.1 0-0.2 0-0.2l-27 15.2z"/>
			<path id="&lt;Path&gt;" class="s10" d="m6913 1814.3l-9.7 5.4q0 0 0.1 0.1z"/>
			<path id="&lt;Path&gt;" class="s10" d="m6903.4 1820q0 0 0 0c1.5 2.6 4.2 4.1 7 4.1 1 0 1.9-0.4 2.9-0.8l3.7-2.1c3.8-2.2 5.2-7 3-10.9-0.2-0.3-0.5-0.5-0.7-0.8-2.8 2.5-5.7 4.8-8.9 6.6z"/>
			<path id="&lt;Path&gt;" class="s10" d="m6909.1 1807.3l-0.2 0.1c-0.8 0.6-1.6 1.2-2.5 1.7-3.7 2.1-5 6.8-3.1 10.6l9.7-5.4-9.6 5.5c0 0 0 0.1 0 0.2l7-3.9c3.2-1.8 6.1-4.1 8.9-6.6-2.4-3.1-6.7-4.2-10.2-2.2z"/>
			<path id="&lt;Path&gt;" class="s8" d="m5951.9 1599.5l-3-1.8c-2.8-1.6-3.8-5.3-2.2-8.2 1.7-2.8 5.4-3.8 8.2-2.2l3 1.8 425.5-245.7 1.5-10.1-437 252.3c-2.4 1.4-4 4.1-4 6.9v315.2l8-4.7z"/>
			<path id="&lt;Path&gt;" class="s8" d="m6562.9 1239.8l297.5 171.7 4-2.3c2.5-1.4 5.5-1.4 8 0l-305.5-176.3c-2.5-1.5-5.5-1.5-8 0l-127.4 73.5 1.2 8.5z"/>
			<path id="&lt;Path&gt;" class="s8" d="m6249.4 2415.9v-4.6l-297.5-171.7v-85.8c-2.7-2.9-5.3-5.9-8-9v94.8c0 2.8 1.6 5.5 4 6.9l305.5 176.3c-2.5-1.4-4-4-4-6.9z"/>
			<path id="&lt;Path&gt;" class="s8" d="m6257.4 2423.9q0 0 0 0c-1.4 0-2.7-0.3-4-1.1 1.3 0.8 2.7 1.1 4 1.1z"/>
			<path id="&lt;Path&gt;" class="s8" d="m6261.4 2422.8c-1.1 0.7-2.4 1-3.7 1 1.3 0 2.6-0.3 3.7-1z"/>
			<path id="&lt;Path&gt;" class="s8" d="m6872.4 1409.2c1.1 0.7 2 1.6 2.7 2.7-0.7-1.1-1.5-2-2.7-2.7z"/>
			<path id="&lt;Path&gt;" class="s8" d="m6875.5 1412.8q0.6 1.3 0.7 2.7-0.1-1.4-0.7-2.7z"/>
			<path id="&lt;Path&gt;" class="s8" d="m5959.9 2234.9v-73.1c-2.7-2.6-5.4-5.2-8-8v85.8l297.5 171.7v-9.2z"/>
			<path id="&lt;Path&gt;" class="s8" d="m5959.9 1604.1l-8-4.6v303.5l8-4.7z"/>
			<path id="&lt;Path&gt;" class="s8" d="m6249.4 1768.9c0-1.4 0.4-2.8 1.1-4l-290.6-167.8v7l289.5 167.1z"/>
			<path id="&lt;Path&gt;" class="s8" d="m5957.9 1589.1l-3-1.8c-2.8-1.6-6.5-0.6-8.2 2.2-1.6 2.9-0.6 6.6 2.2 8.2l3 1.8v-7z"/>
			<path id="&lt;Path&gt;" class="s8" d="m5959.9 1597.1l-8-4.6v7l8 4.6z"/>
			<path id="&lt;Path&gt;" class="s8" d="m6875.3 1420.2c-1.5 2.5-4.1 3.8-6.9 3.8v153.1q4.1 3.7 8 7.6v-168.5c0-0.3-0.1-0.5-0.2-0.7 0.2 1.6 0 3.2-0.9 4.7z"/>
			<path id="&lt;Path&gt;" class="s8" d="m6868.4 2063.2l-604.2 348.8c1.4 2.4 1.6 5.4 0.2 7.9-0.8 1.3-1.8 2.3-3 2.9q0 0 0 0l611-352.7c2.5-1.4 4-4.1 4-6.9v-218.8l-8 4.5z"/>
			<path id="&lt;Path&gt;" class="s8" d="m6257.4 2423.9c0.1 0 0.2-0.1 0.3-0.1-0.1 0-0.2 0.1-0.3 0.1q0 0 0 0z"/>
			<path id="&lt;Path&gt;" class="s8" d="m6875.1 1411.9c0.1 0.3 0.3 0.6 0.4 0.9-0.1-0.3-0.2-0.6-0.4-0.9z"/>
			<path id="&lt;Path&gt;" class="s8" d="m6868.4 1848.8v0.1l8-4.5v-0.2z"/>
			<path id="&lt;Path&gt;" class="s8" d="m6876.4 1825.5v-217.6q-3.9-4.5-8-8.7v230.8z"/>
			<path id="&lt;Path&gt;" class="s8" d="m6876.4 1825.9v-0.4l-8 4.5v0.4z"/>
			<path id="&lt;Path&gt;" class="s8" d="m6868.4 1587.9c2.7 2.6 5.4 5.3 8 8v-11.2q-3.9-3.9-8-7.6z"/>
			<path id="&lt;Path&gt;" class="s8" d="m6868.4 1587.9v11.3q4.1 4.2 8 8.7v-12c-2.6-2.7-5.3-5.4-8-8z"/>
			<path id="&lt;Path&gt;" class="s8" d="m6868.4 1839.8v9l8-4.6v-9z"/>
			<path id="&lt;Path&gt;" class="s8" d="m6868.4 1839.6l8-4.6v-0.3l-8 4.4z"/>
			<path id="&lt;Path&gt;" class="s8" d="m6868.4 1839.1l8-4.4v-8.8l-8 4.5z"/>
			<path id="&lt;Path&gt;" class="s8" d="m6868.4 1839.6v0.2l8-4.6v-0.2z"/>
			<path id="&lt;Path&gt;" class="s8" d="m6257.4 1774.9c-1 0-2-0.3-3-0.8l-5-2.9v630.9l8 4.6v-631.8q0 0 0 0z"/>
			<path id="&lt;Path&gt;" class="s8" d="m6864.4 1409.2l-4 2.3 8 4.7v7.8c2.8 0 5.4-1.3 6.9-3.8 0.9-1.5 1.1-3.1 0.9-4.7q-0.1-1.4-0.7-2.7c-0.1-0.3-0.3-0.6-0.4-0.9-0.7-1.1-1.6-2-2.7-2.7-2.5-1.4-5.5-1.4-8 0z"/>
			<path id="&lt;Path&gt;" class="s8" d="m6264.2 2412l-6.8 3.9-8-4.6v4.6c0 2.9 1.5 5.5 4 6.9 1.3 0.8 2.6 1.1 4 1.1 0.1 0 0.2-0.1 0.3-0.1 1.3 0 2.6-0.3 3.7-1 1.2-0.6 2.2-1.6 3-2.9 1.4-2.5 1.2-5.5-0.2-7.9z"/>
			<path id="&lt;Path&gt;" class="s8" d="m6249.4 2402.1v9.2l8 4.6v-9.2z"/>
			<path id="&lt;Path&gt;" class="s8" d="m6250.5 1764.9c-0.7 1.2-1.1 2.6-1.1 4v2.3l5 2.9c1 0.5 2 0.8 3 0.8q0 0 0 0v-6z"/>
			<path id="&lt;Path&gt;" class="s8" d="m6860.4 2058.6l-594.2 343-4.6 7.5c1.2 0.8 2 1.8 2.6 2.9l604.2-348.8v-214.3l-8 4.6z"/>
			<path id="&lt;Path&gt;" class="s8" d="m6864.4 1423.1l-0.2-0.1-4.5 7.4 0.7-0.4v140.2c2.7 2.2 5.4 4.6 8 6.9v-153.1c-1.4 0-2.7-0.2-4-0.9z"/>
			<path id="&lt;Path&gt;" class="s8" d="m6860.4 1853.5l8-4.6v-0.1l-8 4.5z"/>
			<path id="&lt;Path&gt;" class="s8" d="m6860.4 1834.4l8-4.4v-230.8c-2.6-2.7-5.3-5.4-8-7.9z"/>
			<path id="&lt;Path&gt;" class="s8" d="m6868.4 1830.4v-0.4l-8 4.4v0.5z"/>
			<path id="&lt;Path&gt;" class="s8" d="m6860.4 1580.7c2.7 2.3 5.4 4.7 8 7.2v-10.8c-2.6-2.3-5.3-4.7-8-6.9z"/>
			<path id="&lt;Path&gt;" class="s8" d="m6860.4 1591.3c2.7 2.5 5.4 5.2 8 7.9v-11.3c-2.6-2.5-5.3-4.9-8-7.2z"/>
			<path id="&lt;Path&gt;" class="s8" d="m6860.4 1844.3v9l8-4.5v-9z"/>
			<path id="&lt;Path&gt;" class="s8" d="m6860.4 1843.6v0.5l8-4.5v-0.5z"/>
			<path id="&lt;Path&gt;" class="s8" d="m6860.4 1844.1v0.2l8-4.5v-0.2z"/>
			<path id="&lt;Path&gt;" class="s8" d="m6868.4 1839.1v-8.7l-8 4.5v8.7z"/>
			<path id="&lt;Path&gt;" class="s8" d="m6265.4 1773.5l594.3-343.1 4.5-7.4-3.8-2.2-597.9 345.2c1.1 1.7 1.2 4 0.1 5.9-1.1 1.9-3.1 3-5.2 3v631.8l4 2.3c0.1 0 0.1 0.1 0.2 0.1l4.6-7.5-0.8 0.5z"/>
			<path id="&lt;Path&gt;" class="s8" d="m6261.6 2409.1l-4.2 6.8 6.8-3.9c-0.6-1.1-1.4-2.1-2.6-2.9z"/>
			<path id="&lt;Path&gt;" class="s8" d="m6864.4 1423.1c1.3 0.7 2.6 0.9 4 0.9v-7.8l-4.2 6.8z"/>
			<path id="&lt;Path&gt;" class="s8" d="m6864.2 1423l4.2-6.8-8 4.6z"/>
			<path id="&lt;Path&gt;" class="s8" d="m6261.4 2409l-4-2.3v9.2l4.2-6.8c-0.1 0-0.1-0.1-0.2-0.1z"/>
			<path id="&lt;Path&gt;" class="s8" d="m6257.4 1774.9c2.1 0 4.1-1.1 5.2-3 1.1-1.9 1-4.2-0.1-5.9l-5.1 2.9z"/>
			<path id="&lt;Path&gt;" class="s8" d="m6852.4 1416.2l-289.5-167.2-128.9 74.4 23.6 161.6c0.1 0.4 0.2 1.2 0.3 2q0 0.5 0 1h0.1c0.5 9.9-5 19.3-15.3 25.8-9 5.7-20.6 8.5-32.3 8.5-11.7 0-23.5-2.9-32.7-8.7-12.3-7.7-17.9-19.7-14.5-31.3l18.8-128.8-416.1 240.2 289.5 167.1z"/>
			<path id="&lt;Path&gt;" class="s8" d="m6382 1353.5l1.4-10.1-425.5 245.7 8 4.6z"/>
			<path id="&lt;Path&gt;" class="s8" d="m6562.9 1249l289.5 167.2 8-4.7-297.5-171.7-130.2 75.1 1.3 8.5z"/>
			<path id="&lt;Path&gt;" class="s8" d="m6253.4 1762l2-1.2-289.5-167.1-6 3.4 290.6 167.8c0.7-1.2 1.7-2.2 2.9-2.9z"/>
			<path id="&lt;Path&gt;" class="s8" d="m5959.9 1597.1l6-3.4-8-4.6-6 3.4z"/>
			<path id="&lt;Path&gt;" class="s8" d="m6260.4 1763.7c1 0.6 1.6 1.4 2.1 2.3l597.9-345.2-8-4.6-597 344.6z"/>
			<path id="&lt;Path&gt;" class="s8" d="m6860.4 1420.8l8-4.6-8-4.7-8 4.7z"/>
			<path id="&lt;Path&gt;" class="s8" d="m6260.4 1763.7l-5-2.9-2 1.2c-1.2 0.7-2.2 1.7-2.9 2.9l6.9 4 5.1-2.9c-0.5-0.9-1.1-1.7-2.1-2.3z"/>
			<path id="&lt;Path&gt;" class="s10" d="m5891.6 1996.5c0-4.6 0.3-9 0.7-13.3 0.1-1.4 0.4-2.6 0.6-3.9 0.4-2.9 0.8-5.7 1.4-8.3 0.3-1.4 0.7-2.8 1-4.1q1-3.6 2.2-7 0.7-1.9 1.5-3.7 1.3-3.3 3-6.2c0.5-1 1.1-2.1 1.6-3.1 1.4-2.1 2.8-4.1 4.3-6 0.5-0.6 0.9-1.3 1.4-1.9 3.5-3.9 7.3-7.2 11.6-9.9-0.1-0.1-0.1-0.1-0.1-0.1-1.7-2.9-0.6-6.5 2.2-8.2l20.9-11.8v-1.3l-13.8 8.1c-29.1 9.6-46.5 39.6-46.5 80.7 0 49.3 24.5 106.3 60.3 148.3v-12.5c-31.3-39.6-52.3-90.9-52.3-135.8z"/>
			<path id="&lt;Path&gt;" class="s10" d="m6031.1 1860.5q0.2-0.1 0.4-0.1-0.2 0-0.4 0.1z"/>
			<path id="&lt;Path&gt;" class="s10" d="m6047.6 2204.6c13.7 0 26.1-3.8 36.3-11.4l89.1-50.2c-1.2 0.7-2.6 1.1-3.9 1.1-0.6 0-1.2-0.4-1.7-0.5l-88.3 50.1c-1 0.5-2 0.8-3 0.8-2.1 0-4.1-1.1-5.2-3q-0.2 0.1-0.4 0.1-2.7 1.3-5.5 2.2-1.5 0.4-3.1 0.8-2.8 0.7-5.8 1.2-1.7 0.2-3.4 0.4-3 0.2-6.1 0.2c-1.3 0-2.5 0-3.8-0.1-2-0.2-4.2-0.5-6.3-0.8-1.4-0.2-2.7-0.3-4-0.6-2.2-0.4-4.5-1.1-6.8-1.7-1.3-0.4-2.6-0.7-4-1.2-2.5-0.8-5-1.8-7.6-2.9-1.2-0.5-2.3-0.9-3.5-1.4-3.8-1.8-7.7-3.7-11.5-5.9-13.9-8-27-18.7-39.2-31.2v11.2c11.1 10.6 22.9 19.8 35.2 26.9 18.3 10.6 36.3 15.9 52.5 15.9z"/>
			<path id="&lt;Path&gt;" class="s10" d="m6016.9 1865.4c1.7-0.8 3.3-1.7 5.1-2.4-1.8 0.7-3.4 1.6-5.1 2.4z"/>
			<path id="&lt;Path&gt;" class="s10" d="m6013.1 1867.1q0 0.1-0.1 0.1l-53.1 31.1v1.6l49.5-28.1c0.6-1.9 1.9-3.6 3.7-4.7z"/>
			<path id="&lt;Path&gt;" class="s10" d="m5951.9 1904.4v-1.4l-8 4.7v1.3z"/>
			<path id="&lt;Path&gt;" class="s10" d="m5951.9 2153.8v-11.9q-4.1-4.6-8-9.6v12.5c2.7 3.1 5.3 6.1 8 9z"/>
			<path id="&lt;Path&gt;" class="s10" d="m5959.9 1898.3l-8 4.7v1.4l8-4.5z"/>
			<path id="&lt;Path&gt;" class="s10" d="m5959.9 2150.6q-4-4.2-8-8.7v11.9c2.6 2.8 5.3 5.4 8 8z"/>
			<path id="&lt;Path&gt;" class="s8" d="m5891.6 1996.5c0-4.6 0.3-9 0.7-13.3-0.4 4.3-0.7 8.7-0.7 13.3z"/>
			<path id="&lt;Path&gt;" class="s8" d="m5892.9 1979.3c0.4-2.9 0.8-5.7 1.4-8.3-0.6 2.6-1 5.4-1.4 8.3z"/>
			<path id="&lt;Path&gt;" class="s8" d="m5903.6 1946.9c1.4-2.1 2.8-4.1 4.3-6-1.5 1.9-2.9 3.9-4.3 6z"/>
			<path id="&lt;Path&gt;" class="s8" d="m5920.9 1929.1c-4.3 2.7-8.1 6-11.6 9.9 3.5-3.9 7.4-7.1 11.7-9.8q-0.1-0.1-0.1-0.1z"/>
			<path id="&lt;Path&gt;" class="s8" d="m5899 1956.2q1.3-3.3 3-6.2-1.7 2.9-3 6.2z"/>
			<path id="&lt;Path&gt;" class="s8" d="m5895.3 1966.9q1-3.6 2.2-7-1.2 3.4-2.2 7z"/>
			<path id="&lt;Path&gt;" class="s8" d="m6042.8 2196.3c-2-0.2-4.2-0.5-6.3-0.8 2.1 0.3 4.3 0.6 6.3 0.8z"/>
			<path id="&lt;Path&gt;" class="s8" d="m6052.7 2196.2c-2 0.1-4.1 0.2-6.1 0.2q3.1 0 6.1-0.2z"/>
			<path id="&lt;Path&gt;" class="s8" d="m6061.9 2194.6q-2.8 0.7-5.8 1.2 3-0.5 5.8-1.2z"/>
			<path id="&lt;Path&gt;" class="s8" d="m6021.7 2192c-2.5-0.8-5-1.8-7.6-2.9 2.6 1.1 5.1 2.1 7.6 2.9z"/>
			<path id="&lt;Path&gt;" class="s8" d="m6010.6 2187.7c-3.8-1.8-7.7-3.7-11.5-5.9 3.8 2.2 7.7 4.1 11.5 5.9z"/>
			<path id="&lt;Path&gt;" class="s8" d="m6070.5 2191.6q-2.7 1.3-5.5 2.2 2.8-0.9 5.5-2.2z"/>
			<path id="&lt;Path&gt;" class="s8" d="m6032.5 2194.9c-2.2-0.4-4.5-1.1-6.8-1.7 2.3 0.6 4.6 1.3 6.8 1.7z"/>
			<path id="&lt;Path&gt;" class="s8" d="m5937.4 1930.1q-0.8 0.4-1.7 0.7c-22.9 7.1-36.1 31.1-36.1 65.7 0 40.2 17.6 85.9 44.3 122.8v-193.1z"/>
			<path id="&lt;Path&gt;" class="s8" d="m6003.1 2174.8c28 16.2 54.3 18.1 72 5.1q0.1 0 0.3-0.1c1.1-0.8 2.1-1.7 3.2-2.6q0.6-0.6 1.4-1l16.2-9c6.5-12.2 10.3-27.8 10.3-46.6 0-68-48.1-151-107.4-185.2-13.9-8-27-12.5-39.2-14.1v217.7c13.2 14.5 27.8 26.9 43.2 35.8z"/>
			<path id="&lt;Path&gt;" class="s8" d="m5943.9 1926.2v193.1q3.9 5.3 8 10.4v-208.1z"/>
			<path id="&lt;Path&gt;" class="s8" d="m5953.2 1920.8l-1.3 0.8v208.1q3.9 4.8 8 9.3v-217.7c-2.2-0.3-4.5-0.4-6.7-0.5z"/>
			<path id="&lt;Path&gt;" class="s8" d="m5899.6 1996.5c0-34.6 13.2-58.6 36.1-65.7q0.9-0.3 1.7-0.7l6.5-3.9v-3.4l-14.9 8.5c-1 0.5-2 0.7-3 0.7-2 0-3.9-1-5-2.8-4.3 2.7-8.2 5.9-11.7 9.8-0.5 0.6-0.9 1.3-1.4 1.9-1.5 1.9-2.9 3.9-4.3 6-0.5 1-1.1 2.1-1.6 3.1q-1.7 2.9-3 6.2-0.8 1.8-1.5 3.7-1.2 3.4-2.2 7c-0.3 1.3-0.7 2.7-1 4.1-0.6 2.6-1 5.4-1.4 8.3-0.2 1.3-0.5 2.5-0.6 3.9-0.4 4.3-0.7 8.7-0.7 13.3 0 44.9 21 96.2 52.3 135.8v-13c-26.7-36.9-44.3-82.6-44.3-122.8z"/>
			<path id="&lt;Path&gt;" class="s8" d="m6010.6 2187.7c1.2 0.5 2.3 0.9 3.5 1.4 2.6 1.1 5.1 2.1 7.6 2.9 1.4 0.5 2.7 0.8 4 1.2 2.3 0.6 4.6 1.3 6.8 1.7 1.3 0.3 2.7 0.4 4 0.6 2.1 0.3 4.3 0.6 6.3 0.8 1.3 0.1 2.5 0.1 3.8 0.1 2 0 4.1-0.1 6.1-0.2q1.7-0.2 3.4-0.4 3-0.5 5.8-1.2 1.6-0.4 3.1-0.8 2.8-0.9 5.5-2.2 0.2 0 0.4-0.1 0 0 0-0.1c-1.6-2.8-0.6-6.5 2.2-8.1l20.6-11.7c0.9-1.4 1.6-2.9 2.5-4.4l-16.2 9q-0.8 0.4-1.4 1c-1.1 0.9-2.1 1.8-3.2 2.6q-0.2 0.1-0.3 0.1c-17.7 13-44 11.1-72-5.1-15.4-8.9-30-21.3-43.2-35.8v11.6c12.2 12.5 25.3 23.2 39.2 31.2 3.8 2.2 7.7 4.1 11.5 5.9z"/>
			<path id="&lt;Path&gt;" class="s8" d="m5951.9 1920.8c-1.4-0.1-2.9-0.2-4.3-0.1l-3.7 2.1v3.4l8-4.6z"/>
			<path id="&lt;Path&gt;" class="s8" d="m5943.9 2119.3v13q3.9 5 8 9.6v-12.2q-4.1-5.1-8-10.4z"/>
			<path id="&lt;Path&gt;" class="s8" d="m5959.9 2150.6v-11.6q-4.1-4.5-8-9.3v12.2q4 4.5 8 8.7z"/>
			<path id="&lt;Path&gt;" class="s8" d="m5951.9 1921.6l1.3-0.8q-0.6 0-1.3 0z"/>
			<path id="&lt;Path&gt;" class="s8" d="m6097.1 1875c-23.5-13.6-46.1-18.5-65.6-14.6 19.5-3.9 42.1 1 65.6 14.6z"/>
			<path id="&lt;Path&gt;" class="s8" d="m6013.1 1867.1q0 0 0 0c1.2-0.6 2.5-1.1 3.8-1.7-1.3 0.6-2.6 1.1-3.8 1.7z"/>
			<path id="&lt;Path&gt;" class="s8" d="m6022 1863q4.4-1.6 9.1-2.5-4.7 0.9-9.1 2.5z"/>
			<path id="&lt;Path&gt;" class="s8" d="m6009.4 1871.8l9.2-5.2c2.9-1.7 6.6-0.6 8.2 2.3 0.2 0.3 0.2 0.6 0.4 1 18.2-5.8 41-2.4 65.9 12 59.3 34.3 107.4 117.2 107.4 185.2 0 29.4-9 51.2-24 63.7 0.1 0.2 0.3 0.3 0.4 0.5 1.6 2.9 0.6 6.5-2.2 8.2l-7.3 4.1c0.5 0.1 1.1 0.5 1.7 0.5 1.3 0 2.7-0.4 3.9-1.1 22.9-13 35.5-40 35.5-75.9 0-70.4-50-156.6-111.4-192.1-23.5-13.6-46.1-18.5-65.6-14.6q-0.2 0-0.4 0.1-4.7 0.9-9.1 2.5c-1.8 0.7-3.4 1.6-5.1 2.4-1.3 0.6-2.6 1.1-3.8 1.7-1.8 1.1-3.1 2.8-3.7 4.7z"/>
			<path id="&lt;Path&gt;" class="s8" d="m6033.4 1876.4q-1.2 0.3-2.3 0.6 1.1-0.3 2.3-0.6z"/>
			<path id="&lt;Path&gt;" class="s8" d="m6168.7 2126.8c0.5-0.3 0.9-0.8 1.4-1.1-0.8 0.6-1.7 1.1-2.5 1.7l0.2-0.1q0.4-0.3 0.9-0.5z"/>
			<path id="&lt;Path&gt;" class="s8" d="m6078.3 1883.3c-1.2-0.5-2.3-1-3.4-1.4 1.1 0.4 2.2 0.9 3.4 1.4z"/>
			<path id="&lt;Path&gt;" class="s8" d="m6044.4 1875.1c0.8 0 1.7 0.1 2.5 0.2-0.7-0.1-1.4-0.2-2.1-0.2-0.1 0-0.3 0-0.4 0z"/>
			<path id="&lt;Path&gt;" class="s8" d="m6057.3 1876.4c-1.2-0.2-2.3-0.4-3.5-0.6 1.2 0.2 2.3 0.4 3.5 0.6z"/>
			<path id="&lt;Path&gt;" class="s8" d="m6067.7 1879.1q-1.9-0.6-3.7-1.1 1.8 0.5 3.7 1.1z"/>
			<path id="&lt;Path&gt;" class="s8" d="m6175.6 2120.6q-1.5 1.6-3 3 1.5-1.4 3-3z"/>
			<path id="&lt;Path&gt;" class="s8" d="m6185.8 2104.5c0.7-1.5 1.2-3.1 1.8-4.8-0.6 1.7-1.1 3.3-1.8 4.8z"/>
			<path id="&lt;Path&gt;" class="s8" d="m6188.7 2096.3c0.5-1.7 0.9-3.6 1.3-5.4-0.4 1.8-0.8 3.7-1.3 5.4z"/>
			<path id="&lt;Path&gt;" class="s8" d="m6192.1 2077.6q0.4-5.1 0.4-10.5 0 5.4-0.4 10.5z"/>
			<path id="&lt;Path&gt;" class="s8" d="m6182.2 2111.8c0.7-1.3 1.5-2.7 2.2-4.2-0.7 1.5-1.5 2.9-2.2 4.2z"/>
			<path id="&lt;Path&gt;" class="s8" d="m6177.7 2118.2q1.4-1.7 2.7-3.6-1.3 1.9-2.7 3.6z"/>
			<path id="&lt;Path&gt;" class="s8" d="m6190.8 2087.3c0.4-2.1 0.6-4.3 0.9-6.5-0.3 2.2-0.5 4.4-0.9 6.5z"/>
			<path id="&lt;Path&gt;" class="s8" d="m6021 1881c3.2-1.7 6.6-3 10.1-4q1.1-0.3 2.3-0.6c3.5-0.8 7.1-1.2 11-1.3 0.1 0 0.3 0 0.4 0 0.7 0 1.4 0.1 2.1 0.2 2.3 0 4.6 0.2 6.9 0.5 1.2 0.2 2.3 0.4 3.5 0.6q3.3 0.7 6.7 1.6 1.8 0.5 3.7 1.1c2.3 0.8 4.8 1.8 7.2 2.8 1.1 0.4 2.2 0.9 3.4 1.4 3.5 1.6 7.1 3.4 10.8 5.5 57 32.9 103.4 112.9 103.4 178.3q0 5.4-0.4 10.5c-0.1 1.1-0.3 2.1-0.4 3.2-0.3 2.2-0.5 4.4-0.9 6.5-0.2 1.3-0.5 2.4-0.8 3.6-0.4 1.8-0.8 3.7-1.3 5.4-0.3 1.2-0.7 2.3-1.1 3.4-0.6 1.7-1.1 3.3-1.8 4.8-0.4 1.1-0.9 2.1-1.4 3.1-0.7 1.5-1.5 2.9-2.2 4.2-0.6 1-1.2 1.9-1.8 2.8q-1.3 1.9-2.7 3.6-1 1.2-2.1 2.4-1.5 1.6-3 3-1.2 1.1-2.5 2.1c-0.5 0.3-0.9 0.8-1.4 1.1q-0.5 0.2-0.9 0.5l-0.2 0.1c-0.9 0.6-1.6 1.2-2.5 1.7-1.6 0.9-2.6 2.3-3.3 3.8l6.9-3.9c2.7-1.5 6-0.6 7.8 1.8 15-12.5 24-34.3 24-63.7 0-68-48.1-150.9-107.4-185.2-24.9-14.4-47.7-17.8-65.9-12 0.9 2.6-0.1 5.7-2.6 7.1l-8.6 4.9c1.7 0.2 3.5 0 5-0.9z"/>
			<path id="&lt;Path&gt;" class="s10" d="m5925.6 1926.4c2.2-1.1 4.5-2.1 6.9-2.9 0.3-0.1 0.6-0.2 0.9-0.3l10.5-6.2v-8l-20.9 11.8c-2.8 1.7-3.9 5.3-2.2 8.2 0 0 0 0 0.1 0.1 1-0.7 2-1.4 3.1-1.9 0.5-0.3 1-0.5 1.6-0.8z"/>
			<path id="&lt;Path&gt;" class="s10" d="m6010.1 1878c-1.1-1.9-1.3-4.2-0.7-6.2l-49.5 28.1v7.7l50.3-29.5q0 0-0.1-0.1z"/>
			<path id="&lt;Path&gt;" class="s10" d="m5951.9 1912.3v-7.9l-8 4.6v8z"/>
			<path id="&lt;Path&gt;" class="s10" d="m5959.9 1907.6v-7.7l-8 4.5v7.9z"/>
			<path id="&lt;Path&gt;" class="s10" d="m5943.9 1917l-10.5 6.2c-0.3 0.1-0.6 0.2-0.9 0.3 3.6-1.2 7.5-1.9 11.4-2.4z"/>
			<path id="&lt;Path&gt;" class="s10" d="m5924 1927.2c0.5-0.3 1-0.5 1.6-0.8-0.6 0.3-1.1 0.5-1.6 0.8z"/>
			<path id="&lt;Path&gt;" class="s10" d="m6016 1881.9c-2.3-0.3-4.5-1.6-5.8-3.8l-50.3 29.5v6.1z"/>
			<path id="&lt;Path&gt;" class="s10" d="m5947.6 1920.7l4.3-2.5v-5.9l-8 4.7v4.1c1.3-0.1 2.4-0.3 3.7-0.4z"/>
			<path id="&lt;Path&gt;" class="s10" d="m5959.9 1913.7v-6.1l-8 4.7v5.9z"/>
			<path id="&lt;Path&gt;" class="s10" d="m5925.6 1926.4c2.2-1.1 4.5-2.1 6.9-2.9-2.4 0.8-4.7 1.8-6.9 2.9z"/>
			<path id="&lt;Path&gt;" class="s10" d="m5924 1927.2c-1.1 0.5-2.1 1.2-3.1 1.9q0 0 0.1 0.1c1-0.7 1.9-1.5 3-2z"/>
			<path id="&lt;Path&gt;" class="s10" d="m5932.5 1923.5c-2.4 0.8-4.7 1.8-6.9 2.9-0.6 0.3-1.1 0.5-1.6 0.8-1.1 0.5-2 1.3-3 2 1.1 1.8 3 2.8 5 2.8 1 0 2-0.2 3-0.7l14.9-8.5v-1.7c-3.9 0.5-7.8 1.2-11.4 2.4z"/>
			<path id="&lt;Path&gt;" class="s10" d="m5943.9 1921.1v1.7l3.7-2.1c-1.3 0.1-2.4 0.3-3.7 0.4z"/>
			<path id="&lt;Path&gt;" class="s10" d="m6027.2 1869.9c-0.2-0.4-0.2-0.7-0.4-1-1.6-2.9-5.3-4-8.2-2.3l-9.2 5.2c-0.6 2-0.4 4.3 0.7 6.2q0.1 0.1 0.1 0.1l6.9-4c3.1-1.8 6.5-3.1 10.1-4.2z"/>
			<path id="&lt;Path&gt;" class="s10" d="m6027.2 1869.9c-3.6 1.1-7 2.4-10.1 4.2l-6.9 4c1.3 2.2 3.5 3.5 5.8 3.8l8.6-4.9c2.5-1.4 3.5-4.5 2.6-7.1z"/>
			<path id="&lt;Path&gt;" class="s10" d="m6162 2139.7q0 0 0 0l-78.1 43.5c-0.4 0.2-0.7 0.5-1 0.7q-0.9 0.8-1.9 1.6c-0.3 0.2-0.6 0.5-0.9 0.7z"/>
			<path id="&lt;Path&gt;" class="s10" d="m6162.1 2140q0 0 0 0l-82.1 46.3c-0.5 0.3-1.1 0.6-1.6 0.9-1.7 1.2-3.4 2.3-5.2 3.2q-1.1 0.6-2.3 1.1c1.1 1.9 3.1 3 5.2 3 1 0 2-0.3 3-0.8l88.3-50.1c-2.2-0.5-4.1-1.5-5.3-3.6z"/>
			<path id="&lt;Path&gt;" class="s10" d="m6070.9 2191.5q0 0 0 0 1.2-0.5 2.3-1.1c-0.8 0.4-1.5 0.7-2.3 1.1z"/>
			<path id="&lt;Path&gt;" class="s10" d="m6080.1 2186.2c0.3-0.2 0.6-0.5 0.9-0.7-0.8 0.6-1.7 1.1-2.6 1.7 0.5-0.3 1.1-0.6 1.6-0.9l82.1-46.3c-0.1-0.1 0-0.2-0.1-0.3z"/>
			<path id="&lt;Path&gt;" class="s10" d="m6082.9 2183.9c0.3-0.2 0.6-0.5 1-0.7l78.1-43.5c-1.1-2.2-1.1-4.6-0.2-6.8l-68.1 38.7c-3.1 4.8-6.8 8.9-10.8 12.3z"/>
			<path id="&lt;Path&gt;" class="s10" d="m6078.4 2187.2c-1.7 1.2-3.4 2.3-5.2 3.2 1.8-0.9 3.5-2 5.2-3.2z"/>
			<path id="&lt;Path&gt;" class="s10" d="m6081 2185.5q1-0.8 1.9-1.6-0.9 0.8-1.9 1.6z"/>
			<path id="&lt;Path&gt;" class="s10" d="m6078.4 2187.2c0.9-0.6 1.8-1.1 2.6-1.7q1-0.8 1.9-1.6c4-3.4 7.7-7.5 10.8-12.3l-20.6 11.7c-2.8 1.6-3.8 5.3-2.2 8.1q0 0.1 0 0.1c0.8-0.4 1.5-0.7 2.3-1.1 1.8-0.9 3.5-2 5.2-3.2z"/>
			<path id="&lt;Path&gt;" class="s10" d="m6171.7 2134.2l-9.7 5.5q0 0 0 0z"/>
			<path id="&lt;Path&gt;" class="s10" d="m6176.9 2131.3c-0.1-0.2-0.3-0.3-0.4-0.5-2.3 2-4.8 3.8-7.4 5.3l-7 3.9q0 0 0 0c1.2 2.1 3.1 3.1 5.3 3.6l7.3-4.1c2.8-1.7 3.8-5.3 2.2-8.2z"/>
			<path id="&lt;Path&gt;" class="s10" d="m6168.7 2129l-6.9 3.9c-0.9 2.2-0.9 4.6 0.2 6.8l9.7-5.5-9.7 5.5c0.1 0.1 0 0.2 0.1 0.3l7-3.9c2.6-1.5 5.1-3.3 7.4-5.3-1.8-2.4-5.1-3.3-7.8-1.8z"/>
			<path id="&lt;Compound Path&gt;" fill-rule="evenodd" class="s8" d="m6406.6 2171.9l26.1-42.7c0.9-0.6 1.7-1.4 2.6-1.9l312.9-180.6c8.9-5.2 17.8-5.7 25.1-1.4 8.3 4.7 13.1 15 13.1 28.1 0 22.1-13.3 47.1-30.2 56.9l-312.9 180.6c-4.8 2.8-9.7 4.3-14.4 4.3-3.8 0-7.4-1-10.7-2.9-8.3-4.8-13-15-13-28.1 0-4 0.5-8.2 1.4-12.3zm14.6 12.3c0 7 1.9 12.5 5 14.3 2.9 1.6 7-0.2 9.1-1.4l312.9-180.7c12-6.9 22.2-26.7 22.2-43 0-8.4-2.6-12.9-5.1-14.3-0.8-0.5-1.7-0.7-2.7-0.7-2.4 0-4.8 1.2-6.4 2.1l-312.9 180.6c-12 7-22.1 26.7-22.1 43.1zm331-160.9h0.2z"/>
			<path id="&lt;Path&gt;" class="s8" d="m6406.6 2171.9l26.1-42.7c-12.6 8.7-22.7 25.4-26.1 42.7z"/>
			<path id="&lt;Compound Path&gt;" fill-rule="evenodd" class="s8" d="m6403.3 2039.7c-9.8 0-18.9-2.3-27-7-19-11-29.6-33.5-29.6-63.3 0-58.3 41.3-129.6 92.1-158.9 26.2-15.2 51.3-17.4 70.5-6.3 19.1 11 29.7 33.5 29.7 63.4 0 58.2-41.3 129.5-92.1 158.8-15.3 8.8-30.1 13.3-43.6 13.3zm39.6-20.2c48.6-28.1 88.1-96.1 88.1-151.9-0.1-55.8-39.5-78.3-88.2-50.2-48.6 28.1-88.1 96.2-88.1 152 0.1 55.8 39.5 78.2 88.2 50.1z"/>
			<path id="&lt;Compound Path&gt;" fill-rule="evenodd" class="s8" d="m6442.9 2019.5c-48.7 28.1-88.1 5.7-88.2-50.1 0-55.8 39.5-123.9 88.1-152 48.7-28.1 88.1-5.6 88.2 50.2 0 55.8-39.5 123.8-88.1 151.9zm-4-6.9c46.4-26.8 84.1-91.9 84.1-145 0-23.9-7.7-41.5-21.6-49.5-5.6-3.2-12-4.8-19-4.8-10.7 0-22.8 3.7-35.6 11.1-46.4 26.8-84.1 91.8-84.1 145 0 23.8 7.7 41.4 21.6 49.4 14.1 8.2 33.5 5.9 54.6-6.2z"/>
			<path id="&lt;Compound Path&gt;" fill-rule="evenodd" class="s8" d="m6503.3 1888.2c0 36.3-24.8 79-56.4 97.3-9.6 5.5-19 8.3-27.6 8.3-6.4 0-12.3-1.5-17.6-4.6-12.4-7.1-19.2-21.5-19.3-40.5 0-36.2 24.8-79 56.4-97.2 16.7-9.7 32.7-11 45.2-3.8 12.4 7.2 19.2 21.5 19.3 40.5zm-8 0c-0.1-33.2-23.5-46.5-52.5-29.8-28.9 16.7-52.4 57.1-52.4 90.3 0.1 33.2 23.5 46.6 52.5 29.9 28.9-16.8 52.4-57.2 52.4-90.4z"/>
			<path id="&lt;Compound Path&gt;" fill-rule="evenodd" class="s8" d="m6495.3 1888.2c0 33.2-23.5 73.6-52.4 90.4-29 16.7-52.4 3.3-52.5-29.9 0-33.2 23.5-73.6 52.4-90.3 29-16.7 52.4-3.4 52.5 29.8zm-8 0c0-13-4-22.4-11.3-26.6-2.8-1.6-6.1-2.4-9.7-2.4-5.7 0-12.4 2-19.5 6.1-26.7 15.4-48.4 52.9-48.4 83.4 0 13 4 22.5 11.3 26.7 7.3 4.2 17.7 2.9 29.2-3.8 26.6-15.4 48.4-52.8 48.4-83.4z"/>
			<path id="&lt;Path&gt;" class="s8" d="m6707.7 1867.3c-47 27.1-85.2 7.2-87.9-44.3l-6.9 11.3c3.3 21.3 13 37.5 28.2 46.2 8.1 4.7 17.2 7 26.9 7 13.6 0 28.4-4.4 43.6-13.2 5.6-3.2 10.9-7 16.2-11.1q-3.5-2.3-6.8-4.8c-4.4 3.3-8.8 6.3-13.3 8.9z"/>
			<path id="&lt;Path&gt;" class="s8" d="m6721 1858.4q3.3 2.5 6.8 4.8c0.6-0.4 1.1-0.8 1.7-1.3q-3.5-2.3-6.9-4.7-0.8 0.6-1.6 1.2z"/>
			<path id="&lt;Path&gt;" class="s8" d="m6726.4 1648.4l-6.6 10.9c42.9-17.9 75.9 5.1 75.9 56.1 0 45.5-26.1 99-62.1 132.5 2.2 1.6 4.5 3 6.8 4.4 36.7-35.1 63.3-90.1 63.3-136.9 0-17.4-3.7-32.3-10.5-43.9q-5.8-7.5-12.1-14.5-3.2-2.8-7-4.9c-13.5-7.8-30-8.9-47.7-3.7z"/>
			<path id="&lt;Path&gt;" class="s8" d="m6732 1849.3c2.3 1.6 4.6 3 7 4.4 0.5-0.4 0.9-0.9 1.4-1.4-2.3-1.4-4.6-2.8-6.8-4.4-0.5 0.5-1.1 0.9-1.6 1.4z"/>
			<path id="&lt;Path&gt;" class="s8" d="m6727.4 1853.3q-2.4 2-4.8 3.9 3.4 2.4 6.9 4.7c1.6-1.3 3.2-2.7 4.8-4-2.3-1.5-4.6-3-6.9-4.6z"/>
			<path id="&lt;Path&gt;" class="s8" d="m6781.1 1657q6.3 7 12.1 14.5c-3.3-5.6-7.3-10.5-12.1-14.5z"/>
			<path id="&lt;Path&gt;" class="s8" d="m6732 1849.3q-2.3 2-4.6 4c2.3 1.6 4.6 3.1 6.9 4.6 1.5-1.4 3.1-2.7 4.7-4.2-2.4-1.4-4.7-2.8-7-4.4z"/>
			<path id="&lt;Path&gt;" class="s8" d="m6619.5 1817.2c0-23.4 7-48.9 18.6-72.8-1.2-3.4-2.4-6.9-3.5-10.4-14.3 27-23.1 56.4-23.1 83.2 0 6 0.6 11.7 1.4 17.1l6.9-11.3c-0.1-1.9-0.3-3.8-0.3-5.8z"/>
			<path id="&lt;Path&gt;" class="s8" d="m6639.4 1741.8c-1.2-3.4-2.4-6.7-3.5-10.1q-0.6 1.1-1.3 2.3c1.1 3.5 2.3 7 3.5 10.4 0.5-0.9 0.8-1.7 1.3-2.6z"/>
			<path id="&lt;Path&gt;" class="s8" d="m6707.6 1665.3c4.2-2.4 8.2-4.3 12.2-6l6.6-10.9c-7.4 2.3-15 5.5-22.8 9.9-21.9 12.7-42 33.1-57.8 56.9q1.3 5.2 2.8 10.3c15.6-25.2 36.3-47.1 59-60.2z"/>
			<path id="&lt;Path&gt;" class="s8" d="m6648.6 1725.5q-1.5-5.1-2.8-10.3-0.7 1.1-1.4 2.2c0.8 3.5 1.7 7 2.8 10.4q0.7-1.1 1.4-2.3z"/>
			<path id="&lt;Path&gt;" class="s8" d="m6640.1 1724.4q-2.2 3.6-4.2 7.3c1.1 3.4 2.3 6.7 3.5 10.1 1.2-2.4 2.5-4.7 3.8-7.1q-1.7-5.1-3.1-10.3z"/>
			<path id="&lt;Path&gt;" class="s8" d="m6644.4 1717.4q-2.3 3.5-4.3 7 1.4 5.2 3.1 10.3 1.9-3.5 4-6.9c-1.1-3.4-2-6.9-2.8-10.4z"/>
			<path id="&lt;Path&gt;" class="s8" d="m6703.6 1860.4c-21 12.2-40.4 14.4-54.5 6.3-13.9-8.1-21.6-25.6-21.6-49.5 0-2.6 0.5-5.3 0.7-7.9l-8.4 13.7c2.7 51.5 40.9 71.4 87.9 44.3 4.5-2.6 8.9-5.6 13.3-8.9-2.4-1.7-4.7-3.4-6.9-5.2-3.5 2.5-6.9 5.2-10.5 7.2z"/>
			<path id="&lt;Path&gt;" class="s8" d="m6714.1 1853.2c2.2 1.8 4.5 3.5 6.9 5.2q0.8-0.6 1.6-1.2c-2.3-1.7-4.6-3.4-6.8-5.2-0.6 0.4-1.2 0.8-1.7 1.2z"/>
			<path id="&lt;Path&gt;" class="s8" d="m6747.1 1661.1c7 0 13.5 1.6 19 4.8 14 8.1 21.6 25.6 21.6 49.5 0 43.9-25.8 95.6-60.9 127.4 2.3 1.8 4.5 3.5 6.8 5.1 36-33.5 62.1-87 62.1-132.5 0-51-33-74-75.9-56.1l-7.7 12.7c12.5-7.2 24.5-10.9 35-10.9z"/>
			<path id="&lt;Path&gt;" class="s8" d="m6726.8 1842.8c-0.5 0.5-0.9 1-1.4 1.4 2.2 1.8 4.4 3.5 6.6 5.1 0.5-0.5 1.1-0.9 1.6-1.4-2.3-1.6-4.5-3.3-6.8-5.1z"/>
			<path id="&lt;Path&gt;" class="s8" d="m6715.8 1852c2.2 1.8 4.5 3.5 6.8 5.2q2.4-1.9 4.8-3.9-3.3-2.4-6.5-4.9c-1.7 1.3-3.4 2.3-5.1 3.6z"/>
			<path id="&lt;Path&gt;" class="s8" d="m6725.4 1844.2c-1.6 1.4-3 2.9-4.5 4.2q3.2 2.5 6.5 4.9 2.3-2 4.6-4c-2.2-1.6-4.4-3.3-6.6-5.1z"/>
			<path id="&lt;Path&gt;" class="s8" d="m6642.2 1754.4c-1.4-3.3-2.8-6.6-4.1-10-11.6 23.9-18.6 49.4-18.6 72.8 0 2 0.2 3.9 0.3 5.8l8.4-13.7c1.2-17.9 5.9-36.7 14-54.9z"/>
			<path id="&lt;Path&gt;" class="s8" d="m6643.4 1752.1c-1.4-3.4-2.8-6.8-4-10.3-0.5 0.9-0.8 1.7-1.3 2.6 1.3 3.4 2.7 6.7 4.1 10 0.3-0.8 0.8-1.5 1.2-2.3z"/>
			<path id="&lt;Path&gt;" class="s8" d="m6648.6 1725.5c1 3.3 2.1 6.6 3.2 9.9 15.3-26.5 36.4-49.7 59.8-63.2 0.2-0.1 0.3-0.2 0.5-0.2l7.7-12.7c-4 1.7-8 3.6-12.2 6-22.7 13.1-43.4 35-59 60.2z"/>
			<path id="&lt;Path&gt;" class="s8" d="m6648.6 1725.5q-0.7 1.2-1.4 2.3c1 3.4 2.2 6.8 3.4 10.1 0.4-0.8 0.8-1.6 1.2-2.5-1.1-3.3-2.2-6.6-3.2-9.9z"/>
			<path id="&lt;Path&gt;" class="s8" d="m6646.9 1745.2c-1.3-3.5-2.5-7-3.7-10.5-1.3 2.4-2.6 4.7-3.8 7.1 1.2 3.5 2.6 6.9 4 10.3 1-2.3 2.3-4.6 3.5-6.9z"/>
			<path id="&lt;Path&gt;" class="s8" d="m6647.2 1727.8q-2.1 3.4-4 6.9c1.2 3.5 2.4 7 3.7 10.5 1.2-2.5 2.3-4.9 3.7-7.3-1.2-3.3-2.4-6.7-3.4-10.1z"/>
			<path id="&lt;Path&gt;" class="s8" d="m6692 1832.4c-21.3 4.6-36.8-8.9-36.8-35.8 0-4.3 0.4-8.7 1.2-13.2-2-3.5-4-7-5.8-10.6-2.1 8-3.4 16.1-3.4 23.8 0 18.9 6.8 33.3 19.2 40.4 5.4 3.1 11.3 4.6 17.7 4.6 4.6 0 9.5-0.8 14.5-2.5-2.2-2.2-4.4-4.4-6.6-6.7z"/>
			<path id="&lt;Path&gt;" class="s8" d="m6694.2 1831.9c-0.7 0.2-1.5 0.3-2.2 0.5 2.2 2.3 4.4 4.5 6.6 6.7 0.7-0.2 1.4-0.5 2.1-0.7-2.2-2.1-4.4-4.2-6.5-6.5z"/>
			<path id="&lt;Path&gt;" class="s8" d="m6657.1 1780.6c-1.9-3.3-3.7-6.6-5.4-9.9l-1 1.6q0 0.3-0.1 0.5c1.8 3.6 3.8 7.1 5.8 10.6 0.1-0.9 0.5-1.9 0.7-2.8z"/>
			<path id="&lt;Path&gt;" class="s8" d="m6768 1736c0-18.9-6.8-33.3-19.2-40.4-12.5-7.2-28.5-5.9-45.2 3.7-5.3 3-10.3 7-15.1 11.3l-28.2 46q1.2 2.5 2.4 5c9.2-22.8 25.7-44.3 44.9-55.4 28.9-16.7 52.4-3.3 52.4 29.8 0 33.1-23.2 73.3-52 90.1 1.9 2 3.8 3.9 5.8 5.8 30.5-19 54.2-60.4 54.2-95.9z"/>
			<path id="&lt;Path&gt;" class="s8" d="m6661.8 1764.2c0.3-0.8 0.6-1.7 0.9-2.6q-1.2-2.5-2.4-5l-1.2 2c0.9 1.9 1.8 3.8 2.7 5.6z"/>
			<path id="&lt;Path&gt;" class="s8" d="m6707.6 1826.4c-0.5 0.3-0.9 0.4-1.4 0.7 1.9 2 3.9 4 5.9 5.9 0.6-0.3 1.1-0.8 1.7-1.1-2-1.9-3.9-3.8-5.8-5.8-0.1 0.1-0.2 0.2-0.4 0.3z"/>
			<path id="&lt;Path&gt;" class="s8" d="m6655.4 1764.7l-3.7 6c1.7 3.3 3.5 6.6 5.4 9.9 0.5-2.9 1.1-5.8 2-8.6q-1.9-3.6-3.7-7.3z"/>
			<path id="&lt;Path&gt;" class="s8" d="m6694.2 1831.9c2.1 2.3 4.3 4.4 6.5 6.5q2.9-1.1 5.9-2.5-3.2-3-6.2-6.1-3.2 1.3-6.2 2.1z"/>
			<path id="&lt;Path&gt;" class="s8" d="m6661.8 1764.2c-0.9-1.8-1.8-3.7-2.7-5.6l-3.7 6.1q1.8 3.7 3.7 7.3c0.7-2.6 1.7-5.2 2.7-7.8z"/>
			<path id="&lt;Path&gt;" class="s8" d="m6700.4 1829.8q3 3.1 6.2 6.1c1.7-0.8 3.3-1.6 5-2.6 0.2-0.1 0.4-0.2 0.5-0.3-2-1.9-4-3.9-5.9-5.9-2 1.1-3.9 1.9-5.8 2.7z"/>
			<path id="&lt;Path&gt;" class="s8" d="m6651.3 1769.8c-0.2 0.8-0.3 1.7-0.6 2.5l1-1.6q-0.2-0.5-0.4-0.9z"/>
			<path id="&lt;Path&gt;" class="s8" d="m6658.2 1751.8c0.7 1.6 1.4 3.2 2.1 4.8l28.2-46c-12.5 11-23 25.5-30.3 41.2z"/>
			<path id="&lt;Path&gt;" class="s8" d="m6660.3 1756.6c-0.7-1.6-1.4-3.2-2.1-4.8-0.4 0.8-0.9 1.5-1.2 2.3 0.7 1.5 1.4 3 2.1 4.5z"/>
			<path id="&lt;Path&gt;" class="s8" d="m6655.4 1764.7q-0.7-1.4-1.3-2.8c-1 2.6-2 5.2-2.8 7.9q0.2 0.4 0.4 0.9z"/>
			<path id="&lt;Path&gt;" class="s8" d="m6659.1 1758.6c-0.7-1.5-1.4-3-2.1-4.5-1.1 2.6-2 5.2-2.9 7.8q0.6 1.4 1.3 2.8z"/>
			<path id="&lt;Path&gt;" class="s8" d="m6674.4 1823.2c-7.2-4.2-11.2-13.6-11.2-26.6 0-0.5 0.1-1.1 0.2-1.6q-3.7-5.7-7-11.6c-0.8 4.5-1.2 8.9-1.2 13.2 0 26.9 15.5 40.4 36.8 35.8-2.1-2.3-4.2-4.6-6.2-7-4.2 0.3-8.1-0.3-11.4-2.2z"/>
			<path id="&lt;Path&gt;" class="s8" d="m6663.6 1791.7q-3.4-5.5-6.5-11.1c-0.2 0.9-0.6 1.9-0.7 2.8q3.3 5.9 7 11.6c0-1.1 0.2-2.2 0.2-3.3z"/>
			<path id="&lt;Path&gt;" class="s8" d="m6685.8 1825.4c2 2.4 4.1 4.7 6.2 7 0.7-0.2 1.5-0.3 2.2-0.5-2-2.1-4-4.4-5.9-6.7-0.9 0.1-1.7 0.1-2.5 0.2z"/>
			<path id="&lt;Path&gt;" class="s8" d="m6711.6 1713.1c7.1-4 13.7-6.1 19.5-6.1 3.6 0 6.9 0.8 9.7 2.4 7.2 4.2 11.2 13.7 11.2 26.6 0 30.6-21.7 68.1-48.4 83.5-0.4 0.3-0.9 0.4-1.3 0.6 1.9 2.1 3.8 4.1 5.7 6 28.8-16.8 52-57 52-90.1 0-33.1-23.5-46.5-52.4-29.8-19.2 11.1-35.7 32.6-44.9 55.4q2.4 4.9 5 9.7c7.7-23.6 24.7-47.1 43.9-58.2z"/>
			<path id="&lt;Path&gt;" class="s8" d="m6666.9 1773.9c0.2-0.9 0.5-1.7 0.8-2.6q-2.6-4.8-5-9.7c-0.3 0.9-0.6 1.8-0.9 2.6 1.6 3.3 3.3 6.5 5.1 9.7z"/>
			<path id="&lt;Path&gt;" class="s8" d="m6702.3 1820.1c-0.7 0.4-1.3 0.6-1.9 0.9q2.8 3.1 5.8 6.1c0.5-0.3 0.9-0.4 1.4-0.7 0.2-0.1 0.3-0.2 0.4-0.3-1.9-1.9-3.8-3.9-5.7-6z"/>
			<path id="&lt;Path&gt;" class="s8" d="m6664.8 1782.5c-2-3.5-3.9-7-5.7-10.5-0.9 2.8-1.5 5.7-2 8.6q3.1 5.6 6.5 11.1c0.3-3 0.6-6.1 1.2-9.2z"/>
			<path id="&lt;Path&gt;" class="s8" d="m6694.7 1823.6q-3.3 1.2-6.4 1.6c1.9 2.3 3.9 4.6 5.9 6.7q3-0.8 6.2-2.1c-1.9-2-3.8-4.1-5.7-6.2z"/>
			<path id="&lt;Path&gt;" class="s8" d="m6664.8 1782.5c0.6-2.9 1.2-5.7 2.1-8.6-1.8-3.2-3.5-6.4-5.1-9.7-1 2.6-2 5.2-2.7 7.8 1.8 3.5 3.7 7 5.7 10.5z"/>
			<path id="&lt;Path&gt;" class="s8" d="m6700.4 1821c-1.9 1-3.8 1.9-5.7 2.6 1.9 2.1 3.8 4.2 5.7 6.2 1.9-0.8 3.8-1.6 5.8-2.7q-3-3-5.8-6.1z"/>
			<path id="&lt;Path&gt;" class="s8" d="m6424 1310.7l7.5-4.3-1.3-9.1c-2.6 0.6-5.2 1.1-7.9 1.5z"/>
			<path id="&lt;Path&gt;" class="s8" d="m6398 1298.8c-2.7-0.4-5.3-0.8-7.8-1.5l-5.3 36 8.8-5.1z"/>
			<path id="&lt;Path&gt;" class="s8" d="m6425.3 1319.2l7.4-4.3-1.2-8.5-7.5 4.3z"/>
			<path id="&lt;Path&gt;" class="s8" d="m6392.2 1338.3l1.5-10.1-8.8 5.1-1.5 10.1z"/>
			<path id="&lt;Path&gt;" class="s8" d="m6377.7 1513.6c9.2 5.8 21 8.7 32.7 8.7 11.7 0 23.3-2.8 32.3-8.5 10.3-6.5 15.8-15.9 15.3-25.8h-0.1q0-0.5 0-1c-0.1-0.8-0.2-1.6-0.3-2l-23.6-161.6-7.5 4.4 23.2 158.3q0.2 0.9 0.2 1.7l0.1 0.6c0.4 6.7-3.4 13.5-11.5 18.6-15.6 9.8-40.9 9.7-56.5-0.1-9.7-6.1-13.4-14.6-11.1-22.4l19.8-136.1-8.7 5.1-18.8 128.8c-3.4 11.6 2.2 23.6 14.5 31.3z"/>
			<path id="&lt;Path&gt;" class="s8" d="m6434 1323.4l-1.3-8.5-7.4 4.3 1.2 8.6z"/>
			<path id="&lt;Path&gt;" class="s8" d="m6390.7 1348.4l1.5-10.1-8.8 5.1-1.4 10.1z"/>
			<path id="&lt;Path&gt;" class="s8" d="m6416.6 1315l7.4-4.3-1.7-11.9q-3.9 0.6-8 0.8z"/>
			<path id="&lt;Path&gt;" class="s8" d="m6406 1299.6q-4.1-0.2-8-0.8l-4.3 29.4 8.8-5.1z"/>
			<path id="&lt;Path&gt;" class="s8" d="m6402.5 1323.1l-8.8 5.1-1.5 10.1 8.9-5.1z"/>
			<path id="&lt;Path&gt;" class="s8" d="m6417.8 1323.5l7.5-4.3-1.3-8.5-7.4 4.3z"/>
			<path id="&lt;Path&gt;" class="s8" d="m6382 1506.9c15.6 9.8 40.9 9.9 56.5 0.1 8.1-5.1 11.9-11.9 11.5-18.6l-0.1-0.6q0-0.8-0.2-1.7l-23.2-158.3-7.4 4.3 22.7 155.2c0 0 0.1 0.8 0.2 1.4q0 0.1 0 0.2c0.2 4-2.5 8-7.8 11.3-13 8.2-34.9 8.1-47.9-0.1-3-1.9-9.6-6.9-7.5-14.4l20.8-142.4-8.9 5.1-19.8 136.1c-2.3 7.8 1.4 16.3 11.1 22.4z"/>
			<path id="&lt;Path&gt;" class="s8" d="m6419.1 1332.1l7.4-4.3-1.2-8.6-7.5 4.3z"/>
			<path id="&lt;Path&gt;" class="s8" d="m6399.6 1343.3l1.5-10.1-8.9 5.1-1.5 10.1z"/>
			<path id="&lt;Path&gt;" class="s8" d="m6335.9 1217.9c0-41 33.3-74.2 74.2-74.2 41 0 74.2 33.2 74.2 74.2 0 34.4-23.5 63-55.3 71.4l1.2 8c35.6-9 62.1-41.1 62.1-79.4 0-45.3-36.9-82.2-82.2-82.2-45.3 0-82.2 36.9-82.2 82.2 0 38.4 26.6 70.4 62.3 79.4l1.1-8c-31.8-8.3-55.4-37-55.4-71.4z"/>
			<path id="&lt;Path&gt;" class="s8" d="m6414.3 1299.6l-1.1-7.9c-1 0.1-2 0.3-3.1 0.3-1 0-2-0.2-3-0.3l-1.1 7.9c1.4 0.1 2.7 0.4 4.1 0.4 1.5 0 2.8-0.3 4.2-0.4z"/>
			<path id="&lt;Path&gt;" class="s8" d="m6421.2 1290.9l1.1 7.9c2.7-0.4 5.3-0.9 7.9-1.5l-1.2-8q-3.8 1-7.8 1.6z"/>
			<path id="&lt;Path&gt;" class="s8" d="m6399.2 1290.9q-4-0.6-7.9-1.6l-1.1 8c2.5 0.7 5.1 1.1 7.8 1.5z"/>
			<path id="&lt;Path&gt;" class="s8" d="m6407.1 1291.7c-2.7-0.1-5.3-0.4-7.9-0.8l-1.2 7.9q3.9 0.6 8 0.8z"/>
			<path id="&lt;Path&gt;" class="s8" d="m6414.3 1299.6q4.1-0.2 8-0.8l-1.1-7.9c-2.7 0.4-5.3 0.7-8 0.8z"/>
			<path id="&lt;Path&gt;" class="s8" d="m6343.9 1217.9c0-36.5 29.7-66.2 66.2-66.2 36.5 0 66.2 29.7 66.2 66.2 0 30.3-20.6 55.6-48.5 63.4l1.2 8c31.8-8.4 55.3-37 55.3-71.4 0-41-33.2-74.2-74.2-74.2-40.9 0-74.2 33.2-74.2 74.2 0 34.4 23.6 63.1 55.4 71.4l1.2-7.9c-27.9-7.8-48.6-33.2-48.6-63.5z"/>
			<path id="&lt;Path&gt;" class="s8" d="m6413.2 1291.7l-1.2-7.8c-0.6 0-1.2 0.1-1.9 0.1-0.6 0-1.2-0.1-1.8-0.1l-1.2 7.8c1 0.1 2 0.3 3 0.3 1.1 0 2.1-0.2 3.1-0.3z"/>
			<path id="&lt;Path&gt;" class="s8" d="m6392.5 1281.4l-1.2 7.9q3.9 1 7.9 1.6l1.1-7.8c-2.7-0.4-5.2-1-7.8-1.7z"/>
			<path id="&lt;Path&gt;" class="s8" d="m6420 1283l1.2 7.9q4-0.6 7.8-1.6l-1.2-8c-2.5 0.8-5.1 1.3-7.8 1.7z"/>
			<path id="&lt;Path&gt;" class="s8" d="m6412 1283.9l1.2 7.8c2.7-0.1 5.3-0.4 8-0.8l-1.2-7.9c-2.6 0.4-5.3 0.8-8 0.9z"/>
			<path id="&lt;Path&gt;" class="s8" d="m6408.3 1283.9c-2.7-0.1-5.4-0.5-8-0.8l-1.1 7.8c2.6 0.4 5.2 0.7 7.9 0.8z"/>
		</g>
		<g id="&lt;Group&gt;">
			<path id="&lt;Compound Path&gt;" fill-rule="evenodd" class="s11" d="m839.3 509.4c-0.2 0.2-0.3 0.5-0.5 0.6l-1 0.6c-0.3 0.2-0.6 0.5-1 0.8l-27.9 15.7v160.8c0 2.1-1.1 4.1-2.9 5.1l-449.2 259.4q0 0 0 0c-0.9 0.4-1.8 0.6-2.7 0.7-0.1 0-0.2 0-0.3 0q0 0 0 0c-1 0-2-0.2-2.9-0.7l-224.6-129.7c-1.8-1.1-2.9-3-2.9-5.1v-69.7c-26.3-30.8-44.4-72.7-44.4-109 0-30.2 12.8-52.3 34.2-59.3l10.2-6v-231.7c0-2.1 1.1-4.1 2.9-5.1l321.3-185.5 3.8-26.5c-26.2-6.6-45.7-30.2-45.7-58.4 0-33.3 27.1-60.4 60.4-60.4 33.3 0 60.4 27.1 60.4 60.4 0 28.2-19.5 51.8-45.6 58.4l0.9 6.7 93.7-54.1c1.8-1 4.1-1 5.9 0l224.6 129.7c0.8 0.5 1.5 1.2 2 2 0.1 0.2 0.2 0.4 0.3 0.6q0.4 1 0.5 2c0 0.2 0.1 0.3 0.1 0.5v123.9c31.5 31.3 54.1 78.9 54.1 119.5 0 24.9-8.6 43.7-23.7 53.8zm-42.1-287l-0.6 0.3-436.9 252.2v462.2l0.6-0.3 436.9-252.3zm-337.7-71.1l-1.1 7.4-15.3 104.6c-1.6 5.6 3.3 9.3 5.5 10.6 9.6 6.1 25.7 6.1 35.2 0.1 3.9-2.4 5.9-5.4 5.8-8.3q0 0 0-0.1c-0.1-0.5-0.2-1.1-0.2-1.1l-16.7-114.1-0.9-6.3-0.9-6.2-1.7-11.3c-1 0-2 0.3-3.1 0.3-1 0-2-0.3-3-0.3l-2.6 17.2zm-42-84.8c0 22.3 15.2 41 35.7 46.7q2.9 0.8 5.8 1.3c1.9 0.2 3.9 0.5 5.8 0.5 0.5 0.1 0.9 0.2 1.4 0.2 0.5 0 0.9-0.1 1.4-0.2 2 0 3.9-0.3 5.9-0.5 1.9-0.3 3.8-0.8 5.7-1.3 20.5-5.7 35.7-24.4 35.7-46.7 0-26.8-21.9-48.6-48.7-48.6-26.8 0-48.7 21.8-48.7 48.6zm422.9 426.7q1-1.3 1.9-2.6 0.7-1 1.4-2.1c0.5-1 1.1-2 1.6-3.1 0.3-0.7 0.7-1.5 1.1-2.2 0.4-1.2 0.8-2.4 1.3-3.6 0.2-0.8 0.5-1.6 0.8-2.5 0.4-1.2 0.7-2.6 1-4 0.1-0.9 0.4-1.7 0.5-2.6 0.3-1.5 0.5-3.1 0.7-4.8 0.1-0.8 0.2-1.5 0.3-2.3q0.3-3.7 0.3-7.7c0-34.2-17.3-73.7-42.3-102.4v160.2l23.9-13.5q0.1 0 0.1 0c0.6-0.5 1.2-0.9 1.8-1.3q0.9-0.7 1.8-1.5 1.2-1.1 2.2-2.2 0.8-0.9 1.6-1.8zm-705.2 84.9l-5.9 3.4-3.2 1.8c1.1-0.1 2.2 0 3.2 0q0.5 0 1 0 2.4 0.1 4.9 0.4c8.9 1.2 18.6 4.5 28.8 10.4 43.6 25.2 79 86.1 79 136.1 0 13.9-2.8 25.3-7.6 34.3-0.6 1.1-1.2 2.2-1.9 3.3l50.2-28.5c0.4-1.1 1.2-2.1 2.4-2.8 0.6-0.4 1.2-0.9 1.8-1.3 0.6-0.4 1.2-0.8 1.8-1.2q1-0.8 1.8-1.6 1.2-1 2.3-2.1 0.8-0.9 1.5-1.8 1-1.3 2-2.7 0.7-1 1.3-2 0.9-1.5 1.6-3.1c0.4-0.8 0.8-1.5 1.1-2.3 0.5-1.1 0.9-2.3 1.3-3.5 0.3-0.8 0.6-1.6 0.8-2.5 0.4-1.3 0.7-2.7 1-4 0.2-0.9 0.4-1.7 0.6-2.6 0.2-1.5 0.4-3.2 0.6-4.8 0.1-0.8 0.2-1.6 0.3-2.4q0.3-3.7 0.3-7.7c0-48-34.1-106.9-76-131.1-2.7-1.5-5.4-2.9-8-4-0.8-0.4-1.6-0.7-2.5-1.1q-2.7-1.1-5.3-2-1.4-0.4-2.7-0.8-2.5-0.7-4.9-1.2-1.3-0.2-2.6-0.4c-1.7-0.3-3.4-0.4-5-0.4-0.7-0.1-1.3-0.1-1.9-0.1-2.8 0-5.5 0.3-8.1 0.9q-0.8 0.2-1.7 0.5c-2.6 0.7-5.1 1.6-7.4 2.9-1.1 0.7-2.4 0.8-3.6 0.6zm0 236.2l212.8 122.9v-463.8l-212.8-122.9v216.3l39-22.9q0 0 0.1 0 0 0 0 0c0.8-0.5 1.8-0.8 2.7-1.3 1.3-0.6 2.5-1.2 3.8-1.7q3.2-1.2 6.7-1.9 0.1-0.1 0.2-0.1 5.4-1.1 11.2-0.9c1.2 0 2.5 0.3 3.7 0.5 10.6 0.9 21.8 4.5 33.4 11.2 45.2 26 81.9 89.4 81.9 141.2 0 26.4-9.2 46.2-26.1 55.8l-65.5 37c-7.5 5.5-16.6 8.3-26.7 8.3-11.9 0-25.1-3.9-38.6-11.7-9-5.2-17.7-12-25.8-19.8zm81.3-31.8q0.1-0.1 0.3-0.1 0 0-0.1 0-0.1 0-0.2 0.1zm0 0q0 0 0 0 0 0 0 0z"/>
			<path id="&lt;Compound Path&gt;" fill-rule="evenodd" class="s11" d="m742.8 621.9c0 16.3-9.8 34.6-22.2 41.8l-230.1 132.8c-3.5 2.1-7.1 3.2-10.6 3.2-2.7 0-5.4-0.7-7.8-2.1-6.1-3.6-9.6-11.1-9.6-20.7 0-3 0.4-6 1-9.1 2.6-12.6 9.9-25 19.2-31.4 0.6-0.4 1.3-1 2-1.3l230-132.9c6.5-3.7 13.1-4.1 18.5-1 6.1 3.5 9.6 11.1 9.6 20.7zm-11.8 0c0-6.2-1.9-9.5-3.7-10.5-0.6-0.3-1.3-0.5-2-0.5-1.8 0-3.6 0.9-4.7 1.5l-230.1 132.8c-8.8 5.1-16.3 19.6-16.3 31.7 0 5.1 1.5 9.2 3.7 10.5 2.2 1.2 5.2-0.1 6.8-1l230-132.9c8.8-5.1 16.3-19.6 16.3-31.6z"/>
			<path id="&lt;Compound Path&gt;" fill-rule="evenodd" class="s11" d="m493.1 660.9c-11.2 6.5-22.1 9.7-32 9.7-7.2 0-13.9-1.7-19.8-5.1-14-8.1-21.8-24.6-21.8-46.6 0-42.8 30.4-95.2 67.7-116.8 19.3-11.1 37.7-12.7 51.9-4.6 14 8.1 21.7 24.7 21.7 46.6 0.1 42.8-30.3 95.2-67.7 116.8zm-5.8-10.2c34.1-19.7 61.8-67.5 61.8-106.6 0-17.5-5.7-30.5-15.9-36.4-4.1-2.3-8.8-3.5-14-3.5-7.8 0-16.7 2.7-26.1 8.1-34.1 19.7-61.8 67.6-61.8 106.6 0 17.6 5.6 30.5 15.9 36.4 10.3 6 24.6 4.4 40.1-4.6z"/>
			<path id="&lt;Compound Path&gt;" fill-rule="evenodd" class="s11" d="m534.6 559.3c0 26.6-18.2 58.1-41.5 71.5-7 4.1-13.9 6.1-20.2 6.1-4.7 0-9.1-1.1-13-3.4-9.1-5.2-14.1-15.8-14.1-29.7 0-26.7 18.2-58.1 41.4-71.6 12.3-7 24.1-8 33.3-2.7 9.1 5.3 14.1 15.8 14.1 29.8zm-47.4 61.3c19.7-11.3 35.6-38.8 35.6-61.3 0-9.6-2.9-16.5-8.2-19.6-2.1-1.2-4.5-1.8-7.2-1.8-4.2 0-9.1 1.5-14.3 4.5-19.6 11.4-35.6 38.9-35.6 61.4 0 9.5 3 16.5 8.3 19.5 5.4 3.2 13 2.2 21.4-2.7z"/>
			<path id="&lt;Compound Path&gt;" fill-rule="evenodd" class="s11" d="m747.8 400c5 8.5 7.7 19.4 7.7 32.2 0 34.4-19.5 74.9-46.5 100.7-0.4 0.3-0.7 0.7-1.1 1-1.1 1.1-2.3 2.1-3.5 3.1-1.1 1-2.3 2-3.5 3-0.4 0.3-0.8 0.6-1.2 0.9-3.9 3-7.8 5.8-11.9 8.1-11.2 6.5-22.1 9.8-32 9.8-7.2 0-13.9-1.7-19.8-5.2-11.2-6.4-18.3-18.3-20.8-34-0.6-4-1-8.1-1-12.5 0-19.7 6.4-41.4 17-61.2q0.5-0.9 0.9-1.7 1.5-2.7 3.1-5.4 1.5-2.5 3.1-5.1 0.6-0.8 1.1-1.6c11.6-17.5 26.4-32.5 42.5-41.8 5.7-3.3 11.3-5.7 16.8-7.3 13-3.9 25.1-3.1 35 2.7q2.8 1.6 5.2 3.6 4.6 5.1 8.9 10.7zm-48.8 125.9c25.7-23.4 44.8-61.4 44.8-93.7-0.1-17.5-5.7-30.4-15.9-36.3-4.1-2.4-8.8-3.6-14-3.6-7.8 0-16.5 2.7-25.8 8q-0.2 0.1-0.3 0.2c-17.2 9.9-32.8 27-44 46.5-0.3 0.5-0.6 1.2-0.9 1.8-1 1.7-1.8 3.5-2.7 5.3-0.9 1.7-1.8 3.4-2.6 5.1-0.3 0.6-0.6 1.1-0.9 1.7-5.9 13.4-9.4 27.2-10.3 40.3-0.1 2-0.5 4-0.5 5.9 0.1 17.5 5.7 30.4 15.9 36.3 10.4 6 24.6 4.4 40.1-4.6 2.7-1.5 5.1-3.4 7.7-5.3 0.4-0.3 0.8-0.5 1.2-0.8 1.3-1 2.6-1.7 3.8-2.7 1.1-0.9 2.2-2.1 3.3-3.1q0.5-0.5 1.1-1z"/>
			<path id="&lt;Compound Path&gt;" fill-rule="evenodd" class="s11" d="m729.3 447.4c0 26.1-17.4 56.5-39.9 70.4-0.4 0.3-0.8 0.6-1.2 0.9-0.2 0.1-0.3 0.2-0.4 0.2-1.2 0.7-2.5 1.3-3.7 1.9q-2.2 1.1-4.4 1.8c-0.5 0.2-1 0.4-1.5 0.6-3.7 1.2-7.2 1.8-10.7 1.8-4.6 0-9-1.1-12.9-3.3-9.1-5.3-14.2-15.9-14.2-29.8 0-5.7 1-11.6 2.5-17.4q0.1-0.2 0.1-0.4c0.2-0.6 0.3-1.3 0.5-1.9 0.5-2 1.3-3.9 2-5.8 0.7-1.9 1.3-3.8 2.1-5.7 0.3-0.6 0.6-1.1 0.9-1.7 5.4-11.6 13.1-22.2 22.3-30.3 3.5-3.2 7.2-6.1 11.1-8.3 12.2-7.1 24-8.1 33.2-2.8 9.1 5.3 14.2 15.9 14.2 29.8zm-47.4 61.3c19.6-11.3 35.6-38.8 35.6-61.3 0-9.6-2.9-16.5-8.3-19.6-2-1.2-4.4-1.8-7.1-1.8-4.2 0-9.1 1.6-14.3 4.6-14.2 8.1-26.6 25.4-32.3 42.7q-0.3 1-0.6 1.9c-0.6 2.1-1.1 4.2-1.5 6.3-0.5 2.3-0.7 4.6-0.9 6.8 0 0.8-0.2 1.7-0.2 2.5 0 0.3-0.1 0.7-0.1 1.1 0 9.5 2.9 16.5 8.3 19.6 2.3 1.3 5.2 1.8 8.3 1.6 0.6 0 1.2 0 1.8-0.1q2.3-0.4 4.8-1.2c1.3-0.5 2.7-1.2 4.1-1.9 0.5-0.3 1-0.4 1.4-0.7 0.4-0.2 0.7-0.3 1-0.5z"/>
		</g>
	</g>
</svg>