<?xml version="1.0" encoding="utf-8"?>
<!-- Generator: Adobe Illustrator 25.2.0, SVG Export Plug-In . SVG Version: 6.00 Build 0)  -->
<svg version="1.1" xmlns="http://www.w3.org/2000/svg" xmlns:xlink="http://www.w3.org/1999/xlink" x="0px" y="0px"
	 viewBox="0 0 212 39.5" style="enable-background:new 0 0 212 39.5;" xml:space="preserve">
<style type="text/css">
	.st0{fill:#FFFFFF;}
	.st1{fill:#373737;}
	.st2{fill:#808080;}
	.st3{fill:url(#SVGID_1_);}
	.st4{fill:url(#SVGID_2_);}
	.st5{fill:url(#SVGID_3_);}
	.st6{fill:url(#SVGID_4_);}
	.st7{display:none;}
</style>
<g id="AW">
	<g>
		<rect x="62.4" class="st0" width="11.8" height="39.5"/>
		<polygon class="st0" points="202,0 190.4,0 186.5,0 170.1,20 153.8,0 149.9,0 138.3,0 138.2,0 138.2,39.5 149.9,39.5 149.9,14.4 
			170.1,39.5 190.4,14.4 190.4,39.5 202.2,39.5 202.2,0 		"/>
		<polygon class="st0" points="30.4,19.9 15.6,0 0.9,0 30.4,39.5 59.9,0 45.3,0 		"/>
		<polygon class="st0" points="76.7,39.5 91.3,39.5 106.2,19.6 121,39.5 135.7,39.5 106.2,0 		"/>
	</g>
</g>
<g id="LIVE_TEXT" class="st7">
</g>
</svg>
