<?xml version="1.0" encoding="UTF-8"?><svg id="Layer_1" xmlns="http://www.w3.org/2000/svg" viewBox="0 0 350 350"><path d="m77.35789,122.46727l43.38015,24.68151-2.4505-2.4505,3.43624-3.4359-37.34492-21.24767,90.62114-52.3247,48.08474,27.76089c1.33303.77737,3.05474.31204,3.82937-1.02372.77463-1.34124.31478-3.05474-1.02646-3.82663l-49.4862-28.5711c-.86496-.50365-1.93795-.50365-2.80291,0l-96.25708,55.57651c-.87044.49817-1.40419,1.42883-1.40146,2.43613.00274,1.00182.54471,1.927,1.41788,2.42518Z"/><path d="m272.66675,117.60597c-.85949-.49817-1.92427-.50912-2.7947-.01095l-41.59616,23.666-16.6488-16.64846-.00034.00068-11.42413,11.42447c-1.72137-.96008-3.50433-1.81957-5.34032-2.57641-1.83599-.75616-3.72501-1.41035-5.65954-1.96053v-16.17697h-28.4055v16.17697c-1.93419.55087-3.82355,1.20506-5.65954,1.96122s-3.61826,1.61564-5.33963,2.57572l-.00034-.00068-11.42447-11.42447-10.04286,10.04286-6.60628,6.60696-3.43624,3.4359,2.45084,2.4505,8.97329,8.97398c-1.91982,3.44205-3.43555,7.13114-4.5366,10.99952h-16.17594v28.40618h16.17594c.55052,1.93385,1.20438,3.82321,1.96122,5.6592.7565,1.83599,1.61564,3.61929,2.57572,5.34032l-11.42447,11.42447,20.08572,20.08504,11.42413-11.42447h.00034c1.02783.57345,2.11861,1.03741,3.18852,1.53832,2.51311,1.177,5.09705,2.22673,7.81066,2.99862v16.17629h28.4055v-16.17629c1.93453-.55018,3.82355-1.20438,5.65954-1.96122s3.61895-1.61496,5.34032-2.57572l11.42447,11.42447.00034-.00068,20.08538-20.08435-11.42481-11.42516c1.92016-3.44205,3.4359-7.13046,4.53694-10.99883h16.17594v-28.40618h-16.17594c-1.10105-3.86838-2.61678-7.55678-4.5366-10.99883l8.97671-8.9774,39.18912-22.29739v103.90487l-92.75617,53.55645-93.47333-53.9725-.64051-54.65681c-.0219-1.54927-1.36861-2.9124-2.83576-2.77007-1.54927.01642-2.78923,1.28649-2.77007,2.83576l.65967,56.25535c.01095.99087.54471,1.89963,1.40146,2.39233l96.25708,55.57651c.43248.25182.91697.37774,1.40146.37774s.96898-.12591,1.40146-.37774l95.55909-55.17141c.8677-.49817,1.40146-1.42335,1.40146-2.42518v-110.34281c0-.99635-.53102-1.92153-1.39324-2.42518Zm-52.07493,55.12214h14.80323v17.19453h-14.80323l-1.15853,4.07093c-.98677,3.46737-2.34648,6.76504-4.04082,9.80267l-2.06352,3.69935,2.9952,2.99589,7.46064,7.46098-12.1577,12.15736-7.46064-7.46098-2.99555-2.9952-3.69969,2.06386c-3.03592,1.69434-6.33393,3.05337-9.80301,4.04082l-4.07127,1.15853v14.80357h-17.19385v-14.80357l-4.07127-1.15853c-3.46635-.98677-6.76435-2.34648-9.80301-4.04082l-3.69935-2.06386-2.99555,2.9952-7.46029,7.46098-12.1577-12.15736,7.46029-7.46029,2.9952-2.9952-2.06318-3.69935c-1.69468-3.03831-3.0544-6.33735-4.04116-9.80404l-1.15853-4.07093h-14.80323v-17.19453h14.80323l1.15853-4.07093c.98677-3.46669,2.34614-6.76504,4.04082-9.80404l1.61428-2.89461.44856-.80474-2.99486-2.9952-7.46029-7.46029.56147-.56181,11.59623-11.59623,7.46064,7.46166,2.99555,2.9952,3.69935-2.06386c3.03831-1.69434,6.33666-3.05405,9.80301-4.04082l4.07127-1.15853v-14.80425h17.19385v14.80494l4.07196,1.15784c3.46395.9854,6.7623,2.34511,9.80301,4.04082l3.69935,2.06386,2.9952-2.99589,7.46064-7.46098,11.59589,11.59623.56216.56181-7.46064,7.46166-2.9952,2.99452.44822.80406,1.61496,2.89529c1.69468,3.03831,3.05405,6.33666,4.04082,9.80335l1.15853,4.07093Z"/><path d="m201.33617,163.03698c-.50365-.72399-1.02235-1.43772-1.5828-2.11724-.64872-.78627-1.33542-1.54037-2.05531-2.26094-.00513-.00547-.00958-.01095-.01505-.01642-1.14108-1.14142-2.38925-2.16788-3.6908-3.12727-1.18214-.87112-2.40362-1.6916-3.70175-2.39644-1.15237-.62682-2.36119-1.15648-3.59363-1.64028-3.62784-1.42267-7.56431-2.23152-11.69683-2.23152-4.42916,0-8.64859.89781-12.48617,2.52098-1.91913.81159-3.74246,1.80383-5.44912,2.95757-1.71316,1.15648-3.3069,2.47582-4.76276,3.93339-1.34124,1.34398-2.55075,2.81523-3.63811,4.37818-3.61074,5.19045-5.742,11.48674-5.742,18.28805,0,11.07274,5.60993,20.83503,14.14287,26.59962.85333.57687,1.73574,1.11336,2.64484,1.60675,4.54515,2.46897,9.75408,3.8718,15.29045,3.8718s10.7453-1.40283,15.29045-3.8718c1.29813-.70483,2.51961-1.52463,3.70175-2.39644,2.12922-1.5698,4.07983-3.36746,5.76116-5.40464,1.30771-1.58485,2.46589-3.29698,3.45335-5.1145.98779-1.8182,1.80485-3.74315,2.42962-5.75158.93716-3.01299,1.44217-6.21691,1.44217-9.53921,0-5.53671-1.40248-10.74564-3.8718-15.2908-.56421-1.03877-1.19856-2.0317-1.87055-2.99726Zm-26.33616,44.76039c-14.59691,0-26.47234-11.87543-26.47234-26.47234,0-5.7899,1.92221-11.10764,5.08815-15.47008,1.13252-1.56022,2.44571-2.9603,3.88412-4.23859,4.67722-4.15715,10.7648-6.76367,17.50007-6.76367s12.82285,2.60652,17.50007,6.76367c1.43841,1.27828,2.75159,2.677,3.88412,4.23859,3.16594,4.36176,5.08849,9.68018,5.08849,15.47008,0,14.59691-11.87543,26.47234-26.47268,26.47234Z"/></svg>