<?xml version="1.0" encoding="UTF-8"?><svg id="Layer_1" xmlns="http://www.w3.org/2000/svg" viewBox="0 0 350 350"><path d="m174.651,61.10975l-98.45507,56.84111v113.6877l97.04814,56.03089,2.10218,1.2208,98.4578-56.84659v-113.69317l-99.15306-57.24074Zm93.54723,167.69305l-92.8465,53.61119-93.54997-54.0163v-107.20596l92.84924-53.61119,93.54723,54.01083v107.21143Z"/><path d="m132.86324,114.76337l-2.80428,1.61907v20.07888l-10.90132,6.29424v63.61436l55.49371,32.03916,55.09168-31.80718v-63.61436l-10.49998-6.06226v-20.19247l-3.10777-1.79425-41.78537-24.12449-41.48668,23.94931Zm77.66725,3.41194l-11.88159,6.85947-23.99515,13.85444-.00274.00137-.00274-.00137-24.39684-14.08573-11.78373-6.80336.00137-.00068,35.88085-20.7146,36.17955,20.88978.00103.00068Zm-74.8657,15.04992v-10.36927l8.98013,5.18429,27.20318,15.70617v41.42509l-36.18331-20.89046v-31.05581Zm77.97245.46327v30.59254l-36.18331,20.89046v-41.42509l26.80183-15.47419,9.38148-5.41627v10.83255Z"/></svg>