<?xml version="1.0" encoding="UTF-8"?><svg id="Layer_1" xmlns="http://www.w3.org/2000/svg" viewBox="0 0 350 350"><path d="m253.69097,114.63472c-.75821-26.49082-22.54922-47.81376-49.22343-47.81376-14.15964,0-27.43789,6.00546-36.79645,16.55471-7.31933-4.07846-15.52004-6.21896-23.86308-6.21896-22.6806,0-42.58567,15.76639-47.86577,37.68605-18.15872,8.83027-29.8138,27.3503-29.8138,47.56741,0,23.02413,14.58254,43.1208,36.37765,50.27315.52486.17244,1.08086.2614,1.63275.27304l5.25683.1088v-5.60583h-4.82572c-22.30561-7.14962-36.26645-29.42375-32.1028-53.53181,2.67392-15.48172,13.41546-28.39045,27.72427-34.87766l.63401-.28741.14097-.66925c2.44092-11.59007,9.13102-22.06199,19.15267-28.37402,15.04376-9.47626,32.86546-8.95892,46.68431-.349l2.10766,1.30839.52041-.64598c8.91684-11.06384,22.36035-18.06976,36.56207-17.5798,23.35636.80748,42.11042,20.0693,42.0916,43.98849v1.83941l.63504.27646c14.17948,6.16833,25.16258,18.47897,28.43903,33.59116,5.17335,23.86445-8.27941,46.90774-30.18264,54.78546h-3.83211v5.60583h4.31386l.92244-.15876c21.22714-7.39597,35.49079-27.48169,35.49079-49.97616,0-20.45798-11.78647-39.01086-30.18059-47.76996Z"/><polygon points="179.23859 136.01241 179.23859 111.93856 185.67653 120.71956 192.39914 120.71956 176.43636 99.29807 160.4722 120.71956 167.06548 120.71956 173.63276 111.88723 173.63276 136.01241 179.23859 136.01241"/><path d="m176.43567,142.12188l-58.48447,33.76635-2.80736,1.62112v70.28565l58.48892,33.76566,2.80291,1.61838,2.80291-1.61838,58.48892-33.76566v-70.28428l-2.80394-1.61838-58.48789-33.77045Zm-2.80291,96.63482v36.32838l-52.88309-30.53095v-60.57468l52.88309,30.53643v24.24082Zm3.22445-29.343l-52.88035-30.53095,52.45882-30.29008,52.88172,30.53574.00137.00068-52.46156,30.2846Zm55.26447,35.14043l-52.88309,30.53095v-60.5692l52.88309-30.53095v60.5692Z"/></svg>